0, 0, Header, 1, 4, 960
1, 0, Start_track
1, 0, Title_t, "untitled"
1, 0, Text_t, "Can't Stop (live at Slane)"
1, 0, Text_t, ""
1, 0, Text_t, "Red Hot Chili Peppers"
1, 0, Text_t, ""
1, 0, Text_t, ""
1, 0, Text_t, ""
1, 0, Copyright_t, "Copyright 2017 by Gitaro"
1, 0, Marker_t, "Can't Stop (live at Slane) / Red Hot Chili Peppers - Copyright 2017 by Gitaro"
1, 0, MIDI_port, 0
1, 0, Key_signature, 0, "major"
1, 0, Time_signature, 4, 2, 24, 8
1, 0, Tempo, 600000
1, 0, End_track
2, 0, Start_track
2, 0, MIDI_port, 1
2, 0, Title_t, "Chad - Drums"
2, 0, Program_c, 9, 16
2, 0, Note_on_c, 9, 41, 63
2, 0, Note_on_c, 9, 42, 95
2, 240, Note_off_c, 9, 41, 0
2, 240, Note_off_c, 9, 42, 0
2, 240, Note_on_c, 9, 44, 95
2, 240, Note_on_c, 9, 41, 63
2, 480, Note_off_c, 9, 44, 0
2, 480, Note_off_c, 9, 41, 0
2, 480, Note_on_c, 9, 44, 95
2, 480, Note_on_c, 9, 41, 63
2, 720, Note_off_c, 9, 44, 0
2, 720, Note_off_c, 9, 41, 0
2, 720, Note_on_c, 9, 44, 95
2, 960, Note_off_c, 9, 44, 0
2, 960, Note_on_c, 9, 41, 63
2, 960, Note_on_c, 9, 42, 95
2, 1200, Note_off_c, 9, 41, 0
2, 1200, Note_off_c, 9, 42, 0
2, 1200, Note_on_c, 9, 44, 95
2, 1440, Note_off_c, 9, 44, 0
2, 1440, Note_on_c, 9, 41, 63
2, 1440, Note_on_c, 9, 44, 95
2, 1680, Note_off_c, 9, 41, 0
2, 1680, Note_off_c, 9, 44, 0
2, 1680, Note_on_c, 9, 41, 63
2, 1680, Note_on_c, 9, 44, 95
2, 1920, Note_off_c, 9, 41, 0
2, 1920, Note_off_c, 9, 44, 0
2, 1920, Note_on_c, 9, 41, 63
2, 1920, Note_on_c, 9, 42, 95
2, 2160, Note_off_c, 9, 41, 0
2, 2160, Note_off_c, 9, 42, 0
2, 2160, Note_on_c, 9, 41, 63
2, 2160, Note_on_c, 9, 44, 95
2, 2400, Note_off_c, 9, 41, 0
2, 2400, Note_off_c, 9, 44, 0
2, 2400, Note_on_c, 9, 41, 63
2, 2400, Note_on_c, 9, 44, 95
2, 2640, Note_off_c, 9, 41, 0
2, 2640, Note_off_c, 9, 44, 0
2, 2640, Note_on_c, 9, 44, 95
2, 2880, Note_off_c, 9, 44, 0
2, 2880, Note_on_c, 9, 41, 63
2, 2880, Note_on_c, 9, 42, 95
2, 3120, Note_off_c, 9, 41, 0
2, 3120, Note_off_c, 9, 42, 0
2, 3120, Note_on_c, 9, 41, 63
2, 3120, Note_on_c, 9, 44, 95
2, 3360, Note_off_c, 9, 41, 0
2, 3360, Note_off_c, 9, 44, 0
2, 3360, Note_on_c, 9, 41, 63
2, 3360, Note_on_c, 9, 44, 95
2, 3600, Note_off_c, 9, 41, 0
2, 3600, Note_off_c, 9, 44, 0
2, 3600, Note_on_c, 9, 41, 63
2, 3600, Note_on_c, 9, 44, 95
2, 3840, Note_off_c, 9, 41, 0
2, 3840, Note_off_c, 9, 44, 0
2, 3840, Note_on_c, 9, 41, 63
2, 3840, Note_on_c, 9, 42, 95
2, 4080, Note_off_c, 9, 41, 0
2, 4080, Note_off_c, 9, 42, 0
2, 4080, Note_on_c, 9, 44, 95
2, 4080, Note_on_c, 9, 41, 63
2, 4320, Note_off_c, 9, 44, 0
2, 4320, Note_off_c, 9, 41, 0
2, 4320, Note_on_c, 9, 44, 95
2, 4320, Note_on_c, 9, 41, 63
2, 4560, Note_off_c, 9, 44, 0
2, 4560, Note_off_c, 9, 41, 0
2, 4560, Note_on_c, 9, 44, 95
2, 4800, Note_off_c, 9, 44, 0
2, 4800, Note_on_c, 9, 41, 63
2, 4800, Note_on_c, 9, 42, 95
2, 5040, Note_off_c, 9, 41, 0
2, 5040, Note_off_c, 9, 42, 0
2, 5040, Note_on_c, 9, 44, 95
2, 5280, Note_off_c, 9, 44, 0
2, 5280, Note_on_c, 9, 41, 63
2, 5280, Note_on_c, 9, 44, 95
2, 5520, Note_off_c, 9, 41, 0
2, 5520, Note_off_c, 9, 44, 0
2, 5520, Note_on_c, 9, 41, 63
2, 5520, Note_on_c, 9, 44, 95
2, 5760, Note_off_c, 9, 41, 0
2, 5760, Note_off_c, 9, 44, 0
2, 5760, Note_on_c, 9, 41, 63
2, 5760, Note_on_c, 9, 42, 95
2, 6000, Note_off_c, 9, 41, 0
2, 6000, Note_off_c, 9, 42, 0
2, 6000, Note_on_c, 9, 41, 63
2, 6000, Note_on_c, 9, 44, 95
2, 6240, Note_off_c, 9, 41, 0
2, 6240, Note_off_c, 9, 44, 0
2, 6240, Note_on_c, 9, 41, 63
2, 6240, Note_on_c, 9, 44, 95
2, 6480, Note_off_c, 9, 41, 0
2, 6480, Note_off_c, 9, 44, 0
2, 6480, Note_on_c, 9, 44, 95
2, 6720, Note_off_c, 9, 44, 0
2, 6720, Note_on_c, 9, 41, 63
2, 6720, Note_on_c, 9, 42, 95
2, 6960, Note_off_c, 9, 41, 0
2, 6960, Note_off_c, 9, 42, 0
2, 6960, Note_on_c, 9, 41, 63
2, 6960, Note_on_c, 9, 44, 95
2, 7200, Note_off_c, 9, 41, 0
2, 7200, Note_off_c, 9, 44, 0
2, 7200, Note_on_c, 9, 41, 63
2, 7200, Note_on_c, 9, 44, 95
2, 7440, Note_off_c, 9, 41, 0
2, 7440, Note_off_c, 9, 44, 0
2, 7440, Note_on_c, 9, 41, 63
2, 7440, Note_on_c, 9, 44, 95
2, 7680, Note_off_c, 9, 41, 0
2, 7680, Note_off_c, 9, 44, 0
2, 7680, Note_on_c, 9, 41, 63
2, 7680, Note_on_c, 9, 42, 95
2, 7920, Note_off_c, 9, 41, 0
2, 7920, Note_off_c, 9, 42, 0
2, 7920, Note_on_c, 9, 44, 95
2, 7920, Note_on_c, 9, 41, 63
2, 8160, Note_off_c, 9, 44, 0
2, 8160, Note_off_c, 9, 41, 0
2, 8160, Note_on_c, 9, 44, 95
2, 8160, Note_on_c, 9, 41, 63
2, 8400, Note_off_c, 9, 44, 0
2, 8400, Note_off_c, 9, 41, 0
2, 8400, Note_on_c, 9, 44, 95
2, 8640, Note_off_c, 9, 44, 0
2, 8640, Note_on_c, 9, 41, 63
2, 8640, Note_on_c, 9, 42, 95
2, 8880, Note_off_c, 9, 41, 0
2, 8880, Note_off_c, 9, 42, 0
2, 8880, Note_on_c, 9, 44, 95
2, 9120, Note_off_c, 9, 44, 0
2, 9120, Note_on_c, 9, 41, 63
2, 9120, Note_on_c, 9, 44, 95
2, 9360, Note_off_c, 9, 41, 0
2, 9360, Note_off_c, 9, 44, 0
2, 9360, Note_on_c, 9, 41, 63
2, 9360, Note_on_c, 9, 44, 95
2, 9600, Note_off_c, 9, 41, 0
2, 9600, Note_off_c, 9, 44, 0
2, 9600, Note_on_c, 9, 41, 63
2, 9600, Note_on_c, 9, 42, 95
2, 9840, Note_off_c, 9, 41, 0
2, 9840, Note_off_c, 9, 42, 0
2, 9840, Note_on_c, 9, 41, 63
2, 9840, Note_on_c, 9, 44, 95
2, 10080, Note_off_c, 9, 41, 0
2, 10080, Note_off_c, 9, 44, 0
2, 10080, Note_on_c, 9, 41, 63
2, 10080, Note_on_c, 9, 44, 95
2, 10320, Note_off_c, 9, 41, 0
2, 10320, Note_off_c, 9, 44, 0
2, 10320, Note_on_c, 9, 44, 95
2, 10560, Note_off_c, 9, 44, 0
2, 10560, Note_on_c, 9, 41, 63
2, 10560, Note_on_c, 9, 42, 95
2, 10800, Note_off_c, 9, 41, 0
2, 10800, Note_off_c, 9, 42, 0
2, 10800, Note_on_c, 9, 41, 63
2, 10800, Note_on_c, 9, 44, 95
2, 11040, Note_off_c, 9, 41, 0
2, 11040, Note_off_c, 9, 44, 0
2, 11040, Note_on_c, 9, 41, 63
2, 11040, Note_on_c, 9, 44, 95
2, 11280, Note_off_c, 9, 41, 0
2, 11280, Note_off_c, 9, 44, 0
2, 11280, Note_on_c, 9, 41, 63
2, 11280, Note_on_c, 9, 44, 95
2, 11520, Note_off_c, 9, 41, 0
2, 11520, Note_off_c, 9, 44, 0
2, 11520, Note_on_c, 9, 41, 63
2, 11520, Note_on_c, 9, 42, 95
2, 11760, Note_off_c, 9, 41, 0
2, 11760, Note_off_c, 9, 42, 0
2, 11760, Note_on_c, 9, 44, 95
2, 11760, Note_on_c, 9, 41, 63
2, 12000, Note_off_c, 9, 44, 0
2, 12000, Note_off_c, 9, 41, 0
2, 12000, Note_on_c, 9, 44, 95
2, 12000, Note_on_c, 9, 41, 63
2, 12240, Note_off_c, 9, 44, 0
2, 12240, Note_off_c, 9, 41, 0
2, 12240, Note_on_c, 9, 44, 95
2, 12480, Note_off_c, 9, 44, 0
2, 12480, Note_on_c, 9, 41, 63
2, 12480, Note_on_c, 9, 42, 95
2, 12720, Note_off_c, 9, 41, 0
2, 12720, Note_off_c, 9, 42, 0
2, 12720, Note_on_c, 9, 44, 95
2, 12960, Note_off_c, 9, 44, 0
2, 12960, Note_on_c, 9, 41, 63
2, 12960, Note_on_c, 9, 44, 95
2, 13200, Note_off_c, 9, 41, 0
2, 13200, Note_off_c, 9, 44, 0
2, 13200, Note_on_c, 9, 41, 63
2, 13200, Note_on_c, 9, 44, 95
2, 13440, Note_off_c, 9, 41, 0
2, 13440, Note_off_c, 9, 44, 0
2, 13440, Note_on_c, 9, 41, 63
2, 13440, Note_on_c, 9, 42, 95
2, 13680, Note_off_c, 9, 41, 0
2, 13680, Note_off_c, 9, 42, 0
2, 13680, Note_on_c, 9, 41, 63
2, 13680, Note_on_c, 9, 44, 95
2, 13920, Note_off_c, 9, 41, 0
2, 13920, Note_off_c, 9, 44, 0
2, 13920, Note_on_c, 9, 41, 63
2, 13920, Note_on_c, 9, 44, 95
2, 14160, Note_off_c, 9, 41, 0
2, 14160, Note_off_c, 9, 44, 0
2, 14160, Note_on_c, 9, 44, 95
2, 14400, Note_off_c, 9, 44, 0
2, 14400, Note_on_c, 9, 41, 63
2, 14400, Note_on_c, 9, 42, 95
2, 14640, Note_off_c, 9, 41, 0
2, 14640, Note_off_c, 9, 42, 0
2, 14640, Note_on_c, 9, 41, 63
2, 14640, Note_on_c, 9, 44, 95
2, 14880, Note_off_c, 9, 41, 0
2, 14880, Note_off_c, 9, 44, 0
2, 14880, Note_on_c, 9, 41, 63
2, 14880, Note_on_c, 9, 44, 95
2, 15120, Note_off_c, 9, 41, 0
2, 15120, Note_off_c, 9, 44, 0
2, 15120, Note_on_c, 9, 41, 63
2, 15120, Note_on_c, 9, 44, 95
2, 15360, Note_off_c, 9, 41, 0
2, 15360, Note_off_c, 9, 44, 0
2, 15360, Note_on_c, 9, 41, 63
2, 15360, Note_on_c, 9, 42, 95
2, 15600, Note_off_c, 9, 41, 0
2, 15600, Note_off_c, 9, 42, 0
2, 15600, Note_on_c, 9, 44, 95
2, 15600, Note_on_c, 9, 41, 63
2, 15840, Note_off_c, 9, 44, 0
2, 15840, Note_off_c, 9, 41, 0
2, 15840, Note_on_c, 9, 44, 95
2, 15840, Note_on_c, 9, 41, 63
2, 16080, Note_off_c, 9, 44, 0
2, 16080, Note_off_c, 9, 41, 0
2, 16080, Note_on_c, 9, 44, 95
2, 16320, Note_off_c, 9, 44, 0
2, 16320, Note_on_c, 9, 41, 63
2, 16320, Note_on_c, 9, 42, 95
2, 16560, Note_off_c, 9, 41, 0
2, 16560, Note_off_c, 9, 42, 0
2, 16560, Note_on_c, 9, 44, 95
2, 16800, Note_off_c, 9, 44, 0
2, 16800, Note_on_c, 9, 41, 63
2, 16800, Note_on_c, 9, 44, 95
2, 17040, Note_off_c, 9, 41, 0
2, 17040, Note_off_c, 9, 44, 0
2, 17040, Note_on_c, 9, 41, 63
2, 17040, Note_on_c, 9, 44, 95
2, 17280, Note_off_c, 9, 41, 0
2, 17280, Note_off_c, 9, 44, 0
2, 17280, Note_on_c, 9, 41, 63
2, 17280, Note_on_c, 9, 42, 95
2, 17520, Note_off_c, 9, 41, 0
2, 17520, Note_off_c, 9, 42, 0
2, 17520, Note_on_c, 9, 41, 63
2, 17520, Note_on_c, 9, 44, 95
2, 17760, Note_off_c, 9, 41, 0
2, 17760, Note_off_c, 9, 44, 0
2, 17760, Note_on_c, 9, 41, 63
2, 17760, Note_on_c, 9, 44, 95
2, 18000, Note_off_c, 9, 41, 0
2, 18000, Note_off_c, 9, 44, 0
2, 18000, Note_on_c, 9, 36, 63
2, 18000, Note_on_c, 9, 44, 95
2, 18240, Note_off_c, 9, 36, 0
2, 18240, Note_off_c, 9, 44, 0
2, 18240, Note_on_c, 9, 36, 63
2, 18240, Note_on_c, 9, 41, 63
2, 18240, Note_on_c, 9, 42, 95
2, 18480, Note_off_c, 9, 36, 0
2, 18480, Note_off_c, 9, 41, 0
2, 18480, Note_off_c, 9, 42, 0
2, 18480, Note_on_c, 9, 41, 63
2, 18480, Note_on_c, 9, 44, 95
2, 18720, Note_off_c, 9, 41, 0
2, 18720, Note_off_c, 9, 44, 0
2, 18720, Note_on_c, 9, 41, 63
2, 18720, Note_on_c, 9, 44, 95
2, 18960, Note_off_c, 9, 41, 0
2, 18960, Note_off_c, 9, 44, 0
2, 18960, Note_on_c, 9, 41, 63
2, 18960, Note_on_c, 9, 44, 95
2, 19200, Note_off_c, 9, 41, 0
2, 19200, Note_off_c, 9, 44, 0
2, 19200, Note_on_c, 9, 41, 63
2, 19200, Note_on_c, 9, 42, 95
2, 19440, Note_off_c, 9, 41, 0
2, 19440, Note_off_c, 9, 42, 0
2, 19440, Note_on_c, 9, 44, 95
2, 19440, Note_on_c, 9, 41, 63
2, 19680, Note_off_c, 9, 44, 0
2, 19680, Note_off_c, 9, 41, 0
2, 19680, Note_on_c, 9, 44, 95
2, 19680, Note_on_c, 9, 41, 63
2, 19920, Note_off_c, 9, 44, 0
2, 19920, Note_off_c, 9, 41, 0
2, 19920, Note_on_c, 9, 44, 95
2, 20160, Note_off_c, 9, 44, 0
2, 20160, Note_on_c, 9, 41, 63
2, 20160, Note_on_c, 9, 42, 95
2, 20400, Note_off_c, 9, 41, 0
2, 20400, Note_off_c, 9, 42, 0
2, 20400, Note_on_c, 9, 44, 95
2, 20640, Note_off_c, 9, 44, 0
2, 20640, Note_on_c, 9, 41, 63
2, 20640, Note_on_c, 9, 44, 95
2, 20880, Note_off_c, 9, 41, 0
2, 20880, Note_off_c, 9, 44, 0
2, 20880, Note_on_c, 9, 41, 63
2, 20880, Note_on_c, 9, 44, 95
2, 21120, Note_off_c, 9, 41, 0
2, 21120, Note_off_c, 9, 44, 0
2, 21120, Note_on_c, 9, 41, 63
2, 21120, Note_on_c, 9, 42, 95
2, 21360, Note_off_c, 9, 41, 0
2, 21360, Note_off_c, 9, 42, 0
2, 21360, Note_on_c, 9, 41, 63
2, 21360, Note_on_c, 9, 44, 95
2, 21600, Note_off_c, 9, 41, 0
2, 21600, Note_off_c, 9, 44, 0
2, 21600, Note_on_c, 9, 41, 63
2, 21600, Note_on_c, 9, 44, 95
2, 21840, Note_off_c, 9, 41, 0
2, 21840, Note_off_c, 9, 44, 0
2, 21840, Note_on_c, 9, 44, 95
2, 22080, Note_off_c, 9, 44, 0
2, 22080, Note_on_c, 9, 41, 63
2, 22080, Note_on_c, 9, 42, 95
2, 22320, Note_off_c, 9, 41, 0
2, 22320, Note_off_c, 9, 42, 0
2, 22320, Note_on_c, 9, 41, 63
2, 22320, Note_on_c, 9, 44, 95
2, 22560, Note_off_c, 9, 41, 0
2, 22560, Note_off_c, 9, 44, 0
2, 22560, Note_on_c, 9, 41, 63
2, 22560, Note_on_c, 9, 44, 95
2, 22800, Note_off_c, 9, 41, 0
2, 22800, Note_off_c, 9, 44, 0
2, 22800, Note_on_c, 9, 41, 63
2, 22800, Note_on_c, 9, 44, 95
2, 23040, Note_off_c, 9, 41, 0
2, 23040, Note_off_c, 9, 44, 0
2, 23040, Note_on_c, 9, 41, 63
2, 23040, Note_on_c, 9, 42, 95
2, 23280, Note_off_c, 9, 41, 0
2, 23280, Note_off_c, 9, 42, 0
2, 23280, Note_on_c, 9, 44, 95
2, 23280, Note_on_c, 9, 41, 63
2, 23520, Note_off_c, 9, 44, 0
2, 23520, Note_off_c, 9, 41, 0
2, 23520, Note_on_c, 9, 44, 95
2, 23520, Note_on_c, 9, 41, 63
2, 23760, Note_off_c, 9, 44, 0
2, 23760, Note_off_c, 9, 41, 0
2, 23760, Note_on_c, 9, 44, 95
2, 24000, Note_off_c, 9, 44, 0
2, 24000, Note_on_c, 9, 41, 63
2, 24000, Note_on_c, 9, 42, 95
2, 24240, Note_off_c, 9, 41, 0
2, 24240, Note_off_c, 9, 42, 0
2, 24240, Note_on_c, 9, 44, 95
2, 24480, Note_off_c, 9, 44, 0
2, 24480, Note_on_c, 9, 41, 63
2, 24480, Note_on_c, 9, 44, 95
2, 24720, Note_off_c, 9, 41, 0
2, 24720, Note_off_c, 9, 44, 0
2, 24720, Note_on_c, 9, 41, 63
2, 24720, Note_on_c, 9, 44, 95
2, 24960, Note_off_c, 9, 41, 0
2, 24960, Note_off_c, 9, 44, 0
2, 24960, Note_on_c, 9, 41, 63
2, 24960, Note_on_c, 9, 42, 95
2, 25200, Note_off_c, 9, 41, 0
2, 25200, Note_off_c, 9, 42, 0
2, 25200, Note_on_c, 9, 41, 63
2, 25200, Note_on_c, 9, 44, 95
2, 25440, Note_off_c, 9, 41, 0
2, 25440, Note_off_c, 9, 44, 0
2, 25440, Note_on_c, 9, 41, 63
2, 25440, Note_on_c, 9, 44, 95
2, 25680, Note_off_c, 9, 41, 0
2, 25680, Note_off_c, 9, 44, 0
2, 25680, Note_on_c, 9, 38, 63
2, 25680, Note_on_c, 9, 44, 95
2, 25920, Note_off_c, 9, 38, 0
2, 25920, Note_off_c, 9, 44, 0
2, 25920, Note_on_c, 9, 38, 63
2, 25920, Note_on_c, 9, 41, 63
2, 25920, Note_on_c, 9, 42, 95
2, 26160, Note_off_c, 9, 38, 0
2, 26160, Note_off_c, 9, 41, 0
2, 26160, Note_off_c, 9, 42, 0
2, 26160, Note_on_c, 9, 41, 63
2, 26160, Note_on_c, 9, 44, 95
2, 26400, Note_off_c, 9, 41, 0
2, 26400, Note_off_c, 9, 44, 0
2, 26400, Note_on_c, 9, 41, 63
2, 26400, Note_on_c, 9, 44, 95
2, 26640, Note_off_c, 9, 41, 0
2, 26640, Note_off_c, 9, 44, 0
2, 26640, Note_on_c, 9, 41, 63
2, 26640, Note_on_c, 9, 44, 95
2, 26880, Note_off_c, 9, 41, 0
2, 26880, Note_off_c, 9, 44, 0
2, 26880, Note_on_c, 9, 41, 63
2, 26880, Note_on_c, 9, 42, 95
2, 27120, Note_off_c, 9, 41, 0
2, 27120, Note_off_c, 9, 42, 0
2, 27120, Note_on_c, 9, 44, 95
2, 27120, Note_on_c, 9, 41, 63
2, 27360, Note_off_c, 9, 44, 0
2, 27360, Note_off_c, 9, 41, 0
2, 27360, Note_on_c, 9, 44, 95
2, 27360, Note_on_c, 9, 41, 63
2, 27600, Note_off_c, 9, 44, 0
2, 27600, Note_off_c, 9, 41, 0
2, 27600, Note_on_c, 9, 44, 95
2, 27840, Note_off_c, 9, 44, 0
2, 27840, Note_on_c, 9, 41, 63
2, 27840, Note_on_c, 9, 42, 95
2, 28080, Note_off_c, 9, 41, 0
2, 28080, Note_off_c, 9, 42, 0
2, 28080, Note_on_c, 9, 44, 95
2, 28320, Note_off_c, 9, 44, 0
2, 28320, Note_on_c, 9, 41, 63
2, 28320, Note_on_c, 9, 44, 95
2, 28560, Note_off_c, 9, 41, 0
2, 28560, Note_off_c, 9, 44, 0
2, 28560, Note_on_c, 9, 41, 63
2, 28560, Note_on_c, 9, 44, 95
2, 28800, Note_off_c, 9, 41, 0
2, 28800, Note_off_c, 9, 44, 0
2, 28800, Note_on_c, 9, 41, 63
2, 28800, Note_on_c, 9, 42, 95
2, 29040, Note_off_c, 9, 41, 0
2, 29040, Note_off_c, 9, 42, 0
2, 29040, Note_on_c, 9, 41, 63
2, 29040, Note_on_c, 9, 44, 95
2, 29280, Note_off_c, 9, 41, 0
2, 29280, Note_off_c, 9, 44, 0
2, 29280, Note_on_c, 9, 41, 63
2, 29280, Note_on_c, 9, 44, 95
2, 29520, Note_off_c, 9, 41, 0
2, 29520, Note_off_c, 9, 44, 0
2, 29520, Note_on_c, 9, 44, 95
2, 29760, Note_off_c, 9, 44, 0
2, 29760, Note_on_c, 9, 41, 63
2, 29760, Note_on_c, 9, 42, 95
2, 30000, Note_off_c, 9, 41, 0
2, 30000, Note_off_c, 9, 42, 0
2, 30000, Note_on_c, 9, 41, 63
2, 30000, Note_on_c, 9, 44, 95
2, 30240, Note_off_c, 9, 41, 0
2, 30240, Note_off_c, 9, 44, 0
2, 30240, Note_on_c, 9, 41, 63
2, 30240, Note_on_c, 9, 44, 95
2, 30480, Note_off_c, 9, 41, 0
2, 30480, Note_off_c, 9, 44, 0
2, 30480, Note_on_c, 9, 41, 63
2, 30480, Note_on_c, 9, 44, 95
2, 30720, Note_off_c, 9, 41, 0
2, 30720, Note_off_c, 9, 44, 0
2, 30720, Note_on_c, 9, 41, 63
2, 30720, Note_on_c, 9, 42, 95
2, 30960, Note_off_c, 9, 41, 0
2, 30960, Note_off_c, 9, 42, 0
2, 30960, Note_on_c, 9, 44, 95
2, 30960, Note_on_c, 9, 41, 63
2, 31200, Note_off_c, 9, 44, 0
2, 31200, Note_off_c, 9, 41, 0
2, 31200, Note_on_c, 9, 44, 95
2, 31200, Note_on_c, 9, 41, 63
2, 31440, Note_off_c, 9, 44, 0
2, 31440, Note_off_c, 9, 41, 0
2, 31440, Note_on_c, 9, 44, 95
2, 31680, Note_off_c, 9, 44, 0
2, 31680, Note_on_c, 9, 41, 63
2, 31680, Note_on_c, 9, 42, 95
2, 31920, Note_off_c, 9, 41, 0
2, 31920, Note_off_c, 9, 42, 0
2, 31920, Note_on_c, 9, 44, 95
2, 32160, Note_off_c, 9, 44, 0
2, 32160, Note_on_c, 9, 41, 63
2, 32160, Note_on_c, 9, 44, 95
2, 32400, Note_off_c, 9, 41, 0
2, 32400, Note_off_c, 9, 44, 0
2, 32400, Note_on_c, 9, 41, 63
2, 32400, Note_on_c, 9, 44, 95
2, 32640, Note_off_c, 9, 41, 0
2, 32640, Note_off_c, 9, 44, 0
2, 32640, Note_on_c, 9, 41, 63
2, 32640, Note_on_c, 9, 42, 95
2, 32880, Note_off_c, 9, 41, 0
2, 32880, Note_off_c, 9, 42, 0
2, 32880, Note_on_c, 9, 41, 63
2, 32880, Note_on_c, 9, 44, 95
2, 33120, Note_off_c, 9, 41, 0
2, 33120, Note_off_c, 9, 44, 0
2, 33120, Note_on_c, 9, 41, 63
2, 33120, Note_on_c, 9, 44, 95
2, 33360, Note_off_c, 9, 41, 0
2, 33360, Note_off_c, 9, 44, 0
2, 33360, Note_on_c, 9, 44, 95
2, 33600, Note_off_c, 9, 44, 0
2, 33600, Note_on_c, 9, 41, 63
2, 33600, Note_on_c, 9, 42, 95
2, 33840, Note_off_c, 9, 41, 0
2, 33840, Note_off_c, 9, 42, 0
2, 33840, Note_on_c, 9, 41, 63
2, 33840, Note_on_c, 9, 44, 95
2, 34080, Note_off_c, 9, 41, 0
2, 34080, Note_off_c, 9, 44, 0
2, 34080, Note_on_c, 9, 41, 63
2, 34080, Note_on_c, 9, 44, 95
2, 34320, Note_off_c, 9, 41, 0
2, 34320, Note_off_c, 9, 44, 0
2, 34320, Note_on_c, 9, 41, 63
2, 34320, Note_on_c, 9, 44, 95
2, 34560, Note_off_c, 9, 41, 0
2, 34560, Note_off_c, 9, 44, 0
2, 34560, Note_on_c, 9, 41, 63
2, 34560, Note_on_c, 9, 42, 95
2, 34800, Note_off_c, 9, 41, 0
2, 34800, Note_off_c, 9, 42, 0
2, 34800, Note_on_c, 9, 44, 95
2, 34800, Note_on_c, 9, 41, 63
2, 35040, Note_off_c, 9, 44, 0
2, 35040, Note_off_c, 9, 41, 0
2, 35040, Note_on_c, 9, 44, 95
2, 35040, Note_on_c, 9, 41, 63
2, 35280, Note_off_c, 9, 44, 0
2, 35280, Note_off_c, 9, 41, 0
2, 35280, Note_on_c, 9, 44, 95
2, 35520, Note_off_c, 9, 44, 0
2, 35520, Note_on_c, 9, 41, 63
2, 35520, Note_on_c, 9, 42, 95
2, 35760, Note_off_c, 9, 41, 0
2, 35760, Note_off_c, 9, 42, 0
2, 35760, Note_on_c, 9, 44, 95
2, 36000, Note_off_c, 9, 44, 0
2, 36000, Note_on_c, 9, 41, 63
2, 36000, Note_on_c, 9, 44, 95
2, 36240, Note_off_c, 9, 41, 0
2, 36240, Note_off_c, 9, 44, 0
2, 36240, Note_on_c, 9, 41, 63
2, 36240, Note_on_c, 9, 44, 95
2, 36480, Note_off_c, 9, 41, 0
2, 36480, Note_off_c, 9, 44, 0
2, 36480, Note_on_c, 9, 41, 63
2, 36480, Note_on_c, 9, 42, 95
2, 36720, Note_off_c, 9, 41, 0
2, 36720, Note_off_c, 9, 42, 0
2, 36720, Note_on_c, 9, 41, 63
2, 36720, Note_on_c, 9, 44, 95
2, 36960, Note_off_c, 9, 41, 0
2, 36960, Note_off_c, 9, 44, 0
2, 36960, Note_on_c, 9, 41, 63
2, 36960, Note_on_c, 9, 44, 95
2, 37200, Note_off_c, 9, 41, 0
2, 37200, Note_off_c, 9, 44, 0
2, 37200, Note_on_c, 9, 44, 95
2, 37440, Note_off_c, 9, 44, 0
2, 37440, Note_on_c, 9, 41, 63
2, 37440, Note_on_c, 9, 42, 95
2, 37680, Note_off_c, 9, 41, 0
2, 37680, Note_off_c, 9, 42, 0
2, 37680, Note_on_c, 9, 41, 63
2, 37680, Note_on_c, 9, 44, 95
2, 37920, Note_off_c, 9, 41, 0
2, 37920, Note_off_c, 9, 44, 0
2, 37920, Note_on_c, 9, 41, 63
2, 37920, Note_on_c, 9, 44, 95
2, 38160, Note_off_c, 9, 41, 0
2, 38160, Note_off_c, 9, 44, 0
2, 38160, Note_on_c, 9, 44, 95
2, 38400, Note_off_c, 9, 44, 0
2, 38400, Note_on_c, 9, 36, 95
2, 38400, Note_on_c, 9, 49, 95
2, 38640, Note_off_c, 9, 36, 0
2, 38640, Note_off_c, 9, 49, 0
2, 38640, Note_on_c, 9, 44, 95
2, 38880, Note_off_c, 9, 44, 0
2, 38880, Note_on_c, 9, 44, 95
2, 39120, Note_off_c, 9, 44, 0
2, 39120, Note_on_c, 9, 44, 95
2, 39360, Note_off_c, 9, 44, 0
2, 39360, Note_on_c, 9, 36, 95
2, 39360, Note_on_c, 9, 42, 95
2, 39600, Note_off_c, 9, 36, 0
2, 39600, Note_off_c, 9, 42, 0
2, 39600, Note_on_c, 9, 44, 95
2, 39840, Note_off_c, 9, 44, 0
2, 39840, Note_on_c, 9, 44, 95
2, 40080, Note_off_c, 9, 44, 0
2, 40080, Note_on_c, 9, 44, 95
2, 40320, Note_off_c, 9, 44, 0
2, 40320, Note_on_c, 9, 36, 95
2, 40320, Note_on_c, 9, 42, 95
2, 40560, Note_off_c, 9, 36, 0
2, 40560, Note_off_c, 9, 42, 0
2, 40560, Note_on_c, 9, 44, 95
2, 40800, Note_off_c, 9, 44, 0
2, 40800, Note_on_c, 9, 44, 95
2, 41040, Note_off_c, 9, 44, 0
2, 41040, Note_on_c, 9, 44, 95
2, 41280, Note_off_c, 9, 44, 0
2, 41280, Note_on_c, 9, 36, 95
2, 41280, Note_on_c, 9, 42, 95
2, 41520, Note_off_c, 9, 36, 0
2, 41520, Note_off_c, 9, 42, 0
2, 41520, Note_on_c, 9, 44, 95
2, 41760, Note_off_c, 9, 44, 0
2, 41760, Note_on_c, 9, 44, 95
2, 42000, Note_off_c, 9, 44, 0
2, 42000, Note_on_c, 9, 44, 95
2, 42240, Note_off_c, 9, 44, 0
2, 42240, Note_on_c, 9, 36, 95
2, 42240, Note_on_c, 9, 42, 95
2, 42480, Note_off_c, 9, 36, 0
2, 42480, Note_off_c, 9, 42, 0
2, 42480, Note_on_c, 9, 44, 95
2, 42720, Note_off_c, 9, 44, 0
2, 42720, Note_on_c, 9, 44, 95
2, 42960, Note_off_c, 9, 44, 0
2, 42960, Note_on_c, 9, 44, 95
2, 43200, Note_off_c, 9, 44, 0
2, 43200, Note_on_c, 9, 42, 95
2, 43200, Note_on_c, 9, 36, 95
2, 43440, Note_off_c, 9, 42, 0
2, 43440, Note_off_c, 9, 36, 0
2, 43440, Note_on_c, 9, 44, 95
2, 43680, Note_off_c, 9, 44, 0
2, 43680, Note_on_c, 9, 44, 95
2, 43920, Note_off_c, 9, 44, 0
2, 43920, Note_on_c, 9, 44, 95
2, 44160, Note_off_c, 9, 44, 0
2, 44160, Note_on_c, 9, 42, 95
2, 44160, Note_on_c, 9, 36, 95
2, 44400, Note_off_c, 9, 42, 0
2, 44400, Note_off_c, 9, 36, 0
2, 44400, Note_on_c, 9, 44, 95
2, 44640, Note_off_c, 9, 44, 0
2, 44640, Note_on_c, 9, 44, 95
2, 44880, Note_off_c, 9, 44, 0
2, 44880, Note_on_c, 9, 44, 95
2, 45120, Note_off_c, 9, 44, 0
2, 45120, Note_on_c, 9, 42, 95
2, 45120, Note_on_c, 9, 36, 95
2, 45360, Note_off_c, 9, 42, 0
2, 45360, Note_off_c, 9, 36, 0
2, 45360, Note_on_c, 9, 44, 95
2, 45600, Note_off_c, 9, 44, 0
2, 45600, Note_on_c, 9, 44, 95
2, 45840, Note_off_c, 9, 44, 0
2, 45840, Note_on_c, 9, 44, 95
2, 46080, Note_off_c, 9, 44, 0
2, 46080, Note_on_c, 9, 42, 95
2, 46080, Note_on_c, 9, 36, 95
2, 46320, Note_off_c, 9, 42, 0
2, 46320, Note_off_c, 9, 36, 0
2, 46320, Note_on_c, 9, 44, 95
2, 46560, Note_off_c, 9, 44, 0
2, 46560, Note_on_c, 9, 44, 95
2, 46800, Note_off_c, 9, 44, 0
2, 46800, Note_on_c, 9, 44, 95
2, 47040, Note_off_c, 9, 44, 0
2, 47040, Note_on_c, 9, 42, 95
2, 47040, Note_on_c, 9, 36, 95
2, 47280, Note_off_c, 9, 42, 0
2, 47280, Note_off_c, 9, 36, 0
2, 47280, Note_on_c, 9, 44, 95
2, 47520, Note_off_c, 9, 44, 0
2, 47520, Note_on_c, 9, 44, 95
2, 47760, Note_off_c, 9, 44, 0
2, 47760, Note_on_c, 9, 44, 95
2, 48000, Note_off_c, 9, 44, 0
2, 48000, Note_on_c, 9, 42, 95
2, 48000, Note_on_c, 9, 36, 95
2, 48240, Note_off_c, 9, 42, 0
2, 48240, Note_off_c, 9, 36, 0
2, 48240, Note_on_c, 9, 44, 95
2, 48480, Note_off_c, 9, 44, 0
2, 48480, Note_on_c, 9, 44, 95
2, 48720, Note_off_c, 9, 44, 0
2, 48720, Note_on_c, 9, 44, 95
2, 48960, Note_off_c, 9, 44, 0
2, 48960, Note_on_c, 9, 42, 95
2, 48960, Note_on_c, 9, 36, 95
2, 49200, Note_off_c, 9, 42, 0
2, 49200, Note_off_c, 9, 36, 0
2, 49200, Note_on_c, 9, 44, 95
2, 49440, Note_off_c, 9, 44, 0
2, 49440, Note_on_c, 9, 44, 95
2, 49680, Note_off_c, 9, 44, 0
2, 49680, Note_on_c, 9, 44, 95
2, 49920, Note_off_c, 9, 44, 0
2, 49920, Note_on_c, 9, 36, 95
2, 49920, Note_on_c, 9, 42, 95
2, 50160, Note_off_c, 9, 36, 0
2, 50160, Note_off_c, 9, 42, 0
2, 50160, Note_on_c, 9, 44, 95
2, 50400, Note_off_c, 9, 44, 0
2, 50400, Note_on_c, 9, 44, 95
2, 50640, Note_off_c, 9, 44, 0
2, 50640, Note_on_c, 9, 44, 95
2, 50880, Note_off_c, 9, 44, 0
2, 50880, Note_on_c, 9, 42, 95
2, 50880, Note_on_c, 9, 36, 95
2, 51120, Note_off_c, 9, 42, 0
2, 51120, Note_off_c, 9, 36, 0
2, 51120, Note_on_c, 9, 44, 95
2, 51360, Note_off_c, 9, 44, 0
2, 51360, Note_on_c, 9, 44, 95
2, 51600, Note_off_c, 9, 44, 0
2, 51600, Note_on_c, 9, 44, 95
2, 51840, Note_off_c, 9, 44, 0
2, 51840, Note_on_c, 9, 42, 95
2, 51840, Note_on_c, 9, 36, 95
2, 52080, Note_off_c, 9, 42, 0
2, 52080, Note_off_c, 9, 36, 0
2, 52080, Note_on_c, 9, 44, 95
2, 52320, Note_off_c, 9, 44, 0
2, 52320, Note_on_c, 9, 44, 95
2, 52560, Note_off_c, 9, 44, 0
2, 52560, Note_on_c, 9, 44, 95
2, 52800, Note_off_c, 9, 44, 0
2, 52800, Note_on_c, 9, 42, 95
2, 52800, Note_on_c, 9, 36, 95
2, 53040, Note_off_c, 9, 42, 0
2, 53040, Note_off_c, 9, 36, 0
2, 53040, Note_on_c, 9, 44, 95
2, 53280, Note_off_c, 9, 44, 0
2, 53280, Note_on_c, 9, 44, 95
2, 53520, Note_off_c, 9, 44, 0
2, 53520, Note_on_c, 9, 44, 95
2, 53760, Note_off_c, 9, 44, 0
2, 53760, Note_on_c, 9, 42, 95
2, 53760, Note_on_c, 9, 36, 95
2, 54000, Note_off_c, 9, 42, 0
2, 54000, Note_off_c, 9, 36, 0
2, 54000, Note_on_c, 9, 44, 95
2, 54240, Note_off_c, 9, 44, 0
2, 54240, Note_on_c, 9, 44, 95
2, 54240, Note_on_c, 9, 36, 95
2, 54480, Note_off_c, 9, 44, 0
2, 54480, Note_off_c, 9, 36, 0
2, 54480, Note_on_c, 9, 44, 95
2, 54720, Note_off_c, 9, 44, 0
2, 54720, Note_on_c, 9, 42, 95
2, 54720, Note_on_c, 9, 36, 95
2, 54960, Note_off_c, 9, 42, 0
2, 54960, Note_off_c, 9, 36, 0
2, 54960, Note_on_c, 9, 44, 95
2, 55200, Note_off_c, 9, 44, 0
2, 55200, Note_on_c, 9, 44, 95
2, 55200, Note_on_c, 9, 36, 95
2, 55440, Note_off_c, 9, 44, 0
2, 55440, Note_off_c, 9, 36, 0
2, 55440, Note_on_c, 9, 44, 95
2, 55680, Note_off_c, 9, 44, 0
2, 55680, Note_on_c, 9, 42, 95
2, 55680, Note_on_c, 9, 36, 95
2, 55920, Note_off_c, 9, 42, 0
2, 55920, Note_off_c, 9, 36, 0
2, 55920, Note_on_c, 9, 44, 95
2, 56160, Note_off_c, 9, 44, 0
2, 56160, Note_on_c, 9, 36, 95
2, 56160, Note_on_c, 9, 44, 95
2, 56400, Note_off_c, 9, 36, 0
2, 56400, Note_off_c, 9, 44, 0
2, 56400, Note_on_c, 9, 44, 95
2, 56640, Note_off_c, 9, 44, 0
2, 56640, Note_on_c, 9, 42, 95
2, 56640, Note_on_c, 9, 36, 95
2, 56880, Note_off_c, 9, 42, 0
2, 56880, Note_off_c, 9, 36, 0
2, 56880, Note_on_c, 9, 44, 95
2, 57120, Note_off_c, 9, 44, 0
2, 57120, Note_on_c, 9, 36, 95
2, 57120, Note_on_c, 9, 44, 95
2, 57360, Note_off_c, 9, 36, 0
2, 57360, Note_off_c, 9, 44, 0
2, 57360, Note_on_c, 9, 44, 95
2, 57600, Note_off_c, 9, 44, 0
2, 57600, Note_on_c, 9, 36, 95
2, 57600, Note_on_c, 9, 42, 95
2, 57840, Note_off_c, 9, 36, 0
2, 57840, Note_off_c, 9, 42, 0
2, 57840, Note_on_c, 9, 44, 95
2, 58080, Note_off_c, 9, 44, 0
2, 58080, Note_on_c, 9, 36, 95
2, 58080, Note_on_c, 9, 44, 95
2, 58320, Note_off_c, 9, 36, 0
2, 58320, Note_off_c, 9, 44, 0
2, 58320, Note_on_c, 9, 44, 95
2, 58560, Note_off_c, 9, 44, 0
2, 58560, Note_on_c, 9, 42, 95
2, 58560, Note_on_c, 9, 36, 95
2, 58800, Note_off_c, 9, 42, 0
2, 58800, Note_off_c, 9, 36, 0
2, 58800, Note_on_c, 9, 44, 95
2, 59040, Note_off_c, 9, 44, 0
2, 59040, Note_on_c, 9, 44, 95
2, 59040, Note_on_c, 9, 36, 95
2, 59280, Note_off_c, 9, 44, 0
2, 59280, Note_off_c, 9, 36, 0
2, 59280, Note_on_c, 9, 44, 95
2, 59520, Note_off_c, 9, 44, 0
2, 59520, Note_on_c, 9, 42, 95
2, 59520, Note_on_c, 9, 36, 95
2, 59760, Note_off_c, 9, 42, 0
2, 59760, Note_off_c, 9, 36, 0
2, 59760, Note_on_c, 9, 44, 95
2, 60000, Note_off_c, 9, 44, 0
2, 60000, Note_on_c, 9, 36, 95
2, 60000, Note_on_c, 9, 44, 95
2, 60240, Note_off_c, 9, 36, 0
2, 60240, Note_off_c, 9, 44, 0
2, 60240, Note_on_c, 9, 44, 95
2, 60480, Note_off_c, 9, 44, 0
2, 60480, Note_on_c, 9, 42, 95
2, 60480, Note_on_c, 9, 36, 95
2, 60720, Note_off_c, 9, 42, 0
2, 60720, Note_off_c, 9, 36, 0
2, 60720, Note_on_c, 9, 44, 95
2, 60960, Note_off_c, 9, 44, 0
2, 60960, Note_on_c, 9, 36, 95
2, 60960, Note_on_c, 9, 44, 95
2, 61200, Note_off_c, 9, 36, 0
2, 61200, Note_off_c, 9, 44, 0
2, 61200, Note_on_c, 9, 44, 95
2, 61440, Note_off_c, 9, 44, 0
2, 61440, Note_on_c, 9, 38, 47
2, 61440, Note_on_c, 9, 42, 95
2, 61440, Note_on_c, 9, 36, 95
2, 61680, Note_off_c, 9, 38, 0
2, 61680, Note_off_c, 9, 42, 0
2, 61680, Note_off_c, 9, 36, 0
2, 61680, Note_on_c, 9, 44, 95
2, 61920, Note_off_c, 9, 44, 0
2, 61920, Note_on_c, 9, 38, 47
2, 61920, Note_on_c, 9, 36, 95
2, 61920, Note_on_c, 9, 44, 95
2, 62160, Note_off_c, 9, 38, 0
2, 62160, Note_off_c, 9, 36, 0
2, 62160, Note_off_c, 9, 44, 0
2, 62160, Note_on_c, 9, 44, 95
2, 62400, Note_off_c, 9, 44, 0
2, 62400, Note_on_c, 9, 38, 47
2, 62400, Note_on_c, 9, 42, 95
2, 62400, Note_on_c, 9, 36, 95
2, 62640, Note_off_c, 9, 38, 0
2, 62640, Note_off_c, 9, 42, 0
2, 62640, Note_off_c, 9, 36, 0
2, 62640, Note_on_c, 9, 44, 95
2, 62880, Note_off_c, 9, 44, 0
2, 62880, Note_on_c, 9, 38, 47
2, 62880, Note_on_c, 9, 44, 95
2, 62880, Note_on_c, 9, 36, 95
2, 63120, Note_off_c, 9, 38, 0
2, 63120, Note_off_c, 9, 44, 0
2, 63120, Note_off_c, 9, 36, 0
2, 63120, Note_on_c, 9, 44, 95
2, 63360, Note_off_c, 9, 44, 0
2, 63360, Note_on_c, 9, 38, 47
2, 63360, Note_on_c, 9, 42, 95
2, 63360, Note_on_c, 9, 36, 95
2, 63600, Note_off_c, 9, 38, 0
2, 63600, Note_off_c, 9, 42, 0
2, 63600, Note_off_c, 9, 36, 0
2, 63600, Note_on_c, 9, 44, 95
2, 63840, Note_off_c, 9, 44, 0
2, 63840, Note_on_c, 9, 38, 47
2, 63840, Note_on_c, 9, 36, 95
2, 63840, Note_on_c, 9, 44, 95
2, 64080, Note_off_c, 9, 38, 0
2, 64080, Note_off_c, 9, 36, 0
2, 64080, Note_off_c, 9, 44, 0
2, 64080, Note_on_c, 9, 44, 95
2, 64320, Note_off_c, 9, 44, 0
2, 64320, Note_on_c, 9, 38, 47
2, 64320, Note_on_c, 9, 42, 95
2, 64320, Note_on_c, 9, 36, 95
2, 64560, Note_off_c, 9, 38, 0
2, 64560, Note_off_c, 9, 42, 0
2, 64560, Note_off_c, 9, 36, 0
2, 64560, Note_on_c, 9, 44, 95
2, 64800, Note_off_c, 9, 44, 0
2, 64800, Note_on_c, 9, 38, 47
2, 64800, Note_on_c, 9, 36, 95
2, 64800, Note_on_c, 9, 44, 95
2, 65040, Note_off_c, 9, 38, 0
2, 65040, Note_off_c, 9, 36, 0
2, 65040, Note_off_c, 9, 44, 0
2, 65040, Note_on_c, 9, 44, 95
2, 65280, Note_off_c, 9, 44, 0
2, 65280, Note_on_c, 9, 42, 95
2, 65280, Note_on_c, 9, 38, 47
2, 65280, Note_on_c, 9, 36, 95
2, 65520, Note_off_c, 9, 42, 0
2, 65520, Note_off_c, 9, 38, 0
2, 65520, Note_off_c, 9, 36, 0
2, 65520, Note_on_c, 9, 44, 95
2, 65760, Note_off_c, 9, 44, 0
2, 65760, Note_on_c, 9, 38, 47
2, 65760, Note_on_c, 9, 36, 95
2, 65760, Note_on_c, 9, 44, 95
2, 66000, Note_off_c, 9, 38, 0
2, 66000, Note_off_c, 9, 36, 0
2, 66000, Note_off_c, 9, 44, 0
2, 66000, Note_on_c, 9, 44, 95
2, 66240, Note_off_c, 9, 44, 0
2, 66240, Note_on_c, 9, 36, 95
2, 66240, Note_on_c, 9, 38, 95
2, 66480, Note_off_c, 9, 36, 0
2, 66480, Note_off_c, 9, 38, 0
2, 66480, Note_on_c, 9, 36, 95
2, 66480, Note_on_c, 9, 38, 95
2, 66720, Note_off_c, 9, 36, 0
2, 66720, Note_off_c, 9, 38, 0
2, 66720, Note_on_c, 9, 36, 95
2, 66720, Note_on_c, 9, 38, 95
2, 66960, Note_off_c, 9, 36, 0
2, 66960, Note_off_c, 9, 38, 0
2, 66960, Note_on_c, 9, 36, 95
2, 66960, Note_on_c, 9, 38, 95
2, 67200, Note_off_c, 9, 36, 0
2, 67200, Note_off_c, 9, 38, 0
2, 67200, Note_on_c, 9, 36, 95
2, 67200, Note_on_c, 9, 38, 95
2, 67440, Note_off_c, 9, 36, 0
2, 67440, Note_off_c, 9, 38, 0
2, 67440, Note_on_c, 9, 36, 95
2, 67440, Note_on_c, 9, 38, 95
2, 67680, Note_off_c, 9, 36, 0
2, 67680, Note_off_c, 9, 38, 0
2, 67680, Note_on_c, 9, 36, 95
2, 67680, Note_on_c, 9, 38, 95
2, 68160, Note_off_c, 9, 36, 0
2, 68160, Note_off_c, 9, 38, 0
2, 68160, Note_on_c, 9, 38, 95
2, 68400, Note_off_c, 9, 38, 0
2, 68400, Note_on_c, 9, 36, 95
2, 68640, Note_off_c, 9, 36, 0
2, 68640, Note_on_c, 9, 36, 95
2, 69120, Note_off_c, 9, 36, 0
2, 69120, Note_on_c, 9, 57, 95
2, 69120, Note_on_c, 9, 49, 95
2, 69120, Note_on_c, 9, 36, 95
2, 70080, Note_off_c, 9, 57, 0
2, 70080, Note_off_c, 9, 49, 0
2, 70080, Note_off_c, 9, 36, 0
2, 84480, Note_on_c, 9, 46, 95
2, 84480, Note_on_c, 9, 36, 95
2, 84600, Note_off_c, 9, 46, 0
2, 84600, Note_off_c, 9, 36, 0
2, 84960, Note_on_c, 9, 42, 95
2, 84960, Note_on_c, 9, 36, 95
2, 85080, Note_off_c, 9, 42, 0
2, 85080, Note_off_c, 9, 36, 0
2, 85440, Note_on_c, 9, 38, 95
2, 85440, Note_on_c, 9, 42, 95
2, 85560, Note_off_c, 9, 38, 0
2, 85560, Note_off_c, 9, 42, 0
2, 85920, Note_on_c, 9, 42, 95
2, 86040, Note_off_c, 9, 42, 0
2, 86400, Note_on_c, 9, 46, 95
2, 86520, Note_off_c, 9, 46, 0
2, 86880, Note_on_c, 9, 42, 95
2, 86880, Note_on_c, 9, 36, 95
2, 87000, Note_off_c, 9, 42, 0
2, 87000, Note_off_c, 9, 36, 0
2, 87360, Note_on_c, 9, 42, 95
2, 87360, Note_on_c, 9, 38, 95
2, 87480, Note_off_c, 9, 42, 0
2, 87480, Note_off_c, 9, 38, 0
2, 87840, Note_on_c, 9, 42, 95
2, 87960, Note_off_c, 9, 42, 0
2, 88320, Note_on_c, 9, 36, 95
2, 88320, Note_on_c, 9, 46, 95
2, 88440, Note_off_c, 9, 36, 0
2, 88440, Note_off_c, 9, 46, 0
2, 88800, Note_on_c, 9, 36, 95
2, 88800, Note_on_c, 9, 42, 95
2, 88920, Note_off_c, 9, 36, 0
2, 88920, Note_off_c, 9, 42, 0
2, 89280, Note_on_c, 9, 42, 95
2, 89280, Note_on_c, 9, 38, 95
2, 89400, Note_off_c, 9, 42, 0
2, 89400, Note_off_c, 9, 38, 0
2, 89760, Note_on_c, 9, 42, 95
2, 89880, Note_off_c, 9, 42, 0
2, 90000, Note_on_c, 9, 38, 95
2, 90240, Note_off_c, 9, 38, 0
2, 90240, Note_on_c, 9, 46, 95
2, 90360, Note_off_c, 9, 46, 0
2, 90720, Note_on_c, 9, 42, 95
2, 90720, Note_on_c, 9, 36, 95
2, 90840, Note_off_c, 9, 42, 0
2, 90840, Note_off_c, 9, 36, 0
2, 91200, Note_on_c, 9, 42, 95
2, 91200, Note_on_c, 9, 38, 95
2, 91320, Note_off_c, 9, 42, 0
2, 91320, Note_off_c, 9, 38, 0
2, 91680, Note_on_c, 9, 42, 95
2, 91800, Note_off_c, 9, 42, 0
2, 92160, Note_on_c, 9, 36, 95
2, 92160, Note_on_c, 9, 46, 95
2, 92280, Note_off_c, 9, 36, 0
2, 92280, Note_off_c, 9, 46, 0
2, 92640, Note_on_c, 9, 42, 95
2, 92640, Note_on_c, 9, 36, 95
2, 92760, Note_off_c, 9, 42, 0
2, 92760, Note_off_c, 9, 36, 0
2, 93120, Note_on_c, 9, 38, 95
2, 93120, Note_on_c, 9, 42, 95
2, 93240, Note_off_c, 9, 38, 0
2, 93240, Note_off_c, 9, 42, 0
2, 93600, Note_on_c, 9, 42, 95
2, 93720, Note_off_c, 9, 42, 0
2, 93840, Note_on_c, 9, 38, 63
2, 94080, Note_off_c, 9, 38, 0
2, 94080, Note_on_c, 9, 46, 95
2, 94200, Note_off_c, 9, 46, 0
2, 94560, Note_on_c, 9, 42, 95
2, 94560, Note_on_c, 9, 36, 95
2, 94680, Note_off_c, 9, 42, 0
2, 94680, Note_off_c, 9, 36, 0
2, 94800, Note_on_c, 9, 36, 95
2, 95040, Note_off_c, 9, 36, 0
2, 95040, Note_on_c, 9, 42, 95
2, 95040, Note_on_c, 9, 38, 95
2, 95160, Note_off_c, 9, 42, 0
2, 95160, Note_off_c, 9, 38, 0
2, 95400, Note_on_c, 9, 38, 95
2, 95520, Note_off_c, 9, 38, 0
2, 95520, Note_on_c, 9, 38, 95
2, 95520, Note_on_c, 9, 42, 95
2, 95760, Note_off_c, 9, 38, 0
2, 95760, Note_off_c, 9, 42, 0
2, 95760, Note_on_c, 9, 38, 95
2, 96000, Note_off_c, 9, 38, 0
2, 96000, Note_on_c, 9, 38, 95
2, 96960, Note_off_c, 9, 38, 0
2, 97680, Note_on_c, 9, 38, 95
2, 98160, Note_off_c, 9, 38, 0
2, 98160, Note_on_c, 9, 38, 95
2, 98640, Note_off_c, 9, 38, 0
2, 98640, Note_on_c, 9, 38, 95
2, 98880, Note_off_c, 9, 38, 0
2, 98880, Note_on_c, 9, 38, 95
2, 99120, Note_off_c, 9, 38, 0
2, 99360, Note_on_c, 9, 38, 95
2, 99840, Note_off_c, 9, 38, 0
2, 99840, Note_on_c, 9, 57, 95
2, 99840, Note_on_c, 9, 49, 95
2, 99840, Note_on_c, 9, 36, 95
2, 100320, Note_off_c, 9, 57, 0
2, 100320, Note_off_c, 9, 49, 0
2, 100320, Note_off_c, 9, 36, 0
2, 100320, Note_on_c, 9, 36, 95
2, 100320, Note_on_c, 9, 42, 95
2, 100440, Note_off_c, 9, 36, 0
2, 100440, Note_off_c, 9, 42, 0
2, 100800, Note_on_c, 9, 38, 95
2, 100800, Note_on_c, 9, 42, 95
2, 100920, Note_off_c, 9, 38, 0
2, 100920, Note_off_c, 9, 42, 0
2, 101280, Note_on_c, 9, 42, 95
2, 101400, Note_off_c, 9, 42, 0
2, 101520, Note_on_c, 9, 38, 95
2, 101760, Note_off_c, 9, 38, 0
2, 101760, Note_on_c, 9, 46, 95
2, 101880, Note_off_c, 9, 46, 0
2, 102240, Note_on_c, 9, 42, 95
2, 102240, Note_on_c, 9, 36, 95
2, 102360, Note_off_c, 9, 42, 0
2, 102360, Note_off_c, 9, 36, 0
2, 102720, Note_on_c, 9, 38, 95
2, 102720, Note_on_c, 9, 42, 95
2, 102840, Note_off_c, 9, 38, 0
2, 102840, Note_off_c, 9, 42, 0
2, 103200, Note_on_c, 9, 42, 95
2, 103320, Note_off_c, 9, 42, 0
2, 103680, Note_on_c, 9, 36, 95
2, 103680, Note_on_c, 9, 46, 95
2, 103800, Note_off_c, 9, 36, 0
2, 103800, Note_off_c, 9, 46, 0
2, 104160, Note_on_c, 9, 42, 95
2, 104160, Note_on_c, 9, 36, 95
2, 104280, Note_off_c, 9, 42, 0
2, 104280, Note_off_c, 9, 36, 0
2, 104640, Note_on_c, 9, 38, 95
2, 104640, Note_on_c, 9, 42, 95
2, 104760, Note_off_c, 9, 38, 0
2, 104760, Note_off_c, 9, 42, 0
2, 105120, Note_on_c, 9, 42, 95
2, 105240, Note_off_c, 9, 42, 0
2, 105360, Note_on_c, 9, 38, 95
2, 105600, Note_off_c, 9, 38, 0
2, 105600, Note_on_c, 9, 46, 95
2, 105720, Note_off_c, 9, 46, 0
2, 106080, Note_on_c, 9, 42, 95
2, 106080, Note_on_c, 9, 36, 95
2, 106200, Note_off_c, 9, 42, 0
2, 106200, Note_off_c, 9, 36, 0
2, 106320, Note_on_c, 9, 36, 95
2, 106560, Note_off_c, 9, 36, 0
2, 106560, Note_on_c, 9, 42, 95
2, 106560, Note_on_c, 9, 38, 95
2, 106680, Note_off_c, 9, 42, 0
2, 106680, Note_off_c, 9, 38, 0
2, 107040, Note_on_c, 9, 42, 95
2, 107160, Note_off_c, 9, 42, 0
2, 107520, Note_on_c, 9, 36, 95
2, 107520, Note_on_c, 9, 46, 95
2, 107640, Note_off_c, 9, 36, 0
2, 107640, Note_off_c, 9, 46, 0
2, 108000, Note_on_c, 9, 42, 95
2, 108000, Note_on_c, 9, 36, 95
2, 108120, Note_off_c, 9, 42, 0
2, 108120, Note_off_c, 9, 36, 0
2, 108480, Note_on_c, 9, 42, 95
2, 108480, Note_on_c, 9, 38, 95
2, 108600, Note_off_c, 9, 42, 0
2, 108600, Note_off_c, 9, 38, 0
2, 108960, Note_on_c, 9, 42, 95
2, 109080, Note_off_c, 9, 42, 0
2, 109200, Note_on_c, 9, 38, 95
2, 109440, Note_off_c, 9, 38, 0
2, 109440, Note_on_c, 9, 46, 95
2, 109560, Note_off_c, 9, 46, 0
2, 109920, Note_on_c, 9, 42, 95
2, 109920, Note_on_c, 9, 36, 95
2, 110040, Note_off_c, 9, 42, 0
2, 110040, Note_off_c, 9, 36, 0
2, 110400, Note_on_c, 9, 42, 95
2, 110400, Note_on_c, 9, 38, 95
2, 110520, Note_off_c, 9, 42, 0
2, 110520, Note_off_c, 9, 38, 0
2, 110880, Note_on_c, 9, 42, 95
2, 111000, Note_off_c, 9, 42, 0
2, 111360, Note_on_c, 9, 46, 95
2, 111360, Note_on_c, 9, 36, 95
2, 111480, Note_off_c, 9, 46, 0
2, 111480, Note_off_c, 9, 36, 0
2, 111840, Note_on_c, 9, 42, 95
2, 111840, Note_on_c, 9, 36, 95
2, 111960, Note_off_c, 9, 42, 0
2, 111960, Note_off_c, 9, 36, 0
2, 112320, Note_on_c, 9, 38, 95
2, 112320, Note_on_c, 9, 42, 95
2, 112440, Note_off_c, 9, 38, 0
2, 112440, Note_off_c, 9, 42, 0
2, 112800, Note_on_c, 9, 42, 95
2, 112920, Note_off_c, 9, 42, 0
2, 113280, Note_on_c, 9, 46, 95
2, 113400, Note_off_c, 9, 46, 0
2, 113760, Note_on_c, 9, 42, 95
2, 113760, Note_on_c, 9, 36, 95
2, 113880, Note_off_c, 9, 42, 0
2, 113880, Note_off_c, 9, 36, 0
2, 114240, Note_on_c, 9, 42, 95
2, 114240, Note_on_c, 9, 38, 95
2, 114360, Note_off_c, 9, 42, 0
2, 114360, Note_off_c, 9, 38, 0
2, 114720, Note_on_c, 9, 42, 95
2, 114840, Note_off_c, 9, 42, 0
2, 115200, Note_on_c, 9, 57, 95
2, 115200, Note_on_c, 9, 36, 95
2, 115200, Note_on_c, 9, 49, 95
2, 115680, Note_off_c, 9, 57, 0
2, 115680, Note_off_c, 9, 36, 0
2, 115680, Note_off_c, 9, 49, 0
2, 115680, Note_on_c, 9, 36, 95
2, 115680, Note_on_c, 9, 42, 95
2, 115800, Note_off_c, 9, 36, 0
2, 115800, Note_off_c, 9, 42, 0
2, 116160, Note_on_c, 9, 42, 95
2, 116160, Note_on_c, 9, 38, 95
2, 116280, Note_off_c, 9, 42, 0
2, 116280, Note_off_c, 9, 38, 0
2, 116640, Note_on_c, 9, 42, 95
2, 116760, Note_off_c, 9, 42, 0
2, 116880, Note_on_c, 9, 38, 95
2, 117120, Note_off_c, 9, 38, 0
2, 117120, Note_on_c, 9, 46, 95
2, 117240, Note_off_c, 9, 46, 0
2, 117600, Note_on_c, 9, 42, 95
2, 117600, Note_on_c, 9, 36, 95
2, 117720, Note_off_c, 9, 42, 0
2, 117720, Note_off_c, 9, 36, 0
2, 118080, Note_on_c, 9, 42, 95
2, 118080, Note_on_c, 9, 38, 95
2, 118200, Note_off_c, 9, 42, 0
2, 118200, Note_off_c, 9, 38, 0
2, 118560, Note_on_c, 9, 42, 95
2, 118680, Note_off_c, 9, 42, 0
2, 119040, Note_on_c, 9, 36, 95
2, 119040, Note_on_c, 9, 46, 95
2, 119160, Note_off_c, 9, 36, 0
2, 119160, Note_off_c, 9, 46, 0
2, 119520, Note_on_c, 9, 42, 95
2, 119520, Note_on_c, 9, 36, 95
2, 119640, Note_off_c, 9, 42, 0
2, 119640, Note_off_c, 9, 36, 0
2, 120000, Note_on_c, 9, 38, 95
2, 120000, Note_on_c, 9, 42, 95
2, 120120, Note_off_c, 9, 38, 0
2, 120120, Note_off_c, 9, 42, 0
2, 120480, Note_on_c, 9, 42, 95
2, 120600, Note_off_c, 9, 42, 0
2, 120720, Note_on_c, 9, 38, 95
2, 120960, Note_off_c, 9, 38, 0
2, 120960, Note_on_c, 9, 46, 95
2, 121080, Note_off_c, 9, 46, 0
2, 121440, Note_on_c, 9, 42, 95
2, 121440, Note_on_c, 9, 36, 95
2, 121560, Note_off_c, 9, 42, 0
2, 121560, Note_off_c, 9, 36, 0
2, 121920, Note_on_c, 9, 38, 95
2, 121920, Note_on_c, 9, 42, 95
2, 122040, Note_off_c, 9, 38, 0
2, 122040, Note_off_c, 9, 42, 0
2, 122400, Note_on_c, 9, 42, 95
2, 122520, Note_off_c, 9, 42, 0
2, 122880, Note_on_c, 9, 46, 95
2, 122880, Note_on_c, 9, 36, 95
2, 123000, Note_off_c, 9, 46, 0
2, 123000, Note_off_c, 9, 36, 0
2, 123360, Note_on_c, 9, 42, 95
2, 123360, Note_on_c, 9, 36, 95
2, 123480, Note_off_c, 9, 42, 0
2, 123480, Note_off_c, 9, 36, 0
2, 123840, Note_on_c, 9, 38, 95
2, 123840, Note_on_c, 9, 42, 95
2, 123960, Note_off_c, 9, 38, 0
2, 123960, Note_off_c, 9, 42, 0
2, 124320, Note_on_c, 9, 42, 95
2, 124320, Note_on_c, 9, 36, 95
2, 124440, Note_off_c, 9, 42, 0
2, 124440, Note_off_c, 9, 36, 0
2, 124560, Note_on_c, 9, 38, 95
2, 124800, Note_off_c, 9, 38, 0
2, 124800, Note_on_c, 9, 46, 95
2, 124920, Note_off_c, 9, 46, 0
2, 125280, Note_on_c, 9, 42, 95
2, 125280, Note_on_c, 9, 36, 95
2, 125400, Note_off_c, 9, 42, 0
2, 125400, Note_off_c, 9, 36, 0
2, 125760, Note_on_c, 9, 38, 95
2, 125760, Note_on_c, 9, 42, 95
2, 125880, Note_off_c, 9, 38, 0
2, 125880, Note_off_c, 9, 42, 0
2, 126240, Note_on_c, 9, 42, 95
2, 126360, Note_off_c, 9, 42, 0
2, 126720, Note_on_c, 9, 46, 95
2, 126720, Note_on_c, 9, 36, 95
2, 126840, Note_off_c, 9, 46, 0
2, 126840, Note_off_c, 9, 36, 0
2, 127200, Note_on_c, 9, 42, 95
2, 127200, Note_on_c, 9, 36, 95
2, 127320, Note_off_c, 9, 42, 0
2, 127320, Note_off_c, 9, 36, 0
2, 127680, Note_on_c, 9, 42, 95
2, 127680, Note_on_c, 9, 38, 95
2, 127800, Note_off_c, 9, 42, 0
2, 127800, Note_off_c, 9, 38, 0
2, 128160, Note_on_c, 9, 36, 95
2, 128160, Note_on_c, 9, 42, 95
2, 128400, Note_off_c, 9, 36, 0
2, 128400, Note_off_c, 9, 42, 0
2, 128400, Note_on_c, 9, 36, 95
2, 128640, Note_off_c, 9, 36, 0
2, 128640, Note_on_c, 9, 46, 95
2, 128760, Note_off_c, 9, 46, 0
2, 129120, Note_on_c, 9, 36, 95
2, 129120, Note_on_c, 9, 42, 95
2, 129360, Note_off_c, 9, 36, 0
2, 129360, Note_off_c, 9, 42, 0
2, 129360, Note_on_c, 9, 38, 95
2, 129600, Note_off_c, 9, 38, 0
2, 129600, Note_on_c, 9, 36, 95
2, 129600, Note_on_c, 9, 42, 95
2, 129720, Note_off_c, 9, 36, 0
2, 129720, Note_off_c, 9, 42, 0
2, 129840, Note_on_c, 9, 36, 95
2, 130080, Note_off_c, 9, 36, 0
2, 130080, Note_on_c, 9, 38, 95
2, 130080, Note_on_c, 9, 42, 95
2, 130320, Note_off_c, 9, 38, 0
2, 130320, Note_off_c, 9, 42, 0
2, 130560, Note_on_c, 9, 36, 95
2, 130560, Note_on_c, 9, 57, 95
2, 130560, Note_on_c, 9, 49, 95
2, 130680, Note_off_c, 9, 36, 0
2, 130680, Note_off_c, 9, 57, 0
2, 130680, Note_off_c, 9, 49, 0
2, 131040, Note_on_c, 9, 42, 95
2, 131040, Note_on_c, 9, 36, 95
2, 131160, Note_off_c, 9, 42, 0
2, 131160, Note_off_c, 9, 36, 0
2, 131520, Note_on_c, 9, 38, 95
2, 131520, Note_on_c, 9, 42, 95
2, 131640, Note_off_c, 9, 38, 0
2, 131640, Note_off_c, 9, 42, 0
2, 132000, Note_on_c, 9, 42, 95
2, 132120, Note_off_c, 9, 42, 0
2, 132240, Note_on_c, 9, 38, 95
2, 132480, Note_off_c, 9, 38, 0
2, 132480, Note_on_c, 9, 46, 95
2, 132600, Note_off_c, 9, 46, 0
2, 132960, Note_on_c, 9, 42, 95
2, 132960, Note_on_c, 9, 36, 95
2, 133080, Note_off_c, 9, 42, 0
2, 133080, Note_off_c, 9, 36, 0
2, 133200, Note_on_c, 9, 36, 95
2, 133440, Note_off_c, 9, 36, 0
2, 133440, Note_on_c, 9, 42, 95
2, 133440, Note_on_c, 9, 38, 95
2, 133560, Note_off_c, 9, 42, 0
2, 133560, Note_off_c, 9, 38, 0
2, 133920, Note_on_c, 9, 36, 95
2, 133920, Note_on_c, 9, 42, 95
2, 134160, Note_off_c, 9, 36, 0
2, 134160, Note_off_c, 9, 42, 0
2, 134400, Note_on_c, 9, 46, 95
2, 134400, Note_on_c, 9, 36, 95
2, 134880, Note_off_c, 9, 46, 0
2, 134880, Note_off_c, 9, 36, 0
2, 134880, Note_on_c, 9, 42, 95
2, 134880, Note_on_c, 9, 36, 95
2, 135000, Note_off_c, 9, 42, 0
2, 135000, Note_off_c, 9, 36, 0
2, 135360, Note_on_c, 9, 38, 95
2, 135360, Note_on_c, 9, 42, 95
2, 135480, Note_off_c, 9, 38, 0
2, 135480, Note_off_c, 9, 42, 0
2, 135840, Note_on_c, 9, 42, 95
2, 135960, Note_off_c, 9, 42, 0
2, 136080, Note_on_c, 9, 38, 95
2, 136320, Note_off_c, 9, 38, 0
2, 136320, Note_on_c, 9, 46, 95
2, 136440, Note_off_c, 9, 46, 0
2, 136800, Note_on_c, 9, 42, 95
2, 136800, Note_on_c, 9, 36, 95
2, 136920, Note_off_c, 9, 42, 0
2, 136920, Note_off_c, 9, 36, 0
2, 137280, Note_on_c, 9, 38, 95
2, 137280, Note_on_c, 9, 42, 95
2, 137400, Note_off_c, 9, 38, 0
2, 137400, Note_off_c, 9, 42, 0
2, 137760, Note_on_c, 9, 42, 95
2, 137880, Note_off_c, 9, 42, 0
2, 138240, Note_on_c, 9, 36, 95
2, 138240, Note_on_c, 9, 46, 95
2, 138360, Note_off_c, 9, 36, 0
2, 138360, Note_off_c, 9, 46, 0
2, 138720, Note_on_c, 9, 42, 95
2, 138720, Note_on_c, 9, 36, 95
2, 138840, Note_off_c, 9, 42, 0
2, 138840, Note_off_c, 9, 36, 0
2, 139200, Note_on_c, 9, 38, 95
2, 139200, Note_on_c, 9, 42, 95
2, 139320, Note_off_c, 9, 38, 0
2, 139320, Note_off_c, 9, 42, 0
2, 139680, Note_on_c, 9, 42, 95
2, 139800, Note_off_c, 9, 42, 0
2, 140160, Note_on_c, 9, 46, 95
2, 140280, Note_off_c, 9, 46, 0
2, 140400, Note_on_c, 9, 38, 95
2, 140640, Note_off_c, 9, 38, 0
2, 140640, Note_on_c, 9, 42, 95
2, 140640, Note_on_c, 9, 36, 95
2, 140760, Note_off_c, 9, 42, 0
2, 140760, Note_off_c, 9, 36, 0
2, 140880, Note_on_c, 9, 36, 95
2, 141120, Note_off_c, 9, 36, 0
2, 141120, Note_on_c, 9, 42, 95
2, 141120, Note_on_c, 9, 38, 95
2, 141360, Note_off_c, 9, 42, 0
2, 141360, Note_off_c, 9, 38, 0
2, 141600, Note_on_c, 9, 42, 95
2, 141720, Note_off_c, 9, 42, 0
2, 142080, Note_on_c, 9, 57, 95
2, 142080, Note_on_c, 9, 36, 95
2, 142080, Note_on_c, 9, 49, 95
2, 142560, Note_off_c, 9, 57, 0
2, 142560, Note_off_c, 9, 36, 0
2, 142560, Note_off_c, 9, 49, 0
2, 142560, Note_on_c, 9, 36, 95
2, 142560, Note_on_c, 9, 42, 95
2, 142680, Note_off_c, 9, 36, 0
2, 142680, Note_off_c, 9, 42, 0
2, 143040, Note_on_c, 9, 42, 95
2, 143040, Note_on_c, 9, 38, 95
2, 143160, Note_off_c, 9, 42, 0
2, 143160, Note_off_c, 9, 38, 0
2, 143520, Note_on_c, 9, 36, 95
2, 143520, Note_on_c, 9, 42, 95
2, 143640, Note_off_c, 9, 36, 0
2, 143640, Note_off_c, 9, 42, 0
2, 143760, Note_on_c, 9, 38, 95
2, 143880, Note_off_c, 9, 38, 0
2, 144000, Note_on_c, 9, 46, 95
2, 144120, Note_off_c, 9, 46, 0
2, 144240, Note_on_c, 9, 38, 95
2, 144360, Note_off_c, 9, 38, 0
2, 144480, Note_on_c, 9, 42, 95
2, 144480, Note_on_c, 9, 36, 95
2, 144600, Note_off_c, 9, 42, 0
2, 144600, Note_off_c, 9, 36, 0
2, 144720, Note_on_c, 9, 36, 95
2, 144840, Note_off_c, 9, 36, 0
2, 144960, Note_on_c, 9, 38, 95
2, 144960, Note_on_c, 9, 42, 95
2, 145080, Note_off_c, 9, 38, 0
2, 145080, Note_off_c, 9, 42, 0
2, 145200, Note_on_c, 9, 41, 95
2, 145440, Note_off_c, 9, 41, 0
2, 145440, Note_on_c, 9, 41, 95
2, 145920, Note_off_c, 9, 41, 0
2, 145920, Note_on_c, 9, 57, 95
2, 145920, Note_on_c, 9, 36, 95
2, 145920, Note_on_c, 9, 49, 95
2, 146400, Note_off_c, 9, 57, 0
2, 146400, Note_off_c, 9, 36, 0
2, 146400, Note_off_c, 9, 49, 0
2, 146400, Note_on_c, 9, 42, 95
2, 146520, Note_off_c, 9, 42, 0
2, 146640, Note_on_c, 9, 36, 95
2, 146760, Note_off_c, 9, 36, 0
2, 146880, Note_on_c, 9, 42, 95
2, 146880, Note_on_c, 9, 38, 95
2, 147000, Note_off_c, 9, 42, 0
2, 147000, Note_off_c, 9, 38, 0
2, 147360, Note_on_c, 9, 42, 95
2, 147360, Note_on_c, 9, 36, 95
2, 147480, Note_off_c, 9, 42, 0
2, 147480, Note_off_c, 9, 36, 0
2, 147840, Note_on_c, 9, 42, 95
2, 148320, Note_off_c, 9, 42, 0
2, 148320, Note_on_c, 9, 36, 95
2, 148320, Note_on_c, 9, 42, 95
2, 148800, Note_off_c, 9, 36, 0
2, 148800, Note_off_c, 9, 42, 0
2, 148800, Note_on_c, 9, 38, 95
2, 148800, Note_on_c, 9, 42, 95
2, 148920, Note_off_c, 9, 38, 0
2, 148920, Note_off_c, 9, 42, 0
2, 149280, Note_on_c, 9, 42, 95
2, 149400, Note_off_c, 9, 42, 0
2, 149760, Note_on_c, 9, 42, 95
2, 149760, Note_on_c, 9, 36, 95
2, 149880, Note_off_c, 9, 42, 0
2, 149880, Note_off_c, 9, 36, 0
2, 150240, Note_on_c, 9, 42, 95
2, 150360, Note_off_c, 9, 42, 0
2, 150480, Note_on_c, 9, 36, 95
2, 150600, Note_off_c, 9, 36, 0
2, 150720, Note_on_c, 9, 42, 95
2, 150720, Note_on_c, 9, 38, 95
2, 150840, Note_off_c, 9, 42, 0
2, 150840, Note_off_c, 9, 38, 0
2, 151200, Note_on_c, 9, 42, 95
2, 151200, Note_on_c, 9, 36, 95
2, 151320, Note_off_c, 9, 42, 0
2, 151320, Note_off_c, 9, 36, 0
2, 151680, Note_on_c, 9, 42, 95
2, 151800, Note_off_c, 9, 42, 0
2, 151920, Note_on_c, 9, 36, 95
2, 152040, Note_off_c, 9, 36, 0
2, 152160, Note_on_c, 9, 36, 95
2, 152160, Note_on_c, 9, 42, 95
2, 152280, Note_off_c, 9, 36, 0
2, 152280, Note_off_c, 9, 42, 0
2, 152640, Note_on_c, 9, 38, 95
2, 152760, Note_off_c, 9, 38, 0
2, 153600, Note_on_c, 9, 57, 95
2, 153600, Note_on_c, 9, 36, 95
2, 153600, Note_on_c, 9, 49, 95
2, 153720, Note_off_c, 9, 57, 0
2, 153720, Note_off_c, 9, 36, 0
2, 153720, Note_off_c, 9, 49, 0
2, 154080, Note_on_c, 9, 42, 95
2, 154200, Note_off_c, 9, 42, 0
2, 154320, Note_on_c, 9, 36, 95
2, 154440, Note_off_c, 9, 36, 0
2, 154560, Note_on_c, 9, 38, 95
2, 154560, Note_on_c, 9, 42, 95
2, 154680, Note_off_c, 9, 38, 0
2, 154680, Note_off_c, 9, 42, 0
2, 155040, Note_on_c, 9, 42, 95
2, 155040, Note_on_c, 9, 36, 95
2, 155160, Note_off_c, 9, 42, 0
2, 155160, Note_off_c, 9, 36, 0
2, 155520, Note_on_c, 9, 42, 95
2, 155640, Note_off_c, 9, 42, 0
2, 155760, Note_on_c, 9, 36, 95
2, 155880, Note_off_c, 9, 36, 0
2, 156000, Note_on_c, 9, 36, 95
2, 156000, Note_on_c, 9, 42, 95
2, 156120, Note_off_c, 9, 36, 0
2, 156120, Note_off_c, 9, 42, 0
2, 156480, Note_on_c, 9, 42, 95
2, 156480, Note_on_c, 9, 38, 95
2, 156600, Note_off_c, 9, 42, 0
2, 156600, Note_off_c, 9, 38, 0
2, 156960, Note_on_c, 9, 42, 95
2, 157080, Note_off_c, 9, 42, 0
2, 157440, Note_on_c, 9, 36, 95
2, 157440, Note_on_c, 9, 42, 95
2, 157560, Note_off_c, 9, 36, 0
2, 157560, Note_off_c, 9, 42, 0
2, 157920, Note_on_c, 9, 42, 95
2, 158040, Note_off_c, 9, 42, 0
2, 158160, Note_on_c, 9, 36, 95
2, 158280, Note_off_c, 9, 36, 0
2, 158400, Note_on_c, 9, 38, 95
2, 158400, Note_on_c, 9, 42, 95
2, 158520, Note_off_c, 9, 38, 0
2, 158520, Note_off_c, 9, 42, 0
2, 158880, Note_on_c, 9, 42, 95
2, 159000, Note_off_c, 9, 42, 0
2, 159120, Note_on_c, 9, 36, 95
2, 159120, Note_on_c, 9, 42, 95
2, 159240, Note_off_c, 9, 36, 0
2, 159240, Note_off_c, 9, 42, 0
2, 159600, Note_on_c, 9, 38, 95
2, 159720, Note_off_c, 9, 38, 0
2, 159840, Note_on_c, 9, 36, 95
2, 159840, Note_on_c, 9, 42, 95
2, 159960, Note_off_c, 9, 36, 0
2, 159960, Note_off_c, 9, 42, 0
2, 160080, Note_on_c, 9, 36, 95
2, 160200, Note_off_c, 9, 36, 0
2, 160320, Note_on_c, 9, 38, 95
2, 160320, Note_on_c, 9, 42, 95
2, 160440, Note_off_c, 9, 38, 0
2, 160440, Note_off_c, 9, 42, 0
2, 160800, Note_on_c, 9, 41, 95
2, 160920, Note_off_c, 9, 41, 0
2, 161040, Note_on_c, 9, 46, 95
2, 161040, Note_on_c, 9, 41, 95
2, 161160, Note_off_c, 9, 46, 0
2, 161160, Note_off_c, 9, 41, 0
2, 161280, Note_on_c, 9, 57, 95
2, 161280, Note_on_c, 9, 36, 95
2, 161280, Note_on_c, 9, 49, 95
2, 161760, Note_off_c, 9, 57, 0
2, 161760, Note_off_c, 9, 36, 0
2, 161760, Note_off_c, 9, 49, 0
2, 161760, Note_on_c, 9, 42, 95
2, 161880, Note_off_c, 9, 42, 0
2, 162000, Note_on_c, 9, 36, 95
2, 162120, Note_off_c, 9, 36, 0
2, 162240, Note_on_c, 9, 42, 95
2, 162240, Note_on_c, 9, 38, 95
2, 162360, Note_off_c, 9, 42, 0
2, 162360, Note_off_c, 9, 38, 0
2, 162720, Note_on_c, 9, 42, 95
2, 162720, Note_on_c, 9, 36, 95
2, 162840, Note_off_c, 9, 42, 0
2, 162840, Note_off_c, 9, 36, 0
2, 162960, Note_on_c, 9, 36, 95
2, 163080, Note_off_c, 9, 36, 0
2, 163200, Note_on_c, 9, 42, 95
2, 163680, Note_off_c, 9, 42, 0
2, 163680, Note_on_c, 9, 36, 95
2, 163680, Note_on_c, 9, 42, 95
2, 164160, Note_off_c, 9, 36, 0
2, 164160, Note_off_c, 9, 42, 0
2, 164160, Note_on_c, 9, 38, 95
2, 164160, Note_on_c, 9, 42, 95
2, 164280, Note_off_c, 9, 38, 0
2, 164280, Note_off_c, 9, 42, 0
2, 164640, Note_on_c, 9, 42, 95
2, 164760, Note_off_c, 9, 42, 0
2, 165120, Note_on_c, 9, 42, 95
2, 165120, Note_on_c, 9, 36, 95
2, 165240, Note_off_c, 9, 42, 0
2, 165240, Note_off_c, 9, 36, 0
2, 165600, Note_on_c, 9, 42, 95
2, 165720, Note_off_c, 9, 42, 0
2, 165840, Note_on_c, 9, 36, 95
2, 165960, Note_off_c, 9, 36, 0
2, 166080, Note_on_c, 9, 42, 95
2, 166080, Note_on_c, 9, 38, 95
2, 166200, Note_off_c, 9, 42, 0
2, 166200, Note_off_c, 9, 38, 0
2, 166560, Note_on_c, 9, 42, 95
2, 166560, Note_on_c, 9, 36, 95
2, 166680, Note_off_c, 9, 42, 0
2, 166680, Note_off_c, 9, 36, 0
2, 166800, Note_on_c, 9, 36, 95
2, 166920, Note_off_c, 9, 36, 0
2, 167040, Note_on_c, 9, 42, 95
2, 167160, Note_off_c, 9, 42, 0
2, 167520, Note_on_c, 9, 36, 95
2, 167520, Note_on_c, 9, 42, 95
2, 167640, Note_off_c, 9, 36, 0
2, 167640, Note_off_c, 9, 42, 0
2, 168000, Note_on_c, 9, 52, 95
2, 168000, Note_on_c, 9, 38, 95
2, 168120, Note_off_c, 9, 52, 0
2, 168120, Note_off_c, 9, 38, 0
2, 168960, Note_on_c, 9, 57, 95
2, 168960, Note_on_c, 9, 36, 95
2, 168960, Note_on_c, 9, 49, 95
2, 169080, Note_off_c, 9, 57, 0
2, 169080, Note_off_c, 9, 36, 0
2, 169080, Note_off_c, 9, 49, 0
2, 169440, Note_on_c, 9, 42, 95
2, 169560, Note_off_c, 9, 42, 0
2, 169680, Note_on_c, 9, 36, 95
2, 169800, Note_off_c, 9, 36, 0
2, 169920, Note_on_c, 9, 38, 95
2, 169920, Note_on_c, 9, 42, 95
2, 170040, Note_off_c, 9, 38, 0
2, 170040, Note_off_c, 9, 42, 0
2, 170400, Note_on_c, 9, 42, 95
2, 170400, Note_on_c, 9, 36, 95
2, 170520, Note_off_c, 9, 42, 0
2, 170520, Note_off_c, 9, 36, 0
2, 170880, Note_on_c, 9, 42, 95
2, 171000, Note_off_c, 9, 42, 0
2, 171120, Note_on_c, 9, 36, 95
2, 171240, Note_off_c, 9, 36, 0
2, 171360, Note_on_c, 9, 36, 95
2, 171360, Note_on_c, 9, 42, 95
2, 171480, Note_off_c, 9, 36, 0
2, 171480, Note_off_c, 9, 42, 0
2, 171840, Note_on_c, 9, 42, 95
2, 171840, Note_on_c, 9, 38, 95
2, 171960, Note_off_c, 9, 42, 0
2, 171960, Note_off_c, 9, 38, 0
2, 172320, Note_on_c, 9, 42, 95
2, 172440, Note_off_c, 9, 42, 0
2, 172800, Note_on_c, 9, 36, 95
2, 172800, Note_on_c, 9, 46, 95
2, 172920, Note_off_c, 9, 36, 0
2, 172920, Note_off_c, 9, 46, 0
2, 173760, Note_on_c, 9, 36, 95
2, 173760, Note_on_c, 9, 49, 95
2, 173880, Note_off_c, 9, 36, 0
2, 173880, Note_off_c, 9, 49, 0
2, 174720, Note_on_c, 9, 46, 95
2, 174840, Note_off_c, 9, 46, 0
2, 175440, Note_on_c, 9, 38, 95
2, 175560, Note_off_c, 9, 38, 0
2, 175680, Note_on_c, 9, 38, 95
2, 175800, Note_off_c, 9, 38, 0
2, 176160, Note_on_c, 9, 46, 95
2, 176280, Note_off_c, 9, 46, 0
2, 176640, Note_on_c, 9, 46, 95
2, 176640, Note_on_c, 9, 36, 95
2, 176760, Note_off_c, 9, 46, 0
2, 176760, Note_off_c, 9, 36, 0
2, 177120, Note_on_c, 9, 36, 95
2, 177120, Note_on_c, 9, 42, 95
2, 177240, Note_off_c, 9, 36, 0
2, 177240, Note_off_c, 9, 42, 0
2, 177600, Note_on_c, 9, 42, 95
2, 177600, Note_on_c, 9, 38, 95
2, 177720, Note_off_c, 9, 42, 0
2, 177720, Note_off_c, 9, 38, 0
2, 178080, Note_on_c, 9, 42, 95
2, 178200, Note_off_c, 9, 42, 0
2, 178560, Note_on_c, 9, 46, 95
2, 178680, Note_off_c, 9, 46, 0
2, 179040, Note_on_c, 9, 36, 95
2, 179040, Note_on_c, 9, 42, 95
2, 179160, Note_off_c, 9, 36, 0
2, 179160, Note_off_c, 9, 42, 0
2, 179520, Note_on_c, 9, 38, 95
2, 179520, Note_on_c, 9, 42, 95
2, 179640, Note_off_c, 9, 38, 0
2, 179640, Note_off_c, 9, 42, 0
2, 180000, Note_on_c, 9, 42, 95
2, 180120, Note_off_c, 9, 42, 0
2, 180480, Note_on_c, 9, 36, 95
2, 180480, Note_on_c, 9, 46, 95
2, 180600, Note_off_c, 9, 36, 0
2, 180600, Note_off_c, 9, 46, 0
2, 180960, Note_on_c, 9, 36, 95
2, 180960, Note_on_c, 9, 42, 95
2, 181080, Note_off_c, 9, 36, 0
2, 181080, Note_off_c, 9, 42, 0
2, 181440, Note_on_c, 9, 42, 95
2, 181440, Note_on_c, 9, 38, 95
2, 181560, Note_off_c, 9, 42, 0
2, 181560, Note_off_c, 9, 38, 0
2, 181920, Note_on_c, 9, 42, 95
2, 182040, Note_off_c, 9, 42, 0
2, 182400, Note_on_c, 9, 46, 95
2, 182520, Note_off_c, 9, 46, 0
2, 182880, Note_on_c, 9, 42, 95
2, 183000, Note_off_c, 9, 42, 0
2, 183120, Note_on_c, 9, 36, 95
2, 183240, Note_off_c, 9, 36, 0
2, 183360, Note_on_c, 9, 38, 95
2, 183360, Note_on_c, 9, 42, 95
2, 183480, Note_off_c, 9, 38, 0
2, 183480, Note_off_c, 9, 42, 0
2, 183840, Note_on_c, 9, 42, 95
2, 183960, Note_off_c, 9, 42, 0
2, 184320, Note_on_c, 9, 36, 95
2, 184320, Note_on_c, 9, 46, 95
2, 184440, Note_off_c, 9, 36, 0
2, 184440, Note_off_c, 9, 46, 0
2, 184800, Note_on_c, 9, 36, 95
2, 184800, Note_on_c, 9, 42, 95
2, 184920, Note_off_c, 9, 36, 0
2, 184920, Note_off_c, 9, 42, 0
2, 185280, Note_on_c, 9, 42, 95
2, 185280, Note_on_c, 9, 38, 95
2, 185400, Note_off_c, 9, 42, 0
2, 185400, Note_off_c, 9, 38, 0
2, 185760, Note_on_c, 9, 36, 95
2, 185760, Note_on_c, 9, 42, 95
2, 185880, Note_off_c, 9, 36, 0
2, 185880, Note_off_c, 9, 42, 0
2, 186000, Note_on_c, 9, 38, 95
2, 186120, Note_off_c, 9, 38, 0
2, 186240, Note_on_c, 9, 46, 95
2, 186360, Note_off_c, 9, 46, 0
2, 186480, Note_on_c, 9, 38, 95
2, 186600, Note_off_c, 9, 38, 0
2, 186720, Note_on_c, 9, 36, 95
2, 186720, Note_on_c, 9, 42, 95
2, 186840, Note_off_c, 9, 36, 0
2, 186840, Note_off_c, 9, 42, 0
2, 187200, Note_on_c, 9, 42, 95
2, 187200, Note_on_c, 9, 38, 95
2, 187320, Note_off_c, 9, 42, 0
2, 187320, Note_off_c, 9, 38, 0
2, 187680, Note_on_c, 9, 36, 95
2, 187680, Note_on_c, 9, 42, 95
2, 187800, Note_off_c, 9, 36, 0
2, 187800, Note_off_c, 9, 42, 0
2, 188160, Note_on_c, 9, 36, 95
2, 188160, Note_on_c, 9, 46, 95
2, 188280, Note_off_c, 9, 36, 0
2, 188280, Note_off_c, 9, 46, 0
2, 188640, Note_on_c, 9, 42, 95
2, 188640, Note_on_c, 9, 36, 95
2, 188760, Note_off_c, 9, 42, 0
2, 188760, Note_off_c, 9, 36, 0
2, 189120, Note_on_c, 9, 38, 95
2, 189120, Note_on_c, 9, 42, 95
2, 189240, Note_off_c, 9, 38, 0
2, 189240, Note_off_c, 9, 42, 0
2, 189600, Note_on_c, 9, 42, 95
2, 189600, Note_on_c, 9, 36, 95
2, 189720, Note_off_c, 9, 42, 0
2, 189720, Note_off_c, 9, 36, 0
2, 189840, Note_on_c, 9, 36, 95
2, 189960, Note_off_c, 9, 36, 0
2, 190080, Note_on_c, 9, 46, 95
2, 190200, Note_off_c, 9, 46, 0
2, 190560, Note_on_c, 9, 42, 95
2, 190680, Note_off_c, 9, 42, 0
2, 190800, Note_on_c, 9, 36, 95
2, 190920, Note_off_c, 9, 36, 0
2, 191040, Note_on_c, 9, 38, 95
2, 191040, Note_on_c, 9, 42, 95
2, 191160, Note_off_c, 9, 38, 0
2, 191160, Note_off_c, 9, 42, 0
2, 191520, Note_on_c, 9, 42, 95
2, 191520, Note_on_c, 9, 36, 95
2, 191640, Note_off_c, 9, 42, 0
2, 191640, Note_off_c, 9, 36, 0
2, 192000, Note_on_c, 9, 36, 95
2, 192000, Note_on_c, 9, 49, 95
2, 192120, Note_off_c, 9, 36, 0
2, 192120, Note_off_c, 9, 49, 0
2, 192480, Note_on_c, 9, 36, 95
2, 192480, Note_on_c, 9, 42, 95
2, 192600, Note_off_c, 9, 36, 0
2, 192600, Note_off_c, 9, 42, 0
2, 192960, Note_on_c, 9, 38, 95
2, 192960, Note_on_c, 9, 42, 95
2, 193080, Note_off_c, 9, 38, 0
2, 193080, Note_off_c, 9, 42, 0
2, 193440, Note_on_c, 9, 42, 95
2, 193560, Note_off_c, 9, 42, 0
2, 193680, Note_on_c, 9, 38, 95
2, 193800, Note_off_c, 9, 38, 0
2, 193920, Note_on_c, 9, 46, 95
2, 194040, Note_off_c, 9, 46, 0
2, 194400, Note_on_c, 9, 36, 95
2, 194400, Note_on_c, 9, 42, 95
2, 194520, Note_off_c, 9, 36, 0
2, 194520, Note_off_c, 9, 42, 0
2, 194880, Note_on_c, 9, 42, 95
2, 194880, Note_on_c, 9, 38, 95
2, 195000, Note_off_c, 9, 42, 0
2, 195000, Note_off_c, 9, 38, 0
2, 195360, Note_on_c, 9, 42, 95
2, 195480, Note_off_c, 9, 42, 0
2, 195840, Note_on_c, 9, 46, 95
2, 195840, Note_on_c, 9, 36, 95
2, 195960, Note_off_c, 9, 46, 0
2, 195960, Note_off_c, 9, 36, 0
2, 196320, Note_on_c, 9, 36, 95
2, 196320, Note_on_c, 9, 42, 95
2, 196440, Note_off_c, 9, 36, 0
2, 196440, Note_off_c, 9, 42, 0
2, 196800, Note_on_c, 9, 38, 95
2, 196800, Note_on_c, 9, 42, 95
2, 196920, Note_off_c, 9, 38, 0
2, 196920, Note_off_c, 9, 42, 0
2, 197280, Note_on_c, 9, 36, 95
2, 197280, Note_on_c, 9, 42, 95
2, 197400, Note_off_c, 9, 36, 0
2, 197400, Note_off_c, 9, 42, 0
2, 197520, Note_on_c, 9, 38, 95
2, 197640, Note_off_c, 9, 38, 0
2, 197760, Note_on_c, 9, 46, 95
2, 197880, Note_off_c, 9, 46, 0
2, 198000, Note_on_c, 9, 38, 95
2, 198120, Note_off_c, 9, 38, 0
2, 198240, Note_on_c, 9, 42, 95
2, 198240, Note_on_c, 9, 36, 95
2, 198360, Note_off_c, 9, 42, 0
2, 198360, Note_off_c, 9, 36, 0
2, 198720, Note_on_c, 9, 38, 95
2, 198720, Note_on_c, 9, 42, 95
2, 198840, Note_off_c, 9, 38, 0
2, 198840, Note_off_c, 9, 42, 0
2, 199200, Note_on_c, 9, 42, 95
2, 199320, Note_off_c, 9, 42, 0
2, 199680, Note_on_c, 9, 46, 95
2, 199680, Note_on_c, 9, 36, 95
2, 199800, Note_off_c, 9, 46, 0
2, 199800, Note_off_c, 9, 36, 0
2, 200160, Note_on_c, 9, 42, 95
2, 200160, Note_on_c, 9, 36, 95
2, 200280, Note_off_c, 9, 42, 0
2, 200280, Note_off_c, 9, 36, 0
2, 200640, Note_on_c, 9, 42, 95
2, 200640, Note_on_c, 9, 38, 95
2, 200760, Note_off_c, 9, 42, 0
2, 200760, Note_off_c, 9, 38, 0
2, 201120, Note_on_c, 9, 42, 95
2, 201240, Note_off_c, 9, 42, 0
2, 201360, Note_on_c, 9, 38, 95
2, 201480, Note_off_c, 9, 38, 0
2, 201600, Note_on_c, 9, 46, 95
2, 201720, Note_off_c, 9, 46, 0
2, 202080, Note_on_c, 9, 42, 95
2, 202080, Note_on_c, 9, 36, 95
2, 202200, Note_off_c, 9, 42, 0
2, 202200, Note_off_c, 9, 36, 0
2, 202560, Note_on_c, 9, 42, 95
2, 202560, Note_on_c, 9, 38, 95
2, 202680, Note_off_c, 9, 42, 0
2, 202680, Note_off_c, 9, 38, 0
2, 203040, Note_on_c, 9, 42, 95
2, 203160, Note_off_c, 9, 42, 0
2, 203520, Note_on_c, 9, 36, 95
2, 203520, Note_on_c, 9, 46, 95
2, 203640, Note_off_c, 9, 36, 0
2, 203640, Note_off_c, 9, 46, 0
2, 204000, Note_on_c, 9, 42, 95
2, 204000, Note_on_c, 9, 36, 95
2, 204120, Note_off_c, 9, 42, 0
2, 204120, Note_off_c, 9, 36, 0
2, 204480, Note_on_c, 9, 38, 95
2, 204480, Note_on_c, 9, 42, 95
2, 204600, Note_off_c, 9, 38, 0
2, 204600, Note_off_c, 9, 42, 0
2, 204960, Note_on_c, 9, 36, 95
2, 204960, Note_on_c, 9, 42, 95
2, 205080, Note_off_c, 9, 36, 0
2, 205080, Note_off_c, 9, 42, 0
2, 205200, Note_on_c, 9, 38, 95
2, 205320, Note_off_c, 9, 38, 0
2, 205440, Note_on_c, 9, 46, 95
2, 205560, Note_off_c, 9, 46, 0
2, 206160, Note_on_c, 9, 36, 95
2, 206280, Note_off_c, 9, 36, 0
2, 206400, Note_on_c, 9, 38, 95
2, 206520, Note_off_c, 9, 38, 0
2, 206640, Note_on_c, 9, 41, 95
2, 206760, Note_off_c, 9, 41, 0
2, 206880, Note_on_c, 9, 41, 95
2, 207000, Note_off_c, 9, 41, 0
2, 207120, Note_on_c, 9, 41, 95
2, 207240, Note_off_c, 9, 41, 0
2, 207360, Note_on_c, 9, 36, 95
2, 207360, Note_on_c, 9, 49, 95
2, 207480, Note_off_c, 9, 36, 0
2, 207480, Note_off_c, 9, 49, 0
2, 207840, Note_on_c, 9, 36, 95
2, 207840, Note_on_c, 9, 42, 95
2, 207960, Note_off_c, 9, 36, 0
2, 207960, Note_off_c, 9, 42, 0
2, 208320, Note_on_c, 9, 42, 95
2, 208320, Note_on_c, 9, 38, 95
2, 208440, Note_off_c, 9, 42, 0
2, 208440, Note_off_c, 9, 38, 0
2, 208800, Note_on_c, 9, 42, 95
2, 208920, Note_off_c, 9, 42, 0
2, 209280, Note_on_c, 9, 46, 95
2, 209400, Note_off_c, 9, 46, 0
2, 209760, Note_on_c, 9, 42, 95
2, 209760, Note_on_c, 9, 36, 95
2, 209880, Note_off_c, 9, 42, 0
2, 209880, Note_off_c, 9, 36, 0
2, 210240, Note_on_c, 9, 38, 95
2, 210240, Note_on_c, 9, 42, 95
2, 210360, Note_off_c, 9, 38, 0
2, 210360, Note_off_c, 9, 42, 0
2, 210720, Note_on_c, 9, 42, 95
2, 210840, Note_off_c, 9, 42, 0
2, 211200, Note_on_c, 9, 46, 95
2, 211200, Note_on_c, 9, 36, 95
2, 211320, Note_off_c, 9, 46, 0
2, 211320, Note_off_c, 9, 36, 0
2, 211680, Note_on_c, 9, 36, 95
2, 211680, Note_on_c, 9, 42, 95
2, 211800, Note_off_c, 9, 36, 0
2, 211800, Note_off_c, 9, 42, 0
2, 212160, Note_on_c, 9, 42, 95
2, 212160, Note_on_c, 9, 38, 95
2, 212280, Note_off_c, 9, 42, 0
2, 212280, Note_off_c, 9, 38, 0
2, 212640, Note_on_c, 9, 36, 95
2, 212640, Note_on_c, 9, 42, 95
2, 212760, Note_off_c, 9, 36, 0
2, 212760, Note_off_c, 9, 42, 0
2, 212880, Note_on_c, 9, 38, 95
2, 213000, Note_off_c, 9, 38, 0
2, 213120, Note_on_c, 9, 46, 95
2, 213240, Note_off_c, 9, 46, 0
2, 213360, Note_on_c, 9, 38, 95
2, 213480, Note_off_c, 9, 38, 0
2, 213600, Note_on_c, 9, 42, 95
2, 213600, Note_on_c, 9, 36, 95
2, 213720, Note_off_c, 9, 42, 0
2, 213720, Note_off_c, 9, 36, 0
2, 214080, Note_on_c, 9, 42, 95
2, 214080, Note_on_c, 9, 38, 95
2, 214200, Note_off_c, 9, 42, 0
2, 214200, Note_off_c, 9, 38, 0
2, 214320, Note_on_c, 9, 36, 95
2, 214440, Note_off_c, 9, 36, 0
2, 214560, Note_on_c, 9, 42, 95
2, 214680, Note_off_c, 9, 42, 0
2, 215040, Note_on_c, 9, 46, 95
2, 215040, Note_on_c, 9, 36, 95
2, 215160, Note_off_c, 9, 46, 0
2, 215160, Note_off_c, 9, 36, 0
2, 215520, Note_on_c, 9, 42, 95
2, 215520, Note_on_c, 9, 36, 95
2, 215640, Note_off_c, 9, 42, 0
2, 215640, Note_off_c, 9, 36, 0
2, 216000, Note_on_c, 9, 42, 95
2, 216000, Note_on_c, 9, 38, 95
2, 216120, Note_off_c, 9, 42, 0
2, 216120, Note_off_c, 9, 38, 0
2, 216480, Note_on_c, 9, 36, 95
2, 216480, Note_on_c, 9, 42, 95
2, 216600, Note_off_c, 9, 36, 0
2, 216600, Note_off_c, 9, 42, 0
2, 216720, Note_on_c, 9, 38, 95
2, 216840, Note_off_c, 9, 38, 0
2, 216960, Note_on_c, 9, 46, 95
2, 217080, Note_off_c, 9, 46, 0
2, 217440, Note_on_c, 9, 42, 95
2, 217440, Note_on_c, 9, 36, 95
2, 217560, Note_off_c, 9, 42, 0
2, 217560, Note_off_c, 9, 36, 0
2, 217920, Note_on_c, 9, 42, 95
2, 217920, Note_on_c, 9, 38, 95
2, 218040, Note_off_c, 9, 42, 0
2, 218040, Note_off_c, 9, 38, 0
2, 218400, Note_on_c, 9, 42, 95
2, 218520, Note_off_c, 9, 42, 0
2, 218880, Note_on_c, 9, 46, 95
2, 218880, Note_on_c, 9, 36, 95
2, 219000, Note_off_c, 9, 46, 0
2, 219000, Note_off_c, 9, 36, 0
2, 219360, Note_on_c, 9, 36, 95
2, 219360, Note_on_c, 9, 42, 95
2, 219480, Note_off_c, 9, 36, 0
2, 219480, Note_off_c, 9, 42, 0
2, 219840, Note_on_c, 9, 38, 95
2, 219840, Note_on_c, 9, 42, 95
2, 219960, Note_off_c, 9, 38, 0
2, 219960, Note_off_c, 9, 42, 0
2, 220320, Note_on_c, 9, 42, 95
2, 220440, Note_off_c, 9, 42, 0
2, 220560, Note_on_c, 9, 38, 95
2, 220680, Note_off_c, 9, 38, 0
2, 220800, Note_on_c, 9, 36, 95
2, 220800, Note_on_c, 9, 46, 95
2, 220920, Note_off_c, 9, 36, 0
2, 220920, Note_off_c, 9, 46, 0
2, 221280, Note_on_c, 9, 42, 95
2, 221280, Note_on_c, 9, 36, 95
2, 221400, Note_off_c, 9, 42, 0
2, 221400, Note_off_c, 9, 36, 0
2, 221760, Note_on_c, 9, 42, 95
2, 221760, Note_on_c, 9, 38, 95
2, 221880, Note_off_c, 9, 42, 0
2, 221880, Note_off_c, 9, 38, 0
2, 222000, Note_on_c, 9, 36, 95
2, 222120, Note_off_c, 9, 36, 0
2, 222240, Note_on_c, 9, 38, 95
2, 222240, Note_on_c, 9, 42, 95
2, 222360, Note_off_c, 9, 38, 0
2, 222360, Note_off_c, 9, 42, 0
2, 222480, Note_on_c, 9, 38, 95
2, 222600, Note_off_c, 9, 38, 0
2, 222720, Note_on_c, 9, 36, 95
2, 222720, Note_on_c, 9, 49, 95
2, 222840, Note_off_c, 9, 36, 0
2, 222840, Note_off_c, 9, 49, 0
2, 223200, Note_on_c, 9, 36, 95
2, 223200, Note_on_c, 9, 42, 95
2, 223320, Note_off_c, 9, 36, 0
2, 223320, Note_off_c, 9, 42, 0
2, 223680, Note_on_c, 9, 42, 95
2, 223680, Note_on_c, 9, 38, 95
2, 223800, Note_off_c, 9, 42, 0
2, 223800, Note_off_c, 9, 38, 0
2, 224160, Note_on_c, 9, 42, 95
2, 224280, Note_off_c, 9, 42, 0
2, 224640, Note_on_c, 9, 46, 95
2, 224760, Note_off_c, 9, 46, 0
2, 225120, Note_on_c, 9, 42, 95
2, 225120, Note_on_c, 9, 36, 95
2, 225240, Note_off_c, 9, 42, 0
2, 225240, Note_off_c, 9, 36, 0
2, 225600, Note_on_c, 9, 38, 95
2, 225600, Note_on_c, 9, 42, 95
2, 225720, Note_off_c, 9, 38, 0
2, 225720, Note_off_c, 9, 42, 0
2, 225840, Note_on_c, 9, 36, 95
2, 225960, Note_off_c, 9, 36, 0
2, 226080, Note_on_c, 9, 42, 95
2, 226200, Note_off_c, 9, 42, 0
2, 226560, Note_on_c, 9, 36, 95
2, 226560, Note_on_c, 9, 46, 95
2, 226680, Note_off_c, 9, 36, 0
2, 226680, Note_off_c, 9, 46, 0
2, 227040, Note_on_c, 9, 36, 95
2, 227040, Note_on_c, 9, 42, 95
2, 227160, Note_off_c, 9, 36, 0
2, 227160, Note_off_c, 9, 42, 0
2, 227520, Note_on_c, 9, 42, 95
2, 227520, Note_on_c, 9, 38, 95
2, 227640, Note_off_c, 9, 42, 0
2, 227640, Note_off_c, 9, 38, 0
2, 228000, Note_on_c, 9, 36, 95
2, 228000, Note_on_c, 9, 42, 95
2, 228120, Note_off_c, 9, 36, 0
2, 228120, Note_off_c, 9, 42, 0
2, 228240, Note_on_c, 9, 38, 95
2, 228360, Note_off_c, 9, 38, 0
2, 228480, Note_on_c, 9, 46, 95
2, 228600, Note_off_c, 9, 46, 0
2, 228720, Note_on_c, 9, 38, 95
2, 228840, Note_off_c, 9, 38, 0
2, 228960, Note_on_c, 9, 36, 95
2, 228960, Note_on_c, 9, 42, 95
2, 229080, Note_off_c, 9, 36, 0
2, 229080, Note_off_c, 9, 42, 0
2, 229440, Note_on_c, 9, 38, 95
2, 229440, Note_on_c, 9, 42, 95
2, 229560, Note_off_c, 9, 38, 0
2, 229560, Note_off_c, 9, 42, 0
2, 229680, Note_on_c, 9, 36, 95
2, 229800, Note_off_c, 9, 36, 0
2, 229920, Note_on_c, 9, 42, 95
2, 230040, Note_off_c, 9, 42, 0
2, 230400, Note_on_c, 9, 46, 95
2, 230400, Note_on_c, 9, 36, 95
2, 230520, Note_off_c, 9, 46, 0
2, 230520, Note_off_c, 9, 36, 0
2, 230880, Note_on_c, 9, 42, 95
2, 230880, Note_on_c, 9, 36, 95
2, 231000, Note_off_c, 9, 42, 0
2, 231000, Note_off_c, 9, 36, 0
2, 231360, Note_on_c, 9, 42, 95
2, 231360, Note_on_c, 9, 38, 95
2, 231480, Note_off_c, 9, 42, 0
2, 231480, Note_off_c, 9, 38, 0
2, 231840, Note_on_c, 9, 36, 95
2, 231840, Note_on_c, 9, 42, 95
2, 231960, Note_off_c, 9, 36, 0
2, 231960, Note_off_c, 9, 42, 0
2, 232080, Note_on_c, 9, 38, 95
2, 232200, Note_off_c, 9, 38, 0
2, 232320, Note_on_c, 9, 46, 95
2, 232440, Note_off_c, 9, 46, 0
2, 232800, Note_on_c, 9, 42, 95
2, 232800, Note_on_c, 9, 36, 95
2, 232920, Note_off_c, 9, 42, 0
2, 232920, Note_off_c, 9, 36, 0
2, 233040, Note_on_c, 9, 36, 95
2, 233160, Note_off_c, 9, 36, 0
2, 233280, Note_on_c, 9, 42, 95
2, 233280, Note_on_c, 9, 38, 95
2, 233400, Note_off_c, 9, 42, 0
2, 233400, Note_off_c, 9, 38, 0
2, 233760, Note_on_c, 9, 42, 95
2, 233880, Note_off_c, 9, 42, 0
2, 234240, Note_on_c, 9, 36, 95
2, 234240, Note_on_c, 9, 46, 95
2, 234360, Note_off_c, 9, 36, 0
2, 234360, Note_off_c, 9, 46, 0
2, 234720, Note_on_c, 9, 36, 95
2, 234720, Note_on_c, 9, 42, 95
2, 234840, Note_off_c, 9, 36, 0
2, 234840, Note_off_c, 9, 42, 0
2, 235200, Note_on_c, 9, 38, 95
2, 235200, Note_on_c, 9, 42, 95
2, 235320, Note_off_c, 9, 38, 0
2, 235320, Note_off_c, 9, 42, 0
2, 235680, Note_on_c, 9, 36, 95
2, 235680, Note_on_c, 9, 42, 95
2, 235800, Note_off_c, 9, 36, 0
2, 235800, Note_off_c, 9, 42, 0
2, 235920, Note_on_c, 9, 38, 95
2, 236040, Note_off_c, 9, 38, 0
2, 236400, Note_on_c, 9, 38, 95
2, 236520, Note_off_c, 9, 38, 0
2, 236640, Note_on_c, 9, 36, 95
2, 236760, Note_off_c, 9, 36, 0
2, 236880, Note_on_c, 9, 36, 95
2, 237000, Note_off_c, 9, 36, 0
2, 237120, Note_on_c, 9, 38, 95
2, 237240, Note_off_c, 9, 38, 0
2, 237600, Note_on_c, 9, 38, 95
2, 237720, Note_off_c, 9, 38, 0
2, 237840, Note_on_c, 9, 38, 95
2, 237960, Note_off_c, 9, 38, 0
2, 238080, Note_on_c, 9, 57, 95
2, 238080, Note_on_c, 9, 36, 95
2, 238080, Note_on_c, 9, 49, 95
2, 238560, Note_off_c, 9, 57, 0
2, 238560, Note_off_c, 9, 36, 0
2, 238560, Note_off_c, 9, 49, 0
2, 238560, Note_on_c, 9, 42, 95
2, 238680, Note_off_c, 9, 42, 0
2, 238800, Note_on_c, 9, 36, 95
2, 238920, Note_off_c, 9, 36, 0
2, 239040, Note_on_c, 9, 42, 95
2, 239040, Note_on_c, 9, 38, 95
2, 239160, Note_off_c, 9, 42, 0
2, 239160, Note_off_c, 9, 38, 0
2, 239520, Note_on_c, 9, 36, 95
2, 239520, Note_on_c, 9, 42, 95
2, 239760, Note_off_c, 9, 36, 0
2, 239760, Note_off_c, 9, 42, 0
2, 239760, Note_on_c, 9, 49, 95
2, 239760, Note_on_c, 9, 36, 95
2, 240480, Note_off_c, 9, 49, 0
2, 240480, Note_off_c, 9, 36, 0
2, 240480, Note_on_c, 9, 52, 95
2, 240480, Note_on_c, 9, 36, 95
2, 240600, Note_off_c, 9, 52, 0
2, 240600, Note_off_c, 9, 36, 0
2, 240960, Note_on_c, 9, 38, 95
2, 240960, Note_on_c, 9, 42, 95
2, 241080, Note_off_c, 9, 38, 0
2, 241080, Note_off_c, 9, 42, 0
2, 241440, Note_on_c, 9, 42, 95
2, 241560, Note_off_c, 9, 42, 0
2, 241920, Note_on_c, 9, 42, 95
2, 241920, Note_on_c, 9, 36, 95
2, 242040, Note_off_c, 9, 42, 0
2, 242040, Note_off_c, 9, 36, 0
2, 242400, Note_on_c, 9, 42, 95
2, 242520, Note_off_c, 9, 42, 0
2, 242640, Note_on_c, 9, 36, 95
2, 242760, Note_off_c, 9, 36, 0
2, 242880, Note_on_c, 9, 42, 95
2, 242880, Note_on_c, 9, 38, 95
2, 243000, Note_off_c, 9, 42, 0
2, 243000, Note_off_c, 9, 38, 0
2, 243360, Note_on_c, 9, 42, 95
2, 243360, Note_on_c, 9, 36, 95
2, 243480, Note_off_c, 9, 42, 0
2, 243480, Note_off_c, 9, 36, 0
2, 243600, Note_on_c, 9, 36, 95
2, 243840, Note_off_c, 9, 36, 0
2, 243840, Note_on_c, 9, 42, 95
2, 243960, Note_off_c, 9, 42, 0
2, 244320, Note_on_c, 9, 36, 95
2, 244320, Note_on_c, 9, 42, 95
2, 244560, Note_off_c, 9, 36, 0
2, 244560, Note_off_c, 9, 42, 0
2, 244800, Note_on_c, 9, 38, 95
2, 244920, Note_off_c, 9, 38, 0
2, 245760, Note_on_c, 9, 57, 95
2, 245760, Note_on_c, 9, 36, 95
2, 245760, Note_on_c, 9, 49, 95
2, 246240, Note_off_c, 9, 57, 0
2, 246240, Note_off_c, 9, 36, 0
2, 246240, Note_off_c, 9, 49, 0
2, 246240, Note_on_c, 9, 42, 95
2, 246360, Note_off_c, 9, 42, 0
2, 246480, Note_on_c, 9, 36, 95
2, 246600, Note_off_c, 9, 36, 0
2, 246720, Note_on_c, 9, 42, 95
2, 246720, Note_on_c, 9, 38, 95
2, 246840, Note_off_c, 9, 42, 0
2, 246840, Note_off_c, 9, 38, 0
2, 247200, Note_on_c, 9, 36, 95
2, 247200, Note_on_c, 9, 42, 95
2, 247320, Note_off_c, 9, 36, 0
2, 247320, Note_off_c, 9, 42, 0
2, 247680, Note_on_c, 9, 42, 95
2, 247800, Note_off_c, 9, 42, 0
2, 248160, Note_on_c, 9, 42, 95
2, 248160, Note_on_c, 9, 36, 95
2, 248280, Note_off_c, 9, 42, 0
2, 248280, Note_off_c, 9, 36, 0
2, 248640, Note_on_c, 9, 38, 95
2, 248640, Note_on_c, 9, 42, 95
2, 248760, Note_off_c, 9, 38, 0
2, 248760, Note_off_c, 9, 42, 0
2, 249120, Note_on_c, 9, 42, 95
2, 249240, Note_off_c, 9, 42, 0
2, 249600, Note_on_c, 9, 42, 95
2, 249600, Note_on_c, 9, 36, 95
2, 249720, Note_off_c, 9, 42, 0
2, 249720, Note_off_c, 9, 36, 0
2, 250080, Note_on_c, 9, 42, 95
2, 250200, Note_off_c, 9, 42, 0
2, 250320, Note_on_c, 9, 36, 95
2, 250440, Note_off_c, 9, 36, 0
2, 250560, Note_on_c, 9, 42, 95
2, 250560, Note_on_c, 9, 38, 95
2, 250680, Note_off_c, 9, 42, 0
2, 250680, Note_off_c, 9, 38, 0
2, 251040, Note_on_c, 9, 42, 95
2, 251040, Note_on_c, 9, 36, 95
2, 251160, Note_off_c, 9, 42, 0
2, 251160, Note_off_c, 9, 36, 0
2, 251520, Note_on_c, 9, 42, 95
2, 251640, Note_off_c, 9, 42, 0
2, 251760, Note_on_c, 9, 38, 95
2, 251880, Note_off_c, 9, 38, 0
2, 252000, Note_on_c, 9, 36, 95
2, 252000, Note_on_c, 9, 42, 95
2, 252120, Note_off_c, 9, 36, 0
2, 252120, Note_off_c, 9, 42, 0
2, 252240, Note_on_c, 9, 36, 95
2, 252360, Note_off_c, 9, 36, 0
2, 252480, Note_on_c, 9, 38, 95
2, 252600, Note_off_c, 9, 38, 0
2, 252720, Note_on_c, 9, 38, 95
2, 252840, Note_off_c, 9, 38, 0
2, 252960, Note_on_c, 9, 38, 95
2, 253080, Note_off_c, 9, 38, 0
2, 253440, Note_on_c, 9, 57, 95
2, 253440, Note_on_c, 9, 36, 95
2, 253440, Note_on_c, 9, 49, 95
2, 253920, Note_off_c, 9, 57, 0
2, 253920, Note_off_c, 9, 36, 0
2, 253920, Note_off_c, 9, 49, 0
2, 253920, Note_on_c, 9, 42, 95
2, 254040, Note_off_c, 9, 42, 0
2, 254160, Note_on_c, 9, 36, 95
2, 254280, Note_off_c, 9, 36, 0
2, 254400, Note_on_c, 9, 42, 95
2, 254400, Note_on_c, 9, 38, 95
2, 254520, Note_off_c, 9, 42, 0
2, 254520, Note_off_c, 9, 38, 0
2, 254880, Note_on_c, 9, 36, 95
2, 254880, Note_on_c, 9, 42, 95
2, 255120, Note_off_c, 9, 36, 0
2, 255120, Note_off_c, 9, 42, 0
2, 255120, Note_on_c, 9, 36, 95
2, 255360, Note_off_c, 9, 36, 0
2, 255360, Note_on_c, 9, 42, 95
2, 255480, Note_off_c, 9, 42, 0
2, 255840, Note_on_c, 9, 42, 95
2, 255840, Note_on_c, 9, 36, 95
2, 255960, Note_off_c, 9, 42, 0
2, 255960, Note_off_c, 9, 36, 0
2, 256320, Note_on_c, 9, 42, 95
2, 256320, Note_on_c, 9, 38, 95
2, 256440, Note_off_c, 9, 42, 0
2, 256440, Note_off_c, 9, 38, 0
2, 257280, Note_on_c, 9, 42, 95
2, 257280, Note_on_c, 9, 36, 95
2, 257400, Note_off_c, 9, 42, 0
2, 257400, Note_off_c, 9, 36, 0
2, 257760, Note_on_c, 9, 42, 95
2, 257880, Note_off_c, 9, 42, 0
2, 258000, Note_on_c, 9, 36, 95
2, 258120, Note_off_c, 9, 36, 0
2, 258240, Note_on_c, 9, 42, 95
2, 258240, Note_on_c, 9, 38, 95
2, 258360, Note_off_c, 9, 42, 0
2, 258360, Note_off_c, 9, 38, 0
2, 258720, Note_on_c, 9, 42, 95
2, 258720, Note_on_c, 9, 36, 95
2, 258840, Note_off_c, 9, 42, 0
2, 258840, Note_off_c, 9, 36, 0
2, 258960, Note_on_c, 9, 36, 95
2, 259200, Note_off_c, 9, 36, 0
2, 259200, Note_on_c, 9, 42, 95
2, 259320, Note_off_c, 9, 42, 0
2, 259680, Note_on_c, 9, 36, 95
2, 259680, Note_on_c, 9, 42, 95
2, 259920, Note_off_c, 9, 36, 0
2, 259920, Note_off_c, 9, 42, 0
2, 260160, Note_on_c, 9, 38, 95
2, 260280, Note_off_c, 9, 38, 0
2, 261120, Note_on_c, 9, 57, 95
2, 261120, Note_on_c, 9, 36, 95
2, 261120, Note_on_c, 9, 49, 95
2, 261600, Note_off_c, 9, 57, 0
2, 261600, Note_off_c, 9, 36, 0
2, 261600, Note_off_c, 9, 49, 0
2, 261600, Note_on_c, 9, 42, 95
2, 261720, Note_off_c, 9, 42, 0
2, 261840, Note_on_c, 9, 36, 95
2, 261960, Note_off_c, 9, 36, 0
2, 262080, Note_on_c, 9, 42, 95
2, 262080, Note_on_c, 9, 38, 95
2, 262200, Note_off_c, 9, 42, 0
2, 262200, Note_off_c, 9, 38, 0
2, 262560, Note_on_c, 9, 36, 95
2, 262560, Note_on_c, 9, 42, 95
2, 262680, Note_off_c, 9, 36, 0
2, 262680, Note_off_c, 9, 42, 0
2, 263040, Note_on_c, 9, 42, 95
2, 263160, Note_off_c, 9, 42, 0
2, 263520, Note_on_c, 9, 42, 95
2, 263520, Note_on_c, 9, 36, 95
2, 263640, Note_off_c, 9, 42, 0
2, 263640, Note_off_c, 9, 36, 0
2, 264000, Note_on_c, 9, 38, 95
2, 264000, Note_on_c, 9, 42, 95
2, 264120, Note_off_c, 9, 38, 0
2, 264120, Note_off_c, 9, 42, 0
2, 264480, Note_on_c, 9, 42, 95
2, 264600, Note_off_c, 9, 42, 0
2, 264960, Note_on_c, 9, 36, 95
2, 264960, Note_on_c, 9, 49, 95
2, 264960, Note_on_c, 9, 57, 95
2, 265080, Note_off_c, 9, 36, 0
2, 265080, Note_off_c, 9, 49, 0
2, 265080, Note_off_c, 9, 57, 0
2, 265920, Note_on_c, 9, 36, 95
2, 265920, Note_on_c, 9, 49, 95
2, 266040, Note_off_c, 9, 36, 0
2, 266040, Note_off_c, 9, 49, 0
2, 266880, Note_on_c, 9, 36, 95
2, 267000, Note_off_c, 9, 36, 0
2, 267840, Note_on_c, 9, 36, 95
2, 267960, Note_off_c, 9, 36, 0
2, 268320, Note_on_c, 9, 46, 95
2, 268440, Note_off_c, 9, 46, 0
2, 268800, Note_on_c, 9, 42, 95
2, 268800, Note_on_c, 9, 36, 95
2, 268920, Note_off_c, 9, 42, 0
2, 268920, Note_off_c, 9, 36, 0
2, 269280, Note_on_c, 9, 42, 95
2, 269400, Note_off_c, 9, 42, 0
2, 269760, Note_on_c, 9, 38, 95
2, 269760, Note_on_c, 9, 42, 95
2, 269880, Note_off_c, 9, 38, 0
2, 269880, Note_off_c, 9, 42, 0
2, 270240, Note_on_c, 9, 42, 95
2, 270360, Note_off_c, 9, 42, 0
2, 270720, Note_on_c, 9, 42, 95
2, 270720, Note_on_c, 9, 36, 95
2, 270840, Note_off_c, 9, 42, 0
2, 270840, Note_off_c, 9, 36, 0
2, 271200, Note_on_c, 9, 42, 95
2, 271320, Note_off_c, 9, 42, 0
2, 271680, Note_on_c, 9, 38, 95
2, 271680, Note_on_c, 9, 42, 95
2, 271800, Note_off_c, 9, 38, 0
2, 271800, Note_off_c, 9, 42, 0
2, 272160, Note_on_c, 9, 42, 95
2, 272280, Note_off_c, 9, 42, 0
2, 272640, Note_on_c, 9, 36, 95
2, 272640, Note_on_c, 9, 42, 95
2, 272760, Note_off_c, 9, 36, 0
2, 272760, Note_off_c, 9, 42, 0
2, 273120, Note_on_c, 9, 42, 95
2, 273240, Note_off_c, 9, 42, 0
2, 273600, Note_on_c, 9, 38, 95
2, 273600, Note_on_c, 9, 42, 95
2, 273720, Note_off_c, 9, 38, 0
2, 273720, Note_off_c, 9, 42, 0
2, 274080, Note_on_c, 9, 42, 95
2, 274200, Note_off_c, 9, 42, 0
2, 274560, Note_on_c, 9, 42, 95
2, 274560, Note_on_c, 9, 36, 95
2, 274680, Note_off_c, 9, 42, 0
2, 274680, Note_off_c, 9, 36, 0
2, 275040, Note_on_c, 9, 36, 95
2, 275040, Note_on_c, 9, 42, 95
2, 275160, Note_off_c, 9, 36, 0
2, 275160, Note_off_c, 9, 42, 0
2, 275520, Note_on_c, 9, 38, 95
2, 275520, Note_on_c, 9, 42, 95
2, 275640, Note_off_c, 9, 38, 0
2, 275640, Note_off_c, 9, 42, 0
2, 276000, Note_on_c, 9, 42, 95
2, 276120, Note_off_c, 9, 42, 0
2, 276480, Note_on_c, 9, 36, 95
2, 276480, Note_on_c, 9, 42, 95
2, 276600, Note_off_c, 9, 36, 0
2, 276600, Note_off_c, 9, 42, 0
2, 276960, Note_on_c, 9, 42, 95
2, 277080, Note_off_c, 9, 42, 0
2, 277440, Note_on_c, 9, 42, 95
2, 277440, Note_on_c, 9, 38, 95
2, 277560, Note_off_c, 9, 42, 0
2, 277560, Note_off_c, 9, 38, 0
2, 277920, Note_on_c, 9, 42, 95
2, 278040, Note_off_c, 9, 42, 0
2, 278400, Note_on_c, 9, 36, 95
2, 278400, Note_on_c, 9, 42, 95
2, 278520, Note_off_c, 9, 36, 0
2, 278520, Note_off_c, 9, 42, 0
2, 278880, Note_on_c, 9, 36, 95
2, 278880, Note_on_c, 9, 42, 95
2, 279000, Note_off_c, 9, 36, 0
2, 279000, Note_off_c, 9, 42, 0
2, 279360, Note_on_c, 9, 42, 95
2, 279360, Note_on_c, 9, 38, 95
2, 279480, Note_off_c, 9, 42, 0
2, 279480, Note_off_c, 9, 38, 0
2, 279840, Note_on_c, 9, 42, 95
2, 279960, Note_off_c, 9, 42, 0
2, 280320, Note_on_c, 9, 36, 95
2, 280320, Note_on_c, 9, 42, 95
2, 280440, Note_off_c, 9, 36, 0
2, 280440, Note_off_c, 9, 42, 0
2, 280800, Note_on_c, 9, 42, 95
2, 280920, Note_off_c, 9, 42, 0
2, 281280, Note_on_c, 9, 38, 95
2, 281280, Note_on_c, 9, 42, 95
2, 281400, Note_off_c, 9, 38, 0
2, 281400, Note_off_c, 9, 42, 0
2, 281760, Note_on_c, 9, 42, 95
2, 281880, Note_off_c, 9, 42, 0
2, 282240, Note_on_c, 9, 42, 95
2, 282240, Note_on_c, 9, 36, 95
2, 282360, Note_off_c, 9, 42, 0
2, 282360, Note_off_c, 9, 36, 0
2, 282480, Note_on_c, 9, 42, 95
2, 282600, Note_off_c, 9, 42, 0
2, 282720, Note_on_c, 9, 42, 95
2, 282840, Note_off_c, 9, 42, 0
2, 283200, Note_on_c, 9, 38, 95
2, 283200, Note_on_c, 9, 42, 95
2, 283320, Note_off_c, 9, 38, 0
2, 283320, Note_off_c, 9, 42, 0
2, 283680, Note_on_c, 9, 42, 95
2, 283800, Note_off_c, 9, 42, 0
2, 284160, Note_on_c, 9, 42, 95
2, 284160, Note_on_c, 9, 36, 95
2, 284280, Note_off_c, 9, 42, 0
2, 284280, Note_off_c, 9, 36, 0
2, 284640, Note_on_c, 9, 42, 95
2, 284760, Note_off_c, 9, 42, 0
2, 285120, Note_on_c, 9, 42, 95
2, 285120, Note_on_c, 9, 38, 95
2, 285240, Note_off_c, 9, 42, 0
2, 285240, Note_off_c, 9, 38, 0
2, 285600, Note_on_c, 9, 42, 95
2, 285720, Note_off_c, 9, 42, 0
2, 286080, Note_on_c, 9, 42, 95
2, 286080, Note_on_c, 9, 36, 95
2, 286200, Note_off_c, 9, 42, 0
2, 286200, Note_off_c, 9, 36, 0
2, 286560, Note_on_c, 9, 36, 95
2, 286560, Note_on_c, 9, 42, 95
2, 286680, Note_off_c, 9, 36, 0
2, 286680, Note_off_c, 9, 42, 0
2, 287040, Note_on_c, 9, 42, 95
2, 287040, Note_on_c, 9, 38, 95
2, 287160, Note_off_c, 9, 42, 0
2, 287160, Note_off_c, 9, 38, 0
2, 287520, Note_on_c, 9, 42, 95
2, 287640, Note_off_c, 9, 42, 0
2, 288000, Note_on_c, 9, 42, 95
2, 288000, Note_on_c, 9, 36, 95
2, 288120, Note_off_c, 9, 42, 0
2, 288120, Note_off_c, 9, 36, 0
2, 288480, Note_on_c, 9, 42, 95
2, 288600, Note_off_c, 9, 42, 0
2, 288960, Note_on_c, 9, 38, 95
2, 288960, Note_on_c, 9, 42, 95
2, 289080, Note_off_c, 9, 38, 0
2, 289080, Note_off_c, 9, 42, 0
2, 289440, Note_on_c, 9, 42, 95
2, 289560, Note_off_c, 9, 42, 0
2, 289920, Note_on_c, 9, 42, 95
2, 289920, Note_on_c, 9, 36, 95
2, 290040, Note_off_c, 9, 42, 0
2, 290040, Note_off_c, 9, 36, 0
2, 290400, Note_on_c, 9, 42, 95
2, 290400, Note_on_c, 9, 36, 95
2, 290520, Note_off_c, 9, 42, 0
2, 290520, Note_off_c, 9, 36, 0
2, 290880, Note_on_c, 9, 38, 95
2, 290880, Note_on_c, 9, 42, 95
2, 291000, Note_off_c, 9, 38, 0
2, 291000, Note_off_c, 9, 42, 0
2, 291360, Note_on_c, 9, 42, 95
2, 291480, Note_off_c, 9, 42, 0
2, 291840, Note_on_c, 9, 36, 95
2, 291840, Note_on_c, 9, 42, 95
2, 291960, Note_off_c, 9, 36, 0
2, 291960, Note_off_c, 9, 42, 0
2, 292320, Note_on_c, 9, 42, 95
2, 292440, Note_off_c, 9, 42, 0
2, 292800, Note_on_c, 9, 38, 95
2, 292800, Note_on_c, 9, 42, 95
2, 292920, Note_off_c, 9, 38, 0
2, 292920, Note_off_c, 9, 42, 0
2, 293280, Note_on_c, 9, 42, 95
2, 293400, Note_off_c, 9, 42, 0
2, 293760, Note_on_c, 9, 36, 95
2, 293760, Note_on_c, 9, 42, 95
2, 293880, Note_off_c, 9, 36, 0
2, 293880, Note_off_c, 9, 42, 0
2, 294240, Note_on_c, 9, 42, 95
2, 294240, Note_on_c, 9, 36, 95
2, 294360, Note_off_c, 9, 42, 0
2, 294360, Note_off_c, 9, 36, 0
2, 294720, Note_on_c, 9, 38, 95
2, 294720, Note_on_c, 9, 42, 95
2, 294840, Note_off_c, 9, 38, 0
2, 294840, Note_off_c, 9, 42, 0
2, 295200, Note_on_c, 9, 42, 95
2, 295320, Note_off_c, 9, 42, 0
2, 295680, Note_on_c, 9, 42, 95
2, 295680, Note_on_c, 9, 36, 95
2, 295800, Note_off_c, 9, 42, 0
2, 295800, Note_off_c, 9, 36, 0
2, 296160, Note_on_c, 9, 42, 95
2, 296280, Note_off_c, 9, 42, 0
2, 296640, Note_on_c, 9, 38, 95
2, 296640, Note_on_c, 9, 42, 95
2, 296760, Note_off_c, 9, 38, 0
2, 296760, Note_off_c, 9, 42, 0
2, 297120, Note_on_c, 9, 42, 95
2, 297240, Note_off_c, 9, 42, 0
2, 297600, Note_on_c, 9, 42, 95
2, 297600, Note_on_c, 9, 36, 95
2, 297720, Note_off_c, 9, 42, 0
2, 297720, Note_off_c, 9, 36, 0
2, 298080, Note_on_c, 9, 36, 95
2, 298080, Note_on_c, 9, 42, 95
2, 298200, Note_off_c, 9, 36, 0
2, 298200, Note_off_c, 9, 42, 0
2, 298560, Note_on_c, 9, 38, 95
2, 298560, Note_on_c, 9, 42, 95
2, 298680, Note_off_c, 9, 38, 0
2, 298680, Note_off_c, 9, 42, 0
2, 299040, Note_on_c, 9, 46, 95
2, 299160, Note_off_c, 9, 46, 0
2, 299520, Note_on_c, 9, 49, 95
2, 299520, Note_on_c, 9, 36, 95
2, 299640, Note_off_c, 9, 49, 0
2, 299640, Note_off_c, 9, 36, 0
2, 300480, Note_on_c, 9, 49, 95
2, 300480, Note_on_c, 9, 38, 95
2, 300600, Note_off_c, 9, 49, 0
2, 300600, Note_off_c, 9, 38, 0
2, 300960, Note_on_c, 9, 42, 95
2, 301080, Note_off_c, 9, 42, 0
2, 301440, Note_on_c, 9, 36, 95
2, 301440, Note_on_c, 9, 42, 95
2, 301560, Note_off_c, 9, 36, 0
2, 301560, Note_off_c, 9, 42, 0
2, 301920, Note_on_c, 9, 42, 95
2, 301920, Note_on_c, 9, 36, 95
2, 302040, Note_off_c, 9, 42, 0
2, 302040, Note_off_c, 9, 36, 0
2, 302400, Note_on_c, 9, 38, 95
2, 302400, Note_on_c, 9, 42, 95
2, 302520, Note_off_c, 9, 38, 0
2, 302520, Note_off_c, 9, 42, 0
2, 302880, Note_on_c, 9, 42, 95
2, 303000, Note_off_c, 9, 42, 0
2, 303360, Note_on_c, 9, 36, 95
2, 303360, Note_on_c, 9, 42, 95
2, 303480, Note_off_c, 9, 36, 0
2, 303480, Note_off_c, 9, 42, 0
2, 303840, Note_on_c, 9, 42, 95
2, 303960, Note_off_c, 9, 42, 0
2, 304320, Note_on_c, 9, 38, 95
2, 304320, Note_on_c, 9, 42, 95
2, 304440, Note_off_c, 9, 38, 0
2, 304440, Note_off_c, 9, 42, 0
2, 304800, Note_on_c, 9, 42, 95
2, 304920, Note_off_c, 9, 42, 0
2, 305280, Note_on_c, 9, 36, 95
2, 305280, Note_on_c, 9, 42, 95
2, 305400, Note_off_c, 9, 36, 0
2, 305400, Note_off_c, 9, 42, 0
2, 305760, Note_on_c, 9, 42, 95
2, 305760, Note_on_c, 9, 36, 95
2, 305880, Note_off_c, 9, 42, 0
2, 305880, Note_off_c, 9, 36, 0
2, 306240, Note_on_c, 9, 38, 95
2, 306240, Note_on_c, 9, 42, 95
2, 306360, Note_off_c, 9, 38, 0
2, 306360, Note_off_c, 9, 42, 0
2, 306720, Note_on_c, 9, 42, 95
2, 306840, Note_off_c, 9, 42, 0
2, 307200, Note_on_c, 9, 36, 95
2, 307200, Note_on_c, 9, 42, 95
2, 307320, Note_off_c, 9, 36, 0
2, 307320, Note_off_c, 9, 42, 0
2, 307680, Note_on_c, 9, 42, 95
2, 307800, Note_off_c, 9, 42, 0
2, 308160, Note_on_c, 9, 38, 95
2, 308160, Note_on_c, 9, 42, 95
2, 308280, Note_off_c, 9, 38, 0
2, 308280, Note_off_c, 9, 42, 0
2, 308640, Note_on_c, 9, 42, 95
2, 308760, Note_off_c, 9, 42, 0
2, 309120, Note_on_c, 9, 36, 95
2, 309120, Note_on_c, 9, 42, 95
2, 309240, Note_off_c, 9, 36, 0
2, 309240, Note_off_c, 9, 42, 0
2, 309600, Note_on_c, 9, 42, 95
2, 309600, Note_on_c, 9, 36, 95
2, 309720, Note_off_c, 9, 42, 0
2, 309720, Note_off_c, 9, 36, 0
2, 310080, Note_on_c, 9, 38, 95
2, 310080, Note_on_c, 9, 42, 95
2, 310200, Note_off_c, 9, 38, 0
2, 310200, Note_off_c, 9, 42, 0
2, 310560, Note_on_c, 9, 42, 95
2, 310680, Note_off_c, 9, 42, 0
2, 311040, Note_on_c, 9, 36, 95
2, 311040, Note_on_c, 9, 42, 95
2, 311160, Note_off_c, 9, 36, 0
2, 311160, Note_off_c, 9, 42, 0
2, 311520, Note_on_c, 9, 42, 95
2, 311640, Note_off_c, 9, 42, 0
2, 312000, Note_on_c, 9, 38, 95
2, 312000, Note_on_c, 9, 42, 95
2, 312120, Note_off_c, 9, 38, 0
2, 312120, Note_off_c, 9, 42, 0
2, 312480, Note_on_c, 9, 42, 95
2, 312600, Note_off_c, 9, 42, 0
2, 312960, Note_on_c, 9, 36, 95
2, 312960, Note_on_c, 9, 42, 95
2, 313080, Note_off_c, 9, 36, 0
2, 313080, Note_off_c, 9, 42, 0
2, 313440, Note_on_c, 9, 42, 95
2, 313440, Note_on_c, 9, 36, 95
2, 313560, Note_off_c, 9, 42, 0
2, 313560, Note_off_c, 9, 36, 0
2, 313920, Note_on_c, 9, 38, 95
2, 313920, Note_on_c, 9, 42, 95
2, 314040, Note_off_c, 9, 38, 0
2, 314040, Note_off_c, 9, 42, 0
2, 314160, Note_on_c, 9, 42, 95
2, 314280, Note_off_c, 9, 42, 0
2, 314400, Note_on_c, 9, 42, 95
2, 314520, Note_off_c, 9, 42, 0
2, 314880, Note_on_c, 9, 49, 95
2, 314880, Note_on_c, 9, 36, 95
2, 315000, Note_off_c, 9, 49, 0
2, 315000, Note_off_c, 9, 36, 0
2, 315360, Note_on_c, 9, 42, 95
2, 315480, Note_off_c, 9, 42, 0
2, 315840, Note_on_c, 9, 38, 95
2, 315840, Note_on_c, 9, 42, 95
2, 315960, Note_off_c, 9, 38, 0
2, 315960, Note_off_c, 9, 42, 0
2, 316320, Note_on_c, 9, 42, 95
2, 316440, Note_off_c, 9, 42, 0
2, 316800, Note_on_c, 9, 36, 95
2, 316800, Note_on_c, 9, 42, 95
2, 316920, Note_off_c, 9, 36, 0
2, 316920, Note_off_c, 9, 42, 0
2, 317280, Note_on_c, 9, 42, 95
2, 317280, Note_on_c, 9, 36, 95
2, 317400, Note_off_c, 9, 42, 0
2, 317400, Note_off_c, 9, 36, 0
2, 317760, Note_on_c, 9, 38, 95
2, 317760, Note_on_c, 9, 42, 95
2, 317880, Note_off_c, 9, 38, 0
2, 317880, Note_off_c, 9, 42, 0
2, 318240, Note_on_c, 9, 42, 95
2, 318360, Note_off_c, 9, 42, 0
2, 318720, Note_on_c, 9, 36, 95
2, 318720, Note_on_c, 9, 42, 95
2, 318840, Note_off_c, 9, 36, 0
2, 318840, Note_off_c, 9, 42, 0
2, 319200, Note_on_c, 9, 42, 95
2, 319320, Note_off_c, 9, 42, 0
2, 319680, Note_on_c, 9, 38, 95
2, 319680, Note_on_c, 9, 42, 95
2, 319800, Note_off_c, 9, 38, 0
2, 319800, Note_off_c, 9, 42, 0
2, 320160, Note_on_c, 9, 42, 95
2, 320280, Note_off_c, 9, 42, 0
2, 320640, Note_on_c, 9, 36, 95
2, 320640, Note_on_c, 9, 42, 95
2, 320760, Note_off_c, 9, 36, 0
2, 320760, Note_off_c, 9, 42, 0
2, 321120, Note_on_c, 9, 42, 95
2, 321120, Note_on_c, 9, 36, 95
2, 321240, Note_off_c, 9, 42, 0
2, 321240, Note_off_c, 9, 36, 0
2, 321600, Note_on_c, 9, 38, 95
2, 321600, Note_on_c, 9, 42, 95
2, 321720, Note_off_c, 9, 38, 0
2, 321720, Note_off_c, 9, 42, 0
2, 322080, Note_on_c, 9, 42, 95
2, 322200, Note_off_c, 9, 42, 0
2, 322560, Note_on_c, 9, 36, 95
2, 322560, Note_on_c, 9, 42, 95
2, 322680, Note_off_c, 9, 36, 0
2, 322680, Note_off_c, 9, 42, 0
2, 323040, Note_on_c, 9, 42, 95
2, 323160, Note_off_c, 9, 42, 0
2, 323520, Note_on_c, 9, 38, 95
2, 323520, Note_on_c, 9, 42, 95
2, 323640, Note_off_c, 9, 38, 0
2, 323640, Note_off_c, 9, 42, 0
2, 324000, Note_on_c, 9, 42, 95
2, 324120, Note_off_c, 9, 42, 0
2, 324480, Note_on_c, 9, 36, 95
2, 324480, Note_on_c, 9, 42, 95
2, 324600, Note_off_c, 9, 36, 0
2, 324600, Note_off_c, 9, 42, 0
2, 324960, Note_on_c, 9, 42, 95
2, 324960, Note_on_c, 9, 36, 95
2, 325080, Note_off_c, 9, 42, 0
2, 325080, Note_off_c, 9, 36, 0
2, 325440, Note_on_c, 9, 38, 95
2, 325440, Note_on_c, 9, 42, 95
2, 325560, Note_off_c, 9, 38, 0
2, 325560, Note_off_c, 9, 42, 0
2, 325920, Note_on_c, 9, 42, 95
2, 326040, Note_off_c, 9, 42, 0
2, 326280, Note_on_c, 9, 36, 95
2, 326400, Note_off_c, 9, 36, 0
2, 326400, Note_on_c, 9, 38, 95
2, 326400, Note_on_c, 9, 49, 95
2, 326520, Note_off_c, 9, 38, 0
2, 326520, Note_off_c, 9, 49, 0
2, 326880, Note_on_c, 9, 42, 95
2, 327000, Note_off_c, 9, 42, 0
2, 327360, Note_on_c, 9, 42, 95
2, 327480, Note_off_c, 9, 42, 0
2, 327840, Note_on_c, 9, 42, 95
2, 327840, Note_on_c, 9, 36, 95
2, 327960, Note_off_c, 9, 42, 0
2, 327960, Note_off_c, 9, 36, 0
2, 328320, Note_on_c, 9, 42, 95
2, 328320, Note_on_c, 9, 38, 95
2, 328440, Note_off_c, 9, 42, 0
2, 328440, Note_off_c, 9, 38, 0
2, 328560, Note_on_c, 9, 38, 95
2, 328680, Note_off_c, 9, 38, 0
2, 329040, Note_on_c, 9, 38, 95
2, 329040, Note_on_c, 9, 43, 95
2, 329160, Note_off_c, 9, 38, 0
2, 329160, Note_off_c, 9, 43, 0
2, 329280, Note_on_c, 9, 43, 95
2, 329280, Note_on_c, 9, 38, 95
2, 329400, Note_off_c, 9, 43, 0
2, 329400, Note_off_c, 9, 38, 0
2, 329520, Note_on_c, 9, 38, 95
2, 329520, Note_on_c, 9, 43, 95
2, 329640, Note_off_c, 9, 38, 0
2, 329640, Note_off_c, 9, 43, 0
2, 329760, Note_on_c, 9, 38, 95
2, 329760, Note_on_c, 9, 41, 95
2, 329880, Note_off_c, 9, 38, 0
2, 329880, Note_off_c, 9, 41, 0
2, 330240, Note_on_c, 9, 57, 95
2, 330240, Note_on_c, 9, 49, 95
2, 330240, Note_on_c, 9, 36, 95
2, 330360, Note_off_c, 9, 57, 0
2, 330360, Note_off_c, 9, 49, 0
2, 330360, Note_off_c, 9, 36, 0
2, 331200, Note_on_c, 9, 44, 95
2, 331320, Note_off_c, 9, 44, 0
2, 332160, Note_on_c, 9, 44, 95
2, 332280, Note_off_c, 9, 44, 0
2, 333120, Note_on_c, 9, 44, 95
2, 333240, Note_off_c, 9, 44, 0
2, 334080, Note_on_c, 9, 44, 95
2, 334200, Note_off_c, 9, 44, 0
2, 335040, Note_on_c, 9, 44, 95
2, 335160, Note_off_c, 9, 44, 0
2, 336000, Note_on_c, 9, 44, 95
2, 336120, Note_off_c, 9, 44, 0
2, 336960, Note_on_c, 9, 44, 95
2, 337080, Note_off_c, 9, 44, 0
2, 337920, Note_on_c, 9, 44, 95
2, 338040, Note_off_c, 9, 44, 0
2, 338880, Note_on_c, 9, 44, 95
2, 339000, Note_off_c, 9, 44, 0
2, 339840, Note_on_c, 9, 44, 95
2, 339960, Note_off_c, 9, 44, 0
2, 340800, Note_on_c, 9, 44, 95
2, 340920, Note_off_c, 9, 44, 0
2, 341640, Note_on_c, 9, 38, 95
2, 341760, Note_off_c, 9, 38, 0
2, 341760, Note_on_c, 9, 38, 95
2, 341880, Note_off_c, 9, 38, 0
2, 342240, Note_on_c, 9, 38, 95
2, 342360, Note_off_c, 9, 38, 0
2, 342720, Note_on_c, 9, 38, 95
2, 342840, Note_off_c, 9, 38, 0
2, 343200, Note_on_c, 9, 38, 95
2, 343320, Note_off_c, 9, 38, 0
2, 343440, Note_on_c, 9, 38, 95
2, 343560, Note_off_c, 9, 38, 0
2, 343920, Note_on_c, 9, 38, 95
2, 344040, Note_off_c, 9, 38, 0
2, 344160, Note_on_c, 9, 38, 95
2, 344280, Note_off_c, 9, 38, 0
2, 344400, Note_on_c, 9, 38, 95
2, 344520, Note_off_c, 9, 38, 0
2, 344640, Note_on_c, 9, 38, 95
2, 344760, Note_off_c, 9, 38, 0
2, 344880, Note_on_c, 9, 38, 95
2, 345000, Note_off_c, 9, 38, 0
2, 345120, Note_on_c, 9, 38, 95
2, 345240, Note_off_c, 9, 38, 0
2, 345360, Note_on_c, 9, 38, 95
2, 345480, Note_off_c, 9, 38, 0
2, 345600, Note_on_c, 9, 49, 95
2, 345600, Note_on_c, 9, 36, 95
2, 345720, Note_off_c, 9, 49, 0
2, 345720, Note_off_c, 9, 36, 0
2, 346080, Note_on_c, 9, 36, 95
2, 346080, Note_on_c, 9, 42, 95
2, 346200, Note_off_c, 9, 36, 0
2, 346200, Note_off_c, 9, 42, 0
2, 346560, Note_on_c, 9, 42, 95
2, 346560, Note_on_c, 9, 38, 95
2, 346680, Note_off_c, 9, 42, 0
2, 346680, Note_off_c, 9, 38, 0
2, 347040, Note_on_c, 9, 42, 95
2, 347160, Note_off_c, 9, 42, 0
2, 347520, Note_on_c, 9, 46, 95
2, 347640, Note_off_c, 9, 46, 0
2, 348000, Note_on_c, 9, 36, 95
2, 348000, Note_on_c, 9, 42, 95
2, 348120, Note_off_c, 9, 36, 0
2, 348120, Note_off_c, 9, 42, 0
2, 348480, Note_on_c, 9, 38, 95
2, 348480, Note_on_c, 9, 42, 95
2, 348600, Note_off_c, 9, 38, 0
2, 348600, Note_off_c, 9, 42, 0
2, 348960, Note_on_c, 9, 42, 95
2, 349080, Note_off_c, 9, 42, 0
2, 349440, Note_on_c, 9, 36, 95
2, 349440, Note_on_c, 9, 46, 95
2, 349560, Note_off_c, 9, 36, 0
2, 349560, Note_off_c, 9, 46, 0
2, 349920, Note_on_c, 9, 36, 95
2, 349920, Note_on_c, 9, 42, 95
2, 350040, Note_off_c, 9, 36, 0
2, 350040, Note_off_c, 9, 42, 0
2, 350400, Note_on_c, 9, 42, 95
2, 350400, Note_on_c, 9, 38, 95
2, 350520, Note_off_c, 9, 42, 0
2, 350520, Note_off_c, 9, 38, 0
2, 350880, Note_on_c, 9, 36, 95
2, 350880, Note_on_c, 9, 42, 95
2, 351000, Note_off_c, 9, 36, 0
2, 351000, Note_off_c, 9, 42, 0
2, 351120, Note_on_c, 9, 38, 95
2, 351240, Note_off_c, 9, 38, 0
2, 351360, Note_on_c, 9, 46, 95
2, 351480, Note_off_c, 9, 46, 0
2, 351600, Note_on_c, 9, 38, 95
2, 351720, Note_off_c, 9, 38, 0
2, 351840, Note_on_c, 9, 42, 95
2, 351960, Note_off_c, 9, 42, 0
2, 352080, Note_on_c, 9, 36, 95
2, 352200, Note_off_c, 9, 36, 0
2, 352320, Note_on_c, 9, 38, 95
2, 352320, Note_on_c, 9, 42, 95
2, 352440, Note_off_c, 9, 38, 0
2, 352440, Note_off_c, 9, 42, 0
2, 352800, Note_on_c, 9, 42, 95
2, 352920, Note_off_c, 9, 42, 0
2, 353280, Note_on_c, 9, 36, 95
2, 353280, Note_on_c, 9, 46, 95
2, 353400, Note_off_c, 9, 36, 0
2, 353400, Note_off_c, 9, 46, 0
2, 353760, Note_on_c, 9, 36, 95
2, 353760, Note_on_c, 9, 42, 95
2, 353880, Note_off_c, 9, 36, 0
2, 353880, Note_off_c, 9, 42, 0
2, 354240, Note_on_c, 9, 42, 95
2, 354240, Note_on_c, 9, 38, 95
2, 354360, Note_off_c, 9, 42, 0
2, 354360, Note_off_c, 9, 38, 0
2, 354720, Note_on_c, 9, 36, 95
2, 354720, Note_on_c, 9, 42, 95
2, 354840, Note_off_c, 9, 36, 0
2, 354840, Note_off_c, 9, 42, 0
2, 354960, Note_on_c, 9, 38, 95
2, 355080, Note_off_c, 9, 38, 0
2, 355200, Note_on_c, 9, 46, 95
2, 355320, Note_off_c, 9, 46, 0
2, 355440, Note_on_c, 9, 38, 95
2, 355560, Note_off_c, 9, 38, 0
2, 355680, Note_on_c, 9, 36, 95
2, 355680, Note_on_c, 9, 42, 95
2, 355800, Note_off_c, 9, 36, 0
2, 355800, Note_off_c, 9, 42, 0
2, 356160, Note_on_c, 9, 42, 95
2, 356160, Note_on_c, 9, 38, 95
2, 356280, Note_off_c, 9, 42, 0
2, 356280, Note_off_c, 9, 38, 0
2, 356640, Note_on_c, 9, 36, 95
2, 356640, Note_on_c, 9, 42, 95
2, 356760, Note_off_c, 9, 36, 0
2, 356760, Note_off_c, 9, 42, 0
2, 357120, Note_on_c, 9, 38, 95
2, 357120, Note_on_c, 9, 46, 95
2, 357240, Note_off_c, 9, 38, 0
2, 357240, Note_off_c, 9, 46, 0
2, 357600, Note_on_c, 9, 42, 95
2, 357720, Note_off_c, 9, 42, 0
2, 357840, Note_on_c, 9, 38, 95
2, 357960, Note_off_c, 9, 38, 0
2, 358080, Note_on_c, 9, 36, 95
2, 358080, Note_on_c, 9, 42, 95
2, 358200, Note_off_c, 9, 36, 0
2, 358200, Note_off_c, 9, 42, 0
2, 358560, Note_on_c, 9, 38, 95
2, 358560, Note_on_c, 9, 42, 95
2, 358680, Note_off_c, 9, 38, 0
2, 358680, Note_off_c, 9, 42, 0
2, 358800, Note_on_c, 9, 36, 95
2, 358920, Note_off_c, 9, 36, 0
2, 359280, Note_on_c, 9, 38, 95
2, 359400, Note_off_c, 9, 38, 0
2, 359520, Note_on_c, 9, 38, 95
2, 359640, Note_off_c, 9, 38, 0
2, 359760, Note_on_c, 9, 38, 95
2, 359880, Note_off_c, 9, 38, 0
2, 360000, Note_on_c, 9, 38, 95
2, 360120, Note_off_c, 9, 38, 0
2, 360240, Note_on_c, 9, 38, 95
2, 360360, Note_off_c, 9, 38, 0
2, 360480, Note_on_c, 9, 38, 95
2, 360600, Note_off_c, 9, 38, 0
2, 360720, Note_on_c, 9, 38, 95
2, 360840, Note_off_c, 9, 38, 0
2, 360960, Note_on_c, 9, 36, 95
2, 360960, Note_on_c, 9, 49, 95
2, 361080, Note_off_c, 9, 36, 0
2, 361080, Note_off_c, 9, 49, 0
2, 361440, Note_on_c, 9, 36, 95
2, 361440, Note_on_c, 9, 42, 95
2, 361560, Note_off_c, 9, 36, 0
2, 361560, Note_off_c, 9, 42, 0
2, 361920, Note_on_c, 9, 42, 95
2, 361920, Note_on_c, 9, 38, 95
2, 362040, Note_off_c, 9, 42, 0
2, 362040, Note_off_c, 9, 38, 0
2, 362400, Note_on_c, 9, 42, 95
2, 362520, Note_off_c, 9, 42, 0
2, 362880, Note_on_c, 9, 46, 95
2, 363000, Note_off_c, 9, 46, 0
2, 363360, Note_on_c, 9, 42, 95
2, 363360, Note_on_c, 9, 36, 95
2, 363480, Note_off_c, 9, 42, 0
2, 363480, Note_off_c, 9, 36, 0
2, 363840, Note_on_c, 9, 38, 95
2, 363840, Note_on_c, 9, 42, 95
2, 363960, Note_off_c, 9, 38, 0
2, 363960, Note_off_c, 9, 42, 0
2, 364320, Note_on_c, 9, 42, 95
2, 364440, Note_off_c, 9, 42, 0
2, 364800, Note_on_c, 9, 46, 95
2, 364800, Note_on_c, 9, 36, 95
2, 364920, Note_off_c, 9, 46, 0
2, 364920, Note_off_c, 9, 36, 0
2, 365280, Note_on_c, 9, 36, 95
2, 365280, Note_on_c, 9, 42, 95
2, 365400, Note_off_c, 9, 36, 0
2, 365400, Note_off_c, 9, 42, 0
2, 365760, Note_on_c, 9, 42, 95
2, 365760, Note_on_c, 9, 38, 95
2, 365880, Note_off_c, 9, 42, 0
2, 365880, Note_off_c, 9, 38, 0
2, 366240, Note_on_c, 9, 36, 95
2, 366240, Note_on_c, 9, 42, 95
2, 366360, Note_off_c, 9, 36, 0
2, 366360, Note_off_c, 9, 42, 0
2, 366480, Note_on_c, 9, 38, 95
2, 366600, Note_off_c, 9, 38, 0
2, 366720, Note_on_c, 9, 46, 95
2, 366840, Note_off_c, 9, 46, 0
2, 366960, Note_on_c, 9, 38, 95
2, 367080, Note_off_c, 9, 38, 0
2, 367200, Note_on_c, 9, 42, 95
2, 367200, Note_on_c, 9, 36, 95
2, 367320, Note_off_c, 9, 42, 0
2, 367320, Note_off_c, 9, 36, 0
2, 367680, Note_on_c, 9, 42, 95
2, 367680, Note_on_c, 9, 38, 95
2, 367800, Note_off_c, 9, 42, 0
2, 367800, Note_off_c, 9, 38, 0
2, 368160, Note_on_c, 9, 42, 95
2, 368280, Note_off_c, 9, 42, 0
2, 368640, Note_on_c, 9, 46, 95
2, 368640, Note_on_c, 9, 36, 95
2, 368760, Note_off_c, 9, 46, 0
2, 368760, Note_off_c, 9, 36, 0
2, 369120, Note_on_c, 9, 42, 95
2, 369120, Note_on_c, 9, 36, 95
2, 369240, Note_off_c, 9, 42, 0
2, 369240, Note_off_c, 9, 36, 0
2, 369600, Note_on_c, 9, 42, 95
2, 369600, Note_on_c, 9, 38, 95
2, 369720, Note_off_c, 9, 42, 0
2, 369720, Note_off_c, 9, 38, 0
2, 370080, Note_on_c, 9, 36, 95
2, 370080, Note_on_c, 9, 42, 95
2, 370200, Note_off_c, 9, 36, 0
2, 370200, Note_off_c, 9, 42, 0
2, 370560, Note_on_c, 9, 46, 95
2, 370680, Note_off_c, 9, 46, 0
2, 371040, Note_on_c, 9, 42, 95
2, 371160, Note_off_c, 9, 42, 0
2, 371280, Note_on_c, 9, 36, 95
2, 371400, Note_off_c, 9, 36, 0
2, 371520, Note_on_c, 9, 42, 95
2, 371520, Note_on_c, 9, 38, 95
2, 371640, Note_off_c, 9, 42, 0
2, 371640, Note_off_c, 9, 38, 0
2, 372000, Note_on_c, 9, 42, 95
2, 372120, Note_off_c, 9, 42, 0
2, 372480, Note_on_c, 9, 46, 95
2, 372480, Note_on_c, 9, 36, 95
2, 372600, Note_off_c, 9, 46, 0
2, 372600, Note_off_c, 9, 36, 0
2, 372960, Note_on_c, 9, 36, 95
2, 372960, Note_on_c, 9, 42, 95
2, 373080, Note_off_c, 9, 36, 0
2, 373080, Note_off_c, 9, 42, 0
2, 373440, Note_on_c, 9, 38, 95
2, 373440, Note_on_c, 9, 42, 95
2, 373560, Note_off_c, 9, 38, 0
2, 373560, Note_off_c, 9, 42, 0
2, 373920, Note_on_c, 9, 36, 95
2, 373920, Note_on_c, 9, 42, 95
2, 374040, Note_off_c, 9, 36, 0
2, 374040, Note_off_c, 9, 42, 0
2, 374400, Note_on_c, 9, 36, 95
2, 374400, Note_on_c, 9, 46, 95
2, 374520, Note_off_c, 9, 36, 0
2, 374520, Note_off_c, 9, 46, 0
2, 374880, Note_on_c, 9, 42, 95
2, 375000, Note_off_c, 9, 42, 0
2, 375120, Note_on_c, 9, 36, 95
2, 375240, Note_off_c, 9, 36, 0
2, 375360, Note_on_c, 9, 42, 95
2, 375360, Note_on_c, 9, 38, 95
2, 375480, Note_off_c, 9, 42, 0
2, 375480, Note_off_c, 9, 38, 0
2, 375840, Note_on_c, 9, 42, 95
2, 375960, Note_off_c, 9, 42, 0
2, 376320, Note_on_c, 9, 36, 95
2, 376320, Note_on_c, 9, 49, 95
2, 376440, Note_off_c, 9, 36, 0
2, 376440, Note_off_c, 9, 49, 0
2, 376800, Note_on_c, 9, 36, 95
2, 376800, Note_on_c, 9, 42, 95
2, 376920, Note_off_c, 9, 36, 0
2, 376920, Note_off_c, 9, 42, 0
2, 377280, Note_on_c, 9, 42, 95
2, 377280, Note_on_c, 9, 38, 95
2, 377400, Note_off_c, 9, 42, 0
2, 377400, Note_off_c, 9, 38, 0
2, 377760, Note_on_c, 9, 42, 95
2, 377880, Note_off_c, 9, 42, 0
2, 378240, Note_on_c, 9, 46, 95
2, 378360, Note_off_c, 9, 46, 0
2, 378720, Note_on_c, 9, 42, 95
2, 378720, Note_on_c, 9, 36, 95
2, 378840, Note_off_c, 9, 42, 0
2, 378840, Note_off_c, 9, 36, 0
2, 379200, Note_on_c, 9, 38, 95
2, 379200, Note_on_c, 9, 42, 95
2, 379320, Note_off_c, 9, 38, 0
2, 379320, Note_off_c, 9, 42, 0
2, 379680, Note_on_c, 9, 42, 95
2, 379800, Note_off_c, 9, 42, 0
2, 380160, Note_on_c, 9, 46, 95
2, 380160, Note_on_c, 9, 36, 95
2, 380280, Note_off_c, 9, 46, 0
2, 380280, Note_off_c, 9, 36, 0
2, 380640, Note_on_c, 9, 36, 95
2, 380640, Note_on_c, 9, 42, 95
2, 380760, Note_off_c, 9, 36, 0
2, 380760, Note_off_c, 9, 42, 0
2, 381120, Note_on_c, 9, 42, 95
2, 381120, Note_on_c, 9, 38, 95
2, 381240, Note_off_c, 9, 42, 0
2, 381240, Note_off_c, 9, 38, 0
2, 381600, Note_on_c, 9, 36, 95
2, 381600, Note_on_c, 9, 42, 95
2, 381720, Note_off_c, 9, 36, 0
2, 381720, Note_off_c, 9, 42, 0
2, 382080, Note_on_c, 9, 46, 95
2, 382200, Note_off_c, 9, 46, 0
2, 382560, Note_on_c, 9, 42, 95
2, 382560, Note_on_c, 9, 36, 95
2, 382680, Note_off_c, 9, 42, 0
2, 382680, Note_off_c, 9, 36, 0
2, 383040, Note_on_c, 9, 42, 95
2, 383040, Note_on_c, 9, 38, 95
2, 383160, Note_off_c, 9, 42, 0
2, 383160, Note_off_c, 9, 38, 0
2, 383520, Note_on_c, 9, 42, 95
2, 383640, Note_off_c, 9, 42, 0
2, 384000, Note_on_c, 9, 49, 95
2, 384000, Note_on_c, 9, 36, 95
2, 384120, Note_off_c, 9, 49, 0
2, 384120, Note_off_c, 9, 36, 0
2, 384480, Note_on_c, 9, 42, 95
2, 384480, Note_on_c, 9, 36, 95
2, 384600, Note_off_c, 9, 42, 0
2, 384600, Note_off_c, 9, 36, 0
2, 384960, Note_on_c, 9, 42, 95
2, 384960, Note_on_c, 9, 38, 95
2, 385080, Note_off_c, 9, 42, 0
2, 385080, Note_off_c, 9, 38, 0
2, 385440, Note_on_c, 9, 36, 95
2, 385440, Note_on_c, 9, 42, 95
2, 385560, Note_off_c, 9, 36, 0
2, 385560, Note_off_c, 9, 42, 0
2, 385920, Note_on_c, 9, 46, 95
2, 386040, Note_off_c, 9, 46, 0
2, 386400, Note_on_c, 9, 36, 95
2, 386400, Note_on_c, 9, 42, 95
2, 386520, Note_off_c, 9, 36, 0
2, 386520, Note_off_c, 9, 42, 0
2, 386880, Note_on_c, 9, 42, 95
2, 386880, Note_on_c, 9, 38, 95
2, 387000, Note_off_c, 9, 42, 0
2, 387000, Note_off_c, 9, 38, 0
2, 387360, Note_on_c, 9, 42, 95
2, 387480, Note_off_c, 9, 42, 0
2, 387840, Note_on_c, 9, 46, 95
2, 387840, Note_on_c, 9, 36, 95
2, 387960, Note_off_c, 9, 46, 0
2, 387960, Note_off_c, 9, 36, 0
2, 388320, Note_on_c, 9, 36, 95
2, 388320, Note_on_c, 9, 42, 95
2, 388440, Note_off_c, 9, 36, 0
2, 388440, Note_off_c, 9, 42, 0
2, 388800, Note_on_c, 9, 38, 95
2, 388800, Note_on_c, 9, 42, 95
2, 388920, Note_off_c, 9, 38, 0
2, 388920, Note_off_c, 9, 42, 0
2, 389280, Note_on_c, 9, 42, 95
2, 389280, Note_on_c, 9, 36, 95
2, 389400, Note_off_c, 9, 42, 0
2, 389400, Note_off_c, 9, 36, 0
2, 389760, Note_on_c, 9, 36, 95
2, 389760, Note_on_c, 9, 46, 95
2, 389880, Note_off_c, 9, 36, 0
2, 389880, Note_off_c, 9, 46, 0
2, 390240, Note_on_c, 9, 42, 95
2, 390360, Note_off_c, 9, 42, 0
2, 390480, Note_on_c, 9, 36, 95
2, 390600, Note_off_c, 9, 36, 0
2, 390720, Note_on_c, 9, 42, 95
2, 390720, Note_on_c, 9, 38, 95
2, 390840, Note_off_c, 9, 42, 0
2, 390840, Note_off_c, 9, 38, 0
2, 391200, Note_on_c, 9, 42, 95
2, 391320, Note_off_c, 9, 42, 0
2, 391560, Note_on_c, 9, 38, 95
2, 391680, Note_off_c, 9, 38, 0
2, 391680, Note_on_c, 9, 36, 95
2, 391680, Note_on_c, 9, 49, 95
2, 391800, Note_off_c, 9, 36, 0
2, 391800, Note_off_c, 9, 49, 0
2, 392160, Note_on_c, 9, 36, 95
2, 392160, Note_on_c, 9, 42, 95
2, 392280, Note_off_c, 9, 36, 0
2, 392280, Note_off_c, 9, 42, 0
2, 392640, Note_on_c, 9, 42, 95
2, 392640, Note_on_c, 9, 38, 95
2, 392760, Note_off_c, 9, 42, 0
2, 392760, Note_off_c, 9, 38, 0
2, 393120, Note_on_c, 9, 38, 95
2, 393120, Note_on_c, 9, 42, 95
2, 393240, Note_off_c, 9, 38, 0
2, 393240, Note_off_c, 9, 42, 0
2, 393360, Note_on_c, 9, 36, 95
2, 393480, Note_off_c, 9, 36, 0
2, 393600, Note_on_c, 9, 46, 95
2, 393720, Note_off_c, 9, 46, 0
2, 393840, Note_on_c, 9, 38, 95
2, 393960, Note_off_c, 9, 38, 0
2, 394080, Note_on_c, 9, 42, 95
2, 394080, Note_on_c, 9, 36, 95
2, 394200, Note_off_c, 9, 42, 0
2, 394200, Note_off_c, 9, 36, 0
2, 394560, Note_on_c, 9, 38, 95
2, 394560, Note_on_c, 9, 42, 95
2, 394680, Note_off_c, 9, 38, 0
2, 394680, Note_off_c, 9, 42, 0
2, 395040, Note_on_c, 9, 42, 95
2, 395160, Note_off_c, 9, 42, 0
2, 395520, Note_on_c, 9, 46, 95
2, 395520, Note_on_c, 9, 36, 95
2, 395640, Note_off_c, 9, 46, 0
2, 395640, Note_off_c, 9, 36, 0
2, 396000, Note_on_c, 9, 36, 95
2, 396000, Note_on_c, 9, 42, 95
2, 396120, Note_off_c, 9, 36, 0
2, 396120, Note_off_c, 9, 42, 0
2, 396480, Note_on_c, 9, 42, 95
2, 396480, Note_on_c, 9, 38, 95
2, 396600, Note_off_c, 9, 42, 0
2, 396600, Note_off_c, 9, 38, 0
2, 396960, Note_on_c, 9, 36, 95
2, 396960, Note_on_c, 9, 42, 95
2, 397080, Note_off_c, 9, 36, 0
2, 397080, Note_off_c, 9, 42, 0
2, 397200, Note_on_c, 9, 38, 95
2, 397320, Note_off_c, 9, 38, 0
2, 397440, Note_on_c, 9, 46, 95
2, 397560, Note_off_c, 9, 46, 0
2, 397920, Note_on_c, 9, 42, 95
2, 397920, Note_on_c, 9, 36, 95
2, 398040, Note_off_c, 9, 42, 0
2, 398040, Note_off_c, 9, 36, 0
2, 398400, Note_on_c, 9, 42, 95
2, 398400, Note_on_c, 9, 38, 95
2, 398520, Note_off_c, 9, 42, 0
2, 398520, Note_off_c, 9, 38, 0
2, 398880, Note_on_c, 9, 42, 95
2, 399000, Note_off_c, 9, 42, 0
2, 399360, Note_on_c, 9, 36, 95
2, 399360, Note_on_c, 9, 49, 95
2, 399480, Note_off_c, 9, 36, 0
2, 399480, Note_off_c, 9, 49, 0
2, 399840, Note_on_c, 9, 42, 95
2, 399840, Note_on_c, 9, 36, 95
2, 399960, Note_off_c, 9, 42, 0
2, 399960, Note_off_c, 9, 36, 0
2, 400320, Note_on_c, 9, 42, 95
2, 400320, Note_on_c, 9, 38, 95
2, 400440, Note_off_c, 9, 42, 0
2, 400440, Note_off_c, 9, 38, 0
2, 400800, Note_on_c, 9, 36, 95
2, 400800, Note_on_c, 9, 42, 95
2, 400920, Note_off_c, 9, 36, 0
2, 400920, Note_off_c, 9, 42, 0
2, 401040, Note_on_c, 9, 38, 95
2, 401160, Note_off_c, 9, 38, 0
2, 401280, Note_on_c, 9, 46, 95
2, 401400, Note_off_c, 9, 46, 0
2, 401760, Note_on_c, 9, 42, 95
2, 401760, Note_on_c, 9, 36, 95
2, 401880, Note_off_c, 9, 42, 0
2, 401880, Note_off_c, 9, 36, 0
2, 402240, Note_on_c, 9, 42, 95
2, 402240, Note_on_c, 9, 38, 95
2, 402360, Note_off_c, 9, 42, 0
2, 402360, Note_off_c, 9, 38, 0
2, 402720, Note_on_c, 9, 42, 95
2, 402840, Note_off_c, 9, 42, 0
2, 403200, Note_on_c, 9, 46, 95
2, 403200, Note_on_c, 9, 36, 95
2, 403320, Note_off_c, 9, 46, 0
2, 403320, Note_off_c, 9, 36, 0
2, 403680, Note_on_c, 9, 36, 95
2, 403680, Note_on_c, 9, 42, 95
2, 403800, Note_off_c, 9, 36, 0
2, 403800, Note_off_c, 9, 42, 0
2, 404160, Note_on_c, 9, 38, 95
2, 404160, Note_on_c, 9, 42, 95
2, 404280, Note_off_c, 9, 38, 0
2, 404280, Note_off_c, 9, 42, 0
2, 404640, Note_on_c, 9, 42, 95
2, 404760, Note_off_c, 9, 42, 0
2, 404880, Note_on_c, 9, 38, 95
2, 405000, Note_off_c, 9, 38, 0
2, 405120, Note_on_c, 9, 46, 95
2, 405240, Note_off_c, 9, 46, 0
2, 405600, Note_on_c, 9, 38, 95
2, 405600, Note_on_c, 9, 42, 95
2, 405720, Note_off_c, 9, 38, 0
2, 405720, Note_off_c, 9, 42, 0
2, 406080, Note_on_c, 9, 42, 95
2, 406080, Note_on_c, 9, 38, 95
2, 406200, Note_off_c, 9, 42, 0
2, 406200, Note_off_c, 9, 38, 0
2, 406320, Note_on_c, 9, 38, 95
2, 406440, Note_off_c, 9, 38, 0
2, 406560, Note_on_c, 9, 38, 95
2, 406680, Note_off_c, 9, 38, 0
2, 406800, Note_on_c, 9, 38, 95
2, 406920, Note_off_c, 9, 38, 0
2, 407040, Note_on_c, 9, 46, 95
2, 407040, Note_on_c, 9, 36, 95
2, 407160, Note_off_c, 9, 46, 0
2, 407160, Note_off_c, 9, 36, 0
2, 422400, Note_on_c, 9, 41, 95
2, 422400, Note_on_c, 9, 36, 95
2, 422520, Note_off_c, 9, 41, 0
2, 422520, Note_off_c, 9, 36, 0
2, 422520, End_track
3, 0, Start_track
3, 0, MIDI_port, 1
3, 0, Title_t, "Flea - Bass"
3, 0, Program_c, 2, 33
3, 0, Note_on_c, 2, 28, 95
3, 240, Note_off_c, 2, 28, 0
3, 240, Note_on_c, 2, 28, 95
3, 480, Note_off_c, 2, 28, 0
3, 480, Note_on_c, 2, 28, 95
3, 720, Note_off_c, 2, 28, 0
3, 720, Note_on_c, 2, 28, 95
3, 960, Note_off_c, 2, 28, 0
3, 960, Note_on_c, 2, 28, 95
3, 1200, Note_off_c, 2, 28, 0
3, 1200, Note_on_c, 2, 28, 95
3, 1440, Note_off_c, 2, 28, 0
3, 1440, Note_on_c, 2, 28, 95
3, 1680, Note_off_c, 2, 28, 0
3, 1680, Note_on_c, 2, 28, 95
3, 1920, Note_off_c, 2, 28, 0
3, 1920, Note_on_c, 2, 28, 95
3, 2160, Note_off_c, 2, 28, 0
3, 2160, Note_on_c, 2, 28, 95
3, 2400, Note_off_c, 2, 28, 0
3, 2400, Note_on_c, 2, 28, 95
3, 2640, Note_off_c, 2, 28, 0
3, 2640, Note_on_c, 2, 28, 95
3, 2880, Note_off_c, 2, 28, 0
3, 2880, Note_on_c, 2, 28, 95
3, 3120, Note_off_c, 2, 28, 0
3, 3120, Note_on_c, 2, 28, 95
3, 3360, Note_off_c, 2, 28, 0
3, 3360, Note_on_c, 2, 28, 95
3, 3600, Note_off_c, 2, 28, 0
3, 3600, Note_on_c, 2, 28, 95
3, 3840, Note_off_c, 2, 28, 0
3, 3840, Note_on_c, 2, 28, 95
3, 4080, Note_off_c, 2, 28, 0
3, 4080, Note_on_c, 2, 28, 95
3, 4320, Note_off_c, 2, 28, 0
3, 4320, Note_on_c, 2, 28, 95
3, 4560, Note_off_c, 2, 28, 0
3, 4560, Note_on_c, 2, 28, 95
3, 4800, Note_off_c, 2, 28, 0
3, 4800, Note_on_c, 2, 28, 95
3, 5040, Note_off_c, 2, 28, 0
3, 5040, Note_on_c, 2, 28, 95
3, 5280, Note_off_c, 2, 28, 0
3, 5280, Note_on_c, 2, 28, 95
3, 5520, Note_off_c, 2, 28, 0
3, 5520, Note_on_c, 2, 28, 95
3, 5760, Note_off_c, 2, 28, 0
3, 5760, Note_on_c, 2, 28, 95
3, 6000, Note_off_c, 2, 28, 0
3, 6000, Note_on_c, 2, 28, 95
3, 6240, Note_off_c, 2, 28, 0
3, 6240, Note_on_c, 2, 28, 95
3, 6480, Note_off_c, 2, 28, 0
3, 6480, Note_on_c, 2, 28, 95
3, 6720, Note_off_c, 2, 28, 0
3, 6720, Note_on_c, 2, 28, 95
3, 6960, Note_off_c, 2, 28, 0
3, 6960, Note_on_c, 2, 28, 95
3, 7200, Note_off_c, 2, 28, 0
3, 7200, Note_on_c, 2, 28, 95
3, 7440, Note_off_c, 2, 28, 0
3, 7440, Note_on_c, 2, 28, 95
3, 7680, Note_off_c, 2, 28, 0
3, 7680, Note_on_c, 2, 28, 95
3, 7920, Note_off_c, 2, 28, 0
3, 7920, Note_on_c, 2, 28, 95
3, 8160, Note_off_c, 2, 28, 0
3, 8160, Note_on_c, 2, 28, 95
3, 8400, Note_off_c, 2, 28, 0
3, 8400, Note_on_c, 2, 28, 95
3, 8640, Note_off_c, 2, 28, 0
3, 8640, Note_on_c, 2, 28, 95
3, 8880, Note_off_c, 2, 28, 0
3, 8880, Note_on_c, 2, 28, 95
3, 9120, Note_off_c, 2, 28, 0
3, 9120, Note_on_c, 2, 28, 95
3, 9360, Note_off_c, 2, 28, 0
3, 9360, Note_on_c, 2, 28, 95
3, 9600, Note_off_c, 2, 28, 0
3, 9600, Note_on_c, 2, 28, 95
3, 9840, Note_off_c, 2, 28, 0
3, 9840, Note_on_c, 2, 28, 95
3, 10080, Note_off_c, 2, 28, 0
3, 10080, Note_on_c, 2, 28, 95
3, 10320, Note_off_c, 2, 28, 0
3, 10320, Note_on_c, 2, 28, 95
3, 10560, Note_off_c, 2, 28, 0
3, 10560, Note_on_c, 2, 28, 95
3, 10800, Note_off_c, 2, 28, 0
3, 10800, Note_on_c, 2, 28, 95
3, 11040, Note_off_c, 2, 28, 0
3, 11040, Note_on_c, 2, 28, 95
3, 11280, Note_off_c, 2, 28, 0
3, 11280, Note_on_c, 2, 28, 95
3, 11520, Note_off_c, 2, 28, 0
3, 11520, Note_on_c, 2, 28, 95
3, 11760, Note_off_c, 2, 28, 0
3, 11760, Note_on_c, 2, 28, 95
3, 12000, Note_off_c, 2, 28, 0
3, 12000, Note_on_c, 2, 28, 95
3, 12240, Note_off_c, 2, 28, 0
3, 12240, Note_on_c, 2, 28, 95
3, 12480, Note_off_c, 2, 28, 0
3, 12480, Note_on_c, 2, 28, 95
3, 12720, Note_off_c, 2, 28, 0
3, 12720, Note_on_c, 2, 28, 95
3, 12960, Note_off_c, 2, 28, 0
3, 12960, Note_on_c, 2, 28, 95
3, 13200, Note_off_c, 2, 28, 0
3, 13200, Note_on_c, 2, 28, 95
3, 13440, Note_off_c, 2, 28, 0
3, 13440, Note_on_c, 2, 28, 95
3, 13680, Note_off_c, 2, 28, 0
3, 13680, Note_on_c, 2, 28, 95
3, 13920, Note_off_c, 2, 28, 0
3, 13920, Note_on_c, 2, 28, 95
3, 14160, Note_off_c, 2, 28, 0
3, 14160, Note_on_c, 2, 28, 95
3, 14400, Note_off_c, 2, 28, 0
3, 14400, Note_on_c, 2, 28, 95
3, 14640, Note_off_c, 2, 28, 0
3, 14640, Note_on_c, 2, 28, 95
3, 14880, Note_off_c, 2, 28, 0
3, 14880, Note_on_c, 2, 28, 95
3, 15120, Note_off_c, 2, 28, 0
3, 15120, Note_on_c, 2, 28, 95
3, 15360, Note_off_c, 2, 28, 0
3, 15360, Note_on_c, 2, 28, 95
3, 15600, Note_off_c, 2, 28, 0
3, 15600, Note_on_c, 2, 28, 95
3, 15840, Note_off_c, 2, 28, 0
3, 15840, Note_on_c, 2, 28, 95
3, 16080, Note_off_c, 2, 28, 0
3, 16080, Note_on_c, 2, 28, 95
3, 16320, Note_off_c, 2, 28, 0
3, 16320, Note_on_c, 2, 28, 95
3, 16560, Note_off_c, 2, 28, 0
3, 16560, Note_on_c, 2, 28, 95
3, 16800, Note_off_c, 2, 28, 0
3, 16800, Note_on_c, 2, 28, 95
3, 17040, Note_off_c, 2, 28, 0
3, 17040, Note_on_c, 2, 28, 95
3, 17280, Note_off_c, 2, 28, 0
3, 17280, Note_on_c, 2, 28, 95
3, 17520, Note_off_c, 2, 28, 0
3, 17520, Note_on_c, 2, 28, 95
3, 17760, Note_off_c, 2, 28, 0
3, 17760, Note_on_c, 2, 28, 95
3, 18000, Note_off_c, 2, 28, 0
3, 18000, Note_on_c, 2, 28, 95
3, 18240, Note_off_c, 2, 28, 0
3, 18240, Note_on_c, 2, 28, 95
3, 18480, Note_off_c, 2, 28, 0
3, 18480, Note_on_c, 2, 28, 95
3, 18720, Note_off_c, 2, 28, 0
3, 18720, Note_on_c, 2, 28, 95
3, 18960, Note_off_c, 2, 28, 0
3, 18960, Note_on_c, 2, 28, 95
3, 19200, Note_off_c, 2, 28, 0
3, 19200, Note_on_c, 2, 28, 95
3, 19440, Note_off_c, 2, 28, 0
3, 19440, Note_on_c, 2, 28, 95
3, 19680, Note_off_c, 2, 28, 0
3, 19680, Note_on_c, 2, 28, 95
3, 19920, Note_off_c, 2, 28, 0
3, 19920, Note_on_c, 2, 28, 95
3, 20160, Note_off_c, 2, 28, 0
3, 20160, Note_on_c, 2, 28, 95
3, 20400, Note_off_c, 2, 28, 0
3, 20400, Note_on_c, 2, 28, 95
3, 20640, Note_off_c, 2, 28, 0
3, 20640, Note_on_c, 2, 28, 95
3, 20880, Note_off_c, 2, 28, 0
3, 20880, Note_on_c, 2, 28, 95
3, 21360, Note_off_c, 2, 28, 0
3, 21360, Program_c, 1, 33
3, 21360, Note_on_c, 1, 57, 95
3, 21360, Control_c, 1, 101, 0
3, 21360, Control_c, 1, 100, 0
3, 21360, Control_c, 1, 6, 6
3, 21360, Control_c, 1, 38, 0
3, 21360, Pitch_bend_c, 1, 8192
3, 21408, Pitch_bend_c, 1, 8704
3, 21456, Pitch_bend_c, 1, 9216
3, 21480, Pitch_bend_c, 1, 9472
3, 21528, Pitch_bend_c, 1, 9472
3, 21576, Pitch_bend_c, 1, 9472
3, 21600, Pitch_bend_c, 1, 9472
3, 21648, Pitch_bend_c, 1, 8960
3, 21696, Pitch_bend_c, 1, 8448
3, 21720, Pitch_bend_c, 1, 8192
3, 21768, Pitch_bend_c, 1, 8192
3, 21816, Pitch_bend_c, 1, 8192
3, 21840, Note_off_c, 1, 57, 0
3, 21840, Pitch_bend_c, 1, 8192
3, 21840, Pitch_bend_c, 1, 8064
3, 21840, Control_c, 1, 101, 127
3, 21840, Control_c, 1, 10, 127
3, 21840, Note_on_c, 2, 55, 95
3, 22080, Note_off_c, 2, 55, 0
3, 22080, Note_on_c, 2, 57, 95
3, 22200, Note_off_c, 2, 57, 0
3, 22200, Note_on_c, 2, 55, 95
3, 22320, Note_off_c, 2, 55, 0
3, 22320, Note_on_c, 2, 52, 95
3, 22560, Note_off_c, 2, 52, 0
3, 22560, Note_on_c, 2, 50, 95
3, 23040, Note_off_c, 2, 50, 0
3, 23040, Note_on_c, 2, 28, 95
3, 23280, Note_off_c, 2, 28, 0
3, 23280, Note_on_c, 2, 28, 95
3, 23520, Note_off_c, 2, 28, 0
3, 23520, Note_on_c, 2, 28, 95
3, 23760, Note_off_c, 2, 28, 0
3, 23760, Note_on_c, 2, 28, 95
3, 24000, Note_off_c, 2, 28, 0
3, 24000, Note_on_c, 2, 28, 95
3, 24240, Note_off_c, 2, 28, 0
3, 24240, Note_on_c, 2, 28, 95
3, 24480, Note_off_c, 2, 28, 0
3, 24480, Note_on_c, 2, 28, 95
3, 24720, Note_off_c, 2, 28, 0
3, 24720, Note_on_c, 2, 28, 95
3, 24960, Note_off_c, 2, 28, 0
3, 24960, Note_on_c, 2, 28, 95
3, 25200, Note_off_c, 2, 28, 0
3, 25200, Note_on_c, 2, 28, 95
3, 25440, Note_off_c, 2, 28, 0
3, 25440, Note_on_c, 2, 28, 95
3, 25680, Note_off_c, 2, 28, 0
3, 25680, Note_on_c, 2, 28, 95
3, 25920, Note_off_c, 2, 28, 0
3, 25920, Note_on_c, 2, 28, 95
3, 26160, Note_off_c, 2, 28, 0
3, 26160, Note_on_c, 2, 28, 95
3, 26400, Note_off_c, 2, 28, 0
3, 26400, Note_on_c, 2, 28, 95
3, 26640, Note_off_c, 2, 28, 0
3, 26640, Note_on_c, 2, 28, 95
3, 26880, Note_off_c, 2, 28, 0
3, 26880, Note_on_c, 2, 28, 95
3, 27120, Note_off_c, 2, 28, 0
3, 27120, Note_on_c, 2, 28, 95
3, 27360, Note_off_c, 2, 28, 0
3, 27360, Note_on_c, 2, 28, 95
3, 27600, Note_off_c, 2, 28, 0
3, 27600, Note_on_c, 2, 28, 95
3, 27840, Note_off_c, 2, 28, 0
3, 27840, Note_on_c, 2, 28, 95
3, 28080, Note_off_c, 2, 28, 0
3, 28080, Note_on_c, 2, 28, 95
3, 28320, Note_off_c, 2, 28, 0
3, 28320, Note_on_c, 2, 28, 95
3, 28560, Note_off_c, 2, 28, 0
3, 28560, Note_on_c, 2, 28, 95
3, 28800, Note_off_c, 2, 28, 0
3, 28800, Note_on_c, 2, 28, 95
3, 29040, Note_off_c, 2, 28, 0
3, 29040, Note_on_c, 2, 28, 95
3, 29280, Note_off_c, 2, 28, 0
3, 29280, Note_on_c, 2, 28, 95
3, 29520, Note_off_c, 2, 28, 0
3, 29520, Note_on_c, 2, 28, 95
3, 29760, Note_off_c, 2, 28, 0
3, 29760, Note_on_c, 2, 28, 95
3, 30000, Note_off_c, 2, 28, 0
3, 30000, Note_on_c, 2, 28, 95
3, 30240, Note_off_c, 2, 28, 0
3, 30240, Note_on_c, 2, 28, 95
3, 30480, Note_off_c, 2, 28, 0
3, 30480, Note_on_c, 2, 28, 95
3, 30720, Note_off_c, 2, 28, 0
3, 30720, Note_on_c, 2, 28, 95
3, 30960, Note_off_c, 2, 28, 0
3, 30960, Note_on_c, 2, 28, 95
3, 31200, Note_off_c, 2, 28, 0
3, 31200, Note_on_c, 2, 28, 95
3, 31440, Note_off_c, 2, 28, 0
3, 31440, Note_on_c, 2, 28, 95
3, 31680, Note_off_c, 2, 28, 0
3, 31680, Note_on_c, 2, 28, 95
3, 31920, Note_off_c, 2, 28, 0
3, 31920, Note_on_c, 2, 28, 95
3, 32160, Note_off_c, 2, 28, 0
3, 32160, Note_on_c, 2, 28, 95
3, 32400, Note_off_c, 2, 28, 0
3, 32400, Note_on_c, 2, 28, 95
3, 32640, Note_off_c, 2, 28, 0
3, 32640, Note_on_c, 2, 28, 95
3, 32880, Note_off_c, 2, 28, 0
3, 32880, Note_on_c, 2, 28, 95
3, 33120, Note_off_c, 2, 28, 0
3, 33120, Note_on_c, 2, 28, 95
3, 33360, Note_off_c, 2, 28, 0
3, 33360, Note_on_c, 2, 28, 95
3, 33600, Note_off_c, 2, 28, 0
3, 33600, Note_on_c, 2, 28, 95
3, 33840, Note_off_c, 2, 28, 0
3, 33840, Note_on_c, 2, 28, 95
3, 34080, Note_off_c, 2, 28, 0
3, 34080, Note_on_c, 2, 28, 95
3, 34320, Note_off_c, 2, 28, 0
3, 34320, Note_on_c, 2, 28, 95
3, 34560, Note_off_c, 2, 28, 0
3, 34560, Note_on_c, 2, 28, 95
3, 34800, Note_off_c, 2, 28, 0
3, 34800, Note_on_c, 2, 28, 95
3, 35040, Note_off_c, 2, 28, 0
3, 35040, Note_on_c, 2, 28, 95
3, 35280, Note_off_c, 2, 28, 0
3, 35280, Note_on_c, 2, 28, 95
3, 35520, Note_off_c, 2, 28, 0
3, 35520, Note_on_c, 2, 28, 95
3, 35760, Note_off_c, 2, 28, 0
3, 35760, Note_on_c, 2, 28, 95
3, 36000, Note_off_c, 2, 28, 0
3, 36000, Note_on_c, 2, 28, 95
3, 36240, Note_off_c, 2, 28, 0
3, 36240, Note_on_c, 2, 28, 95
3, 36480, Note_off_c, 2, 28, 0
3, 36480, Note_on_c, 2, 28, 95
3, 36720, Note_off_c, 2, 28, 0
3, 36720, Note_on_c, 2, 28, 95
3, 36960, Note_off_c, 2, 28, 0
3, 36960, Note_on_c, 2, 28, 95
3, 37200, Note_off_c, 2, 28, 0
3, 37200, Note_on_c, 2, 28, 95
3, 37440, Note_off_c, 2, 28, 0
3, 37440, Note_on_c, 2, 28, 95
3, 37680, Note_off_c, 2, 28, 0
3, 37680, Note_on_c, 2, 28, 95
3, 37920, Note_off_c, 2, 28, 0
3, 37920, Note_on_c, 2, 28, 95
3, 38160, Note_off_c, 2, 28, 0
3, 38160, Note_on_c, 2, 28, 95
3, 38400, Note_off_c, 2, 28, 0
3, 38400, Note_on_c, 2, 28, 95
3, 38640, Note_off_c, 2, 28, 0
3, 38640, Note_on_c, 2, 28, 95
3, 38880, Note_off_c, 2, 28, 0
3, 38880, Note_on_c, 2, 28, 95
3, 39120, Note_off_c, 2, 28, 0
3, 39120, Note_on_c, 2, 28, 95
3, 39360, Note_off_c, 2, 28, 0
3, 39360, Note_on_c, 2, 28, 95
3, 39600, Note_off_c, 2, 28, 0
3, 39600, Note_on_c, 2, 28, 95
3, 39840, Note_off_c, 2, 28, 0
3, 39840, Note_on_c, 2, 28, 95
3, 40080, Note_off_c, 2, 28, 0
3, 40080, Note_on_c, 2, 28, 95
3, 40320, Note_off_c, 2, 28, 0
3, 40320, Note_on_c, 2, 28, 95
3, 40560, Note_off_c, 2, 28, 0
3, 40560, Note_on_c, 2, 28, 95
3, 40800, Note_off_c, 2, 28, 0
3, 40800, Note_on_c, 2, 28, 95
3, 41040, Note_off_c, 2, 28, 0
3, 41040, Note_on_c, 2, 28, 95
3, 41280, Note_off_c, 2, 28, 0
3, 41280, Note_on_c, 2, 28, 95
3, 41520, Note_off_c, 2, 28, 0
3, 41520, Note_on_c, 2, 28, 95
3, 41760, Note_off_c, 2, 28, 0
3, 41760, Note_on_c, 2, 28, 95
3, 42000, Note_off_c, 2, 28, 0
3, 42000, Note_on_c, 2, 28, 95
3, 42240, Note_off_c, 2, 28, 0
3, 42240, Note_on_c, 2, 28, 95
3, 42480, Note_off_c, 2, 28, 0
3, 42480, Note_on_c, 2, 28, 95
3, 42720, Note_off_c, 2, 28, 0
3, 42720, Note_on_c, 2, 28, 95
3, 42960, Note_off_c, 2, 28, 0
3, 42960, Note_on_c, 2, 28, 95
3, 43200, Note_off_c, 2, 28, 0
3, 43200, Note_on_c, 2, 28, 95
3, 43440, Note_off_c, 2, 28, 0
3, 43440, Note_on_c, 2, 28, 95
3, 43680, Note_off_c, 2, 28, 0
3, 43680, Note_on_c, 2, 28, 95
3, 43920, Note_off_c, 2, 28, 0
3, 43920, Note_on_c, 2, 28, 95
3, 44160, Note_off_c, 2, 28, 0
3, 44160, Note_on_c, 2, 28, 95
3, 44400, Note_off_c, 2, 28, 0
3, 44400, Note_on_c, 2, 28, 95
3, 44640, Note_off_c, 2, 28, 0
3, 44640, Note_on_c, 2, 28, 95
3, 44880, Note_off_c, 2, 28, 0
3, 44880, Note_on_c, 2, 28, 95
3, 45120, Note_off_c, 2, 28, 0
3, 45120, Note_on_c, 2, 28, 95
3, 45360, Note_off_c, 2, 28, 0
3, 45360, Note_on_c, 2, 28, 95
3, 45600, Note_off_c, 2, 28, 0
3, 45600, Note_on_c, 2, 28, 95
3, 45840, Note_off_c, 2, 28, 0
3, 45840, Note_on_c, 2, 28, 95
3, 46080, Note_off_c, 2, 28, 0
3, 46080, Note_on_c, 2, 28, 95
3, 46320, Note_off_c, 2, 28, 0
3, 46320, Note_on_c, 2, 28, 95
3, 46560, Note_off_c, 2, 28, 0
3, 46560, Note_on_c, 2, 28, 95
3, 46800, Note_off_c, 2, 28, 0
3, 46800, Note_on_c, 2, 28, 95
3, 47040, Note_off_c, 2, 28, 0
3, 47040, Note_on_c, 2, 28, 95
3, 47280, Note_off_c, 2, 28, 0
3, 47280, Note_on_c, 2, 28, 95
3, 47520, Note_off_c, 2, 28, 0
3, 47520, Note_on_c, 2, 28, 95
3, 47760, Note_off_c, 2, 28, 0
3, 47760, Note_on_c, 2, 28, 95
3, 48000, Note_off_c, 2, 28, 0
3, 48000, Note_on_c, 2, 28, 95
3, 48240, Note_off_c, 2, 28, 0
3, 48240, Note_on_c, 2, 28, 95
3, 48480, Note_off_c, 2, 28, 0
3, 48480, Note_on_c, 2, 28, 95
3, 48720, Note_off_c, 2, 28, 0
3, 48720, Note_on_c, 2, 28, 95
3, 48960, Note_off_c, 2, 28, 0
3, 48960, Note_on_c, 2, 28, 95
3, 49200, Note_off_c, 2, 28, 0
3, 49200, Note_on_c, 2, 28, 95
3, 49440, Note_off_c, 2, 28, 0
3, 49440, Note_on_c, 2, 28, 95
3, 49680, Note_off_c, 2, 28, 0
3, 49680, Note_on_c, 2, 28, 95
3, 49920, Note_off_c, 2, 28, 0
3, 49920, Note_on_c, 2, 28, 95
3, 50160, Note_off_c, 2, 28, 0
3, 50160, Note_on_c, 2, 28, 95
3, 50400, Note_off_c, 2, 28, 0
3, 50400, Note_on_c, 2, 28, 95
3, 50640, Note_off_c, 2, 28, 0
3, 50640, Note_on_c, 2, 28, 95
3, 50880, Note_off_c, 2, 28, 0
3, 50880, Note_on_c, 2, 28, 95
3, 51120, Note_off_c, 2, 28, 0
3, 51120, Note_on_c, 2, 28, 95
3, 51360, Note_off_c, 2, 28, 0
3, 51360, Note_on_c, 2, 28, 95
3, 51600, Note_off_c, 2, 28, 0
3, 51600, Note_on_c, 2, 28, 95
3, 51840, Note_off_c, 2, 28, 0
3, 51840, Note_on_c, 2, 28, 95
3, 52080, Note_off_c, 2, 28, 0
3, 52080, Note_on_c, 2, 28, 95
3, 52320, Note_off_c, 2, 28, 0
3, 52320, Note_on_c, 2, 28, 95
3, 52560, Note_off_c, 2, 28, 0
3, 52560, Note_on_c, 2, 28, 95
3, 52800, Note_off_c, 2, 28, 0
3, 52800, Note_on_c, 2, 28, 95
3, 53040, Note_off_c, 2, 28, 0
3, 53040, Note_on_c, 2, 28, 95
3, 53280, Note_off_c, 2, 28, 0
3, 53280, Note_on_c, 2, 28, 95
3, 53520, Note_off_c, 2, 28, 0
3, 53520, Note_on_c, 2, 28, 95
3, 53760, Note_off_c, 2, 28, 0
3, 53760, Note_on_c, 2, 28, 95
3, 54000, Note_off_c, 2, 28, 0
3, 54000, Note_on_c, 2, 28, 95
3, 54240, Note_off_c, 2, 28, 0
3, 54240, Note_on_c, 2, 28, 95
3, 54480, Note_off_c, 2, 28, 0
3, 54480, Note_on_c, 2, 28, 95
3, 54720, Note_off_c, 2, 28, 0
3, 54720, Note_on_c, 2, 28, 95
3, 54960, Note_off_c, 2, 28, 0
3, 54960, Note_on_c, 2, 28, 95
3, 55200, Note_off_c, 2, 28, 0
3, 55200, Note_on_c, 2, 28, 95
3, 55440, Note_off_c, 2, 28, 0
3, 55440, Note_on_c, 2, 28, 95
3, 55680, Note_off_c, 2, 28, 0
3, 55680, Note_on_c, 2, 28, 95
3, 55920, Note_off_c, 2, 28, 0
3, 55920, Note_on_c, 2, 28, 95
3, 56160, Note_off_c, 2, 28, 0
3, 56160, Note_on_c, 2, 28, 95
3, 56400, Note_off_c, 2, 28, 0
3, 56400, Note_on_c, 2, 28, 95
3, 56640, Note_off_c, 2, 28, 0
3, 56640, Note_on_c, 2, 28, 95
3, 56880, Note_off_c, 2, 28, 0
3, 56880, Note_on_c, 2, 28, 95
3, 57120, Note_off_c, 2, 28, 0
3, 57120, Note_on_c, 2, 28, 95
3, 57360, Note_off_c, 2, 28, 0
3, 57360, Note_on_c, 2, 28, 95
3, 57600, Note_off_c, 2, 28, 0
3, 57600, Note_on_c, 2, 28, 95
3, 57840, Note_off_c, 2, 28, 0
3, 57840, Note_on_c, 2, 28, 95
3, 58080, Note_off_c, 2, 28, 0
3, 58080, Note_on_c, 2, 28, 95
3, 58320, Note_off_c, 2, 28, 0
3, 58320, Note_on_c, 2, 28, 95
3, 58560, Note_off_c, 2, 28, 0
3, 58560, Note_on_c, 2, 28, 95
3, 58800, Note_off_c, 2, 28, 0
3, 58800, Note_on_c, 2, 28, 95
3, 59040, Note_off_c, 2, 28, 0
3, 59040, Note_on_c, 2, 28, 95
3, 59280, Note_off_c, 2, 28, 0
3, 59280, Note_on_c, 2, 28, 95
3, 59520, Note_off_c, 2, 28, 0
3, 59520, Note_on_c, 2, 28, 95
3, 59760, Note_off_c, 2, 28, 0
3, 59760, Note_on_c, 2, 28, 95
3, 60000, Note_off_c, 2, 28, 0
3, 60000, Note_on_c, 2, 28, 95
3, 60240, Note_off_c, 2, 28, 0
3, 60240, Note_on_c, 2, 28, 95
3, 60480, Note_off_c, 2, 28, 0
3, 60480, Note_on_c, 2, 28, 95
3, 60720, Note_off_c, 2, 28, 0
3, 60720, Note_on_c, 2, 28, 95
3, 60960, Note_off_c, 2, 28, 0
3, 60960, Note_on_c, 2, 28, 95
3, 61200, Note_off_c, 2, 28, 0
3, 61200, Note_on_c, 2, 28, 95
3, 61440, Note_off_c, 2, 28, 0
3, 61440, Note_on_c, 2, 28, 95
3, 61680, Note_off_c, 2, 28, 0
3, 61680, Note_on_c, 2, 28, 95
3, 61920, Note_off_c, 2, 28, 0
3, 61920, Note_on_c, 2, 28, 95
3, 62160, Note_off_c, 2, 28, 0
3, 62160, Note_on_c, 2, 28, 95
3, 62400, Note_off_c, 2, 28, 0
3, 62400, Note_on_c, 2, 28, 95
3, 62640, Note_off_c, 2, 28, 0
3, 62640, Note_on_c, 2, 28, 95
3, 62880, Note_off_c, 2, 28, 0
3, 62880, Note_on_c, 2, 28, 95
3, 63120, Note_off_c, 2, 28, 0
3, 63120, Note_on_c, 2, 28, 95
3, 63360, Note_off_c, 2, 28, 0
3, 63360, Note_on_c, 2, 28, 95
3, 63600, Note_off_c, 2, 28, 0
3, 63600, Note_on_c, 2, 28, 95
3, 63840, Note_off_c, 2, 28, 0
3, 63840, Note_on_c, 2, 28, 95
3, 64080, Note_off_c, 2, 28, 0
3, 64080, Note_on_c, 2, 28, 95
3, 64320, Note_off_c, 2, 28, 0
3, 64320, Note_on_c, 2, 28, 95
3, 64560, Note_off_c, 2, 28, 0
3, 64560, Note_on_c, 2, 28, 95
3, 64800, Note_off_c, 2, 28, 0
3, 64800, Note_on_c, 2, 28, 95
3, 65040, Note_off_c, 2, 28, 0
3, 65040, Note_on_c, 2, 28, 95
3, 65280, Note_off_c, 2, 28, 0
3, 65280, Note_on_c, 2, 28, 95
3, 65520, Note_off_c, 2, 28, 0
3, 65520, Note_on_c, 2, 28, 95
3, 65760, Note_off_c, 2, 28, 0
3, 65760, Note_on_c, 2, 28, 95
3, 66000, Note_off_c, 2, 28, 0
3, 66000, Note_on_c, 2, 28, 95
3, 66240, Note_off_c, 2, 28, 0
3, 66240, Note_on_c, 2, 28, 95
3, 66480, Note_off_c, 2, 28, 0
3, 66480, Note_on_c, 2, 28, 95
3, 66720, Note_off_c, 2, 28, 0
3, 66720, Note_on_c, 2, 28, 95
3, 66960, Note_off_c, 2, 28, 0
3, 66960, Note_on_c, 2, 28, 95
3, 67200, Note_off_c, 2, 28, 0
3, 67200, Note_on_c, 2, 28, 95
3, 67440, Note_off_c, 2, 28, 0
3, 67440, Note_on_c, 2, 28, 95
3, 67680, Note_off_c, 2, 28, 0
3, 67680, Note_on_c, 2, 28, 95
3, 67920, Note_off_c, 2, 28, 0
3, 67920, Note_on_c, 2, 28, 95
3, 68160, Note_off_c, 2, 28, 0
3, 68160, Note_on_c, 2, 28, 95
3, 68400, Note_off_c, 2, 28, 0
3, 68400, Note_on_c, 2, 28, 95
3, 68640, Note_off_c, 2, 28, 0
3, 68640, Note_on_c, 2, 28, 95
3, 68880, Note_off_c, 2, 28, 0
3, 68880, Note_on_c, 2, 28, 95
3, 69120, Note_off_c, 2, 28, 0
3, 69120, Note_on_c, 2, 28, 95
3, 69600, Note_off_c, 2, 28, 0
3, 99840, Note_on_c, 2, 40, 95
3, 100320, Note_off_c, 2, 40, 0
3, 100320, Note_on_c, 2, 50, 95
3, 100560, Note_off_c, 2, 50, 0
3, 100800, Note_on_c, 2, 52, 95
3, 101280, Note_off_c, 2, 52, 0
3, 101280, Note_on_c, 2, 40, 95
3, 101760, Note_off_c, 2, 40, 0
3, 101760, Note_on_c, 2, 40, 85
3, 101800, Note_off_c, 2, 40, 0
3, 102000, Note_on_c, 2, 50, 95
3, 102240, Note_off_c, 2, 50, 0
3, 102240, Note_on_c, 2, 33, 85
3, 102280, Note_off_c, 2, 33, 0
3, 102480, Note_on_c, 2, 52, 95
3, 102720, Note_off_c, 2, 52, 0
3, 102720, Note_on_c, 2, 33, 85
3, 102760, Note_off_c, 2, 33, 0
3, 102960, Note_on_c, 2, 52, 95
3, 103200, Note_off_c, 2, 52, 0
3, 103200, Note_on_c, 2, 40, 95
3, 103680, Note_off_c, 2, 40, 0
3, 103680, Note_on_c, 2, 38, 95
3, 104160, Note_off_c, 2, 38, 0
3, 104160, Note_on_c, 2, 50, 95
3, 104400, Note_off_c, 2, 50, 0
3, 104640, Note_on_c, 2, 52, 95
3, 105120, Note_off_c, 2, 52, 0
3, 105120, Note_on_c, 2, 38, 95
3, 105600, Note_off_c, 2, 38, 0
3, 105600, Note_on_c, 2, 38, 85
3, 105640, Note_off_c, 2, 38, 0
3, 105840, Note_on_c, 2, 50, 95
3, 106080, Note_off_c, 2, 50, 0
3, 106080, Note_on_c, 2, 33, 85
3, 106120, Note_off_c, 2, 33, 0
3, 106320, Note_on_c, 2, 52, 95
3, 106560, Note_off_c, 2, 52, 0
3, 106560, Note_on_c, 2, 33, 85
3, 106600, Note_off_c, 2, 33, 0
3, 106800, Note_on_c, 2, 52, 95
3, 107040, Note_off_c, 2, 52, 0
3, 107040, Note_on_c, 2, 33, 95
3, 107520, Note_off_c, 2, 33, 0
3, 107520, Note_on_c, 2, 35, 95
3, 108000, Note_off_c, 2, 35, 0
3, 108000, Note_on_c, 2, 47, 95
3, 108240, Note_off_c, 2, 47, 0
3, 108480, Note_on_c, 2, 47, 95
3, 108960, Note_off_c, 2, 47, 0
3, 108960, Note_on_c, 2, 35, 95
3, 109440, Note_off_c, 2, 35, 0
3, 109440, Note_on_c, 2, 35, 85
3, 109480, Note_off_c, 2, 35, 0
3, 109680, Note_on_c, 2, 47, 95
3, 109920, Note_off_c, 2, 47, 0
3, 109920, Note_on_c, 2, 28, 85
3, 109960, Note_off_c, 2, 28, 0
3, 110160, Note_on_c, 2, 47, 95
3, 110400, Note_off_c, 2, 47, 0
3, 110400, Note_on_c, 2, 28, 85
3, 110440, Note_off_c, 2, 28, 0
3, 110640, Note_on_c, 2, 47, 95
3, 110880, Note_off_c, 2, 47, 0
3, 110880, Note_on_c, 2, 35, 95
3, 111360, Note_off_c, 2, 35, 0
3, 111360, Note_on_c, 2, 36, 95
3, 111840, Note_off_c, 2, 36, 0
3, 111840, Note_on_c, 2, 48, 95
3, 112080, Note_off_c, 2, 48, 0
3, 112320, Note_on_c, 2, 48, 95
3, 112800, Note_off_c, 2, 48, 0
3, 112800, Note_on_c, 2, 36, 95
3, 113280, Note_off_c, 2, 36, 0
3, 113280, Note_on_c, 2, 36, 85
3, 113320, Note_off_c, 2, 36, 0
3, 113520, Note_on_c, 2, 43, 95
3, 113760, Note_off_c, 2, 43, 0
3, 113760, Note_on_c, 2, 28, 85
3, 113800, Note_off_c, 2, 28, 0
3, 114000, Note_on_c, 2, 42, 95
3, 114240, Note_off_c, 2, 42, 0
3, 114240, Note_on_c, 2, 28, 85
3, 114280, Note_off_c, 2, 28, 0
3, 114480, Note_on_c, 2, 40, 95
3, 114720, Note_off_c, 2, 40, 0
3, 114720, Note_on_c, 2, 38, 95
3, 115200, Note_off_c, 2, 38, 0
3, 115200, Note_on_c, 2, 40, 95
3, 115680, Note_off_c, 2, 40, 0
3, 115680, Note_on_c, 2, 50, 95
3, 115920, Note_off_c, 2, 50, 0
3, 116160, Note_on_c, 2, 52, 95
3, 116640, Note_off_c, 2, 52, 0
3, 116640, Note_on_c, 2, 40, 95
3, 117120, Note_off_c, 2, 40, 0
3, 117120, Note_on_c, 2, 40, 85
3, 117160, Note_off_c, 2, 40, 0
3, 117360, Note_on_c, 2, 50, 95
3, 117600, Note_off_c, 2, 50, 0
3, 117600, Note_on_c, 2, 33, 85
3, 117640, Note_off_c, 2, 33, 0
3, 117840, Note_on_c, 2, 52, 95
3, 118080, Note_off_c, 2, 52, 0
3, 118080, Note_on_c, 2, 33, 85
3, 118120, Note_off_c, 2, 33, 0
3, 118320, Note_on_c, 2, 52, 95
3, 118560, Note_off_c, 2, 52, 0
3, 118560, Note_on_c, 2, 40, 95
3, 119040, Note_off_c, 2, 40, 0
3, 119040, Note_on_c, 2, 38, 95
3, 119520, Note_off_c, 2, 38, 0
3, 119520, Note_on_c, 2, 50, 95
3, 119760, Note_off_c, 2, 50, 0
3, 120000, Note_on_c, 2, 52, 95
3, 120480, Note_off_c, 2, 52, 0
3, 120480, Note_on_c, 2, 38, 95
3, 120960, Note_off_c, 2, 38, 0
3, 120960, Note_on_c, 2, 38, 85
3, 121000, Note_off_c, 2, 38, 0
3, 121200, Note_on_c, 2, 50, 95
3, 121440, Note_off_c, 2, 50, 0
3, 121440, Note_on_c, 2, 33, 85
3, 121480, Note_off_c, 2, 33, 0
3, 121680, Note_on_c, 2, 52, 95
3, 121920, Note_off_c, 2, 52, 0
3, 121920, Note_on_c, 2, 33, 85
3, 121960, Note_off_c, 2, 33, 0
3, 122160, Note_on_c, 2, 52, 95
3, 122400, Note_off_c, 2, 52, 0
3, 122400, Note_on_c, 2, 33, 95
3, 122880, Note_off_c, 2, 33, 0
3, 122880, Note_on_c, 2, 35, 95
3, 123360, Note_off_c, 2, 35, 0
3, 123360, Note_on_c, 2, 47, 95
3, 123600, Note_off_c, 2, 47, 0
3, 123840, Note_on_c, 2, 47, 95
3, 124320, Note_off_c, 2, 47, 0
3, 124320, Note_on_c, 2, 35, 95
3, 124800, Note_off_c, 2, 35, 0
3, 124800, Note_on_c, 2, 35, 85
3, 124840, Note_off_c, 2, 35, 0
3, 125040, Note_on_c, 2, 47, 95
3, 125280, Note_off_c, 2, 47, 0
3, 125280, Note_on_c, 2, 28, 85
3, 125320, Note_off_c, 2, 28, 0
3, 125520, Note_on_c, 2, 47, 95
3, 125760, Note_off_c, 2, 47, 0
3, 125760, Note_on_c, 2, 28, 85
3, 125800, Note_off_c, 2, 28, 0
3, 126000, Note_on_c, 2, 47, 95
3, 126240, Note_off_c, 2, 47, 0
3, 126240, Note_on_c, 2, 35, 95
3, 126720, Note_off_c, 2, 35, 0
3, 126720, Note_on_c, 2, 36, 95
3, 127200, Note_off_c, 2, 36, 0
3, 127200, Note_on_c, 2, 48, 95
3, 127440, Note_off_c, 2, 48, 0
3, 127680, Note_on_c, 2, 48, 95
3, 128160, Note_off_c, 2, 48, 0
3, 128160, Note_on_c, 2, 36, 95
3, 128640, Note_off_c, 2, 36, 0
3, 128640, Note_on_c, 2, 36, 85
3, 128680, Note_off_c, 2, 36, 0
3, 128880, Note_on_c, 2, 48, 95
3, 129120, Note_off_c, 2, 48, 0
3, 129120, Note_on_c, 2, 28, 85
3, 129160, Note_off_c, 2, 28, 0
3, 129360, Note_on_c, 2, 48, 95
3, 129600, Note_off_c, 2, 48, 0
3, 129600, Note_on_c, 2, 28, 85
3, 129640, Note_off_c, 2, 28, 0
3, 129840, Note_on_c, 2, 48, 95
3, 130080, Note_off_c, 2, 48, 0
3, 130080, Note_on_c, 2, 38, 95
3, 130560, Note_off_c, 2, 38, 0
3, 130560, Note_on_c, 2, 40, 95
3, 131040, Note_off_c, 2, 40, 0
3, 131040, Note_on_c, 2, 50, 95
3, 131280, Note_off_c, 2, 50, 0
3, 131520, Note_on_c, 2, 52, 95
3, 132000, Note_off_c, 2, 52, 0
3, 132000, Note_on_c, 2, 40, 95
3, 132480, Note_off_c, 2, 40, 0
3, 132480, Note_on_c, 2, 40, 85
3, 132520, Note_off_c, 2, 40, 0
3, 132720, Note_on_c, 2, 50, 95
3, 132960, Note_off_c, 2, 50, 0
3, 132960, Note_on_c, 2, 33, 85
3, 133000, Note_off_c, 2, 33, 0
3, 133200, Note_on_c, 2, 52, 95
3, 133440, Note_off_c, 2, 52, 0
3, 133440, Note_on_c, 2, 33, 85
3, 133480, Note_off_c, 2, 33, 0
3, 133680, Note_on_c, 2, 52, 95
3, 133920, Note_off_c, 2, 52, 0
3, 133920, Note_on_c, 2, 40, 95
3, 134400, Note_off_c, 2, 40, 0
3, 134400, Note_on_c, 2, 38, 95
3, 134880, Note_off_c, 2, 38, 0
3, 134880, Note_on_c, 2, 50, 95
3, 135120, Note_off_c, 2, 50, 0
3, 135360, Note_on_c, 2, 52, 95
3, 135840, Note_off_c, 2, 52, 0
3, 135840, Note_on_c, 2, 38, 95
3, 136320, Note_off_c, 2, 38, 0
3, 136320, Note_on_c, 2, 38, 85
3, 136360, Note_off_c, 2, 38, 0
3, 136560, Note_on_c, 2, 50, 95
3, 136800, Note_off_c, 2, 50, 0
3, 136800, Note_on_c, 2, 33, 85
3, 136840, Note_off_c, 2, 33, 0
3, 137040, Note_on_c, 2, 52, 95
3, 137280, Note_off_c, 2, 52, 0
3, 137280, Note_on_c, 2, 33, 85
3, 137320, Note_off_c, 2, 33, 0
3, 137520, Note_on_c, 2, 52, 95
3, 137760, Note_off_c, 2, 52, 0
3, 137760, Note_on_c, 2, 33, 95
3, 138240, Note_off_c, 2, 33, 0
3, 138240, Note_on_c, 2, 35, 95
3, 138720, Note_off_c, 2, 35, 0
3, 138720, Note_on_c, 2, 47, 95
3, 138960, Note_off_c, 2, 47, 0
3, 139200, Note_on_c, 2, 47, 95
3, 139680, Note_off_c, 2, 47, 0
3, 139680, Note_on_c, 2, 35, 95
3, 140160, Note_off_c, 2, 35, 0
3, 140160, Note_on_c, 2, 35, 85
3, 140200, Note_off_c, 2, 35, 0
3, 140400, Note_on_c, 2, 47, 95
3, 140640, Note_off_c, 2, 47, 0
3, 140640, Note_on_c, 2, 28, 85
3, 140680, Note_off_c, 2, 28, 0
3, 140880, Note_on_c, 2, 47, 95
3, 141120, Note_off_c, 2, 47, 0
3, 141120, Note_on_c, 2, 28, 85
3, 141160, Note_off_c, 2, 28, 0
3, 141360, Note_on_c, 2, 47, 95
3, 141600, Note_off_c, 2, 47, 0
3, 141600, Note_on_c, 2, 35, 95
3, 142080, Note_off_c, 2, 35, 0
3, 142080, Note_on_c, 2, 36, 95
3, 142560, Note_off_c, 2, 36, 0
3, 142560, Note_on_c, 2, 48, 95
3, 142800, Note_off_c, 2, 48, 0
3, 143040, Note_on_c, 2, 48, 95
3, 143520, Note_off_c, 2, 48, 0
3, 143520, Note_on_c, 2, 36, 95
3, 144000, Note_off_c, 2, 36, 0
3, 144000, Note_on_c, 2, 36, 85
3, 144040, Note_off_c, 2, 36, 0
3, 144240, Note_on_c, 2, 48, 95
3, 144480, Note_off_c, 2, 48, 0
3, 144480, Note_on_c, 2, 28, 85
3, 144520, Note_off_c, 2, 28, 0
3, 144720, Note_on_c, 2, 48, 95
3, 144960, Note_off_c, 2, 48, 0
3, 144960, Note_on_c, 2, 28, 85
3, 145000, Note_off_c, 2, 28, 0
3, 145200, Note_on_c, 2, 48, 95
3, 145440, Note_off_c, 2, 48, 0
3, 145440, Note_on_c, 2, 36, 95
3, 145920, Note_off_c, 2, 36, 0
3, 145920, Note_on_c, 2, 43, 95
3, 146640, Note_off_c, 2, 43, 0
3, 146640, Note_on_c, 2, 43, 95
3, 146880, Note_off_c, 2, 43, 0
3, 146880, Note_on_c, 2, 47, 95
3, 147120, Note_off_c, 2, 47, 0
3, 147120, Note_on_c, 2, 48, 95
3, 147360, Note_off_c, 2, 48, 0
3, 147360, Note_on_c, 2, 50, 95
3, 148320, Note_off_c, 2, 50, 0
3, 148320, Note_on_c, 2, 50, 95
3, 148800, Note_off_c, 2, 50, 0
3, 148800, Note_on_c, 2, 50, 95
3, 149280, Note_off_c, 2, 50, 0
3, 149760, Note_on_c, 2, 47, 95
3, 150480, Note_off_c, 2, 47, 0
3, 150480, Note_on_c, 2, 45, 95
3, 150720, Note_off_c, 2, 45, 0
3, 150720, Note_on_c, 2, 47, 95
3, 150960, Note_off_c, 2, 47, 0
3, 150960, Note_on_c, 2, 45, 95
3, 151200, Note_off_c, 2, 45, 0
3, 151200, Note_on_c, 2, 48, 95
3, 152160, Note_off_c, 2, 48, 0
3, 152160, Note_on_c, 2, 47, 95
3, 153120, Note_off_c, 2, 47, 0
3, 153120, Note_on_c, 2, 45, 95
3, 153600, Note_off_c, 2, 45, 0
3, 153600, Note_on_c, 2, 43, 95
3, 154320, Note_off_c, 2, 43, 0
3, 154320, Note_on_c, 2, 43, 95
3, 154560, Note_off_c, 2, 43, 0
3, 154560, Note_on_c, 2, 47, 95
3, 154800, Note_off_c, 2, 47, 0
3, 154800, Note_on_c, 2, 48, 95
3, 155040, Note_off_c, 2, 48, 0
3, 155040, Note_on_c, 2, 50, 95
3, 156000, Note_off_c, 2, 50, 0
3, 156000, Note_on_c, 2, 50, 95
3, 156480, Note_off_c, 2, 50, 0
3, 156480, Note_on_c, 2, 50, 95
3, 156960, Note_off_c, 2, 50, 0
3, 157440, Note_on_c, 2, 47, 95
3, 158160, Note_off_c, 2, 47, 0
3, 158160, Note_on_c, 2, 45, 95
3, 158400, Note_off_c, 2, 45, 0
3, 158400, Note_on_c, 2, 47, 95
3, 158640, Note_off_c, 2, 47, 0
3, 158640, Note_on_c, 2, 45, 95
3, 158880, Note_off_c, 2, 45, 0
3, 158880, Note_on_c, 2, 48, 95
3, 159600, Note_off_c, 2, 48, 0
3, 159600, Note_on_c, 2, 52, 95
3, 160560, Note_off_c, 2, 52, 0
3, 160560, Note_on_c, 2, 50, 95
3, 160800, Note_off_c, 2, 50, 0
3, 160800, Note_on_c, 2, 47, 95
3, 161040, Note_off_c, 2, 47, 0
3, 161040, Note_on_c, 2, 45, 95
3, 161280, Note_off_c, 2, 45, 0
3, 161280, Note_on_c, 2, 43, 95
3, 162000, Note_off_c, 2, 43, 0
3, 162000, Note_on_c, 2, 43, 95
3, 162240, Note_off_c, 2, 43, 0
3, 162240, Note_on_c, 2, 47, 95
3, 162480, Note_off_c, 2, 47, 0
3, 162480, Note_on_c, 2, 48, 95
3, 162720, Note_off_c, 2, 48, 0
3, 162720, Note_on_c, 2, 50, 95
3, 163680, Note_off_c, 2, 50, 0
3, 163680, Note_on_c, 2, 50, 95
3, 164160, Note_off_c, 2, 50, 0
3, 164160, Note_on_c, 2, 50, 95
3, 164640, Note_off_c, 2, 50, 0
3, 165120, Note_on_c, 2, 47, 95
3, 165840, Note_off_c, 2, 47, 0
3, 165840, Note_on_c, 2, 45, 95
3, 166080, Note_off_c, 2, 45, 0
3, 166080, Note_on_c, 2, 47, 95
3, 166320, Note_off_c, 2, 47, 0
3, 166320, Note_on_c, 2, 45, 95
3, 166560, Note_off_c, 2, 45, 0
3, 166560, Note_on_c, 2, 48, 95
3, 167520, Note_off_c, 2, 48, 0
3, 167520, Note_on_c, 2, 47, 95
3, 168000, Note_off_c, 2, 47, 0
3, 168000, Note_on_c, 2, 45, 95
3, 168480, Note_off_c, 2, 45, 0
3, 168480, Note_on_c, 2, 38, 95
3, 168960, Note_off_c, 2, 38, 0
3, 168960, Note_on_c, 2, 43, 95
3, 169680, Note_off_c, 2, 43, 0
3, 169680, Note_on_c, 2, 43, 95
3, 169920, Note_off_c, 2, 43, 0
3, 169920, Note_on_c, 2, 47, 95
3, 170160, Note_off_c, 2, 47, 0
3, 170160, Note_on_c, 2, 48, 95
3, 170400, Note_off_c, 2, 48, 0
3, 170400, Note_on_c, 2, 50, 95
3, 171360, Note_off_c, 2, 50, 0
3, 171360, Note_on_c, 2, 50, 95
3, 171840, Note_off_c, 2, 50, 0
3, 171840, Note_on_c, 2, 50, 95
3, 172320, Note_off_c, 2, 50, 0
3, 172800, Note_on_c, 2, 47, 95
3, 173280, Note_off_c, 2, 47, 0
3, 173760, Note_on_c, 2, 48, 95
3, 176640, Note_off_c, 2, 48, 0
3, 176640, Note_on_c, 2, 40, 95
3, 177120, Note_off_c, 2, 40, 0
3, 177120, Note_on_c, 2, 50, 95
3, 177360, Note_off_c, 2, 50, 0
3, 177600, Note_on_c, 2, 52, 95
3, 178080, Note_off_c, 2, 52, 0
3, 178080, Note_on_c, 2, 40, 95
3, 178560, Note_off_c, 2, 40, 0
3, 178560, Note_on_c, 2, 40, 85
3, 178600, Note_off_c, 2, 40, 0
3, 178800, Note_on_c, 2, 50, 95
3, 179040, Note_off_c, 2, 50, 0
3, 179040, Note_on_c, 2, 33, 85
3, 179080, Note_off_c, 2, 33, 0
3, 179280, Note_on_c, 2, 52, 95
3, 179520, Note_off_c, 2, 52, 0
3, 179520, Note_on_c, 2, 33, 85
3, 179560, Note_off_c, 2, 33, 0
3, 179760, Note_on_c, 2, 52, 95
3, 180000, Note_off_c, 2, 52, 0
3, 180000, Note_on_c, 2, 40, 95
3, 180480, Note_off_c, 2, 40, 0
3, 180480, Note_on_c, 2, 38, 95
3, 180960, Note_off_c, 2, 38, 0
3, 180960, Note_on_c, 2, 50, 95
3, 181200, Note_off_c, 2, 50, 0
3, 181440, Note_on_c, 2, 52, 95
3, 181920, Note_off_c, 2, 52, 0
3, 181920, Note_on_c, 2, 38, 95
3, 182400, Note_off_c, 2, 38, 0
3, 182400, Note_on_c, 2, 38, 85
3, 182440, Note_off_c, 2, 38, 0
3, 182640, Note_on_c, 2, 50, 95
3, 182880, Note_off_c, 2, 50, 0
3, 182880, Note_on_c, 2, 33, 85
3, 182920, Note_off_c, 2, 33, 0
3, 183120, Note_on_c, 2, 52, 95
3, 183360, Note_off_c, 2, 52, 0
3, 183360, Note_on_c, 2, 33, 85
3, 183400, Note_off_c, 2, 33, 0
3, 183600, Note_on_c, 2, 52, 95
3, 183840, Note_off_c, 2, 52, 0
3, 183840, Note_on_c, 2, 33, 95
3, 184320, Note_off_c, 2, 33, 0
3, 184320, Note_on_c, 2, 35, 95
3, 184800, Note_off_c, 2, 35, 0
3, 184800, Note_on_c, 2, 47, 95
3, 185040, Note_off_c, 2, 47, 0
3, 185280, Note_on_c, 2, 47, 95
3, 185760, Note_off_c, 2, 47, 0
3, 185760, Note_on_c, 2, 35, 95
3, 186240, Note_off_c, 2, 35, 0
3, 186240, Note_on_c, 2, 35, 85
3, 186280, Note_off_c, 2, 35, 0
3, 186480, Note_on_c, 2, 47, 95
3, 186720, Note_off_c, 2, 47, 0
3, 186720, Note_on_c, 2, 28, 85
3, 186760, Note_off_c, 2, 28, 0
3, 186960, Note_on_c, 2, 47, 95
3, 187200, Note_off_c, 2, 47, 0
3, 187200, Note_on_c, 2, 28, 85
3, 187240, Note_off_c, 2, 28, 0
3, 187440, Note_on_c, 2, 47, 95
3, 187680, Note_off_c, 2, 47, 0
3, 187680, Note_on_c, 2, 35, 95
3, 188160, Note_off_c, 2, 35, 0
3, 188160, Note_on_c, 2, 36, 95
3, 188640, Note_off_c, 2, 36, 0
3, 188640, Note_on_c, 2, 48, 95
3, 188880, Note_off_c, 2, 48, 0
3, 189120, Note_on_c, 2, 48, 95
3, 189600, Note_off_c, 2, 48, 0
3, 189600, Note_on_c, 2, 36, 95
3, 190080, Note_off_c, 2, 36, 0
3, 190080, Note_on_c, 2, 36, 85
3, 190120, Note_off_c, 2, 36, 0
3, 190320, Note_on_c, 2, 43, 95
3, 190560, Note_off_c, 2, 43, 0
3, 190560, Note_on_c, 2, 28, 85
3, 190600, Note_off_c, 2, 28, 0
3, 190800, Note_on_c, 2, 42, 95
3, 191040, Note_off_c, 2, 42, 0
3, 191040, Note_on_c, 2, 28, 85
3, 191080, Note_off_c, 2, 28, 0
3, 191280, Note_on_c, 2, 40, 95
3, 191520, Note_off_c, 2, 40, 0
3, 191520, Note_on_c, 2, 38, 95
3, 192000, Note_off_c, 2, 38, 0
3, 192000, Note_on_c, 2, 40, 95
3, 192480, Note_off_c, 2, 40, 0
3, 192480, Note_on_c, 2, 50, 95
3, 192720, Note_off_c, 2, 50, 0
3, 192960, Note_on_c, 2, 52, 95
3, 193440, Note_off_c, 2, 52, 0
3, 193440, Note_on_c, 2, 40, 95
3, 193920, Note_off_c, 2, 40, 0
3, 193920, Note_on_c, 2, 40, 85
3, 193960, Note_off_c, 2, 40, 0
3, 194160, Note_on_c, 2, 50, 95
3, 194400, Note_off_c, 2, 50, 0
3, 194400, Note_on_c, 2, 33, 85
3, 194440, Note_off_c, 2, 33, 0
3, 194640, Note_on_c, 2, 52, 95
3, 194880, Note_off_c, 2, 52, 0
3, 194880, Note_on_c, 2, 33, 85
3, 194920, Note_off_c, 2, 33, 0
3, 195120, Note_on_c, 2, 52, 95
3, 195360, Note_off_c, 2, 52, 0
3, 195360, Note_on_c, 2, 40, 95
3, 195840, Note_off_c, 2, 40, 0
3, 195840, Note_on_c, 2, 38, 95
3, 196320, Note_off_c, 2, 38, 0
3, 196320, Note_on_c, 2, 50, 95
3, 196560, Note_off_c, 2, 50, 0
3, 196800, Note_on_c, 2, 52, 95
3, 197280, Note_off_c, 2, 52, 0
3, 197280, Note_on_c, 2, 38, 95
3, 197760, Note_off_c, 2, 38, 0
3, 197760, Note_on_c, 2, 38, 85
3, 197800, Note_off_c, 2, 38, 0
3, 198000, Note_on_c, 2, 50, 95
3, 198240, Note_off_c, 2, 50, 0
3, 198240, Note_on_c, 2, 33, 85
3, 198280, Note_off_c, 2, 33, 0
3, 198480, Note_on_c, 2, 52, 95
3, 198720, Note_off_c, 2, 52, 0
3, 198720, Note_on_c, 2, 33, 85
3, 198760, Note_off_c, 2, 33, 0
3, 198960, Note_on_c, 2, 52, 95
3, 199200, Note_off_c, 2, 52, 0
3, 199200, Note_on_c, 2, 33, 95
3, 199680, Note_off_c, 2, 33, 0
3, 199680, Note_on_c, 2, 35, 95
3, 200160, Note_off_c, 2, 35, 0
3, 200160, Note_on_c, 2, 47, 95
3, 200400, Note_off_c, 2, 47, 0
3, 200640, Note_on_c, 2, 47, 95
3, 201120, Note_off_c, 2, 47, 0
3, 201120, Note_on_c, 2, 35, 95
3, 201600, Note_off_c, 2, 35, 0
3, 201600, Note_on_c, 2, 35, 85
3, 201640, Note_off_c, 2, 35, 0
3, 201840, Note_on_c, 2, 47, 95
3, 202080, Note_off_c, 2, 47, 0
3, 202080, Note_on_c, 2, 28, 85
3, 202120, Note_off_c, 2, 28, 0
3, 202320, Note_on_c, 2, 47, 95
3, 202560, Note_off_c, 2, 47, 0
3, 202560, Note_on_c, 2, 28, 85
3, 202600, Note_off_c, 2, 28, 0
3, 202800, Note_on_c, 2, 47, 95
3, 203040, Note_off_c, 2, 47, 0
3, 203040, Note_on_c, 2, 35, 95
3, 203520, Note_off_c, 2, 35, 0
3, 203520, Note_on_c, 2, 36, 95
3, 204000, Note_off_c, 2, 36, 0
3, 204000, Note_on_c, 2, 48, 95
3, 204480, Note_off_c, 2, 48, 0
3, 204720, Note_on_c, 2, 48, 95
3, 204960, Note_off_c, 2, 48, 0
3, 204960, Note_on_c, 2, 36, 95
3, 205440, Note_off_c, 2, 36, 0
3, 205440, Note_on_c, 2, 36, 85
3, 205480, Note_off_c, 2, 36, 0
3, 205680, Note_on_c, 2, 48, 95
3, 206160, Note_off_c, 2, 48, 0
3, 206400, Note_on_c, 2, 36, 95
3, 206640, Note_off_c, 2, 36, 0
3, 206880, Note_on_c, 2, 36, 95
3, 207120, Note_off_c, 2, 36, 0
3, 207360, Note_on_c, 2, 40, 95
3, 207840, Note_off_c, 2, 40, 0
3, 207840, Note_on_c, 2, 50, 95
3, 208080, Note_off_c, 2, 50, 0
3, 208320, Note_on_c, 2, 52, 95
3, 208800, Note_off_c, 2, 52, 0
3, 208800, Note_on_c, 2, 40, 95
3, 209280, Note_off_c, 2, 40, 0
3, 209280, Note_on_c, 2, 40, 85
3, 209320, Note_off_c, 2, 40, 0
3, 209520, Note_on_c, 2, 50, 95
3, 209760, Note_off_c, 2, 50, 0
3, 209760, Note_on_c, 2, 33, 85
3, 209800, Note_off_c, 2, 33, 0
3, 210000, Note_on_c, 2, 52, 95
3, 210240, Note_off_c, 2, 52, 0
3, 210240, Note_on_c, 2, 33, 85
3, 210280, Note_off_c, 2, 33, 0
3, 210480, Note_on_c, 2, 52, 95
3, 210720, Note_off_c, 2, 52, 0
3, 210720, Note_on_c, 2, 40, 95
3, 211200, Note_off_c, 2, 40, 0
3, 211200, Note_on_c, 2, 38, 95
3, 211680, Note_off_c, 2, 38, 0
3, 211680, Note_on_c, 2, 50, 95
3, 211920, Note_off_c, 2, 50, 0
3, 212160, Note_on_c, 2, 52, 95
3, 212640, Note_off_c, 2, 52, 0
3, 212640, Note_on_c, 2, 38, 95
3, 213120, Note_off_c, 2, 38, 0
3, 213120, Note_on_c, 2, 38, 85
3, 213160, Note_off_c, 2, 38, 0
3, 213360, Note_on_c, 2, 50, 95
3, 213600, Note_off_c, 2, 50, 0
3, 213600, Note_on_c, 2, 33, 85
3, 213640, Note_off_c, 2, 33, 0
3, 213840, Note_on_c, 2, 52, 95
3, 214080, Note_off_c, 2, 52, 0
3, 214080, Note_on_c, 2, 33, 85
3, 214120, Note_off_c, 2, 33, 0
3, 214320, Note_on_c, 2, 52, 95
3, 214560, Note_off_c, 2, 52, 0
3, 214560, Note_on_c, 2, 33, 95
3, 215040, Note_off_c, 2, 33, 0
3, 215040, Note_on_c, 2, 35, 95
3, 215520, Note_off_c, 2, 35, 0
3, 215520, Note_on_c, 2, 47, 95
3, 215760, Note_off_c, 2, 47, 0
3, 216000, Note_on_c, 2, 47, 95
3, 216480, Note_off_c, 2, 47, 0
3, 216480, Note_on_c, 2, 35, 95
3, 216960, Note_off_c, 2, 35, 0
3, 216960, Note_on_c, 2, 35, 85
3, 217000, Note_off_c, 2, 35, 0
3, 217200, Note_on_c, 2, 47, 95
3, 217440, Note_off_c, 2, 47, 0
3, 217440, Note_on_c, 2, 28, 85
3, 217480, Note_off_c, 2, 28, 0
3, 217680, Note_on_c, 2, 47, 95
3, 217920, Note_off_c, 2, 47, 0
3, 217920, Note_on_c, 2, 28, 85
3, 217960, Note_off_c, 2, 28, 0
3, 218160, Note_on_c, 2, 47, 95
3, 218400, Note_off_c, 2, 47, 0
3, 218400, Note_on_c, 2, 35, 95
3, 218880, Note_off_c, 2, 35, 0
3, 218880, Note_on_c, 2, 36, 95
3, 219360, Note_off_c, 2, 36, 0
3, 219360, Note_on_c, 2, 48, 95
3, 219600, Note_off_c, 2, 48, 0
3, 219840, Note_on_c, 2, 48, 95
3, 220320, Note_off_c, 2, 48, 0
3, 220320, Note_on_c, 2, 36, 95
3, 220800, Note_off_c, 2, 36, 0
3, 220800, Note_on_c, 2, 36, 85
3, 220840, Note_off_c, 2, 36, 0
3, 221040, Note_on_c, 2, 43, 95
3, 221280, Note_off_c, 2, 43, 0
3, 221280, Note_on_c, 2, 28, 85
3, 221320, Note_off_c, 2, 28, 0
3, 221520, Note_on_c, 2, 43, 95
3, 221760, Note_off_c, 2, 43, 0
3, 221760, Note_on_c, 2, 28, 85
3, 221800, Note_off_c, 2, 28, 0
3, 222000, Note_on_c, 2, 43, 95
3, 222240, Note_off_c, 2, 43, 0
3, 222240, Note_on_c, 2, 42, 95
3, 222720, Note_off_c, 2, 42, 0
3, 222720, Note_on_c, 2, 40, 95
3, 223200, Note_off_c, 2, 40, 0
3, 223200, Note_on_c, 2, 50, 95
3, 223440, Note_off_c, 2, 50, 0
3, 223680, Note_on_c, 2, 52, 95
3, 224160, Note_off_c, 2, 52, 0
3, 224160, Note_on_c, 2, 40, 95
3, 224640, Note_off_c, 2, 40, 0
3, 224640, Note_on_c, 2, 40, 85
3, 224680, Note_off_c, 2, 40, 0
3, 224880, Note_on_c, 2, 50, 95
3, 225120, Note_off_c, 2, 50, 0
3, 225120, Note_on_c, 2, 33, 85
3, 225160, Note_off_c, 2, 33, 0
3, 225360, Note_on_c, 2, 52, 95
3, 225600, Note_off_c, 2, 52, 0
3, 225600, Note_on_c, 2, 33, 85
3, 225640, Note_off_c, 2, 33, 0
3, 225840, Note_on_c, 2, 52, 95
3, 226080, Note_off_c, 2, 52, 0
3, 226080, Note_on_c, 2, 40, 95
3, 226560, Note_off_c, 2, 40, 0
3, 226560, Note_on_c, 2, 38, 95
3, 227040, Note_off_c, 2, 38, 0
3, 227040, Note_on_c, 2, 50, 95
3, 227280, Note_off_c, 2, 50, 0
3, 227520, Note_on_c, 2, 52, 95
3, 228000, Note_off_c, 2, 52, 0
3, 228000, Note_on_c, 2, 38, 95
3, 228480, Note_off_c, 2, 38, 0
3, 228480, Note_on_c, 2, 38, 85
3, 228520, Note_off_c, 2, 38, 0
3, 228720, Note_on_c, 2, 50, 95
3, 228960, Note_off_c, 2, 50, 0
3, 228960, Note_on_c, 2, 33, 85
3, 229000, Note_off_c, 2, 33, 0
3, 229200, Note_on_c, 2, 52, 95
3, 229440, Note_off_c, 2, 52, 0
3, 229440, Note_on_c, 2, 33, 85
3, 229480, Note_off_c, 2, 33, 0
3, 229680, Note_on_c, 2, 52, 95
3, 229920, Note_off_c, 2, 52, 0
3, 229920, Note_on_c, 2, 33, 95
3, 230400, Note_off_c, 2, 33, 0
3, 230400, Note_on_c, 2, 35, 95
3, 230880, Note_off_c, 2, 35, 0
3, 230880, Note_on_c, 2, 47, 95
3, 231120, Note_off_c, 2, 47, 0
3, 231360, Note_on_c, 2, 47, 95
3, 231840, Note_off_c, 2, 47, 0
3, 231840, Note_on_c, 2, 35, 95
3, 232320, Note_off_c, 2, 35, 0
3, 232320, Note_on_c, 2, 35, 85
3, 232360, Note_off_c, 2, 35, 0
3, 232560, Note_on_c, 2, 47, 95
3, 232800, Note_off_c, 2, 47, 0
3, 232800, Note_on_c, 2, 28, 85
3, 232840, Note_off_c, 2, 28, 0
3, 233040, Note_on_c, 2, 47, 95
3, 233280, Note_off_c, 2, 47, 0
3, 233280, Note_on_c, 2, 28, 85
3, 233320, Note_off_c, 2, 28, 0
3, 233520, Note_on_c, 2, 47, 95
3, 233760, Note_off_c, 2, 47, 0
3, 233760, Note_on_c, 2, 35, 95
3, 234240, Note_off_c, 2, 35, 0
3, 234240, Note_on_c, 2, 36, 95
3, 234720, Note_off_c, 2, 36, 0
3, 234720, Note_on_c, 2, 48, 95
3, 234960, Note_off_c, 2, 48, 0
3, 235200, Note_on_c, 2, 48, 95
3, 235680, Note_off_c, 2, 48, 0
3, 235680, Note_on_c, 2, 36, 95
3, 235920, Note_off_c, 2, 36, 0
3, 235920, Note_on_c, 2, 48, 95
3, 236400, Note_off_c, 2, 48, 0
3, 236400, Note_on_c, 2, 48, 95
3, 236640, Note_off_c, 2, 48, 0
3, 236640, Note_on_c, 2, 28, 85
3, 236680, Note_off_c, 2, 28, 0
3, 236880, Note_on_c, 2, 48, 95
3, 237120, Note_off_c, 2, 48, 0
3, 237120, Note_on_c, 2, 36, 95
3, 237600, Note_off_c, 2, 36, 0
3, 237600, Note_on_c, 2, 48, 95
3, 238080, Note_off_c, 2, 48, 0
3, 238080, Note_on_c, 2, 43, 95
3, 238800, Note_off_c, 2, 43, 0
3, 238800, Note_on_c, 2, 43, 95
3, 239040, Note_off_c, 2, 43, 0
3, 239040, Note_on_c, 2, 47, 95
3, 239280, Note_off_c, 2, 47, 0
3, 239280, Note_on_c, 2, 48, 95
3, 239520, Note_off_c, 2, 48, 0
3, 239520, Note_on_c, 2, 50, 95
3, 240480, Note_off_c, 2, 50, 0
3, 240480, Note_on_c, 2, 50, 95
3, 240960, Note_off_c, 2, 50, 0
3, 240960, Note_on_c, 2, 50, 95
3, 241440, Note_off_c, 2, 50, 0
3, 241920, Note_on_c, 2, 47, 95
3, 242640, Note_off_c, 2, 47, 0
3, 242640, Note_on_c, 2, 45, 95
3, 242880, Note_off_c, 2, 45, 0
3, 242880, Note_on_c, 2, 47, 95
3, 243120, Note_off_c, 2, 47, 0
3, 243120, Note_on_c, 2, 45, 95
3, 243360, Note_off_c, 2, 45, 0
3, 243360, Note_on_c, 2, 48, 95
3, 244320, Note_off_c, 2, 48, 0
3, 244320, Note_on_c, 2, 47, 95
3, 245280, Note_off_c, 2, 47, 0
3, 245280, Note_on_c, 2, 45, 95
3, 245760, Note_off_c, 2, 45, 0
3, 245760, Note_on_c, 2, 43, 95
3, 246480, Note_off_c, 2, 43, 0
3, 246480, Note_on_c, 2, 43, 95
3, 246720, Note_off_c, 2, 43, 0
3, 246720, Note_on_c, 2, 47, 95
3, 246960, Note_off_c, 2, 47, 0
3, 246960, Note_on_c, 2, 48, 95
3, 247200, Note_off_c, 2, 48, 0
3, 247200, Note_on_c, 2, 50, 95
3, 248160, Note_off_c, 2, 50, 0
3, 248160, Note_on_c, 2, 50, 95
3, 248640, Note_off_c, 2, 50, 0
3, 248640, Note_on_c, 2, 50, 95
3, 249120, Note_off_c, 2, 50, 0
3, 249600, Note_on_c, 2, 47, 95
3, 250320, Note_off_c, 2, 47, 0
3, 250320, Note_on_c, 2, 45, 95
3, 250560, Note_off_c, 2, 45, 0
3, 250560, Note_on_c, 2, 47, 95
3, 250800, Note_off_c, 2, 47, 0
3, 250800, Note_on_c, 2, 45, 95
3, 251040, Note_off_c, 2, 45, 0
3, 251040, Note_on_c, 2, 48, 95
3, 251760, Note_off_c, 2, 48, 0
3, 251760, Note_on_c, 2, 52, 95
3, 252720, Note_off_c, 2, 52, 0
3, 252720, Note_on_c, 2, 50, 95
3, 252960, Note_off_c, 2, 50, 0
3, 252960, Note_on_c, 2, 47, 95
3, 253200, Note_off_c, 2, 47, 0
3, 253200, Note_on_c, 2, 45, 95
3, 253440, Note_off_c, 2, 45, 0
3, 253440, Note_on_c, 2, 43, 95
3, 254160, Note_off_c, 2, 43, 0
3, 254160, Note_on_c, 2, 43, 95
3, 254400, Note_off_c, 2, 43, 0
3, 254400, Note_on_c, 2, 47, 95
3, 254640, Note_off_c, 2, 47, 0
3, 254640, Note_on_c, 2, 48, 95
3, 254880, Note_off_c, 2, 48, 0
3, 254880, Note_on_c, 2, 50, 95
3, 255840, Note_off_c, 2, 50, 0
3, 255840, Note_on_c, 2, 50, 95
3, 256320, Note_off_c, 2, 50, 0
3, 256320, Note_on_c, 2, 50, 95
3, 256800, Note_off_c, 2, 50, 0
3, 257280, Note_on_c, 2, 47, 95
3, 258000, Note_off_c, 2, 47, 0
3, 258000, Note_on_c, 2, 45, 95
3, 258240, Note_off_c, 2, 45, 0
3, 258240, Note_on_c, 2, 47, 95
3, 258480, Note_off_c, 2, 47, 0
3, 258480, Note_on_c, 2, 45, 95
3, 258720, Note_off_c, 2, 45, 0
3, 258720, Note_on_c, 2, 48, 95
3, 259680, Note_off_c, 2, 48, 0
3, 259680, Note_on_c, 2, 47, 95
3, 260160, Note_off_c, 2, 47, 0
3, 260160, Note_on_c, 2, 45, 95
3, 260400, Note_off_c, 2, 45, 0
3, 260640, Note_on_c, 2, 38, 95
3, 260880, Note_off_c, 2, 38, 0
3, 261120, Note_on_c, 2, 43, 95
3, 261840, Note_off_c, 2, 43, 0
3, 261840, Note_on_c, 2, 43, 95
3, 262080, Note_off_c, 2, 43, 0
3, 262080, Note_on_c, 2, 47, 95
3, 262320, Note_off_c, 2, 47, 0
3, 262320, Note_on_c, 2, 48, 95
3, 262560, Note_off_c, 2, 48, 0
3, 262560, Note_on_c, 2, 50, 95
3, 263520, Note_off_c, 2, 50, 0
3, 263520, Note_on_c, 2, 50, 95
3, 264480, Note_off_c, 2, 50, 0
3, 264960, Note_on_c, 2, 47, 95
3, 265440, Note_off_c, 2, 47, 0
3, 265920, Note_on_c, 2, 48, 95
3, 268800, Note_off_c, 2, 48, 0
3, 268800, Note_on_c, 2, 40, 95
3, 269280, Note_off_c, 2, 40, 0
3, 269280, Note_on_c, 2, 40, 95
3, 269760, Note_off_c, 2, 40, 0
3, 269760, Note_on_c, 2, 52, 95
3, 270240, Note_off_c, 2, 52, 0
3, 270240, Note_on_c, 2, 40, 95
3, 270720, Note_off_c, 2, 40, 0
3, 272640, Note_on_c, 2, 57, 95
3, 273120, Note_off_c, 2, 57, 0
3, 273120, Note_on_c, 2, 50, 95
3, 273600, Note_off_c, 2, 50, 0
3, 273600, Note_on_c, 2, 38, 95
3, 274080, Note_off_c, 2, 38, 0
3, 274080, Note_on_c, 2, 50, 95
3, 274560, Note_off_c, 2, 50, 0
3, 276480, Note_on_c, 2, 35, 95
3, 276960, Note_off_c, 2, 35, 0
3, 276960, Note_on_c, 2, 35, 95
3, 277440, Note_off_c, 2, 35, 0
3, 277440, Note_on_c, 2, 47, 95
3, 277920, Note_off_c, 2, 47, 0
3, 277920, Note_on_c, 2, 35, 95
3, 278400, Note_off_c, 2, 35, 0
3, 280080, Note_on_c, 2, 48, 100
3, 280320, Note_off_c, 2, 48, 0
3, 280320, Note_on_c, 2, 50, 95
3, 280800, Note_off_c, 2, 50, 0
3, 280800, Note_on_c, 2, 48, 95
3, 281280, Note_off_c, 2, 48, 0
3, 281280, Note_on_c, 2, 36, 95
3, 281760, Note_off_c, 2, 36, 0
3, 281760, Note_on_c, 2, 48, 95
3, 282240, Note_off_c, 2, 48, 0
3, 284160, Note_on_c, 2, 40, 95
3, 284640, Note_off_c, 2, 40, 0
3, 284640, Note_on_c, 2, 40, 95
3, 285120, Note_off_c, 2, 40, 0
3, 285120, Note_on_c, 2, 52, 95
3, 285600, Note_off_c, 2, 52, 0
3, 285600, Note_on_c, 2, 40, 95
3, 286080, Note_off_c, 2, 40, 0
3, 288000, Note_on_c, 2, 57, 95
3, 288480, Note_off_c, 2, 57, 0
3, 288480, Note_on_c, 2, 50, 95
3, 288960, Note_off_c, 2, 50, 0
3, 288960, Note_on_c, 2, 38, 95
3, 289440, Note_off_c, 2, 38, 0
3, 289440, Note_on_c, 2, 50, 95
3, 289920, Note_off_c, 2, 50, 0
3, 291840, Note_on_c, 2, 35, 95
3, 292320, Note_off_c, 2, 35, 0
3, 292320, Note_on_c, 2, 35, 95
3, 292800, Note_off_c, 2, 35, 0
3, 292800, Note_on_c, 2, 47, 95
3, 293280, Note_off_c, 2, 47, 0
3, 293280, Note_on_c, 2, 35, 95
3, 293760, Note_off_c, 2, 35, 0
3, 295440, Note_on_c, 2, 48, 100
3, 295680, Note_off_c, 2, 48, 0
3, 295680, Note_on_c, 2, 50, 95
3, 296160, Note_off_c, 2, 50, 0
3, 296160, Note_on_c, 2, 48, 95
3, 296640, Note_off_c, 2, 48, 0
3, 296640, Note_on_c, 2, 36, 95
3, 297120, Note_off_c, 2, 36, 0
3, 297120, Note_on_c, 2, 48, 95
3, 297600, Note_off_c, 2, 48, 0
3, 298080, Note_on_c, 2, 38, 95
3, 298320, Note_off_c, 2, 38, 0
3, 299040, Note_on_c, 2, 39, 95
3, 299280, Note_off_c, 2, 39, 0
3, 299520, Note_on_c, 2, 40, 95
3, 300000, Note_off_c, 2, 40, 0
3, 300000, Note_on_c, 2, 40, 95
3, 300480, Note_off_c, 2, 40, 0
3, 300480, Note_on_c, 2, 52, 95
3, 300960, Note_off_c, 2, 52, 0
3, 300960, Note_on_c, 2, 40, 95
3, 301440, Note_off_c, 2, 40, 0
3, 303360, Note_on_c, 2, 57, 95
3, 303840, Note_off_c, 2, 57, 0
3, 303840, Note_on_c, 2, 50, 95
3, 304320, Note_off_c, 2, 50, 0
3, 304320, Note_on_c, 2, 38, 95
3, 304800, Note_off_c, 2, 38, 0
3, 304800, Note_on_c, 2, 50, 95
3, 305040, Note_off_c, 2, 50, 0
3, 305040, Note_on_c, 2, 50, 95
3, 305280, Note_off_c, 2, 50, 0
3, 307200, Note_on_c, 2, 35, 95
3, 307680, Note_off_c, 2, 35, 0
3, 307680, Note_on_c, 2, 35, 95
3, 308160, Note_off_c, 2, 35, 0
3, 308160, Note_on_c, 2, 47, 95
3, 308640, Note_off_c, 2, 47, 0
3, 308640, Note_on_c, 2, 35, 95
3, 309120, Note_off_c, 2, 35, 0
3, 311040, Note_on_c, 2, 50, 95
3, 311520, Note_off_c, 2, 50, 0
3, 311520, Note_on_c, 2, 48, 95
3, 312000, Note_off_c, 2, 48, 0
3, 312000, Note_on_c, 2, 36, 95
3, 312480, Note_off_c, 2, 36, 0
3, 312480, Note_on_c, 2, 48, 95
3, 312960, Note_off_c, 2, 48, 0
3, 314160, Note_on_c, 2, 43, 95
3, 314400, Note_off_c, 2, 43, 0
3, 314400, Note_on_c, 2, 38, 95
3, 314640, Note_off_c, 2, 38, 0
3, 314880, Note_on_c, 2, 40, 95
3, 315360, Note_off_c, 2, 40, 0
3, 315360, Note_on_c, 2, 40, 95
3, 315840, Note_off_c, 2, 40, 0
3, 315840, Note_on_c, 2, 52, 95
3, 316320, Note_off_c, 2, 52, 0
3, 316320, Note_on_c, 2, 40, 95
3, 316800, Note_off_c, 2, 40, 0
3, 318720, Note_on_c, 2, 57, 95
3, 319200, Note_off_c, 2, 57, 0
3, 319200, Note_on_c, 2, 50, 95
3, 319680, Note_off_c, 2, 50, 0
3, 319680, Note_on_c, 2, 38, 95
3, 320160, Note_off_c, 2, 38, 0
3, 320160, Note_on_c, 2, 50, 95
3, 320640, Note_off_c, 2, 50, 0
3, 322560, Note_on_c, 2, 35, 95
3, 323040, Note_off_c, 2, 35, 0
3, 323040, Note_on_c, 2, 35, 95
3, 323520, Note_off_c, 2, 35, 0
3, 323520, Note_on_c, 2, 47, 95
3, 324000, Note_off_c, 2, 47, 0
3, 324000, Note_on_c, 2, 35, 95
3, 324480, Note_off_c, 2, 35, 0
3, 326160, Note_on_c, 2, 48, 100
3, 326400, Note_off_c, 2, 48, 0
3, 326400, Note_on_c, 2, 50, 95
3, 326880, Note_off_c, 2, 50, 0
3, 326880, Note_on_c, 2, 48, 95
3, 327360, Note_off_c, 2, 48, 0
3, 327360, Note_on_c, 2, 36, 95
3, 327840, Note_off_c, 2, 36, 0
3, 327840, Note_on_c, 2, 48, 95
3, 328320, Note_off_c, 2, 48, 0
3, 330240, Note_on_c, 2, 40, 95
3, 330720, Note_off_c, 2, 40, 0
3, 330720, Note_on_c, 2, 50, 95
3, 330960, Note_off_c, 2, 50, 0
3, 331200, Note_on_c, 2, 52, 95
3, 331680, Note_off_c, 2, 52, 0
3, 331680, Note_on_c, 2, 40, 95
3, 332160, Note_off_c, 2, 40, 0
3, 332160, Note_on_c, 2, 40, 85
3, 332200, Note_off_c, 2, 40, 0
3, 332400, Note_on_c, 2, 50, 95
3, 332640, Note_off_c, 2, 50, 0
3, 332640, Note_on_c, 2, 33, 85
3, 332680, Note_off_c, 2, 33, 0
3, 332880, Note_on_c, 2, 52, 95
3, 333120, Note_off_c, 2, 52, 0
3, 333120, Note_on_c, 2, 33, 85
3, 333160, Note_off_c, 2, 33, 0
3, 333360, Note_on_c, 2, 52, 95
3, 333600, Note_off_c, 2, 52, 0
3, 333600, Note_on_c, 2, 40, 95
3, 334080, Note_off_c, 2, 40, 0
3, 334080, Note_on_c, 2, 38, 95
3, 334560, Note_off_c, 2, 38, 0
3, 334560, Note_on_c, 2, 50, 95
3, 334800, Note_off_c, 2, 50, 0
3, 335040, Note_on_c, 2, 52, 95
3, 335520, Note_off_c, 2, 52, 0
3, 335520, Note_on_c, 2, 38, 95
3, 336000, Note_off_c, 2, 38, 0
3, 336000, Note_on_c, 2, 38, 85
3, 336040, Note_off_c, 2, 38, 0
3, 336240, Note_on_c, 2, 50, 95
3, 336480, Note_off_c, 2, 50, 0
3, 336480, Note_on_c, 2, 33, 85
3, 336520, Note_off_c, 2, 33, 0
3, 336720, Note_on_c, 2, 52, 95
3, 336960, Note_off_c, 2, 52, 0
3, 336960, Note_on_c, 2, 33, 85
3, 337000, Note_off_c, 2, 33, 0
3, 337200, Note_on_c, 2, 52, 95
3, 337440, Note_off_c, 2, 52, 0
3, 337440, Note_on_c, 2, 33, 95
3, 337920, Note_off_c, 2, 33, 0
3, 337920, Note_on_c, 2, 35, 95
3, 338400, Note_off_c, 2, 35, 0
3, 338400, Note_on_c, 2, 47, 95
3, 338640, Note_off_c, 2, 47, 0
3, 338880, Note_on_c, 2, 47, 95
3, 339360, Note_off_c, 2, 47, 0
3, 339360, Note_on_c, 2, 35, 95
3, 339840, Note_off_c, 2, 35, 0
3, 339840, Note_on_c, 2, 35, 85
3, 339880, Note_off_c, 2, 35, 0
3, 340080, Note_on_c, 2, 47, 95
3, 340320, Note_off_c, 2, 47, 0
3, 340320, Note_on_c, 2, 28, 85
3, 340360, Note_off_c, 2, 28, 0
3, 340560, Note_on_c, 2, 47, 95
3, 340800, Note_off_c, 2, 47, 0
3, 340800, Note_on_c, 2, 28, 85
3, 340840, Note_off_c, 2, 28, 0
3, 341040, Note_on_c, 2, 47, 95
3, 341280, Note_off_c, 2, 47, 0
3, 341280, Note_on_c, 2, 35, 95
3, 341760, Note_off_c, 2, 35, 0
3, 341760, Note_on_c, 2, 47, 95
3, 341880, Note_off_c, 2, 47, 0
3, 341880, Note_on_c, 2, 47, 95
3, 342000, Note_off_c, 2, 47, 0
3, 342000, Note_on_c, 2, 47, 95
3, 342120, Note_off_c, 2, 47, 0
3, 342120, Note_on_c, 2, 47, 95
3, 342360, Note_off_c, 2, 47, 0
3, 342360, Note_on_c, 2, 50, 95
3, 342600, Note_off_c, 2, 50, 0
3, 342600, Note_on_c, 2, 52, 95
3, 342840, Note_off_c, 2, 52, 0
3, 342840, Note_on_c, 2, 55, 95
3, 343080, Note_off_c, 2, 55, 0
3, 343080, Note_on_c, 2, 57, 95
3, 343320, Note_off_c, 2, 57, 0
3, 343320, Program_c, 1, 33
3, 343320, Note_on_c, 1, 57, 95
3, 343320, Control_c, 1, 101, 0
3, 343320, Control_c, 1, 100, 0
3, 343320, Control_c, 1, 6, 6
3, 343320, Control_c, 1, 38, 0
3, 343320, Pitch_bend_c, 1, 8192
3, 343380, Pitch_bend_c, 1, 8832
3, 343440, Pitch_bend_c, 1, 9472
3, 343500, Pitch_bend_c, 1, 10112
3, 343560, Pitch_bend_c, 1, 10752
3, 343620, Pitch_bend_c, 1, 10752
3, 343680, Pitch_bend_c, 1, 10752
3, 343740, Pitch_bend_c, 1, 10752
3, 343800, Pitch_bend_c, 1, 10752
3, 343920, Note_off_c, 1, 57, 0
3, 343920, Pitch_bend_c, 1, 10752
3, 343920, Pitch_bend_c, 1, 8064
3, 343920, Control_c, 1, 101, 127
3, 343920, Control_c, 1, 10, 127
3, 343920, Note_on_c, 2, 57, 95
3, 344160, Note_off_c, 2, 57, 0
3, 344160, Note_on_c, 2, 55, 95
3, 344400, Note_off_c, 2, 55, 0
3, 344400, Note_on_c, 2, 57, 95
3, 344640, Note_off_c, 2, 57, 0
3, 344640, Note_on_c, 2, 55, 95
3, 344880, Note_off_c, 2, 55, 0
3, 344880, Note_on_c, 2, 52, 95
3, 345120, Note_off_c, 2, 52, 0
3, 345120, Note_on_c, 2, 50, 95
3, 345600, Note_off_c, 2, 50, 0
3, 345600, Note_on_c, 2, 40, 95
3, 346080, Note_off_c, 2, 40, 0
3, 346080, Note_on_c, 2, 50, 95
3, 346320, Note_off_c, 2, 50, 0
3, 346560, Note_on_c, 2, 52, 95
3, 347040, Note_off_c, 2, 52, 0
3, 347040, Note_on_c, 2, 40, 95
3, 347520, Note_off_c, 2, 40, 0
3, 347520, Note_on_c, 2, 40, 85
3, 347560, Note_off_c, 2, 40, 0
3, 347760, Note_on_c, 2, 50, 95
3, 348000, Note_off_c, 2, 50, 0
3, 348000, Note_on_c, 2, 33, 85
3, 348040, Note_off_c, 2, 33, 0
3, 348240, Note_on_c, 2, 52, 95
3, 348480, Note_off_c, 2, 52, 0
3, 348480, Note_on_c, 2, 33, 85
3, 348520, Note_off_c, 2, 33, 0
3, 348720, Note_on_c, 2, 52, 95
3, 348960, Note_off_c, 2, 52, 0
3, 348960, Note_on_c, 2, 40, 95
3, 349440, Note_off_c, 2, 40, 0
3, 349440, Note_on_c, 2, 38, 95
3, 349920, Note_off_c, 2, 38, 0
3, 349920, Note_on_c, 2, 50, 95
3, 350160, Note_off_c, 2, 50, 0
3, 350400, Note_on_c, 2, 52, 95
3, 350880, Note_off_c, 2, 52, 0
3, 350880, Note_on_c, 2, 38, 95
3, 351360, Note_off_c, 2, 38, 0
3, 351360, Note_on_c, 2, 38, 85
3, 351400, Note_off_c, 2, 38, 0
3, 351600, Note_on_c, 2, 50, 95
3, 351840, Note_off_c, 2, 50, 0
3, 351840, Note_on_c, 2, 33, 85
3, 351880, Note_off_c, 2, 33, 0
3, 352080, Note_on_c, 2, 52, 95
3, 352320, Note_off_c, 2, 52, 0
3, 352320, Note_on_c, 2, 33, 85
3, 352360, Note_off_c, 2, 33, 0
3, 352560, Note_on_c, 2, 52, 95
3, 352800, Note_off_c, 2, 52, 0
3, 352800, Note_on_c, 2, 33, 95
3, 353280, Note_off_c, 2, 33, 0
3, 353280, Note_on_c, 2, 35, 95
3, 353760, Note_off_c, 2, 35, 0
3, 353760, Note_on_c, 2, 47, 95
3, 354000, Note_off_c, 2, 47, 0
3, 354240, Note_on_c, 2, 47, 95
3, 354720, Note_off_c, 2, 47, 0
3, 354720, Note_on_c, 2, 35, 95
3, 355200, Note_off_c, 2, 35, 0
3, 355200, Note_on_c, 2, 35, 85
3, 355240, Note_off_c, 2, 35, 0
3, 355440, Note_on_c, 2, 47, 95
3, 355680, Note_off_c, 2, 47, 0
3, 355680, Note_on_c, 2, 28, 85
3, 355720, Note_off_c, 2, 28, 0
3, 355920, Note_on_c, 2, 47, 95
3, 356160, Note_off_c, 2, 47, 0
3, 356160, Note_on_c, 2, 28, 85
3, 356200, Note_off_c, 2, 28, 0
3, 356400, Note_on_c, 2, 47, 95
3, 356640, Note_off_c, 2, 47, 0
3, 356640, Note_on_c, 2, 35, 95
3, 357120, Note_off_c, 2, 35, 0
3, 357120, Note_on_c, 2, 36, 95
3, 357600, Note_off_c, 2, 36, 0
3, 357600, Note_on_c, 2, 48, 95
3, 357840, Note_off_c, 2, 48, 0
3, 358080, Note_on_c, 2, 48, 95
3, 358560, Note_off_c, 2, 48, 0
3, 358560, Note_on_c, 2, 36, 95
3, 359040, Note_off_c, 2, 36, 0
3, 359040, Note_on_c, 2, 36, 85
3, 359080, Note_off_c, 2, 36, 0
3, 359280, Note_on_c, 2, 43, 95
3, 359520, Note_off_c, 2, 43, 0
3, 359520, Note_on_c, 2, 28, 85
3, 359560, Note_off_c, 2, 28, 0
3, 359760, Note_on_c, 2, 42, 95
3, 360000, Note_off_c, 2, 42, 0
3, 360000, Note_on_c, 2, 28, 85
3, 360040, Note_off_c, 2, 28, 0
3, 360240, Note_on_c, 2, 40, 95
3, 360480, Note_off_c, 2, 40, 0
3, 360480, Note_on_c, 2, 38, 95
3, 360960, Note_off_c, 2, 38, 0
3, 360960, Note_on_c, 2, 40, 95
3, 361440, Note_off_c, 2, 40, 0
3, 361440, Note_on_c, 2, 50, 95
3, 361680, Note_off_c, 2, 50, 0
3, 361920, Note_on_c, 2, 52, 95
3, 362400, Note_off_c, 2, 52, 0
3, 362400, Note_on_c, 2, 40, 95
3, 362880, Note_off_c, 2, 40, 0
3, 362880, Note_on_c, 2, 40, 85
3, 362920, Note_off_c, 2, 40, 0
3, 363120, Note_on_c, 2, 50, 95
3, 363360, Note_off_c, 2, 50, 0
3, 363360, Note_on_c, 2, 33, 85
3, 363400, Note_off_c, 2, 33, 0
3, 363600, Note_on_c, 2, 52, 95
3, 363840, Note_off_c, 2, 52, 0
3, 363840, Note_on_c, 2, 33, 85
3, 363880, Note_off_c, 2, 33, 0
3, 364080, Note_on_c, 2, 52, 95
3, 364320, Note_off_c, 2, 52, 0
3, 364320, Note_on_c, 2, 40, 95
3, 364800, Note_off_c, 2, 40, 0
3, 364800, Note_on_c, 2, 38, 95
3, 365280, Note_off_c, 2, 38, 0
3, 365280, Note_on_c, 2, 50, 95
3, 365520, Note_off_c, 2, 50, 0
3, 365760, Note_on_c, 2, 52, 95
3, 366240, Note_off_c, 2, 52, 0
3, 366240, Note_on_c, 2, 38, 95
3, 366720, Note_off_c, 2, 38, 0
3, 366720, Note_on_c, 2, 38, 85
3, 366760, Note_off_c, 2, 38, 0
3, 366960, Note_on_c, 2, 50, 95
3, 367200, Note_off_c, 2, 50, 0
3, 367200, Note_on_c, 2, 33, 85
3, 367240, Note_off_c, 2, 33, 0
3, 367440, Note_on_c, 2, 52, 95
3, 367680, Note_off_c, 2, 52, 0
3, 367680, Note_on_c, 2, 33, 85
3, 367720, Note_off_c, 2, 33, 0
3, 367920, Note_on_c, 2, 52, 95
3, 368160, Note_off_c, 2, 52, 0
3, 368160, Note_on_c, 2, 33, 95
3, 368640, Note_off_c, 2, 33, 0
3, 368640, Note_on_c, 2, 35, 95
3, 369120, Note_off_c, 2, 35, 0
3, 369120, Note_on_c, 2, 47, 95
3, 369360, Note_off_c, 2, 47, 0
3, 369600, Note_on_c, 2, 47, 95
3, 370080, Note_off_c, 2, 47, 0
3, 370080, Note_on_c, 2, 35, 95
3, 370560, Note_off_c, 2, 35, 0
3, 370560, Note_on_c, 2, 35, 85
3, 370600, Note_off_c, 2, 35, 0
3, 370800, Note_on_c, 2, 47, 95
3, 371040, Note_off_c, 2, 47, 0
3, 371040, Note_on_c, 2, 28, 85
3, 371080, Note_off_c, 2, 28, 0
3, 371280, Note_on_c, 2, 47, 95
3, 371520, Note_off_c, 2, 47, 0
3, 371520, Note_on_c, 2, 28, 85
3, 371560, Note_off_c, 2, 28, 0
3, 371760, Note_on_c, 2, 47, 95
3, 372000, Note_off_c, 2, 47, 0
3, 372000, Note_on_c, 2, 35, 95
3, 372480, Note_off_c, 2, 35, 0
3, 372480, Note_on_c, 2, 36, 95
3, 372960, Note_off_c, 2, 36, 0
3, 372960, Note_on_c, 2, 48, 95
3, 373200, Note_off_c, 2, 48, 0
3, 373440, Note_on_c, 2, 48, 95
3, 373920, Note_off_c, 2, 48, 0
3, 373920, Note_on_c, 2, 36, 95
3, 374400, Note_off_c, 2, 36, 0
3, 374400, Note_on_c, 2, 36, 85
3, 374440, Note_off_c, 2, 36, 0
3, 374640, Note_on_c, 2, 43, 95
3, 374880, Note_off_c, 2, 43, 0
3, 374880, Note_on_c, 2, 28, 85
3, 374920, Note_off_c, 2, 28, 0
3, 375120, Note_on_c, 2, 42, 95
3, 375360, Note_off_c, 2, 42, 0
3, 375360, Note_on_c, 2, 28, 85
3, 375400, Note_off_c, 2, 28, 0
3, 375600, Note_on_c, 2, 40, 95
3, 375840, Note_off_c, 2, 40, 0
3, 375840, Note_on_c, 2, 38, 95
3, 376320, Note_off_c, 2, 38, 0
3, 376320, Note_on_c, 2, 40, 95
3, 376800, Note_off_c, 2, 40, 0
3, 376800, Note_on_c, 2, 50, 95
3, 377040, Note_off_c, 2, 50, 0
3, 377280, Note_on_c, 2, 52, 95
3, 377760, Note_off_c, 2, 52, 0
3, 377760, Note_on_c, 2, 40, 95
3, 378240, Note_off_c, 2, 40, 0
3, 378240, Note_on_c, 2, 40, 85
3, 378280, Note_off_c, 2, 40, 0
3, 378480, Note_on_c, 2, 50, 95
3, 378720, Note_off_c, 2, 50, 0
3, 378720, Note_on_c, 2, 33, 85
3, 378760, Note_off_c, 2, 33, 0
3, 378960, Note_on_c, 2, 52, 95
3, 379200, Note_off_c, 2, 52, 0
3, 379200, Note_on_c, 2, 33, 85
3, 379240, Note_off_c, 2, 33, 0
3, 379440, Note_on_c, 2, 52, 95
3, 379680, Note_off_c, 2, 52, 0
3, 379680, Note_on_c, 2, 40, 95
3, 380160, Note_off_c, 2, 40, 0
3, 380160, Note_on_c, 2, 38, 95
3, 380640, Note_off_c, 2, 38, 0
3, 380640, Note_on_c, 2, 50, 95
3, 380880, Note_off_c, 2, 50, 0
3, 381120, Note_on_c, 2, 52, 95
3, 381600, Note_off_c, 2, 52, 0
3, 381600, Note_on_c, 2, 38, 95
3, 382080, Note_off_c, 2, 38, 0
3, 382080, Note_on_c, 2, 38, 85
3, 382120, Note_off_c, 2, 38, 0
3, 382320, Note_on_c, 2, 50, 95
3, 382560, Note_off_c, 2, 50, 0
3, 382560, Note_on_c, 2, 33, 85
3, 382600, Note_off_c, 2, 33, 0
3, 382800, Note_on_c, 2, 52, 95
3, 383040, Note_off_c, 2, 52, 0
3, 383040, Note_on_c, 2, 33, 85
3, 383080, Note_off_c, 2, 33, 0
3, 383280, Note_on_c, 2, 52, 95
3, 383520, Note_off_c, 2, 52, 0
3, 383520, Note_on_c, 2, 33, 95
3, 384000, Note_off_c, 2, 33, 0
3, 384000, Note_on_c, 2, 35, 95
3, 384480, Note_off_c, 2, 35, 0
3, 384480, Note_on_c, 2, 47, 95
3, 384720, Note_off_c, 2, 47, 0
3, 384960, Note_on_c, 2, 47, 95
3, 385440, Note_off_c, 2, 47, 0
3, 385440, Note_on_c, 2, 35, 95
3, 385920, Note_off_c, 2, 35, 0
3, 385920, Note_on_c, 2, 35, 85
3, 385960, Note_off_c, 2, 35, 0
3, 386160, Note_on_c, 2, 47, 95
3, 386400, Note_off_c, 2, 47, 0
3, 386400, Note_on_c, 2, 28, 85
3, 386440, Note_off_c, 2, 28, 0
3, 386640, Note_on_c, 2, 47, 95
3, 386880, Note_off_c, 2, 47, 0
3, 386880, Note_on_c, 2, 28, 85
3, 386920, Note_off_c, 2, 28, 0
3, 387120, Note_on_c, 2, 47, 95
3, 387360, Note_off_c, 2, 47, 0
3, 387360, Note_on_c, 2, 35, 95
3, 387840, Note_off_c, 2, 35, 0
3, 387840, Note_on_c, 2, 36, 95
3, 388320, Note_off_c, 2, 36, 0
3, 388320, Note_on_c, 2, 48, 95
3, 388560, Note_off_c, 2, 48, 0
3, 388800, Note_on_c, 2, 48, 95
3, 389280, Note_off_c, 2, 48, 0
3, 389280, Note_on_c, 2, 36, 95
3, 389760, Note_off_c, 2, 36, 0
3, 389760, Note_on_c, 2, 45, 95
3, 390000, Note_off_c, 2, 45, 0
3, 390000, Note_on_c, 2, 47, 95
3, 390240, Note_off_c, 2, 47, 0
3, 390240, Note_on_c, 2, 50, 95
3, 390480, Note_off_c, 2, 50, 0
3, 390480, Note_on_c, 2, 47, 95
3, 390720, Note_off_c, 2, 47, 0
3, 390720, Note_on_c, 2, 45, 95
3, 391200, Note_off_c, 2, 45, 0
3, 391200, Note_on_c, 2, 43, 95
3, 391680, Note_off_c, 2, 43, 0
3, 391680, Note_on_c, 2, 40, 95
3, 392160, Note_off_c, 2, 40, 0
3, 392160, Note_on_c, 2, 50, 95
3, 392400, Note_off_c, 2, 50, 0
3, 392640, Note_on_c, 2, 52, 95
3, 393120, Note_off_c, 2, 52, 0
3, 393120, Note_on_c, 2, 40, 95
3, 393600, Note_off_c, 2, 40, 0
3, 393600, Note_on_c, 2, 40, 85
3, 393640, Note_off_c, 2, 40, 0
3, 393840, Note_on_c, 2, 50, 95
3, 394080, Note_off_c, 2, 50, 0
3, 394080, Note_on_c, 2, 33, 85
3, 394120, Note_off_c, 2, 33, 0
3, 394320, Note_on_c, 2, 52, 95
3, 394560, Note_off_c, 2, 52, 0
3, 394560, Note_on_c, 2, 33, 85
3, 394600, Note_off_c, 2, 33, 0
3, 394800, Note_on_c, 2, 52, 95
3, 395040, Note_off_c, 2, 52, 0
3, 395040, Note_on_c, 2, 40, 95
3, 395520, Note_off_c, 2, 40, 0
3, 395520, Note_on_c, 2, 38, 95
3, 396000, Note_off_c, 2, 38, 0
3, 396000, Note_on_c, 2, 50, 95
3, 396240, Note_off_c, 2, 50, 0
3, 396480, Note_on_c, 2, 52, 95
3, 396960, Note_off_c, 2, 52, 0
3, 396960, Note_on_c, 2, 38, 95
3, 397440, Note_off_c, 2, 38, 0
3, 397440, Note_on_c, 2, 38, 85
3, 397480, Note_off_c, 2, 38, 0
3, 397680, Note_on_c, 2, 50, 95
3, 397920, Note_off_c, 2, 50, 0
3, 397920, Note_on_c, 2, 33, 85
3, 397960, Note_off_c, 2, 33, 0
3, 398160, Note_on_c, 2, 52, 95
3, 398400, Note_off_c, 2, 52, 0
3, 398400, Note_on_c, 2, 33, 85
3, 398440, Note_off_c, 2, 33, 0
3, 398640, Note_on_c, 2, 52, 95
3, 398880, Note_off_c, 2, 52, 0
3, 398880, Note_on_c, 2, 33, 95
3, 399360, Note_off_c, 2, 33, 0
3, 399360, Note_on_c, 2, 35, 95
3, 399840, Note_off_c, 2, 35, 0
3, 399840, Note_on_c, 2, 47, 95
3, 400080, Note_off_c, 2, 47, 0
3, 400320, Note_on_c, 2, 47, 95
3, 400800, Note_off_c, 2, 47, 0
3, 400800, Note_on_c, 2, 35, 95
3, 401280, Note_off_c, 2, 35, 0
3, 401280, Note_on_c, 2, 35, 85
3, 401320, Note_off_c, 2, 35, 0
3, 401520, Note_on_c, 2, 47, 95
3, 401760, Note_off_c, 2, 47, 0
3, 401760, Note_on_c, 2, 28, 85
3, 401800, Note_off_c, 2, 28, 0
3, 402000, Note_on_c, 2, 47, 95
3, 402240, Note_off_c, 2, 47, 0
3, 402240, Note_on_c, 2, 28, 85
3, 402280, Note_off_c, 2, 28, 0
3, 402480, Note_on_c, 2, 47, 95
3, 402720, Note_off_c, 2, 47, 0
3, 402720, Note_on_c, 2, 35, 95
3, 403200, Note_off_c, 2, 35, 0
3, 403200, Note_on_c, 2, 36, 95
3, 403680, Note_off_c, 2, 36, 0
3, 403680, Note_on_c, 2, 48, 95
3, 403920, Note_off_c, 2, 48, 0
3, 404160, Note_on_c, 2, 48, 95
3, 404640, Note_off_c, 2, 48, 0
3, 404640, Note_on_c, 2, 36, 95
3, 405120, Note_off_c, 2, 36, 0
3, 405120, Note_on_c, 2, 36, 85
3, 405160, Note_off_c, 2, 36, 0
3, 405360, Note_on_c, 2, 43, 95
3, 405600, Note_off_c, 2, 43, 0
3, 405600, Note_on_c, 2, 28, 85
3, 405640, Note_off_c, 2, 28, 0
3, 405840, Note_on_c, 2, 42, 95
3, 406080, Note_off_c, 2, 42, 0
3, 406080, Note_on_c, 2, 28, 85
3, 406120, Note_off_c, 2, 28, 0
3, 406320, Note_on_c, 2, 40, 95
3, 406560, Note_off_c, 2, 40, 0
3, 406560, Note_on_c, 2, 38, 95
3, 407040, Note_off_c, 2, 38, 0
3, 407040, Note_on_c, 2, 40, 95
3, 407520, Note_off_c, 2, 40, 0
3, 407520, Note_on_c, 2, 50, 95
3, 407760, Note_off_c, 2, 50, 0
3, 408000, Note_on_c, 2, 52, 95
3, 408480, Note_off_c, 2, 52, 0
3, 408480, Note_on_c, 2, 40, 95
3, 408960, Note_off_c, 2, 40, 0
3, 408960, Note_on_c, 2, 40, 85
3, 409000, Note_off_c, 2, 40, 0
3, 409200, Note_on_c, 2, 50, 95
3, 409440, Note_off_c, 2, 50, 0
3, 409440, Note_on_c, 2, 33, 85
3, 409480, Note_off_c, 2, 33, 0
3, 409680, Note_on_c, 2, 52, 95
3, 409920, Note_off_c, 2, 52, 0
3, 409920, Note_on_c, 2, 33, 85
3, 409960, Note_off_c, 2, 33, 0
3, 410160, Note_on_c, 2, 52, 95
3, 410400, Note_off_c, 2, 52, 0
3, 410400, Note_on_c, 2, 40, 95
3, 410880, Note_off_c, 2, 40, 0
3, 410880, Note_on_c, 2, 38, 95
3, 411360, Note_off_c, 2, 38, 0
3, 411360, Note_on_c, 2, 50, 95
3, 411600, Note_off_c, 2, 50, 0
3, 411840, Note_on_c, 2, 52, 95
3, 412320, Note_off_c, 2, 52, 0
3, 412320, Note_on_c, 2, 38, 95
3, 412800, Note_off_c, 2, 38, 0
3, 412800, Note_on_c, 2, 38, 85
3, 412840, Note_off_c, 2, 38, 0
3, 413040, Note_on_c, 2, 50, 95
3, 413280, Note_off_c, 2, 50, 0
3, 413280, Note_on_c, 2, 33, 85
3, 413320, Note_off_c, 2, 33, 0
3, 413520, Note_on_c, 2, 52, 95
3, 413760, Note_off_c, 2, 52, 0
3, 413760, Note_on_c, 2, 33, 85
3, 413800, Note_off_c, 2, 33, 0
3, 414000, Note_on_c, 2, 52, 95
3, 414240, Note_off_c, 2, 52, 0
3, 414240, Note_on_c, 2, 33, 95
3, 414720, Note_off_c, 2, 33, 0
3, 414720, Note_on_c, 2, 35, 95
3, 415200, Note_off_c, 2, 35, 0
3, 415200, Note_on_c, 2, 47, 95
3, 415440, Note_off_c, 2, 47, 0
3, 415680, Note_on_c, 2, 47, 95
3, 416160, Note_off_c, 2, 47, 0
3, 416160, Note_on_c, 2, 35, 95
3, 416640, Note_off_c, 2, 35, 0
3, 416640, Note_on_c, 2, 35, 85
3, 416680, Note_off_c, 2, 35, 0
3, 416880, Note_on_c, 2, 47, 95
3, 417120, Note_off_c, 2, 47, 0
3, 417120, Note_on_c, 2, 28, 85
3, 417160, Note_off_c, 2, 28, 0
3, 417360, Note_on_c, 2, 47, 95
3, 417600, Note_off_c, 2, 47, 0
3, 417600, Note_on_c, 2, 28, 85
3, 417640, Note_off_c, 2, 28, 0
3, 417840, Note_on_c, 2, 47, 95
3, 418080, Note_off_c, 2, 47, 0
3, 418080, Note_on_c, 2, 35, 95
3, 418560, Note_off_c, 2, 35, 0
3, 418560, Note_on_c, 2, 36, 95
3, 419040, Note_off_c, 2, 36, 0
3, 419040, Note_on_c, 2, 48, 95
3, 419280, Note_off_c, 2, 48, 0
3, 420480, Program_c, 1, 33
3, 420480, Note_on_c, 1, 57, 95
3, 420480, Control_c, 1, 101, 0
3, 420480, Control_c, 1, 100, 0
3, 420480, Control_c, 1, 6, 6
3, 420480, Control_c, 1, 38, 0
3, 420480, Pitch_bend_c, 1, 8192
3, 420528, Pitch_bend_c, 1, 8704
3, 420576, Pitch_bend_c, 1, 9216
3, 420624, Pitch_bend_c, 1, 9728
3, 420672, Pitch_bend_c, 1, 10240
3, 420720, Pitch_bend_c, 1, 10752
3, 420768, Pitch_bend_c, 1, 10752
3, 420816, Pitch_bend_c, 1, 10752
3, 420864, Pitch_bend_c, 1, 10752
3, 420912, Pitch_bend_c, 1, 10752
3, 420960, Note_off_c, 1, 57, 0
3, 420960, Pitch_bend_c, 1, 10752
3, 420960, Pitch_bend_c, 1, 8064
3, 420960, Control_c, 1, 101, 127
3, 420960, Control_c, 1, 10, 127
3, 421440, Note_on_c, 2, 55, 95
3, 421920, Note_off_c, 2, 55, 0
3, 422400, Note_on_c, 2, 40, 95
3, 422880, Note_off_c, 2, 40, 0
3, 422880, End_track
4, 0, Start_track
4, 0, MIDI_port, 1
4, 0, Title_t, "John - Guitar"
4, 0, Program_c, 0, 27
4, 7680, Note_on_c, 0, 50, 95
4, 7920, Note_off_c, 0, 50, 0
4, 7920, Note_on_c, 0, 52, 95
4, 8400, Note_off_c, 0, 52, 0
4, 8400, Note_on_c, 0, 50, 95
4, 8640, Note_off_c, 0, 50, 0
4, 8640, Note_on_c, 0, 52, 95
4, 9120, Note_off_c, 0, 52, 0
4, 9120, Note_on_c, 0, 50, 95
4, 9360, Note_off_c, 0, 50, 0
4, 9360, Note_on_c, 0, 52, 95
4, 9840, Note_off_c, 0, 52, 0
4, 9840, Note_on_c, 0, 50, 95
4, 10080, Note_off_c, 0, 50, 0
4, 10080, Note_on_c, 0, 52, 95
4, 10560, Note_off_c, 0, 52, 0
4, 10560, Note_on_c, 0, 50, 95
4, 10800, Note_off_c, 0, 50, 0
4, 10800, Note_on_c, 0, 52, 95
4, 11280, Note_off_c, 0, 52, 0
4, 15360, Note_on_c, 0, 50, 95
4, 15600, Note_off_c, 0, 50, 0
4, 15600, Note_on_c, 0, 52, 95
4, 16080, Note_off_c, 0, 52, 0
4, 16080, Note_on_c, 0, 50, 95
4, 16320, Note_off_c, 0, 50, 0
4, 16320, Note_on_c, 0, 52, 95
4, 16800, Note_off_c, 0, 52, 0
4, 16800, Note_on_c, 0, 50, 95
4, 17040, Note_off_c, 0, 50, 0
4, 17040, Note_on_c, 0, 52, 95
4, 17520, Note_off_c, 0, 52, 0
4, 17520, Note_on_c, 0, 50, 95
4, 17760, Note_off_c, 0, 50, 0
4, 17760, Note_on_c, 0, 52, 95
4, 18240, Note_off_c, 0, 52, 0
4, 18240, Note_on_c, 0, 50, 95
4, 18480, Note_off_c, 0, 50, 0
4, 18480, Note_on_c, 0, 52, 95
4, 18960, Note_off_c, 0, 52, 0
4, 23040, Note_on_c, 0, 50, 95
4, 23280, Note_off_c, 0, 50, 0
4, 23280, Note_on_c, 0, 52, 95
4, 23760, Note_off_c, 0, 52, 0
4, 23760, Note_on_c, 0, 50, 95
4, 24000, Note_off_c, 0, 50, 0
4, 24000, Note_on_c, 0, 52, 95
4, 24480, Note_off_c, 0, 52, 0
4, 24480, Note_on_c, 0, 50, 95
4, 24720, Note_off_c, 0, 50, 0
4, 24720, Note_on_c, 0, 52, 95
4, 25200, Note_off_c, 0, 52, 0
4, 25200, Note_on_c, 0, 50, 95
4, 25440, Note_off_c, 0, 50, 0
4, 25440, Note_on_c, 0, 52, 95
4, 25920, Note_off_c, 0, 52, 0
4, 25920, Note_on_c, 0, 50, 95
4, 26160, Note_off_c, 0, 50, 0
4, 26160, Note_on_c, 0, 52, 95
4, 26640, Note_off_c, 0, 52, 0
4, 30720, Note_on_c, 0, 50, 95
4, 30960, Note_off_c, 0, 50, 0
4, 30960, Note_on_c, 0, 52, 95
4, 31440, Note_off_c, 0, 52, 0
4, 31440, Note_on_c, 0, 50, 95
4, 31680, Note_off_c, 0, 50, 0
4, 31680, Note_on_c, 0, 52, 95
4, 32160, Note_off_c, 0, 52, 0
4, 32160, Note_on_c, 0, 50, 95
4, 32400, Note_off_c, 0, 50, 0
4, 32400, Note_on_c, 0, 52, 95
4, 32880, Note_off_c, 0, 52, 0
4, 32880, Note_on_c, 0, 50, 95
4, 33120, Note_off_c, 0, 50, 0
4, 33120, Note_on_c, 0, 52, 95
4, 33600, Note_off_c, 0, 52, 0
4, 33600, Note_on_c, 0, 50, 95
4, 33840, Note_off_c, 0, 50, 0
4, 33840, Note_on_c, 0, 52, 95
4, 34320, Note_off_c, 0, 52, 0
4, 35040, Program_c, 1, 27
4, 35040, Note_on_c, 1, 57, 95
4, 35040, Control_c, 1, 101, 0
4, 35040, Control_c, 1, 100, 0
4, 35040, Control_c, 1, 6, 6
4, 35040, Control_c, 1, 38, 0
4, 35040, Pitch_bend_c, 1, 8192
4, 35064, Pitch_bend_c, 1, 8448
4, 35088, Pitch_bend_c, 1, 8704
4, 35112, Pitch_bend_c, 1, 8960
4, 35136, Pitch_bend_c, 1, 9216
4, 35160, Pitch_bend_c, 1, 9472
4, 35184, Pitch_bend_c, 1, 9472
4, 35208, Pitch_bend_c, 1, 9472
4, 35232, Pitch_bend_c, 1, 9472
4, 35256, Pitch_bend_c, 1, 9472
4, 35280, Note_off_c, 1, 57, 0
4, 35280, Pitch_bend_c, 1, 9472
4, 35280, Pitch_bend_c, 1, 8064
4, 35280, Control_c, 1, 101, 127
4, 35280, Control_c, 1, 10, 127
4, 35520, Program_c, 1, 27
4, 35520, Note_on_c, 1, 57, 95
4, 35520, Control_c, 1, 101, 0
4, 35520, Control_c, 1, 100, 0
4, 35520, Control_c, 1, 6, 6
4, 35520, Control_c, 1, 38, 0
4, 35520, Pitch_bend_c, 1, 8192
4, 35568, Pitch_bend_c, 1, 8704
4, 35616, Pitch_bend_c, 1, 9216
4, 35640, Pitch_bend_c, 1, 9472
4, 35688, Pitch_bend_c, 1, 9472
4, 35736, Pitch_bend_c, 1, 9472
4, 35760, Pitch_bend_c, 1, 9472
4, 35808, Pitch_bend_c, 1, 8960
4, 35856, Pitch_bend_c, 1, 8448
4, 35880, Pitch_bend_c, 1, 8192
4, 35928, Pitch_bend_c, 1, 8192
4, 35976, Pitch_bend_c, 1, 8192
4, 36000, Note_off_c, 1, 57, 0
4, 36000, Pitch_bend_c, 1, 8192
4, 36000, Pitch_bend_c, 1, 8064
4, 36000, Control_c, 1, 101, 127
4, 36000, Control_c, 1, 10, 127
4, 36000, Note_on_c, 0, 55, 95
4, 36240, Note_off_c, 0, 55, 0
4, 36240, Program_c, 1, 27
4, 36240, Note_on_c, 1, 57, 95
4, 36240, Control_c, 1, 101, 0
4, 36240, Control_c, 1, 100, 0
4, 36240, Control_c, 1, 6, 6
4, 36240, Control_c, 1, 38, 0
4, 36240, Pitch_bend_c, 1, 8192
4, 36264, Pitch_bend_c, 1, 8448
4, 36288, Pitch_bend_c, 1, 8704
4, 36312, Pitch_bend_c, 1, 8960
4, 36336, Pitch_bend_c, 1, 9216
4, 36360, Pitch_bend_c, 1, 9472
4, 36384, Pitch_bend_c, 1, 9472
4, 36408, Pitch_bend_c, 1, 9472
4, 36432, Pitch_bend_c, 1, 9472
4, 36456, Pitch_bend_c, 1, 9472
4, 36480, Note_off_c, 1, 57, 0
4, 36480, Pitch_bend_c, 1, 9472
4, 36480, Pitch_bend_c, 1, 8064
4, 36480, Control_c, 1, 101, 127
4, 36480, Control_c, 1, 10, 127
4, 36720, Program_c, 1, 27
4, 36720, Note_on_c, 1, 57, 95
4, 36720, Control_c, 1, 101, 0
4, 36720, Control_c, 1, 100, 0
4, 36720, Control_c, 1, 6, 6
4, 36720, Control_c, 1, 38, 0
4, 36720, Pitch_bend_c, 1, 8192
4, 36816, Pitch_bend_c, 1, 8448
4, 36912, Pitch_bend_c, 1, 8704
4, 37008, Pitch_bend_c, 1, 8960
4, 37104, Pitch_bend_c, 1, 9216
4, 37200, Pitch_bend_c, 1, 9472
4, 37296, Pitch_bend_c, 1, 9472
4, 37392, Pitch_bend_c, 1, 9472
4, 37488, Pitch_bend_c, 1, 9472
4, 37584, Pitch_bend_c, 1, 9472
4, 37680, Note_off_c, 1, 57, 0
4, 37680, Pitch_bend_c, 1, 9472
4, 37680, Pitch_bend_c, 1, 8064
4, 37680, Control_c, 1, 101, 127
4, 37680, Control_c, 1, 10, 127
4, 37680, Program_c, 1, 27
4, 37680, Note_on_c, 1, 57, 50
4, 37680, Control_c, 1, 101, 0
4, 37680, Control_c, 1, 100, 0
4, 37680, Control_c, 1, 6, 6
4, 37680, Control_c, 1, 38, 0
4, 37680, Pitch_bend_c, 1, 9472
4, 37752, Pitch_bend_c, 1, 9472
4, 37824, Pitch_bend_c, 1, 9472
4, 37896, Pitch_bend_c, 1, 9472
4, 37920, Pitch_bend_c, 1, 9472
4, 37992, Pitch_bend_c, 1, 9088
4, 38064, Pitch_bend_c, 1, 8703
4, 38136, Pitch_bend_c, 1, 8320
4, 38160, Pitch_bend_c, 1, 8192
4, 38232, Pitch_bend_c, 1, 8192
4, 38304, Pitch_bend_c, 1, 8192
4, 38376, Pitch_bend_c, 1, 8192
4, 38400, Note_off_c, 1, 57, 0
4, 38400, Pitch_bend_c, 1, 8192
4, 38400, Pitch_bend_c, 1, 8064
4, 38400, Control_c, 1, 101, 127
4, 38400, Control_c, 1, 10, 127
4, 38400, Note_on_c, 0, 50, 95
4, 38640, Note_off_c, 0, 50, 0
4, 38640, Note_on_c, 0, 52, 95
4, 39120, Note_off_c, 0, 52, 0
4, 39120, Note_on_c, 0, 50, 95
4, 39360, Note_off_c, 0, 50, 0
4, 39360, Note_on_c, 0, 52, 95
4, 39840, Note_off_c, 0, 52, 0
4, 39840, Note_on_c, 0, 50, 95
4, 40080, Note_off_c, 0, 50, 0
4, 40080, Note_on_c, 0, 52, 95
4, 40560, Note_off_c, 0, 52, 0
4, 40560, Note_on_c, 0, 50, 95
4, 40800, Note_off_c, 0, 50, 0
4, 40800, Note_on_c, 0, 52, 95
4, 41280, Note_off_c, 0, 52, 0
4, 41280, Note_on_c, 0, 50, 95
4, 41520, Note_off_c, 0, 50, 0
4, 41520, Note_on_c, 0, 52, 95
4, 42000, Note_off_c, 0, 52, 0
4, 42240, Note_on_c, 0, 50, 95
4, 42480, Note_off_c, 0, 50, 0
4, 42480, Note_on_c, 0, 52, 95
4, 42960, Note_off_c, 0, 52, 0
4, 42960, Note_on_c, 0, 50, 95
4, 43200, Note_off_c, 0, 50, 0
4, 43200, Note_on_c, 0, 52, 95
4, 43680, Note_off_c, 0, 52, 0
4, 43680, Note_on_c, 0, 50, 95
4, 43920, Note_off_c, 0, 50, 0
4, 43920, Note_on_c, 0, 52, 95
4, 44400, Note_off_c, 0, 52, 0
4, 44400, Note_on_c, 0, 50, 95
4, 44640, Note_off_c, 0, 50, 0
4, 44640, Note_on_c, 0, 52, 95
4, 45120, Note_off_c, 0, 52, 0
4, 45120, Note_on_c, 0, 50, 95
4, 45360, Note_off_c, 0, 50, 0
4, 45360, Note_on_c, 0, 52, 95
4, 45840, Note_off_c, 0, 52, 0
4, 46080, Note_on_c, 0, 50, 95
4, 46320, Note_off_c, 0, 50, 0
4, 46320, Note_on_c, 0, 52, 95
4, 46800, Note_off_c, 0, 52, 0
4, 46800, Note_on_c, 0, 50, 95
4, 47040, Note_off_c, 0, 50, 0
4, 47040, Note_on_c, 0, 52, 95
4, 47520, Note_off_c, 0, 52, 0
4, 47520, Note_on_c, 0, 50, 95
4, 47760, Note_off_c, 0, 50, 0
4, 47760, Note_on_c, 0, 52, 95
4, 48240, Note_off_c, 0, 52, 0
4, 48240, Note_on_c, 0, 50, 95
4, 48480, Note_off_c, 0, 50, 0
4, 48480, Note_on_c, 0, 52, 95
4, 48960, Note_off_c, 0, 52, 0
4, 48960, Note_on_c, 0, 50, 95
4, 49200, Note_off_c, 0, 50, 0
4, 49200, Note_on_c, 0, 52, 95
4, 49680, Note_off_c, 0, 52, 0
4, 49920, Note_on_c, 0, 50, 95
4, 50160, Note_off_c, 0, 50, 0
4, 50160, Note_on_c, 0, 52, 95
4, 50640, Note_off_c, 0, 52, 0
4, 50640, Note_on_c, 0, 50, 95
4, 50880, Note_off_c, 0, 50, 0
4, 50880, Note_on_c, 0, 52, 95
4, 51360, Note_off_c, 0, 52, 0
4, 51360, Note_on_c, 0, 50, 95
4, 51600, Note_off_c, 0, 50, 0
4, 51600, Note_on_c, 0, 52, 95
4, 52080, Note_off_c, 0, 52, 0
4, 52320, Program_c, 1, 27
4, 52320, Note_on_c, 1, 57, 95
4, 52320, Control_c, 1, 101, 0
4, 52320, Control_c, 1, 100, 0
4, 52320, Control_c, 1, 6, 6
4, 52320, Control_c, 1, 38, 0
4, 52320, Pitch_bend_c, 1, 8192
4, 52392, Pitch_bend_c, 1, 8576
4, 52464, Pitch_bend_c, 1, 8960
4, 52536, Pitch_bend_c, 1, 9344
4, 52560, Pitch_bend_c, 1, 9472
4, 52632, Pitch_bend_c, 1, 9472
4, 52704, Pitch_bend_c, 1, 9472
4, 52776, Pitch_bend_c, 1, 9472
4, 52800, Pitch_bend_c, 1, 9472
4, 52800, Note_on_c, 0, 62, 95
4, 53040, Note_off_c, 1, 57, 0
4, 53040, Note_off_c, 0, 62, 0
4, 53040, Pitch_bend_c, 1, 9472
4, 53040, Pitch_bend_c, 1, 8064
4, 53040, Control_c, 1, 101, 127
4, 53040, Control_c, 1, 10, 127
4, 53040, Program_c, 1, 27
4, 53040, Note_on_c, 1, 57, 95
4, 53040, Control_c, 1, 101, 0
4, 53040, Control_c, 1, 100, 0
4, 53040, Control_c, 1, 6, 6
4, 53040, Control_c, 1, 38, 0
4, 53040, Pitch_bend_c, 1, 9472
4, 53112, Pitch_bend_c, 1, 8960
4, 53184, Pitch_bend_c, 1, 8448
4, 53220, Pitch_bend_c, 1, 8192
4, 53292, Pitch_bend_c, 1, 8192
4, 53364, Pitch_bend_c, 1, 8192
4, 53436, Pitch_bend_c, 1, 8192
4, 53508, Pitch_bend_c, 1, 8192
4, 53580, Pitch_bend_c, 1, 8192
4, 53640, Pitch_bend_c, 1, 8192
4, 53712, Pitch_bend_c, 1, 8192
4, 53760, Note_off_c, 1, 57, 0
4, 53760, Pitch_bend_c, 1, 8192
4, 53760, Pitch_bend_c, 1, 8064
4, 53760, Control_c, 1, 101, 127
4, 53760, Control_c, 1, 10, 127
4, 53760, Note_on_c, 0, 50, 95
4, 54000, Note_off_c, 0, 50, 0
4, 54000, Note_on_c, 0, 52, 95
4, 54480, Note_off_c, 0, 52, 0
4, 54480, Note_on_c, 0, 50, 95
4, 54720, Note_off_c, 0, 50, 0
4, 54720, Note_on_c, 0, 52, 95
4, 55200, Note_off_c, 0, 52, 0
4, 55200, Note_on_c, 0, 50, 95
4, 55440, Note_off_c, 0, 50, 0
4, 55440, Note_on_c, 0, 52, 95
4, 55920, Note_off_c, 0, 52, 0
4, 55920, Note_on_c, 0, 50, 95
4, 55920, Note_on_c, 0, 40, 85
4, 55960, Note_off_c, 0, 40, 0
4, 56160, Note_off_c, 0, 50, 0
4, 56160, Note_on_c, 0, 52, 95
4, 56160, Note_on_c, 0, 40, 85
4, 56240, Note_off_c, 0, 40, 0
4, 56640, Note_off_c, 0, 52, 0
4, 56640, Note_on_c, 0, 50, 95
4, 56640, Note_on_c, 0, 40, 85
4, 56680, Note_off_c, 0, 40, 0
4, 56880, Note_off_c, 0, 50, 0
4, 56880, Note_on_c, 0, 52, 95
4, 56880, Note_on_c, 0, 40, 85
4, 56960, Note_off_c, 0, 40, 0
4, 57360, Note_off_c, 0, 52, 0
4, 57600, Note_on_c, 0, 50, 95
4, 57600, Note_on_c, 0, 40, 85
4, 57640, Note_off_c, 0, 40, 0
4, 57840, Note_off_c, 0, 50, 0
4, 57840, Note_on_c, 0, 52, 95
4, 57840, Note_on_c, 0, 40, 85
4, 57920, Note_off_c, 0, 40, 0
4, 58320, Note_off_c, 0, 52, 0
4, 58320, Note_on_c, 0, 50, 95
4, 58320, Note_on_c, 0, 40, 85
4, 58360, Note_off_c, 0, 40, 0
4, 58560, Note_off_c, 0, 50, 0
4, 58560, Note_on_c, 0, 52, 95
4, 58560, Note_on_c, 0, 40, 85
4, 58640, Note_off_c, 0, 40, 0
4, 59040, Note_off_c, 0, 52, 0
4, 59040, Note_on_c, 0, 50, 95
4, 59040, Note_on_c, 0, 40, 85
4, 59080, Note_off_c, 0, 40, 0
4, 59280, Note_off_c, 0, 50, 0
4, 59280, Note_on_c, 0, 52, 95
4, 59280, Note_on_c, 0, 40, 85
4, 59360, Note_off_c, 0, 40, 0
4, 59760, Note_off_c, 0, 52, 0
4, 59760, Note_on_c, 0, 50, 95
4, 59760, Note_on_c, 0, 40, 85
4, 59800, Note_off_c, 0, 40, 0
4, 60000, Note_off_c, 0, 50, 0
4, 60000, Note_on_c, 0, 52, 95
4, 60000, Note_on_c, 0, 40, 85
4, 60080, Note_off_c, 0, 40, 0
4, 60480, Note_off_c, 0, 52, 0
4, 60480, Note_on_c, 0, 50, 95
4, 60480, Note_on_c, 0, 40, 85
4, 60520, Note_off_c, 0, 40, 0
4, 60720, Note_off_c, 0, 50, 0
4, 60720, Note_on_c, 0, 52, 95
4, 60720, Note_on_c, 0, 40, 85
4, 60800, Note_off_c, 0, 40, 0
4, 61200, Note_off_c, 0, 52, 0
4, 61440, Note_on_c, 0, 50, 95
4, 61440, Note_on_c, 0, 40, 85
4, 61480, Note_off_c, 0, 40, 0
4, 61680, Note_off_c, 0, 50, 0
4, 61680, Note_on_c, 0, 52, 95
4, 61680, Note_on_c, 0, 40, 85
4, 61760, Note_off_c, 0, 40, 0
4, 62160, Note_off_c, 0, 52, 0
4, 62160, Note_on_c, 0, 50, 95
4, 62160, Note_on_c, 0, 40, 85
4, 62200, Note_off_c, 0, 40, 0
4, 62400, Note_off_c, 0, 50, 0
4, 62400, Note_on_c, 0, 52, 95
4, 62400, Note_on_c, 0, 40, 85
4, 62480, Note_off_c, 0, 40, 0
4, 62880, Note_off_c, 0, 52, 0
4, 62880, Note_on_c, 0, 50, 95
4, 62880, Note_on_c, 0, 40, 85
4, 62920, Note_off_c, 0, 40, 0
4, 63120, Note_off_c, 0, 50, 0
4, 63120, Note_on_c, 0, 52, 95
4, 63120, Note_on_c, 0, 40, 85
4, 63200, Note_off_c, 0, 40, 0
4, 63600, Note_off_c, 0, 52, 0
4, 63600, Note_on_c, 0, 50, 95
4, 63600, Note_on_c, 0, 40, 85
4, 63640, Note_off_c, 0, 40, 0
4, 63840, Note_off_c, 0, 50, 0
4, 63840, Note_on_c, 0, 52, 95
4, 63840, Note_on_c, 0, 40, 85
4, 63920, Note_off_c, 0, 40, 0
4, 64320, Note_off_c, 0, 52, 0
4, 64320, Note_on_c, 0, 50, 95
4, 64320, Note_on_c, 0, 40, 85
4, 64360, Note_off_c, 0, 40, 0
4, 64560, Note_off_c, 0, 50, 0
4, 64560, Note_on_c, 0, 52, 95
4, 64560, Note_on_c, 0, 40, 85
4, 64640, Note_off_c, 0, 40, 0
4, 65040, Note_off_c, 0, 52, 0
4, 65280, Note_on_c, 0, 50, 95
4, 65280, Note_on_c, 0, 40, 85
4, 65320, Note_off_c, 0, 40, 0
4, 65520, Note_off_c, 0, 50, 0
4, 65520, Note_on_c, 0, 52, 95
4, 65520, Note_on_c, 0, 40, 85
4, 65600, Note_off_c, 0, 40, 0
4, 66000, Note_off_c, 0, 52, 0
4, 66000, Note_on_c, 0, 50, 95
4, 66000, Note_on_c, 0, 40, 85
4, 66040, Note_off_c, 0, 40, 0
4, 66240, Note_off_c, 0, 50, 0
4, 66240, Note_on_c, 0, 52, 95
4, 66240, Note_on_c, 0, 40, 85
4, 66320, Note_off_c, 0, 40, 0
4, 66720, Note_off_c, 0, 52, 0
4, 66720, Note_on_c, 0, 50, 95
4, 66720, Note_on_c, 0, 40, 85
4, 66760, Note_off_c, 0, 40, 0
4, 66960, Note_off_c, 0, 50, 0
4, 66960, Note_on_c, 0, 52, 95
4, 66960, Note_on_c, 0, 40, 85
4, 67040, Note_off_c, 0, 40, 0
4, 67440, Note_off_c, 0, 52, 0
4, 67440, Note_on_c, 0, 50, 95
4, 67440, Note_on_c, 0, 40, 85
4, 67480, Note_off_c, 0, 40, 0
4, 67680, Note_off_c, 0, 50, 0
4, 67680, Note_on_c, 0, 52, 95
4, 67680, Note_on_c, 0, 40, 85
4, 67760, Note_off_c, 0, 40, 0
4, 68160, Note_off_c, 0, 52, 0
4, 68160, Note_on_c, 0, 50, 95
4, 68160, Note_on_c, 0, 40, 85
4, 68200, Note_off_c, 0, 40, 0
4, 68400, Note_off_c, 0, 50, 0
4, 68400, Note_on_c, 0, 52, 95
4, 68400, Note_on_c, 0, 40, 85
4, 68480, Note_off_c, 0, 40, 0
4, 68880, Note_off_c, 0, 52, 0
4, 69120, Note_on_c, 0, 52, 95
4, 69600, Note_off_c, 0, 52, 0
4, 69600, Note_on_c, 0, 62, 95
4, 69600, Note_on_c, 0, 50, 85
4, 69600, Note_on_c, 0, 52, 95
4, 69640, Note_off_c, 0, 50, 0
4, 69840, Note_off_c, 0, 62, 0
4, 69840, Note_off_c, 0, 52, 0
4, 70080, Note_on_c, 0, 64, 95
4, 70080, Note_on_c, 0, 50, 85
4, 70120, Note_off_c, 0, 50, 0
4, 70320, Note_off_c, 0, 64, 0
4, 70560, Note_on_c, 0, 52, 95
4, 70800, Note_off_c, 0, 52, 0
4, 70800, Note_on_c, 0, 52, 95
4, 71040, Note_off_c, 0, 52, 0
4, 71040, Note_on_c, 0, 52, 95
4, 71280, Note_off_c, 0, 52, 0
4, 71280, Note_on_c, 0, 62, 95
4, 71280, Note_on_c, 0, 50, 85
4, 71280, Note_on_c, 0, 52, 95
4, 71320, Note_off_c, 0, 50, 0
4, 71520, Note_off_c, 0, 62, 0
4, 71520, Note_off_c, 0, 52, 0
4, 71520, Note_on_c, 0, 55, 85
4, 71560, Note_off_c, 0, 55, 0
4, 71760, Note_on_c, 0, 64, 95
4, 72000, Note_off_c, 0, 64, 0
4, 72000, Note_on_c, 0, 64, 95
4, 72240, Note_off_c, 0, 64, 0
4, 72240, Note_on_c, 0, 52, 95
4, 72480, Note_off_c, 0, 52, 0
4, 72480, Note_on_c, 0, 52, 95
4, 72720, Note_off_c, 0, 52, 0
4, 72720, Note_on_c, 0, 52, 95
4, 72960, Note_off_c, 0, 52, 0
4, 72960, Note_on_c, 0, 50, 95
4, 73440, Note_off_c, 0, 50, 0
4, 73440, Note_on_c, 0, 62, 95
4, 73440, Note_on_c, 0, 50, 95
4, 73680, Note_off_c, 0, 62, 0
4, 73680, Note_off_c, 0, 50, 0
4, 73920, Note_on_c, 0, 64, 95
4, 74160, Note_off_c, 0, 64, 0
4, 74400, Note_on_c, 0, 50, 95
4, 74640, Note_off_c, 0, 50, 0
4, 74640, Note_on_c, 0, 50, 95
4, 74880, Note_off_c, 0, 50, 0
4, 74880, Note_on_c, 0, 50, 95
4, 75120, Note_off_c, 0, 50, 0
4, 75120, Note_on_c, 0, 62, 95
4, 75120, Note_on_c, 0, 50, 95
4, 75360, Note_off_c, 0, 62, 0
4, 75360, Note_off_c, 0, 50, 0
4, 75360, Note_on_c, 0, 55, 85
4, 75400, Note_off_c, 0, 55, 0
4, 75600, Note_on_c, 0, 64, 95
4, 75840, Note_off_c, 0, 64, 0
4, 75840, Note_on_c, 0, 64, 95
4, 76080, Note_off_c, 0, 64, 0
4, 76080, Note_on_c, 0, 45, 95
4, 76320, Note_off_c, 0, 45, 0
4, 76320, Note_on_c, 0, 50, 95
4, 76560, Note_off_c, 0, 50, 0
4, 76560, Note_on_c, 0, 50, 95
4, 76800, Note_off_c, 0, 50, 0
4, 76800, Note_on_c, 0, 47, 95
4, 77280, Note_off_c, 0, 47, 0
4, 77280, Note_on_c, 0, 62, 95
4, 77280, Note_on_c, 0, 50, 85
4, 77280, Note_on_c, 0, 45, 85
4, 77280, Note_on_c, 0, 47, 95
4, 77320, Note_off_c, 0, 50, 0
4, 77320, Note_off_c, 0, 45, 0
4, 77520, Note_off_c, 0, 62, 0
4, 77520, Note_off_c, 0, 47, 0
4, 77760, Note_on_c, 0, 64, 95
4, 78000, Note_off_c, 0, 64, 0
4, 78240, Note_on_c, 0, 47, 95
4, 78480, Note_off_c, 0, 47, 0
4, 78480, Note_on_c, 0, 47, 95
4, 78720, Note_off_c, 0, 47, 0
4, 78720, Note_on_c, 0, 47, 95
4, 78960, Note_off_c, 0, 47, 0
4, 78960, Note_on_c, 0, 62, 95
4, 78960, Note_on_c, 0, 50, 85
4, 78960, Note_on_c, 0, 45, 85
4, 78960, Note_on_c, 0, 47, 95
4, 79000, Note_off_c, 0, 50, 0
4, 79000, Note_off_c, 0, 45, 0
4, 79200, Note_off_c, 0, 62, 0
4, 79200, Note_off_c, 0, 47, 0
4, 79200, Note_on_c, 0, 55, 85
4, 79240, Note_off_c, 0, 55, 0
4, 79440, Note_on_c, 0, 64, 95
4, 79680, Note_off_c, 0, 64, 0
4, 79680, Note_on_c, 0, 64, 95
4, 79920, Note_off_c, 0, 64, 0
4, 79920, Note_on_c, 0, 47, 95
4, 80160, Note_off_c, 0, 47, 0
4, 80160, Note_on_c, 0, 47, 95
4, 80400, Note_off_c, 0, 47, 0
4, 80400, Note_on_c, 0, 47, 85
4, 80440, Note_off_c, 0, 47, 0
4, 80640, Note_on_c, 0, 48, 95
4, 81120, Note_off_c, 0, 48, 0
4, 81120, Note_on_c, 0, 62, 95
4, 81120, Note_on_c, 0, 50, 85
4, 81120, Note_on_c, 0, 45, 85
4, 81120, Note_on_c, 0, 48, 95
4, 81160, Note_off_c, 0, 50, 0
4, 81160, Note_off_c, 0, 45, 0
4, 81360, Note_off_c, 0, 62, 0
4, 81360, Note_off_c, 0, 48, 0
4, 81600, Note_on_c, 0, 64, 95
4, 81840, Note_off_c, 0, 64, 0
4, 82080, Note_on_c, 0, 48, 95
4, 82320, Note_off_c, 0, 48, 0
4, 82320, Note_on_c, 0, 48, 95
4, 82560, Note_off_c, 0, 48, 0
4, 82560, Note_on_c, 0, 48, 95
4, 82800, Note_off_c, 0, 48, 0
4, 82800, Note_on_c, 0, 62, 95
4, 82800, Note_on_c, 0, 50, 85
4, 82800, Note_on_c, 0, 45, 85
4, 82800, Note_on_c, 0, 48, 95
4, 82840, Note_off_c, 0, 50, 0
4, 82840, Note_off_c, 0, 45, 0
4, 83040, Note_off_c, 0, 62, 0
4, 83040, Note_off_c, 0, 48, 0
4, 83040, Note_on_c, 0, 55, 85
4, 83080, Note_off_c, 0, 55, 0
4, 83280, Note_on_c, 0, 64, 95
4, 83520, Note_off_c, 0, 64, 0
4, 83520, Note_on_c, 0, 64, 95
4, 83760, Note_off_c, 0, 64, 0
4, 83760, Note_on_c, 0, 48, 95
4, 84000, Note_off_c, 0, 48, 0
4, 84000, Note_on_c, 0, 48, 95
4, 84240, Note_off_c, 0, 48, 0
4, 84240, Note_on_c, 0, 48, 95
4, 84480, Note_off_c, 0, 48, 0
4, 84480, Note_on_c, 0, 52, 95
4, 84960, Note_off_c, 0, 52, 0
4, 84960, Note_on_c, 0, 62, 95
4, 84960, Note_on_c, 0, 50, 85
4, 84960, Note_on_c, 0, 52, 95
4, 85000, Note_off_c, 0, 50, 0
4, 85200, Note_off_c, 0, 62, 0
4, 85200, Note_off_c, 0, 52, 0
4, 85440, Note_on_c, 0, 64, 95
4, 85680, Note_off_c, 0, 64, 0
4, 85920, Note_on_c, 0, 52, 95
4, 86160, Note_off_c, 0, 52, 0
4, 86160, Note_on_c, 0, 52, 95
4, 86400, Note_off_c, 0, 52, 0
4, 86640, Note_on_c, 0, 62, 95
4, 86640, Note_on_c, 0, 50, 85
4, 86640, Note_on_c, 0, 52, 95
4, 86680, Note_off_c, 0, 50, 0
4, 86880, Note_off_c, 0, 62, 0
4, 86880, Note_off_c, 0, 52, 0
4, 86880, Note_on_c, 0, 55, 85
4, 86920, Note_off_c, 0, 55, 0
4, 87120, Note_on_c, 0, 64, 95
4, 87360, Note_off_c, 0, 64, 0
4, 87600, Note_on_c, 0, 52, 85
4, 87640, Note_off_c, 0, 52, 0
4, 87840, Note_on_c, 0, 52, 95
4, 88080, Note_off_c, 0, 52, 0
4, 88080, Note_on_c, 0, 52, 95
4, 88320, Note_off_c, 0, 52, 0
4, 88320, Note_on_c, 0, 50, 95
4, 88800, Note_off_c, 0, 50, 0
4, 88800, Note_on_c, 0, 62, 95
4, 88800, Note_on_c, 0, 50, 95
4, 89040, Note_off_c, 0, 62, 0
4, 89040, Note_off_c, 0, 50, 0
4, 89280, Note_on_c, 0, 64, 95
4, 89520, Note_off_c, 0, 64, 0
4, 89760, Note_on_c, 0, 50, 95
4, 90000, Note_off_c, 0, 50, 0
4, 90000, Note_on_c, 0, 50, 95
4, 90240, Note_off_c, 0, 50, 0
4, 90240, Note_on_c, 0, 50, 95
4, 90480, Note_off_c, 0, 50, 0
4, 90480, Note_on_c, 0, 62, 95
4, 90480, Note_on_c, 0, 50, 95
4, 90720, Note_off_c, 0, 62, 0
4, 90720, Note_off_c, 0, 50, 0
4, 90720, Note_on_c, 0, 55, 85
4, 90760, Note_off_c, 0, 55, 0
4, 90960, Note_on_c, 0, 64, 95
4, 91200, Note_off_c, 0, 64, 0
4, 91440, Note_on_c, 0, 50, 95
4, 91680, Note_off_c, 0, 50, 0
4, 91680, Note_on_c, 0, 50, 95
4, 91920, Note_off_c, 0, 50, 0
4, 91920, Note_on_c, 0, 50, 95
4, 92160, Note_off_c, 0, 50, 0
4, 92160, Note_on_c, 0, 62, 50
4, 92160, Note_on_c, 0, 50, 85
4, 92160, Note_on_c, 0, 45, 85
4, 92160, Note_on_c, 0, 47, 95
4, 92240, Note_off_c, 0, 50, 0
4, 92240, Note_off_c, 0, 45, 0
4, 92640, Note_off_c, 0, 62, 0
4, 92640, Note_off_c, 0, 47, 0
4, 92640, Note_on_c, 0, 62, 95
4, 92640, Note_on_c, 0, 50, 85
4, 92640, Note_on_c, 0, 45, 85
4, 92640, Note_on_c, 0, 47, 95
4, 92680, Note_off_c, 0, 50, 0
4, 92680, Note_off_c, 0, 45, 0
4, 92880, Note_off_c, 0, 62, 0
4, 92880, Note_off_c, 0, 47, 0
4, 93120, Note_on_c, 0, 64, 95
4, 93360, Note_off_c, 0, 64, 0
4, 93600, Note_on_c, 0, 47, 95
4, 93840, Note_off_c, 0, 47, 0
4, 93840, Note_on_c, 0, 47, 95
4, 94080, Note_off_c, 0, 47, 0
4, 94320, Note_on_c, 0, 62, 95
4, 94320, Note_on_c, 0, 50, 85
4, 94320, Note_on_c, 0, 45, 85
4, 94320, Note_on_c, 0, 47, 95
4, 94360, Note_off_c, 0, 50, 0
4, 94360, Note_off_c, 0, 45, 0
4, 94560, Note_off_c, 0, 62, 0
4, 94560, Note_off_c, 0, 47, 0
4, 94560, Note_on_c, 0, 55, 85
4, 94600, Note_off_c, 0, 55, 0
4, 94800, Note_on_c, 0, 64, 95
4, 95040, Note_off_c, 0, 64, 0
4, 95040, Note_on_c, 0, 64, 95
4, 95280, Note_off_c, 0, 64, 0
4, 95280, Note_on_c, 0, 47, 95
4, 95520, Note_off_c, 0, 47, 0
4, 95520, Note_on_c, 0, 47, 95
4, 95760, Note_off_c, 0, 47, 0
4, 95760, Note_on_c, 0, 47, 95
4, 96000, Note_off_c, 0, 47, 0
4, 96000, Note_on_c, 0, 48, 95
4, 96480, Note_off_c, 0, 48, 0
4, 96480, Note_on_c, 0, 62, 95
4, 96480, Note_on_c, 0, 50, 85
4, 96480, Note_on_c, 0, 45, 85
4, 96480, Note_on_c, 0, 48, 95
4, 96520, Note_off_c, 0, 50, 0
4, 96520, Note_off_c, 0, 45, 0
4, 96720, Note_off_c, 0, 62, 0
4, 96720, Note_off_c, 0, 48, 0
4, 96960, Note_on_c, 0, 64, 95
4, 97200, Note_off_c, 0, 64, 0
4, 97440, Note_on_c, 0, 48, 95
4, 97680, Note_off_c, 0, 48, 0
4, 97680, Note_on_c, 0, 48, 95
4, 97920, Note_off_c, 0, 48, 0
4, 98160, Note_on_c, 0, 62, 95
4, 98160, Note_on_c, 0, 50, 85
4, 98160, Note_on_c, 0, 45, 85
4, 98160, Note_on_c, 0, 48, 95
4, 98200, Note_off_c, 0, 50, 0
4, 98200, Note_off_c, 0, 45, 0
4, 98400, Note_off_c, 0, 62, 0
4, 98400, Note_off_c, 0, 48, 0
4, 98400, Note_on_c, 0, 55, 85
4, 98440, Note_off_c, 0, 55, 0
4, 98640, Note_on_c, 0, 64, 95
4, 99120, Note_off_c, 0, 64, 0
4, 99360, Note_on_c, 0, 48, 95
4, 99600, Note_off_c, 0, 48, 0
4, 99840, Note_on_c, 0, 52, 95
4, 100320, Note_off_c, 0, 52, 0
4, 100320, Note_on_c, 0, 62, 95
4, 100320, Note_on_c, 0, 50, 85
4, 100320, Note_on_c, 0, 52, 95
4, 100360, Note_off_c, 0, 50, 0
4, 100560, Note_off_c, 0, 62, 0
4, 100560, Note_off_c, 0, 52, 0
4, 100800, Note_on_c, 0, 64, 95
4, 101040, Note_off_c, 0, 64, 0
4, 101280, Note_on_c, 0, 52, 95
4, 101520, Note_off_c, 0, 52, 0
4, 101520, Note_on_c, 0, 52, 95
4, 101760, Note_off_c, 0, 52, 0
4, 102000, Note_on_c, 0, 62, 95
4, 102000, Note_on_c, 0, 50, 85
4, 102000, Note_on_c, 0, 52, 95
4, 102040, Note_off_c, 0, 50, 0
4, 102240, Note_off_c, 0, 62, 0
4, 102240, Note_off_c, 0, 52, 0
4, 102240, Note_on_c, 0, 55, 85
4, 102280, Note_off_c, 0, 55, 0
4, 102480, Note_on_c, 0, 64, 95
4, 102720, Note_off_c, 0, 64, 0
4, 102960, Note_on_c, 0, 52, 85
4, 103000, Note_off_c, 0, 52, 0
4, 103200, Note_on_c, 0, 52, 95
4, 103680, Note_off_c, 0, 52, 0
4, 103680, Note_on_c, 0, 55, 50
4, 103680, Note_on_c, 0, 50, 95
4, 104160, Note_off_c, 0, 55, 0
4, 104160, Note_off_c, 0, 50, 0
4, 104160, Note_on_c, 0, 62, 95
4, 104160, Note_on_c, 0, 50, 95
4, 104400, Note_off_c, 0, 62, 0
4, 104400, Note_off_c, 0, 50, 0
4, 104640, Note_on_c, 0, 64, 95
4, 104880, Note_off_c, 0, 64, 0
4, 105120, Note_on_c, 0, 50, 95
4, 105360, Note_off_c, 0, 50, 0
4, 105360, Note_on_c, 0, 55, 50
4, 105360, Note_on_c, 0, 50, 95
4, 105600, Note_off_c, 0, 55, 0
4, 105600, Note_off_c, 0, 50, 0
4, 105600, Note_on_c, 0, 50, 85
4, 105640, Note_off_c, 0, 50, 0
4, 105840, Note_on_c, 0, 62, 95
4, 105840, Note_on_c, 0, 50, 95
4, 106080, Note_off_c, 0, 62, 0
4, 106080, Note_off_c, 0, 50, 0
4, 106080, Note_on_c, 0, 55, 85
4, 106120, Note_off_c, 0, 55, 0
4, 106320, Note_on_c, 0, 64, 95
4, 106560, Note_off_c, 0, 64, 0
4, 106800, Note_on_c, 0, 55, 50
4, 106800, Note_on_c, 0, 50, 95
4, 106800, Note_on_c, 0, 45, 95
4, 107040, Note_off_c, 0, 55, 0
4, 107040, Note_off_c, 0, 50, 0
4, 107040, Note_off_c, 0, 45, 0
4, 107040, Note_on_c, 0, 55, 50
4, 107040, Note_on_c, 0, 50, 95
4, 107520, Note_off_c, 0, 55, 0
4, 107520, Note_off_c, 0, 50, 0
4, 107520, Note_on_c, 0, 47, 95
4, 108000, Note_off_c, 0, 47, 0
4, 108000, Note_on_c, 0, 62, 95
4, 108000, Note_on_c, 0, 50, 85
4, 108000, Note_on_c, 0, 45, 85
4, 108000, Note_on_c, 0, 47, 95
4, 108040, Note_off_c, 0, 50, 0
4, 108040, Note_off_c, 0, 45, 0
4, 108240, Note_off_c, 0, 62, 0
4, 108240, Note_off_c, 0, 47, 0
4, 108480, Note_on_c, 0, 64, 95
4, 108720, Note_off_c, 0, 64, 0
4, 108960, Note_on_c, 0, 47, 95
4, 109200, Note_off_c, 0, 47, 0
4, 109200, Note_on_c, 0, 47, 95
4, 109440, Note_off_c, 0, 47, 0
4, 109680, Note_on_c, 0, 62, 95
4, 109680, Note_on_c, 0, 50, 85
4, 109680, Note_on_c, 0, 45, 85
4, 109680, Note_on_c, 0, 47, 95
4, 109720, Note_off_c, 0, 50, 0
4, 109720, Note_off_c, 0, 45, 0
4, 109920, Note_off_c, 0, 62, 0
4, 109920, Note_off_c, 0, 47, 0
4, 109920, Note_on_c, 0, 55, 85
4, 109960, Note_off_c, 0, 55, 0
4, 110160, Note_on_c, 0, 64, 95
4, 110400, Note_off_c, 0, 64, 0
4, 110640, Note_on_c, 0, 47, 85
4, 110680, Note_off_c, 0, 47, 0
4, 110880, Note_on_c, 0, 47, 95
4, 111120, Note_off_c, 0, 47, 0
4, 111360, Note_on_c, 0, 48, 95
4, 111840, Note_off_c, 0, 48, 0
4, 111840, Note_on_c, 0, 62, 95
4, 111840, Note_on_c, 0, 50, 85
4, 111840, Note_on_c, 0, 45, 85
4, 111840, Note_on_c, 0, 48, 95
4, 111880, Note_off_c, 0, 50, 0
4, 111880, Note_off_c, 0, 45, 0
4, 112080, Note_off_c, 0, 62, 0
4, 112080, Note_off_c, 0, 48, 0
4, 112320, Note_on_c, 0, 64, 95
4, 112560, Note_off_c, 0, 64, 0
4, 112800, Note_on_c, 0, 48, 95
4, 113040, Note_off_c, 0, 48, 0
4, 113040, Note_on_c, 0, 48, 95
4, 113280, Note_off_c, 0, 48, 0
4, 113520, Note_on_c, 0, 62, 95
4, 113520, Note_on_c, 0, 50, 85
4, 113520, Note_on_c, 0, 45, 85
4, 113520, Note_on_c, 0, 48, 95
4, 113560, Note_off_c, 0, 50, 0
4, 113560, Note_off_c, 0, 45, 0
4, 113760, Note_off_c, 0, 62, 0
4, 113760, Note_off_c, 0, 48, 0
4, 113760, Note_on_c, 0, 55, 85
4, 113800, Note_off_c, 0, 55, 0
4, 114000, Note_on_c, 0, 64, 95
4, 114240, Note_off_c, 0, 64, 0
4, 114480, Note_on_c, 0, 48, 95
4, 114720, Note_off_c, 0, 48, 0
4, 114720, Note_on_c, 0, 48, 95
4, 114960, Note_off_c, 0, 48, 0
4, 114960, Note_on_c, 0, 48, 95
4, 115200, Note_off_c, 0, 48, 0
4, 115200, Note_on_c, 0, 52, 95
4, 115680, Note_off_c, 0, 52, 0
4, 115680, Note_on_c, 0, 62, 95
4, 115680, Note_on_c, 0, 50, 85
4, 115680, Note_on_c, 0, 52, 95
4, 115720, Note_off_c, 0, 50, 0
4, 115920, Note_off_c, 0, 62, 0
4, 115920, Note_off_c, 0, 52, 0
4, 116160, Note_on_c, 0, 64, 95
4, 116400, Note_off_c, 0, 64, 0
4, 116640, Note_on_c, 0, 52, 95
4, 116880, Note_off_c, 0, 52, 0
4, 116880, Note_on_c, 0, 52, 95
4, 117120, Note_off_c, 0, 52, 0
4, 117360, Note_on_c, 0, 62, 95
4, 117360, Note_on_c, 0, 50, 85
4, 117360, Note_on_c, 0, 52, 95
4, 117400, Note_off_c, 0, 50, 0
4, 117600, Note_off_c, 0, 62, 0
4, 117600, Note_off_c, 0, 52, 0
4, 117600, Note_on_c, 0, 55, 85
4, 117640, Note_off_c, 0, 55, 0
4, 117840, Note_on_c, 0, 64, 95
4, 118080, Note_off_c, 0, 64, 0
4, 118320, Note_on_c, 0, 52, 95
4, 118560, Note_off_c, 0, 52, 0
4, 118560, Note_on_c, 0, 52, 95
4, 118800, Note_off_c, 0, 52, 0
4, 118800, Note_on_c, 0, 52, 85
4, 118840, Note_off_c, 0, 52, 0
4, 119040, Note_on_c, 0, 50, 95
4, 119520, Note_off_c, 0, 50, 0
4, 119520, Note_on_c, 0, 62, 95
4, 119520, Note_on_c, 0, 50, 95
4, 119760, Note_off_c, 0, 62, 0
4, 119760, Note_off_c, 0, 50, 0
4, 120000, Note_on_c, 0, 64, 95
4, 120240, Note_off_c, 0, 64, 0
4, 120480, Note_on_c, 0, 50, 95
4, 120720, Note_off_c, 0, 50, 0
4, 120720, Note_on_c, 0, 50, 95
4, 120960, Note_off_c, 0, 50, 0
4, 120960, Note_on_c, 0, 50, 95
4, 121200, Note_off_c, 0, 50, 0
4, 121200, Note_on_c, 0, 62, 95
4, 121200, Note_on_c, 0, 50, 95
4, 121440, Note_off_c, 0, 62, 0
4, 121440, Note_off_c, 0, 50, 0
4, 121440, Note_on_c, 0, 55, 85
4, 121480, Note_off_c, 0, 55, 0
4, 121680, Note_on_c, 0, 64, 95
4, 121920, Note_off_c, 0, 64, 0
4, 122160, Note_on_c, 0, 45, 95
4, 122400, Note_off_c, 0, 45, 0
4, 122400, Note_on_c, 0, 50, 95
4, 122640, Note_off_c, 0, 50, 0
4, 122640, Note_on_c, 0, 45, 95
4, 122880, Note_off_c, 0, 45, 0
4, 122880, Note_on_c, 0, 47, 95
4, 123360, Note_off_c, 0, 47, 0
4, 123360, Note_on_c, 0, 62, 95
4, 123360, Note_on_c, 0, 50, 85
4, 123360, Note_on_c, 0, 45, 85
4, 123360, Note_on_c, 0, 47, 95
4, 123400, Note_off_c, 0, 50, 0
4, 123400, Note_off_c, 0, 45, 0
4, 123600, Note_off_c, 0, 62, 0
4, 123600, Note_off_c, 0, 47, 0
4, 123840, Note_on_c, 0, 64, 95
4, 124080, Note_off_c, 0, 64, 0
4, 124320, Note_on_c, 0, 47, 95
4, 124560, Note_off_c, 0, 47, 0
4, 124560, Note_on_c, 0, 47, 95
4, 124800, Note_off_c, 0, 47, 0
4, 125040, Note_on_c, 0, 62, 95
4, 125040, Note_on_c, 0, 50, 85
4, 125040, Note_on_c, 0, 45, 85
4, 125040, Note_on_c, 0, 47, 95
4, 125080, Note_off_c, 0, 50, 0
4, 125080, Note_off_c, 0, 45, 0
4, 125280, Note_off_c, 0, 62, 0
4, 125280, Note_off_c, 0, 47, 0
4, 125280, Note_on_c, 0, 55, 85
4, 125320, Note_off_c, 0, 55, 0
4, 125520, Note_on_c, 0, 64, 95
4, 125760, Note_off_c, 0, 64, 0
4, 126000, Note_on_c, 0, 47, 95
4, 126240, Note_off_c, 0, 47, 0
4, 126240, Note_on_c, 0, 47, 95
4, 126480, Note_off_c, 0, 47, 0
4, 126480, Note_on_c, 0, 47, 85
4, 126520, Note_off_c, 0, 47, 0
4, 126720, Note_on_c, 0, 48, 95
4, 127200, Note_off_c, 0, 48, 0
4, 127200, Note_on_c, 0, 62, 95
4, 127200, Note_on_c, 0, 50, 85
4, 127200, Note_on_c, 0, 45, 85
4, 127200, Note_on_c, 0, 48, 95
4, 127240, Note_off_c, 0, 50, 0
4, 127240, Note_off_c, 0, 45, 0
4, 127440, Note_off_c, 0, 62, 0
4, 127440, Note_off_c, 0, 48, 0
4, 127680, Note_on_c, 0, 64, 95
4, 127920, Note_off_c, 0, 64, 0
4, 128160, Note_on_c, 0, 48, 95
4, 128400, Note_off_c, 0, 48, 0
4, 128400, Note_on_c, 0, 48, 95
4, 128640, Note_off_c, 0, 48, 0
4, 128880, Note_on_c, 0, 62, 95
4, 128880, Note_on_c, 0, 50, 85
4, 128880, Note_on_c, 0, 45, 85
4, 128880, Note_on_c, 0, 48, 95
4, 128920, Note_off_c, 0, 50, 0
4, 128920, Note_off_c, 0, 45, 0
4, 129120, Note_off_c, 0, 62, 0
4, 129120, Note_off_c, 0, 48, 0
4, 129120, Note_on_c, 0, 55, 85
4, 129160, Note_off_c, 0, 55, 0
4, 129360, Note_on_c, 0, 64, 95
4, 129600, Note_off_c, 0, 64, 0
4, 129600, Note_on_c, 0, 64, 95
4, 129840, Note_off_c, 0, 64, 0
4, 129840, Note_on_c, 0, 48, 95
4, 130080, Note_off_c, 0, 48, 0
4, 130080, Note_on_c, 0, 48, 95
4, 130320, Note_off_c, 0, 48, 0
4, 130320, Note_on_c, 0, 48, 95
4, 130560, Note_off_c, 0, 48, 0
4, 130560, Note_on_c, 0, 52, 95
4, 131040, Note_off_c, 0, 52, 0
4, 131040, Note_on_c, 0, 62, 95
4, 131040, Note_on_c, 0, 50, 85
4, 131040, Note_on_c, 0, 52, 95
4, 131080, Note_off_c, 0, 50, 0
4, 131280, Note_off_c, 0, 62, 0
4, 131280, Note_off_c, 0, 52, 0
4, 131520, Note_on_c, 0, 64, 95
4, 131760, Note_off_c, 0, 64, 0
4, 132000, Note_on_c, 0, 52, 95
4, 132240, Note_off_c, 0, 52, 0
4, 132240, Note_on_c, 0, 52, 95
4, 132480, Note_off_c, 0, 52, 0
4, 132480, Note_on_c, 0, 52, 95
4, 132720, Note_off_c, 0, 52, 0
4, 132720, Note_on_c, 0, 62, 95
4, 132720, Note_on_c, 0, 50, 85
4, 132720, Note_on_c, 0, 52, 95
4, 132760, Note_off_c, 0, 50, 0
4, 132960, Note_off_c, 0, 62, 0
4, 132960, Note_off_c, 0, 52, 0
4, 132960, Note_on_c, 0, 55, 85
4, 133000, Note_off_c, 0, 55, 0
4, 133200, Note_on_c, 0, 64, 95
4, 133440, Note_off_c, 0, 64, 0
4, 133680, Note_on_c, 0, 52, 85
4, 133720, Note_off_c, 0, 52, 0
4, 133920, Note_on_c, 0, 52, 95
4, 134160, Note_off_c, 0, 52, 0
4, 134160, Note_on_c, 0, 52, 95
4, 134400, Note_off_c, 0, 52, 0
4, 134400, Note_on_c, 0, 50, 95
4, 134400, Note_on_c, 0, 45, 50
4, 134880, Note_off_c, 0, 50, 0
4, 134880, Note_off_c, 0, 45, 0
4, 134880, Note_on_c, 0, 62, 95
4, 134880, Note_on_c, 0, 50, 95
4, 135120, Note_off_c, 0, 62, 0
4, 135120, Note_off_c, 0, 50, 0
4, 135360, Note_on_c, 0, 64, 95
4, 135600, Note_off_c, 0, 64, 0
4, 135840, Note_on_c, 0, 50, 95
4, 136080, Note_off_c, 0, 50, 0
4, 136080, Note_on_c, 0, 50, 95
4, 136320, Note_off_c, 0, 50, 0
4, 136320, Note_on_c, 0, 50, 85
4, 136360, Note_off_c, 0, 50, 0
4, 136560, Note_on_c, 0, 62, 95
4, 136560, Note_on_c, 0, 50, 95
4, 136800, Note_off_c, 0, 62, 0
4, 136800, Note_off_c, 0, 50, 0
4, 136800, Note_on_c, 0, 55, 85
4, 136840, Note_off_c, 0, 55, 0
4, 137040, Note_on_c, 0, 64, 95
4, 137280, Note_off_c, 0, 64, 0
4, 137520, Note_on_c, 0, 45, 95
4, 137760, Note_off_c, 0, 45, 0
4, 137760, Note_on_c, 0, 50, 95
4, 138000, Note_off_c, 0, 50, 0
4, 138000, Note_on_c, 0, 50, 95
4, 138240, Note_off_c, 0, 50, 0
4, 138240, Note_on_c, 0, 47, 95
4, 138720, Note_off_c, 0, 47, 0
4, 138720, Note_on_c, 0, 62, 95
4, 138720, Note_on_c, 0, 50, 85
4, 138720, Note_on_c, 0, 45, 85
4, 138720, Note_on_c, 0, 47, 95
4, 138760, Note_off_c, 0, 50, 0
4, 138760, Note_off_c, 0, 45, 0
4, 138960, Note_off_c, 0, 62, 0
4, 138960, Note_off_c, 0, 47, 0
4, 139200, Note_on_c, 0, 64, 95
4, 139440, Note_off_c, 0, 64, 0
4, 139680, Note_on_c, 0, 47, 95
4, 139920, Note_off_c, 0, 47, 0
4, 139920, Note_on_c, 0, 47, 95
4, 140160, Note_off_c, 0, 47, 0
4, 140160, Note_on_c, 0, 47, 85
4, 140200, Note_off_c, 0, 47, 0
4, 140400, Note_on_c, 0, 62, 95
4, 140400, Note_on_c, 0, 50, 85
4, 140400, Note_on_c, 0, 45, 85
4, 140400, Note_on_c, 0, 47, 95
4, 140440, Note_off_c, 0, 50, 0
4, 140440, Note_off_c, 0, 45, 0
4, 140640, Note_off_c, 0, 62, 0
4, 140640, Note_off_c, 0, 47, 0
4, 140640, Note_on_c, 0, 55, 85
4, 140680, Note_off_c, 0, 55, 0
4, 140880, Note_on_c, 0, 64, 95
4, 141120, Note_off_c, 0, 64, 0
4, 141360, Note_on_c, 0, 47, 95
4, 141600, Note_off_c, 0, 47, 0
4, 141600, Note_on_c, 0, 47, 95
4, 141840, Note_off_c, 0, 47, 0
4, 141840, Note_on_c, 0, 47, 95
4, 142080, Note_off_c, 0, 47, 0
4, 142080, Note_on_c, 0, 71, 95
4, 142080, Note_on_c, 0, 67, 95
4, 142080, Note_on_c, 0, 64, 95
4, 142320, Note_off_c, 0, 71, 0
4, 142320, Note_off_c, 0, 67, 0
4, 142320, Note_off_c, 0, 64, 0
4, 142320, Note_on_c, 0, 67, 95
4, 142560, Note_off_c, 0, 67, 0
4, 142560, Note_on_c, 0, 64, 95
4, 142800, Note_off_c, 0, 64, 0
4, 142800, Note_on_c, 0, 71, 95
4, 143040, Note_off_c, 0, 71, 0
4, 143040, Note_on_c, 0, 67, 95
4, 143280, Note_off_c, 0, 67, 0
4, 143280, Note_on_c, 0, 64, 95
4, 143520, Note_off_c, 0, 64, 0
4, 143520, Note_on_c, 0, 71, 95
4, 143760, Note_off_c, 0, 71, 0
4, 143760, Note_on_c, 0, 67, 95
4, 144000, Note_off_c, 0, 67, 0
4, 144000, Note_on_c, 0, 64, 95
4, 144240, Note_off_c, 0, 64, 0
4, 144240, Note_on_c, 0, 71, 95
4, 144480, Note_off_c, 0, 71, 0
4, 144480, Note_on_c, 0, 67, 95
4, 144720, Note_off_c, 0, 67, 0
4, 144720, Note_on_c, 0, 64, 95
4, 144960, Note_off_c, 0, 64, 0
4, 144960, Note_on_c, 0, 71, 95
4, 144960, Note_on_c, 0, 67, 95
4, 144960, Note_on_c, 0, 64, 95
4, 145440, Note_off_c, 0, 71, 0
4, 145440, Note_off_c, 0, 67, 0
4, 145440, Note_off_c, 0, 64, 0
4, 145440, Note_on_c, 0, 64, 85
4, 145440, Note_on_c, 0, 59, 85
4, 145440, Note_on_c, 0, 55, 85
4, 145520, Note_off_c, 0, 64, 0
4, 145520, Note_off_c, 0, 59, 0
4, 145520, Note_off_c, 0, 55, 0
4, 145920, Note_on_c, 0, 67, 95
4, 145920, Note_on_c, 0, 62, 95
4, 145920, Note_on_c, 0, 59, 95
4, 145920, Note_on_c, 0, 55, 95
4, 145920, Note_on_c, 0, 50, 95
4, 145920, Note_on_c, 0, 43, 95
4, 146640, Note_off_c, 0, 67, 0
4, 146640, Note_off_c, 0, 62, 0
4, 146640, Note_off_c, 0, 59, 0
4, 146640, Note_off_c, 0, 55, 0
4, 146640, Note_off_c, 0, 50, 0
4, 146640, Note_off_c, 0, 43, 0
4, 146640, Note_on_c, 0, 67, 79
4, 146640, Note_on_c, 0, 62, 79
4, 146640, Note_on_c, 0, 59, 79
4, 146640, Note_on_c, 0, 55, 79
4, 146640, Note_on_c, 0, 50, 79
4, 146640, Note_on_c, 0, 43, 79
4, 146880, Note_off_c, 0, 67, 0
4, 146880, Note_off_c, 0, 62, 0
4, 146880, Note_off_c, 0, 59, 0
4, 146880, Note_off_c, 0, 55, 0
4, 146880, Note_off_c, 0, 50, 0
4, 146880, Note_off_c, 0, 43, 0
4, 146880, Note_on_c, 0, 67, 85
4, 146880, Note_on_c, 0, 62, 85
4, 146880, Note_on_c, 0, 59, 85
4, 146880, Note_on_c, 0, 55, 85
4, 146880, Note_on_c, 0, 50, 85
4, 146880, Note_on_c, 0, 43, 85
4, 146960, Note_off_c, 0, 67, 0
4, 146960, Note_off_c, 0, 62, 0
4, 146960, Note_off_c, 0, 59, 0
4, 146960, Note_off_c, 0, 55, 0
4, 146960, Note_off_c, 0, 50, 0
4, 146960, Note_off_c, 0, 43, 0
4, 147360, Note_on_c, 0, 66, 95
4, 147360, Note_on_c, 0, 62, 95
4, 147360, Note_on_c, 0, 57, 95
4, 147360, Note_on_c, 0, 50, 95
4, 148080, Note_off_c, 0, 66, 0
4, 148080, Note_off_c, 0, 62, 0
4, 148080, Note_off_c, 0, 57, 0
4, 148080, Note_off_c, 0, 50, 0
4, 148080, Note_on_c, 0, 66, 79
4, 148080, Note_on_c, 0, 62, 79
4, 148080, Note_on_c, 0, 57, 79
4, 148080, Note_on_c, 0, 50, 79
4, 148320, Note_off_c, 0, 66, 0
4, 148320, Note_off_c, 0, 62, 0
4, 148320, Note_off_c, 0, 57, 0
4, 148320, Note_off_c, 0, 50, 0
4, 148320, Note_on_c, 0, 66, 95
4, 148320, Note_on_c, 0, 62, 95
4, 148320, Note_on_c, 0, 57, 95
4, 148320, Note_on_c, 0, 50, 95
4, 148800, Note_off_c, 0, 66, 0
4, 148800, Note_off_c, 0, 62, 0
4, 148800, Note_off_c, 0, 57, 0
4, 148800, Note_off_c, 0, 50, 0
4, 148800, Note_on_c, 0, 66, 79
4, 148800, Note_on_c, 0, 62, 79
4, 148800, Note_on_c, 0, 57, 79
4, 148800, Note_on_c, 0, 50, 79
4, 149280, Note_off_c, 0, 66, 0
4, 149280, Note_off_c, 0, 62, 0
4, 149280, Note_off_c, 0, 57, 0
4, 149280, Note_off_c, 0, 50, 0
4, 149280, Note_on_c, 0, 59, 85
4, 149280, Note_on_c, 0, 55, 85
4, 149280, Note_on_c, 0, 50, 85
4, 149280, Note_on_c, 0, 45, 85
4, 149360, Note_off_c, 0, 59, 0
4, 149360, Note_off_c, 0, 55, 0
4, 149360, Note_off_c, 0, 50, 0
4, 149360, Note_off_c, 0, 45, 0
4, 149760, Note_on_c, 0, 66, 95
4, 149760, Note_on_c, 0, 62, 95
4, 149760, Note_on_c, 0, 59, 95
4, 149760, Note_on_c, 0, 54, 95
4, 149760, Note_on_c, 0, 47, 95
4, 150480, Note_off_c, 0, 66, 0
4, 150480, Note_off_c, 0, 62, 0
4, 150480, Note_off_c, 0, 59, 0
4, 150480, Note_off_c, 0, 54, 0
4, 150480, Note_off_c, 0, 47, 0
4, 150480, Note_on_c, 0, 66, 79
4, 150480, Note_on_c, 0, 62, 79
4, 150480, Note_on_c, 0, 59, 79
4, 150480, Note_on_c, 0, 54, 79
4, 150480, Note_on_c, 0, 47, 79
4, 150720, Note_off_c, 0, 66, 0
4, 150720, Note_off_c, 0, 62, 0
4, 150720, Note_off_c, 0, 59, 0
4, 150720, Note_off_c, 0, 54, 0
4, 150720, Note_off_c, 0, 47, 0
4, 150720, Note_on_c, 0, 62, 85
4, 150720, Note_on_c, 0, 59, 85
4, 150720, Note_on_c, 0, 55, 85
4, 150720, Note_on_c, 0, 50, 85
4, 150720, Note_on_c, 0, 43, 85
4, 150800, Note_off_c, 0, 62, 0
4, 150800, Note_off_c, 0, 59, 0
4, 150800, Note_off_c, 0, 55, 0
4, 150800, Note_off_c, 0, 50, 0
4, 150800, Note_off_c, 0, 43, 0
4, 151200, Note_on_c, 0, 71, 95
4, 151200, Note_on_c, 0, 67, 95
4, 151200, Note_on_c, 0, 64, 95
4, 151200, Note_on_c, 0, 60, 95
4, 151200, Note_on_c, 0, 50, 85
4, 151200, Note_on_c, 0, 48, 95
4, 151320, Note_off_c, 0, 50, 0
4, 151920, Note_off_c, 0, 71, 0
4, 151920, Note_off_c, 0, 67, 0
4, 151920, Note_off_c, 0, 64, 0
4, 151920, Note_off_c, 0, 60, 0
4, 151920, Note_off_c, 0, 48, 0
4, 151920, Note_on_c, 0, 71, 79
4, 151920, Note_on_c, 0, 67, 79
4, 151920, Note_on_c, 0, 64, 79
4, 151920, Note_on_c, 0, 60, 79
4, 151920, Note_on_c, 0, 45, 71
4, 151920, Note_on_c, 0, 48, 79
4, 151960, Note_off_c, 0, 45, 0
4, 152160, Note_off_c, 0, 71, 0
4, 152160, Note_off_c, 0, 67, 0
4, 152160, Note_off_c, 0, 64, 0
4, 152160, Note_off_c, 0, 60, 0
4, 152160, Note_off_c, 0, 48, 0
4, 152160, Note_on_c, 0, 71, 95
4, 152160, Note_on_c, 0, 67, 95
4, 152160, Note_on_c, 0, 64, 95
4, 152160, Note_on_c, 0, 60, 95
4, 152160, Note_on_c, 0, 50, 85
4, 152160, Note_on_c, 0, 48, 95
4, 152240, Note_off_c, 0, 50, 0
4, 152640, Note_off_c, 0, 71, 0
4, 152640, Note_off_c, 0, 67, 0
4, 152640, Note_off_c, 0, 64, 0
4, 152640, Note_off_c, 0, 60, 0
4, 152640, Note_off_c, 0, 48, 0
4, 152640, Note_on_c, 0, 71, 79
4, 152640, Note_on_c, 0, 67, 79
4, 152640, Note_on_c, 0, 64, 79
4, 152640, Note_on_c, 0, 60, 79
4, 152640, Note_on_c, 0, 50, 85
4, 152640, Note_on_c, 0, 48, 79
4, 152720, Note_off_c, 0, 50, 0
4, 153120, Note_off_c, 0, 71, 0
4, 153120, Note_off_c, 0, 67, 0
4, 153120, Note_off_c, 0, 64, 0
4, 153120, Note_off_c, 0, 60, 0
4, 153120, Note_off_c, 0, 48, 0
4, 153120, Note_on_c, 0, 59, 85
4, 153120, Note_on_c, 0, 55, 85
4, 153120, Note_on_c, 0, 50, 85
4, 153120, Note_on_c, 0, 45, 85
4, 153120, Note_on_c, 0, 40, 85
4, 153200, Note_off_c, 0, 59, 0
4, 153200, Note_off_c, 0, 55, 0
4, 153200, Note_off_c, 0, 50, 0
4, 153200, Note_off_c, 0, 45, 0
4, 153200, Note_off_c, 0, 40, 0
4, 153600, Note_on_c, 0, 67, 95
4, 153600, Note_on_c, 0, 62, 95
4, 153600, Note_on_c, 0, 59, 95
4, 153600, Note_on_c, 0, 55, 95
4, 153600, Note_on_c, 0, 50, 95
4, 153600, Note_on_c, 0, 43, 95
4, 154320, Note_off_c, 0, 67, 0
4, 154320, Note_off_c, 0, 62, 0
4, 154320, Note_off_c, 0, 59, 0
4, 154320, Note_off_c, 0, 55, 0
4, 154320, Note_off_c, 0, 50, 0
4, 154320, Note_off_c, 0, 43, 0
4, 154320, Note_on_c, 0, 67, 79
4, 154320, Note_on_c, 0, 62, 79
4, 154320, Note_on_c, 0, 59, 79
4, 154320, Note_on_c, 0, 55, 79
4, 154320, Note_on_c, 0, 50, 79
4, 154320, Note_on_c, 0, 43, 79
4, 154560, Note_off_c, 0, 67, 0
4, 154560, Note_off_c, 0, 62, 0
4, 154560, Note_off_c, 0, 59, 0
4, 154560, Note_off_c, 0, 55, 0
4, 154560, Note_off_c, 0, 50, 0
4, 154560, Note_off_c, 0, 43, 0
4, 154560, Note_on_c, 0, 67, 85
4, 154560, Note_on_c, 0, 62, 85
4, 154560, Note_on_c, 0, 59, 85
4, 154560, Note_on_c, 0, 55, 85
4, 154560, Note_on_c, 0, 50, 85
4, 154560, Note_on_c, 0, 43, 85
4, 154640, Note_off_c, 0, 67, 0
4, 154640, Note_off_c, 0, 62, 0
4, 154640, Note_off_c, 0, 59, 0
4, 154640, Note_off_c, 0, 55, 0
4, 154640, Note_off_c, 0, 50, 0
4, 154640, Note_off_c, 0, 43, 0
4, 155040, Note_on_c, 0, 66, 95
4, 155040, Note_on_c, 0, 62, 95
4, 155040, Note_on_c, 0, 57, 95
4, 155040, Note_on_c, 0, 50, 95
4, 155760, Note_off_c, 0, 66, 0
4, 155760, Note_off_c, 0, 62, 0
4, 155760, Note_off_c, 0, 57, 0
4, 155760, Note_off_c, 0, 50, 0
4, 155760, Note_on_c, 0, 66, 79
4, 155760, Note_on_c, 0, 62, 79
4, 155760, Note_on_c, 0, 57, 79
4, 155760, Note_on_c, 0, 50, 79
4, 156000, Note_off_c, 0, 66, 0
4, 156000, Note_off_c, 0, 62, 0
4, 156000, Note_off_c, 0, 57, 0
4, 156000, Note_off_c, 0, 50, 0
4, 156000, Note_on_c, 0, 66, 95
4, 156000, Note_on_c, 0, 62, 95
4, 156000, Note_on_c, 0, 57, 95
4, 156000, Note_on_c, 0, 50, 95
4, 156480, Note_off_c, 0, 66, 0
4, 156480, Note_off_c, 0, 62, 0
4, 156480, Note_off_c, 0, 57, 0
4, 156480, Note_off_c, 0, 50, 0
4, 156480, Note_on_c, 0, 66, 79
4, 156480, Note_on_c, 0, 62, 79
4, 156480, Note_on_c, 0, 57, 79
4, 156480, Note_on_c, 0, 50, 79
4, 156960, Note_off_c, 0, 66, 0
4, 156960, Note_off_c, 0, 62, 0
4, 156960, Note_off_c, 0, 57, 0
4, 156960, Note_off_c, 0, 50, 0
4, 156960, Note_on_c, 0, 59, 85
4, 156960, Note_on_c, 0, 55, 85
4, 156960, Note_on_c, 0, 50, 85
4, 156960, Note_on_c, 0, 45, 85
4, 157040, Note_off_c, 0, 59, 0
4, 157040, Note_off_c, 0, 55, 0
4, 157040, Note_off_c, 0, 50, 0
4, 157040, Note_off_c, 0, 45, 0
4, 157440, Note_on_c, 0, 66, 95
4, 157440, Note_on_c, 0, 62, 95
4, 157440, Note_on_c, 0, 59, 95
4, 157440, Note_on_c, 0, 54, 95
4, 157440, Note_on_c, 0, 47, 95
4, 158160, Note_off_c, 0, 66, 0
4, 158160, Note_off_c, 0, 62, 0
4, 158160, Note_off_c, 0, 59, 0
4, 158160, Note_off_c, 0, 54, 0
4, 158160, Note_off_c, 0, 47, 0
4, 158160, Note_on_c, 0, 66, 79
4, 158160, Note_on_c, 0, 62, 79
4, 158160, Note_on_c, 0, 59, 79
4, 158160, Note_on_c, 0, 54, 79
4, 158160, Note_on_c, 0, 47, 79
4, 158400, Note_off_c, 0, 66, 0
4, 158400, Note_off_c, 0, 62, 0
4, 158400, Note_off_c, 0, 59, 0
4, 158400, Note_off_c, 0, 54, 0
4, 158400, Note_off_c, 0, 47, 0
4, 158400, Note_on_c, 0, 62, 85
4, 158400, Note_on_c, 0, 59, 85
4, 158400, Note_on_c, 0, 55, 85
4, 158400, Note_on_c, 0, 50, 85
4, 158400, Note_on_c, 0, 43, 85
4, 158480, Note_off_c, 0, 62, 0
4, 158480, Note_off_c, 0, 59, 0
4, 158480, Note_off_c, 0, 55, 0
4, 158480, Note_off_c, 0, 50, 0
4, 158480, Note_off_c, 0, 43, 0
4, 158880, Note_on_c, 0, 71, 95
4, 158880, Note_on_c, 0, 67, 95
4, 158880, Note_on_c, 0, 64, 95
4, 158880, Note_on_c, 0, 60, 95
4, 158880, Note_on_c, 0, 50, 85
4, 158880, Note_on_c, 0, 48, 95
4, 158960, Note_off_c, 0, 50, 0
4, 159360, Note_off_c, 0, 71, 0
4, 159360, Note_off_c, 0, 67, 0
4, 159360, Note_off_c, 0, 64, 0
4, 159360, Note_off_c, 0, 60, 0
4, 159360, Note_off_c, 0, 48, 0
4, 159360, Note_on_c, 0, 71, 79
4, 159360, Note_on_c, 0, 67, 79
4, 159360, Note_on_c, 0, 64, 79
4, 159360, Note_on_c, 0, 60, 79
4, 159360, Note_on_c, 0, 45, 71
4, 159360, Note_on_c, 0, 48, 79
4, 159400, Note_off_c, 0, 45, 0
4, 159600, Note_off_c, 0, 71, 0
4, 159600, Note_off_c, 0, 67, 0
4, 159600, Note_off_c, 0, 64, 0
4, 159600, Note_off_c, 0, 60, 0
4, 159600, Note_off_c, 0, 48, 0
4, 159600, Note_on_c, 0, 71, 79
4, 159600, Note_on_c, 0, 67, 79
4, 159600, Note_on_c, 0, 64, 79
4, 159600, Note_on_c, 0, 60, 79
4, 159600, Note_on_c, 0, 45, 71
4, 159600, Note_on_c, 0, 48, 79
4, 159640, Note_off_c, 0, 45, 0
4, 159840, Note_off_c, 0, 71, 0
4, 159840, Note_off_c, 0, 67, 0
4, 159840, Note_off_c, 0, 64, 0
4, 159840, Note_off_c, 0, 60, 0
4, 159840, Note_off_c, 0, 48, 0
4, 159840, Note_on_c, 0, 71, 95
4, 159840, Note_on_c, 0, 67, 95
4, 159840, Note_on_c, 0, 64, 95
4, 159840, Note_on_c, 0, 60, 95
4, 159840, Note_on_c, 0, 50, 85
4, 159840, Note_on_c, 0, 48, 95
4, 159920, Note_off_c, 0, 50, 0
4, 160320, Note_off_c, 0, 71, 0
4, 160320, Note_off_c, 0, 67, 0
4, 160320, Note_off_c, 0, 64, 0
4, 160320, Note_off_c, 0, 60, 0
4, 160320, Note_off_c, 0, 48, 0
4, 160320, Note_on_c, 0, 71, 79
4, 160320, Note_on_c, 0, 67, 79
4, 160320, Note_on_c, 0, 64, 79
4, 160320, Note_on_c, 0, 60, 79
4, 160320, Note_on_c, 0, 50, 85
4, 160320, Note_on_c, 0, 48, 79
4, 160400, Note_off_c, 0, 50, 0
4, 160800, Note_off_c, 0, 71, 0
4, 160800, Note_off_c, 0, 67, 0
4, 160800, Note_off_c, 0, 64, 0
4, 160800, Note_off_c, 0, 60, 0
4, 160800, Note_off_c, 0, 48, 0
4, 160800, Note_on_c, 0, 59, 85
4, 160800, Note_on_c, 0, 55, 85
4, 160800, Note_on_c, 0, 50, 85
4, 160800, Note_on_c, 0, 45, 85
4, 160800, Note_on_c, 0, 40, 85
4, 160880, Note_off_c, 0, 59, 0
4, 160880, Note_off_c, 0, 55, 0
4, 160880, Note_off_c, 0, 50, 0
4, 160880, Note_off_c, 0, 45, 0
4, 160880, Note_off_c, 0, 40, 0
4, 161280, Note_on_c, 0, 67, 95
4, 161280, Note_on_c, 0, 62, 95
4, 161280, Note_on_c, 0, 59, 95
4, 161280, Note_on_c, 0, 55, 95
4, 161280, Note_on_c, 0, 50, 95
4, 161280, Note_on_c, 0, 43, 95
4, 162000, Note_off_c, 0, 67, 0
4, 162000, Note_off_c, 0, 62, 0
4, 162000, Note_off_c, 0, 59, 0
4, 162000, Note_off_c, 0, 55, 0
4, 162000, Note_off_c, 0, 50, 0
4, 162000, Note_off_c, 0, 43, 0
4, 162000, Note_on_c, 0, 67, 79
4, 162000, Note_on_c, 0, 62, 79
4, 162000, Note_on_c, 0, 59, 79
4, 162000, Note_on_c, 0, 55, 79
4, 162000, Note_on_c, 0, 50, 79
4, 162000, Note_on_c, 0, 43, 79
4, 162240, Note_off_c, 0, 67, 0
4, 162240, Note_off_c, 0, 62, 0
4, 162240, Note_off_c, 0, 59, 0
4, 162240, Note_off_c, 0, 55, 0
4, 162240, Note_off_c, 0, 50, 0
4, 162240, Note_off_c, 0, 43, 0
4, 162240, Note_on_c, 0, 67, 85
4, 162240, Note_on_c, 0, 62, 85
4, 162240, Note_on_c, 0, 59, 85
4, 162240, Note_on_c, 0, 55, 85
4, 162240, Note_on_c, 0, 50, 85
4, 162240, Note_on_c, 0, 43, 85
4, 162320, Note_off_c, 0, 67, 0
4, 162320, Note_off_c, 0, 62, 0
4, 162320, Note_off_c, 0, 59, 0
4, 162320, Note_off_c, 0, 55, 0
4, 162320, Note_off_c, 0, 50, 0
4, 162320, Note_off_c, 0, 43, 0
4, 162720, Note_on_c, 0, 66, 95
4, 162720, Note_on_c, 0, 62, 95
4, 162720, Note_on_c, 0, 57, 95
4, 162720, Note_on_c, 0, 50, 95
4, 163440, Note_off_c, 0, 66, 0
4, 163440, Note_off_c, 0, 62, 0
4, 163440, Note_off_c, 0, 57, 0
4, 163440, Note_off_c, 0, 50, 0
4, 163440, Note_on_c, 0, 66, 79
4, 163440, Note_on_c, 0, 62, 79
4, 163440, Note_on_c, 0, 57, 79
4, 163440, Note_on_c, 0, 50, 79
4, 163680, Note_off_c, 0, 66, 0
4, 163680, Note_off_c, 0, 62, 0
4, 163680, Note_off_c, 0, 57, 0
4, 163680, Note_off_c, 0, 50, 0
4, 163680, Note_on_c, 0, 66, 95
4, 163680, Note_on_c, 0, 62, 95
4, 163680, Note_on_c, 0, 57, 95
4, 163680, Note_on_c, 0, 50, 95
4, 164160, Note_off_c, 0, 66, 0
4, 164160, Note_off_c, 0, 62, 0
4, 164160, Note_off_c, 0, 57, 0
4, 164160, Note_off_c, 0, 50, 0
4, 164160, Note_on_c, 0, 66, 79
4, 164160, Note_on_c, 0, 62, 79
4, 164160, Note_on_c, 0, 57, 79
4, 164160, Note_on_c, 0, 50, 79
4, 164640, Note_off_c, 0, 66, 0
4, 164640, Note_off_c, 0, 62, 0
4, 164640, Note_off_c, 0, 57, 0
4, 164640, Note_off_c, 0, 50, 0
4, 164640, Note_on_c, 0, 59, 85
4, 164640, Note_on_c, 0, 55, 85
4, 164640, Note_on_c, 0, 50, 85
4, 164640, Note_on_c, 0, 45, 85
4, 164720, Note_off_c, 0, 59, 0
4, 164720, Note_off_c, 0, 55, 0
4, 164720, Note_off_c, 0, 50, 0
4, 164720, Note_off_c, 0, 45, 0
4, 165120, Note_on_c, 0, 66, 95
4, 165120, Note_on_c, 0, 62, 95
4, 165120, Note_on_c, 0, 59, 95
4, 165120, Note_on_c, 0, 54, 95
4, 165120, Note_on_c, 0, 47, 95
4, 165840, Note_off_c, 0, 66, 0
4, 165840, Note_off_c, 0, 62, 0
4, 165840, Note_off_c, 0, 59, 0
4, 165840, Note_off_c, 0, 54, 0
4, 165840, Note_off_c, 0, 47, 0
4, 165840, Note_on_c, 0, 66, 79
4, 165840, Note_on_c, 0, 62, 79
4, 165840, Note_on_c, 0, 59, 79
4, 165840, Note_on_c, 0, 54, 79
4, 165840, Note_on_c, 0, 47, 79
4, 166080, Note_off_c, 0, 66, 0
4, 166080, Note_off_c, 0, 62, 0
4, 166080, Note_off_c, 0, 59, 0
4, 166080, Note_off_c, 0, 54, 0
4, 166080, Note_off_c, 0, 47, 0
4, 166080, Note_on_c, 0, 62, 85
4, 166080, Note_on_c, 0, 59, 85
4, 166080, Note_on_c, 0, 55, 85
4, 166080, Note_on_c, 0, 50, 85
4, 166080, Note_on_c, 0, 43, 85
4, 166160, Note_off_c, 0, 62, 0
4, 166160, Note_off_c, 0, 59, 0
4, 166160, Note_off_c, 0, 55, 0
4, 166160, Note_off_c, 0, 50, 0
4, 166160, Note_off_c, 0, 43, 0
4, 166560, Note_on_c, 0, 71, 95
4, 166560, Note_on_c, 0, 67, 95
4, 166560, Note_on_c, 0, 64, 95
4, 166560, Note_on_c, 0, 60, 95
4, 166560, Note_on_c, 0, 50, 85
4, 166560, Note_on_c, 0, 48, 95
4, 166680, Note_off_c, 0, 50, 0
4, 167280, Note_off_c, 0, 71, 0
4, 167280, Note_off_c, 0, 67, 0
4, 167280, Note_off_c, 0, 64, 0
4, 167280, Note_off_c, 0, 60, 0
4, 167280, Note_off_c, 0, 48, 0
4, 167280, Note_on_c, 0, 71, 79
4, 167280, Note_on_c, 0, 67, 79
4, 167280, Note_on_c, 0, 64, 79
4, 167280, Note_on_c, 0, 60, 79
4, 167280, Note_on_c, 0, 45, 71
4, 167280, Note_on_c, 0, 48, 79
4, 167320, Note_off_c, 0, 45, 0
4, 167520, Note_off_c, 0, 71, 0
4, 167520, Note_off_c, 0, 67, 0
4, 167520, Note_off_c, 0, 64, 0
4, 167520, Note_off_c, 0, 60, 0
4, 167520, Note_off_c, 0, 48, 0
4, 167520, Note_on_c, 0, 71, 95
4, 167520, Note_on_c, 0, 67, 95
4, 167520, Note_on_c, 0, 64, 95
4, 167520, Note_on_c, 0, 60, 95
4, 167520, Note_on_c, 0, 50, 85
4, 167520, Note_on_c, 0, 48, 95
4, 167600, Note_off_c, 0, 50, 0
4, 168000, Note_off_c, 0, 71, 0
4, 168000, Note_off_c, 0, 67, 0
4, 168000, Note_off_c, 0, 64, 0
4, 168000, Note_off_c, 0, 60, 0
4, 168000, Note_off_c, 0, 48, 0
4, 168000, Note_on_c, 0, 71, 79
4, 168000, Note_on_c, 0, 67, 79
4, 168000, Note_on_c, 0, 64, 79
4, 168000, Note_on_c, 0, 60, 79
4, 168000, Note_on_c, 0, 50, 85
4, 168000, Note_on_c, 0, 48, 79
4, 168040, Note_off_c, 0, 50, 0
4, 168240, Note_off_c, 0, 71, 0
4, 168240, Note_off_c, 0, 67, 0
4, 168240, Note_off_c, 0, 64, 0
4, 168240, Note_off_c, 0, 60, 0
4, 168240, Note_off_c, 0, 48, 0
4, 168240, Note_on_c, 0, 71, 79
4, 168240, Note_on_c, 0, 67, 79
4, 168240, Note_on_c, 0, 64, 79
4, 168240, Note_on_c, 0, 60, 79
4, 168240, Note_on_c, 0, 45, 71
4, 168240, Note_on_c, 0, 48, 79
4, 168280, Note_off_c, 0, 45, 0
4, 168480, Note_off_c, 0, 71, 0
4, 168480, Note_off_c, 0, 67, 0
4, 168480, Note_off_c, 0, 64, 0
4, 168480, Note_off_c, 0, 60, 0
4, 168480, Note_off_c, 0, 48, 0
4, 168480, Note_on_c, 0, 59, 85
4, 168480, Note_on_c, 0, 55, 85
4, 168480, Note_on_c, 0, 50, 85
4, 168480, Note_on_c, 0, 45, 85
4, 168480, Note_on_c, 0, 40, 85
4, 168560, Note_off_c, 0, 59, 0
4, 168560, Note_off_c, 0, 55, 0
4, 168560, Note_off_c, 0, 50, 0
4, 168560, Note_off_c, 0, 45, 0
4, 168560, Note_off_c, 0, 40, 0
4, 168960, Note_on_c, 0, 67, 95
4, 168960, Note_on_c, 0, 62, 95
4, 168960, Note_on_c, 0, 59, 95
4, 168960, Note_on_c, 0, 55, 95
4, 168960, Note_on_c, 0, 50, 95
4, 168960, Note_on_c, 0, 43, 95
4, 169680, Note_off_c, 0, 67, 0
4, 169680, Note_off_c, 0, 62, 0
4, 169680, Note_off_c, 0, 59, 0
4, 169680, Note_off_c, 0, 55, 0
4, 169680, Note_off_c, 0, 50, 0
4, 169680, Note_off_c, 0, 43, 0
4, 169680, Note_on_c, 0, 67, 79
4, 169680, Note_on_c, 0, 62, 79
4, 169680, Note_on_c, 0, 59, 79
4, 169680, Note_on_c, 0, 55, 79
4, 169680, Note_on_c, 0, 50, 79
4, 169680, Note_on_c, 0, 43, 79
4, 169920, Note_off_c, 0, 67, 0
4, 169920, Note_off_c, 0, 62, 0
4, 169920, Note_off_c, 0, 59, 0
4, 169920, Note_off_c, 0, 55, 0
4, 169920, Note_off_c, 0, 50, 0
4, 169920, Note_off_c, 0, 43, 0
4, 169920, Note_on_c, 0, 67, 85
4, 169920, Note_on_c, 0, 62, 85
4, 169920, Note_on_c, 0, 59, 85
4, 169920, Note_on_c, 0, 55, 85
4, 169920, Note_on_c, 0, 50, 85
4, 169920, Note_on_c, 0, 43, 85
4, 170000, Note_off_c, 0, 67, 0
4, 170000, Note_off_c, 0, 62, 0
4, 170000, Note_off_c, 0, 59, 0
4, 170000, Note_off_c, 0, 55, 0
4, 170000, Note_off_c, 0, 50, 0
4, 170000, Note_off_c, 0, 43, 0
4, 170400, Note_on_c, 0, 66, 95
4, 170400, Note_on_c, 0, 62, 95
4, 170400, Note_on_c, 0, 57, 95
4, 170400, Note_on_c, 0, 50, 95
4, 171120, Note_off_c, 0, 66, 0
4, 171120, Note_off_c, 0, 62, 0
4, 171120, Note_off_c, 0, 57, 0
4, 171120, Note_off_c, 0, 50, 0
4, 171120, Note_on_c, 0, 66, 79
4, 171120, Note_on_c, 0, 62, 79
4, 171120, Note_on_c, 0, 57, 79
4, 171120, Note_on_c, 0, 50, 79
4, 171360, Note_off_c, 0, 66, 0
4, 171360, Note_off_c, 0, 62, 0
4, 171360, Note_off_c, 0, 57, 0
4, 171360, Note_off_c, 0, 50, 0
4, 171360, Note_on_c, 0, 66, 95
4, 171360, Note_on_c, 0, 62, 95
4, 171360, Note_on_c, 0, 57, 95
4, 171360, Note_on_c, 0, 50, 95
4, 171840, Note_off_c, 0, 66, 0
4, 171840, Note_off_c, 0, 62, 0
4, 171840, Note_off_c, 0, 57, 0
4, 171840, Note_off_c, 0, 50, 0
4, 171840, Note_on_c, 0, 66, 79
4, 171840, Note_on_c, 0, 62, 79
4, 171840, Note_on_c, 0, 57, 79
4, 171840, Note_on_c, 0, 50, 79
4, 172320, Note_off_c, 0, 66, 0
4, 172320, Note_off_c, 0, 62, 0
4, 172320, Note_off_c, 0, 57, 0
4, 172320, Note_off_c, 0, 50, 0
4, 172320, Note_on_c, 0, 59, 85
4, 172320, Note_on_c, 0, 55, 85
4, 172320, Note_on_c, 0, 50, 85
4, 172320, Note_on_c, 0, 45, 85
4, 172400, Note_off_c, 0, 59, 0
4, 172400, Note_off_c, 0, 55, 0
4, 172400, Note_off_c, 0, 50, 0
4, 172400, Note_off_c, 0, 45, 0
4, 172800, Note_on_c, 0, 66, 79
4, 172800, Note_on_c, 0, 62, 79
4, 172800, Note_on_c, 0, 59, 79
4, 172800, Note_on_c, 0, 54, 79
4, 172800, Note_on_c, 0, 47, 79
4, 173280, Note_off_c, 0, 66, 0
4, 173280, Note_off_c, 0, 62, 0
4, 173280, Note_off_c, 0, 59, 0
4, 173280, Note_off_c, 0, 54, 0
4, 173280, Note_off_c, 0, 47, 0
4, 173760, Note_on_c, 0, 71, 95
4, 173760, Note_on_c, 0, 67, 95
4, 173760, Note_on_c, 0, 64, 95
4, 173760, Note_on_c, 0, 60, 95
4, 173760, Note_on_c, 0, 45, 85
4, 173760, Note_on_c, 0, 48, 95
4, 174240, Note_off_c, 0, 45, 0
4, 176640, Note_off_c, 0, 71, 0
4, 176640, Note_off_c, 0, 67, 0
4, 176640, Note_off_c, 0, 64, 0
4, 176640, Note_off_c, 0, 60, 0
4, 176640, Note_off_c, 0, 48, 0
4, 176640, Note_on_c, 0, 52, 95
4, 176880, Note_off_c, 0, 52, 0
4, 176880, Note_on_c, 0, 52, 95
4, 177120, Note_off_c, 0, 52, 0
4, 177120, Note_on_c, 0, 62, 95
4, 177120, Note_on_c, 0, 50, 85
4, 177120, Note_on_c, 0, 52, 95
4, 177160, Note_off_c, 0, 50, 0
4, 177360, Note_off_c, 0, 62, 0
4, 177360, Note_off_c, 0, 52, 0
4, 177600, Note_on_c, 0, 64, 95
4, 177840, Note_off_c, 0, 64, 0
4, 178080, Note_on_c, 0, 52, 95
4, 178320, Note_off_c, 0, 52, 0
4, 178320, Note_on_c, 0, 52, 95
4, 178560, Note_off_c, 0, 52, 0
4, 178800, Note_on_c, 0, 62, 95
4, 178800, Note_on_c, 0, 50, 85
4, 178800, Note_on_c, 0, 52, 95
4, 178840, Note_off_c, 0, 50, 0
4, 179040, Note_off_c, 0, 62, 0
4, 179040, Note_off_c, 0, 52, 0
4, 179040, Note_on_c, 0, 55, 85
4, 179080, Note_off_c, 0, 55, 0
4, 179280, Note_on_c, 0, 64, 95
4, 179520, Note_off_c, 0, 64, 0
4, 179760, Note_on_c, 0, 52, 85
4, 179800, Note_off_c, 0, 52, 0
4, 180000, Note_on_c, 0, 52, 95
4, 180480, Note_off_c, 0, 52, 0
4, 180480, Note_on_c, 0, 50, 95
4, 180960, Note_off_c, 0, 50, 0
4, 180960, Note_on_c, 0, 62, 95
4, 180960, Note_on_c, 0, 50, 95
4, 181200, Note_off_c, 0, 62, 0
4, 181200, Note_off_c, 0, 50, 0
4, 181440, Note_on_c, 0, 64, 95
4, 181680, Note_off_c, 0, 64, 0
4, 181920, Note_on_c, 0, 50, 95
4, 182160, Note_off_c, 0, 50, 0
4, 182160, Note_on_c, 0, 50, 95
4, 182400, Note_off_c, 0, 50, 0
4, 182400, Note_on_c, 0, 50, 95
4, 182640, Note_off_c, 0, 50, 0
4, 182640, Note_on_c, 0, 62, 95
4, 182640, Note_on_c, 0, 50, 95
4, 182880, Note_off_c, 0, 62, 0
4, 182880, Note_off_c, 0, 50, 0
4, 182880, Note_on_c, 0, 55, 85
4, 182920, Note_off_c, 0, 55, 0
4, 183120, Note_on_c, 0, 64, 95
4, 183360, Note_off_c, 0, 64, 0
4, 183600, Note_on_c, 0, 50, 95
4, 183600, Note_on_c, 0, 45, 95
4, 183840, Note_off_c, 0, 50, 0
4, 183840, Note_off_c, 0, 45, 0
4, 183840, Note_on_c, 0, 50, 95
4, 184080, Note_off_c, 0, 50, 0
4, 184080, Note_on_c, 0, 50, 95
4, 184320, Note_off_c, 0, 50, 0
4, 184320, Note_on_c, 0, 47, 95
4, 184800, Note_off_c, 0, 47, 0
4, 184800, Note_on_c, 0, 62, 95
4, 184800, Note_on_c, 0, 50, 85
4, 184800, Note_on_c, 0, 45, 85
4, 184800, Note_on_c, 0, 47, 95
4, 184840, Note_off_c, 0, 50, 0
4, 184840, Note_off_c, 0, 45, 0
4, 185040, Note_off_c, 0, 62, 0
4, 185040, Note_off_c, 0, 47, 0
4, 185280, Note_on_c, 0, 64, 95
4, 185520, Note_off_c, 0, 64, 0
4, 185760, Note_on_c, 0, 47, 95
4, 186000, Note_off_c, 0, 47, 0
4, 186000, Note_on_c, 0, 47, 95
4, 186240, Note_off_c, 0, 47, 0
4, 186480, Note_on_c, 0, 62, 95
4, 186480, Note_on_c, 0, 50, 85
4, 186480, Note_on_c, 0, 45, 85
4, 186480, Note_on_c, 0, 47, 95
4, 186520, Note_off_c, 0, 50, 0
4, 186520, Note_off_c, 0, 45, 0
4, 186720, Note_off_c, 0, 62, 0
4, 186720, Note_off_c, 0, 47, 0
4, 186720, Note_on_c, 0, 55, 85
4, 186760, Note_off_c, 0, 55, 0
4, 186960, Note_on_c, 0, 64, 95
4, 187440, Note_off_c, 0, 64, 0
4, 187440, Note_on_c, 0, 47, 95
4, 187680, Note_off_c, 0, 47, 0
4, 187680, Note_on_c, 0, 47, 95
4, 187920, Note_off_c, 0, 47, 0
4, 187920, Note_on_c, 0, 47, 85
4, 187960, Note_off_c, 0, 47, 0
4, 188160, Note_on_c, 0, 48, 95
4, 188640, Note_off_c, 0, 48, 0
4, 188640, Note_on_c, 0, 62, 95
4, 188640, Note_on_c, 0, 50, 85
4, 188640, Note_on_c, 0, 45, 85
4, 188640, Note_on_c, 0, 48, 95
4, 188680, Note_off_c, 0, 50, 0
4, 188680, Note_off_c, 0, 45, 0
4, 188880, Note_off_c, 0, 62, 0
4, 188880, Note_off_c, 0, 48, 0
4, 189120, Note_on_c, 0, 64, 95
4, 189360, Note_off_c, 0, 64, 0
4, 189600, Note_on_c, 0, 48, 95
4, 189840, Note_off_c, 0, 48, 0
4, 189840, Note_on_c, 0, 48, 95
4, 190080, Note_off_c, 0, 48, 0
4, 190320, Note_on_c, 0, 62, 95
4, 190320, Note_on_c, 0, 50, 85
4, 190320, Note_on_c, 0, 45, 85
4, 190320, Note_on_c, 0, 48, 95
4, 190360, Note_off_c, 0, 50, 0
4, 190360, Note_off_c, 0, 45, 0
4, 190560, Note_off_c, 0, 62, 0
4, 190560, Note_off_c, 0, 48, 0
4, 190560, Note_on_c, 0, 55, 85
4, 190600, Note_off_c, 0, 55, 0
4, 190800, Note_on_c, 0, 64, 95
4, 191280, Note_off_c, 0, 64, 0
4, 191280, Note_on_c, 0, 48, 95
4, 191520, Note_off_c, 0, 48, 0
4, 191520, Note_on_c, 0, 48, 95
4, 191760, Note_off_c, 0, 48, 0
4, 191760, Note_on_c, 0, 48, 95
4, 192000, Note_off_c, 0, 48, 0
4, 192000, Note_on_c, 0, 52, 95
4, 192480, Note_off_c, 0, 52, 0
4, 192480, Note_on_c, 0, 62, 95
4, 192480, Note_on_c, 0, 50, 85
4, 192480, Note_on_c, 0, 52, 95
4, 192520, Note_off_c, 0, 50, 0
4, 192720, Note_off_c, 0, 62, 0
4, 192720, Note_off_c, 0, 52, 0
4, 192960, Note_on_c, 0, 64, 95
4, 193200, Note_off_c, 0, 64, 0
4, 193440, Note_on_c, 0, 52, 95
4, 193680, Note_off_c, 0, 52, 0
4, 193680, Note_on_c, 0, 52, 95
4, 193920, Note_off_c, 0, 52, 0
4, 194160, Note_on_c, 0, 62, 95
4, 194160, Note_on_c, 0, 50, 85
4, 194160, Note_on_c, 0, 52, 95
4, 194200, Note_off_c, 0, 50, 0
4, 194400, Note_off_c, 0, 62, 0
4, 194400, Note_off_c, 0, 52, 0
4, 194400, Note_on_c, 0, 55, 85
4, 194440, Note_off_c, 0, 55, 0
4, 194640, Note_on_c, 0, 64, 95
4, 194880, Note_off_c, 0, 64, 0
4, 195120, Note_on_c, 0, 52, 85
4, 195160, Note_off_c, 0, 52, 0
4, 195360, Note_on_c, 0, 52, 95
4, 195840, Note_off_c, 0, 52, 0
4, 195840, Note_on_c, 0, 55, 95
4, 195840, Note_on_c, 0, 50, 95
4, 196320, Note_off_c, 0, 55, 0
4, 196320, Note_off_c, 0, 50, 0
4, 196320, Note_on_c, 0, 62, 95
4, 196320, Note_on_c, 0, 50, 95
4, 196560, Note_off_c, 0, 62, 0
4, 196560, Note_off_c, 0, 50, 0
4, 196800, Note_on_c, 0, 64, 95
4, 197040, Note_off_c, 0, 64, 0
4, 197280, Note_on_c, 0, 50, 95
4, 197520, Note_off_c, 0, 50, 0
4, 197520, Note_on_c, 0, 50, 95
4, 198000, Note_off_c, 0, 50, 0
4, 198000, Note_on_c, 0, 62, 95
4, 198000, Note_on_c, 0, 50, 95
4, 198240, Note_off_c, 0, 62, 0
4, 198240, Note_off_c, 0, 50, 0
4, 198240, Note_on_c, 0, 55, 85
4, 198280, Note_off_c, 0, 55, 0
4, 198480, Note_on_c, 0, 64, 95
4, 198720, Note_off_c, 0, 64, 0
4, 198960, Note_on_c, 0, 50, 95
4, 198960, Note_on_c, 0, 45, 95
4, 199200, Note_off_c, 0, 50, 0
4, 199200, Note_off_c, 0, 45, 0
4, 199200, Note_on_c, 0, 50, 95
4, 199440, Note_off_c, 0, 50, 0
4, 199440, Note_on_c, 0, 50, 95
4, 199680, Note_off_c, 0, 50, 0
4, 199680, Note_on_c, 0, 47, 95
4, 200160, Note_off_c, 0, 47, 0
4, 200160, Note_on_c, 0, 62, 95
4, 200160, Note_on_c, 0, 50, 85
4, 200160, Note_on_c, 0, 45, 85
4, 200160, Note_on_c, 0, 47, 95
4, 200200, Note_off_c, 0, 50, 0
4, 200200, Note_off_c, 0, 45, 0
4, 200400, Note_off_c, 0, 62, 0
4, 200400, Note_off_c, 0, 47, 0
4, 200640, Note_on_c, 0, 64, 95
4, 200880, Note_off_c, 0, 64, 0
4, 201120, Note_on_c, 0, 47, 95
4, 201360, Note_off_c, 0, 47, 0
4, 201360, Note_on_c, 0, 47, 95
4, 201600, Note_off_c, 0, 47, 0
4, 201600, Note_on_c, 0, 47, 95
4, 201840, Note_off_c, 0, 47, 0
4, 201840, Note_on_c, 0, 62, 95
4, 201840, Note_on_c, 0, 50, 85
4, 201840, Note_on_c, 0, 45, 85
4, 201840, Note_on_c, 0, 47, 95
4, 201880, Note_off_c, 0, 50, 0
4, 201880, Note_off_c, 0, 45, 0
4, 202080, Note_off_c, 0, 62, 0
4, 202080, Note_off_c, 0, 47, 0
4, 202080, Note_on_c, 0, 55, 85
4, 202120, Note_off_c, 0, 55, 0
4, 202320, Note_on_c, 0, 64, 95
4, 202560, Note_off_c, 0, 64, 0
4, 202800, Note_on_c, 0, 47, 95
4, 203040, Note_off_c, 0, 47, 0
4, 203040, Note_on_c, 0, 47, 95
4, 203280, Note_off_c, 0, 47, 0
4, 203280, Note_on_c, 0, 47, 95
4, 203520, Note_off_c, 0, 47, 0
4, 203520, Note_on_c, 0, 48, 95
4, 204000, Note_off_c, 0, 48, 0
4, 204000, Note_on_c, 0, 62, 95
4, 204000, Note_on_c, 0, 50, 85
4, 204000, Note_on_c, 0, 45, 85
4, 204000, Note_on_c, 0, 48, 95
4, 204040, Note_off_c, 0, 50, 0
4, 204040, Note_off_c, 0, 45, 0
4, 204240, Note_off_c, 0, 62, 0
4, 204240, Note_off_c, 0, 48, 0
4, 204480, Note_on_c, 0, 64, 95
4, 204720, Note_off_c, 0, 64, 0
4, 204960, Note_on_c, 0, 48, 95
4, 205200, Note_off_c, 0, 48, 0
4, 205200, Note_on_c, 0, 48, 95
4, 205440, Note_off_c, 0, 48, 0
4, 205680, Note_on_c, 0, 62, 95
4, 205680, Note_on_c, 0, 50, 85
4, 205680, Note_on_c, 0, 45, 85
4, 205680, Note_on_c, 0, 48, 95
4, 205720, Note_off_c, 0, 50, 0
4, 205720, Note_off_c, 0, 45, 0
4, 205920, Note_off_c, 0, 62, 0
4, 205920, Note_off_c, 0, 48, 0
4, 205920, Note_on_c, 0, 55, 85
4, 205960, Note_off_c, 0, 55, 0
4, 206160, Note_on_c, 0, 64, 95
4, 206400, Note_off_c, 0, 64, 0
4, 206640, Note_on_c, 0, 48, 95
4, 206880, Note_off_c, 0, 48, 0
4, 206880, Note_on_c, 0, 48, 95
4, 207120, Note_off_c, 0, 48, 0
4, 207120, Note_on_c, 0, 48, 85
4, 207160, Note_off_c, 0, 48, 0
4, 207360, Note_on_c, 0, 52, 95
4, 207840, Note_off_c, 0, 52, 0
4, 207840, Note_on_c, 0, 62, 95
4, 207840, Note_on_c, 0, 50, 85
4, 207840, Note_on_c, 0, 52, 95
4, 207880, Note_off_c, 0, 50, 0
4, 208080, Note_off_c, 0, 62, 0
4, 208080, Note_off_c, 0, 52, 0
4, 208320, Note_on_c, 0, 64, 95
4, 208560, Note_off_c, 0, 64, 0
4, 208800, Note_on_c, 0, 52, 95
4, 209040, Note_off_c, 0, 52, 0
4, 209040, Note_on_c, 0, 52, 95
4, 209280, Note_off_c, 0, 52, 0
4, 209520, Note_on_c, 0, 62, 95
4, 209520, Note_on_c, 0, 50, 85
4, 209520, Note_on_c, 0, 52, 95
4, 209560, Note_off_c, 0, 50, 0
4, 209760, Note_off_c, 0, 62, 0
4, 209760, Note_off_c, 0, 52, 0
4, 209760, Note_on_c, 0, 55, 85
4, 209800, Note_off_c, 0, 55, 0
4, 210000, Note_on_c, 0, 64, 95
4, 210240, Note_off_c, 0, 64, 0
4, 210480, Note_on_c, 0, 52, 95
4, 210720, Note_off_c, 0, 52, 0
4, 210720, Note_on_c, 0, 52, 95
4, 211200, Note_off_c, 0, 52, 0
4, 211200, Note_on_c, 0, 55, 95
4, 211200, Note_on_c, 0, 50, 95
4, 211680, Note_off_c, 0, 55, 0
4, 211680, Note_off_c, 0, 50, 0
4, 211680, Note_on_c, 0, 62, 95
4, 211680, Note_on_c, 0, 50, 95
4, 211920, Note_off_c, 0, 62, 0
4, 211920, Note_off_c, 0, 50, 0
4, 212160, Note_on_c, 0, 64, 95
4, 212400, Note_off_c, 0, 64, 0
4, 212640, Note_on_c, 0, 50, 95
4, 212880, Note_off_c, 0, 50, 0
4, 212880, Note_on_c, 0, 50, 95
4, 213120, Note_off_c, 0, 50, 0
4, 213120, Note_on_c, 0, 50, 95
4, 213360, Note_off_c, 0, 50, 0
4, 213360, Note_on_c, 0, 62, 95
4, 213360, Note_on_c, 0, 50, 95
4, 213600, Note_off_c, 0, 62, 0
4, 213600, Note_off_c, 0, 50, 0
4, 213600, Note_on_c, 0, 55, 85
4, 213640, Note_off_c, 0, 55, 0
4, 213840, Note_on_c, 0, 64, 95
4, 214080, Note_off_c, 0, 64, 0
4, 214320, Note_on_c, 0, 45, 95
4, 214560, Note_off_c, 0, 45, 0
4, 214560, Note_on_c, 0, 50, 95
4, 214800, Note_off_c, 0, 50, 0
4, 214800, Note_on_c, 0, 50, 95
4, 215040, Note_off_c, 0, 50, 0
4, 215040, Note_on_c, 0, 47, 95
4, 215520, Note_off_c, 0, 47, 0
4, 215520, Note_on_c, 0, 62, 95
4, 215520, Note_on_c, 0, 50, 85
4, 215520, Note_on_c, 0, 45, 85
4, 215520, Note_on_c, 0, 47, 95
4, 215560, Note_off_c, 0, 50, 0
4, 215560, Note_off_c, 0, 45, 0
4, 215760, Note_off_c, 0, 62, 0
4, 215760, Note_off_c, 0, 47, 0
4, 216000, Note_on_c, 0, 64, 95
4, 216240, Note_off_c, 0, 64, 0
4, 216480, Note_on_c, 0, 47, 95
4, 216720, Note_off_c, 0, 47, 0
4, 216720, Note_on_c, 0, 47, 95
4, 216960, Note_off_c, 0, 47, 0
4, 217200, Note_on_c, 0, 62, 95
4, 217200, Note_on_c, 0, 50, 85
4, 217200, Note_on_c, 0, 45, 85
4, 217200, Note_on_c, 0, 47, 95
4, 217240, Note_off_c, 0, 50, 0
4, 217240, Note_off_c, 0, 45, 0
4, 217440, Note_off_c, 0, 62, 0
4, 217440, Note_off_c, 0, 47, 0
4, 217440, Note_on_c, 0, 55, 85
4, 217480, Note_off_c, 0, 55, 0
4, 217680, Note_on_c, 0, 64, 95
4, 217920, Note_off_c, 0, 64, 0
4, 218160, Note_on_c, 0, 47, 95
4, 218400, Note_off_c, 0, 47, 0
4, 218400, Note_on_c, 0, 47, 95
4, 218640, Note_off_c, 0, 47, 0
4, 218880, Note_on_c, 0, 48, 95
4, 219360, Note_off_c, 0, 48, 0
4, 219360, Note_on_c, 0, 62, 95
4, 219360, Note_on_c, 0, 50, 85
4, 219360, Note_on_c, 0, 45, 85
4, 219360, Note_on_c, 0, 48, 95
4, 219400, Note_off_c, 0, 50, 0
4, 219400, Note_off_c, 0, 45, 0
4, 219600, Note_off_c, 0, 62, 0
4, 219600, Note_off_c, 0, 48, 0
4, 219840, Note_on_c, 0, 64, 95
4, 220080, Note_off_c, 0, 64, 0
4, 220320, Note_on_c, 0, 48, 95
4, 220560, Note_off_c, 0, 48, 0
4, 220560, Note_on_c, 0, 48, 95
4, 220800, Note_off_c, 0, 48, 0
4, 221040, Note_on_c, 0, 62, 95
4, 221040, Note_on_c, 0, 50, 85
4, 221040, Note_on_c, 0, 45, 85
4, 221040, Note_on_c, 0, 48, 95
4, 221080, Note_off_c, 0, 50, 0
4, 221080, Note_off_c, 0, 45, 0
4, 221280, Note_off_c, 0, 62, 0
4, 221280, Note_off_c, 0, 48, 0
4, 221280, Note_on_c, 0, 55, 85
4, 221320, Note_off_c, 0, 55, 0
4, 221520, Note_on_c, 0, 64, 95
4, 222000, Note_off_c, 0, 64, 0
4, 222000, Note_on_c, 0, 48, 95
4, 222240, Note_off_c, 0, 48, 0
4, 222240, Note_on_c, 0, 48, 95
4, 222480, Note_off_c, 0, 48, 0
4, 222480, Note_on_c, 0, 48, 95
4, 222720, Note_off_c, 0, 48, 0
4, 222720, Note_on_c, 0, 52, 95
4, 223200, Note_off_c, 0, 52, 0
4, 223200, Note_on_c, 0, 62, 95
4, 223200, Note_on_c, 0, 50, 85
4, 223200, Note_on_c, 0, 52, 95
4, 223240, Note_off_c, 0, 50, 0
4, 223440, Note_off_c, 0, 62, 0
4, 223440, Note_off_c, 0, 52, 0
4, 223680, Note_on_c, 0, 64, 95
4, 223920, Note_off_c, 0, 64, 0
4, 224160, Note_on_c, 0, 52, 95
4, 224400, Note_off_c, 0, 52, 0
4, 224400, Note_on_c, 0, 52, 95
4, 224640, Note_off_c, 0, 52, 0
4, 224640, Note_on_c, 0, 52, 95
4, 224880, Note_off_c, 0, 52, 0
4, 224880, Note_on_c, 0, 62, 95
4, 224880, Note_on_c, 0, 50, 85
4, 224880, Note_on_c, 0, 52, 95
4, 224920, Note_off_c, 0, 50, 0
4, 225120, Note_off_c, 0, 62, 0
4, 225120, Note_off_c, 0, 52, 0
4, 225120, Note_on_c, 0, 55, 85
4, 225160, Note_off_c, 0, 55, 0
4, 225360, Note_on_c, 0, 64, 95
4, 225600, Note_off_c, 0, 64, 0
4, 225840, Note_on_c, 0, 52, 85
4, 225880, Note_off_c, 0, 52, 0
4, 226080, Note_on_c, 0, 52, 95
4, 226560, Note_off_c, 0, 52, 0
4, 226560, Note_on_c, 0, 55, 95
4, 226560, Note_on_c, 0, 50, 95
4, 227040, Note_off_c, 0, 55, 0
4, 227040, Note_off_c, 0, 50, 0
4, 227040, Note_on_c, 0, 62, 95
4, 227040, Note_on_c, 0, 50, 95
4, 227280, Note_off_c, 0, 62, 0
4, 227280, Note_off_c, 0, 50, 0
4, 227520, Note_on_c, 0, 64, 95
4, 227760, Note_off_c, 0, 64, 0
4, 228000, Note_on_c, 0, 50, 95
4, 228240, Note_off_c, 0, 50, 0
4, 228240, Note_on_c, 0, 50, 95
4, 228480, Note_off_c, 0, 50, 0
4, 228480, Note_on_c, 0, 50, 95
4, 228720, Note_off_c, 0, 50, 0
4, 228720, Note_on_c, 0, 62, 95
4, 228720, Note_on_c, 0, 50, 95
4, 228960, Note_off_c, 0, 62, 0
4, 228960, Note_off_c, 0, 50, 0
4, 228960, Note_on_c, 0, 55, 85
4, 229000, Note_off_c, 0, 55, 0
4, 229200, Note_on_c, 0, 64, 95
4, 229440, Note_off_c, 0, 64, 0
4, 229680, Note_on_c, 0, 45, 95
4, 229920, Note_off_c, 0, 45, 0
4, 229920, Note_on_c, 0, 50, 95
4, 230160, Note_off_c, 0, 50, 0
4, 230160, Note_on_c, 0, 50, 95
4, 230400, Note_off_c, 0, 50, 0
4, 230400, Note_on_c, 0, 47, 95
4, 230880, Note_off_c, 0, 47, 0
4, 230880, Note_on_c, 0, 62, 95
4, 230880, Note_on_c, 0, 50, 85
4, 230880, Note_on_c, 0, 45, 85
4, 230880, Note_on_c, 0, 47, 95
4, 230920, Note_off_c, 0, 50, 0
4, 230920, Note_off_c, 0, 45, 0
4, 231120, Note_off_c, 0, 62, 0
4, 231120, Note_off_c, 0, 47, 0
4, 231360, Note_on_c, 0, 64, 95
4, 231600, Note_off_c, 0, 64, 0
4, 231840, Note_on_c, 0, 47, 95
4, 232080, Note_off_c, 0, 47, 0
4, 232080, Note_on_c, 0, 47, 95
4, 232560, Note_off_c, 0, 47, 0
4, 232560, Note_on_c, 0, 62, 95
4, 232560, Note_on_c, 0, 50, 85
4, 232560, Note_on_c, 0, 45, 85
4, 232560, Note_on_c, 0, 47, 95
4, 232600, Note_off_c, 0, 50, 0
4, 232600, Note_off_c, 0, 45, 0
4, 232800, Note_off_c, 0, 62, 0
4, 232800, Note_off_c, 0, 47, 0
4, 232800, Note_on_c, 0, 55, 85
4, 232840, Note_off_c, 0, 55, 0
4, 233040, Note_on_c, 0, 64, 95
4, 233280, Note_off_c, 0, 64, 0
4, 233520, Note_on_c, 0, 47, 95
4, 233760, Note_off_c, 0, 47, 0
4, 233760, Note_on_c, 0, 47, 95
4, 234000, Note_off_c, 0, 47, 0
4, 234240, Note_on_c, 0, 71, 95
4, 234240, Note_on_c, 0, 67, 95
4, 234240, Note_on_c, 0, 64, 95
4, 234480, Note_off_c, 0, 71, 0
4, 234480, Note_off_c, 0, 67, 0
4, 234480, Note_off_c, 0, 64, 0
4, 234480, Note_on_c, 0, 67, 95
4, 234720, Note_off_c, 0, 67, 0
4, 234720, Note_on_c, 0, 64, 95
4, 234960, Note_off_c, 0, 64, 0
4, 234960, Note_on_c, 0, 71, 95
4, 235200, Note_off_c, 0, 71, 0
4, 235200, Note_on_c, 0, 67, 95
4, 235440, Note_off_c, 0, 67, 0
4, 235440, Note_on_c, 0, 64, 95
4, 235680, Note_off_c, 0, 64, 0
4, 235680, Note_on_c, 0, 71, 95
4, 235920, Note_off_c, 0, 71, 0
4, 235920, Note_on_c, 0, 67, 95
4, 236160, Note_off_c, 0, 67, 0
4, 236160, Note_on_c, 0, 64, 95
4, 236400, Note_off_c, 0, 64, 0
4, 236400, Note_on_c, 0, 71, 95
4, 236640, Note_off_c, 0, 71, 0
4, 236640, Note_on_c, 0, 67, 95
4, 236880, Note_off_c, 0, 67, 0
4, 236880, Note_on_c, 0, 64, 95
4, 237120, Note_off_c, 0, 64, 0
4, 237120, Note_on_c, 0, 71, 95
4, 237120, Note_on_c, 0, 67, 95
4, 237120, Note_on_c, 0, 64, 95
4, 237600, Note_off_c, 0, 71, 0
4, 237600, Note_off_c, 0, 67, 0
4, 237600, Note_off_c, 0, 64, 0
4, 237600, Note_on_c, 0, 64, 85
4, 237600, Note_on_c, 0, 59, 85
4, 237600, Note_on_c, 0, 55, 85
4, 237680, Note_off_c, 0, 64, 0
4, 237680, Note_off_c, 0, 59, 0
4, 237680, Note_off_c, 0, 55, 0
4, 238080, Note_on_c, 0, 67, 95
4, 238080, Note_on_c, 0, 62, 95
4, 238080, Note_on_c, 0, 59, 95
4, 238080, Note_on_c, 0, 55, 95
4, 238080, Note_on_c, 0, 50, 95
4, 238080, Note_on_c, 0, 43, 95
4, 238800, Note_off_c, 0, 67, 0
4, 238800, Note_off_c, 0, 62, 0
4, 238800, Note_off_c, 0, 59, 0
4, 238800, Note_off_c, 0, 55, 0
4, 238800, Note_off_c, 0, 50, 0
4, 238800, Note_off_c, 0, 43, 0
4, 238800, Note_on_c, 0, 67, 79
4, 238800, Note_on_c, 0, 62, 79
4, 238800, Note_on_c, 0, 59, 79
4, 238800, Note_on_c, 0, 55, 79
4, 238800, Note_on_c, 0, 50, 79
4, 238800, Note_on_c, 0, 43, 79
4, 239040, Note_off_c, 0, 67, 0
4, 239040, Note_off_c, 0, 62, 0
4, 239040, Note_off_c, 0, 59, 0
4, 239040, Note_off_c, 0, 55, 0
4, 239040, Note_off_c, 0, 50, 0
4, 239040, Note_off_c, 0, 43, 0
4, 239040, Note_on_c, 0, 67, 85
4, 239040, Note_on_c, 0, 62, 85
4, 239040, Note_on_c, 0, 59, 85
4, 239040, Note_on_c, 0, 55, 85
4, 239040, Note_on_c, 0, 50, 85
4, 239040, Note_on_c, 0, 43, 85
4, 239120, Note_off_c, 0, 67, 0
4, 239120, Note_off_c, 0, 62, 0
4, 239120, Note_off_c, 0, 59, 0
4, 239120, Note_off_c, 0, 55, 0
4, 239120, Note_off_c, 0, 50, 0
4, 239120, Note_off_c, 0, 43, 0
4, 239520, Note_on_c, 0, 66, 95
4, 239520, Note_on_c, 0, 62, 95
4, 239520, Note_on_c, 0, 57, 95
4, 239520, Note_on_c, 0, 50, 95
4, 240240, Note_off_c, 0, 66, 0
4, 240240, Note_off_c, 0, 62, 0
4, 240240, Note_off_c, 0, 57, 0
4, 240240, Note_off_c, 0, 50, 0
4, 240240, Note_on_c, 0, 66, 79
4, 240240, Note_on_c, 0, 62, 79
4, 240240, Note_on_c, 0, 57, 79
4, 240240, Note_on_c, 0, 50, 79
4, 240480, Note_off_c, 0, 66, 0
4, 240480, Note_off_c, 0, 62, 0
4, 240480, Note_off_c, 0, 57, 0
4, 240480, Note_off_c, 0, 50, 0
4, 240480, Note_on_c, 0, 66, 95
4, 240480, Note_on_c, 0, 62, 95
4, 240480, Note_on_c, 0, 57, 95
4, 240480, Note_on_c, 0, 50, 95
4, 240960, Note_off_c, 0, 66, 0
4, 240960, Note_off_c, 0, 62, 0
4, 240960, Note_off_c, 0, 57, 0
4, 240960, Note_off_c, 0, 50, 0
4, 240960, Note_on_c, 0, 66, 79
4, 240960, Note_on_c, 0, 62, 79
4, 240960, Note_on_c, 0, 57, 79
4, 240960, Note_on_c, 0, 50, 79
4, 241440, Note_off_c, 0, 66, 0
4, 241440, Note_off_c, 0, 62, 0
4, 241440, Note_off_c, 0, 57, 0
4, 241440, Note_off_c, 0, 50, 0
4, 241440, Note_on_c, 0, 59, 85
4, 241440, Note_on_c, 0, 55, 85
4, 241440, Note_on_c, 0, 50, 85
4, 241440, Note_on_c, 0, 45, 85
4, 241520, Note_off_c, 0, 59, 0
4, 241520, Note_off_c, 0, 55, 0
4, 241520, Note_off_c, 0, 50, 0
4, 241520, Note_off_c, 0, 45, 0
4, 241920, Note_on_c, 0, 66, 95
4, 241920, Note_on_c, 0, 62, 95
4, 241920, Note_on_c, 0, 59, 95
4, 241920, Note_on_c, 0, 54, 95
4, 241920, Note_on_c, 0, 47, 95
4, 242640, Note_off_c, 0, 66, 0
4, 242640, Note_off_c, 0, 62, 0
4, 242640, Note_off_c, 0, 59, 0
4, 242640, Note_off_c, 0, 54, 0
4, 242640, Note_off_c, 0, 47, 0
4, 242640, Note_on_c, 0, 66, 79
4, 242640, Note_on_c, 0, 62, 79
4, 242640, Note_on_c, 0, 59, 79
4, 242640, Note_on_c, 0, 54, 79
4, 242640, Note_on_c, 0, 47, 79
4, 242880, Note_off_c, 0, 66, 0
4, 242880, Note_off_c, 0, 62, 0
4, 242880, Note_off_c, 0, 59, 0
4, 242880, Note_off_c, 0, 54, 0
4, 242880, Note_off_c, 0, 47, 0
4, 242880, Note_on_c, 0, 62, 85
4, 242880, Note_on_c, 0, 59, 85
4, 242880, Note_on_c, 0, 55, 85
4, 242880, Note_on_c, 0, 50, 85
4, 242880, Note_on_c, 0, 43, 85
4, 242960, Note_off_c, 0, 62, 0
4, 242960, Note_off_c, 0, 59, 0
4, 242960, Note_off_c, 0, 55, 0
4, 242960, Note_off_c, 0, 50, 0
4, 242960, Note_off_c, 0, 43, 0
4, 243360, Note_on_c, 0, 71, 95
4, 243360, Note_on_c, 0, 67, 95
4, 243360, Note_on_c, 0, 64, 95
4, 243360, Note_on_c, 0, 60, 95
4, 243360, Note_on_c, 0, 50, 85
4, 243360, Note_on_c, 0, 48, 95
4, 243480, Note_off_c, 0, 50, 0
4, 244080, Note_off_c, 0, 71, 0
4, 244080, Note_off_c, 0, 67, 0
4, 244080, Note_off_c, 0, 64, 0
4, 244080, Note_off_c, 0, 60, 0
4, 244080, Note_off_c, 0, 48, 0
4, 244080, Note_on_c, 0, 71, 79
4, 244080, Note_on_c, 0, 67, 79
4, 244080, Note_on_c, 0, 64, 79
4, 244080, Note_on_c, 0, 60, 79
4, 244080, Note_on_c, 0, 45, 71
4, 244080, Note_on_c, 0, 48, 79
4, 244120, Note_off_c, 0, 45, 0
4, 244320, Note_off_c, 0, 71, 0
4, 244320, Note_off_c, 0, 67, 0
4, 244320, Note_off_c, 0, 64, 0
4, 244320, Note_off_c, 0, 60, 0
4, 244320, Note_off_c, 0, 48, 0
4, 244320, Note_on_c, 0, 71, 95
4, 244320, Note_on_c, 0, 67, 95
4, 244320, Note_on_c, 0, 64, 95
4, 244320, Note_on_c, 0, 60, 95
4, 244320, Note_on_c, 0, 50, 85
4, 244320, Note_on_c, 0, 48, 95
4, 244400, Note_off_c, 0, 50, 0
4, 244800, Note_off_c, 0, 71, 0
4, 244800, Note_off_c, 0, 67, 0
4, 244800, Note_off_c, 0, 64, 0
4, 244800, Note_off_c, 0, 60, 0
4, 244800, Note_off_c, 0, 48, 0
4, 244800, Note_on_c, 0, 71, 79
4, 244800, Note_on_c, 0, 67, 79
4, 244800, Note_on_c, 0, 64, 79
4, 244800, Note_on_c, 0, 60, 79
4, 244800, Note_on_c, 0, 50, 85
4, 244800, Note_on_c, 0, 48, 79
4, 244880, Note_off_c, 0, 50, 0
4, 245280, Note_off_c, 0, 71, 0
4, 245280, Note_off_c, 0, 67, 0
4, 245280, Note_off_c, 0, 64, 0
4, 245280, Note_off_c, 0, 60, 0
4, 245280, Note_off_c, 0, 48, 0
4, 245280, Note_on_c, 0, 59, 85
4, 245280, Note_on_c, 0, 55, 85
4, 245280, Note_on_c, 0, 50, 85
4, 245280, Note_on_c, 0, 45, 85
4, 245280, Note_on_c, 0, 40, 85
4, 245360, Note_off_c, 0, 59, 0
4, 245360, Note_off_c, 0, 55, 0
4, 245360, Note_off_c, 0, 50, 0
4, 245360, Note_off_c, 0, 45, 0
4, 245360, Note_off_c, 0, 40, 0
4, 245760, Note_on_c, 0, 67, 95
4, 245760, Note_on_c, 0, 62, 95
4, 245760, Note_on_c, 0, 59, 95
4, 245760, Note_on_c, 0, 55, 95
4, 245760, Note_on_c, 0, 50, 95
4, 245760, Note_on_c, 0, 43, 95
4, 246480, Note_off_c, 0, 67, 0
4, 246480, Note_off_c, 0, 62, 0
4, 246480, Note_off_c, 0, 59, 0
4, 246480, Note_off_c, 0, 55, 0
4, 246480, Note_off_c, 0, 50, 0
4, 246480, Note_off_c, 0, 43, 0
4, 246480, Note_on_c, 0, 67, 79
4, 246480, Note_on_c, 0, 62, 79
4, 246480, Note_on_c, 0, 59, 79
4, 246480, Note_on_c, 0, 55, 79
4, 246480, Note_on_c, 0, 50, 79
4, 246480, Note_on_c, 0, 43, 79
4, 246720, Note_off_c, 0, 67, 0
4, 246720, Note_off_c, 0, 62, 0
4, 246720, Note_off_c, 0, 59, 0
4, 246720, Note_off_c, 0, 55, 0
4, 246720, Note_off_c, 0, 50, 0
4, 246720, Note_off_c, 0, 43, 0
4, 246720, Note_on_c, 0, 67, 85
4, 246720, Note_on_c, 0, 62, 85
4, 246720, Note_on_c, 0, 59, 85
4, 246720, Note_on_c, 0, 55, 85
4, 246720, Note_on_c, 0, 50, 85
4, 246720, Note_on_c, 0, 43, 85
4, 246800, Note_off_c, 0, 67, 0
4, 246800, Note_off_c, 0, 62, 0
4, 246800, Note_off_c, 0, 59, 0
4, 246800, Note_off_c, 0, 55, 0
4, 246800, Note_off_c, 0, 50, 0
4, 246800, Note_off_c, 0, 43, 0
4, 247200, Note_on_c, 0, 66, 95
4, 247200, Note_on_c, 0, 62, 95
4, 247200, Note_on_c, 0, 57, 95
4, 247200, Note_on_c, 0, 50, 95
4, 247920, Note_off_c, 0, 66, 0
4, 247920, Note_off_c, 0, 62, 0
4, 247920, Note_off_c, 0, 57, 0
4, 247920, Note_off_c, 0, 50, 0
4, 247920, Note_on_c, 0, 66, 79
4, 247920, Note_on_c, 0, 62, 79
4, 247920, Note_on_c, 0, 57, 79
4, 247920, Note_on_c, 0, 50, 79
4, 248160, Note_off_c, 0, 66, 0
4, 248160, Note_off_c, 0, 62, 0
4, 248160, Note_off_c, 0, 57, 0
4, 248160, Note_off_c, 0, 50, 0
4, 248160, Note_on_c, 0, 66, 95
4, 248160, Note_on_c, 0, 62, 95
4, 248160, Note_on_c, 0, 57, 95
4, 248160, Note_on_c, 0, 50, 95
4, 248640, Note_off_c, 0, 66, 0
4, 248640, Note_off_c, 0, 62, 0
4, 248640, Note_off_c, 0, 57, 0
4, 248640, Note_off_c, 0, 50, 0
4, 248640, Note_on_c, 0, 66, 79
4, 248640, Note_on_c, 0, 62, 79
4, 248640, Note_on_c, 0, 57, 79
4, 248640, Note_on_c, 0, 50, 79
4, 249120, Note_off_c, 0, 66, 0
4, 249120, Note_off_c, 0, 62, 0
4, 249120, Note_off_c, 0, 57, 0
4, 249120, Note_off_c, 0, 50, 0
4, 249120, Note_on_c, 0, 59, 85
4, 249120, Note_on_c, 0, 55, 85
4, 249120, Note_on_c, 0, 50, 85
4, 249120, Note_on_c, 0, 45, 85
4, 249200, Note_off_c, 0, 59, 0
4, 249200, Note_off_c, 0, 55, 0
4, 249200, Note_off_c, 0, 50, 0
4, 249200, Note_off_c, 0, 45, 0
4, 249600, Note_on_c, 0, 66, 95
4, 249600, Note_on_c, 0, 62, 95
4, 249600, Note_on_c, 0, 59, 95
4, 249600, Note_on_c, 0, 54, 95
4, 249600, Note_on_c, 0, 47, 95
4, 250320, Note_off_c, 0, 66, 0
4, 250320, Note_off_c, 0, 62, 0
4, 250320, Note_off_c, 0, 59, 0
4, 250320, Note_off_c, 0, 54, 0
4, 250320, Note_off_c, 0, 47, 0
4, 250320, Note_on_c, 0, 66, 79
4, 250320, Note_on_c, 0, 62, 79
4, 250320, Note_on_c, 0, 59, 79
4, 250320, Note_on_c, 0, 54, 79
4, 250320, Note_on_c, 0, 47, 79
4, 250560, Note_off_c, 0, 66, 0
4, 250560, Note_off_c, 0, 62, 0
4, 250560, Note_off_c, 0, 59, 0
4, 250560, Note_off_c, 0, 54, 0
4, 250560, Note_off_c, 0, 47, 0
4, 250560, Note_on_c, 0, 62, 85
4, 250560, Note_on_c, 0, 59, 85
4, 250560, Note_on_c, 0, 55, 85
4, 250560, Note_on_c, 0, 50, 85
4, 250560, Note_on_c, 0, 43, 85
4, 250640, Note_off_c, 0, 62, 0
4, 250640, Note_off_c, 0, 59, 0
4, 250640, Note_off_c, 0, 55, 0
4, 250640, Note_off_c, 0, 50, 0
4, 250640, Note_off_c, 0, 43, 0
4, 251040, Note_on_c, 0, 71, 95
4, 251040, Note_on_c, 0, 67, 95
4, 251040, Note_on_c, 0, 64, 95
4, 251040, Note_on_c, 0, 60, 95
4, 251040, Note_on_c, 0, 50, 85
4, 251040, Note_on_c, 0, 48, 95
4, 251120, Note_off_c, 0, 50, 0
4, 251520, Note_off_c, 0, 71, 0
4, 251520, Note_off_c, 0, 67, 0
4, 251520, Note_off_c, 0, 64, 0
4, 251520, Note_off_c, 0, 60, 0
4, 251520, Note_off_c, 0, 48, 0
4, 251520, Note_on_c, 0, 71, 79
4, 251520, Note_on_c, 0, 67, 79
4, 251520, Note_on_c, 0, 64, 79
4, 251520, Note_on_c, 0, 60, 79
4, 251520, Note_on_c, 0, 45, 71
4, 251520, Note_on_c, 0, 48, 79
4, 251560, Note_off_c, 0, 45, 0
4, 251760, Note_off_c, 0, 71, 0
4, 251760, Note_off_c, 0, 67, 0
4, 251760, Note_off_c, 0, 64, 0
4, 251760, Note_off_c, 0, 60, 0
4, 251760, Note_off_c, 0, 48, 0
4, 251760, Note_on_c, 0, 71, 79
4, 251760, Note_on_c, 0, 67, 79
4, 251760, Note_on_c, 0, 64, 79
4, 251760, Note_on_c, 0, 60, 79
4, 251760, Note_on_c, 0, 45, 71
4, 251760, Note_on_c, 0, 48, 79
4, 251800, Note_off_c, 0, 45, 0
4, 252000, Note_off_c, 0, 71, 0
4, 252000, Note_off_c, 0, 67, 0
4, 252000, Note_off_c, 0, 64, 0
4, 252000, Note_off_c, 0, 60, 0
4, 252000, Note_off_c, 0, 48, 0
4, 252000, Note_on_c, 0, 71, 95
4, 252000, Note_on_c, 0, 67, 95
4, 252000, Note_on_c, 0, 64, 95
4, 252000, Note_on_c, 0, 60, 95
4, 252000, Note_on_c, 0, 50, 85
4, 252000, Note_on_c, 0, 48, 95
4, 252080, Note_off_c, 0, 50, 0
4, 252480, Note_off_c, 0, 71, 0
4, 252480, Note_off_c, 0, 67, 0
4, 252480, Note_off_c, 0, 64, 0
4, 252480, Note_off_c, 0, 60, 0
4, 252480, Note_off_c, 0, 48, 0
4, 252480, Note_on_c, 0, 71, 79
4, 252480, Note_on_c, 0, 67, 79
4, 252480, Note_on_c, 0, 64, 79
4, 252480, Note_on_c, 0, 60, 79
4, 252480, Note_on_c, 0, 50, 85
4, 252480, Note_on_c, 0, 48, 79
4, 252560, Note_off_c, 0, 50, 0
4, 252960, Note_off_c, 0, 71, 0
4, 252960, Note_off_c, 0, 67, 0
4, 252960, Note_off_c, 0, 64, 0
4, 252960, Note_off_c, 0, 60, 0
4, 252960, Note_off_c, 0, 48, 0
4, 252960, Note_on_c, 0, 59, 85
4, 252960, Note_on_c, 0, 55, 85
4, 252960, Note_on_c, 0, 50, 85
4, 252960, Note_on_c, 0, 45, 85
4, 252960, Note_on_c, 0, 40, 85
4, 253040, Note_off_c, 0, 59, 0
4, 253040, Note_off_c, 0, 55, 0
4, 253040, Note_off_c, 0, 50, 0
4, 253040, Note_off_c, 0, 45, 0
4, 253040, Note_off_c, 0, 40, 0
4, 253440, Note_on_c, 0, 67, 95
4, 253440, Note_on_c, 0, 62, 95
4, 253440, Note_on_c, 0, 59, 95
4, 253440, Note_on_c, 0, 55, 95
4, 253440, Note_on_c, 0, 50, 95
4, 253440, Note_on_c, 0, 43, 95
4, 254160, Note_off_c, 0, 67, 0
4, 254160, Note_off_c, 0, 62, 0
4, 254160, Note_off_c, 0, 59, 0
4, 254160, Note_off_c, 0, 55, 0
4, 254160, Note_off_c, 0, 50, 0
4, 254160, Note_off_c, 0, 43, 0
4, 254160, Note_on_c, 0, 67, 79
4, 254160, Note_on_c, 0, 62, 79
4, 254160, Note_on_c, 0, 59, 79
4, 254160, Note_on_c, 0, 55, 79
4, 254160, Note_on_c, 0, 50, 79
4, 254160, Note_on_c, 0, 43, 79
4, 254400, Note_off_c, 0, 67, 0
4, 254400, Note_off_c, 0, 62, 0
4, 254400, Note_off_c, 0, 59, 0
4, 254400, Note_off_c, 0, 55, 0
4, 254400, Note_off_c, 0, 50, 0
4, 254400, Note_off_c, 0, 43, 0
4, 254400, Note_on_c, 0, 67, 85
4, 254400, Note_on_c, 0, 62, 85
4, 254400, Note_on_c, 0, 59, 85
4, 254400, Note_on_c, 0, 55, 85
4, 254400, Note_on_c, 0, 50, 85
4, 254400, Note_on_c, 0, 43, 85
4, 254480, Note_off_c, 0, 67, 0
4, 254480, Note_off_c, 0, 62, 0
4, 254480, Note_off_c, 0, 59, 0
4, 254480, Note_off_c, 0, 55, 0
4, 254480, Note_off_c, 0, 50, 0
4, 254480, Note_off_c, 0, 43, 0
4, 254880, Note_on_c, 0, 66, 95
4, 254880, Note_on_c, 0, 62, 95
4, 254880, Note_on_c, 0, 57, 95
4, 254880, Note_on_c, 0, 50, 95
4, 255600, Note_off_c, 0, 66, 0
4, 255600, Note_off_c, 0, 62, 0
4, 255600, Note_off_c, 0, 57, 0
4, 255600, Note_off_c, 0, 50, 0
4, 255600, Note_on_c, 0, 66, 79
4, 255600, Note_on_c, 0, 62, 79
4, 255600, Note_on_c, 0, 57, 79
4, 255600, Note_on_c, 0, 50, 79
4, 255840, Note_off_c, 0, 66, 0
4, 255840, Note_off_c, 0, 62, 0
4, 255840, Note_off_c, 0, 57, 0
4, 255840, Note_off_c, 0, 50, 0
4, 255840, Note_on_c, 0, 66, 95
4, 255840, Note_on_c, 0, 62, 95
4, 255840, Note_on_c, 0, 57, 95
4, 255840, Note_on_c, 0, 50, 95
4, 256320, Note_off_c, 0, 66, 0
4, 256320, Note_off_c, 0, 62, 0
4, 256320, Note_off_c, 0, 57, 0
4, 256320, Note_off_c, 0, 50, 0
4, 256320, Note_on_c, 0, 66, 79
4, 256320, Note_on_c, 0, 62, 79
4, 256320, Note_on_c, 0, 57, 79
4, 256320, Note_on_c, 0, 50, 79
4, 256800, Note_off_c, 0, 66, 0
4, 256800, Note_off_c, 0, 62, 0
4, 256800, Note_off_c, 0, 57, 0
4, 256800, Note_off_c, 0, 50, 0
4, 256800, Note_on_c, 0, 59, 85
4, 256800, Note_on_c, 0, 55, 85
4, 256800, Note_on_c, 0, 50, 85
4, 256800, Note_on_c, 0, 45, 85
4, 256880, Note_off_c, 0, 59, 0
4, 256880, Note_off_c, 0, 55, 0
4, 256880, Note_off_c, 0, 50, 0
4, 256880, Note_off_c, 0, 45, 0
4, 257280, Note_on_c, 0, 66, 95
4, 257280, Note_on_c, 0, 62, 95
4, 257280, Note_on_c, 0, 59, 95
4, 257280, Note_on_c, 0, 54, 95
4, 257280, Note_on_c, 0, 47, 95
4, 258000, Note_off_c, 0, 66, 0
4, 258000, Note_off_c, 0, 62, 0
4, 258000, Note_off_c, 0, 59, 0
4, 258000, Note_off_c, 0, 54, 0
4, 258000, Note_off_c, 0, 47, 0
4, 258000, Note_on_c, 0, 66, 79
4, 258000, Note_on_c, 0, 62, 79
4, 258000, Note_on_c, 0, 59, 79
4, 258000, Note_on_c, 0, 54, 79
4, 258000, Note_on_c, 0, 47, 79
4, 258240, Note_off_c, 0, 66, 0
4, 258240, Note_off_c, 0, 62, 0
4, 258240, Note_off_c, 0, 59, 0
4, 258240, Note_off_c, 0, 54, 0
4, 258240, Note_off_c, 0, 47, 0
4, 258240, Note_on_c, 0, 62, 85
4, 258240, Note_on_c, 0, 59, 85
4, 258240, Note_on_c, 0, 55, 85
4, 258240, Note_on_c, 0, 50, 85
4, 258240, Note_on_c, 0, 43, 85
4, 258320, Note_off_c, 0, 62, 0
4, 258320, Note_off_c, 0, 59, 0
4, 258320, Note_off_c, 0, 55, 0
4, 258320, Note_off_c, 0, 50, 0
4, 258320, Note_off_c, 0, 43, 0
4, 258720, Note_on_c, 0, 71, 95
4, 258720, Note_on_c, 0, 67, 95
4, 258720, Note_on_c, 0, 64, 95
4, 258720, Note_on_c, 0, 60, 95
4, 258720, Note_on_c, 0, 50, 85
4, 258720, Note_on_c, 0, 48, 95
4, 258840, Note_off_c, 0, 50, 0
4, 259440, Note_off_c, 0, 71, 0
4, 259440, Note_off_c, 0, 67, 0
4, 259440, Note_off_c, 0, 64, 0
4, 259440, Note_off_c, 0, 60, 0
4, 259440, Note_off_c, 0, 48, 0
4, 259440, Note_on_c, 0, 71, 79
4, 259440, Note_on_c, 0, 67, 79
4, 259440, Note_on_c, 0, 64, 79
4, 259440, Note_on_c, 0, 60, 79
4, 259440, Note_on_c, 0, 45, 71
4, 259440, Note_on_c, 0, 48, 79
4, 259480, Note_off_c, 0, 45, 0
4, 259680, Note_off_c, 0, 71, 0
4, 259680, Note_off_c, 0, 67, 0
4, 259680, Note_off_c, 0, 64, 0
4, 259680, Note_off_c, 0, 60, 0
4, 259680, Note_off_c, 0, 48, 0
4, 259680, Note_on_c, 0, 71, 95
4, 259680, Note_on_c, 0, 67, 95
4, 259680, Note_on_c, 0, 64, 95
4, 259680, Note_on_c, 0, 60, 95
4, 259680, Note_on_c, 0, 50, 85
4, 259680, Note_on_c, 0, 48, 95
4, 259760, Note_off_c, 0, 50, 0
4, 260160, Note_off_c, 0, 71, 0
4, 260160, Note_off_c, 0, 67, 0
4, 260160, Note_off_c, 0, 64, 0
4, 260160, Note_off_c, 0, 60, 0
4, 260160, Note_off_c, 0, 48, 0
4, 260160, Note_on_c, 0, 71, 79
4, 260160, Note_on_c, 0, 67, 79
4, 260160, Note_on_c, 0, 64, 79
4, 260160, Note_on_c, 0, 60, 79
4, 260160, Note_on_c, 0, 50, 85
4, 260160, Note_on_c, 0, 48, 79
4, 260200, Note_off_c, 0, 50, 0
4, 260400, Note_off_c, 0, 71, 0
4, 260400, Note_off_c, 0, 67, 0
4, 260400, Note_off_c, 0, 64, 0
4, 260400, Note_off_c, 0, 60, 0
4, 260400, Note_off_c, 0, 48, 0
4, 260400, Note_on_c, 0, 71, 79
4, 260400, Note_on_c, 0, 67, 79
4, 260400, Note_on_c, 0, 64, 79
4, 260400, Note_on_c, 0, 60, 79
4, 260400, Note_on_c, 0, 45, 71
4, 260400, Note_on_c, 0, 48, 79
4, 260440, Note_off_c, 0, 45, 0
4, 260640, Note_off_c, 0, 71, 0
4, 260640, Note_off_c, 0, 67, 0
4, 260640, Note_off_c, 0, 64, 0
4, 260640, Note_off_c, 0, 60, 0
4, 260640, Note_off_c, 0, 48, 0
4, 260640, Note_on_c, 0, 59, 85
4, 260640, Note_on_c, 0, 55, 85
4, 260640, Note_on_c, 0, 50, 85
4, 260640, Note_on_c, 0, 45, 85
4, 260640, Note_on_c, 0, 40, 85
4, 260720, Note_off_c, 0, 59, 0
4, 260720, Note_off_c, 0, 55, 0
4, 260720, Note_off_c, 0, 50, 0
4, 260720, Note_off_c, 0, 45, 0
4, 260720, Note_off_c, 0, 40, 0
4, 261120, Note_on_c, 0, 67, 95
4, 261120, Note_on_c, 0, 62, 95
4, 261120, Note_on_c, 0, 59, 95
4, 261120, Note_on_c, 0, 55, 95
4, 261120, Note_on_c, 0, 50, 95
4, 261120, Note_on_c, 0, 43, 95
4, 261840, Note_off_c, 0, 67, 0
4, 261840, Note_off_c, 0, 62, 0
4, 261840, Note_off_c, 0, 59, 0
4, 261840, Note_off_c, 0, 55, 0
4, 261840, Note_off_c, 0, 50, 0
4, 261840, Note_off_c, 0, 43, 0
4, 261840, Note_on_c, 0, 67, 79
4, 261840, Note_on_c, 0, 62, 79
4, 261840, Note_on_c, 0, 59, 79
4, 261840, Note_on_c, 0, 55, 79
4, 261840, Note_on_c, 0, 50, 79
4, 261840, Note_on_c, 0, 43, 79
4, 262080, Note_off_c, 0, 67, 0
4, 262080, Note_off_c, 0, 62, 0
4, 262080, Note_off_c, 0, 59, 0
4, 262080, Note_off_c, 0, 55, 0
4, 262080, Note_off_c, 0, 50, 0
4, 262080, Note_off_c, 0, 43, 0
4, 262080, Note_on_c, 0, 67, 85
4, 262080, Note_on_c, 0, 62, 85
4, 262080, Note_on_c, 0, 59, 85
4, 262080, Note_on_c, 0, 55, 85
4, 262080, Note_on_c, 0, 50, 85
4, 262080, Note_on_c, 0, 43, 85
4, 262160, Note_off_c, 0, 67, 0
4, 262160, Note_off_c, 0, 62, 0
4, 262160, Note_off_c, 0, 59, 0
4, 262160, Note_off_c, 0, 55, 0
4, 262160, Note_off_c, 0, 50, 0
4, 262160, Note_off_c, 0, 43, 0
4, 262560, Note_on_c, 0, 66, 95
4, 262560, Note_on_c, 0, 62, 95
4, 262560, Note_on_c, 0, 57, 95
4, 262560, Note_on_c, 0, 50, 95
4, 263280, Note_off_c, 0, 66, 0
4, 263280, Note_off_c, 0, 62, 0
4, 263280, Note_off_c, 0, 57, 0
4, 263280, Note_off_c, 0, 50, 0
4, 263280, Note_on_c, 0, 66, 79
4, 263280, Note_on_c, 0, 62, 79
4, 263280, Note_on_c, 0, 57, 79
4, 263280, Note_on_c, 0, 50, 79
4, 263520, Note_off_c, 0, 66, 0
4, 263520, Note_off_c, 0, 62, 0
4, 263520, Note_off_c, 0, 57, 0
4, 263520, Note_off_c, 0, 50, 0
4, 263520, Note_on_c, 0, 66, 95
4, 263520, Note_on_c, 0, 62, 95
4, 263520, Note_on_c, 0, 57, 95
4, 263520, Note_on_c, 0, 50, 95
4, 264000, Note_off_c, 0, 66, 0
4, 264000, Note_off_c, 0, 62, 0
4, 264000, Note_off_c, 0, 57, 0
4, 264000, Note_off_c, 0, 50, 0
4, 264000, Note_on_c, 0, 66, 79
4, 264000, Note_on_c, 0, 62, 79
4, 264000, Note_on_c, 0, 57, 79
4, 264000, Note_on_c, 0, 50, 79
4, 264480, Note_off_c, 0, 66, 0
4, 264480, Note_off_c, 0, 62, 0
4, 264480, Note_off_c, 0, 57, 0
4, 264480, Note_off_c, 0, 50, 0
4, 264480, Note_on_c, 0, 59, 85
4, 264480, Note_on_c, 0, 55, 85
4, 264480, Note_on_c, 0, 50, 85
4, 264480, Note_on_c, 0, 45, 85
4, 264560, Note_off_c, 0, 59, 0
4, 264560, Note_off_c, 0, 55, 0
4, 264560, Note_off_c, 0, 50, 0
4, 264560, Note_off_c, 0, 45, 0
4, 264960, Note_on_c, 0, 66, 95
4, 264960, Note_on_c, 0, 62, 95
4, 264960, Note_on_c, 0, 59, 95
4, 264960, Note_on_c, 0, 54, 95
4, 264960, Note_on_c, 0, 47, 95
4, 265440, Note_off_c, 0, 66, 0
4, 265440, Note_off_c, 0, 62, 0
4, 265440, Note_off_c, 0, 59, 0
4, 265440, Note_off_c, 0, 54, 0
4, 265440, Note_off_c, 0, 47, 0
4, 265920, Note_on_c, 0, 71, 95
4, 265920, Note_on_c, 0, 67, 95
4, 265920, Note_on_c, 0, 64, 95
4, 265920, Note_on_c, 0, 60, 95
4, 265920, Note_on_c, 0, 45, 85
4, 265920, Note_on_c, 0, 48, 95
4, 266400, Note_off_c, 0, 45, 0
4, 268800, Note_off_c, 0, 71, 0
4, 268800, Note_off_c, 0, 67, 0
4, 268800, Note_off_c, 0, 64, 0
4, 268800, Note_off_c, 0, 60, 0
4, 268800, Note_off_c, 0, 48, 0
4, 268800, Note_on_c, 0, 59, 85
4, 268800, Note_on_c, 0, 55, 85
4, 268880, Note_off_c, 0, 59, 0
4, 268880, Note_off_c, 0, 55, 0
4, 269280, Note_on_c, 0, 71, 95
4, 269280, Note_on_c, 0, 67, 95
4, 269280, Note_on_c, 0, 64, 95
4, 269280, Note_on_c, 0, 59, 95
4, 269760, Note_off_c, 0, 71, 0
4, 269760, Note_off_c, 0, 67, 0
4, 269760, Note_off_c, 0, 64, 0
4, 269760, Note_off_c, 0, 59, 0
4, 269760, Note_on_c, 0, 59, 85
4, 269760, Note_on_c, 0, 55, 85
4, 269840, Note_off_c, 0, 59, 0
4, 269840, Note_off_c, 0, 55, 0
4, 270240, Note_on_c, 0, 71, 95
4, 270240, Note_on_c, 0, 67, 95
4, 270240, Note_on_c, 0, 64, 95
4, 270240, Note_on_c, 0, 59, 95
4, 270720, Note_off_c, 0, 71, 0
4, 270720, Note_off_c, 0, 67, 0
4, 270720, Note_off_c, 0, 64, 0
4, 270720, Note_off_c, 0, 59, 0
4, 270720, Note_on_c, 0, 59, 85
4, 270720, Note_on_c, 0, 55, 85
4, 270800, Note_off_c, 0, 59, 0
4, 270800, Note_off_c, 0, 55, 0
4, 271200, Note_on_c, 0, 71, 95
4, 271200, Note_on_c, 0, 67, 95
4, 271200, Note_on_c, 0, 64, 95
4, 271200, Note_on_c, 0, 59, 95
4, 271680, Note_off_c, 0, 71, 0
4, 271680, Note_off_c, 0, 67, 0
4, 271680, Note_off_c, 0, 64, 0
4, 271680, Note_off_c, 0, 59, 0
4, 271680, Note_on_c, 0, 59, 85
4, 271680, Note_on_c, 0, 55, 85
4, 271760, Note_off_c, 0, 59, 0
4, 271760, Note_off_c, 0, 55, 0
4, 272160, Note_on_c, 0, 71, 95
4, 272160, Note_on_c, 0, 67, 95
4, 272160, Note_on_c, 0, 64, 95
4, 272160, Note_on_c, 0, 59, 95
4, 272640, Note_off_c, 0, 71, 0
4, 272640, Note_off_c, 0, 67, 0
4, 272640, Note_off_c, 0, 64, 0
4, 272640, Note_off_c, 0, 59, 0
4, 272640, Note_on_c, 0, 59, 85
4, 272640, Note_on_c, 0, 55, 85
4, 272720, Note_off_c, 0, 59, 0
4, 272720, Note_off_c, 0, 55, 0
4, 273120, Note_on_c, 0, 69, 95
4, 273120, Note_on_c, 0, 66, 95
4, 273120, Note_on_c, 0, 62, 95
4, 273120, Note_on_c, 0, 57, 95
4, 273600, Note_off_c, 0, 69, 0
4, 273600, Note_off_c, 0, 66, 0
4, 273600, Note_off_c, 0, 62, 0
4, 273600, Note_off_c, 0, 57, 0
4, 273600, Note_on_c, 0, 59, 85
4, 273600, Note_on_c, 0, 55, 85
4, 273680, Note_off_c, 0, 59, 0
4, 273680, Note_off_c, 0, 55, 0
4, 274080, Note_on_c, 0, 69, 95
4, 274080, Note_on_c, 0, 66, 95
4, 274080, Note_on_c, 0, 62, 95
4, 274080, Note_on_c, 0, 57, 95
4, 274560, Note_off_c, 0, 69, 0
4, 274560, Note_off_c, 0, 66, 0
4, 274560, Note_off_c, 0, 62, 0
4, 274560, Note_off_c, 0, 57, 0
4, 274560, Note_on_c, 0, 59, 85
4, 274560, Note_on_c, 0, 55, 85
4, 274640, Note_off_c, 0, 59, 0
4, 274640, Note_off_c, 0, 55, 0
4, 275040, Note_on_c, 0, 69, 95
4, 275040, Note_on_c, 0, 66, 95
4, 275040, Note_on_c, 0, 62, 95
4, 275040, Note_on_c, 0, 57, 95
4, 275520, Note_off_c, 0, 69, 0
4, 275520, Note_off_c, 0, 66, 0
4, 275520, Note_off_c, 0, 62, 0
4, 275520, Note_off_c, 0, 57, 0
4, 275520, Note_on_c, 0, 59, 85
4, 275520, Note_on_c, 0, 55, 85
4, 275600, Note_off_c, 0, 59, 0
4, 275600, Note_off_c, 0, 55, 0
4, 276000, Note_on_c, 0, 71, 95
4, 276000, Note_on_c, 0, 66, 95
4, 276000, Note_on_c, 0, 62, 95
4, 276000, Note_on_c, 0, 57, 95
4, 276480, Note_off_c, 0, 71, 0
4, 276480, Note_off_c, 0, 66, 0
4, 276480, Note_off_c, 0, 62, 0
4, 276480, Note_off_c, 0, 57, 0
4, 276480, Note_on_c, 0, 59, 85
4, 276480, Note_on_c, 0, 55, 85
4, 276560, Note_off_c, 0, 59, 0
4, 276560, Note_off_c, 0, 55, 0
4, 276960, Note_on_c, 0, 66, 95
4, 276960, Note_on_c, 0, 62, 95
4, 276960, Note_on_c, 0, 59, 95
4, 276960, Note_on_c, 0, 54, 95
4, 277440, Note_off_c, 0, 66, 0
4, 277440, Note_off_c, 0, 62, 0
4, 277440, Note_off_c, 0, 59, 0
4, 277440, Note_off_c, 0, 54, 0
4, 277440, Note_on_c, 0, 59, 85
4, 277440, Note_on_c, 0, 55, 85
4, 277520, Note_off_c, 0, 59, 0
4, 277520, Note_off_c, 0, 55, 0
4, 277920, Note_on_c, 0, 66, 95
4, 277920, Note_on_c, 0, 62, 95
4, 277920, Note_on_c, 0, 59, 95
4, 277920, Note_on_c, 0, 54, 95
4, 278400, Note_off_c, 0, 66, 0
4, 278400, Note_off_c, 0, 62, 0
4, 278400, Note_off_c, 0, 59, 0
4, 278400, Note_off_c, 0, 54, 0
4, 278400, Note_on_c, 0, 59, 85
4, 278400, Note_on_c, 0, 55, 85
4, 278480, Note_off_c, 0, 59, 0
4, 278480, Note_off_c, 0, 55, 0
4, 278880, Note_on_c, 0, 69, 95
4, 278880, Note_on_c, 0, 62, 95
4, 278880, Note_on_c, 0, 59, 95
4, 278880, Note_on_c, 0, 54, 95
4, 279360, Note_off_c, 0, 69, 0
4, 279360, Note_off_c, 0, 62, 0
4, 279360, Note_off_c, 0, 59, 0
4, 279360, Note_off_c, 0, 54, 0
4, 279360, Note_on_c, 0, 59, 85
4, 279360, Note_on_c, 0, 55, 85
4, 279440, Note_off_c, 0, 59, 0
4, 279440, Note_off_c, 0, 55, 0
4, 279840, Note_on_c, 0, 71, 95
4, 279840, Note_on_c, 0, 66, 95
4, 279840, Note_on_c, 0, 62, 95
4, 279840, Note_on_c, 0, 59, 95
4, 280320, Note_off_c, 0, 71, 0
4, 280320, Note_off_c, 0, 66, 0
4, 280320, Note_off_c, 0, 62, 0
4, 280320, Note_off_c, 0, 59, 0
4, 280320, Note_on_c, 0, 59, 85
4, 280320, Note_on_c, 0, 55, 85
4, 280400, Note_off_c, 0, 59, 0
4, 280400, Note_off_c, 0, 55, 0
4, 280800, Note_on_c, 0, 67, 95
4, 280800, Note_on_c, 0, 64, 95
4, 280800, Note_on_c, 0, 60, 95
4, 280800, Note_on_c, 0, 55, 95
4, 281280, Note_off_c, 0, 67, 0
4, 281280, Note_off_c, 0, 64, 0
4, 281280, Note_off_c, 0, 60, 0
4, 281280, Note_off_c, 0, 55, 0
4, 281280, Note_on_c, 0, 59, 85
4, 281280, Note_on_c, 0, 55, 85
4, 281360, Note_off_c, 0, 59, 0
4, 281360, Note_off_c, 0, 55, 0
4, 281760, Note_on_c, 0, 67, 95
4, 281760, Note_on_c, 0, 64, 95
4, 281760, Note_on_c, 0, 60, 95
4, 281760, Note_on_c, 0, 55, 95
4, 282240, Note_off_c, 0, 67, 0
4, 282240, Note_off_c, 0, 64, 0
4, 282240, Note_off_c, 0, 60, 0
4, 282240, Note_off_c, 0, 55, 0
4, 282240, Note_on_c, 0, 59, 85
4, 282240, Note_on_c, 0, 55, 85
4, 282320, Note_off_c, 0, 59, 0
4, 282320, Note_off_c, 0, 55, 0
4, 282720, Note_on_c, 0, 67, 95
4, 282720, Note_on_c, 0, 64, 95
4, 282720, Note_on_c, 0, 60, 95
4, 282720, Note_on_c, 0, 55, 95
4, 283200, Note_off_c, 0, 67, 0
4, 283200, Note_off_c, 0, 64, 0
4, 283200, Note_off_c, 0, 60, 0
4, 283200, Note_off_c, 0, 55, 0
4, 283200, Note_on_c, 0, 59, 85
4, 283200, Note_on_c, 0, 55, 85
4, 283280, Note_off_c, 0, 59, 0
4, 283280, Note_off_c, 0, 55, 0
4, 283680, Note_on_c, 0, 69, 95
4, 283680, Note_on_c, 0, 64, 95
4, 283680, Note_on_c, 0, 60, 95
4, 284160, Note_off_c, 0, 69, 0
4, 284160, Note_off_c, 0, 64, 0
4, 284160, Note_off_c, 0, 60, 0
4, 284160, Note_on_c, 0, 59, 85
4, 284160, Note_on_c, 0, 55, 85
4, 284240, Note_off_c, 0, 59, 0
4, 284240, Note_off_c, 0, 55, 0
4, 284640, Note_on_c, 0, 71, 95
4, 284640, Note_on_c, 0, 67, 95
4, 284640, Note_on_c, 0, 64, 95
4, 284640, Note_on_c, 0, 59, 95
4, 285120, Note_off_c, 0, 71, 0
4, 285120, Note_off_c, 0, 67, 0
4, 285120, Note_off_c, 0, 64, 0
4, 285120, Note_off_c, 0, 59, 0
4, 285120, Note_on_c, 0, 59, 85
4, 285120, Note_on_c, 0, 55, 85
4, 285200, Note_off_c, 0, 59, 0
4, 285200, Note_off_c, 0, 55, 0
4, 285600, Note_on_c, 0, 71, 95
4, 285600, Note_on_c, 0, 67, 95
4, 285600, Note_on_c, 0, 64, 95
4, 285600, Note_on_c, 0, 59, 95
4, 286080, Note_off_c, 0, 71, 0
4, 286080, Note_off_c, 0, 67, 0
4, 286080, Note_off_c, 0, 64, 0
4, 286080, Note_off_c, 0, 59, 0
4, 286080, Note_on_c, 0, 59, 85
4, 286080, Note_on_c, 0, 55, 85
4, 286160, Note_off_c, 0, 59, 0
4, 286160, Note_off_c, 0, 55, 0
4, 286560, Note_on_c, 0, 71, 95
4, 286560, Note_on_c, 0, 67, 95
4, 286560, Note_on_c, 0, 64, 95
4, 286560, Note_on_c, 0, 59, 95
4, 287040, Note_off_c, 0, 71, 0
4, 287040, Note_off_c, 0, 67, 0
4, 287040, Note_off_c, 0, 64, 0
4, 287040, Note_off_c, 0, 59, 0
4, 287040, Note_on_c, 0, 59, 85
4, 287040, Note_on_c, 0, 55, 85
4, 287120, Note_off_c, 0, 59, 0
4, 287120, Note_off_c, 0, 55, 0
4, 287520, Note_on_c, 0, 72, 95
4, 287520, Note_on_c, 0, 67, 95
4, 287520, Note_on_c, 0, 64, 95
4, 287520, Note_on_c, 0, 59, 95
4, 288000, Note_off_c, 0, 72, 0
4, 288000, Note_off_c, 0, 67, 0
4, 288000, Note_off_c, 0, 64, 0
4, 288000, Note_off_c, 0, 59, 0
4, 288000, Note_on_c, 0, 59, 85
4, 288000, Note_on_c, 0, 55, 85
4, 288080, Note_off_c, 0, 59, 0
4, 288080, Note_off_c, 0, 55, 0
4, 288480, Note_on_c, 0, 69, 95
4, 288480, Note_on_c, 0, 66, 95
4, 288480, Note_on_c, 0, 62, 95
4, 288480, Note_on_c, 0, 57, 95
4, 288960, Note_off_c, 0, 69, 0
4, 288960, Note_off_c, 0, 66, 0
4, 288960, Note_off_c, 0, 62, 0
4, 288960, Note_off_c, 0, 57, 0
4, 288960, Note_on_c, 0, 59, 85
4, 288960, Note_on_c, 0, 55, 85
4, 289040, Note_off_c, 0, 59, 0
4, 289040, Note_off_c, 0, 55, 0
4, 289440, Note_on_c, 0, 69, 95
4, 289440, Note_on_c, 0, 66, 95
4, 289440, Note_on_c, 0, 62, 95
4, 289440, Note_on_c, 0, 57, 95
4, 289920, Note_off_c, 0, 69, 0
4, 289920, Note_off_c, 0, 66, 0
4, 289920, Note_off_c, 0, 62, 0
4, 289920, Note_off_c, 0, 57, 0
4, 289920, Note_on_c, 0, 59, 85
4, 289920, Note_on_c, 0, 55, 85
4, 290000, Note_off_c, 0, 59, 0
4, 290000, Note_off_c, 0, 55, 0
4, 290400, Note_on_c, 0, 69, 95
4, 290400, Note_on_c, 0, 66, 95
4, 290400, Note_on_c, 0, 62, 95
4, 290400, Note_on_c, 0, 57, 95
4, 290880, Note_off_c, 0, 69, 0
4, 290880, Note_off_c, 0, 66, 0
4, 290880, Note_off_c, 0, 62, 0
4, 290880, Note_off_c, 0, 57, 0
4, 290880, Note_on_c, 0, 59, 85
4, 290880, Note_on_c, 0, 55, 85
4, 290960, Note_off_c, 0, 59, 0
4, 290960, Note_off_c, 0, 55, 0
4, 291360, Note_on_c, 0, 71, 95
4, 291360, Note_on_c, 0, 66, 95
4, 291360, Note_on_c, 0, 62, 95
4, 291360, Note_on_c, 0, 57, 95
4, 291840, Note_off_c, 0, 71, 0
4, 291840, Note_off_c, 0, 66, 0
4, 291840, Note_off_c, 0, 62, 0
4, 291840, Note_off_c, 0, 57, 0
4, 291840, Note_on_c, 0, 59, 85
4, 291840, Note_on_c, 0, 55, 85
4, 291920, Note_off_c, 0, 59, 0
4, 291920, Note_off_c, 0, 55, 0
4, 292320, Note_on_c, 0, 66, 95
4, 292320, Note_on_c, 0, 62, 95
4, 292320, Note_on_c, 0, 59, 95
4, 292320, Note_on_c, 0, 54, 95
4, 292800, Note_off_c, 0, 66, 0
4, 292800, Note_off_c, 0, 62, 0
4, 292800, Note_off_c, 0, 59, 0
4, 292800, Note_off_c, 0, 54, 0
4, 292800, Note_on_c, 0, 59, 85
4, 292800, Note_on_c, 0, 55, 85
4, 292880, Note_off_c, 0, 59, 0
4, 292880, Note_off_c, 0, 55, 0
4, 293280, Note_on_c, 0, 66, 95
4, 293280, Note_on_c, 0, 62, 95
4, 293280, Note_on_c, 0, 59, 95
4, 293280, Note_on_c, 0, 54, 95
4, 293760, Note_off_c, 0, 66, 0
4, 293760, Note_off_c, 0, 62, 0
4, 293760, Note_off_c, 0, 59, 0
4, 293760, Note_off_c, 0, 54, 0
4, 293760, Note_on_c, 0, 59, 85
4, 293760, Note_on_c, 0, 55, 85
4, 293840, Note_off_c, 0, 59, 0
4, 293840, Note_off_c, 0, 55, 0
4, 294240, Note_on_c, 0, 69, 95
4, 294240, Note_on_c, 0, 62, 95
4, 294240, Note_on_c, 0, 59, 95
4, 294240, Note_on_c, 0, 54, 95
4, 294720, Note_off_c, 0, 69, 0
4, 294720, Note_off_c, 0, 62, 0
4, 294720, Note_off_c, 0, 59, 0
4, 294720, Note_off_c, 0, 54, 0
4, 294720, Note_on_c, 0, 59, 85
4, 294720, Note_on_c, 0, 55, 85
4, 294800, Note_off_c, 0, 59, 0
4, 294800, Note_off_c, 0, 55, 0
4, 295200, Note_on_c, 0, 71, 95
4, 295200, Note_on_c, 0, 66, 95
4, 295200, Note_on_c, 0, 62, 95
4, 295200, Note_on_c, 0, 59, 95
4, 295680, Note_off_c, 0, 71, 0
4, 295680, Note_off_c, 0, 66, 0
4, 295680, Note_off_c, 0, 62, 0
4, 295680, Note_off_c, 0, 59, 0
4, 295680, Note_on_c, 0, 59, 85
4, 295680, Note_on_c, 0, 55, 85
4, 295760, Note_off_c, 0, 59, 0
4, 295760, Note_off_c, 0, 55, 0
4, 296160, Note_on_c, 0, 67, 95
4, 296160, Note_on_c, 0, 64, 95
4, 296160, Note_on_c, 0, 60, 95
4, 296160, Note_on_c, 0, 55, 95
4, 296640, Note_off_c, 0, 67, 0
4, 296640, Note_off_c, 0, 64, 0
4, 296640, Note_off_c, 0, 60, 0
4, 296640, Note_off_c, 0, 55, 0
4, 296640, Note_on_c, 0, 59, 85
4, 296640, Note_on_c, 0, 55, 85
4, 296720, Note_off_c, 0, 59, 0
4, 296720, Note_off_c, 0, 55, 0
4, 297120, Note_on_c, 0, 67, 95
4, 297120, Note_on_c, 0, 64, 95
4, 297120, Note_on_c, 0, 60, 95
4, 297120, Note_on_c, 0, 55, 95
4, 297600, Note_off_c, 0, 67, 0
4, 297600, Note_off_c, 0, 64, 0
4, 297600, Note_off_c, 0, 60, 0
4, 297600, Note_off_c, 0, 55, 0
4, 297600, Note_on_c, 0, 59, 85
4, 297600, Note_on_c, 0, 55, 85
4, 297680, Note_off_c, 0, 59, 0
4, 297680, Note_off_c, 0, 55, 0
4, 298080, Note_on_c, 0, 67, 95
4, 298080, Note_on_c, 0, 64, 95
4, 298080, Note_on_c, 0, 60, 95
4, 298080, Note_on_c, 0, 55, 95
4, 298560, Note_off_c, 0, 67, 0
4, 298560, Note_off_c, 0, 64, 0
4, 298560, Note_off_c, 0, 60, 0
4, 298560, Note_off_c, 0, 55, 0
4, 298560, Note_on_c, 0, 59, 85
4, 298560, Note_on_c, 0, 55, 85
4, 298640, Note_off_c, 0, 59, 0
4, 298640, Note_off_c, 0, 55, 0
4, 299040, Note_on_c, 0, 69, 95
4, 299040, Note_on_c, 0, 64, 95
4, 299040, Note_on_c, 0, 60, 95
4, 299040, Note_on_c, 0, 55, 95
4, 299520, Note_off_c, 0, 69, 0
4, 299520, Note_off_c, 0, 64, 0
4, 299520, Note_off_c, 0, 60, 0
4, 299520, Note_off_c, 0, 55, 0
4, 299760, Note_on_c, 0, 71, 95
4, 300000, Note_off_c, 0, 71, 0
4, 300000, Note_on_c, 0, 67, 95
4, 300240, Note_off_c, 0, 67, 0
4, 300240, Note_on_c, 0, 64, 95
4, 300480, Note_off_c, 0, 64, 0
4, 300480, Note_on_c, 0, 71, 95
4, 300720, Note_off_c, 0, 71, 0
4, 300720, Note_on_c, 0, 67, 95
4, 300960, Note_off_c, 0, 67, 0
4, 300960, Note_on_c, 0, 64, 95
4, 301200, Note_off_c, 0, 64, 0
4, 301200, Note_on_c, 0, 72, 95
4, 301440, Note_off_c, 0, 72, 0
4, 301440, Note_on_c, 0, 67, 95
4, 301680, Note_off_c, 0, 67, 0
4, 301680, Note_on_c, 0, 64, 95
4, 301920, Note_off_c, 0, 64, 0
4, 301920, Note_on_c, 0, 72, 95
4, 302160, Note_off_c, 0, 72, 0
4, 302160, Note_on_c, 0, 67, 95
4, 302400, Note_off_c, 0, 67, 0
4, 302400, Note_on_c, 0, 64, 95
4, 302640, Note_off_c, 0, 64, 0
4, 302640, Note_on_c, 0, 76, 95
4, 302880, Note_off_c, 0, 76, 0
4, 302880, Note_on_c, 0, 71, 95
4, 303120, Note_off_c, 0, 71, 0
4, 303120, Note_on_c, 0, 67, 95
4, 303360, Note_off_c, 0, 67, 0
4, 303600, Note_on_c, 0, 74, 95
4, 303840, Note_off_c, 0, 74, 0
4, 303840, Note_on_c, 0, 69, 95
4, 304080, Note_off_c, 0, 69, 0
4, 304080, Note_on_c, 0, 66, 95
4, 304320, Note_off_c, 0, 66, 0
4, 304320, Note_on_c, 0, 69, 95
4, 304560, Note_off_c, 0, 69, 0
4, 304560, Note_on_c, 0, 66, 95
4, 304800, Note_off_c, 0, 66, 0
4, 304800, Note_on_c, 0, 62, 95
4, 305040, Note_off_c, 0, 62, 0
4, 305040, Note_on_c, 0, 71, 95
4, 305280, Note_off_c, 0, 71, 0
4, 305280, Note_on_c, 0, 66, 95
4, 305520, Note_off_c, 0, 66, 0
4, 305520, Note_on_c, 0, 62, 95
4, 305760, Note_off_c, 0, 62, 0
4, 305760, Note_on_c, 0, 71, 95
4, 306000, Note_off_c, 0, 71, 0
4, 306000, Note_on_c, 0, 66, 95
4, 306240, Note_off_c, 0, 66, 0
4, 306240, Note_on_c, 0, 62, 95
4, 306480, Note_off_c, 0, 62, 0
4, 306480, Note_on_c, 0, 69, 95
4, 306720, Note_off_c, 0, 69, 0
4, 306720, Note_on_c, 0, 66, 95
4, 306960, Note_off_c, 0, 66, 0
4, 306960, Note_on_c, 0, 62, 95
4, 307200, Note_off_c, 0, 62, 0
4, 307440, Note_on_c, 0, 69, 95
4, 307680, Note_off_c, 0, 69, 0
4, 307680, Note_on_c, 0, 66, 95
4, 307920, Note_off_c, 0, 66, 0
4, 307920, Note_on_c, 0, 62, 95
4, 308160, Note_off_c, 0, 62, 0
4, 308160, Note_on_c, 0, 69, 95
4, 308400, Note_off_c, 0, 69, 0
4, 308400, Note_on_c, 0, 66, 95
4, 308640, Note_off_c, 0, 66, 0
4, 308640, Note_on_c, 0, 62, 95
4, 308880, Note_off_c, 0, 62, 0
4, 308880, Note_on_c, 0, 69, 95
4, 309120, Note_off_c, 0, 69, 0
4, 309120, Note_on_c, 0, 66, 95
4, 309360, Note_off_c, 0, 66, 0
4, 309360, Note_on_c, 0, 62, 95
4, 309600, Note_off_c, 0, 62, 0
4, 309600, Note_on_c, 0, 69, 95
4, 309840, Note_off_c, 0, 69, 0
4, 309840, Note_on_c, 0, 66, 95
4, 310080, Note_off_c, 0, 66, 0
4, 310080, Note_on_c, 0, 62, 95
4, 310320, Note_off_c, 0, 62, 0
4, 310320, Note_on_c, 0, 69, 95
4, 310560, Note_off_c, 0, 69, 0
4, 310560, Note_on_c, 0, 66, 95
4, 310800, Note_off_c, 0, 66, 0
4, 311040, Note_on_c, 0, 64, 95
4, 311280, Note_off_c, 0, 64, 0
4, 311280, Note_on_c, 0, 71, 95
4, 311520, Note_off_c, 0, 71, 0
4, 311520, Note_on_c, 0, 67, 95
4, 311760, Note_off_c, 0, 67, 0
4, 311760, Note_on_c, 0, 64, 95
4, 312000, Note_off_c, 0, 64, 0
4, 312000, Note_on_c, 0, 71, 95
4, 312240, Note_off_c, 0, 71, 0
4, 312240, Note_on_c, 0, 67, 95
4, 312480, Note_off_c, 0, 67, 0
4, 312480, Note_on_c, 0, 64, 95
4, 312720, Note_off_c, 0, 64, 0
4, 312720, Note_on_c, 0, 71, 95
4, 312960, Note_off_c, 0, 71, 0
4, 312960, Note_on_c, 0, 67, 95
4, 313200, Note_off_c, 0, 67, 0
4, 313200, Note_on_c, 0, 64, 95
4, 313440, Note_off_c, 0, 64, 0
4, 313440, Note_on_c, 0, 71, 95
4, 313680, Note_off_c, 0, 71, 0
4, 313680, Note_on_c, 0, 67, 95
4, 313920, Note_off_c, 0, 67, 0
4, 313920, Note_on_c, 0, 64, 95
4, 314160, Note_off_c, 0, 64, 0
4, 314160, Note_on_c, 0, 71, 95
4, 314400, Note_off_c, 0, 71, 0
4, 314400, Note_on_c, 0, 67, 95
4, 314640, Note_off_c, 0, 67, 0
4, 314640, Note_on_c, 0, 64, 95
4, 314880, Note_off_c, 0, 64, 0
4, 315120, Note_on_c, 0, 71, 95
4, 315360, Note_off_c, 0, 71, 0
4, 315360, Note_on_c, 0, 67, 95
4, 315600, Note_off_c, 0, 67, 0
4, 315600, Note_on_c, 0, 64, 95
4, 315840, Note_off_c, 0, 64, 0
4, 315840, Note_on_c, 0, 71, 95
4, 316080, Note_off_c, 0, 71, 0
4, 316080, Note_on_c, 0, 67, 95
4, 316320, Note_off_c, 0, 67, 0
4, 316320, Note_on_c, 0, 64, 95
4, 316560, Note_off_c, 0, 64, 0
4, 316560, Note_on_c, 0, 72, 95
4, 316800, Note_off_c, 0, 72, 0
4, 316800, Note_on_c, 0, 67, 95
4, 317040, Note_off_c, 0, 67, 0
4, 317040, Note_on_c, 0, 64, 95
4, 317280, Note_off_c, 0, 64, 0
4, 317280, Note_on_c, 0, 72, 95
4, 317520, Note_off_c, 0, 72, 0
4, 317520, Note_on_c, 0, 67, 95
4, 317760, Note_off_c, 0, 67, 0
4, 317760, Note_on_c, 0, 64, 95
4, 318000, Note_off_c, 0, 64, 0
4, 318000, Note_on_c, 0, 76, 95
4, 318240, Note_off_c, 0, 76, 0
4, 318240, Note_on_c, 0, 71, 95
4, 318480, Note_off_c, 0, 71, 0
4, 318480, Note_on_c, 0, 67, 95
4, 318720, Note_off_c, 0, 67, 0
4, 318960, Note_on_c, 0, 69, 95
4, 319200, Note_off_c, 0, 69, 0
4, 319200, Note_on_c, 0, 66, 95
4, 319440, Note_off_c, 0, 66, 0
4, 319440, Note_on_c, 0, 62, 95
4, 319680, Note_off_c, 0, 62, 0
4, 319680, Note_on_c, 0, 69, 95
4, 319920, Note_off_c, 0, 69, 0
4, 319920, Note_on_c, 0, 66, 95
4, 320160, Note_off_c, 0, 66, 0
4, 320160, Note_on_c, 0, 62, 95
4, 320400, Note_off_c, 0, 62, 0
4, 320400, Note_on_c, 0, 69, 95
4, 320640, Note_off_c, 0, 69, 0
4, 320640, Note_on_c, 0, 66, 95
4, 320880, Note_off_c, 0, 66, 0
4, 320880, Note_on_c, 0, 62, 95
4, 321120, Note_off_c, 0, 62, 0
4, 321120, Note_on_c, 0, 71, 95
4, 321360, Note_off_c, 0, 71, 0
4, 321360, Note_on_c, 0, 66, 95
4, 321600, Note_off_c, 0, 66, 0
4, 321600, Note_on_c, 0, 62, 95
4, 321840, Note_off_c, 0, 62, 0
4, 321840, Note_on_c, 0, 71, 95
4, 322080, Note_off_c, 0, 71, 0
4, 322080, Note_on_c, 0, 66, 95
4, 322320, Note_off_c, 0, 66, 0
4, 322320, Note_on_c, 0, 62, 95
4, 322560, Note_off_c, 0, 62, 0
4, 322800, Note_on_c, 0, 69, 95
4, 323040, Note_off_c, 0, 69, 0
4, 323040, Note_on_c, 0, 66, 95
4, 323280, Note_off_c, 0, 66, 0
4, 323280, Note_on_c, 0, 62, 95
4, 323520, Note_off_c, 0, 62, 0
4, 323520, Note_on_c, 0, 69, 95
4, 323760, Note_off_c, 0, 69, 0
4, 323760, Note_on_c, 0, 66, 95
4, 324000, Note_off_c, 0, 66, 0
4, 324000, Note_on_c, 0, 62, 95
4, 324240, Note_off_c, 0, 62, 0
4, 324240, Note_on_c, 0, 69, 95
4, 324480, Note_off_c, 0, 69, 0
4, 324480, Note_on_c, 0, 66, 95
4, 324720, Note_off_c, 0, 66, 0
4, 324720, Note_on_c, 0, 62, 95
4, 324960, Note_off_c, 0, 62, 0
4, 324960, Note_on_c, 0, 69, 95
4, 325200, Note_off_c, 0, 69, 0
4, 325200, Note_on_c, 0, 66, 95
4, 325440, Note_off_c, 0, 66, 0
4, 325440, Note_on_c, 0, 62, 95
4, 325680, Note_off_c, 0, 62, 0
4, 325680, Note_on_c, 0, 69, 95
4, 325920, Note_off_c, 0, 69, 0
4, 325920, Note_on_c, 0, 66, 95
4, 326160, Note_off_c, 0, 66, 0
4, 326160, Note_on_c, 0, 62, 95
4, 326400, Note_off_c, 0, 62, 0
4, 326640, Note_on_c, 0, 71, 95
4, 326640, Note_on_c, 0, 67, 95
4, 326640, Note_on_c, 0, 64, 95
4, 326880, Note_off_c, 0, 71, 0
4, 326880, Note_off_c, 0, 67, 0
4, 326880, Note_off_c, 0, 64, 0
4, 326880, Note_on_c, 0, 71, 95
4, 326880, Note_on_c, 0, 67, 95
4, 326880, Note_on_c, 0, 64, 95
4, 327360, Note_off_c, 0, 71, 0
4, 327360, Note_off_c, 0, 67, 0
4, 327360, Note_off_c, 0, 64, 0
4, 327360, Note_on_c, 0, 71, 95
4, 327360, Note_on_c, 0, 67, 95
4, 327360, Note_on_c, 0, 64, 95
4, 327840, Note_off_c, 0, 71, 0
4, 327840, Note_off_c, 0, 67, 0
4, 327840, Note_off_c, 0, 64, 0
4, 327840, Note_on_c, 0, 71, 95
4, 327840, Note_on_c, 0, 67, 95
4, 327840, Note_on_c, 0, 64, 95
4, 328080, Note_off_c, 0, 71, 0
4, 328080, Note_off_c, 0, 67, 0
4, 328080, Note_off_c, 0, 64, 0
4, 328080, Note_on_c, 0, 71, 95
4, 328080, Note_on_c, 0, 67, 95
4, 328080, Note_on_c, 0, 64, 95
4, 328320, Note_off_c, 0, 71, 0
4, 328320, Note_off_c, 0, 67, 0
4, 328320, Note_off_c, 0, 64, 0
4, 328320, Note_on_c, 0, 71, 95
4, 328320, Note_on_c, 0, 67, 95
4, 328320, Note_on_c, 0, 64, 95
4, 328560, Note_off_c, 0, 71, 0
4, 328560, Note_off_c, 0, 67, 0
4, 328560, Note_off_c, 0, 64, 0
4, 328560, Note_on_c, 0, 71, 95
4, 328560, Note_on_c, 0, 67, 95
4, 328560, Note_on_c, 0, 64, 95
4, 328800, Note_off_c, 0, 71, 0
4, 328800, Note_off_c, 0, 67, 0
4, 328800, Note_off_c, 0, 64, 0
4, 328800, Note_on_c, 0, 71, 95
4, 328800, Note_on_c, 0, 67, 95
4, 328800, Note_on_c, 0, 64, 95
4, 329040, Note_off_c, 0, 71, 0
4, 329040, Note_off_c, 0, 67, 0
4, 329040, Note_off_c, 0, 64, 0
4, 329040, Note_on_c, 0, 71, 95
4, 329040, Note_on_c, 0, 67, 95
4, 329040, Note_on_c, 0, 64, 95
4, 329280, Note_off_c, 0, 71, 0
4, 329280, Note_off_c, 0, 67, 0
4, 329280, Note_off_c, 0, 64, 0
4, 329280, Note_on_c, 0, 71, 95
4, 329280, Note_on_c, 0, 67, 95
4, 329280, Note_on_c, 0, 64, 95
4, 329520, Note_off_c, 0, 71, 0
4, 329520, Note_off_c, 0, 67, 0
4, 329520, Note_off_c, 0, 64, 0
4, 329520, Note_on_c, 0, 71, 95
4, 329520, Note_on_c, 0, 67, 95
4, 329520, Note_on_c, 0, 64, 95
4, 329760, Note_off_c, 0, 71, 0
4, 329760, Note_off_c, 0, 67, 0
4, 329760, Note_off_c, 0, 64, 0
4, 329760, Note_on_c, 0, 71, 95
4, 329760, Note_on_c, 0, 67, 95
4, 329760, Note_on_c, 0, 64, 95
4, 330240, Note_off_c, 0, 71, 0
4, 330240, Note_off_c, 0, 67, 0
4, 330240, Note_off_c, 0, 64, 0
4, 330240, Program_c, 1, 27
4, 330240, Note_on_c, 1, 76, 95
4, 330240, Control_c, 1, 101, 0
4, 330240, Control_c, 1, 100, 0
4, 330240, Control_c, 1, 6, 6
4, 330240, Control_c, 1, 38, 0
4, 330240, Pitch_bend_c, 1, 8192
4, 330319, Pitch_bend_c, 1, 9472
4, 330399, Pitch_bend_c, 1, 10752
4, 330495, Pitch_bend_c, 1, 10752
4, 330559, Pitch_bend_c, 1, 10752
4, 330655, Pitch_bend_c, 1, 10139
4, 330751, Pitch_bend_c, 1, 9526
4, 330847, Pitch_bend_c, 1, 8913
4, 330943, Pitch_bend_c, 1, 8300
4, 330960, Pitch_bend_c, 1, 8192
4, 331056, Pitch_bend_c, 1, 8192
4, 331152, Pitch_bend_c, 1, 8192
4, 331200, Note_off_c, 1, 76, 0
4, 331200, Pitch_bend_c, 1, 8192
4, 331200, Pitch_bend_c, 1, 8064
4, 331200, Control_c, 1, 101, 127
4, 331200, Control_c, 1, 10, 127
4, 331200, Note_on_c, 0, 76, 95
4, 331680, Note_off_c, 0, 76, 0
4, 331680, Note_on_c, 0, 76, 95
4, 332640, Note_off_c, 0, 76, 0
4, 332640, Note_on_c, 0, 76, 95
4, 334080, Note_off_c, 0, 76, 0
4, 334080, Program_c, 1, 27
4, 334080, Note_on_c, 1, 76, 95
4, 334080, Control_c, 1, 101, 0
4, 334080, Control_c, 1, 100, 0
4, 334080, Control_c, 1, 6, 6
4, 334080, Control_c, 1, 38, 0
4, 334080, Pitch_bend_c, 1, 8192
4, 334224, Pitch_bend_c, 1, 9216
4, 334368, Pitch_bend_c, 1, 10240
4, 334440, Pitch_bend_c, 1, 10752
4, 334584, Pitch_bend_c, 1, 10752
4, 334728, Pitch_bend_c, 1, 10752
4, 334800, Pitch_bend_c, 1, 10752
4, 334944, Pitch_bend_c, 1, 9728
4, 335088, Pitch_bend_c, 1, 8704
4, 335160, Pitch_bend_c, 1, 8192
4, 335304, Pitch_bend_c, 1, 8192
4, 335448, Pitch_bend_c, 1, 8192
4, 335520, Note_off_c, 1, 76, 0
4, 335520, Pitch_bend_c, 1, 8192
4, 335520, Pitch_bend_c, 1, 8064
4, 335520, Control_c, 1, 101, 127
4, 335520, Control_c, 1, 10, 127
4, 335520, Note_on_c, 0, 76, 95
4, 336480, Note_off_c, 0, 76, 0
4, 336480, Note_on_c, 0, 76, 95
4, 337440, Note_off_c, 0, 76, 0
4, 337440, Note_on_c, 0, 78, 95
4, 337920, Note_off_c, 0, 78, 0
4, 337920, Program_c, 1, 27
4, 337920, Note_on_c, 1, 78, 95
4, 337920, Control_c, 1, 101, 0
4, 337920, Control_c, 1, 100, 0
4, 337920, Control_c, 1, 6, 6
4, 337920, Control_c, 1, 38, 0
4, 337920, Pitch_bend_c, 1, 8192
4, 338016, Pitch_bend_c, 1, 8704
4, 338112, Pitch_bend_c, 1, 9216
4, 338160, Pitch_bend_c, 1, 9472
4, 338256, Pitch_bend_c, 1, 9472
4, 338352, Pitch_bend_c, 1, 9472
4, 338400, Pitch_bend_c, 1, 9472
4, 338496, Pitch_bend_c, 1, 8960
4, 338592, Pitch_bend_c, 1, 8448
4, 338640, Pitch_bend_c, 1, 8192
4, 338736, Pitch_bend_c, 1, 8192
4, 338832, Pitch_bend_c, 1, 8192
4, 338880, Note_off_c, 1, 78, 0
4, 338880, Pitch_bend_c, 1, 8192
4, 338880, Pitch_bend_c, 1, 8064
4, 338880, Control_c, 1, 101, 127
4, 338880, Control_c, 1, 10, 127
4, 338880, Note_on_c, 0, 76, 95
4, 340320, Note_off_c, 0, 76, 0
4, 340320, Note_on_c, 0, 76, 95
4, 341760, Note_off_c, 0, 76, 0
4, 341760, Note_on_c, 0, 76, 95
4, 342000, Note_off_c, 0, 76, 0
4, 342000, Note_on_c, 0, 74, 95
4, 342120, Note_off_c, 0, 74, 0
4, 342120, Note_on_c, 0, 71, 95
4, 342240, Note_off_c, 0, 71, 0
4, 342240, Note_on_c, 0, 76, 95
4, 342480, Note_off_c, 0, 76, 0
4, 342480, Note_on_c, 0, 74, 95
4, 342600, Note_off_c, 0, 74, 0
4, 342600, Note_on_c, 0, 71, 95
4, 342720, Note_off_c, 0, 71, 0
4, 342720, Note_on_c, 0, 76, 95
4, 342960, Note_off_c, 0, 76, 0
4, 342960, Note_on_c, 0, 74, 95
4, 343080, Note_off_c, 0, 74, 0
4, 343080, Note_on_c, 0, 71, 95
4, 343200, Note_off_c, 0, 71, 0
4, 343200, Note_on_c, 0, 76, 95
4, 343440, Note_off_c, 0, 76, 0
4, 343440, Note_on_c, 0, 74, 95
4, 343560, Note_off_c, 0, 74, 0
4, 343560, Note_on_c, 0, 71, 95
4, 343680, Note_off_c, 0, 71, 0
4, 343680, Note_on_c, 0, 76, 95
4, 343920, Note_off_c, 0, 76, 0
4, 343920, Note_on_c, 0, 74, 95
4, 344040, Note_off_c, 0, 74, 0
4, 344040, Note_on_c, 0, 71, 95
4, 344160, Note_off_c, 0, 71, 0
4, 344160, Note_on_c, 0, 76, 95
4, 344400, Note_off_c, 0, 76, 0
4, 344400, Note_on_c, 0, 74, 95
4, 344520, Note_off_c, 0, 74, 0
4, 344520, Note_on_c, 0, 71, 95
4, 344640, Note_off_c, 0, 71, 0
4, 344640, Note_on_c, 0, 76, 95
4, 344760, Note_off_c, 0, 76, 0
4, 344760, Note_on_c, 0, 74, 95
4, 345000, Note_off_c, 0, 74, 0
4, 345000, Note_on_c, 0, 71, 95
4, 345600, Note_off_c, 0, 71, 0
4, 345600, Program_c, 1, 27
4, 345600, Note_on_c, 1, 76, 95
4, 345600, Control_c, 1, 101, 0
4, 345600, Control_c, 1, 100, 0
4, 345600, Control_c, 1, 6, 6
4, 345600, Control_c, 1, 38, 0
4, 345600, Pitch_bend_c, 1, 8192
4, 345696, Pitch_bend_c, 1, 9216
4, 345792, Pitch_bend_c, 1, 10240
4, 345840, Pitch_bend_c, 1, 10752
4, 345936, Pitch_bend_c, 1, 10752
4, 346032, Pitch_bend_c, 1, 10752
4, 346080, Pitch_bend_c, 1, 10752
4, 346176, Pitch_bend_c, 1, 9728
4, 346272, Pitch_bend_c, 1, 8704
4, 346320, Pitch_bend_c, 1, 8192
4, 346416, Pitch_bend_c, 1, 8192
4, 346512, Pitch_bend_c, 1, 8192
4, 346560, Note_off_c, 1, 76, 0
4, 346560, Pitch_bend_c, 1, 8192
4, 346560, Pitch_bend_c, 1, 8064
4, 346560, Control_c, 1, 101, 127
4, 346560, Control_c, 1, 10, 127
4, 346560, Note_on_c, 0, 76, 95
4, 348000, Note_off_c, 0, 76, 0
4, 348000, Note_on_c, 0, 76, 95
4, 348480, Note_off_c, 0, 76, 0
4, 348480, Note_on_c, 0, 79, 95
4, 348960, Note_off_c, 0, 79, 0
4, 348960, Program_c, 1, 27
4, 348960, Note_on_c, 1, 81, 95
4, 348960, Control_c, 1, 101, 0
4, 348960, Control_c, 1, 100, 0
4, 348960, Control_c, 1, 6, 6
4, 348960, Control_c, 1, 38, 0
4, 348960, Pitch_bend_c, 1, 8192
4, 348999, Pitch_bend_c, 1, 9472
4, 349039, Pitch_bend_c, 1, 10752
4, 349080, Pitch_bend_c, 1, 8192
4, 349320, Pitch_bend_c, 1, 8192
4, 349440, Pitch_bend_c, 1, 8192
4, 351840, Note_off_c, 1, 81, 0
4, 351840, Pitch_bend_c, 1, 8192
4, 351840, Pitch_bend_c, 1, 8064
4, 351840, Control_c, 1, 101, 127
4, 351840, Control_c, 1, 10, 127
4, 351840, Note_on_c, 0, 76, 95
4, 352320, Note_off_c, 0, 76, 0
4, 352320, Note_on_c, 0, 79, 95
4, 352800, Note_off_c, 0, 79, 0
4, 352800, Program_c, 1, 27
4, 352800, Note_on_c, 1, 81, 95
4, 352800, Control_c, 1, 101, 0
4, 352800, Control_c, 1, 100, 0
4, 352800, Control_c, 1, 6, 6
4, 352800, Control_c, 1, 38, 0
4, 352800, Pitch_bend_c, 1, 8192
4, 352839, Pitch_bend_c, 1, 9472
4, 352879, Pitch_bend_c, 1, 10752
4, 352920, Pitch_bend_c, 1, 8192
4, 353160, Pitch_bend_c, 1, 8192
4, 353280, Pitch_bend_c, 1, 8192
4, 355680, Note_off_c, 1, 81, 0
4, 355680, Pitch_bend_c, 1, 8192
4, 355680, Pitch_bend_c, 1, 8064
4, 355680, Control_c, 1, 101, 127
4, 355680, Control_c, 1, 10, 127
4, 355680, Note_on_c, 0, 79, 95
4, 356160, Note_off_c, 0, 79, 0
4, 356160, Note_on_c, 0, 78, 95
4, 356640, Note_off_c, 0, 78, 0
4, 356640, Note_on_c, 0, 79, 95
4, 356640, Control_c, 0, 101, 0
4, 356640, Control_c, 0, 100, 0
4, 356640, Control_c, 0, 6, 6
4, 356640, Control_c, 0, 38, 0
4, 356640, Pitch_bend_c, 0, 8192
4, 356700, Pitch_bend_c, 0, 8345
4, 356760, Pitch_bend_c, 0, 8499
4, 356820, Pitch_bend_c, 0, 8345
4, 356880, Pitch_bend_c, 0, 8192
4, 356940, Pitch_bend_c, 0, 8039
4, 357000, Pitch_bend_c, 0, 7885
4, 357060, Pitch_bend_c, 0, 8039
4, 357120, Pitch_bend_c, 0, 8192
4, 357180, Pitch_bend_c, 0, 8345
4, 357240, Pitch_bend_c, 0, 8499
4, 357300, Pitch_bend_c, 0, 8345
4, 357360, Pitch_bend_c, 0, 8192
4, 357420, Pitch_bend_c, 0, 8039
4, 357480, Pitch_bend_c, 0, 7885
4, 357540, Pitch_bend_c, 0, 8039
4, 357600, Note_off_c, 0, 79, 0
4, 357600, Pitch_bend_c, 0, 8192
4, 357600, Pitch_bend_c, 0, 8064
4, 357600, Control_c, 0, 101, 127
4, 357600, Control_c, 0, 10, 127
4, 357600, Note_on_c, 0, 76, 95
4, 357600, Control_c, 0, 101, 0
4, 357600, Control_c, 0, 100, 0
4, 357600, Control_c, 0, 6, 6
4, 357600, Control_c, 0, 38, 0
4, 357600, Pitch_bend_c, 0, 8192
4, 357660, Pitch_bend_c, 0, 8345
4, 357720, Pitch_bend_c, 0, 8499
4, 357780, Pitch_bend_c, 0, 8345
4, 357840, Pitch_bend_c, 0, 8192
4, 357900, Pitch_bend_c, 0, 8039
4, 357960, Pitch_bend_c, 0, 7885
4, 358020, Pitch_bend_c, 0, 8039
4, 358080, Pitch_bend_c, 0, 8192
4, 358140, Pitch_bend_c, 0, 8345
4, 358200, Pitch_bend_c, 0, 8499
4, 358260, Pitch_bend_c, 0, 8345
4, 358320, Pitch_bend_c, 0, 8192
4, 358380, Pitch_bend_c, 0, 8039
4, 358440, Pitch_bend_c, 0, 7885
4, 358500, Pitch_bend_c, 0, 8039
4, 358560, Pitch_bend_c, 0, 8192
4, 358620, Pitch_bend_c, 0, 8345
4, 358680, Pitch_bend_c, 0, 8499
4, 358740, Pitch_bend_c, 0, 8345
4, 358800, Pitch_bend_c, 0, 8192
4, 358860, Pitch_bend_c, 0, 8039
4, 358920, Pitch_bend_c, 0, 7885
4, 358980, Pitch_bend_c, 0, 8039
4, 359040, Pitch_bend_c, 0, 8192
4, 359100, Pitch_bend_c, 0, 8345
4, 359160, Pitch_bend_c, 0, 8499
4, 359220, Pitch_bend_c, 0, 8345
4, 359280, Pitch_bend_c, 0, 8192
4, 359340, Pitch_bend_c, 0, 8039
4, 359400, Pitch_bend_c, 0, 7885
4, 359460, Pitch_bend_c, 0, 8039
4, 359520, Note_off_c, 0, 76, 0
4, 359520, Pitch_bend_c, 0, 8192
4, 359520, Pitch_bend_c, 0, 8064
4, 359520, Control_c, 0, 101, 127
4, 359520, Control_c, 0, 10, 127
4, 359520, Note_on_c, 0, 76, 95
4, 360960, Note_off_c, 0, 76, 0
4, 360960, Note_on_c, 0, 52, 95
4, 361440, Note_off_c, 0, 52, 0
4, 361440, Note_on_c, 0, 62, 95
4, 361440, Note_on_c, 0, 50, 85
4, 361440, Note_on_c, 0, 52, 95
4, 361480, Note_off_c, 0, 50, 0
4, 361680, Note_off_c, 0, 62, 0
4, 361680, Note_off_c, 0, 52, 0
4, 361920, Note_on_c, 0, 64, 95
4, 362160, Note_off_c, 0, 64, 0
4, 362400, Note_on_c, 0, 52, 95
4, 362640, Note_off_c, 0, 52, 0
4, 362640, Note_on_c, 0, 52, 95
4, 362880, Note_off_c, 0, 52, 0
4, 363120, Note_on_c, 0, 62, 95
4, 363120, Note_on_c, 0, 50, 85
4, 363120, Note_on_c, 0, 52, 95
4, 363160, Note_off_c, 0, 50, 0
4, 363360, Note_off_c, 0, 62, 0
4, 363360, Note_off_c, 0, 52, 0
4, 363360, Note_on_c, 0, 55, 85
4, 363400, Note_off_c, 0, 55, 0
4, 363600, Note_on_c, 0, 64, 95
4, 363840, Note_off_c, 0, 64, 0
4, 364080, Note_on_c, 0, 52, 85
4, 364120, Note_off_c, 0, 52, 0
4, 364320, Note_on_c, 0, 52, 95
4, 364800, Note_off_c, 0, 52, 0
4, 364800, Note_on_c, 0, 62, 95
4, 364800, Note_on_c, 0, 50, 95
4, 365280, Note_off_c, 0, 62, 0
4, 365280, Note_off_c, 0, 50, 0
4, 365280, Note_on_c, 0, 62, 95
4, 365280, Note_on_c, 0, 50, 95
4, 365520, Note_off_c, 0, 62, 0
4, 365520, Note_off_c, 0, 50, 0
4, 365760, Note_on_c, 0, 64, 95
4, 366000, Note_off_c, 0, 64, 0
4, 366240, Note_on_c, 0, 50, 95
4, 366480, Note_off_c, 0, 50, 0
4, 366480, Note_on_c, 0, 50, 95
4, 366960, Note_off_c, 0, 50, 0
4, 366960, Note_on_c, 0, 62, 95
4, 366960, Note_on_c, 0, 50, 95
4, 367200, Note_off_c, 0, 62, 0
4, 367200, Note_off_c, 0, 50, 0
4, 367200, Note_on_c, 0, 55, 85
4, 367240, Note_off_c, 0, 55, 0
4, 367440, Note_on_c, 0, 64, 95
4, 367680, Note_off_c, 0, 64, 0
4, 367920, Note_on_c, 0, 50, 95
4, 367920, Note_on_c, 0, 45, 95
4, 368160, Note_off_c, 0, 50, 0
4, 368160, Note_off_c, 0, 45, 0
4, 368160, Note_on_c, 0, 50, 95
4, 368400, Note_off_c, 0, 50, 0
4, 368400, Note_on_c, 0, 50, 95
4, 368640, Note_off_c, 0, 50, 0
4, 368640, Note_on_c, 0, 47, 95
4, 369120, Note_off_c, 0, 47, 0
4, 369120, Note_on_c, 0, 62, 95
4, 369120, Note_on_c, 0, 50, 85
4, 369120, Note_on_c, 0, 45, 85
4, 369120, Note_on_c, 0, 47, 95
4, 369160, Note_off_c, 0, 50, 0
4, 369160, Note_off_c, 0, 45, 0
4, 369360, Note_off_c, 0, 62, 0
4, 369360, Note_off_c, 0, 47, 0
4, 369600, Note_on_c, 0, 64, 95
4, 369840, Note_off_c, 0, 64, 0
4, 370080, Note_on_c, 0, 47, 95
4, 370320, Note_off_c, 0, 47, 0
4, 370320, Note_on_c, 0, 47, 95
4, 370560, Note_off_c, 0, 47, 0
4, 370800, Note_on_c, 0, 62, 95
4, 370800, Note_on_c, 0, 50, 85
4, 370800, Note_on_c, 0, 45, 85
4, 370800, Note_on_c, 0, 47, 95
4, 370840, Note_off_c, 0, 50, 0
4, 370840, Note_off_c, 0, 45, 0
4, 371040, Note_off_c, 0, 62, 0
4, 371040, Note_off_c, 0, 47, 0
4, 371040, Note_on_c, 0, 55, 85
4, 371080, Note_off_c, 0, 55, 0
4, 371280, Note_on_c, 0, 64, 95
4, 371760, Note_off_c, 0, 64, 0
4, 371760, Note_on_c, 0, 47, 95
4, 372000, Note_off_c, 0, 47, 0
4, 372000, Note_on_c, 0, 47, 95
4, 372240, Note_off_c, 0, 47, 0
4, 372240, Note_on_c, 0, 47, 85
4, 372280, Note_off_c, 0, 47, 0
4, 372480, Note_on_c, 0, 48, 95
4, 372960, Note_off_c, 0, 48, 0
4, 372960, Note_on_c, 0, 62, 95
4, 372960, Note_on_c, 0, 50, 85
4, 372960, Note_on_c, 0, 45, 85
4, 372960, Note_on_c, 0, 48, 95
4, 373000, Note_off_c, 0, 50, 0
4, 373000, Note_off_c, 0, 45, 0
4, 373200, Note_off_c, 0, 62, 0
4, 373200, Note_off_c, 0, 48, 0
4, 373440, Note_on_c, 0, 64, 95
4, 373680, Note_off_c, 0, 64, 0
4, 373920, Note_on_c, 0, 48, 95
4, 374160, Note_off_c, 0, 48, 0
4, 374160, Note_on_c, 0, 48, 95
4, 374400, Note_off_c, 0, 48, 0
4, 374640, Note_on_c, 0, 62, 95
4, 374640, Note_on_c, 0, 50, 85
4, 374640, Note_on_c, 0, 45, 85
4, 374640, Note_on_c, 0, 48, 95
4, 374680, Note_off_c, 0, 50, 0
4, 374680, Note_off_c, 0, 45, 0
4, 374880, Note_off_c, 0, 62, 0
4, 374880, Note_off_c, 0, 48, 0
4, 374880, Note_on_c, 0, 55, 85
4, 374920, Note_off_c, 0, 55, 0
4, 375120, Note_on_c, 0, 64, 95
4, 375600, Note_off_c, 0, 64, 0
4, 375600, Note_on_c, 0, 48, 95
4, 375840, Note_off_c, 0, 48, 0
4, 375840, Note_on_c, 0, 48, 95
4, 376080, Note_off_c, 0, 48, 0
4, 376080, Note_on_c, 0, 48, 95
4, 376320, Note_off_c, 0, 48, 0
4, 376320, Note_on_c, 0, 52, 95
4, 376800, Note_off_c, 0, 52, 0
4, 376800, Note_on_c, 0, 62, 95
4, 376800, Note_on_c, 0, 50, 85
4, 376800, Note_on_c, 0, 52, 95
4, 376840, Note_off_c, 0, 50, 0
4, 377040, Note_off_c, 0, 62, 0
4, 377040, Note_off_c, 0, 52, 0
4, 377280, Note_on_c, 0, 64, 95
4, 377520, Note_off_c, 0, 64, 0
4, 377760, Note_on_c, 0, 52, 95
4, 378000, Note_off_c, 0, 52, 0
4, 378000, Note_on_c, 0, 52, 95
4, 378240, Note_off_c, 0, 52, 0
4, 378240, Note_on_c, 0, 52, 95
4, 378480, Note_off_c, 0, 52, 0
4, 378480, Note_on_c, 0, 62, 95
4, 378480, Note_on_c, 0, 50, 85
4, 378480, Note_on_c, 0, 52, 95
4, 378520, Note_off_c, 0, 50, 0
4, 378720, Note_off_c, 0, 62, 0
4, 378720, Note_off_c, 0, 52, 0
4, 378720, Note_on_c, 0, 55, 85
4, 378760, Note_off_c, 0, 55, 0
4, 378960, Note_on_c, 0, 64, 95
4, 379200, Note_off_c, 0, 64, 0
4, 379440, Note_on_c, 0, 52, 85
4, 379480, Note_off_c, 0, 52, 0
4, 379680, Note_on_c, 0, 52, 95
4, 380160, Note_off_c, 0, 52, 0
4, 380160, Note_on_c, 0, 62, 95
4, 380160, Note_on_c, 0, 50, 95
4, 380640, Note_off_c, 0, 62, 0
4, 380640, Note_off_c, 0, 50, 0
4, 380640, Note_on_c, 0, 62, 95
4, 380640, Note_on_c, 0, 50, 95
4, 380880, Note_off_c, 0, 62, 0
4, 380880, Note_off_c, 0, 50, 0
4, 381120, Note_on_c, 0, 64, 95
4, 381360, Note_off_c, 0, 64, 0
4, 381600, Note_on_c, 0, 50, 95
4, 381840, Note_off_c, 0, 50, 0
4, 381840, Note_on_c, 0, 50, 95
4, 382320, Note_off_c, 0, 50, 0
4, 382320, Note_on_c, 0, 62, 95
4, 382320, Note_on_c, 0, 50, 95
4, 382560, Note_off_c, 0, 62, 0
4, 382560, Note_off_c, 0, 50, 0
4, 382560, Note_on_c, 0, 55, 85
4, 382600, Note_off_c, 0, 55, 0
4, 382800, Note_on_c, 0, 64, 95
4, 383040, Note_off_c, 0, 64, 0
4, 383280, Note_on_c, 0, 45, 95
4, 383520, Note_off_c, 0, 45, 0
4, 383520, Note_on_c, 0, 50, 95
4, 383760, Note_off_c, 0, 50, 0
4, 383760, Note_on_c, 0, 50, 95
4, 384000, Note_off_c, 0, 50, 0
4, 384000, Note_on_c, 0, 47, 95
4, 384480, Note_off_c, 0, 47, 0
4, 384480, Note_on_c, 0, 62, 95
4, 384480, Note_on_c, 0, 50, 85
4, 384480, Note_on_c, 0, 45, 85
4, 384480, Note_on_c, 0, 47, 95
4, 384520, Note_off_c, 0, 50, 0
4, 384520, Note_off_c, 0, 45, 0
4, 384720, Note_off_c, 0, 62, 0
4, 384720, Note_off_c, 0, 47, 0
4, 384960, Note_on_c, 0, 64, 95
4, 385200, Note_off_c, 0, 64, 0
4, 385440, Note_on_c, 0, 47, 95
4, 385680, Note_off_c, 0, 47, 0
4, 385680, Note_on_c, 0, 47, 95
4, 385920, Note_off_c, 0, 47, 0
4, 385920, Note_on_c, 0, 47, 95
4, 386160, Note_off_c, 0, 47, 0
4, 386160, Note_on_c, 0, 62, 95
4, 386160, Note_on_c, 0, 50, 85
4, 386160, Note_on_c, 0, 45, 85
4, 386160, Note_on_c, 0, 47, 95
4, 386200, Note_off_c, 0, 50, 0
4, 386200, Note_off_c, 0, 45, 0
4, 386400, Note_off_c, 0, 62, 0
4, 386400, Note_off_c, 0, 47, 0
4, 386400, Note_on_c, 0, 55, 85
4, 386440, Note_off_c, 0, 55, 0
4, 386640, Note_on_c, 0, 64, 95
4, 386640, Note_on_c, 0, 47, 95
4, 387120, Note_off_c, 0, 64, 0
4, 387120, Note_off_c, 0, 47, 0
4, 387120, Note_on_c, 0, 47, 95
4, 387360, Note_off_c, 0, 47, 0
4, 387360, Note_on_c, 0, 47, 95
4, 387600, Note_off_c, 0, 47, 0
4, 387600, Note_on_c, 0, 47, 85
4, 387640, Note_off_c, 0, 47, 0
4, 387840, Note_on_c, 0, 48, 95
4, 388320, Note_off_c, 0, 48, 0
4, 388320, Note_on_c, 0, 62, 95
4, 388320, Note_on_c, 0, 50, 85
4, 388320, Note_on_c, 0, 45, 85
4, 388320, Note_on_c, 0, 48, 95
4, 388360, Note_off_c, 0, 50, 0
4, 388360, Note_off_c, 0, 45, 0
4, 388560, Note_off_c, 0, 62, 0
4, 388560, Note_off_c, 0, 48, 0
4, 388800, Note_on_c, 0, 64, 95
4, 389040, Note_off_c, 0, 64, 0
4, 389280, Note_on_c, 0, 48, 95
4, 389520, Note_off_c, 0, 48, 0
4, 389520, Note_on_c, 0, 48, 95
4, 389760, Note_off_c, 0, 48, 0
4, 389760, Note_on_c, 0, 48, 95
4, 390000, Note_off_c, 0, 48, 0
4, 390000, Note_on_c, 0, 62, 95
4, 390000, Note_on_c, 0, 50, 85
4, 390000, Note_on_c, 0, 45, 85
4, 390000, Note_on_c, 0, 48, 95
4, 390040, Note_off_c, 0, 50, 0
4, 390040, Note_off_c, 0, 45, 0
4, 390240, Note_off_c, 0, 62, 0
4, 390240, Note_off_c, 0, 48, 0
4, 390240, Note_on_c, 0, 55, 85
4, 390280, Note_off_c, 0, 55, 0
4, 390480, Note_on_c, 0, 64, 95
4, 390720, Note_off_c, 0, 64, 0
4, 390720, Note_on_c, 0, 64, 95
4, 390960, Note_off_c, 0, 64, 0
4, 390960, Note_on_c, 0, 64, 95
4, 390960, Note_on_c, 0, 48, 95
4, 391200, Note_off_c, 0, 64, 0
4, 391200, Note_off_c, 0, 48, 0
4, 391200, Note_on_c, 0, 64, 95
4, 391200, Note_on_c, 0, 48, 95
4, 391440, Note_off_c, 0, 64, 0
4, 391440, Note_off_c, 0, 48, 0
4, 391440, Note_on_c, 0, 48, 95
4, 391680, Note_off_c, 0, 48, 0
4, 391680, Note_on_c, 0, 52, 95
4, 392160, Note_off_c, 0, 52, 0
4, 392160, Note_on_c, 0, 62, 95
4, 392160, Note_on_c, 0, 50, 85
4, 392160, Note_on_c, 0, 52, 95
4, 392200, Note_off_c, 0, 50, 0
4, 392400, Note_off_c, 0, 62, 0
4, 392400, Note_off_c, 0, 52, 0
4, 392640, Note_on_c, 0, 64, 95
4, 392880, Note_off_c, 0, 64, 0
4, 393120, Note_on_c, 0, 52, 95
4, 393360, Note_off_c, 0, 52, 0
4, 393360, Note_on_c, 0, 52, 95
4, 393600, Note_off_c, 0, 52, 0
4, 393840, Note_on_c, 0, 62, 95
4, 393840, Note_on_c, 0, 50, 85
4, 393840, Note_on_c, 0, 52, 95
4, 393880, Note_off_c, 0, 50, 0
4, 394080, Note_off_c, 0, 62, 0
4, 394080, Note_off_c, 0, 52, 0
4, 394080, Note_on_c, 0, 55, 85
4, 394120, Note_off_c, 0, 55, 0
4, 394320, Note_on_c, 0, 64, 95
4, 394560, Note_off_c, 0, 64, 0
4, 394800, Note_on_c, 0, 52, 85
4, 394840, Note_off_c, 0, 52, 0
4, 395040, Note_on_c, 0, 52, 95
4, 395520, Note_off_c, 0, 52, 0
4, 395520, Note_on_c, 0, 55, 95
4, 395520, Note_on_c, 0, 50, 95
4, 396000, Note_off_c, 0, 55, 0
4, 396000, Note_off_c, 0, 50, 0
4, 396000, Note_on_c, 0, 62, 95
4, 396000, Note_on_c, 0, 50, 95
4, 396240, Note_off_c, 0, 62, 0
4, 396240, Note_off_c, 0, 50, 0
4, 396480, Note_on_c, 0, 64, 95
4, 396720, Note_off_c, 0, 64, 0
4, 396960, Note_on_c, 0, 50, 95
4, 397200, Note_off_c, 0, 50, 0
4, 397200, Note_on_c, 0, 50, 95
4, 397680, Note_off_c, 0, 50, 0
4, 397680, Note_on_c, 0, 62, 95
4, 397680, Note_on_c, 0, 50, 95
4, 397920, Note_off_c, 0, 62, 0
4, 397920, Note_off_c, 0, 50, 0
4, 397920, Note_on_c, 0, 55, 85
4, 397960, Note_off_c, 0, 55, 0
4, 398160, Note_on_c, 0, 64, 95
4, 398400, Note_off_c, 0, 64, 0
4, 398640, Note_on_c, 0, 45, 95
4, 398880, Note_off_c, 0, 45, 0
4, 398880, Note_on_c, 0, 50, 95
4, 398880, Note_on_c, 0, 45, 95
4, 399120, Note_off_c, 0, 50, 0
4, 399120, Note_off_c, 0, 45, 0
4, 399120, Note_on_c, 0, 50, 95
4, 399360, Note_off_c, 0, 50, 0
4, 399360, Note_on_c, 0, 47, 95
4, 399840, Note_off_c, 0, 47, 0
4, 399840, Note_on_c, 0, 62, 95
4, 399840, Note_on_c, 0, 50, 85
4, 399840, Note_on_c, 0, 45, 85
4, 399840, Note_on_c, 0, 47, 95
4, 399880, Note_off_c, 0, 50, 0
4, 399880, Note_off_c, 0, 45, 0
4, 400080, Note_off_c, 0, 62, 0
4, 400080, Note_off_c, 0, 47, 0
4, 400320, Note_on_c, 0, 64, 95
4, 400560, Note_off_c, 0, 64, 0
4, 400800, Note_on_c, 0, 47, 95
4, 401040, Note_off_c, 0, 47, 0
4, 401040, Note_on_c, 0, 47, 95
4, 401280, Note_off_c, 0, 47, 0
4, 401280, Note_on_c, 0, 47, 95
4, 401520, Note_off_c, 0, 47, 0
4, 401520, Note_on_c, 0, 62, 95
4, 401520, Note_on_c, 0, 50, 85
4, 401520, Note_on_c, 0, 45, 85
4, 401520, Note_on_c, 0, 47, 95
4, 401560, Note_off_c, 0, 50, 0
4, 401560, Note_off_c, 0, 45, 0
4, 401760, Note_off_c, 0, 62, 0
4, 401760, Note_off_c, 0, 47, 0
4, 401760, Note_on_c, 0, 55, 85
4, 401800, Note_off_c, 0, 55, 0
4, 402000, Note_on_c, 0, 64, 95
4, 402000, Note_on_c, 0, 47, 95
4, 402240, Note_off_c, 0, 64, 0
4, 402240, Note_off_c, 0, 47, 0
4, 402240, Note_on_c, 0, 64, 95
4, 402480, Note_off_c, 0, 64, 0
4, 402480, Note_on_c, 0, 47, 95
4, 402720, Note_off_c, 0, 47, 0
4, 402720, Note_on_c, 0, 47, 95
4, 403200, Note_off_c, 0, 47, 0
4, 403200, Note_on_c, 0, 48, 95
4, 403680, Note_off_c, 0, 48, 0
4, 403680, Note_on_c, 0, 62, 95
4, 403680, Note_on_c, 0, 50, 85
4, 403680, Note_on_c, 0, 45, 85
4, 403680, Note_on_c, 0, 48, 95
4, 403720, Note_off_c, 0, 50, 0
4, 403720, Note_off_c, 0, 45, 0
4, 403920, Note_off_c, 0, 62, 0
4, 403920, Note_off_c, 0, 48, 0
4, 404160, Note_on_c, 0, 64, 95
4, 404400, Note_off_c, 0, 64, 0
4, 404640, Note_on_c, 0, 48, 95
4, 404880, Note_off_c, 0, 48, 0
4, 404880, Note_on_c, 0, 48, 95
4, 405120, Note_off_c, 0, 48, 0
4, 405120, Note_on_c, 0, 48, 95
4, 405360, Note_off_c, 0, 48, 0
4, 405360, Note_on_c, 0, 62, 95
4, 405360, Note_on_c, 0, 50, 85
4, 405360, Note_on_c, 0, 45, 85
4, 405360, Note_on_c, 0, 48, 95
4, 405400, Note_off_c, 0, 50, 0
4, 405400, Note_off_c, 0, 45, 0
4, 405600, Note_off_c, 0, 62, 0
4, 405600, Note_off_c, 0, 48, 0
4, 405600, Note_on_c, 0, 55, 85
4, 405640, Note_off_c, 0, 55, 0
4, 405840, Note_on_c, 0, 64, 95
4, 406320, Note_off_c, 0, 64, 0
4, 406320, Note_on_c, 0, 64, 95
4, 406320, Note_on_c, 0, 48, 95
4, 406560, Note_off_c, 0, 64, 0
4, 406560, Note_off_c, 0, 48, 0
4, 406560, Note_on_c, 0, 64, 95
4, 406560, Note_on_c, 0, 48, 95
4, 406800, Note_off_c, 0, 64, 0
4, 406800, Note_off_c, 0, 48, 0
4, 406800, Note_on_c, 0, 48, 95
4, 407040, Note_off_c, 0, 48, 0
4, 407040, Note_on_c, 0, 52, 95
4, 407520, Note_off_c, 0, 52, 0
4, 407520, Note_on_c, 0, 62, 95
4, 407520, Note_on_c, 0, 50, 85
4, 407520, Note_on_c, 0, 52, 95
4, 407560, Note_off_c, 0, 50, 0
4, 407760, Note_off_c, 0, 62, 0
4, 407760, Note_off_c, 0, 52, 0
4, 408000, Note_on_c, 0, 64, 95
4, 408240, Note_off_c, 0, 64, 0
4, 408480, Note_on_c, 0, 52, 95
4, 408720, Note_off_c, 0, 52, 0
4, 408720, Note_on_c, 0, 52, 95
4, 408960, Note_off_c, 0, 52, 0
4, 408960, Note_on_c, 0, 52, 95
4, 409200, Note_off_c, 0, 52, 0
4, 409200, Note_on_c, 0, 62, 95
4, 409200, Note_on_c, 0, 50, 85
4, 409200, Note_on_c, 0, 52, 95
4, 409240, Note_off_c, 0, 50, 0
4, 409440, Note_off_c, 0, 62, 0
4, 409440, Note_off_c, 0, 52, 0
4, 409440, Note_on_c, 0, 55, 85
4, 409480, Note_off_c, 0, 55, 0
4, 409680, Note_on_c, 0, 64, 95
4, 409920, Note_off_c, 0, 64, 0
4, 410160, Note_on_c, 0, 52, 85
4, 410200, Note_off_c, 0, 52, 0
4, 410400, Note_on_c, 0, 52, 95
4, 410880, Note_off_c, 0, 52, 0
4, 410880, Note_on_c, 0, 55, 95
4, 410880, Note_on_c, 0, 50, 95
4, 411360, Note_off_c, 0, 55, 0
4, 411360, Note_off_c, 0, 50, 0
4, 411360, Note_on_c, 0, 62, 95
4, 411360, Note_on_c, 0, 50, 95
4, 411600, Note_off_c, 0, 62, 0
4, 411600, Note_off_c, 0, 50, 0
4, 411840, Note_on_c, 0, 64, 95
4, 412080, Note_off_c, 0, 64, 0
4, 412320, Note_on_c, 0, 50, 95
4, 412560, Note_off_c, 0, 50, 0
4, 412560, Note_on_c, 0, 50, 95
4, 413040, Note_off_c, 0, 50, 0
4, 413040, Note_on_c, 0, 62, 95
4, 413040, Note_on_c, 0, 50, 95
4, 413280, Note_off_c, 0, 62, 0
4, 413280, Note_off_c, 0, 50, 0
4, 413280, Note_on_c, 0, 55, 85
4, 413320, Note_off_c, 0, 55, 0
4, 413520, Note_on_c, 0, 64, 95
4, 413760, Note_off_c, 0, 64, 0
4, 414000, Note_on_c, 0, 45, 95
4, 414240, Note_off_c, 0, 45, 0
4, 414240, Note_on_c, 0, 50, 95
4, 414480, Note_off_c, 0, 50, 0
4, 414480, Note_on_c, 0, 50, 95
4, 414720, Note_off_c, 0, 50, 0
4, 414720, Note_on_c, 0, 47, 95
4, 415200, Note_off_c, 0, 47, 0
4, 415200, Note_on_c, 0, 62, 95
4, 415200, Note_on_c, 0, 50, 85
4, 415200, Note_on_c, 0, 45, 85
4, 415200, Note_on_c, 0, 47, 95
4, 415240, Note_off_c, 0, 50, 0
4, 415240, Note_off_c, 0, 45, 0
4, 415440, Note_off_c, 0, 62, 0
4, 415440, Note_off_c, 0, 47, 0
4, 415680, Note_on_c, 0, 64, 95
4, 415920, Note_off_c, 0, 64, 0
4, 416160, Note_on_c, 0, 47, 95
4, 416400, Note_off_c, 0, 47, 0
4, 416400, Note_on_c, 0, 47, 95
4, 416640, Note_off_c, 0, 47, 0
4, 416640, Note_on_c, 0, 47, 95
4, 416880, Note_off_c, 0, 47, 0
4, 416880, Note_on_c, 0, 62, 95
4, 416880, Note_on_c, 0, 50, 85
4, 416880, Note_on_c, 0, 45, 85
4, 416880, Note_on_c, 0, 47, 95
4, 416920, Note_off_c, 0, 50, 0
4, 416920, Note_off_c, 0, 45, 0
4, 417120, Note_off_c, 0, 62, 0
4, 417120, Note_off_c, 0, 47, 0
4, 417120, Note_on_c, 0, 55, 85
4, 417160, Note_off_c, 0, 55, 0
4, 417360, Note_on_c, 0, 64, 95
4, 417840, Note_off_c, 0, 64, 0
4, 417840, Note_on_c, 0, 47, 95
4, 418080, Note_off_c, 0, 47, 0
4, 418080, Note_on_c, 0, 47, 95
4, 418320, Note_off_c, 0, 47, 0
4, 418320, Note_on_c, 0, 47, 95
4, 418560, Note_off_c, 0, 47, 0
4, 418560, Note_on_c, 0, 48, 95
4, 419040, Note_off_c, 0, 48, 0
4, 419040, Note_on_c, 0, 62, 95
4, 419040, Note_on_c, 0, 50, 85
4, 419040, Note_on_c, 0, 45, 85
4, 419040, Note_on_c, 0, 48, 95
4, 419080, Note_off_c, 0, 50, 0
4, 419080, Note_off_c, 0, 45, 0
4, 419280, Note_off_c, 0, 62, 0
4, 419280, Note_off_c, 0, 48, 0
4, 419520, Note_on_c, 0, 64, 95
4, 419760, Note_off_c, 0, 64, 0
4, 420000, Note_on_c, 0, 48, 95
4, 420240, Note_off_c, 0, 48, 0
4, 420240, Note_on_c, 0, 48, 95
4, 420480, Note_off_c, 0, 48, 0
4, 420480, Note_on_c, 0, 48, 95
4, 420720, Note_off_c, 0, 48, 0
4, 420720, Note_on_c, 0, 64, 95
4, 420720, Note_on_c, 0, 50, 85
4, 420720, Note_on_c, 0, 45, 85
4, 420720, Note_on_c, 0, 48, 95
4, 420760, Note_off_c, 0, 50, 0
4, 420760, Note_off_c, 0, 45, 0
4, 420960, Note_off_c, 0, 64, 0
4, 420960, Note_off_c, 0, 48, 0
4, 420960, Note_on_c, 0, 55, 85
4, 421000, Note_off_c, 0, 55, 0
4, 421200, Note_on_c, 0, 64, 95
4, 421680, Note_off_c, 0, 64, 0
4, 421680, Note_on_c, 0, 64, 95
4, 421920, Note_off_c, 0, 64, 0
4, 421920, Note_on_c, 0, 64, 95
4, 422160, Note_off_c, 0, 64, 0
4, 422160, Note_on_c, 0, 64, 95
4, 422400, Note_off_c, 0, 64, 0
4, 422400, Note_on_c, 0, 52, 95
4, 422400, Note_on_c, 0, 40, 95
4, 422880, Note_off_c, 0, 52, 0
4, 422880, Note_off_c, 0, 40, 0
4, 422880, End_track
0, 0, End_of_file
