0, 0, Header, 1, 4, 960
1, 0, Start_track
1, 0, Title_t, "untitled"
1, 0, Text_t, "Can't Stop"
1, 0, Text_t, ""
1, 0, Text_t, "Red Hot Chili Peppers"
1, 0, Text_t, "By The Way"
1, 0, Text_t, ""
1, 0, Text_t, ""
1, 0, Copyright_t, "Copyright 2017 by Gitaro"
1, 0, Marker_t, "Can't Stop / Red Hot Chili Peppers - Copyright 2017 by Gitaro"
1, 0, MIDI_port, 0
1, 0, Key_signature, 0, "major"
1, 0, Time_signature, 4, 2, 24, 8
1, 0, Tempo, 705882
1, 0, End_track
2, 0, Start_track
2, 0, MIDI_port, 1
2, 0, Title_t, "Chad - Drums"
2, 0, Program_c, 9, 0
2, 0, Note_on_c, 9, 38, 111
2, 240, Note_off_c, 9, 38, 0
2, 240, Note_on_c, 9, 38, 95
2, 480, Note_off_c, 9, 38, 0
2, 480, Note_on_c, 9, 38, 95
2, 720, Note_off_c, 9, 38, 0
2, 720, Note_on_c, 9, 38, 95
2, 960, Note_off_c, 9, 38, 0
2, 960, Note_on_c, 9, 38, 111
2, 1200, Note_off_c, 9, 38, 0
2, 1200, Note_on_c, 9, 38, 95
2, 1440, Note_off_c, 9, 38, 0
2, 1440, Note_on_c, 9, 38, 95
2, 1680, Note_off_c, 9, 38, 0
2, 1680, Note_on_c, 9, 38, 95
2, 1920, Note_off_c, 9, 38, 0
2, 1920, Note_on_c, 9, 38, 111
2, 2160, Note_off_c, 9, 38, 0
2, 2160, Note_on_c, 9, 38, 95
2, 2400, Note_off_c, 9, 38, 0
2, 2400, Note_on_c, 9, 38, 95
2, 2640, Note_off_c, 9, 38, 0
2, 2640, Note_on_c, 9, 38, 95
2, 2880, Note_off_c, 9, 38, 0
2, 2880, Note_on_c, 9, 38, 111
2, 3120, Note_off_c, 9, 38, 0
2, 3120, Note_on_c, 9, 38, 95
2, 3360, Note_off_c, 9, 38, 0
2, 3360, Note_on_c, 9, 38, 95
2, 3600, Note_off_c, 9, 38, 0
2, 3600, Note_on_c, 9, 38, 95
2, 3840, Note_off_c, 9, 38, 0
2, 3840, Note_on_c, 9, 38, 111
2, 4080, Note_off_c, 9, 38, 0
2, 4080, Note_on_c, 9, 38, 95
2, 4320, Note_off_c, 9, 38, 0
2, 4320, Note_on_c, 9, 38, 95
2, 4560, Note_off_c, 9, 38, 0
2, 4560, Note_on_c, 9, 38, 95
2, 4800, Note_off_c, 9, 38, 0
2, 4800, Note_on_c, 9, 38, 111
2, 5040, Note_off_c, 9, 38, 0
2, 5040, Note_on_c, 9, 38, 95
2, 5280, Note_off_c, 9, 38, 0
2, 5280, Note_on_c, 9, 38, 95
2, 5520, Note_off_c, 9, 38, 0
2, 5520, Note_on_c, 9, 38, 95
2, 5760, Note_off_c, 9, 38, 0
2, 5760, Note_on_c, 9, 38, 111
2, 6000, Note_off_c, 9, 38, 0
2, 6000, Note_on_c, 9, 38, 95
2, 6240, Note_off_c, 9, 38, 0
2, 6240, Note_on_c, 9, 38, 95
2, 6480, Note_off_c, 9, 38, 0
2, 6480, Note_on_c, 9, 38, 95
2, 6720, Note_off_c, 9, 38, 0
2, 6720, Note_on_c, 9, 38, 111
2, 6960, Note_off_c, 9, 38, 0
2, 6960, Note_on_c, 9, 38, 95
2, 7200, Note_off_c, 9, 38, 0
2, 7200, Note_on_c, 9, 38, 95
2, 7440, Note_off_c, 9, 38, 0
2, 7440, Note_on_c, 9, 38, 95
2, 7680, Note_off_c, 9, 38, 0
2, 7680, Note_on_c, 9, 38, 111
2, 7920, Note_off_c, 9, 38, 0
2, 7920, Note_on_c, 9, 38, 95
2, 8160, Note_off_c, 9, 38, 0
2, 8160, Note_on_c, 9, 38, 95
2, 8400, Note_off_c, 9, 38, 0
2, 8400, Note_on_c, 9, 38, 95
2, 8640, Note_off_c, 9, 38, 0
2, 8640, Note_on_c, 9, 38, 111
2, 8880, Note_off_c, 9, 38, 0
2, 8880, Note_on_c, 9, 38, 95
2, 9120, Note_off_c, 9, 38, 0
2, 9120, Note_on_c, 9, 38, 95
2, 9360, Note_off_c, 9, 38, 0
2, 9360, Note_on_c, 9, 38, 95
2, 9600, Note_off_c, 9, 38, 0
2, 9600, Note_on_c, 9, 38, 111
2, 9840, Note_off_c, 9, 38, 0
2, 9840, Note_on_c, 9, 38, 95
2, 10080, Note_off_c, 9, 38, 0
2, 10080, Note_on_c, 9, 38, 95
2, 10320, Note_off_c, 9, 38, 0
2, 10320, Note_on_c, 9, 38, 95
2, 10560, Note_off_c, 9, 38, 0
2, 10560, Note_on_c, 9, 38, 111
2, 10800, Note_off_c, 9, 38, 0
2, 10800, Note_on_c, 9, 38, 95
2, 11040, Note_off_c, 9, 38, 0
2, 11040, Note_on_c, 9, 38, 95
2, 11280, Note_off_c, 9, 38, 0
2, 11280, Note_on_c, 9, 38, 95
2, 11520, Note_off_c, 9, 38, 0
2, 11520, Note_on_c, 9, 38, 111
2, 11760, Note_off_c, 9, 38, 0
2, 11760, Note_on_c, 9, 38, 95
2, 12000, Note_off_c, 9, 38, 0
2, 12000, Note_on_c, 9, 38, 95
2, 12240, Note_off_c, 9, 38, 0
2, 12240, Note_on_c, 9, 38, 95
2, 12480, Note_off_c, 9, 38, 0
2, 12480, Note_on_c, 9, 38, 111
2, 12720, Note_off_c, 9, 38, 0
2, 12720, Note_on_c, 9, 38, 95
2, 12960, Note_off_c, 9, 38, 0
2, 12960, Note_on_c, 9, 38, 95
2, 13200, Note_off_c, 9, 38, 0
2, 13200, Note_on_c, 9, 38, 95
2, 13440, Note_off_c, 9, 38, 0
2, 13440, Note_on_c, 9, 38, 111
2, 13680, Note_off_c, 9, 38, 0
2, 13680, Note_on_c, 9, 38, 95
2, 13920, Note_off_c, 9, 38, 0
2, 13920, Note_on_c, 9, 38, 95
2, 14160, Note_off_c, 9, 38, 0
2, 14160, Note_on_c, 9, 38, 95
2, 14400, Note_off_c, 9, 38, 0
2, 14400, Note_on_c, 9, 38, 111
2, 14640, Note_off_c, 9, 38, 0
2, 14640, Note_on_c, 9, 38, 95
2, 14880, Note_off_c, 9, 38, 0
2, 14880, Note_on_c, 9, 38, 95
2, 15120, Note_off_c, 9, 38, 0
2, 15120, Note_on_c, 9, 38, 95
2, 15360, Note_off_c, 9, 38, 0
2, 15360, Note_on_c, 9, 38, 111
2, 15600, Note_off_c, 9, 38, 0
2, 15600, Note_on_c, 9, 38, 95
2, 15840, Note_off_c, 9, 38, 0
2, 15840, Note_on_c, 9, 38, 95
2, 16080, Note_off_c, 9, 38, 0
2, 16080, Note_on_c, 9, 38, 95
2, 16320, Note_off_c, 9, 38, 0
2, 16320, Note_on_c, 9, 38, 111
2, 16560, Note_off_c, 9, 38, 0
2, 16560, Note_on_c, 9, 38, 95
2, 16800, Note_off_c, 9, 38, 0
2, 16800, Note_on_c, 9, 38, 95
2, 17040, Note_off_c, 9, 38, 0
2, 17040, Note_on_c, 9, 38, 95
2, 17280, Note_off_c, 9, 38, 0
2, 17280, Note_on_c, 9, 38, 111
2, 17520, Note_off_c, 9, 38, 0
2, 17520, Note_on_c, 9, 38, 95
2, 17760, Note_off_c, 9, 38, 0
2, 17760, Note_on_c, 9, 38, 95
2, 18000, Note_off_c, 9, 38, 0
2, 18000, Note_on_c, 9, 38, 95
2, 18240, Note_off_c, 9, 38, 0
2, 18240, Note_on_c, 9, 38, 111
2, 18480, Note_off_c, 9, 38, 0
2, 18480, Note_on_c, 9, 38, 95
2, 18720, Note_off_c, 9, 38, 0
2, 18720, Note_on_c, 9, 38, 95
2, 18960, Note_off_c, 9, 38, 0
2, 18960, Note_on_c, 9, 38, 95
2, 19200, Note_off_c, 9, 38, 0
2, 19200, Note_on_c, 9, 38, 111
2, 19440, Note_off_c, 9, 38, 0
2, 19440, Note_on_c, 9, 38, 95
2, 19680, Note_off_c, 9, 38, 0
2, 19680, Note_on_c, 9, 38, 95
2, 19920, Note_off_c, 9, 38, 0
2, 19920, Note_on_c, 9, 38, 95
2, 20160, Note_off_c, 9, 38, 0
2, 20160, Note_on_c, 9, 38, 111
2, 20400, Note_off_c, 9, 38, 0
2, 20400, Note_on_c, 9, 38, 95
2, 20640, Note_off_c, 9, 38, 0
2, 20640, Note_on_c, 9, 38, 95
2, 20880, Note_off_c, 9, 38, 0
2, 20880, Note_on_c, 9, 38, 95
2, 21120, Note_off_c, 9, 38, 0
2, 21120, Note_on_c, 9, 38, 111
2, 21360, Note_off_c, 9, 38, 0
2, 21360, Note_on_c, 9, 38, 95
2, 21600, Note_off_c, 9, 38, 0
2, 21600, Note_on_c, 9, 38, 95
2, 21840, Note_off_c, 9, 38, 0
2, 21840, Note_on_c, 9, 38, 95
2, 22080, Note_off_c, 9, 38, 0
2, 22080, Note_on_c, 9, 38, 111
2, 22320, Note_off_c, 9, 38, 0
2, 22320, Note_on_c, 9, 38, 95
2, 22560, Note_off_c, 9, 38, 0
2, 22560, Note_on_c, 9, 38, 95
2, 22800, Note_off_c, 9, 38, 0
2, 22800, Note_on_c, 9, 38, 95
2, 23040, Note_off_c, 9, 38, 0
2, 23040, Note_on_c, 9, 38, 111
2, 23280, Note_off_c, 9, 38, 0
2, 23280, Note_on_c, 9, 38, 95
2, 23520, Note_off_c, 9, 38, 0
2, 23520, Note_on_c, 9, 38, 95
2, 23760, Note_off_c, 9, 38, 0
2, 23760, Note_on_c, 9, 38, 95
2, 24000, Note_off_c, 9, 38, 0
2, 24000, Note_on_c, 9, 38, 111
2, 24240, Note_off_c, 9, 38, 0
2, 24240, Note_on_c, 9, 38, 95
2, 24480, Note_off_c, 9, 38, 0
2, 24480, Note_on_c, 9, 38, 95
2, 24720, Note_off_c, 9, 38, 0
2, 24720, Note_on_c, 9, 38, 95
2, 24960, Note_off_c, 9, 38, 0
2, 24960, Note_on_c, 9, 38, 111
2, 25200, Note_off_c, 9, 38, 0
2, 25200, Note_on_c, 9, 38, 95
2, 25440, Note_off_c, 9, 38, 0
2, 25440, Note_on_c, 9, 38, 95
2, 25680, Note_off_c, 9, 38, 0
2, 25680, Note_on_c, 9, 38, 95
2, 25920, Note_off_c, 9, 38, 0
2, 25920, Note_on_c, 9, 38, 111
2, 26160, Note_off_c, 9, 38, 0
2, 26160, Note_on_c, 9, 38, 95
2, 26400, Note_off_c, 9, 38, 0
2, 26400, Note_on_c, 9, 38, 95
2, 26640, Note_off_c, 9, 38, 0
2, 26640, Note_on_c, 9, 38, 95
2, 26880, Note_off_c, 9, 38, 0
2, 26880, Note_on_c, 9, 38, 111
2, 27120, Note_off_c, 9, 38, 0
2, 27120, Note_on_c, 9, 38, 95
2, 27360, Note_off_c, 9, 38, 0
2, 27360, Note_on_c, 9, 38, 95
2, 27600, Note_off_c, 9, 38, 0
2, 27600, Note_on_c, 9, 38, 95
2, 27840, Note_off_c, 9, 38, 0
2, 27840, Note_on_c, 9, 38, 111
2, 28080, Note_off_c, 9, 38, 0
2, 28080, Note_on_c, 9, 38, 95
2, 28320, Note_off_c, 9, 38, 0
2, 28320, Note_on_c, 9, 38, 95
2, 28560, Note_off_c, 9, 38, 0
2, 28560, Note_on_c, 9, 38, 95
2, 28800, Note_off_c, 9, 38, 0
2, 28800, Note_on_c, 9, 38, 111
2, 29040, Note_off_c, 9, 38, 0
2, 29040, Note_on_c, 9, 38, 111
2, 29280, Note_off_c, 9, 38, 0
2, 29280, Note_on_c, 9, 38, 111
2, 29520, Note_off_c, 9, 38, 0
2, 29520, Note_on_c, 9, 38, 111
2, 29760, Note_off_c, 9, 38, 0
2, 29760, Note_on_c, 9, 38, 127
2, 30000, Note_off_c, 9, 38, 0
2, 30000, Note_on_c, 9, 38, 127
2, 30240, Note_off_c, 9, 38, 0
2, 30240, Note_on_c, 9, 38, 127
2, 30480, Note_off_c, 9, 38, 0
2, 30480, Note_on_c, 9, 38, 95
2, 30720, Note_off_c, 9, 38, 0
2, 30720, Note_on_c, 9, 38, 95
2, 34560, Note_off_c, 9, 38, 0
2, 45840, Note_on_c, 9, 38, 95
2, 45920, Note_off_c, 9, 38, 0
2, 45920, Note_on_c, 9, 38, 95
2, 46000, Note_off_c, 9, 38, 0
2, 46000, Note_on_c, 9, 38, 95
2, 46080, Note_off_c, 9, 38, 0
2, 46080, Note_on_c, 9, 42, 95
2, 46080, Note_on_c, 9, 36, 95
2, 46560, Note_off_c, 9, 42, 0
2, 46560, Note_off_c, 9, 36, 0
2, 46560, Note_on_c, 9, 42, 95
2, 46560, Note_on_c, 9, 36, 95
2, 47040, Note_off_c, 9, 42, 0
2, 47040, Note_off_c, 9, 36, 0
2, 47040, Note_on_c, 9, 42, 95
2, 47040, Note_on_c, 9, 38, 95
2, 47520, Note_off_c, 9, 42, 0
2, 47520, Note_off_c, 9, 38, 0
2, 47520, Note_on_c, 9, 42, 95
2, 47520, Note_on_c, 9, 36, 95
2, 47760, Note_off_c, 9, 42, 0
2, 47760, Note_off_c, 9, 36, 0
2, 47760, Note_on_c, 9, 42, 95
2, 47760, Note_on_c, 9, 38, 95
2, 48240, Note_off_c, 9, 42, 0
2, 48240, Note_off_c, 9, 38, 0
2, 48240, Note_on_c, 9, 38, 95
2, 48480, Note_off_c, 9, 38, 0
2, 48480, Note_on_c, 9, 42, 95
2, 48480, Note_on_c, 9, 36, 95
2, 48960, Note_off_c, 9, 42, 0
2, 48960, Note_off_c, 9, 36, 0
2, 48960, Note_on_c, 9, 42, 95
2, 48960, Note_on_c, 9, 38, 95
2, 49440, Note_off_c, 9, 42, 0
2, 49440, Note_off_c, 9, 38, 0
2, 49440, Note_on_c, 9, 42, 95
2, 49920, Note_off_c, 9, 42, 0
2, 49920, Note_on_c, 9, 42, 95
2, 49920, Note_on_c, 9, 36, 95
2, 50400, Note_off_c, 9, 42, 0
2, 50400, Note_off_c, 9, 36, 0
2, 50400, Note_on_c, 9, 42, 95
2, 50400, Note_on_c, 9, 36, 95
2, 50880, Note_off_c, 9, 42, 0
2, 50880, Note_off_c, 9, 36, 0
2, 50880, Note_on_c, 9, 42, 95
2, 50880, Note_on_c, 9, 38, 95
2, 51360, Note_off_c, 9, 42, 0
2, 51360, Note_off_c, 9, 38, 0
2, 51360, Note_on_c, 9, 42, 95
2, 51360, Note_on_c, 9, 36, 95
2, 51600, Note_off_c, 9, 42, 0
2, 51600, Note_off_c, 9, 36, 0
2, 51600, Note_on_c, 9, 42, 95
2, 51600, Note_on_c, 9, 38, 95
2, 52080, Note_off_c, 9, 42, 0
2, 52080, Note_off_c, 9, 38, 0
2, 52080, Note_on_c, 9, 38, 95
2, 52320, Note_off_c, 9, 38, 0
2, 52320, Note_on_c, 9, 42, 95
2, 52320, Note_on_c, 9, 36, 95
2, 52800, Note_off_c, 9, 42, 0
2, 52800, Note_off_c, 9, 36, 0
2, 52800, Note_on_c, 9, 42, 95
2, 52800, Note_on_c, 9, 38, 95
2, 53280, Note_off_c, 9, 42, 0
2, 53280, Note_off_c, 9, 38, 0
2, 53280, Note_on_c, 9, 42, 95
2, 53760, Note_off_c, 9, 42, 0
2, 53760, Note_on_c, 9, 42, 95
2, 53760, Note_on_c, 9, 36, 95
2, 54240, Note_off_c, 9, 42, 0
2, 54240, Note_off_c, 9, 36, 0
2, 54240, Note_on_c, 9, 42, 95
2, 54240, Note_on_c, 9, 36, 95
2, 54720, Note_off_c, 9, 42, 0
2, 54720, Note_off_c, 9, 36, 0
2, 54720, Note_on_c, 9, 42, 95
2, 54720, Note_on_c, 9, 38, 95
2, 55200, Note_off_c, 9, 42, 0
2, 55200, Note_off_c, 9, 38, 0
2, 55200, Note_on_c, 9, 42, 95
2, 55200, Note_on_c, 9, 36, 95
2, 55440, Note_off_c, 9, 42, 0
2, 55440, Note_off_c, 9, 36, 0
2, 55440, Note_on_c, 9, 42, 95
2, 55440, Note_on_c, 9, 38, 95
2, 55920, Note_off_c, 9, 42, 0
2, 55920, Note_off_c, 9, 38, 0
2, 55920, Note_on_c, 9, 38, 95
2, 56160, Note_off_c, 9, 38, 0
2, 56160, Note_on_c, 9, 42, 95
2, 56160, Note_on_c, 9, 36, 95
2, 56640, Note_off_c, 9, 42, 0
2, 56640, Note_off_c, 9, 36, 0
2, 56640, Note_on_c, 9, 42, 95
2, 56640, Note_on_c, 9, 38, 95
2, 57120, Note_off_c, 9, 42, 0
2, 57120, Note_off_c, 9, 38, 0
2, 57120, Note_on_c, 9, 42, 95
2, 57600, Note_off_c, 9, 42, 0
2, 57600, Note_on_c, 9, 42, 95
2, 57600, Note_on_c, 9, 36, 95
2, 58080, Note_off_c, 9, 42, 0
2, 58080, Note_off_c, 9, 36, 0
2, 58080, Note_on_c, 9, 42, 95
2, 58080, Note_on_c, 9, 36, 95
2, 58560, Note_off_c, 9, 42, 0
2, 58560, Note_off_c, 9, 36, 0
2, 58560, Note_on_c, 9, 42, 95
2, 58560, Note_on_c, 9, 38, 95
2, 59040, Note_off_c, 9, 42, 0
2, 59040, Note_off_c, 9, 38, 0
2, 59040, Note_on_c, 9, 42, 95
2, 59040, Note_on_c, 9, 36, 95
2, 59280, Note_off_c, 9, 42, 0
2, 59280, Note_off_c, 9, 36, 0
2, 59280, Note_on_c, 9, 42, 95
2, 59280, Note_on_c, 9, 38, 95
2, 59760, Note_off_c, 9, 42, 0
2, 59760, Note_off_c, 9, 38, 0
2, 59760, Note_on_c, 9, 38, 95
2, 60000, Note_off_c, 9, 38, 0
2, 60000, Note_on_c, 9, 42, 95
2, 60000, Note_on_c, 9, 36, 95
2, 60480, Note_off_c, 9, 42, 0
2, 60480, Note_off_c, 9, 36, 0
2, 60480, Note_on_c, 9, 42, 95
2, 60480, Note_on_c, 9, 38, 95
2, 60960, Note_off_c, 9, 42, 0
2, 60960, Note_off_c, 9, 38, 0
2, 60960, Note_on_c, 9, 46, 95
2, 61440, Note_off_c, 9, 46, 0
2, 61440, Note_on_c, 9, 49, 95
2, 61440, Note_on_c, 9, 36, 95
2, 61920, Note_off_c, 9, 49, 0
2, 61920, Note_off_c, 9, 36, 0
2, 61920, Note_on_c, 9, 42, 95
2, 61920, Note_on_c, 9, 36, 95
2, 62400, Note_off_c, 9, 42, 0
2, 62400, Note_off_c, 9, 36, 0
2, 62400, Note_on_c, 9, 42, 95
2, 62400, Note_on_c, 9, 38, 95
2, 62880, Note_off_c, 9, 42, 0
2, 62880, Note_off_c, 9, 38, 0
2, 62880, Note_on_c, 9, 42, 95
2, 63360, Note_off_c, 9, 42, 0
2, 63360, Note_on_c, 9, 42, 95
2, 63600, Note_on_c, 9, 38, 95
2, 63840, Note_off_c, 9, 42, 0
2, 63840, Note_off_c, 9, 38, 0
2, 63840, Note_on_c, 9, 42, 95
2, 63840, Note_on_c, 9, 36, 95
2, 64320, Note_off_c, 9, 42, 0
2, 64320, Note_off_c, 9, 36, 0
2, 64320, Note_on_c, 9, 42, 95
2, 64320, Note_on_c, 9, 38, 95
2, 64800, Note_off_c, 9, 42, 0
2, 64800, Note_off_c, 9, 38, 0
2, 64800, Note_on_c, 9, 42, 95
2, 65280, Note_off_c, 9, 42, 0
2, 65280, Note_on_c, 9, 42, 95
2, 65280, Note_on_c, 9, 36, 95
2, 65760, Note_off_c, 9, 42, 0
2, 65760, Note_off_c, 9, 36, 0
2, 65760, Note_on_c, 9, 42, 95
2, 65760, Note_on_c, 9, 36, 95
2, 66240, Note_off_c, 9, 42, 0
2, 66240, Note_off_c, 9, 36, 0
2, 66240, Note_on_c, 9, 42, 95
2, 66240, Note_on_c, 9, 38, 95
2, 66720, Note_off_c, 9, 42, 0
2, 66720, Note_off_c, 9, 38, 0
2, 66720, Note_on_c, 9, 42, 95
2, 67200, Note_off_c, 9, 42, 0
2, 67200, Note_on_c, 9, 42, 95
2, 67680, Note_off_c, 9, 42, 0
2, 67680, Note_on_c, 9, 42, 95
2, 67680, Note_on_c, 9, 36, 95
2, 68160, Note_off_c, 9, 42, 0
2, 68160, Note_off_c, 9, 36, 0
2, 68160, Note_on_c, 9, 42, 95
2, 68160, Note_on_c, 9, 38, 95
2, 68640, Note_off_c, 9, 42, 0
2, 68640, Note_off_c, 9, 38, 0
2, 68640, Note_on_c, 9, 42, 95
2, 69120, Note_off_c, 9, 42, 0
2, 69120, Note_on_c, 9, 42, 95
2, 69120, Note_on_c, 9, 36, 95
2, 69600, Note_off_c, 9, 42, 0
2, 69600, Note_off_c, 9, 36, 0
2, 69600, Note_on_c, 9, 42, 95
2, 69600, Note_on_c, 9, 36, 95
2, 70080, Note_off_c, 9, 42, 0
2, 70080, Note_off_c, 9, 36, 0
2, 70080, Note_on_c, 9, 42, 95
2, 70080, Note_on_c, 9, 38, 95
2, 70560, Note_off_c, 9, 42, 0
2, 70560, Note_off_c, 9, 38, 0
2, 70560, Note_on_c, 9, 42, 95
2, 71040, Note_off_c, 9, 42, 0
2, 71040, Note_on_c, 9, 42, 95
2, 71280, Note_on_c, 9, 38, 95
2, 71520, Note_off_c, 9, 42, 0
2, 71520, Note_off_c, 9, 38, 0
2, 71520, Note_on_c, 9, 42, 95
2, 71520, Note_on_c, 9, 36, 95
2, 72000, Note_off_c, 9, 42, 0
2, 72000, Note_off_c, 9, 36, 0
2, 72000, Note_on_c, 9, 42, 95
2, 72000, Note_on_c, 9, 38, 95
2, 72480, Note_off_c, 9, 42, 0
2, 72480, Note_off_c, 9, 38, 0
2, 72480, Note_on_c, 9, 42, 95
2, 72960, Note_off_c, 9, 42, 0
2, 72960, Note_on_c, 9, 42, 95
2, 72960, Note_on_c, 9, 36, 95
2, 73440, Note_off_c, 9, 42, 0
2, 73440, Note_off_c, 9, 36, 0
2, 73440, Note_on_c, 9, 42, 95
2, 73440, Note_on_c, 9, 36, 95
2, 73920, Note_off_c, 9, 42, 0
2, 73920, Note_off_c, 9, 36, 0
2, 73920, Note_on_c, 9, 42, 95
2, 73920, Note_on_c, 9, 38, 95
2, 74400, Note_off_c, 9, 42, 0
2, 74400, Note_off_c, 9, 38, 0
2, 74400, Note_on_c, 9, 42, 95
2, 74880, Note_off_c, 9, 42, 0
2, 74880, Note_on_c, 9, 42, 95
2, 75360, Note_off_c, 9, 42, 0
2, 75360, Note_on_c, 9, 42, 95
2, 75360, Note_on_c, 9, 36, 95
2, 75840, Note_off_c, 9, 42, 0
2, 75840, Note_off_c, 9, 36, 0
2, 75840, Note_on_c, 9, 42, 95
2, 75840, Note_on_c, 9, 38, 95
2, 76320, Note_off_c, 9, 42, 0
2, 76320, Note_off_c, 9, 38, 0
2, 76320, Note_on_c, 9, 46, 95
2, 76320, Note_on_c, 9, 36, 95
2, 76560, Note_off_c, 9, 46, 0
2, 76800, Note_off_c, 9, 36, 0
2, 76800, Note_on_c, 9, 42, 95
2, 76800, Note_on_c, 9, 38, 95
2, 77040, Note_off_c, 9, 42, 0
2, 77040, Note_off_c, 9, 38, 0
2, 77040, Note_on_c, 9, 42, 95
2, 77040, Note_on_c, 9, 38, 95
2, 77280, Note_off_c, 9, 42, 0
2, 77280, Note_off_c, 9, 38, 0
2, 77280, Note_on_c, 9, 42, 95
2, 77280, Note_on_c, 9, 36, 95
2, 77760, Note_off_c, 9, 42, 0
2, 77760, Note_off_c, 9, 36, 0
2, 77760, Note_on_c, 9, 42, 95
2, 77760, Note_on_c, 9, 38, 95
2, 78240, Note_off_c, 9, 42, 0
2, 78240, Note_off_c, 9, 38, 0
2, 78240, Note_on_c, 9, 42, 95
2, 78720, Note_off_c, 9, 42, 0
2, 78720, Note_on_c, 9, 42, 95
2, 79200, Note_off_c, 9, 42, 0
2, 79200, Note_on_c, 9, 42, 95
2, 79200, Note_on_c, 9, 36, 95
2, 79680, Note_off_c, 9, 42, 0
2, 79680, Note_off_c, 9, 36, 0
2, 79680, Note_on_c, 9, 42, 95
2, 79680, Note_on_c, 9, 38, 95
2, 80160, Note_off_c, 9, 42, 0
2, 80160, Note_off_c, 9, 38, 0
2, 80160, Note_on_c, 9, 42, 95
2, 80640, Note_off_c, 9, 42, 0
2, 80640, Note_on_c, 9, 42, 95
2, 80640, Note_on_c, 9, 36, 95
2, 81120, Note_off_c, 9, 42, 0
2, 81120, Note_off_c, 9, 36, 0
2, 81120, Note_on_c, 9, 42, 95
2, 81120, Note_on_c, 9, 36, 95
2, 81600, Note_off_c, 9, 42, 0
2, 81600, Note_off_c, 9, 36, 0
2, 81600, Note_on_c, 9, 42, 95
2, 81600, Note_on_c, 9, 38, 95
2, 82080, Note_off_c, 9, 42, 0
2, 82080, Note_off_c, 9, 38, 0
2, 82080, Note_on_c, 9, 42, 95
2, 82560, Note_off_c, 9, 42, 0
2, 82560, Note_on_c, 9, 42, 95
2, 82800, Note_on_c, 9, 38, 95
2, 83040, Note_off_c, 9, 42, 0
2, 83040, Note_off_c, 9, 38, 0
2, 83040, Note_on_c, 9, 42, 95
2, 83040, Note_on_c, 9, 36, 95
2, 83520, Note_off_c, 9, 42, 0
2, 83520, Note_off_c, 9, 36, 0
2, 83520, Note_on_c, 9, 42, 95
2, 83520, Note_on_c, 9, 38, 95
2, 84000, Note_off_c, 9, 42, 0
2, 84000, Note_off_c, 9, 38, 0
2, 84000, Note_on_c, 9, 42, 95
2, 84480, Note_off_c, 9, 42, 0
2, 84480, Note_on_c, 9, 42, 95
2, 84480, Note_on_c, 9, 36, 95
2, 84960, Note_off_c, 9, 42, 0
2, 84960, Note_off_c, 9, 36, 0
2, 84960, Note_on_c, 9, 42, 95
2, 84960, Note_on_c, 9, 36, 95
2, 85440, Note_off_c, 9, 42, 0
2, 85440, Note_off_c, 9, 36, 0
2, 85440, Note_on_c, 9, 42, 95
2, 85440, Note_on_c, 9, 38, 95
2, 85920, Note_off_c, 9, 42, 0
2, 85920, Note_off_c, 9, 38, 0
2, 85920, Note_on_c, 9, 42, 95
2, 86400, Note_off_c, 9, 42, 0
2, 86400, Note_on_c, 9, 42, 95
2, 86880, Note_off_c, 9, 42, 0
2, 86880, Note_on_c, 9, 42, 95
2, 86880, Note_on_c, 9, 36, 95
2, 87360, Note_off_c, 9, 42, 0
2, 87360, Note_off_c, 9, 36, 0
2, 87360, Note_on_c, 9, 42, 95
2, 87360, Note_on_c, 9, 38, 95
2, 87840, Note_off_c, 9, 42, 0
2, 87840, Note_off_c, 9, 38, 0
2, 87840, Note_on_c, 9, 42, 95
2, 88320, Note_off_c, 9, 42, 0
2, 88320, Note_on_c, 9, 42, 95
2, 88320, Note_on_c, 9, 36, 95
2, 88800, Note_off_c, 9, 42, 0
2, 88800, Note_off_c, 9, 36, 0
2, 88800, Note_on_c, 9, 42, 95
2, 88800, Note_on_c, 9, 36, 95
2, 89280, Note_off_c, 9, 42, 0
2, 89280, Note_off_c, 9, 36, 0
2, 89280, Note_on_c, 9, 42, 95
2, 89280, Note_on_c, 9, 38, 95
2, 89760, Note_off_c, 9, 42, 0
2, 89760, Note_off_c, 9, 38, 0
2, 89760, Note_on_c, 9, 42, 95
2, 90240, Note_off_c, 9, 42, 0
2, 90240, Note_on_c, 9, 42, 95
2, 90240, Note_on_c, 9, 36, 95
2, 90720, Note_off_c, 9, 42, 0
2, 90720, Note_off_c, 9, 36, 0
2, 90720, Note_on_c, 9, 38, 95
2, 90960, Note_off_c, 9, 38, 0
2, 90960, Note_on_c, 9, 38, 95
2, 91440, Note_off_c, 9, 38, 0
2, 91440, Note_on_c, 9, 38, 95
2, 91680, Note_off_c, 9, 38, 0
2, 91680, Note_on_c, 9, 46, 95
2, 91680, Note_on_c, 9, 36, 95
2, 92160, Note_off_c, 9, 46, 0
2, 92160, Note_off_c, 9, 36, 0
2, 92160, Note_on_c, 9, 49, 95
2, 92160, Note_on_c, 9, 36, 95
2, 92640, Note_off_c, 9, 49, 0
2, 92640, Note_off_c, 9, 36, 0
2, 92640, Note_on_c, 9, 42, 95
2, 92640, Note_on_c, 9, 36, 95
2, 93120, Note_off_c, 9, 42, 0
2, 93120, Note_off_c, 9, 36, 0
2, 93120, Note_on_c, 9, 42, 95
2, 93120, Note_on_c, 9, 38, 95
2, 93600, Note_off_c, 9, 42, 0
2, 93600, Note_off_c, 9, 38, 0
2, 93600, Note_on_c, 9, 49, 95
2, 94080, Note_off_c, 9, 49, 0
2, 94080, Note_on_c, 9, 42, 95
2, 94320, Note_on_c, 9, 38, 95
2, 94560, Note_off_c, 9, 42, 0
2, 94560, Note_off_c, 9, 38, 0
2, 94560, Note_on_c, 9, 42, 95
2, 94560, Note_on_c, 9, 36, 95
2, 95040, Note_off_c, 9, 42, 0
2, 95040, Note_off_c, 9, 36, 0
2, 95040, Note_on_c, 9, 42, 95
2, 95040, Note_on_c, 9, 38, 95
2, 95520, Note_off_c, 9, 42, 0
2, 95520, Note_off_c, 9, 38, 0
2, 95520, Note_on_c, 9, 42, 95
2, 96000, Note_off_c, 9, 42, 0
2, 96000, Note_on_c, 9, 49, 95
2, 96000, Note_on_c, 9, 36, 95
2, 96480, Note_off_c, 9, 49, 0
2, 96480, Note_off_c, 9, 36, 0
2, 96480, Note_on_c, 9, 42, 95
2, 96960, Note_off_c, 9, 42, 0
2, 96960, Note_on_c, 9, 42, 95
2, 96960, Note_on_c, 9, 38, 95
2, 97440, Note_off_c, 9, 42, 0
2, 97440, Note_off_c, 9, 38, 0
2, 97440, Note_on_c, 9, 49, 95
2, 97440, Note_on_c, 9, 36, 95
2, 97920, Note_off_c, 9, 49, 0
2, 97920, Note_off_c, 9, 36, 0
2, 97920, Note_on_c, 9, 42, 95
2, 98400, Note_off_c, 9, 42, 0
2, 98400, Note_on_c, 9, 42, 95
2, 98400, Note_on_c, 9, 36, 95
2, 98640, Note_off_c, 9, 42, 0
2, 98640, Note_off_c, 9, 36, 0
2, 98640, Note_on_c, 9, 38, 95
2, 98880, Note_off_c, 9, 38, 0
2, 98880, Note_on_c, 9, 42, 95
2, 99360, Note_off_c, 9, 42, 0
2, 99360, Note_on_c, 9, 42, 95
2, 99360, Note_on_c, 9, 36, 95
2, 99840, Note_off_c, 9, 42, 0
2, 99840, Note_off_c, 9, 36, 0
2, 99840, Note_on_c, 9, 49, 95
2, 99840, Note_on_c, 9, 36, 95
2, 100320, Note_off_c, 9, 49, 0
2, 100320, Note_off_c, 9, 36, 0
2, 100320, Note_on_c, 9, 42, 95
2, 100320, Note_on_c, 9, 36, 95
2, 100800, Note_off_c, 9, 42, 0
2, 100800, Note_off_c, 9, 36, 0
2, 100800, Note_on_c, 9, 42, 95
2, 100800, Note_on_c, 9, 38, 95
2, 101280, Note_off_c, 9, 42, 0
2, 101280, Note_off_c, 9, 38, 0
2, 101280, Note_on_c, 9, 49, 95
2, 101760, Note_off_c, 9, 49, 0
2, 101760, Note_on_c, 9, 42, 95
2, 102000, Note_on_c, 9, 38, 95
2, 102240, Note_off_c, 9, 42, 0
2, 102240, Note_off_c, 9, 38, 0
2, 102240, Note_on_c, 9, 42, 95
2, 102240, Note_on_c, 9, 36, 95
2, 102720, Note_off_c, 9, 42, 0
2, 102720, Note_off_c, 9, 36, 0
2, 102720, Note_on_c, 9, 42, 95
2, 102720, Note_on_c, 9, 38, 95
2, 103200, Note_off_c, 9, 42, 0
2, 103200, Note_off_c, 9, 38, 0
2, 103200, Note_on_c, 9, 42, 95
2, 103680, Note_off_c, 9, 42, 0
2, 103680, Note_on_c, 9, 49, 95
2, 103680, Note_on_c, 9, 36, 95
2, 104160, Note_off_c, 9, 49, 0
2, 104160, Note_off_c, 9, 36, 0
2, 104160, Note_on_c, 9, 42, 95
2, 104640, Note_off_c, 9, 42, 0
2, 104640, Note_on_c, 9, 42, 95
2, 104640, Note_on_c, 9, 38, 95
2, 105120, Note_off_c, 9, 42, 0
2, 105120, Note_off_c, 9, 38, 0
2, 105120, Note_on_c, 9, 49, 95
2, 105120, Note_on_c, 9, 36, 95
2, 105600, Note_off_c, 9, 49, 0
2, 105600, Note_off_c, 9, 36, 0
2, 105600, Note_on_c, 9, 42, 95
2, 106080, Note_off_c, 9, 42, 0
2, 106080, Note_on_c, 9, 42, 95
2, 106080, Note_on_c, 9, 36, 95
2, 106320, Note_off_c, 9, 42, 0
2, 106320, Note_off_c, 9, 36, 0
2, 106320, Note_on_c, 9, 38, 95
2, 106560, Note_off_c, 9, 38, 0
2, 106560, Note_on_c, 9, 42, 95
2, 107040, Note_off_c, 9, 42, 0
2, 107040, Note_on_c, 9, 42, 95
2, 107040, Note_on_c, 9, 36, 95
2, 107520, Note_off_c, 9, 42, 0
2, 107520, Note_off_c, 9, 36, 0
2, 107520, Note_on_c, 9, 49, 95
2, 107520, Note_on_c, 9, 36, 95
2, 108000, Note_off_c, 9, 49, 0
2, 108000, Note_off_c, 9, 36, 0
2, 108000, Note_on_c, 9, 42, 95
2, 108480, Note_off_c, 9, 42, 0
2, 108480, Note_on_c, 9, 42, 95
2, 108480, Note_on_c, 9, 38, 95
2, 108960, Note_off_c, 9, 42, 0
2, 108960, Note_off_c, 9, 38, 0
2, 108960, Note_on_c, 9, 49, 95
2, 108960, Note_on_c, 9, 36, 95
2, 109440, Note_off_c, 9, 49, 0
2, 109440, Note_off_c, 9, 36, 0
2, 109440, Note_on_c, 9, 42, 95
2, 109920, Note_off_c, 9, 42, 0
2, 109920, Note_on_c, 9, 42, 95
2, 109920, Note_on_c, 9, 36, 95
2, 110160, Note_off_c, 9, 42, 0
2, 110160, Note_off_c, 9, 36, 0
2, 110160, Note_on_c, 9, 38, 95
2, 110400, Note_off_c, 9, 38, 0
2, 110400, Note_on_c, 9, 42, 95
2, 110880, Note_off_c, 9, 42, 0
2, 110880, Note_on_c, 9, 42, 95
2, 110880, Note_on_c, 9, 36, 95
2, 111360, Note_off_c, 9, 42, 0
2, 111360, Note_off_c, 9, 36, 0
2, 111360, Note_on_c, 9, 49, 95
2, 111360, Note_on_c, 9, 36, 95
2, 111840, Note_off_c, 9, 49, 0
2, 111840, Note_off_c, 9, 36, 0
2, 111840, Note_on_c, 9, 42, 95
2, 111840, Note_on_c, 9, 36, 95
2, 112320, Note_off_c, 9, 42, 0
2, 112320, Note_off_c, 9, 36, 0
2, 112320, Note_on_c, 9, 42, 95
2, 112320, Note_on_c, 9, 38, 95
2, 112800, Note_off_c, 9, 42, 0
2, 112800, Note_off_c, 9, 38, 0
2, 112800, Note_on_c, 9, 49, 95
2, 113280, Note_off_c, 9, 49, 0
2, 113280, Note_on_c, 9, 42, 95
2, 113520, Note_on_c, 9, 38, 95
2, 113760, Note_off_c, 9, 42, 0
2, 113760, Note_off_c, 9, 38, 0
2, 113760, Note_on_c, 9, 42, 95
2, 113760, Note_on_c, 9, 36, 95
2, 114240, Note_off_c, 9, 42, 0
2, 114240, Note_off_c, 9, 36, 0
2, 114240, Note_on_c, 9, 42, 95
2, 114240, Note_on_c, 9, 38, 95
2, 114720, Note_off_c, 9, 42, 0
2, 114720, Note_off_c, 9, 38, 0
2, 114720, Note_on_c, 9, 42, 95
2, 115200, Note_off_c, 9, 42, 0
2, 115200, Note_on_c, 9, 49, 95
2, 115200, Note_on_c, 9, 36, 95
2, 115680, Note_off_c, 9, 49, 0
2, 115680, Note_off_c, 9, 36, 0
2, 115680, Note_on_c, 9, 42, 95
2, 116160, Note_off_c, 9, 42, 0
2, 116160, Note_on_c, 9, 42, 95
2, 116160, Note_on_c, 9, 38, 95
2, 116640, Note_off_c, 9, 42, 0
2, 116640, Note_off_c, 9, 38, 0
2, 116640, Note_on_c, 9, 49, 95
2, 116640, Note_on_c, 9, 36, 95
2, 117120, Note_off_c, 9, 49, 0
2, 117120, Note_off_c, 9, 36, 0
2, 117120, Note_on_c, 9, 42, 95
2, 117600, Note_off_c, 9, 42, 0
2, 117600, Note_on_c, 9, 42, 95
2, 117600, Note_on_c, 9, 36, 95
2, 117840, Note_off_c, 9, 42, 0
2, 117840, Note_off_c, 9, 36, 0
2, 117840, Note_on_c, 9, 38, 95
2, 118080, Note_off_c, 9, 38, 0
2, 118080, Note_on_c, 9, 42, 95
2, 118560, Note_off_c, 9, 42, 0
2, 118560, Note_on_c, 9, 42, 95
2, 118560, Note_on_c, 9, 36, 95
2, 119040, Note_off_c, 9, 42, 0
2, 119040, Note_off_c, 9, 36, 0
2, 119040, Note_on_c, 9, 49, 95
2, 119040, Note_on_c, 9, 38, 95
2, 119040, Note_on_c, 9, 36, 95
2, 119520, Note_off_c, 9, 49, 0
2, 119520, Note_off_c, 9, 38, 0
2, 119520, Note_off_c, 9, 36, 0
2, 120000, Note_on_c, 9, 57, 95
2, 120000, Note_on_c, 9, 38, 95
2, 120000, Note_on_c, 9, 36, 95
2, 120960, Note_off_c, 9, 57, 0
2, 120960, Note_off_c, 9, 38, 0
2, 120960, Note_off_c, 9, 36, 0
2, 121920, Note_on_c, 9, 38, 95
2, 122160, Note_off_c, 9, 38, 0
2, 122160, Note_on_c, 9, 38, 95
2, 122400, Note_off_c, 9, 38, 0
2, 122400, Note_on_c, 9, 46, 95
2, 122880, Note_off_c, 9, 46, 0
2, 122880, Note_on_c, 9, 49, 95
2, 122880, Note_on_c, 9, 36, 95
2, 123360, Note_off_c, 9, 49, 0
2, 123360, Note_off_c, 9, 36, 0
2, 123360, Note_on_c, 9, 42, 95
2, 123360, Note_on_c, 9, 36, 95
2, 123840, Note_off_c, 9, 42, 0
2, 123840, Note_off_c, 9, 36, 0
2, 123840, Note_on_c, 9, 42, 95
2, 123840, Note_on_c, 9, 38, 95
2, 124320, Note_off_c, 9, 42, 0
2, 124320, Note_off_c, 9, 38, 0
2, 124320, Note_on_c, 9, 42, 95
2, 124800, Note_off_c, 9, 42, 0
2, 124800, Note_on_c, 9, 42, 95
2, 125040, Note_on_c, 9, 38, 95
2, 125280, Note_off_c, 9, 42, 0
2, 125280, Note_off_c, 9, 38, 0
2, 125280, Note_on_c, 9, 42, 95
2, 125280, Note_on_c, 9, 36, 95
2, 125760, Note_off_c, 9, 42, 0
2, 125760, Note_off_c, 9, 36, 0
2, 125760, Note_on_c, 9, 42, 95
2, 125760, Note_on_c, 9, 38, 95
2, 126240, Note_off_c, 9, 42, 0
2, 126240, Note_off_c, 9, 38, 0
2, 126240, Note_on_c, 9, 42, 95
2, 126720, Note_off_c, 9, 42, 0
2, 126720, Note_on_c, 9, 42, 95
2, 126720, Note_on_c, 9, 36, 95
2, 127200, Note_off_c, 9, 42, 0
2, 127200, Note_off_c, 9, 36, 0
2, 127200, Note_on_c, 9, 42, 95
2, 127200, Note_on_c, 9, 36, 95
2, 127680, Note_off_c, 9, 42, 0
2, 127680, Note_off_c, 9, 36, 0
2, 127680, Note_on_c, 9, 42, 95
2, 127680, Note_on_c, 9, 38, 95
2, 128160, Note_off_c, 9, 42, 0
2, 128160, Note_off_c, 9, 38, 0
2, 128160, Note_on_c, 9, 42, 95
2, 128640, Note_off_c, 9, 42, 0
2, 128640, Note_on_c, 9, 42, 95
2, 129120, Note_off_c, 9, 42, 0
2, 129120, Note_on_c, 9, 42, 95
2, 129120, Note_on_c, 9, 36, 95
2, 129600, Note_off_c, 9, 42, 0
2, 129600, Note_off_c, 9, 36, 0
2, 129600, Note_on_c, 9, 42, 95
2, 129600, Note_on_c, 9, 38, 95
2, 130080, Note_off_c, 9, 42, 0
2, 130080, Note_off_c, 9, 38, 0
2, 130080, Note_on_c, 9, 42, 95
2, 130560, Note_off_c, 9, 42, 0
2, 130560, Note_on_c, 9, 42, 95
2, 130560, Note_on_c, 9, 36, 95
2, 131040, Note_off_c, 9, 42, 0
2, 131040, Note_off_c, 9, 36, 0
2, 131040, Note_on_c, 9, 42, 95
2, 131040, Note_on_c, 9, 36, 95
2, 131520, Note_off_c, 9, 42, 0
2, 131520, Note_off_c, 9, 36, 0
2, 131520, Note_on_c, 9, 42, 95
2, 131520, Note_on_c, 9, 38, 95
2, 132000, Note_off_c, 9, 42, 0
2, 132000, Note_off_c, 9, 38, 0
2, 132000, Note_on_c, 9, 42, 95
2, 132480, Note_off_c, 9, 42, 0
2, 132480, Note_on_c, 9, 42, 95
2, 132720, Note_on_c, 9, 38, 95
2, 132960, Note_off_c, 9, 42, 0
2, 132960, Note_off_c, 9, 38, 0
2, 132960, Note_on_c, 9, 42, 95
2, 132960, Note_on_c, 9, 36, 95
2, 133440, Note_off_c, 9, 42, 0
2, 133440, Note_off_c, 9, 36, 0
2, 133440, Note_on_c, 9, 42, 95
2, 133440, Note_on_c, 9, 38, 95
2, 133920, Note_off_c, 9, 42, 0
2, 133920, Note_off_c, 9, 38, 0
2, 133920, Note_on_c, 9, 42, 95
2, 134400, Note_off_c, 9, 42, 0
2, 134400, Note_on_c, 9, 42, 95
2, 134400, Note_on_c, 9, 36, 95
2, 134880, Note_off_c, 9, 42, 0
2, 134880, Note_off_c, 9, 36, 0
2, 134880, Note_on_c, 9, 42, 95
2, 134880, Note_on_c, 9, 36, 95
2, 135360, Note_off_c, 9, 42, 0
2, 135360, Note_off_c, 9, 36, 0
2, 135360, Note_on_c, 9, 42, 95
2, 135360, Note_on_c, 9, 38, 95
2, 135840, Note_off_c, 9, 42, 0
2, 135840, Note_off_c, 9, 38, 0
2, 135840, Note_on_c, 9, 42, 95
2, 136320, Note_off_c, 9, 42, 0
2, 136320, Note_on_c, 9, 42, 95
2, 136800, Note_off_c, 9, 42, 0
2, 136800, Note_on_c, 9, 42, 95
2, 136800, Note_on_c, 9, 36, 95
2, 137280, Note_off_c, 9, 42, 0
2, 137280, Note_off_c, 9, 36, 0
2, 137280, Note_on_c, 9, 42, 95
2, 137280, Note_on_c, 9, 38, 95
2, 137760, Note_off_c, 9, 42, 0
2, 137760, Note_off_c, 9, 38, 0
2, 137760, Note_on_c, 9, 46, 95
2, 137760, Note_on_c, 9, 36, 95
2, 138000, Note_off_c, 9, 46, 0
2, 138240, Note_off_c, 9, 36, 0
2, 138240, Note_on_c, 9, 42, 95
2, 138240, Note_on_c, 9, 38, 95
2, 138480, Note_off_c, 9, 42, 0
2, 138480, Note_off_c, 9, 38, 0
2, 138480, Note_on_c, 9, 42, 95
2, 138480, Note_on_c, 9, 38, 95
2, 138720, Note_off_c, 9, 42, 0
2, 138720, Note_off_c, 9, 38, 0
2, 138720, Note_on_c, 9, 42, 95
2, 138720, Note_on_c, 9, 36, 95
2, 139200, Note_off_c, 9, 42, 0
2, 139200, Note_off_c, 9, 36, 0
2, 139200, Note_on_c, 9, 42, 95
2, 139200, Note_on_c, 9, 38, 95
2, 139680, Note_off_c, 9, 42, 0
2, 139680, Note_off_c, 9, 38, 0
2, 139680, Note_on_c, 9, 42, 95
2, 140160, Note_off_c, 9, 42, 0
2, 140160, Note_on_c, 9, 42, 95
2, 140640, Note_off_c, 9, 42, 0
2, 140640, Note_on_c, 9, 42, 95
2, 140640, Note_on_c, 9, 36, 95
2, 141120, Note_off_c, 9, 42, 0
2, 141120, Note_off_c, 9, 36, 0
2, 141120, Note_on_c, 9, 42, 95
2, 141120, Note_on_c, 9, 38, 95
2, 141600, Note_off_c, 9, 42, 0
2, 141600, Note_off_c, 9, 38, 0
2, 141600, Note_on_c, 9, 42, 95
2, 142080, Note_off_c, 9, 42, 0
2, 142080, Note_on_c, 9, 42, 95
2, 142080, Note_on_c, 9, 36, 95
2, 142560, Note_off_c, 9, 42, 0
2, 142560, Note_off_c, 9, 36, 0
2, 142560, Note_on_c, 9, 42, 95
2, 142560, Note_on_c, 9, 36, 95
2, 143040, Note_off_c, 9, 42, 0
2, 143040, Note_off_c, 9, 36, 0
2, 143040, Note_on_c, 9, 42, 95
2, 143040, Note_on_c, 9, 38, 95
2, 143520, Note_off_c, 9, 42, 0
2, 143520, Note_off_c, 9, 38, 0
2, 143520, Note_on_c, 9, 42, 95
2, 144000, Note_off_c, 9, 42, 0
2, 144000, Note_on_c, 9, 42, 95
2, 144240, Note_on_c, 9, 38, 95
2, 144480, Note_off_c, 9, 42, 0
2, 144480, Note_off_c, 9, 38, 0
2, 144480, Note_on_c, 9, 42, 95
2, 144480, Note_on_c, 9, 36, 95
2, 144960, Note_off_c, 9, 42, 0
2, 144960, Note_off_c, 9, 36, 0
2, 144960, Note_on_c, 9, 42, 95
2, 144960, Note_on_c, 9, 38, 95
2, 145440, Note_off_c, 9, 42, 0
2, 145440, Note_off_c, 9, 38, 0
2, 145440, Note_on_c, 9, 42, 95
2, 145920, Note_off_c, 9, 42, 0
2, 145920, Note_on_c, 9, 42, 95
2, 145920, Note_on_c, 9, 36, 95
2, 146400, Note_off_c, 9, 42, 0
2, 146400, Note_off_c, 9, 36, 0
2, 146400, Note_on_c, 9, 42, 95
2, 146400, Note_on_c, 9, 36, 95
2, 146880, Note_off_c, 9, 42, 0
2, 146880, Note_off_c, 9, 36, 0
2, 146880, Note_on_c, 9, 42, 95
2, 146880, Note_on_c, 9, 38, 95
2, 147360, Note_off_c, 9, 42, 0
2, 147360, Note_off_c, 9, 38, 0
2, 147360, Note_on_c, 9, 42, 95
2, 147840, Note_off_c, 9, 42, 0
2, 147840, Note_on_c, 9, 42, 95
2, 148320, Note_off_c, 9, 42, 0
2, 148320, Note_on_c, 9, 42, 95
2, 148320, Note_on_c, 9, 36, 95
2, 148800, Note_off_c, 9, 42, 0
2, 148800, Note_off_c, 9, 36, 0
2, 148800, Note_on_c, 9, 42, 95
2, 148800, Note_on_c, 9, 38, 95
2, 149280, Note_off_c, 9, 42, 0
2, 149280, Note_off_c, 9, 38, 0
2, 149280, Note_on_c, 9, 42, 95
2, 149760, Note_off_c, 9, 42, 0
2, 149760, Note_on_c, 9, 42, 95
2, 149760, Note_on_c, 9, 36, 95
2, 150240, Note_off_c, 9, 42, 0
2, 150240, Note_off_c, 9, 36, 0
2, 150240, Note_on_c, 9, 42, 95
2, 150240, Note_on_c, 9, 36, 95
2, 150720, Note_off_c, 9, 42, 0
2, 150720, Note_off_c, 9, 36, 0
2, 150720, Note_on_c, 9, 42, 95
2, 150720, Note_on_c, 9, 38, 95
2, 151200, Note_off_c, 9, 42, 0
2, 151200, Note_off_c, 9, 38, 0
2, 151200, Note_on_c, 9, 42, 95
2, 151680, Note_off_c, 9, 42, 0
2, 151680, Note_on_c, 9, 42, 95
2, 151680, Note_on_c, 9, 36, 95
2, 152160, Note_off_c, 9, 42, 0
2, 152160, Note_off_c, 9, 36, 0
2, 152160, Note_on_c, 9, 38, 95
2, 152400, Note_off_c, 9, 38, 0
2, 152400, Note_on_c, 9, 38, 95
2, 152880, Note_off_c, 9, 38, 0
2, 152880, Note_on_c, 9, 38, 95
2, 153120, Note_off_c, 9, 38, 0
2, 153120, Note_on_c, 9, 46, 95
2, 153120, Note_on_c, 9, 36, 95
2, 153600, Note_off_c, 9, 46, 0
2, 153600, Note_off_c, 9, 36, 0
2, 153600, Note_on_c, 9, 49, 95
2, 153600, Note_on_c, 9, 36, 95
2, 154080, Note_off_c, 9, 49, 0
2, 154080, Note_off_c, 9, 36, 0
2, 154080, Note_on_c, 9, 42, 95
2, 154080, Note_on_c, 9, 36, 95
2, 154560, Note_off_c, 9, 42, 0
2, 154560, Note_off_c, 9, 36, 0
2, 154560, Note_on_c, 9, 42, 95
2, 154560, Note_on_c, 9, 38, 95
2, 155040, Note_off_c, 9, 42, 0
2, 155040, Note_off_c, 9, 38, 0
2, 155040, Note_on_c, 9, 42, 95
2, 155520, Note_off_c, 9, 42, 0
2, 155520, Note_on_c, 9, 42, 95
2, 155760, Note_on_c, 9, 38, 95
2, 156000, Note_off_c, 9, 42, 0
2, 156000, Note_off_c, 9, 38, 0
2, 156000, Note_on_c, 9, 42, 95
2, 156000, Note_on_c, 9, 36, 95
2, 156480, Note_off_c, 9, 42, 0
2, 156480, Note_off_c, 9, 36, 0
2, 156480, Note_on_c, 9, 42, 95
2, 156480, Note_on_c, 9, 38, 95
2, 156960, Note_off_c, 9, 42, 0
2, 156960, Note_off_c, 9, 38, 0
2, 156960, Note_on_c, 9, 42, 95
2, 157440, Note_off_c, 9, 42, 0
2, 157440, Note_on_c, 9, 42, 95
2, 157440, Note_on_c, 9, 36, 95
2, 157920, Note_off_c, 9, 42, 0
2, 157920, Note_off_c, 9, 36, 0
2, 157920, Note_on_c, 9, 42, 95
2, 157920, Note_on_c, 9, 36, 95
2, 158400, Note_off_c, 9, 42, 0
2, 158400, Note_off_c, 9, 36, 0
2, 158400, Note_on_c, 9, 42, 95
2, 158400, Note_on_c, 9, 38, 95
2, 158880, Note_off_c, 9, 42, 0
2, 158880, Note_off_c, 9, 38, 0
2, 158880, Note_on_c, 9, 42, 95
2, 159360, Note_off_c, 9, 42, 0
2, 159360, Note_on_c, 9, 42, 95
2, 159840, Note_off_c, 9, 42, 0
2, 159840, Note_on_c, 9, 42, 95
2, 159840, Note_on_c, 9, 36, 95
2, 160320, Note_off_c, 9, 42, 0
2, 160320, Note_off_c, 9, 36, 0
2, 160320, Note_on_c, 9, 42, 95
2, 160320, Note_on_c, 9, 38, 95
2, 160800, Note_off_c, 9, 42, 0
2, 160800, Note_off_c, 9, 38, 0
2, 160800, Note_on_c, 9, 42, 95
2, 161280, Note_off_c, 9, 42, 0
2, 161280, Note_on_c, 9, 42, 95
2, 161280, Note_on_c, 9, 36, 95
2, 161760, Note_off_c, 9, 42, 0
2, 161760, Note_off_c, 9, 36, 0
2, 161760, Note_on_c, 9, 42, 95
2, 161760, Note_on_c, 9, 36, 95
2, 162240, Note_off_c, 9, 42, 0
2, 162240, Note_off_c, 9, 36, 0
2, 162240, Note_on_c, 9, 42, 95
2, 162240, Note_on_c, 9, 38, 95
2, 162720, Note_off_c, 9, 42, 0
2, 162720, Note_off_c, 9, 38, 0
2, 162720, Note_on_c, 9, 42, 95
2, 163200, Note_off_c, 9, 42, 0
2, 163200, Note_on_c, 9, 42, 95
2, 163440, Note_on_c, 9, 38, 95
2, 163680, Note_off_c, 9, 42, 0
2, 163680, Note_off_c, 9, 38, 0
2, 163680, Note_on_c, 9, 42, 95
2, 163680, Note_on_c, 9, 36, 95
2, 164160, Note_off_c, 9, 42, 0
2, 164160, Note_off_c, 9, 36, 0
2, 164160, Note_on_c, 9, 42, 95
2, 164160, Note_on_c, 9, 38, 95
2, 164640, Note_off_c, 9, 42, 0
2, 164640, Note_off_c, 9, 38, 0
2, 164640, Note_on_c, 9, 42, 95
2, 165120, Note_off_c, 9, 42, 0
2, 165120, Note_on_c, 9, 42, 95
2, 165120, Note_on_c, 9, 36, 95
2, 165600, Note_off_c, 9, 42, 0
2, 165600, Note_off_c, 9, 36, 0
2, 165600, Note_on_c, 9, 42, 95
2, 165600, Note_on_c, 9, 36, 95
2, 166080, Note_off_c, 9, 42, 0
2, 166080, Note_off_c, 9, 36, 0
2, 166080, Note_on_c, 9, 42, 95
2, 166080, Note_on_c, 9, 38, 95
2, 166560, Note_off_c, 9, 42, 0
2, 166560, Note_off_c, 9, 38, 0
2, 166560, Note_on_c, 9, 42, 95
2, 167040, Note_off_c, 9, 42, 0
2, 167040, Note_on_c, 9, 42, 95
2, 167520, Note_off_c, 9, 42, 0
2, 167520, Note_on_c, 9, 42, 95
2, 167520, Note_on_c, 9, 36, 95
2, 168000, Note_off_c, 9, 42, 0
2, 168000, Note_off_c, 9, 36, 0
2, 168000, Note_on_c, 9, 42, 95
2, 168000, Note_on_c, 9, 38, 95
2, 168480, Note_off_c, 9, 42, 0
2, 168480, Note_off_c, 9, 38, 0
2, 168480, Note_on_c, 9, 46, 95
2, 168480, Note_on_c, 9, 36, 95
2, 168720, Note_off_c, 9, 46, 0
2, 168960, Note_off_c, 9, 36, 0
2, 168960, Note_on_c, 9, 42, 95
2, 168960, Note_on_c, 9, 38, 95
2, 169200, Note_off_c, 9, 42, 0
2, 169200, Note_off_c, 9, 38, 0
2, 169200, Note_on_c, 9, 42, 95
2, 169200, Note_on_c, 9, 38, 95
2, 169440, Note_off_c, 9, 42, 0
2, 169440, Note_off_c, 9, 38, 0
2, 169440, Note_on_c, 9, 42, 95
2, 169440, Note_on_c, 9, 36, 95
2, 169920, Note_off_c, 9, 42, 0
2, 169920, Note_off_c, 9, 36, 0
2, 169920, Note_on_c, 9, 42, 95
2, 169920, Note_on_c, 9, 38, 95
2, 170400, Note_off_c, 9, 42, 0
2, 170400, Note_off_c, 9, 38, 0
2, 170400, Note_on_c, 9, 42, 95
2, 170880, Note_off_c, 9, 42, 0
2, 170880, Note_on_c, 9, 42, 95
2, 171360, Note_off_c, 9, 42, 0
2, 171360, Note_on_c, 9, 42, 95
2, 171360, Note_on_c, 9, 36, 95
2, 171840, Note_off_c, 9, 42, 0
2, 171840, Note_off_c, 9, 36, 0
2, 171840, Note_on_c, 9, 42, 95
2, 171840, Note_on_c, 9, 38, 95
2, 172320, Note_off_c, 9, 42, 0
2, 172320, Note_off_c, 9, 38, 0
2, 172320, Note_on_c, 9, 42, 95
2, 172800, Note_off_c, 9, 42, 0
2, 172800, Note_on_c, 9, 42, 95
2, 172800, Note_on_c, 9, 36, 95
2, 173280, Note_off_c, 9, 42, 0
2, 173280, Note_off_c, 9, 36, 0
2, 173280, Note_on_c, 9, 42, 95
2, 173280, Note_on_c, 9, 36, 95
2, 173760, Note_off_c, 9, 42, 0
2, 173760, Note_off_c, 9, 36, 0
2, 173760, Note_on_c, 9, 42, 95
2, 173760, Note_on_c, 9, 38, 95
2, 174240, Note_off_c, 9, 42, 0
2, 174240, Note_off_c, 9, 38, 0
2, 174240, Note_on_c, 9, 42, 95
2, 174720, Note_off_c, 9, 42, 0
2, 174720, Note_on_c, 9, 42, 95
2, 174960, Note_on_c, 9, 38, 95
2, 175200, Note_off_c, 9, 42, 0
2, 175200, Note_off_c, 9, 38, 0
2, 175200, Note_on_c, 9, 42, 95
2, 175200, Note_on_c, 9, 36, 95
2, 175680, Note_off_c, 9, 42, 0
2, 175680, Note_off_c, 9, 36, 0
2, 175680, Note_on_c, 9, 42, 95
2, 175680, Note_on_c, 9, 38, 95
2, 176160, Note_off_c, 9, 42, 0
2, 176160, Note_off_c, 9, 38, 0
2, 176160, Note_on_c, 9, 42, 95
2, 176640, Note_off_c, 9, 42, 0
2, 176640, Note_on_c, 9, 42, 95
2, 176640, Note_on_c, 9, 36, 95
2, 177120, Note_off_c, 9, 42, 0
2, 177120, Note_off_c, 9, 36, 0
2, 177120, Note_on_c, 9, 42, 95
2, 177120, Note_on_c, 9, 36, 95
2, 177600, Note_off_c, 9, 42, 0
2, 177600, Note_off_c, 9, 36, 0
2, 177600, Note_on_c, 9, 42, 95
2, 177600, Note_on_c, 9, 38, 95
2, 178080, Note_off_c, 9, 42, 0
2, 178080, Note_off_c, 9, 38, 0
2, 178080, Note_on_c, 9, 42, 95
2, 178560, Note_off_c, 9, 42, 0
2, 178560, Note_on_c, 9, 42, 95
2, 179040, Note_off_c, 9, 42, 0
2, 179040, Note_on_c, 9, 42, 95
2, 179040, Note_on_c, 9, 36, 95
2, 179520, Note_off_c, 9, 42, 0
2, 179520, Note_off_c, 9, 36, 0
2, 179520, Note_on_c, 9, 42, 95
2, 179520, Note_on_c, 9, 38, 95
2, 180000, Note_off_c, 9, 42, 0
2, 180000, Note_off_c, 9, 38, 0
2, 180000, Note_on_c, 9, 42, 95
2, 180480, Note_off_c, 9, 42, 0
2, 180480, Note_on_c, 9, 42, 95
2, 180480, Note_on_c, 9, 36, 95
2, 180960, Note_off_c, 9, 42, 0
2, 180960, Note_off_c, 9, 36, 0
2, 180960, Note_on_c, 9, 42, 95
2, 180960, Note_on_c, 9, 36, 95
2, 181440, Note_off_c, 9, 42, 0
2, 181440, Note_off_c, 9, 36, 0
2, 181440, Note_on_c, 9, 42, 95
2, 181440, Note_on_c, 9, 38, 95
2, 181920, Note_off_c, 9, 42, 0
2, 181920, Note_off_c, 9, 38, 0
2, 181920, Note_on_c, 9, 42, 95
2, 182400, Note_off_c, 9, 42, 0
2, 182400, Note_on_c, 9, 42, 95
2, 182400, Note_on_c, 9, 36, 95
2, 182880, Note_off_c, 9, 42, 0
2, 182880, Note_off_c, 9, 36, 0
2, 182880, Note_on_c, 9, 38, 95
2, 183120, Note_off_c, 9, 38, 0
2, 183120, Note_on_c, 9, 38, 95
2, 183600, Note_off_c, 9, 38, 0
2, 183600, Note_on_c, 9, 38, 95
2, 183840, Note_off_c, 9, 38, 0
2, 183840, Note_on_c, 9, 46, 95
2, 183840, Note_on_c, 9, 36, 95
2, 184320, Note_off_c, 9, 46, 0
2, 184320, Note_off_c, 9, 36, 0
2, 184320, Note_on_c, 9, 49, 95
2, 184320, Note_on_c, 9, 36, 95
2, 184800, Note_off_c, 9, 49, 0
2, 184800, Note_off_c, 9, 36, 0
2, 184800, Note_on_c, 9, 42, 95
2, 184800, Note_on_c, 9, 36, 95
2, 185280, Note_off_c, 9, 42, 0
2, 185280, Note_off_c, 9, 36, 0
2, 185280, Note_on_c, 9, 42, 95
2, 185280, Note_on_c, 9, 38, 95
2, 185760, Note_off_c, 9, 42, 0
2, 185760, Note_off_c, 9, 38, 0
2, 185760, Note_on_c, 9, 49, 95
2, 186240, Note_off_c, 9, 49, 0
2, 186240, Note_on_c, 9, 42, 95
2, 186480, Note_on_c, 9, 38, 95
2, 186720, Note_off_c, 9, 42, 0
2, 186720, Note_off_c, 9, 38, 0
2, 186720, Note_on_c, 9, 42, 95
2, 186720, Note_on_c, 9, 36, 95
2, 187200, Note_off_c, 9, 42, 0
2, 187200, Note_off_c, 9, 36, 0
2, 187200, Note_on_c, 9, 42, 95
2, 187200, Note_on_c, 9, 38, 95
2, 187680, Note_off_c, 9, 42, 0
2, 187680, Note_off_c, 9, 38, 0
2, 187680, Note_on_c, 9, 42, 95
2, 188160, Note_off_c, 9, 42, 0
2, 188160, Note_on_c, 9, 49, 95
2, 188160, Note_on_c, 9, 36, 95
2, 188640, Note_off_c, 9, 49, 0
2, 188640, Note_off_c, 9, 36, 0
2, 188640, Note_on_c, 9, 42, 95
2, 189120, Note_off_c, 9, 42, 0
2, 189120, Note_on_c, 9, 42, 95
2, 189120, Note_on_c, 9, 38, 95
2, 189600, Note_off_c, 9, 42, 0
2, 189600, Note_off_c, 9, 38, 0
2, 189600, Note_on_c, 9, 49, 95
2, 189600, Note_on_c, 9, 36, 95
2, 190080, Note_off_c, 9, 49, 0
2, 190080, Note_off_c, 9, 36, 0
2, 190080, Note_on_c, 9, 42, 95
2, 190560, Note_off_c, 9, 42, 0
2, 190560, Note_on_c, 9, 42, 95
2, 190560, Note_on_c, 9, 36, 95
2, 190800, Note_off_c, 9, 42, 0
2, 190800, Note_off_c, 9, 36, 0
2, 190800, Note_on_c, 9, 38, 95
2, 191040, Note_off_c, 9, 38, 0
2, 191040, Note_on_c, 9, 42, 95
2, 191520, Note_off_c, 9, 42, 0
2, 191520, Note_on_c, 9, 42, 95
2, 191520, Note_on_c, 9, 36, 95
2, 192000, Note_off_c, 9, 42, 0
2, 192000, Note_off_c, 9, 36, 0
2, 192000, Note_on_c, 9, 49, 95
2, 192000, Note_on_c, 9, 36, 95
2, 192480, Note_off_c, 9, 49, 0
2, 192480, Note_off_c, 9, 36, 0
2, 192480, Note_on_c, 9, 42, 95
2, 192480, Note_on_c, 9, 36, 95
2, 192960, Note_off_c, 9, 42, 0
2, 192960, Note_off_c, 9, 36, 0
2, 192960, Note_on_c, 9, 42, 95
2, 192960, Note_on_c, 9, 38, 95
2, 193440, Note_off_c, 9, 42, 0
2, 193440, Note_off_c, 9, 38, 0
2, 193440, Note_on_c, 9, 49, 95
2, 193920, Note_off_c, 9, 49, 0
2, 193920, Note_on_c, 9, 42, 95
2, 194160, Note_on_c, 9, 38, 95
2, 194400, Note_off_c, 9, 42, 0
2, 194400, Note_off_c, 9, 38, 0
2, 194400, Note_on_c, 9, 42, 95
2, 194400, Note_on_c, 9, 36, 95
2, 194880, Note_off_c, 9, 42, 0
2, 194880, Note_off_c, 9, 36, 0
2, 194880, Note_on_c, 9, 42, 95
2, 194880, Note_on_c, 9, 38, 95
2, 195360, Note_off_c, 9, 42, 0
2, 195360, Note_off_c, 9, 38, 0
2, 195360, Note_on_c, 9, 42, 95
2, 195840, Note_off_c, 9, 42, 0
2, 195840, Note_on_c, 9, 49, 95
2, 195840, Note_on_c, 9, 36, 95
2, 196320, Note_off_c, 9, 49, 0
2, 196320, Note_off_c, 9, 36, 0
2, 196320, Note_on_c, 9, 42, 95
2, 196800, Note_off_c, 9, 42, 0
2, 196800, Note_on_c, 9, 42, 95
2, 196800, Note_on_c, 9, 38, 95
2, 197280, Note_off_c, 9, 42, 0
2, 197280, Note_off_c, 9, 38, 0
2, 197280, Note_on_c, 9, 49, 95
2, 197280, Note_on_c, 9, 36, 95
2, 197760, Note_off_c, 9, 49, 0
2, 197760, Note_off_c, 9, 36, 0
2, 197760, Note_on_c, 9, 42, 95
2, 198240, Note_off_c, 9, 42, 0
2, 198240, Note_on_c, 9, 42, 95
2, 198240, Note_on_c, 9, 36, 95
2, 198480, Note_off_c, 9, 42, 0
2, 198480, Note_off_c, 9, 36, 0
2, 198480, Note_on_c, 9, 38, 95
2, 198720, Note_off_c, 9, 38, 0
2, 198720, Note_on_c, 9, 42, 95
2, 199200, Note_off_c, 9, 42, 0
2, 199200, Note_on_c, 9, 42, 95
2, 199200, Note_on_c, 9, 36, 95
2, 199680, Note_off_c, 9, 42, 0
2, 199680, Note_off_c, 9, 36, 0
2, 199680, Note_on_c, 9, 49, 95
2, 199680, Note_on_c, 9, 36, 95
2, 200160, Note_off_c, 9, 49, 0
2, 200160, Note_off_c, 9, 36, 0
2, 200160, Note_on_c, 9, 42, 95
2, 200640, Note_off_c, 9, 42, 0
2, 200640, Note_on_c, 9, 42, 95
2, 200640, Note_on_c, 9, 38, 95
2, 201120, Note_off_c, 9, 42, 0
2, 201120, Note_off_c, 9, 38, 0
2, 201120, Note_on_c, 9, 49, 95
2, 201120, Note_on_c, 9, 36, 95
2, 201600, Note_off_c, 9, 49, 0
2, 201600, Note_off_c, 9, 36, 0
2, 201600, Note_on_c, 9, 42, 95
2, 202080, Note_off_c, 9, 42, 0
2, 202080, Note_on_c, 9, 42, 95
2, 202080, Note_on_c, 9, 36, 95
2, 202320, Note_off_c, 9, 42, 0
2, 202320, Note_off_c, 9, 36, 0
2, 202320, Note_on_c, 9, 38, 95
2, 202560, Note_off_c, 9, 38, 0
2, 202560, Note_on_c, 9, 42, 95
2, 203040, Note_off_c, 9, 42, 0
2, 203040, Note_on_c, 9, 42, 95
2, 203040, Note_on_c, 9, 36, 95
2, 203520, Note_off_c, 9, 42, 0
2, 203520, Note_off_c, 9, 36, 0
2, 203520, Note_on_c, 9, 49, 95
2, 203520, Note_on_c, 9, 36, 95
2, 204000, Note_off_c, 9, 49, 0
2, 204000, Note_off_c, 9, 36, 0
2, 204000, Note_on_c, 9, 42, 95
2, 204000, Note_on_c, 9, 36, 95
2, 204480, Note_off_c, 9, 42, 0
2, 204480, Note_off_c, 9, 36, 0
2, 204480, Note_on_c, 9, 42, 95
2, 204480, Note_on_c, 9, 38, 95
2, 204960, Note_off_c, 9, 42, 0
2, 204960, Note_off_c, 9, 38, 0
2, 204960, Note_on_c, 9, 49, 95
2, 205440, Note_off_c, 9, 49, 0
2, 205440, Note_on_c, 9, 42, 95
2, 205680, Note_on_c, 9, 38, 95
2, 205920, Note_off_c, 9, 42, 0
2, 205920, Note_off_c, 9, 38, 0
2, 205920, Note_on_c, 9, 42, 95
2, 205920, Note_on_c, 9, 36, 95
2, 206400, Note_off_c, 9, 42, 0
2, 206400, Note_off_c, 9, 36, 0
2, 206400, Note_on_c, 9, 42, 95
2, 206400, Note_on_c, 9, 38, 95
2, 206880, Note_off_c, 9, 42, 0
2, 206880, Note_off_c, 9, 38, 0
2, 206880, Note_on_c, 9, 42, 95
2, 207360, Note_off_c, 9, 42, 0
2, 207360, Note_on_c, 9, 49, 95
2, 207360, Note_on_c, 9, 36, 95
2, 207840, Note_off_c, 9, 49, 0
2, 207840, Note_off_c, 9, 36, 0
2, 207840, Note_on_c, 9, 42, 95
2, 208320, Note_off_c, 9, 42, 0
2, 208320, Note_on_c, 9, 42, 95
2, 208320, Note_on_c, 9, 38, 95
2, 208800, Note_off_c, 9, 42, 0
2, 208800, Note_off_c, 9, 38, 0
2, 208800, Note_on_c, 9, 49, 95
2, 208800, Note_on_c, 9, 36, 95
2, 209280, Note_off_c, 9, 49, 0
2, 209280, Note_off_c, 9, 36, 0
2, 209280, Note_on_c, 9, 42, 95
2, 209760, Note_off_c, 9, 42, 0
2, 209760, Note_on_c, 9, 42, 95
2, 209760, Note_on_c, 9, 36, 95
2, 210000, Note_off_c, 9, 42, 0
2, 210000, Note_off_c, 9, 36, 0
2, 210000, Note_on_c, 9, 38, 95
2, 210240, Note_off_c, 9, 38, 0
2, 210240, Note_on_c, 9, 42, 95
2, 210720, Note_off_c, 9, 42, 0
2, 210720, Note_on_c, 9, 42, 95
2, 210720, Note_on_c, 9, 36, 95
2, 211200, Note_off_c, 9, 42, 0
2, 211200, Note_off_c, 9, 36, 0
2, 211200, Note_on_c, 9, 49, 95
2, 211200, Note_on_c, 9, 38, 95
2, 211200, Note_on_c, 9, 36, 95
2, 211680, Note_off_c, 9, 49, 0
2, 211680, Note_off_c, 9, 38, 0
2, 211680, Note_off_c, 9, 36, 0
2, 212160, Note_on_c, 9, 57, 95
2, 212160, Note_on_c, 9, 38, 95
2, 212160, Note_on_c, 9, 36, 95
2, 213120, Note_off_c, 9, 57, 0
2, 213120, Note_off_c, 9, 38, 0
2, 213120, Note_off_c, 9, 36, 0
2, 214080, Note_on_c, 9, 38, 95
2, 214320, Note_off_c, 9, 38, 0
2, 214320, Note_on_c, 9, 38, 95
2, 214560, Note_off_c, 9, 38, 0
2, 214560, Note_on_c, 9, 46, 95
2, 215040, Note_off_c, 9, 46, 0
2, 215040, Note_on_c, 9, 42, 95
2, 215040, Note_on_c, 9, 36, 95
2, 215520, Note_off_c, 9, 42, 0
2, 215520, Note_off_c, 9, 36, 0
2, 215520, Note_on_c, 9, 42, 95
2, 216000, Note_off_c, 9, 42, 0
2, 216000, Note_on_c, 9, 42, 95
2, 216000, Note_on_c, 9, 38, 95
2, 216480, Note_off_c, 9, 42, 0
2, 216480, Note_off_c, 9, 38, 0
2, 216480, Note_on_c, 9, 42, 95
2, 216960, Note_off_c, 9, 42, 0
2, 216960, Note_on_c, 9, 42, 95
2, 216960, Note_on_c, 9, 36, 95
2, 217440, Note_off_c, 9, 42, 0
2, 217440, Note_off_c, 9, 36, 0
2, 217440, Note_on_c, 9, 42, 95
2, 217440, Note_on_c, 9, 36, 95
2, 217920, Note_off_c, 9, 42, 0
2, 217920, Note_off_c, 9, 36, 0
2, 217920, Note_on_c, 9, 42, 95
2, 217920, Note_on_c, 9, 38, 95
2, 218400, Note_off_c, 9, 42, 0
2, 218400, Note_off_c, 9, 38, 0
2, 218400, Note_on_c, 9, 42, 95
2, 218880, Note_off_c, 9, 42, 0
2, 218880, Note_on_c, 9, 42, 95
2, 218880, Note_on_c, 9, 36, 95
2, 219360, Note_off_c, 9, 42, 0
2, 219360, Note_off_c, 9, 36, 0
2, 219360, Note_on_c, 9, 42, 95
2, 219840, Note_off_c, 9, 42, 0
2, 219840, Note_on_c, 9, 42, 95
2, 219840, Note_on_c, 9, 38, 95
2, 220320, Note_off_c, 9, 42, 0
2, 220320, Note_off_c, 9, 38, 0
2, 220320, Note_on_c, 9, 42, 95
2, 220800, Note_off_c, 9, 42, 0
2, 220800, Note_on_c, 9, 42, 95
2, 220800, Note_on_c, 9, 36, 95
2, 221280, Note_off_c, 9, 42, 0
2, 221280, Note_off_c, 9, 36, 0
2, 221280, Note_on_c, 9, 42, 95
2, 221280, Note_on_c, 9, 36, 95
2, 221760, Note_off_c, 9, 42, 0
2, 221760, Note_off_c, 9, 36, 0
2, 221760, Note_on_c, 9, 42, 95
2, 221760, Note_on_c, 9, 38, 95
2, 222240, Note_off_c, 9, 42, 0
2, 222240, Note_off_c, 9, 38, 0
2, 222240, Note_on_c, 9, 42, 95
2, 222720, Note_off_c, 9, 42, 0
2, 222720, Note_on_c, 9, 42, 95
2, 222720, Note_on_c, 9, 36, 95
2, 223200, Note_off_c, 9, 42, 0
2, 223200, Note_off_c, 9, 36, 0
2, 223200, Note_on_c, 9, 42, 95
2, 223680, Note_off_c, 9, 42, 0
2, 223680, Note_on_c, 9, 42, 95
2, 223680, Note_on_c, 9, 38, 95
2, 224160, Note_off_c, 9, 42, 0
2, 224160, Note_off_c, 9, 38, 0
2, 224160, Note_on_c, 9, 42, 95
2, 224640, Note_off_c, 9, 42, 0
2, 224640, Note_on_c, 9, 42, 95
2, 224640, Note_on_c, 9, 36, 95
2, 225120, Note_off_c, 9, 42, 0
2, 225120, Note_off_c, 9, 36, 0
2, 225120, Note_on_c, 9, 42, 95
2, 225120, Note_on_c, 9, 36, 95
2, 225600, Note_off_c, 9, 42, 0
2, 225600, Note_off_c, 9, 36, 0
2, 225600, Note_on_c, 9, 42, 95
2, 225600, Note_on_c, 9, 38, 95
2, 226080, Note_off_c, 9, 42, 0
2, 226080, Note_off_c, 9, 38, 0
2, 226080, Note_on_c, 9, 42, 95
2, 226560, Note_off_c, 9, 42, 0
2, 226560, Note_on_c, 9, 42, 95
2, 226560, Note_on_c, 9, 36, 95
2, 227040, Note_off_c, 9, 42, 0
2, 227040, Note_off_c, 9, 36, 0
2, 227040, Note_on_c, 9, 42, 95
2, 227520, Note_off_c, 9, 42, 0
2, 227520, Note_on_c, 9, 42, 95
2, 227520, Note_on_c, 9, 38, 95
2, 228000, Note_off_c, 9, 42, 0
2, 228000, Note_off_c, 9, 38, 0
2, 228000, Note_on_c, 9, 42, 95
2, 228480, Note_off_c, 9, 42, 0
2, 228480, Note_on_c, 9, 42, 95
2, 228480, Note_on_c, 9, 36, 95
2, 228960, Note_off_c, 9, 42, 0
2, 228960, Note_off_c, 9, 36, 0
2, 228960, Note_on_c, 9, 42, 95
2, 228960, Note_on_c, 9, 36, 95
2, 229440, Note_off_c, 9, 42, 0
2, 229440, Note_off_c, 9, 36, 0
2, 229440, Note_on_c, 9, 42, 95
2, 229440, Note_on_c, 9, 38, 95
2, 229920, Note_off_c, 9, 42, 0
2, 229920, Note_off_c, 9, 38, 0
2, 229920, Note_on_c, 9, 42, 95
2, 230400, Note_off_c, 9, 42, 0
2, 230400, Note_on_c, 9, 42, 95
2, 230400, Note_on_c, 9, 36, 95
2, 230880, Note_off_c, 9, 42, 0
2, 230880, Note_off_c, 9, 36, 0
2, 230880, Note_on_c, 9, 42, 95
2, 231360, Note_off_c, 9, 42, 0
2, 231360, Note_on_c, 9, 42, 95
2, 231360, Note_on_c, 9, 38, 95
2, 231840, Note_off_c, 9, 42, 0
2, 231840, Note_off_c, 9, 38, 0
2, 231840, Note_on_c, 9, 42, 95
2, 232320, Note_off_c, 9, 42, 0
2, 232320, Note_on_c, 9, 42, 95
2, 232320, Note_on_c, 9, 36, 95
2, 232800, Note_off_c, 9, 42, 0
2, 232800, Note_off_c, 9, 36, 0
2, 232800, Note_on_c, 9, 42, 95
2, 232800, Note_on_c, 9, 36, 95
2, 233280, Note_off_c, 9, 42, 0
2, 233280, Note_off_c, 9, 36, 0
2, 233280, Note_on_c, 9, 42, 95
2, 233280, Note_on_c, 9, 38, 95
2, 233760, Note_off_c, 9, 42, 0
2, 233760, Note_off_c, 9, 38, 0
2, 233760, Note_on_c, 9, 42, 95
2, 234240, Note_off_c, 9, 42, 0
2, 234240, Note_on_c, 9, 42, 95
2, 234240, Note_on_c, 9, 36, 95
2, 234720, Note_off_c, 9, 42, 0
2, 234720, Note_off_c, 9, 36, 0
2, 234720, Note_on_c, 9, 42, 95
2, 235200, Note_off_c, 9, 42, 0
2, 235200, Note_on_c, 9, 42, 95
2, 235200, Note_on_c, 9, 38, 95
2, 235680, Note_off_c, 9, 42, 0
2, 235680, Note_off_c, 9, 38, 0
2, 235680, Note_on_c, 9, 42, 95
2, 236160, Note_off_c, 9, 42, 0
2, 236160, Note_on_c, 9, 42, 95
2, 236160, Note_on_c, 9, 36, 95
2, 236640, Note_off_c, 9, 42, 0
2, 236640, Note_off_c, 9, 36, 0
2, 236640, Note_on_c, 9, 42, 95
2, 236640, Note_on_c, 9, 36, 95
2, 237120, Note_off_c, 9, 42, 0
2, 237120, Note_off_c, 9, 36, 0
2, 237120, Note_on_c, 9, 42, 95
2, 237120, Note_on_c, 9, 38, 95
2, 237600, Note_off_c, 9, 42, 0
2, 237600, Note_off_c, 9, 38, 0
2, 237600, Note_on_c, 9, 42, 95
2, 238080, Note_off_c, 9, 42, 0
2, 238080, Note_on_c, 9, 42, 95
2, 238080, Note_on_c, 9, 36, 95
2, 238560, Note_off_c, 9, 42, 0
2, 238560, Note_off_c, 9, 36, 0
2, 238560, Note_on_c, 9, 42, 95
2, 239040, Note_off_c, 9, 42, 0
2, 239040, Note_on_c, 9, 42, 95
2, 239040, Note_on_c, 9, 38, 95
2, 239520, Note_off_c, 9, 42, 0
2, 239520, Note_off_c, 9, 38, 0
2, 239520, Note_on_c, 9, 42, 95
2, 240000, Note_off_c, 9, 42, 0
2, 240000, Note_on_c, 9, 42, 95
2, 240000, Note_on_c, 9, 36, 95
2, 240480, Note_off_c, 9, 42, 0
2, 240480, Note_off_c, 9, 36, 0
2, 240480, Note_on_c, 9, 42, 95
2, 240480, Note_on_c, 9, 36, 95
2, 240960, Note_off_c, 9, 42, 0
2, 240960, Note_off_c, 9, 36, 0
2, 240960, Note_on_c, 9, 42, 95
2, 240960, Note_on_c, 9, 38, 95
2, 241440, Note_off_c, 9, 42, 0
2, 241440, Note_off_c, 9, 38, 0
2, 241440, Note_on_c, 9, 42, 95
2, 241920, Note_off_c, 9, 42, 0
2, 241920, Note_on_c, 9, 42, 95
2, 241920, Note_on_c, 9, 36, 95
2, 242400, Note_off_c, 9, 42, 0
2, 242400, Note_off_c, 9, 36, 0
2, 242400, Note_on_c, 9, 42, 95
2, 242880, Note_off_c, 9, 42, 0
2, 242880, Note_on_c, 9, 42, 95
2, 242880, Note_on_c, 9, 38, 95
2, 243360, Note_off_c, 9, 42, 0
2, 243360, Note_off_c, 9, 38, 0
2, 243360, Note_on_c, 9, 42, 95
2, 243840, Note_off_c, 9, 42, 0
2, 243840, Note_on_c, 9, 42, 95
2, 243840, Note_on_c, 9, 36, 95
2, 244320, Note_off_c, 9, 42, 0
2, 244320, Note_off_c, 9, 36, 0
2, 244320, Note_on_c, 9, 42, 95
2, 244320, Note_on_c, 9, 36, 95
2, 244800, Note_off_c, 9, 42, 0
2, 244800, Note_off_c, 9, 36, 0
2, 244800, Note_on_c, 9, 42, 95
2, 244800, Note_on_c, 9, 38, 95
2, 245280, Note_off_c, 9, 42, 0
2, 245280, Note_off_c, 9, 38, 0
2, 245280, Note_on_c, 9, 42, 95
2, 245760, Note_off_c, 9, 42, 0
2, 245760, Note_on_c, 9, 42, 95
2, 245760, Note_on_c, 9, 36, 95
2, 246240, Note_off_c, 9, 42, 0
2, 246240, Note_off_c, 9, 36, 0
2, 246240, Note_on_c, 9, 42, 95
2, 246720, Note_off_c, 9, 42, 0
2, 246720, Note_on_c, 9, 42, 95
2, 246720, Note_on_c, 9, 38, 95
2, 247200, Note_off_c, 9, 42, 0
2, 247200, Note_off_c, 9, 38, 0
2, 247200, Note_on_c, 9, 42, 95
2, 247680, Note_off_c, 9, 42, 0
2, 247680, Note_on_c, 9, 42, 95
2, 247680, Note_on_c, 9, 36, 95
2, 248160, Note_off_c, 9, 42, 0
2, 248160, Note_off_c, 9, 36, 0
2, 248160, Note_on_c, 9, 42, 95
2, 248160, Note_on_c, 9, 36, 95
2, 248640, Note_off_c, 9, 42, 0
2, 248640, Note_off_c, 9, 36, 0
2, 248640, Note_on_c, 9, 42, 95
2, 248640, Note_on_c, 9, 38, 95
2, 249120, Note_off_c, 9, 42, 0
2, 249120, Note_off_c, 9, 38, 0
2, 249120, Note_on_c, 9, 42, 95
2, 249600, Note_off_c, 9, 42, 0
2, 249600, Note_on_c, 9, 42, 95
2, 249600, Note_on_c, 9, 36, 95
2, 250080, Note_off_c, 9, 42, 0
2, 250080, Note_off_c, 9, 36, 0
2, 250080, Note_on_c, 9, 42, 95
2, 250560, Note_off_c, 9, 42, 0
2, 250560, Note_on_c, 9, 42, 95
2, 250560, Note_on_c, 9, 38, 95
2, 251040, Note_off_c, 9, 42, 0
2, 251040, Note_off_c, 9, 38, 0
2, 251040, Note_on_c, 9, 42, 95
2, 251520, Note_off_c, 9, 42, 0
2, 251520, Note_on_c, 9, 42, 95
2, 251520, Note_on_c, 9, 36, 95
2, 252000, Note_off_c, 9, 42, 0
2, 252000, Note_off_c, 9, 36, 0
2, 252000, Note_on_c, 9, 42, 95
2, 252000, Note_on_c, 9, 36, 95
2, 252480, Note_off_c, 9, 42, 0
2, 252480, Note_off_c, 9, 36, 0
2, 252480, Note_on_c, 9, 42, 95
2, 252480, Note_on_c, 9, 38, 95
2, 252960, Note_off_c, 9, 42, 0
2, 252960, Note_off_c, 9, 38, 0
2, 252960, Note_on_c, 9, 42, 95
2, 253440, Note_off_c, 9, 42, 0
2, 253440, Note_on_c, 9, 42, 95
2, 253440, Note_on_c, 9, 36, 95
2, 253920, Note_off_c, 9, 42, 0
2, 253920, Note_off_c, 9, 36, 0
2, 253920, Note_on_c, 9, 42, 95
2, 254400, Note_off_c, 9, 42, 0
2, 254400, Note_on_c, 9, 42, 95
2, 254400, Note_on_c, 9, 38, 95
2, 254880, Note_off_c, 9, 42, 0
2, 254880, Note_off_c, 9, 38, 0
2, 254880, Note_on_c, 9, 42, 95
2, 255360, Note_off_c, 9, 42, 0
2, 255360, Note_on_c, 9, 42, 95
2, 255360, Note_on_c, 9, 36, 95
2, 255840, Note_off_c, 9, 42, 0
2, 255840, Note_off_c, 9, 36, 0
2, 255840, Note_on_c, 9, 42, 95
2, 255840, Note_on_c, 9, 36, 95
2, 256320, Note_off_c, 9, 42, 0
2, 256320, Note_off_c, 9, 36, 0
2, 256320, Note_on_c, 9, 42, 95
2, 256320, Note_on_c, 9, 38, 95
2, 256800, Note_off_c, 9, 42, 0
2, 256800, Note_off_c, 9, 38, 0
2, 256800, Note_on_c, 9, 42, 95
2, 257280, Note_off_c, 9, 42, 0
2, 257280, Note_on_c, 9, 42, 95
2, 257280, Note_on_c, 9, 36, 95
2, 257760, Note_off_c, 9, 42, 0
2, 257760, Note_off_c, 9, 36, 0
2, 257760, Note_on_c, 9, 42, 95
2, 258240, Note_off_c, 9, 42, 0
2, 258240, Note_on_c, 9, 42, 95
2, 258240, Note_on_c, 9, 38, 95
2, 258720, Note_off_c, 9, 42, 0
2, 258720, Note_off_c, 9, 38, 0
2, 258720, Note_on_c, 9, 42, 95
2, 259200, Note_off_c, 9, 42, 0
2, 259200, Note_on_c, 9, 42, 95
2, 259200, Note_on_c, 9, 36, 95
2, 259680, Note_off_c, 9, 42, 0
2, 259680, Note_off_c, 9, 36, 0
2, 259680, Note_on_c, 9, 42, 95
2, 259680, Note_on_c, 9, 36, 95
2, 260160, Note_off_c, 9, 42, 0
2, 260160, Note_off_c, 9, 36, 0
2, 260160, Note_on_c, 9, 42, 95
2, 260160, Note_on_c, 9, 38, 95
2, 260640, Note_off_c, 9, 42, 0
2, 260640, Note_off_c, 9, 38, 0
2, 260640, Note_on_c, 9, 42, 95
2, 261120, Note_off_c, 9, 42, 0
2, 261120, Note_on_c, 9, 42, 95
2, 261120, Note_on_c, 9, 36, 95
2, 261600, Note_off_c, 9, 42, 0
2, 261600, Note_off_c, 9, 36, 0
2, 261600, Note_on_c, 9, 42, 95
2, 262080, Note_off_c, 9, 42, 0
2, 262080, Note_on_c, 9, 42, 95
2, 262080, Note_on_c, 9, 38, 95
2, 262560, Note_off_c, 9, 42, 0
2, 262560, Note_off_c, 9, 38, 0
2, 262560, Note_on_c, 9, 42, 95
2, 263040, Note_off_c, 9, 42, 0
2, 263040, Note_on_c, 9, 42, 95
2, 263040, Note_on_c, 9, 36, 95
2, 263520, Note_off_c, 9, 42, 0
2, 263520, Note_off_c, 9, 36, 0
2, 263520, Note_on_c, 9, 42, 95
2, 263520, Note_on_c, 9, 36, 95
2, 264000, Note_off_c, 9, 42, 0
2, 264000, Note_off_c, 9, 36, 0
2, 264000, Note_on_c, 9, 42, 95
2, 264000, Note_on_c, 9, 38, 95
2, 264480, Note_off_c, 9, 42, 0
2, 264480, Note_off_c, 9, 38, 0
2, 264480, Note_on_c, 9, 42, 95
2, 264960, Note_off_c, 9, 42, 0
2, 264960, Note_on_c, 9, 42, 95
2, 264960, Note_on_c, 9, 36, 95
2, 265440, Note_off_c, 9, 42, 0
2, 265440, Note_off_c, 9, 36, 0
2, 265440, Note_on_c, 9, 42, 95
2, 265920, Note_off_c, 9, 42, 0
2, 265920, Note_on_c, 9, 42, 95
2, 265920, Note_on_c, 9, 38, 95
2, 266400, Note_off_c, 9, 42, 0
2, 266400, Note_off_c, 9, 38, 0
2, 266400, Note_on_c, 9, 42, 95
2, 266880, Note_off_c, 9, 42, 0
2, 266880, Note_on_c, 9, 42, 95
2, 266880, Note_on_c, 9, 36, 95
2, 267360, Note_off_c, 9, 42, 0
2, 267360, Note_off_c, 9, 36, 0
2, 267360, Note_on_c, 9, 42, 95
2, 267360, Note_on_c, 9, 36, 95
2, 267840, Note_off_c, 9, 42, 0
2, 267840, Note_off_c, 9, 36, 0
2, 267840, Note_on_c, 9, 42, 95
2, 267840, Note_on_c, 9, 38, 95
2, 268320, Note_off_c, 9, 42, 0
2, 268320, Note_off_c, 9, 38, 0
2, 268320, Note_on_c, 9, 42, 95
2, 268800, Note_off_c, 9, 42, 0
2, 268800, Note_on_c, 9, 42, 95
2, 268800, Note_on_c, 9, 36, 95
2, 269280, Note_off_c, 9, 42, 0
2, 269280, Note_off_c, 9, 36, 0
2, 269280, Note_on_c, 9, 42, 95
2, 269760, Note_off_c, 9, 42, 0
2, 269760, Note_on_c, 9, 42, 95
2, 269760, Note_on_c, 9, 38, 95
2, 270240, Note_off_c, 9, 42, 0
2, 270240, Note_off_c, 9, 38, 0
2, 270240, Note_on_c, 9, 42, 95
2, 270720, Note_off_c, 9, 42, 0
2, 270720, Note_on_c, 9, 42, 95
2, 270720, Note_on_c, 9, 36, 95
2, 271200, Note_off_c, 9, 42, 0
2, 271200, Note_off_c, 9, 36, 0
2, 271200, Note_on_c, 9, 42, 95
2, 271200, Note_on_c, 9, 36, 95
2, 271680, Note_off_c, 9, 42, 0
2, 271680, Note_off_c, 9, 36, 0
2, 271680, Note_on_c, 9, 42, 95
2, 271680, Note_on_c, 9, 38, 95
2, 272160, Note_off_c, 9, 42, 0
2, 272160, Note_off_c, 9, 38, 0
2, 272160, Note_on_c, 9, 42, 95
2, 272640, Note_off_c, 9, 42, 0
2, 272640, Note_on_c, 9, 46, 95
2, 272640, Note_on_c, 9, 36, 95
2, 273120, Note_off_c, 9, 46, 0
2, 273120, Note_off_c, 9, 36, 0
2, 273120, Note_on_c, 9, 46, 95
2, 273120, Note_on_c, 9, 36, 95
2, 273600, Note_off_c, 9, 46, 0
2, 273600, Note_off_c, 9, 36, 0
2, 273600, Note_on_c, 9, 46, 95
2, 273600, Note_on_c, 9, 38, 95
2, 274080, Note_off_c, 9, 46, 0
2, 274080, Note_off_c, 9, 38, 0
2, 274080, Note_on_c, 9, 46, 95
2, 274560, Note_off_c, 9, 46, 0
2, 274560, Note_on_c, 9, 46, 95
2, 274560, Note_on_c, 9, 36, 95
2, 275040, Note_off_c, 9, 46, 0
2, 275040, Note_off_c, 9, 36, 0
2, 275040, Note_on_c, 9, 46, 95
2, 275280, Note_off_c, 9, 46, 0
2, 275280, Note_on_c, 9, 38, 95
2, 275760, Note_off_c, 9, 38, 0
2, 275760, Note_on_c, 9, 38, 95
2, 276000, Note_off_c, 9, 38, 0
2, 276000, Note_on_c, 9, 38, 95
2, 276480, Note_off_c, 9, 38, 0
2, 276480, Note_on_c, 9, 49, 95
2, 276480, Note_on_c, 9, 36, 95
2, 280320, Note_off_c, 9, 49, 0
2, 280320, Note_off_c, 9, 36, 0
2, 287040, Note_on_c, 9, 44, 95
2, 288000, Note_off_c, 9, 44, 0
2, 288960, Note_on_c, 9, 44, 95
2, 289920, Note_off_c, 9, 44, 0
2, 289920, Note_on_c, 9, 38, 95
2, 290160, Note_off_c, 9, 38, 0
2, 290160, Note_on_c, 9, 38, 95
2, 290400, Note_off_c, 9, 38, 0
2, 290400, Note_on_c, 9, 38, 95
2, 290880, Note_off_c, 9, 38, 0
2, 290880, Note_on_c, 9, 38, 95
2, 291120, Note_off_c, 9, 38, 0
2, 291120, Note_on_c, 9, 38, 95
2, 291360, Note_off_c, 9, 38, 0
2, 291360, Note_on_c, 9, 49, 95
2, 291840, Note_off_c, 9, 49, 0
2, 291840, Note_on_c, 9, 49, 95
2, 291840, Note_on_c, 9, 36, 95
2, 292320, Note_off_c, 9, 49, 0
2, 292320, Note_off_c, 9, 36, 0
2, 292320, Note_on_c, 9, 42, 95
2, 292320, Note_on_c, 9, 36, 95
2, 292800, Note_off_c, 9, 42, 0
2, 292800, Note_off_c, 9, 36, 0
2, 292800, Note_on_c, 9, 42, 95
2, 292800, Note_on_c, 9, 38, 95
2, 293280, Note_off_c, 9, 42, 0
2, 293280, Note_off_c, 9, 38, 0
2, 293280, Note_on_c, 9, 42, 95
2, 293760, Note_off_c, 9, 42, 0
2, 293760, Note_on_c, 9, 42, 95
2, 294000, Note_on_c, 9, 38, 95
2, 294240, Note_off_c, 9, 42, 0
2, 294240, Note_off_c, 9, 38, 0
2, 294240, Note_on_c, 9, 42, 95
2, 294240, Note_on_c, 9, 36, 95
2, 294720, Note_off_c, 9, 42, 0
2, 294720, Note_off_c, 9, 36, 0
2, 294720, Note_on_c, 9, 42, 95
2, 294720, Note_on_c, 9, 38, 95
2, 295200, Note_off_c, 9, 42, 0
2, 295200, Note_off_c, 9, 38, 0
2, 295200, Note_on_c, 9, 42, 95
2, 295680, Note_off_c, 9, 42, 0
2, 295680, Note_on_c, 9, 42, 95
2, 295680, Note_on_c, 9, 36, 95
2, 296160, Note_off_c, 9, 42, 0
2, 296160, Note_off_c, 9, 36, 0
2, 296160, Note_on_c, 9, 42, 95
2, 296160, Note_on_c, 9, 36, 95
2, 296640, Note_off_c, 9, 42, 0
2, 296640, Note_off_c, 9, 36, 0
2, 296640, Note_on_c, 9, 42, 95
2, 296640, Note_on_c, 9, 38, 95
2, 297120, Note_off_c, 9, 42, 0
2, 297120, Note_off_c, 9, 38, 0
2, 297120, Note_on_c, 9, 42, 95
2, 297600, Note_off_c, 9, 42, 0
2, 297600, Note_on_c, 9, 42, 95
2, 298080, Note_off_c, 9, 42, 0
2, 298080, Note_on_c, 9, 42, 95
2, 298080, Note_on_c, 9, 36, 95
2, 298560, Note_off_c, 9, 42, 0
2, 298560, Note_off_c, 9, 36, 0
2, 298560, Note_on_c, 9, 42, 95
2, 298560, Note_on_c, 9, 38, 95
2, 299040, Note_off_c, 9, 42, 0
2, 299040, Note_off_c, 9, 38, 0
2, 299040, Note_on_c, 9, 42, 95
2, 299520, Note_off_c, 9, 42, 0
2, 299520, Note_on_c, 9, 42, 95
2, 299520, Note_on_c, 9, 36, 95
2, 300000, Note_off_c, 9, 42, 0
2, 300000, Note_off_c, 9, 36, 0
2, 300000, Note_on_c, 9, 42, 95
2, 300000, Note_on_c, 9, 36, 95
2, 300480, Note_off_c, 9, 42, 0
2, 300480, Note_off_c, 9, 36, 0
2, 300480, Note_on_c, 9, 42, 95
2, 300480, Note_on_c, 9, 38, 95
2, 300960, Note_off_c, 9, 42, 0
2, 300960, Note_off_c, 9, 38, 0
2, 300960, Note_on_c, 9, 42, 95
2, 301440, Note_off_c, 9, 42, 0
2, 301440, Note_on_c, 9, 42, 95
2, 301680, Note_on_c, 9, 38, 95
2, 301920, Note_off_c, 9, 42, 0
2, 301920, Note_off_c, 9, 38, 0
2, 301920, Note_on_c, 9, 42, 95
2, 301920, Note_on_c, 9, 36, 95
2, 302400, Note_off_c, 9, 42, 0
2, 302400, Note_off_c, 9, 36, 0
2, 302400, Note_on_c, 9, 42, 95
2, 302400, Note_on_c, 9, 38, 95
2, 302880, Note_off_c, 9, 42, 0
2, 302880, Note_off_c, 9, 38, 0
2, 302880, Note_on_c, 9, 42, 95
2, 303360, Note_off_c, 9, 42, 0
2, 303360, Note_on_c, 9, 42, 95
2, 303360, Note_on_c, 9, 36, 95
2, 303840, Note_off_c, 9, 42, 0
2, 303840, Note_off_c, 9, 36, 0
2, 303840, Note_on_c, 9, 42, 95
2, 303840, Note_on_c, 9, 36, 95
2, 304320, Note_off_c, 9, 42, 0
2, 304320, Note_off_c, 9, 36, 0
2, 304320, Note_on_c, 9, 42, 95
2, 304320, Note_on_c, 9, 38, 95
2, 304800, Note_off_c, 9, 42, 0
2, 304800, Note_off_c, 9, 38, 0
2, 304800, Note_on_c, 9, 42, 95
2, 305280, Note_off_c, 9, 42, 0
2, 305280, Note_on_c, 9, 42, 95
2, 305760, Note_off_c, 9, 42, 0
2, 305760, Note_on_c, 9, 42, 95
2, 305760, Note_on_c, 9, 36, 95
2, 306240, Note_off_c, 9, 42, 0
2, 306240, Note_off_c, 9, 36, 0
2, 306240, Note_on_c, 9, 42, 95
2, 306240, Note_on_c, 9, 38, 95
2, 306720, Note_off_c, 9, 42, 0
2, 306720, Note_off_c, 9, 38, 0
2, 306720, Note_on_c, 9, 46, 95
2, 306720, Note_on_c, 9, 36, 95
2, 306960, Note_off_c, 9, 46, 0
2, 307200, Note_off_c, 9, 36, 0
2, 307200, Note_on_c, 9, 42, 95
2, 307200, Note_on_c, 9, 38, 95
2, 307440, Note_off_c, 9, 42, 0
2, 307440, Note_off_c, 9, 38, 0
2, 307440, Note_on_c, 9, 42, 95
2, 307440, Note_on_c, 9, 38, 95
2, 307680, Note_off_c, 9, 42, 0
2, 307680, Note_off_c, 9, 38, 0
2, 307680, Note_on_c, 9, 42, 95
2, 307680, Note_on_c, 9, 36, 95
2, 308160, Note_off_c, 9, 42, 0
2, 308160, Note_off_c, 9, 36, 0
2, 308160, Note_on_c, 9, 42, 95
2, 308160, Note_on_c, 9, 38, 95
2, 308640, Note_off_c, 9, 42, 0
2, 308640, Note_off_c, 9, 38, 0
2, 308640, Note_on_c, 9, 42, 95
2, 309120, Note_off_c, 9, 42, 0
2, 309120, Note_on_c, 9, 42, 95
2, 309600, Note_off_c, 9, 42, 0
2, 309600, Note_on_c, 9, 42, 95
2, 309600, Note_on_c, 9, 36, 95
2, 310080, Note_off_c, 9, 42, 0
2, 310080, Note_off_c, 9, 36, 0
2, 310080, Note_on_c, 9, 42, 95
2, 310080, Note_on_c, 9, 38, 95
2, 310560, Note_off_c, 9, 42, 0
2, 310560, Note_off_c, 9, 38, 0
2, 310560, Note_on_c, 9, 42, 95
2, 311040, Note_off_c, 9, 42, 0
2, 311040, Note_on_c, 9, 42, 95
2, 311040, Note_on_c, 9, 36, 95
2, 311520, Note_off_c, 9, 42, 0
2, 311520, Note_off_c, 9, 36, 0
2, 311520, Note_on_c, 9, 42, 95
2, 311520, Note_on_c, 9, 36, 95
2, 312000, Note_off_c, 9, 42, 0
2, 312000, Note_off_c, 9, 36, 0
2, 312000, Note_on_c, 9, 42, 95
2, 312000, Note_on_c, 9, 38, 95
2, 312480, Note_off_c, 9, 42, 0
2, 312480, Note_off_c, 9, 38, 0
2, 312480, Note_on_c, 9, 42, 95
2, 312960, Note_off_c, 9, 42, 0
2, 312960, Note_on_c, 9, 42, 95
2, 313200, Note_on_c, 9, 38, 95
2, 313440, Note_off_c, 9, 42, 0
2, 313440, Note_off_c, 9, 38, 0
2, 313440, Note_on_c, 9, 42, 95
2, 313440, Note_on_c, 9, 36, 95
2, 313920, Note_off_c, 9, 42, 0
2, 313920, Note_off_c, 9, 36, 0
2, 313920, Note_on_c, 9, 42, 95
2, 313920, Note_on_c, 9, 38, 95
2, 314400, Note_off_c, 9, 42, 0
2, 314400, Note_off_c, 9, 38, 0
2, 314400, Note_on_c, 9, 42, 95
2, 314880, Note_off_c, 9, 42, 0
2, 314880, Note_on_c, 9, 42, 95
2, 314880, Note_on_c, 9, 36, 95
2, 315360, Note_off_c, 9, 42, 0
2, 315360, Note_off_c, 9, 36, 0
2, 315360, Note_on_c, 9, 42, 95
2, 315360, Note_on_c, 9, 36, 95
2, 315840, Note_off_c, 9, 42, 0
2, 315840, Note_off_c, 9, 36, 0
2, 315840, Note_on_c, 9, 42, 95
2, 315840, Note_on_c, 9, 38, 95
2, 316320, Note_off_c, 9, 42, 0
2, 316320, Note_off_c, 9, 38, 0
2, 316320, Note_on_c, 9, 42, 95
2, 316800, Note_off_c, 9, 42, 0
2, 316800, Note_on_c, 9, 42, 95
2, 317280, Note_off_c, 9, 42, 0
2, 317280, Note_on_c, 9, 42, 95
2, 317280, Note_on_c, 9, 36, 95
2, 317760, Note_off_c, 9, 42, 0
2, 317760, Note_off_c, 9, 36, 0
2, 317760, Note_on_c, 9, 42, 95
2, 317760, Note_on_c, 9, 38, 95
2, 318240, Note_off_c, 9, 42, 0
2, 318240, Note_off_c, 9, 38, 0
2, 318240, Note_on_c, 9, 42, 95
2, 318720, Note_off_c, 9, 42, 0
2, 318720, Note_on_c, 9, 42, 95
2, 318720, Note_on_c, 9, 36, 95
2, 319200, Note_off_c, 9, 42, 0
2, 319200, Note_off_c, 9, 36, 0
2, 319200, Note_on_c, 9, 42, 95
2, 319200, Note_on_c, 9, 36, 95
2, 319680, Note_off_c, 9, 42, 0
2, 319680, Note_off_c, 9, 36, 0
2, 319680, Note_on_c, 9, 42, 95
2, 319680, Note_on_c, 9, 38, 95
2, 320160, Note_off_c, 9, 42, 0
2, 320160, Note_off_c, 9, 38, 0
2, 320160, Note_on_c, 9, 42, 95
2, 320640, Note_off_c, 9, 42, 0
2, 320640, Note_on_c, 9, 42, 95
2, 320640, Note_on_c, 9, 36, 95
2, 321120, Note_off_c, 9, 42, 0
2, 321120, Note_off_c, 9, 36, 0
2, 321120, Note_on_c, 9, 38, 95
2, 321360, Note_off_c, 9, 38, 0
2, 321360, Note_on_c, 9, 38, 95
2, 321840, Note_off_c, 9, 38, 0
2, 321840, Note_on_c, 9, 38, 95
2, 322080, Note_off_c, 9, 38, 0
2, 322080, Note_on_c, 9, 46, 95
2, 322080, Note_on_c, 9, 36, 95
2, 322560, Note_off_c, 9, 46, 0
2, 322560, Note_off_c, 9, 36, 0
2, 322560, Note_on_c, 9, 49, 95
2, 322560, Note_on_c, 9, 36, 95
2, 323040, Note_off_c, 9, 49, 0
2, 323040, Note_off_c, 9, 36, 0
2, 323040, Note_on_c, 9, 42, 95
2, 323040, Note_on_c, 9, 36, 95
2, 323520, Note_off_c, 9, 42, 0
2, 323520, Note_off_c, 9, 36, 0
2, 323520, Note_on_c, 9, 42, 95
2, 323520, Note_on_c, 9, 38, 95
2, 324000, Note_off_c, 9, 42, 0
2, 324000, Note_off_c, 9, 38, 0
2, 324000, Note_on_c, 9, 42, 95
2, 324480, Note_off_c, 9, 42, 0
2, 324480, Note_on_c, 9, 42, 95
2, 324720, Note_on_c, 9, 38, 95
2, 324960, Note_off_c, 9, 42, 0
2, 324960, Note_off_c, 9, 38, 0
2, 324960, Note_on_c, 9, 42, 95
2, 324960, Note_on_c, 9, 36, 95
2, 325440, Note_off_c, 9, 42, 0
2, 325440, Note_off_c, 9, 36, 0
2, 325440, Note_on_c, 9, 42, 95
2, 325440, Note_on_c, 9, 38, 95
2, 325920, Note_off_c, 9, 42, 0
2, 325920, Note_off_c, 9, 38, 0
2, 325920, Note_on_c, 9, 42, 95
2, 326400, Note_off_c, 9, 42, 0
2, 326400, Note_on_c, 9, 42, 95
2, 326400, Note_on_c, 9, 36, 95
2, 326880, Note_off_c, 9, 42, 0
2, 326880, Note_off_c, 9, 36, 0
2, 326880, Note_on_c, 9, 42, 95
2, 326880, Note_on_c, 9, 36, 95
2, 327360, Note_off_c, 9, 42, 0
2, 327360, Note_off_c, 9, 36, 0
2, 327360, Note_on_c, 9, 42, 95
2, 327360, Note_on_c, 9, 38, 95
2, 327840, Note_off_c, 9, 42, 0
2, 327840, Note_off_c, 9, 38, 0
2, 327840, Note_on_c, 9, 42, 95
2, 328320, Note_off_c, 9, 42, 0
2, 328320, Note_on_c, 9, 42, 95
2, 328800, Note_off_c, 9, 42, 0
2, 328800, Note_on_c, 9, 42, 95
2, 328800, Note_on_c, 9, 36, 95
2, 329280, Note_off_c, 9, 42, 0
2, 329280, Note_off_c, 9, 36, 0
2, 329280, Note_on_c, 9, 42, 95
2, 329280, Note_on_c, 9, 38, 95
2, 329760, Note_off_c, 9, 42, 0
2, 329760, Note_off_c, 9, 38, 0
2, 329760, Note_on_c, 9, 42, 95
2, 330240, Note_off_c, 9, 42, 0
2, 330240, Note_on_c, 9, 42, 95
2, 330240, Note_on_c, 9, 36, 95
2, 330720, Note_off_c, 9, 42, 0
2, 330720, Note_off_c, 9, 36, 0
2, 330720, Note_on_c, 9, 42, 95
2, 330720, Note_on_c, 9, 36, 95
2, 331200, Note_off_c, 9, 42, 0
2, 331200, Note_off_c, 9, 36, 0
2, 331200, Note_on_c, 9, 42, 95
2, 331200, Note_on_c, 9, 38, 95
2, 331680, Note_off_c, 9, 42, 0
2, 331680, Note_off_c, 9, 38, 0
2, 331680, Note_on_c, 9, 42, 95
2, 332160, Note_off_c, 9, 42, 0
2, 332160, Note_on_c, 9, 42, 95
2, 332400, Note_on_c, 9, 38, 95
2, 332640, Note_off_c, 9, 42, 0
2, 332640, Note_off_c, 9, 38, 0
2, 332640, Note_on_c, 9, 42, 95
2, 332640, Note_on_c, 9, 36, 95
2, 333120, Note_off_c, 9, 42, 0
2, 333120, Note_off_c, 9, 36, 0
2, 333120, Note_on_c, 9, 42, 95
2, 333120, Note_on_c, 9, 38, 95
2, 333600, Note_off_c, 9, 42, 0
2, 333600, Note_off_c, 9, 38, 0
2, 333600, Note_on_c, 9, 42, 95
2, 334080, Note_off_c, 9, 42, 0
2, 334080, Note_on_c, 9, 42, 95
2, 334080, Note_on_c, 9, 36, 95
2, 334560, Note_off_c, 9, 42, 0
2, 334560, Note_off_c, 9, 36, 0
2, 334560, Note_on_c, 9, 42, 95
2, 334560, Note_on_c, 9, 36, 95
2, 335040, Note_off_c, 9, 42, 0
2, 335040, Note_off_c, 9, 36, 0
2, 335040, Note_on_c, 9, 42, 95
2, 335040, Note_on_c, 9, 38, 95
2, 335520, Note_off_c, 9, 42, 0
2, 335520, Note_off_c, 9, 38, 0
2, 335520, Note_on_c, 9, 42, 95
2, 336000, Note_off_c, 9, 42, 0
2, 336000, Note_on_c, 9, 42, 95
2, 336480, Note_off_c, 9, 42, 0
2, 336480, Note_on_c, 9, 42, 95
2, 336480, Note_on_c, 9, 36, 95
2, 336960, Note_off_c, 9, 42, 0
2, 336960, Note_off_c, 9, 36, 0
2, 336960, Note_on_c, 9, 42, 95
2, 336960, Note_on_c, 9, 38, 95
2, 337440, Note_off_c, 9, 42, 0
2, 337440, Note_off_c, 9, 38, 0
2, 337440, Note_on_c, 9, 46, 95
2, 337440, Note_on_c, 9, 36, 95
2, 337680, Note_off_c, 9, 46, 0
2, 337920, Note_off_c, 9, 36, 0
2, 337920, End_track
3, 0, Start_track
3, 0, MIDI_port, 1
3, 0, Title_t, "Flea - Bass"
3, 0, Program_c, 2, 36
3, 0, Note_on_c, 2, 28, 95
3, 240, Note_off_c, 2, 28, 0
3, 240, Note_on_c, 2, 28, 95
3, 480, Note_off_c, 2, 28, 0
3, 480, Note_on_c, 2, 28, 95
3, 720, Note_off_c, 2, 28, 0
3, 720, Note_on_c, 2, 28, 95
3, 960, Note_off_c, 2, 28, 0
3, 960, Note_on_c, 2, 28, 95
3, 1200, Note_off_c, 2, 28, 0
3, 1200, Note_on_c, 2, 28, 95
3, 1440, Note_off_c, 2, 28, 0
3, 1440, Note_on_c, 2, 28, 95
3, 1680, Note_off_c, 2, 28, 0
3, 1680, Note_on_c, 2, 28, 95
3, 1920, Note_off_c, 2, 28, 0
3, 1920, Note_on_c, 2, 28, 95
3, 2160, Note_off_c, 2, 28, 0
3, 2160, Note_on_c, 2, 28, 95
3, 2400, Note_off_c, 2, 28, 0
3, 2400, Note_on_c, 2, 28, 95
3, 2640, Note_off_c, 2, 28, 0
3, 2640, Note_on_c, 2, 28, 95
3, 2880, Note_off_c, 2, 28, 0
3, 2880, Note_on_c, 2, 28, 95
3, 3120, Note_off_c, 2, 28, 0
3, 3120, Note_on_c, 2, 28, 95
3, 3360, Note_off_c, 2, 28, 0
3, 3360, Note_on_c, 2, 28, 95
3, 3600, Note_off_c, 2, 28, 0
3, 3600, Note_on_c, 2, 28, 95
3, 3840, Note_off_c, 2, 28, 0
3, 3840, Note_on_c, 2, 28, 95
3, 4080, Note_off_c, 2, 28, 0
3, 4080, Note_on_c, 2, 28, 95
3, 4320, Note_off_c, 2, 28, 0
3, 4320, Note_on_c, 2, 28, 95
3, 4560, Note_off_c, 2, 28, 0
3, 4560, Note_on_c, 2, 28, 95
3, 4800, Note_off_c, 2, 28, 0
3, 4800, Note_on_c, 2, 28, 95
3, 5040, Note_off_c, 2, 28, 0
3, 5040, Note_on_c, 2, 28, 95
3, 5280, Note_off_c, 2, 28, 0
3, 5280, Note_on_c, 2, 28, 95
3, 5520, Note_off_c, 2, 28, 0
3, 5520, Note_on_c, 2, 28, 95
3, 5760, Note_off_c, 2, 28, 0
3, 5760, Note_on_c, 2, 28, 95
3, 6000, Note_off_c, 2, 28, 0
3, 6000, Note_on_c, 2, 28, 95
3, 6240, Note_off_c, 2, 28, 0
3, 6240, Note_on_c, 2, 28, 95
3, 6480, Note_off_c, 2, 28, 0
3, 6480, Note_on_c, 2, 28, 95
3, 6720, Note_off_c, 2, 28, 0
3, 6720, Note_on_c, 2, 28, 95
3, 6960, Note_off_c, 2, 28, 0
3, 6960, Note_on_c, 2, 28, 95
3, 7200, Note_off_c, 2, 28, 0
3, 7200, Note_on_c, 2, 28, 95
3, 7440, Note_off_c, 2, 28, 0
3, 7440, Note_on_c, 2, 28, 95
3, 7680, Note_off_c, 2, 28, 0
3, 7680, Note_on_c, 2, 28, 95
3, 7920, Note_off_c, 2, 28, 0
3, 7920, Note_on_c, 2, 28, 95
3, 8160, Note_off_c, 2, 28, 0
3, 8160, Note_on_c, 2, 28, 95
3, 8400, Note_off_c, 2, 28, 0
3, 8400, Note_on_c, 2, 28, 95
3, 8640, Note_off_c, 2, 28, 0
3, 8640, Note_on_c, 2, 28, 95
3, 8880, Note_off_c, 2, 28, 0
3, 8880, Note_on_c, 2, 28, 95
3, 9120, Note_off_c, 2, 28, 0
3, 9120, Note_on_c, 2, 28, 95
3, 9360, Note_off_c, 2, 28, 0
3, 9360, Note_on_c, 2, 28, 95
3, 9600, Note_off_c, 2, 28, 0
3, 9600, Note_on_c, 2, 28, 95
3, 9840, Note_off_c, 2, 28, 0
3, 9840, Note_on_c, 2, 28, 95
3, 10080, Note_off_c, 2, 28, 0
3, 10080, Note_on_c, 2, 28, 95
3, 10320, Note_off_c, 2, 28, 0
3, 10320, Note_on_c, 2, 28, 95
3, 10560, Note_off_c, 2, 28, 0
3, 10560, Note_on_c, 2, 28, 95
3, 10800, Note_off_c, 2, 28, 0
3, 10800, Note_on_c, 2, 28, 95
3, 11040, Note_off_c, 2, 28, 0
3, 11040, Note_on_c, 2, 28, 95
3, 11280, Note_off_c, 2, 28, 0
3, 11280, Note_on_c, 2, 28, 95
3, 11520, Note_off_c, 2, 28, 0
3, 11520, Note_on_c, 2, 28, 95
3, 11760, Note_off_c, 2, 28, 0
3, 11760, Note_on_c, 2, 28, 95
3, 12000, Note_off_c, 2, 28, 0
3, 12000, Note_on_c, 2, 28, 95
3, 12240, Note_off_c, 2, 28, 0
3, 12240, Note_on_c, 2, 28, 95
3, 12480, Note_off_c, 2, 28, 0
3, 12480, Note_on_c, 2, 28, 95
3, 12720, Note_off_c, 2, 28, 0
3, 12720, Note_on_c, 2, 28, 95
3, 12960, Note_off_c, 2, 28, 0
3, 12960, Note_on_c, 2, 28, 95
3, 13200, Note_off_c, 2, 28, 0
3, 13200, Note_on_c, 2, 28, 95
3, 13440, Note_off_c, 2, 28, 0
3, 13440, Note_on_c, 2, 28, 95
3, 13680, Note_off_c, 2, 28, 0
3, 13680, Note_on_c, 2, 28, 95
3, 13920, Note_off_c, 2, 28, 0
3, 13920, Note_on_c, 2, 28, 95
3, 14160, Note_off_c, 2, 28, 0
3, 14160, Note_on_c, 2, 28, 95
3, 14400, Note_off_c, 2, 28, 0
3, 14400, Note_on_c, 2, 28, 95
3, 14640, Note_off_c, 2, 28, 0
3, 14640, Note_on_c, 2, 28, 95
3, 14880, Note_off_c, 2, 28, 0
3, 14880, Note_on_c, 2, 28, 95
3, 15120, Note_off_c, 2, 28, 0
3, 15120, Note_on_c, 2, 28, 95
3, 15360, Note_off_c, 2, 28, 0
3, 15360, Note_on_c, 2, 28, 95
3, 15600, Note_off_c, 2, 28, 0
3, 15600, Note_on_c, 2, 28, 95
3, 15840, Note_off_c, 2, 28, 0
3, 15840, Note_on_c, 2, 28, 95
3, 16080, Note_off_c, 2, 28, 0
3, 16080, Note_on_c, 2, 28, 95
3, 16320, Note_off_c, 2, 28, 0
3, 16320, Note_on_c, 2, 28, 95
3, 16560, Note_off_c, 2, 28, 0
3, 16560, Note_on_c, 2, 28, 95
3, 16800, Note_off_c, 2, 28, 0
3, 16800, Note_on_c, 2, 28, 95
3, 17040, Note_off_c, 2, 28, 0
3, 17040, Note_on_c, 2, 28, 95
3, 17280, Note_off_c, 2, 28, 0
3, 17280, Note_on_c, 2, 28, 95
3, 17520, Note_off_c, 2, 28, 0
3, 17520, Note_on_c, 2, 28, 95
3, 17760, Note_off_c, 2, 28, 0
3, 17760, Note_on_c, 2, 28, 95
3, 18000, Note_off_c, 2, 28, 0
3, 18000, Note_on_c, 2, 28, 95
3, 18240, Note_off_c, 2, 28, 0
3, 18240, Note_on_c, 2, 28, 95
3, 18480, Note_off_c, 2, 28, 0
3, 18480, Note_on_c, 2, 28, 95
3, 18720, Note_off_c, 2, 28, 0
3, 18720, Note_on_c, 2, 28, 95
3, 18960, Note_off_c, 2, 28, 0
3, 18960, Note_on_c, 2, 28, 95
3, 19200, Note_off_c, 2, 28, 0
3, 19200, Note_on_c, 2, 28, 95
3, 19440, Note_off_c, 2, 28, 0
3, 19440, Note_on_c, 2, 28, 95
3, 19680, Note_off_c, 2, 28, 0
3, 19680, Note_on_c, 2, 28, 95
3, 19920, Note_off_c, 2, 28, 0
3, 19920, Note_on_c, 2, 28, 95
3, 20160, Note_off_c, 2, 28, 0
3, 20160, Note_on_c, 2, 28, 95
3, 20400, Note_off_c, 2, 28, 0
3, 20400, Note_on_c, 2, 28, 95
3, 20640, Note_off_c, 2, 28, 0
3, 20640, Note_on_c, 2, 28, 95
3, 20880, Note_off_c, 2, 28, 0
3, 20880, Note_on_c, 2, 28, 95
3, 21120, Note_off_c, 2, 28, 0
3, 21120, Note_on_c, 2, 28, 95
3, 21360, Note_off_c, 2, 28, 0
3, 21360, Note_on_c, 2, 28, 95
3, 21600, Note_off_c, 2, 28, 0
3, 21600, Note_on_c, 2, 28, 95
3, 21840, Note_off_c, 2, 28, 0
3, 21840, Note_on_c, 2, 28, 95
3, 22080, Note_off_c, 2, 28, 0
3, 22080, Note_on_c, 2, 28, 95
3, 22320, Note_off_c, 2, 28, 0
3, 22320, Note_on_c, 2, 28, 95
3, 22560, Note_off_c, 2, 28, 0
3, 22560, Note_on_c, 2, 28, 95
3, 22800, Note_off_c, 2, 28, 0
3, 22800, Note_on_c, 2, 28, 95
3, 23040, Note_off_c, 2, 28, 0
3, 23040, Note_on_c, 2, 28, 95
3, 23280, Note_off_c, 2, 28, 0
3, 23280, Note_on_c, 2, 28, 95
3, 23520, Note_off_c, 2, 28, 0
3, 23520, Note_on_c, 2, 28, 95
3, 23760, Note_off_c, 2, 28, 0
3, 23760, Note_on_c, 2, 28, 95
3, 24000, Note_off_c, 2, 28, 0
3, 24000, Note_on_c, 2, 28, 95
3, 24240, Note_off_c, 2, 28, 0
3, 24240, Note_on_c, 2, 28, 95
3, 24480, Note_off_c, 2, 28, 0
3, 24480, Note_on_c, 2, 28, 95
3, 24720, Note_off_c, 2, 28, 0
3, 24720, Note_on_c, 2, 28, 95
3, 24960, Note_off_c, 2, 28, 0
3, 24960, Note_on_c, 2, 28, 95
3, 25200, Note_off_c, 2, 28, 0
3, 25200, Note_on_c, 2, 28, 95
3, 25440, Note_off_c, 2, 28, 0
3, 25440, Note_on_c, 2, 28, 95
3, 25680, Note_off_c, 2, 28, 0
3, 25680, Note_on_c, 2, 28, 95
3, 25920, Note_off_c, 2, 28, 0
3, 25920, Note_on_c, 2, 28, 95
3, 26160, Note_off_c, 2, 28, 0
3, 26160, Note_on_c, 2, 28, 95
3, 26400, Note_off_c, 2, 28, 0
3, 26400, Note_on_c, 2, 28, 95
3, 26640, Note_off_c, 2, 28, 0
3, 26640, Note_on_c, 2, 28, 95
3, 26880, Note_off_c, 2, 28, 0
3, 26880, Note_on_c, 2, 28, 95
3, 27120, Note_off_c, 2, 28, 0
3, 27120, Note_on_c, 2, 28, 95
3, 27360, Note_off_c, 2, 28, 0
3, 27360, Note_on_c, 2, 28, 95
3, 27600, Note_off_c, 2, 28, 0
3, 27600, Note_on_c, 2, 28, 95
3, 27840, Note_off_c, 2, 28, 0
3, 27840, Note_on_c, 2, 28, 95
3, 28080, Note_off_c, 2, 28, 0
3, 28080, Note_on_c, 2, 28, 95
3, 28320, Note_off_c, 2, 28, 0
3, 28320, Note_on_c, 2, 28, 95
3, 28560, Note_off_c, 2, 28, 0
3, 28560, Note_on_c, 2, 28, 95
3, 28800, Note_off_c, 2, 28, 0
3, 28800, Note_on_c, 2, 28, 95
3, 29040, Note_off_c, 2, 28, 0
3, 29040, Note_on_c, 2, 28, 95
3, 29280, Note_off_c, 2, 28, 0
3, 29280, Note_on_c, 2, 28, 95
3, 29520, Note_off_c, 2, 28, 0
3, 29520, Note_on_c, 2, 28, 95
3, 29760, Note_off_c, 2, 28, 0
3, 29760, Note_on_c, 2, 28, 95
3, 30000, Note_off_c, 2, 28, 0
3, 30000, Note_on_c, 2, 28, 95
3, 30240, Note_off_c, 2, 28, 0
3, 30240, Note_on_c, 2, 28, 95
3, 30480, Note_off_c, 2, 28, 0
3, 30480, Note_on_c, 2, 28, 95
3, 30720, Note_off_c, 2, 28, 0
3, 30720, Note_on_c, 2, 28, 95
3, 30960, Note_off_c, 2, 28, 0
3, 61440, Note_on_c, 2, 40, 95
3, 61920, Note_off_c, 2, 40, 0
3, 61920, Note_on_c, 2, 50, 95
3, 62160, Note_off_c, 2, 50, 0
3, 62400, Note_on_c, 2, 52, 95
3, 62640, Note_off_c, 2, 52, 0
3, 62880, Note_on_c, 2, 40, 95
3, 63120, Note_off_c, 2, 40, 0
3, 63120, Note_on_c, 2, 50, 95
3, 63360, Note_off_c, 2, 50, 0
3, 63360, Note_on_c, 2, 40, 95
3, 63600, Note_off_c, 2, 40, 0
3, 63600, Note_on_c, 2, 50, 95
3, 63840, Note_off_c, 2, 50, 0
3, 64080, Note_on_c, 2, 52, 95
3, 64320, Note_off_c, 2, 52, 0
3, 64560, Note_on_c, 2, 40, 95
3, 64800, Note_off_c, 2, 40, 0
3, 64800, Note_on_c, 2, 40, 95
3, 65040, Note_off_c, 2, 40, 0
3, 65040, Note_on_c, 2, 40, 95
3, 65280, Note_off_c, 2, 40, 0
3, 65280, Note_on_c, 2, 38, 95
3, 65520, Note_off_c, 2, 38, 0
3, 65760, Note_on_c, 2, 50, 95
3, 66000, Note_off_c, 2, 50, 0
3, 66240, Note_on_c, 2, 52, 95
3, 66480, Note_off_c, 2, 52, 0
3, 66720, Note_on_c, 2, 38, 95
3, 66960, Note_off_c, 2, 38, 0
3, 66960, Note_on_c, 2, 50, 95
3, 67200, Note_off_c, 2, 50, 0
3, 67200, Note_on_c, 2, 38, 95
3, 67440, Note_off_c, 2, 38, 0
3, 67440, Note_on_c, 2, 50, 95
3, 67680, Note_off_c, 2, 50, 0
3, 67920, Note_on_c, 2, 52, 95
3, 68160, Note_off_c, 2, 52, 0
3, 68400, Note_on_c, 2, 38, 95
3, 68640, Note_off_c, 2, 38, 0
3, 68640, Note_on_c, 2, 38, 95
3, 68880, Note_off_c, 2, 38, 0
3, 68880, Note_on_c, 2, 38, 95
3, 69120, Note_off_c, 2, 38, 0
3, 69120, Note_on_c, 2, 35, 95
3, 69360, Note_off_c, 2, 35, 0
3, 69600, Note_on_c, 2, 50, 95
3, 69840, Note_off_c, 2, 50, 0
3, 70080, Note_on_c, 2, 35, 95
3, 70320, Note_off_c, 2, 35, 0
3, 70560, Note_on_c, 2, 35, 95
3, 70800, Note_off_c, 2, 35, 0
3, 71040, Note_on_c, 2, 35, 95
3, 71280, Note_off_c, 2, 35, 0
3, 71280, Note_on_c, 2, 50, 95
3, 71520, Note_off_c, 2, 50, 0
3, 71760, Note_on_c, 2, 35, 95
3, 72000, Note_off_c, 2, 35, 0
3, 72240, Note_on_c, 2, 35, 95
3, 72720, Note_off_c, 2, 35, 0
3, 72720, Note_on_c, 2, 35, 95
3, 72960, Note_off_c, 2, 35, 0
3, 72960, Note_on_c, 2, 36, 95
3, 73440, Note_off_c, 2, 36, 0
3, 73440, Note_on_c, 2, 50, 95
3, 73680, Note_off_c, 2, 50, 0
3, 73920, Note_on_c, 2, 52, 95
3, 74160, Note_off_c, 2, 52, 0
3, 74400, Note_on_c, 2, 36, 95
3, 74640, Note_off_c, 2, 36, 0
3, 74640, Note_on_c, 2, 50, 95
3, 74880, Note_off_c, 2, 50, 0
3, 74880, Note_on_c, 2, 36, 95
3, 75120, Note_off_c, 2, 36, 0
3, 75120, Note_on_c, 2, 50, 95
3, 75360, Note_off_c, 2, 50, 0
3, 75600, Note_on_c, 2, 52, 95
3, 75840, Note_off_c, 2, 52, 0
3, 76080, Note_on_c, 2, 36, 95
3, 76560, Note_off_c, 2, 36, 0
3, 76560, Note_on_c, 2, 36, 95
3, 76800, Note_off_c, 2, 36, 0
3, 76800, Note_on_c, 2, 40, 95
3, 77280, Note_off_c, 2, 40, 0
3, 77280, Note_on_c, 2, 50, 95
3, 77520, Note_off_c, 2, 50, 0
3, 77760, Note_on_c, 2, 52, 95
3, 78000, Note_off_c, 2, 52, 0
3, 78240, Note_on_c, 2, 40, 95
3, 78480, Note_off_c, 2, 40, 0
3, 78480, Note_on_c, 2, 50, 95
3, 78720, Note_off_c, 2, 50, 0
3, 78720, Note_on_c, 2, 40, 95
3, 78960, Note_off_c, 2, 40, 0
3, 78960, Note_on_c, 2, 50, 95
3, 79200, Note_off_c, 2, 50, 0
3, 79440, Note_on_c, 2, 52, 95
3, 79680, Note_off_c, 2, 52, 0
3, 79920, Note_on_c, 2, 40, 95
3, 80640, Note_off_c, 2, 40, 0
3, 80640, Note_on_c, 2, 38, 95
3, 81120, Note_off_c, 2, 38, 0
3, 81120, Note_on_c, 2, 50, 95
3, 81360, Note_off_c, 2, 50, 0
3, 81600, Note_on_c, 2, 52, 95
3, 81840, Note_off_c, 2, 52, 0
3, 82080, Note_on_c, 2, 38, 95
3, 82320, Note_off_c, 2, 38, 0
3, 82320, Note_on_c, 2, 50, 95
3, 82560, Note_off_c, 2, 50, 0
3, 82560, Note_on_c, 2, 38, 95
3, 82800, Note_off_c, 2, 38, 0
3, 82800, Note_on_c, 2, 50, 95
3, 83040, Note_off_c, 2, 50, 0
3, 83280, Note_on_c, 2, 52, 95
3, 83520, Note_off_c, 2, 52, 0
3, 83760, Note_on_c, 2, 38, 95
3, 84480, Note_off_c, 2, 38, 0
3, 84480, Note_on_c, 2, 35, 95
3, 84960, Note_off_c, 2, 35, 0
3, 84960, Note_on_c, 2, 50, 95
3, 85200, Note_off_c, 2, 50, 0
3, 85440, Note_on_c, 2, 35, 95
3, 85680, Note_off_c, 2, 35, 0
3, 85920, Note_on_c, 2, 35, 95
3, 86160, Note_off_c, 2, 35, 0
3, 86400, Note_on_c, 2, 35, 95
3, 86640, Note_off_c, 2, 35, 0
3, 86640, Note_on_c, 2, 50, 95
3, 86880, Note_off_c, 2, 50, 0
3, 87120, Note_on_c, 2, 35, 95
3, 87360, Note_off_c, 2, 35, 0
3, 87600, Note_on_c, 2, 35, 95
3, 88320, Note_off_c, 2, 35, 0
3, 88320, Note_on_c, 2, 36, 95
3, 88800, Note_off_c, 2, 36, 0
3, 88800, Note_on_c, 2, 50, 95
3, 89040, Note_off_c, 2, 50, 0
3, 89280, Note_on_c, 2, 52, 95
3, 89520, Note_off_c, 2, 52, 0
3, 89760, Note_on_c, 2, 36, 95
3, 90000, Note_off_c, 2, 36, 0
3, 90000, Note_on_c, 2, 50, 95
3, 90240, Note_off_c, 2, 50, 0
3, 90240, Note_on_c, 2, 36, 95
3, 90480, Note_off_c, 2, 36, 0
3, 90480, Note_on_c, 2, 50, 95
3, 90720, Note_off_c, 2, 50, 0
3, 90960, Note_on_c, 2, 52, 95
3, 91200, Note_off_c, 2, 52, 0
3, 91440, Note_on_c, 2, 36, 95
3, 91920, Note_off_c, 2, 36, 0
3, 91920, Note_on_c, 2, 36, 95
3, 92160, Note_off_c, 2, 36, 0
3, 92160, Note_on_c, 2, 31, 95
3, 92880, Note_off_c, 2, 31, 0
3, 92880, Note_on_c, 2, 31, 95
3, 93120, Note_off_c, 2, 31, 0
3, 93120, Note_on_c, 2, 33, 95
3, 93360, Note_off_c, 2, 33, 0
3, 93360, Note_on_c, 2, 35, 95
3, 93600, Note_off_c, 2, 35, 0
3, 93600, Note_on_c, 2, 38, 95
3, 95040, Note_off_c, 2, 38, 0
3, 95040, Note_on_c, 2, 45, 95
3, 95280, Note_off_c, 2, 45, 0
3, 95280, Note_on_c, 2, 38, 95
3, 95760, Note_off_c, 2, 38, 0
3, 95760, Note_on_c, 2, 45, 95
3, 96000, Note_off_c, 2, 45, 0
3, 96000, Note_on_c, 2, 35, 95
3, 96720, Note_off_c, 2, 35, 0
3, 96720, Note_on_c, 2, 47, 95
3, 96960, Note_off_c, 2, 47, 0
3, 96960, Note_on_c, 2, 35, 95
3, 97200, Note_off_c, 2, 35, 0
3, 97200, Note_on_c, 2, 47, 95
3, 97440, Note_off_c, 2, 47, 0
3, 97440, Note_on_c, 2, 36, 95
3, 98370, Note_on_c, 2, 36, 100
3, 98400, Note_off_c, 2, 36, 0
3, 98400, Note_off_c, 2, 36, 0
3, 98400, Note_on_c, 2, 38, 95
3, 99120, Note_off_c, 2, 38, 0
3, 99120, Note_on_c, 2, 36, 95
3, 99360, Note_off_c, 2, 36, 0
3, 99360, Note_on_c, 2, 35, 95
3, 99600, Note_off_c, 2, 35, 0
3, 99600, Note_on_c, 2, 33, 95
3, 99840, Note_off_c, 2, 33, 0
3, 99840, Note_on_c, 2, 31, 95
3, 100560, Note_off_c, 2, 31, 0
3, 100560, Note_on_c, 2, 31, 95
3, 100800, Note_off_c, 2, 31, 0
3, 100800, Note_on_c, 2, 33, 95
3, 101040, Note_off_c, 2, 33, 0
3, 101040, Note_on_c, 2, 35, 95
3, 101280, Note_off_c, 2, 35, 0
3, 101280, Note_on_c, 2, 38, 95
3, 102720, Note_off_c, 2, 38, 0
3, 102720, Note_on_c, 2, 45, 95
3, 102960, Note_off_c, 2, 45, 0
3, 102960, Note_on_c, 2, 38, 95
3, 103440, Note_off_c, 2, 38, 0
3, 103440, Note_on_c, 2, 45, 95
3, 103680, Note_off_c, 2, 45, 0
3, 103680, Note_on_c, 2, 35, 95
3, 104400, Note_off_c, 2, 35, 0
3, 104400, Note_on_c, 2, 47, 95
3, 104640, Note_off_c, 2, 47, 0
3, 104640, Note_on_c, 2, 35, 95
3, 104880, Note_off_c, 2, 35, 0
3, 104880, Note_on_c, 2, 47, 95
3, 105120, Note_off_c, 2, 47, 0
3, 105120, Note_on_c, 2, 36, 95
3, 106050, Note_on_c, 2, 36, 100
3, 106080, Note_off_c, 2, 36, 0
3, 106080, Note_off_c, 2, 36, 0
3, 106080, Note_on_c, 2, 38, 95
3, 106800, Note_off_c, 2, 38, 0
3, 106800, Note_on_c, 2, 36, 95
3, 107040, Note_off_c, 2, 36, 0
3, 107040, Note_on_c, 2, 35, 95
3, 107280, Note_off_c, 2, 35, 0
3, 107280, Note_on_c, 2, 33, 95
3, 107520, Note_off_c, 2, 33, 0
3, 107520, Note_on_c, 2, 31, 95
3, 108240, Note_off_c, 2, 31, 0
3, 108240, Note_on_c, 2, 31, 95
3, 108480, Note_off_c, 2, 31, 0
3, 108480, Note_on_c, 2, 33, 95
3, 108720, Note_off_c, 2, 33, 0
3, 108720, Note_on_c, 2, 35, 95
3, 108960, Note_off_c, 2, 35, 0
3, 108960, Note_on_c, 2, 38, 95
3, 110400, Note_off_c, 2, 38, 0
3, 110400, Note_on_c, 2, 45, 95
3, 110640, Note_off_c, 2, 45, 0
3, 110640, Note_on_c, 2, 38, 95
3, 111120, Note_off_c, 2, 38, 0
3, 111120, Note_on_c, 2, 45, 95
3, 111360, Note_off_c, 2, 45, 0
3, 111360, Note_on_c, 2, 35, 95
3, 112080, Note_off_c, 2, 35, 0
3, 112080, Note_on_c, 2, 47, 95
3, 112320, Note_off_c, 2, 47, 0
3, 112320, Note_on_c, 2, 35, 95
3, 112560, Note_off_c, 2, 35, 0
3, 112560, Note_on_c, 2, 47, 95
3, 112800, Note_off_c, 2, 47, 0
3, 112800, Note_on_c, 2, 36, 95
3, 113730, Note_on_c, 2, 36, 100
3, 113760, Note_off_c, 2, 36, 0
3, 113760, Note_off_c, 2, 36, 0
3, 113760, Note_on_c, 2, 38, 95
3, 114480, Note_off_c, 2, 38, 0
3, 114480, Note_on_c, 2, 36, 95
3, 114720, Note_off_c, 2, 36, 0
3, 114720, Note_on_c, 2, 35, 95
3, 114960, Note_off_c, 2, 35, 0
3, 114960, Note_on_c, 2, 33, 95
3, 115200, Note_off_c, 2, 33, 0
3, 115200, Note_on_c, 2, 31, 95
3, 115920, Note_off_c, 2, 31, 0
3, 115920, Note_on_c, 2, 31, 95
3, 116160, Note_off_c, 2, 31, 0
3, 116160, Note_on_c, 2, 33, 95
3, 116400, Note_off_c, 2, 33, 0
3, 116400, Note_on_c, 2, 35, 95
3, 116640, Note_off_c, 2, 35, 0
3, 116640, Note_on_c, 2, 38, 95
3, 118080, Note_off_c, 2, 38, 0
3, 118080, Note_on_c, 2, 45, 95
3, 118320, Note_off_c, 2, 45, 0
3, 118320, Note_on_c, 2, 38, 95
3, 118800, Note_off_c, 2, 38, 0
3, 118800, Note_on_c, 2, 45, 95
3, 119040, Note_off_c, 2, 45, 0
3, 119040, Note_on_c, 2, 35, 95
3, 119520, Note_off_c, 2, 35, 0
3, 120000, Note_on_c, 2, 36, 95
3, 122880, Note_off_c, 2, 36, 0
3, 122880, Note_on_c, 2, 40, 95
3, 123360, Note_off_c, 2, 40, 0
3, 123360, Note_on_c, 2, 50, 95
3, 123600, Note_off_c, 2, 50, 0
3, 123840, Note_on_c, 2, 52, 95
3, 124080, Note_off_c, 2, 52, 0
3, 124320, Note_on_c, 2, 40, 95
3, 124560, Note_off_c, 2, 40, 0
3, 124560, Note_on_c, 2, 50, 95
3, 124800, Note_off_c, 2, 50, 0
3, 124800, Note_on_c, 2, 40, 95
3, 125040, Note_off_c, 2, 40, 0
3, 125040, Note_on_c, 2, 50, 95
3, 125280, Note_off_c, 2, 50, 0
3, 125520, Note_on_c, 2, 52, 95
3, 125760, Note_off_c, 2, 52, 0
3, 126000, Note_on_c, 2, 40, 95
3, 126720, Note_off_c, 2, 40, 0
3, 126720, Note_on_c, 2, 38, 95
3, 127200, Note_off_c, 2, 38, 0
3, 127200, Note_on_c, 2, 50, 95
3, 127440, Note_off_c, 2, 50, 0
3, 127680, Note_on_c, 2, 52, 95
3, 127920, Note_off_c, 2, 52, 0
3, 128160, Note_on_c, 2, 38, 95
3, 128400, Note_off_c, 2, 38, 0
3, 128400, Note_on_c, 2, 50, 95
3, 128640, Note_off_c, 2, 50, 0
3, 128640, Note_on_c, 2, 38, 95
3, 128880, Note_off_c, 2, 38, 0
3, 128880, Note_on_c, 2, 50, 95
3, 129120, Note_off_c, 2, 50, 0
3, 129360, Note_on_c, 2, 52, 95
3, 129600, Note_off_c, 2, 52, 0
3, 129840, Note_on_c, 2, 38, 95
3, 130560, Note_off_c, 2, 38, 0
3, 130560, Note_on_c, 2, 35, 95
3, 131040, Note_off_c, 2, 35, 0
3, 131040, Note_on_c, 2, 50, 95
3, 131280, Note_off_c, 2, 50, 0
3, 131520, Note_on_c, 2, 35, 95
3, 131760, Note_off_c, 2, 35, 0
3, 132000, Note_on_c, 2, 35, 95
3, 132240, Note_off_c, 2, 35, 0
3, 132480, Note_on_c, 2, 35, 95
3, 132720, Note_off_c, 2, 35, 0
3, 132720, Note_on_c, 2, 50, 95
3, 132960, Note_off_c, 2, 50, 0
3, 133200, Note_on_c, 2, 35, 95
3, 133440, Note_off_c, 2, 35, 0
3, 133680, Note_on_c, 2, 35, 95
3, 134400, Note_off_c, 2, 35, 0
3, 134400, Note_on_c, 2, 36, 95
3, 134880, Note_off_c, 2, 36, 0
3, 134880, Note_on_c, 2, 50, 95
3, 135120, Note_off_c, 2, 50, 0
3, 135360, Note_on_c, 2, 52, 95
3, 135600, Note_off_c, 2, 52, 0
3, 135840, Note_on_c, 2, 36, 95
3, 136080, Note_off_c, 2, 36, 0
3, 136080, Note_on_c, 2, 50, 95
3, 136320, Note_off_c, 2, 50, 0
3, 136320, Note_on_c, 2, 36, 95
3, 136560, Note_off_c, 2, 36, 0
3, 136560, Note_on_c, 2, 50, 95
3, 136800, Note_off_c, 2, 50, 0
3, 137040, Note_on_c, 2, 52, 95
3, 137280, Note_off_c, 2, 52, 0
3, 137520, Note_on_c, 2, 36, 95
3, 138000, Note_off_c, 2, 36, 0
3, 138000, Note_on_c, 2, 36, 95
3, 138240, Note_off_c, 2, 36, 0
3, 138240, Note_on_c, 2, 40, 95
3, 138720, Note_off_c, 2, 40, 0
3, 138720, Note_on_c, 2, 50, 95
3, 138960, Note_off_c, 2, 50, 0
3, 139200, Note_on_c, 2, 52, 95
3, 139440, Note_off_c, 2, 52, 0
3, 139680, Note_on_c, 2, 40, 95
3, 139920, Note_off_c, 2, 40, 0
3, 139920, Note_on_c, 2, 50, 95
3, 140160, Note_off_c, 2, 50, 0
3, 140160, Note_on_c, 2, 40, 95
3, 140400, Note_off_c, 2, 40, 0
3, 140400, Note_on_c, 2, 50, 95
3, 140640, Note_off_c, 2, 50, 0
3, 140880, Note_on_c, 2, 52, 95
3, 141120, Note_off_c, 2, 52, 0
3, 141360, Note_on_c, 2, 40, 95
3, 142080, Note_off_c, 2, 40, 0
3, 142080, Note_on_c, 2, 38, 95
3, 142560, Note_off_c, 2, 38, 0
3, 142560, Note_on_c, 2, 50, 95
3, 142800, Note_off_c, 2, 50, 0
3, 143040, Note_on_c, 2, 52, 95
3, 143280, Note_off_c, 2, 52, 0
3, 143520, Note_on_c, 2, 38, 95
3, 143760, Note_off_c, 2, 38, 0
3, 143760, Note_on_c, 2, 50, 95
3, 144000, Note_off_c, 2, 50, 0
3, 144000, Note_on_c, 2, 38, 95
3, 144240, Note_off_c, 2, 38, 0
3, 144240, Note_on_c, 2, 50, 95
3, 144480, Note_off_c, 2, 50, 0
3, 144720, Note_on_c, 2, 52, 95
3, 144960, Note_off_c, 2, 52, 0
3, 145200, Note_on_c, 2, 38, 95
3, 145920, Note_off_c, 2, 38, 0
3, 145920, Note_on_c, 2, 35, 95
3, 146400, Note_off_c, 2, 35, 0
3, 146400, Note_on_c, 2, 50, 95
3, 146640, Note_off_c, 2, 50, 0
3, 146880, Note_on_c, 2, 35, 95
3, 147120, Note_off_c, 2, 35, 0
3, 147360, Note_on_c, 2, 35, 95
3, 147600, Note_off_c, 2, 35, 0
3, 147840, Note_on_c, 2, 35, 95
3, 148080, Note_off_c, 2, 35, 0
3, 148080, Note_on_c, 2, 50, 95
3, 148320, Note_off_c, 2, 50, 0
3, 148560, Note_on_c, 2, 35, 95
3, 148800, Note_off_c, 2, 35, 0
3, 149040, Note_on_c, 2, 35, 95
3, 149760, Note_off_c, 2, 35, 0
3, 149760, Note_on_c, 2, 36, 95
3, 150240, Note_off_c, 2, 36, 0
3, 150240, Note_on_c, 2, 50, 95
3, 150480, Note_off_c, 2, 50, 0
3, 150720, Note_on_c, 2, 52, 95
3, 150960, Note_off_c, 2, 52, 0
3, 151200, Note_on_c, 2, 36, 95
3, 151440, Note_off_c, 2, 36, 0
3, 151440, Note_on_c, 2, 50, 95
3, 151680, Note_off_c, 2, 50, 0
3, 151680, Note_on_c, 2, 36, 95
3, 151920, Note_off_c, 2, 36, 0
3, 151920, Note_on_c, 2, 50, 95
3, 152160, Note_off_c, 2, 50, 0
3, 152400, Note_on_c, 2, 52, 95
3, 152640, Note_off_c, 2, 52, 0
3, 152880, Note_on_c, 2, 36, 95
3, 153360, Note_off_c, 2, 36, 0
3, 153360, Note_on_c, 2, 36, 95
3, 153600, Note_off_c, 2, 36, 0
3, 153600, Note_on_c, 2, 40, 95
3, 154080, Note_off_c, 2, 40, 0
3, 154080, Note_on_c, 2, 50, 95
3, 154320, Note_off_c, 2, 50, 0
3, 154560, Note_on_c, 2, 52, 95
3, 154800, Note_off_c, 2, 52, 0
3, 155040, Note_on_c, 2, 40, 95
3, 155280, Note_off_c, 2, 40, 0
3, 155280, Note_on_c, 2, 50, 95
3, 155520, Note_off_c, 2, 50, 0
3, 155520, Note_on_c, 2, 40, 95
3, 155760, Note_off_c, 2, 40, 0
3, 155760, Note_on_c, 2, 50, 95
3, 156000, Note_off_c, 2, 50, 0
3, 156240, Note_on_c, 2, 52, 95
3, 156480, Note_off_c, 2, 52, 0
3, 156720, Note_on_c, 2, 40, 95
3, 156960, Note_off_c, 2, 40, 0
3, 156960, Note_on_c, 2, 40, 95
3, 157200, Note_off_c, 2, 40, 0
3, 157200, Note_on_c, 2, 40, 95
3, 157440, Note_off_c, 2, 40, 0
3, 157440, Note_on_c, 2, 38, 95
3, 157680, Note_off_c, 2, 38, 0
3, 157920, Note_on_c, 2, 50, 95
3, 158160, Note_off_c, 2, 50, 0
3, 158400, Note_on_c, 2, 52, 95
3, 158640, Note_off_c, 2, 52, 0
3, 158880, Note_on_c, 2, 38, 95
3, 159120, Note_off_c, 2, 38, 0
3, 159120, Note_on_c, 2, 50, 95
3, 159360, Note_off_c, 2, 50, 0
3, 159360, Note_on_c, 2, 38, 95
3, 159600, Note_off_c, 2, 38, 0
3, 159600, Note_on_c, 2, 50, 95
3, 159840, Note_off_c, 2, 50, 0
3, 160080, Note_on_c, 2, 52, 95
3, 160320, Note_off_c, 2, 52, 0
3, 160560, Note_on_c, 2, 38, 95
3, 160800, Note_off_c, 2, 38, 0
3, 160800, Note_on_c, 2, 38, 95
3, 161040, Note_off_c, 2, 38, 0
3, 161040, Note_on_c, 2, 38, 95
3, 161280, Note_off_c, 2, 38, 0
3, 161280, Note_on_c, 2, 35, 95
3, 161520, Note_off_c, 2, 35, 0
3, 161760, Note_on_c, 2, 50, 95
3, 162000, Note_off_c, 2, 50, 0
3, 162240, Note_on_c, 2, 35, 95
3, 162480, Note_off_c, 2, 35, 0
3, 162720, Note_on_c, 2, 35, 95
3, 162960, Note_off_c, 2, 35, 0
3, 163200, Note_on_c, 2, 35, 95
3, 163440, Note_off_c, 2, 35, 0
3, 163440, Note_on_c, 2, 50, 95
3, 163680, Note_off_c, 2, 50, 0
3, 163920, Note_on_c, 2, 35, 95
3, 164160, Note_off_c, 2, 35, 0
3, 164400, Note_on_c, 2, 35, 95
3, 164880, Note_off_c, 2, 35, 0
3, 164880, Note_on_c, 2, 35, 95
3, 165120, Note_off_c, 2, 35, 0
3, 165120, Note_on_c, 2, 36, 95
3, 165600, Note_off_c, 2, 36, 0
3, 165600, Note_on_c, 2, 50, 95
3, 165840, Note_off_c, 2, 50, 0
3, 166080, Note_on_c, 2, 52, 95
3, 166320, Note_off_c, 2, 52, 0
3, 166560, Note_on_c, 2, 36, 95
3, 166800, Note_off_c, 2, 36, 0
3, 166800, Note_on_c, 2, 50, 95
3, 167040, Note_off_c, 2, 50, 0
3, 167040, Note_on_c, 2, 36, 95
3, 167280, Note_off_c, 2, 36, 0
3, 167280, Note_on_c, 2, 50, 95
3, 167520, Note_off_c, 2, 50, 0
3, 167760, Note_on_c, 2, 52, 95
3, 168000, Note_off_c, 2, 52, 0
3, 168240, Note_on_c, 2, 36, 95
3, 168720, Note_off_c, 2, 36, 0
3, 168720, Note_on_c, 2, 36, 95
3, 168960, Note_off_c, 2, 36, 0
3, 168960, Note_on_c, 2, 40, 95
3, 169440, Note_off_c, 2, 40, 0
3, 169440, Note_on_c, 2, 50, 95
3, 169680, Note_off_c, 2, 50, 0
3, 169920, Note_on_c, 2, 52, 95
3, 170160, Note_off_c, 2, 52, 0
3, 170400, Note_on_c, 2, 40, 95
3, 170640, Note_off_c, 2, 40, 0
3, 170640, Note_on_c, 2, 50, 95
3, 170880, Note_off_c, 2, 50, 0
3, 170880, Note_on_c, 2, 40, 95
3, 171120, Note_off_c, 2, 40, 0
3, 171120, Note_on_c, 2, 50, 95
3, 171360, Note_off_c, 2, 50, 0
3, 171600, Note_on_c, 2, 52, 95
3, 171840, Note_off_c, 2, 52, 0
3, 172080, Note_on_c, 2, 40, 95
3, 172800, Note_off_c, 2, 40, 0
3, 172800, Note_on_c, 2, 38, 95
3, 173280, Note_off_c, 2, 38, 0
3, 173280, Note_on_c, 2, 50, 95
3, 173520, Note_off_c, 2, 50, 0
3, 173760, Note_on_c, 2, 52, 95
3, 174000, Note_off_c, 2, 52, 0
3, 174240, Note_on_c, 2, 38, 95
3, 174480, Note_off_c, 2, 38, 0
3, 174480, Note_on_c, 2, 50, 95
3, 174720, Note_off_c, 2, 50, 0
3, 174720, Note_on_c, 2, 38, 95
3, 174960, Note_off_c, 2, 38, 0
3, 174960, Note_on_c, 2, 50, 95
3, 175200, Note_off_c, 2, 50, 0
3, 175440, Note_on_c, 2, 52, 95
3, 175680, Note_off_c, 2, 52, 0
3, 175920, Note_on_c, 2, 38, 95
3, 176640, Note_off_c, 2, 38, 0
3, 176640, Note_on_c, 2, 35, 95
3, 177120, Note_off_c, 2, 35, 0
3, 177120, Note_on_c, 2, 50, 95
3, 177360, Note_off_c, 2, 50, 0
3, 177600, Note_on_c, 2, 35, 95
3, 177840, Note_off_c, 2, 35, 0
3, 178080, Note_on_c, 2, 35, 95
3, 178320, Note_off_c, 2, 35, 0
3, 178560, Note_on_c, 2, 35, 95
3, 178800, Note_off_c, 2, 35, 0
3, 178800, Note_on_c, 2, 50, 95
3, 179040, Note_off_c, 2, 50, 0
3, 179280, Note_on_c, 2, 35, 95
3, 179520, Note_off_c, 2, 35, 0
3, 179760, Note_on_c, 2, 35, 95
3, 180480, Note_off_c, 2, 35, 0
3, 180480, Note_on_c, 2, 36, 95
3, 180960, Note_off_c, 2, 36, 0
3, 180960, Note_on_c, 2, 50, 95
3, 181200, Note_off_c, 2, 50, 0
3, 181440, Note_on_c, 2, 52, 95
3, 181680, Note_off_c, 2, 52, 0
3, 181920, Note_on_c, 2, 36, 95
3, 182160, Note_off_c, 2, 36, 0
3, 182160, Note_on_c, 2, 50, 95
3, 182400, Note_off_c, 2, 50, 0
3, 182400, Note_on_c, 2, 36, 95
3, 182640, Note_off_c, 2, 36, 0
3, 182640, Note_on_c, 2, 50, 95
3, 182880, Note_off_c, 2, 50, 0
3, 183120, Note_on_c, 2, 52, 95
3, 183360, Note_off_c, 2, 52, 0
3, 183600, Note_on_c, 2, 36, 95
3, 184080, Note_off_c, 2, 36, 0
3, 184080, Note_on_c, 2, 36, 95
3, 184320, Note_off_c, 2, 36, 0
3, 184320, Note_on_c, 2, 31, 95
3, 185040, Note_off_c, 2, 31, 0
3, 185040, Note_on_c, 2, 31, 95
3, 185280, Note_off_c, 2, 31, 0
3, 185280, Note_on_c, 2, 33, 95
3, 185520, Note_off_c, 2, 33, 0
3, 185520, Note_on_c, 2, 35, 95
3, 185760, Note_off_c, 2, 35, 0
3, 185760, Note_on_c, 2, 38, 95
3, 187200, Note_off_c, 2, 38, 0
3, 187200, Note_on_c, 2, 45, 95
3, 187440, Note_off_c, 2, 45, 0
3, 187440, Note_on_c, 2, 38, 95
3, 187920, Note_off_c, 2, 38, 0
3, 187920, Note_on_c, 2, 45, 95
3, 188160, Note_off_c, 2, 45, 0
3, 188160, Note_on_c, 2, 35, 95
3, 188880, Note_off_c, 2, 35, 0
3, 188880, Note_on_c, 2, 47, 95
3, 189120, Note_off_c, 2, 47, 0
3, 189120, Note_on_c, 2, 35, 95
3, 189360, Note_off_c, 2, 35, 0
3, 189360, Note_on_c, 2, 47, 95
3, 189600, Note_off_c, 2, 47, 0
3, 189600, Note_on_c, 2, 36, 95
3, 190530, Note_on_c, 2, 36, 100
3, 190560, Note_off_c, 2, 36, 0
3, 190560, Note_off_c, 2, 36, 0
3, 190560, Note_on_c, 2, 38, 95
3, 191280, Note_off_c, 2, 38, 0
3, 191280, Note_on_c, 2, 36, 95
3, 191520, Note_off_c, 2, 36, 0
3, 191520, Note_on_c, 2, 35, 95
3, 191760, Note_off_c, 2, 35, 0
3, 191760, Note_on_c, 2, 33, 95
3, 192000, Note_off_c, 2, 33, 0
3, 192000, Note_on_c, 2, 31, 95
3, 192720, Note_off_c, 2, 31, 0
3, 192720, Note_on_c, 2, 31, 95
3, 192960, Note_off_c, 2, 31, 0
3, 192960, Note_on_c, 2, 33, 95
3, 193200, Note_off_c, 2, 33, 0
3, 193200, Note_on_c, 2, 35, 95
3, 193440, Note_off_c, 2, 35, 0
3, 193440, Note_on_c, 2, 38, 95
3, 194880, Note_off_c, 2, 38, 0
3, 194880, Note_on_c, 2, 45, 95
3, 195120, Note_off_c, 2, 45, 0
3, 195120, Note_on_c, 2, 38, 95
3, 195600, Note_off_c, 2, 38, 0
3, 195600, Note_on_c, 2, 45, 95
3, 195840, Note_off_c, 2, 45, 0
3, 195840, Note_on_c, 2, 35, 95
3, 196560, Note_off_c, 2, 35, 0
3, 196560, Note_on_c, 2, 47, 95
3, 196800, Note_off_c, 2, 47, 0
3, 196800, Note_on_c, 2, 35, 95
3, 197040, Note_off_c, 2, 35, 0
3, 197040, Note_on_c, 2, 47, 95
3, 197280, Note_off_c, 2, 47, 0
3, 197280, Note_on_c, 2, 36, 95
3, 198210, Note_on_c, 2, 36, 100
3, 198240, Note_off_c, 2, 36, 0
3, 198240, Note_off_c, 2, 36, 0
3, 198240, Note_on_c, 2, 38, 95
3, 198960, Note_off_c, 2, 38, 0
3, 198960, Note_on_c, 2, 36, 95
3, 199200, Note_off_c, 2, 36, 0
3, 199200, Note_on_c, 2, 35, 95
3, 199440, Note_off_c, 2, 35, 0
3, 199440, Note_on_c, 2, 33, 95
3, 199680, Note_off_c, 2, 33, 0
3, 199680, Note_on_c, 2, 31, 95
3, 200400, Note_off_c, 2, 31, 0
3, 200400, Note_on_c, 2, 31, 95
3, 200640, Note_off_c, 2, 31, 0
3, 200640, Note_on_c, 2, 33, 95
3, 200880, Note_off_c, 2, 33, 0
3, 200880, Note_on_c, 2, 35, 95
3, 201120, Note_off_c, 2, 35, 0
3, 201120, Note_on_c, 2, 38, 95
3, 202560, Note_off_c, 2, 38, 0
3, 202560, Note_on_c, 2, 45, 95
3, 202800, Note_off_c, 2, 45, 0
3, 202800, Note_on_c, 2, 38, 95
3, 203280, Note_off_c, 2, 38, 0
3, 203280, Note_on_c, 2, 45, 95
3, 203520, Note_off_c, 2, 45, 0
3, 203520, Note_on_c, 2, 35, 95
3, 204240, Note_off_c, 2, 35, 0
3, 204240, Note_on_c, 2, 47, 95
3, 204480, Note_off_c, 2, 47, 0
3, 204480, Note_on_c, 2, 35, 95
3, 204720, Note_off_c, 2, 35, 0
3, 204720, Note_on_c, 2, 47, 95
3, 204960, Note_off_c, 2, 47, 0
3, 204960, Note_on_c, 2, 36, 95
3, 205890, Note_on_c, 2, 36, 100
3, 205920, Note_off_c, 2, 36, 0
3, 205920, Note_off_c, 2, 36, 0
3, 205920, Note_on_c, 2, 38, 95
3, 206640, Note_off_c, 2, 38, 0
3, 206640, Note_on_c, 2, 36, 95
3, 206880, Note_off_c, 2, 36, 0
3, 206880, Note_on_c, 2, 35, 95
3, 207120, Note_off_c, 2, 35, 0
3, 207120, Note_on_c, 2, 33, 95
3, 207360, Note_off_c, 2, 33, 0
3, 207360, Note_on_c, 2, 31, 95
3, 208080, Note_off_c, 2, 31, 0
3, 208080, Note_on_c, 2, 31, 95
3, 208320, Note_off_c, 2, 31, 0
3, 208320, Note_on_c, 2, 33, 95
3, 208560, Note_off_c, 2, 33, 0
3, 208560, Note_on_c, 2, 35, 95
3, 208800, Note_off_c, 2, 35, 0
3, 208800, Note_on_c, 2, 38, 95
3, 210240, Note_off_c, 2, 38, 0
3, 210240, Note_on_c, 2, 45, 95
3, 210480, Note_off_c, 2, 45, 0
3, 210480, Note_on_c, 2, 38, 95
3, 210960, Note_off_c, 2, 38, 0
3, 210960, Note_on_c, 2, 45, 95
3, 211200, Note_off_c, 2, 45, 0
3, 211200, Note_on_c, 2, 35, 95
3, 211680, Note_off_c, 2, 35, 0
3, 212160, Note_on_c, 2, 36, 95
3, 215040, Note_off_c, 2, 36, 0
3, 215040, Note_on_c, 2, 40, 95
3, 215520, Note_on_c, 2, 52, 95
3, 216000, Note_off_c, 2, 40, 0
3, 216000, Note_on_c, 2, 47, 95
3, 216480, Note_off_c, 2, 52, 0
3, 216480, Note_on_c, 2, 40, 95
3, 216960, Note_off_c, 2, 47, 0
3, 216960, Note_off_c, 2, 40, 0
3, 218880, Note_on_c, 2, 50, 95
3, 219360, Note_on_c, 2, 45, 95
3, 219840, Note_off_c, 2, 50, 0
3, 219840, Note_on_c, 2, 38, 95
3, 220320, Note_on_c, 2, 50, 95
3, 220800, Note_off_c, 2, 45, 0
3, 220800, Note_off_c, 2, 38, 0
3, 220800, Note_off_c, 2, 50, 0
3, 222720, Note_on_c, 2, 47, 95
3, 223200, Note_off_c, 2, 47, 0
3, 223200, Note_on_c, 2, 35, 95
3, 223680, Note_on_c, 2, 47, 95
3, 224160, Note_off_c, 2, 35, 0
3, 224160, Note_on_c, 2, 42, 95
3, 224640, Note_off_c, 2, 47, 0
3, 224640, Note_off_c, 2, 42, 0
3, 226560, Note_on_c, 2, 43, 95
3, 227040, Note_off_c, 2, 43, 0
3, 227040, Note_on_c, 2, 43, 95
3, 227520, Note_on_c, 2, 36, 95
3, 228000, Note_off_c, 2, 43, 0
3, 228000, Note_on_c, 2, 48, 95
3, 228480, Note_off_c, 2, 36, 0
3, 228480, Note_off_c, 2, 48, 0
3, 230400, Note_on_c, 2, 40, 95
3, 230880, Note_on_c, 2, 52, 95
3, 231360, Note_off_c, 2, 40, 0
3, 231360, Note_on_c, 2, 47, 95
3, 231840, Note_off_c, 2, 52, 0
3, 231840, Note_on_c, 2, 40, 95
3, 232320, Note_off_c, 2, 47, 0
3, 232320, Note_off_c, 2, 40, 0
3, 234240, Note_on_c, 2, 50, 95
3, 234720, Note_on_c, 2, 45, 95
3, 235200, Note_off_c, 2, 50, 0
3, 235200, Note_on_c, 2, 38, 95
3, 235680, Note_off_c, 2, 45, 0
3, 235680, Note_on_c, 2, 50, 95
3, 236160, Note_off_c, 2, 38, 0
3, 236160, Note_off_c, 2, 50, 0
3, 238080, Note_on_c, 2, 47, 95
3, 238560, Note_off_c, 2, 47, 0
3, 238560, Note_on_c, 2, 35, 95
3, 239040, Note_on_c, 2, 47, 95
3, 239520, Note_off_c, 2, 35, 0
3, 239520, Note_on_c, 2, 42, 95
3, 240000, Note_off_c, 2, 47, 0
3, 240000, Note_off_c, 2, 42, 0
3, 242400, Note_on_c, 2, 43, 95
3, 242880, Note_on_c, 2, 36, 95
3, 243360, Note_off_c, 2, 43, 0
3, 243360, Note_on_c, 2, 48, 95
3, 243840, Note_off_c, 2, 36, 0
3, 243840, Note_off_c, 2, 48, 0
3, 244320, Note_on_c, 2, 38, 95
3, 244800, Note_off_c, 2, 38, 0
3, 245280, Note_on_c, 2, 39, 95
3, 245760, Note_off_c, 2, 39, 0
3, 245760, Note_on_c, 2, 40, 95
3, 246240, Note_on_c, 2, 52, 95
3, 246720, Note_off_c, 2, 40, 0
3, 246720, Note_on_c, 2, 47, 95
3, 247200, Note_off_c, 2, 52, 0
3, 247200, Note_on_c, 2, 40, 95
3, 247680, Note_off_c, 2, 47, 0
3, 247680, Note_off_c, 2, 40, 0
3, 249600, Note_on_c, 2, 50, 95
3, 250080, Note_on_c, 2, 45, 95
3, 250560, Note_off_c, 2, 50, 0
3, 250560, Note_on_c, 2, 38, 95
3, 251040, Note_off_c, 2, 45, 0
3, 251040, Note_on_c, 2, 50, 95
3, 251520, Note_off_c, 2, 38, 0
3, 251520, Note_off_c, 2, 50, 0
3, 253440, Note_on_c, 2, 47, 95
3, 253920, Note_off_c, 2, 47, 0
3, 253920, Note_on_c, 2, 35, 95
3, 254400, Note_on_c, 2, 47, 95
3, 254880, Note_off_c, 2, 35, 0
3, 254880, Note_on_c, 2, 42, 95
3, 255360, Note_off_c, 2, 47, 0
3, 255360, Note_off_c, 2, 42, 0
3, 257760, Note_on_c, 2, 43, 95
3, 258240, Note_on_c, 2, 36, 95
3, 258720, Note_off_c, 2, 43, 0
3, 258720, Note_on_c, 2, 48, 95
3, 259200, Note_off_c, 2, 36, 0
3, 259200, Note_off_c, 2, 48, 0
3, 259920, Note_on_c, 2, 42, 95
3, 260400, Note_off_c, 2, 42, 0
3, 260400, Note_on_c, 2, 45, 95
3, 260640, Note_off_c, 2, 45, 0
3, 260640, Note_on_c, 2, 38, 95
3, 260880, Note_off_c, 2, 38, 0
3, 260880, Note_on_c, 2, 39, 95
3, 261120, Note_off_c, 2, 39, 0
3, 261120, Note_on_c, 2, 40, 95
3, 261600, Note_on_c, 2, 52, 95
3, 262080, Note_off_c, 2, 40, 0
3, 262080, Note_on_c, 2, 47, 95
3, 262560, Note_off_c, 2, 52, 0
3, 262560, Note_on_c, 2, 40, 95
3, 263040, Note_off_c, 2, 47, 0
3, 263040, Note_off_c, 2, 40, 0
3, 264960, Note_on_c, 2, 50, 95
3, 265440, Note_on_c, 2, 45, 95
3, 265920, Note_off_c, 2, 50, 0
3, 265920, Note_on_c, 2, 38, 95
3, 266400, Note_off_c, 2, 45, 0
3, 266400, Note_on_c, 2, 50, 95
3, 266880, Note_off_c, 2, 38, 0
3, 266880, Note_off_c, 2, 50, 0
3, 268800, Note_on_c, 2, 47, 95
3, 269280, Note_off_c, 2, 47, 0
3, 269280, Note_on_c, 2, 35, 95
3, 269760, Note_on_c, 2, 47, 95
3, 270240, Note_off_c, 2, 35, 0
3, 270240, Note_on_c, 2, 42, 95
3, 270720, Note_off_c, 2, 47, 0
3, 270720, Note_off_c, 2, 42, 0
3, 273120, Note_on_c, 2, 43, 95
3, 273600, Note_on_c, 2, 36, 95
3, 274080, Note_off_c, 2, 43, 0
3, 274080, Note_on_c, 2, 48, 95
3, 274560, Note_off_c, 2, 36, 0
3, 274560, Note_off_c, 2, 48, 0
3, 275040, Note_on_c, 2, 38, 95
3, 275520, Note_off_c, 2, 38, 0
3, 276000, Note_on_c, 2, 39, 95
3, 276480, Note_off_c, 2, 39, 0
3, 276480, Note_on_c, 2, 40, 95
3, 276720, Note_off_c, 2, 40, 0
3, 276960, Note_on_c, 2, 50, 95
3, 277200, Note_off_c, 2, 50, 0
3, 277440, Note_on_c, 2, 52, 95
3, 277680, Note_off_c, 2, 52, 0
3, 277920, Note_on_c, 2, 40, 95
3, 278160, Note_off_c, 2, 40, 0
3, 278160, Note_on_c, 2, 50, 95
3, 278400, Note_off_c, 2, 50, 0
3, 278400, Note_on_c, 2, 40, 95
3, 278640, Note_off_c, 2, 40, 0
3, 278640, Note_on_c, 2, 50, 95
3, 278880, Note_off_c, 2, 50, 0
3, 279120, Note_on_c, 2, 52, 95
3, 279360, Note_off_c, 2, 52, 0
3, 279600, Note_on_c, 2, 40, 95
3, 279840, Note_off_c, 2, 40, 0
3, 279840, Note_on_c, 2, 40, 95
3, 280080, Note_off_c, 2, 40, 0
3, 280080, Note_on_c, 2, 40, 95
3, 280320, Note_off_c, 2, 40, 0
3, 280320, Note_on_c, 2, 38, 95
3, 280560, Note_off_c, 2, 38, 0
3, 280800, Note_on_c, 2, 50, 95
3, 281040, Note_off_c, 2, 50, 0
3, 281280, Note_on_c, 2, 52, 95
3, 281520, Note_off_c, 2, 52, 0
3, 281760, Note_on_c, 2, 38, 95
3, 282000, Note_off_c, 2, 38, 0
3, 282000, Note_on_c, 2, 50, 95
3, 282240, Note_off_c, 2, 50, 0
3, 282240, Note_on_c, 2, 38, 95
3, 282480, Note_off_c, 2, 38, 0
3, 282480, Note_on_c, 2, 50, 95
3, 282720, Note_off_c, 2, 50, 0
3, 282960, Note_on_c, 2, 52, 95
3, 283200, Note_off_c, 2, 52, 0
3, 283440, Note_on_c, 2, 38, 95
3, 283680, Note_off_c, 2, 38, 0
3, 283680, Note_on_c, 2, 38, 95
3, 283920, Note_off_c, 2, 38, 0
3, 283920, Note_on_c, 2, 38, 95
3, 284160, Note_off_c, 2, 38, 0
3, 284160, Note_on_c, 2, 35, 95
3, 284400, Note_off_c, 2, 35, 0
3, 284640, Note_on_c, 2, 50, 95
3, 284880, Note_off_c, 2, 50, 0
3, 285120, Note_on_c, 2, 50, 95
3, 285360, Note_off_c, 2, 50, 0
3, 285600, Note_on_c, 2, 35, 95
3, 285840, Note_off_c, 2, 35, 0
3, 286080, Note_on_c, 2, 35, 95
3, 286320, Note_off_c, 2, 35, 0
3, 286320, Note_on_c, 2, 50, 95
3, 286560, Note_off_c, 2, 50, 0
3, 286800, Note_on_c, 2, 50, 95
3, 287040, Note_off_c, 2, 50, 0
3, 287280, Note_on_c, 2, 35, 95
3, 287520, Note_off_c, 2, 35, 0
3, 287520, Note_on_c, 2, 35, 95
3, 287760, Note_off_c, 2, 35, 0
3, 287760, Note_on_c, 2, 35, 95
3, 288000, Note_off_c, 2, 35, 0
3, 288000, Note_on_c, 2, 36, 95
3, 288480, Note_off_c, 2, 36, 0
3, 288480, Note_on_c, 2, 50, 95
3, 288720, Note_off_c, 2, 50, 0
3, 288960, Note_on_c, 2, 50, 95
3, 289200, Note_off_c, 2, 50, 0
3, 289440, Note_on_c, 2, 50, 95
3, 289920, Note_off_c, 2, 50, 0
3, 290130, Note_on_c, 2, 43, 100
3, 290160, Note_off_c, 2, 43, 0
3, 290160, Note_on_c, 2, 45, 95
3, 290400, Note_off_c, 2, 45, 0
3, 290400, Note_on_c, 2, 47, 95
3, 290640, Note_off_c, 2, 47, 0
3, 290640, Note_on_c, 2, 50, 95
3, 291120, Note_off_c, 2, 50, 0
3, 291120, Note_on_c, 2, 43, 95
3, 291360, Note_off_c, 2, 43, 0
3, 291360, Note_on_c, 2, 45, 95
3, 291600, Note_off_c, 2, 45, 0
3, 291600, Note_on_c, 2, 43, 95
3, 291840, Note_off_c, 2, 43, 0
3, 291840, Note_on_c, 2, 40, 95
3, 292320, Note_off_c, 2, 40, 0
3, 292320, Note_on_c, 2, 50, 95
3, 292560, Note_off_c, 2, 50, 0
3, 292800, Note_on_c, 2, 52, 95
3, 293040, Note_off_c, 2, 52, 0
3, 293280, Note_on_c, 2, 40, 95
3, 293520, Note_off_c, 2, 40, 0
3, 293520, Note_on_c, 2, 50, 95
3, 293760, Note_off_c, 2, 50, 0
3, 293760, Note_on_c, 2, 40, 95
3, 294000, Note_off_c, 2, 40, 0
3, 294000, Note_on_c, 2, 50, 95
3, 294240, Note_off_c, 2, 50, 0
3, 294480, Note_on_c, 2, 52, 95
3, 294720, Note_off_c, 2, 52, 0
3, 294960, Note_on_c, 2, 40, 95
3, 295680, Note_off_c, 2, 40, 0
3, 295680, Note_on_c, 2, 38, 95
3, 296160, Note_off_c, 2, 38, 0
3, 296160, Note_on_c, 2, 50, 95
3, 296400, Note_off_c, 2, 50, 0
3, 296640, Note_on_c, 2, 52, 95
3, 296880, Note_off_c, 2, 52, 0
3, 297120, Note_on_c, 2, 38, 95
3, 297360, Note_off_c, 2, 38, 0
3, 297360, Note_on_c, 2, 50, 95
3, 297600, Note_off_c, 2, 50, 0
3, 297600, Note_on_c, 2, 38, 95
3, 297840, Note_off_c, 2, 38, 0
3, 297840, Note_on_c, 2, 50, 95
3, 298080, Note_off_c, 2, 50, 0
3, 298320, Note_on_c, 2, 52, 95
3, 298560, Note_off_c, 2, 52, 0
3, 298800, Note_on_c, 2, 38, 95
3, 299520, Note_off_c, 2, 38, 0
3, 299520, Note_on_c, 2, 35, 95
3, 299760, Note_off_c, 2, 35, 0
3, 300000, Note_on_c, 2, 50, 95
3, 300240, Note_off_c, 2, 50, 0
3, 300480, Note_on_c, 2, 50, 95
3, 300720, Note_off_c, 2, 50, 0
3, 300960, Note_on_c, 2, 35, 95
3, 301200, Note_off_c, 2, 35, 0
3, 301440, Note_on_c, 2, 35, 95
3, 301680, Note_off_c, 2, 35, 0
3, 301680, Note_on_c, 2, 50, 95
3, 301920, Note_off_c, 2, 50, 0
3, 302160, Note_on_c, 2, 50, 95
3, 302400, Note_off_c, 2, 50, 0
3, 302640, Note_on_c, 2, 35, 95
3, 302880, Note_off_c, 2, 35, 0
3, 302880, Note_on_c, 2, 35, 95
3, 303120, Note_off_c, 2, 35, 0
3, 303120, Note_on_c, 2, 35, 95
3, 303360, Note_off_c, 2, 35, 0
3, 303360, Note_on_c, 2, 36, 95
3, 303840, Note_off_c, 2, 36, 0
3, 303840, Note_on_c, 2, 50, 95
3, 304080, Note_off_c, 2, 50, 0
3, 304320, Note_on_c, 2, 36, 95
3, 304560, Note_off_c, 2, 36, 0
3, 304800, Note_on_c, 2, 36, 95
3, 305280, Note_off_c, 2, 36, 0
3, 305520, Note_on_c, 2, 54, 95
3, 305760, Note_off_c, 2, 54, 0
3, 306000, Note_on_c, 2, 54, 95
3, 306480, Note_off_c, 2, 54, 0
3, 306480, Note_on_c, 2, 60, 95
3, 306720, Note_off_c, 2, 60, 0
3, 306720, Note_on_c, 2, 60, 95
3, 307200, Note_off_c, 2, 60, 0
3, 307200, Note_on_c, 2, 40, 95
3, 307680, Note_off_c, 2, 40, 0
3, 307680, Note_on_c, 2, 50, 95
3, 307920, Note_off_c, 2, 50, 0
3, 308160, Note_on_c, 2, 52, 95
3, 308400, Note_off_c, 2, 52, 0
3, 308640, Note_on_c, 2, 40, 95
3, 308880, Note_off_c, 2, 40, 0
3, 308880, Note_on_c, 2, 50, 95
3, 309120, Note_off_c, 2, 50, 0
3, 309120, Note_on_c, 2, 40, 95
3, 309360, Note_off_c, 2, 40, 0
3, 309360, Note_on_c, 2, 50, 95
3, 309600, Note_off_c, 2, 50, 0
3, 309840, Note_on_c, 2, 52, 95
3, 310080, Note_off_c, 2, 52, 0
3, 310320, Note_on_c, 2, 40, 95
3, 311040, Note_off_c, 2, 40, 0
3, 311040, Note_on_c, 2, 38, 95
3, 311520, Note_off_c, 2, 38, 0
3, 311520, Note_on_c, 2, 50, 95
3, 311760, Note_off_c, 2, 50, 0
3, 312000, Note_on_c, 2, 52, 95
3, 312240, Note_off_c, 2, 52, 0
3, 312480, Note_on_c, 2, 38, 95
3, 312720, Note_off_c, 2, 38, 0
3, 312720, Note_on_c, 2, 50, 95
3, 312960, Note_off_c, 2, 50, 0
3, 312960, Note_on_c, 2, 38, 95
3, 313200, Note_off_c, 2, 38, 0
3, 313200, Note_on_c, 2, 50, 95
3, 313440, Note_off_c, 2, 50, 0
3, 313680, Note_on_c, 2, 52, 95
3, 313920, Note_off_c, 2, 52, 0
3, 314160, Note_on_c, 2, 38, 95
3, 314880, Note_off_c, 2, 38, 0
3, 314880, Note_on_c, 2, 35, 95
3, 315120, Note_off_c, 2, 35, 0
3, 315360, Note_on_c, 2, 50, 95
3, 315600, Note_off_c, 2, 50, 0
3, 315840, Note_on_c, 2, 50, 95
3, 316080, Note_off_c, 2, 50, 0
3, 316320, Note_on_c, 2, 35, 95
3, 316560, Note_off_c, 2, 35, 0
3, 316800, Note_on_c, 2, 35, 95
3, 317040, Note_off_c, 2, 35, 0
3, 317040, Note_on_c, 2, 50, 95
3, 317280, Note_off_c, 2, 50, 0
3, 317520, Note_on_c, 2, 50, 95
3, 317760, Note_off_c, 2, 50, 0
3, 318000, Note_on_c, 2, 35, 95
3, 318240, Note_off_c, 2, 35, 0
3, 318240, Note_on_c, 2, 35, 95
3, 318480, Note_off_c, 2, 35, 0
3, 318480, Note_on_c, 2, 35, 95
3, 318720, Note_off_c, 2, 35, 0
3, 318720, Note_on_c, 2, 36, 95
3, 319200, Note_off_c, 2, 36, 0
3, 319200, Note_on_c, 2, 50, 95
3, 319440, Note_off_c, 2, 50, 0
3, 319680, Note_on_c, 2, 36, 95
3, 319920, Note_off_c, 2, 36, 0
3, 320160, Note_on_c, 2, 36, 95
3, 320640, Note_off_c, 2, 36, 0
3, 320880, Note_on_c, 2, 52, 95
3, 321120, Note_off_c, 2, 52, 0
3, 321360, Note_on_c, 2, 50, 95
3, 321840, Note_off_c, 2, 50, 0
3, 321840, Note_on_c, 2, 43, 95
3, 322080, Note_off_c, 2, 43, 0
3, 322080, Note_on_c, 2, 45, 95
3, 322320, Note_off_c, 2, 45, 0
3, 322320, Note_on_c, 2, 43, 95
3, 322560, Note_off_c, 2, 43, 0
3, 322560, Note_on_c, 2, 40, 95
3, 323040, Note_off_c, 2, 40, 0
3, 323040, Note_on_c, 2, 50, 95
3, 323280, Note_off_c, 2, 50, 0
3, 323520, Note_on_c, 2, 52, 95
3, 323760, Note_off_c, 2, 52, 0
3, 324000, Note_on_c, 2, 40, 95
3, 324240, Note_off_c, 2, 40, 0
3, 324240, Note_on_c, 2, 50, 95
3, 324480, Note_off_c, 2, 50, 0
3, 324480, Note_on_c, 2, 40, 95
3, 324720, Note_off_c, 2, 40, 0
3, 324720, Note_on_c, 2, 50, 95
3, 324960, Note_off_c, 2, 50, 0
3, 325200, Note_on_c, 2, 52, 95
3, 325440, Note_off_c, 2, 52, 0
3, 325680, Note_on_c, 2, 40, 95
3, 326400, Note_off_c, 2, 40, 0
3, 326400, Note_on_c, 2, 38, 95
3, 326880, Note_off_c, 2, 38, 0
3, 326880, Note_on_c, 2, 50, 95
3, 327120, Note_off_c, 2, 50, 0
3, 327360, Note_on_c, 2, 52, 95
3, 327600, Note_off_c, 2, 52, 0
3, 327840, Note_on_c, 2, 38, 95
3, 328080, Note_off_c, 2, 38, 0
3, 328080, Note_on_c, 2, 50, 95
3, 328320, Note_off_c, 2, 50, 0
3, 328320, Note_on_c, 2, 38, 95
3, 328560, Note_off_c, 2, 38, 0
3, 328560, Note_on_c, 2, 50, 95
3, 328800, Note_off_c, 2, 50, 0
3, 329040, Note_on_c, 2, 52, 95
3, 329280, Note_off_c, 2, 52, 0
3, 329520, Note_on_c, 2, 38, 95
3, 330240, Note_off_c, 2, 38, 0
3, 330240, Note_on_c, 2, 35, 95
3, 330480, Note_off_c, 2, 35, 0
3, 330720, Note_on_c, 2, 50, 95
3, 330960, Note_off_c, 2, 50, 0
3, 331200, Note_on_c, 2, 50, 95
3, 331440, Note_off_c, 2, 50, 0
3, 331680, Note_on_c, 2, 35, 95
3, 331920, Note_off_c, 2, 35, 0
3, 332160, Note_on_c, 2, 35, 95
3, 332400, Note_off_c, 2, 35, 0
3, 332400, Note_on_c, 2, 50, 95
3, 332640, Note_off_c, 2, 50, 0
3, 332880, Note_on_c, 2, 50, 95
3, 333120, Note_off_c, 2, 50, 0
3, 333360, Note_on_c, 2, 35, 95
3, 333600, Note_off_c, 2, 35, 0
3, 333600, Note_on_c, 2, 35, 95
3, 333840, Note_off_c, 2, 35, 0
3, 333840, Note_on_c, 2, 35, 95
3, 334080, Note_off_c, 2, 35, 0
3, 334080, Note_on_c, 2, 36, 95
3, 334560, Note_off_c, 2, 36, 0
3, 334560, Note_on_c, 2, 50, 95
3, 334800, Note_off_c, 2, 50, 0
3, 335040, Note_on_c, 2, 36, 95
3, 335280, Note_off_c, 2, 36, 0
3, 335520, Note_on_c, 2, 36, 95
3, 336000, Note_off_c, 2, 36, 0
3, 336240, Note_on_c, 2, 52, 95
3, 336480, Note_off_c, 2, 52, 0
3, 336720, Note_on_c, 2, 50, 95
3, 337200, Note_off_c, 2, 50, 0
3, 337200, Note_on_c, 2, 43, 95
3, 337440, Note_off_c, 2, 43, 0
3, 337440, Note_on_c, 2, 45, 95
3, 337680, Note_off_c, 2, 45, 0
3, 337680, Note_on_c, 2, 43, 95
3, 337920, Note_off_c, 2, 43, 0
3, 337920, Note_on_c, 2, 40, 95
3, 338400, Note_off_c, 2, 40, 0
3, 338400, Note_on_c, 2, 50, 95
3, 338640, Note_off_c, 2, 50, 0
3, 338880, Note_on_c, 2, 52, 95
3, 339120, Note_off_c, 2, 52, 0
3, 339360, Note_on_c, 2, 40, 95
3, 339600, Note_off_c, 2, 40, 0
3, 339600, Note_on_c, 2, 50, 95
3, 339840, Note_off_c, 2, 50, 0
3, 339840, Note_on_c, 2, 40, 95
3, 340080, Note_off_c, 2, 40, 0
3, 340080, Note_on_c, 2, 50, 95
3, 340320, Note_off_c, 2, 50, 0
3, 340560, Note_on_c, 2, 52, 95
3, 340800, Note_off_c, 2, 52, 0
3, 341040, Note_on_c, 2, 40, 95
3, 341760, Note_off_c, 2, 40, 0
3, 341760, Note_on_c, 2, 38, 95
3, 342240, Note_off_c, 2, 38, 0
3, 342240, Note_on_c, 2, 50, 95
3, 342480, Note_off_c, 2, 50, 0
3, 342720, Note_on_c, 2, 52, 95
3, 342960, Note_off_c, 2, 52, 0
3, 343200, Note_on_c, 2, 38, 95
3, 343440, Note_off_c, 2, 38, 0
3, 343440, Note_on_c, 2, 50, 95
3, 343680, Note_off_c, 2, 50, 0
3, 343680, Note_on_c, 2, 38, 95
3, 343920, Note_off_c, 2, 38, 0
3, 343920, Note_on_c, 2, 50, 95
3, 344160, Note_off_c, 2, 50, 0
3, 344400, Note_on_c, 2, 52, 95
3, 344640, Note_off_c, 2, 52, 0
3, 344880, Note_on_c, 2, 38, 95
3, 345600, Note_off_c, 2, 38, 0
3, 345600, Note_on_c, 2, 35, 95
3, 345840, Note_off_c, 2, 35, 0
3, 346080, Note_on_c, 2, 50, 95
3, 346320, Note_off_c, 2, 50, 0
3, 346560, Note_on_c, 2, 50, 95
3, 346800, Note_off_c, 2, 50, 0
3, 347040, Note_on_c, 2, 35, 95
3, 347280, Note_off_c, 2, 35, 0
3, 347520, Note_on_c, 2, 35, 95
3, 347760, Note_off_c, 2, 35, 0
3, 347760, Note_on_c, 2, 50, 95
3, 348000, Note_off_c, 2, 50, 0
3, 348240, Note_on_c, 2, 50, 95
3, 348480, Note_off_c, 2, 50, 0
3, 348720, Note_on_c, 2, 35, 95
3, 348960, Note_off_c, 2, 35, 0
3, 348960, Note_on_c, 2, 35, 95
3, 349200, Note_off_c, 2, 35, 0
3, 349200, Note_on_c, 2, 35, 95
3, 349440, Note_off_c, 2, 35, 0
3, 349440, Note_on_c, 2, 36, 95
3, 349920, Note_off_c, 2, 36, 0
3, 349920, Note_on_c, 2, 50, 95
3, 350160, Note_off_c, 2, 50, 0
3, 350400, Note_on_c, 2, 52, 95
3, 350640, Note_off_c, 2, 52, 0
3, 350880, Note_on_c, 2, 36, 95
3, 351120, Note_off_c, 2, 36, 0
3, 351120, Note_on_c, 2, 50, 95
3, 351360, Note_off_c, 2, 50, 0
3, 351360, Note_on_c, 2, 36, 95
3, 351600, Note_off_c, 2, 36, 0
3, 351600, Note_on_c, 2, 50, 95
3, 351840, Note_off_c, 2, 50, 0
3, 352080, Note_on_c, 2, 52, 95
3, 352320, Note_off_c, 2, 52, 0
3, 352560, Note_on_c, 2, 36, 95
3, 353280, Note_off_c, 2, 36, 0
3, 353280, End_track
4, 0, Start_track
4, 0, MIDI_port, 1
4, 0, Title_t, "Frusciante - Guitar"
4, 0, Program_c, 0, 27
4, 0, Note_on_c, 0, 50, 95
4, 240, Note_off_c, 0, 50, 0
4, 240, Note_on_c, 0, 52, 95
4, 720, Note_off_c, 0, 52, 0
4, 720, Note_on_c, 0, 50, 95
4, 960, Note_off_c, 0, 50, 0
4, 960, Note_on_c, 0, 52, 95
4, 1440, Note_off_c, 0, 52, 0
4, 1440, Note_on_c, 0, 50, 95
4, 1680, Note_off_c, 0, 50, 0
4, 1680, Note_on_c, 0, 52, 95
4, 2160, Note_off_c, 0, 52, 0
4, 2160, Note_on_c, 0, 50, 95
4, 2400, Note_off_c, 0, 50, 0
4, 2400, Note_on_c, 0, 52, 95
4, 2880, Note_off_c, 0, 52, 0
4, 2880, Note_on_c, 0, 50, 95
4, 3120, Note_off_c, 0, 50, 0
4, 3120, Note_on_c, 0, 52, 95
4, 3360, Note_off_c, 0, 52, 0
4, 3840, Note_on_c, 0, 50, 95
4, 4080, Note_off_c, 0, 50, 0
4, 4080, Note_on_c, 0, 52, 95
4, 4560, Note_off_c, 0, 52, 0
4, 4560, Note_on_c, 0, 50, 95
4, 4800, Note_off_c, 0, 50, 0
4, 4800, Note_on_c, 0, 52, 95
4, 5280, Note_off_c, 0, 52, 0
4, 5280, Note_on_c, 0, 50, 95
4, 5520, Note_off_c, 0, 50, 0
4, 5520, Note_on_c, 0, 52, 95
4, 6000, Note_off_c, 0, 52, 0
4, 6000, Note_on_c, 0, 50, 95
4, 6240, Note_off_c, 0, 50, 0
4, 6240, Note_on_c, 0, 52, 95
4, 6720, Note_off_c, 0, 52, 0
4, 6720, Note_on_c, 0, 50, 95
4, 6960, Note_off_c, 0, 50, 0
4, 6960, Note_on_c, 0, 52, 95
4, 7200, Note_off_c, 0, 52, 0
4, 7680, Note_on_c, 0, 50, 95
4, 7920, Note_off_c, 0, 50, 0
4, 7920, Note_on_c, 0, 52, 95
4, 8400, Note_off_c, 0, 52, 0
4, 8400, Note_on_c, 0, 50, 95
4, 8640, Note_off_c, 0, 50, 0
4, 8640, Note_on_c, 0, 52, 95
4, 9120, Note_off_c, 0, 52, 0
4, 9120, Note_on_c, 0, 50, 95
4, 9360, Note_off_c, 0, 50, 0
4, 9360, Note_on_c, 0, 52, 95
4, 9840, Note_off_c, 0, 52, 0
4, 9840, Note_on_c, 0, 50, 95
4, 10080, Note_off_c, 0, 50, 0
4, 10080, Note_on_c, 0, 52, 95
4, 10560, Note_off_c, 0, 52, 0
4, 10560, Note_on_c, 0, 50, 95
4, 10800, Note_off_c, 0, 50, 0
4, 10800, Note_on_c, 0, 52, 95
4, 11040, Note_off_c, 0, 52, 0
4, 11520, Note_on_c, 0, 50, 95
4, 11760, Note_off_c, 0, 50, 0
4, 11760, Note_on_c, 0, 52, 95
4, 12240, Note_off_c, 0, 52, 0
4, 12240, Note_on_c, 0, 50, 95
4, 12480, Note_off_c, 0, 50, 0
4, 12480, Note_on_c, 0, 52, 95
4, 12960, Note_off_c, 0, 52, 0
4, 12960, Note_on_c, 0, 50, 95
4, 13200, Note_off_c, 0, 50, 0
4, 13200, Note_on_c, 0, 52, 95
4, 13680, Note_off_c, 0, 52, 0
4, 13680, Note_on_c, 0, 50, 95
4, 13920, Note_off_c, 0, 50, 0
4, 13920, Note_on_c, 0, 52, 95
4, 14400, Note_off_c, 0, 52, 0
4, 14400, Note_on_c, 0, 50, 95
4, 14640, Note_off_c, 0, 50, 0
4, 14640, Note_on_c, 0, 52, 95
4, 14880, Note_off_c, 0, 52, 0
4, 15360, Note_on_c, 0, 50, 95
4, 15600, Note_off_c, 0, 50, 0
4, 15600, Note_on_c, 0, 52, 95
4, 16080, Note_off_c, 0, 52, 0
4, 16080, Note_on_c, 0, 50, 95
4, 16320, Note_off_c, 0, 50, 0
4, 16320, Note_on_c, 0, 52, 95
4, 16800, Note_off_c, 0, 52, 0
4, 16800, Note_on_c, 0, 50, 95
4, 16800, Note_on_c, 0, 45, 50
4, 17040, Note_off_c, 0, 50, 0
4, 17040, Note_off_c, 0, 45, 0
4, 17040, Note_on_c, 0, 52, 95
4, 17520, Note_off_c, 0, 52, 0
4, 17520, Note_on_c, 0, 50, 95
4, 17760, Note_off_c, 0, 50, 0
4, 17760, Note_on_c, 0, 52, 95
4, 17760, Note_on_c, 0, 47, 95
4, 18240, Note_off_c, 0, 52, 0
4, 18240, Note_off_c, 0, 47, 0
4, 18240, Note_on_c, 0, 50, 95
4, 18480, Note_off_c, 0, 50, 0
4, 18480, Note_on_c, 0, 52, 95
4, 18720, Note_off_c, 0, 52, 0
4, 19200, Note_on_c, 0, 50, 95
4, 19440, Note_off_c, 0, 50, 0
4, 19440, Note_on_c, 0, 52, 95
4, 19920, Note_off_c, 0, 52, 0
4, 19920, Note_on_c, 0, 50, 95
4, 20160, Note_off_c, 0, 50, 0
4, 20160, Note_on_c, 0, 52, 95
4, 20640, Note_off_c, 0, 52, 0
4, 20640, Note_on_c, 0, 50, 95
4, 20880, Note_off_c, 0, 50, 0
4, 20880, Note_on_c, 0, 52, 95
4, 21360, Note_off_c, 0, 52, 0
4, 21360, Note_on_c, 0, 50, 95
4, 21600, Note_off_c, 0, 50, 0
4, 21600, Note_on_c, 0, 52, 95
4, 22080, Note_off_c, 0, 52, 0
4, 22080, Note_on_c, 0, 50, 95
4, 22320, Note_off_c, 0, 50, 0
4, 22320, Note_on_c, 0, 52, 95
4, 22560, Note_off_c, 0, 52, 0
4, 23040, Note_on_c, 0, 50, 95
4, 23280, Note_off_c, 0, 50, 0
4, 23280, Note_on_c, 0, 52, 95
4, 23760, Note_off_c, 0, 52, 0
4, 23760, Note_on_c, 0, 50, 95
4, 24000, Note_off_c, 0, 50, 0
4, 24000, Note_on_c, 0, 52, 95
4, 24480, Note_off_c, 0, 52, 0
4, 24480, Note_on_c, 0, 50, 95
4, 24720, Note_off_c, 0, 50, 0
4, 24720, Note_on_c, 0, 52, 95
4, 25200, Note_off_c, 0, 52, 0
4, 25200, Note_on_c, 0, 50, 95
4, 25440, Note_off_c, 0, 50, 0
4, 25440, Note_on_c, 0, 52, 95
4, 25920, Note_off_c, 0, 52, 0
4, 25920, Note_on_c, 0, 50, 95
4, 26160, Note_off_c, 0, 50, 0
4, 26160, Note_on_c, 0, 52, 95
4, 26400, Note_off_c, 0, 52, 0
4, 26880, Note_on_c, 0, 50, 95
4, 27120, Note_off_c, 0, 50, 0
4, 27120, Note_on_c, 0, 52, 95
4, 27600, Note_off_c, 0, 52, 0
4, 27600, Note_on_c, 0, 50, 95
4, 27840, Note_off_c, 0, 50, 0
4, 27840, Note_on_c, 0, 52, 95
4, 28320, Note_off_c, 0, 52, 0
4, 28320, Note_on_c, 0, 50, 95
4, 28560, Note_off_c, 0, 50, 0
4, 28560, Note_on_c, 0, 52, 95
4, 29040, Note_off_c, 0, 52, 0
4, 29040, Note_on_c, 0, 50, 95
4, 29280, Note_off_c, 0, 50, 0
4, 29280, Note_on_c, 0, 52, 95
4, 29760, Note_off_c, 0, 52, 0
4, 29760, Note_on_c, 0, 50, 95
4, 30000, Note_off_c, 0, 50, 0
4, 30000, Note_on_c, 0, 52, 95
4, 30240, Note_off_c, 0, 52, 0
4, 30720, Note_on_c, 0, 52, 95
4, 30960, Note_off_c, 0, 52, 0
4, 30960, Note_on_c, 0, 52, 95
4, 31200, Note_off_c, 0, 52, 0
4, 31200, Note_on_c, 0, 62, 95
4, 31680, Note_off_c, 0, 62, 0
4, 31680, Note_on_c, 0, 64, 95
4, 32160, Note_off_c, 0, 64, 0
4, 32160, Note_on_c, 0, 52, 95
4, 32400, Note_off_c, 0, 52, 0
4, 32400, Note_on_c, 0, 52, 95
4, 32640, Note_off_c, 0, 52, 0
4, 32640, Note_on_c, 0, 52, 95
4, 32880, Note_off_c, 0, 52, 0
4, 32880, Note_on_c, 0, 62, 95
4, 33360, Note_off_c, 0, 62, 0
4, 33360, Note_on_c, 0, 64, 95
4, 33840, Note_off_c, 0, 64, 0
4, 33840, Note_on_c, 0, 52, 95
4, 34080, Note_off_c, 0, 52, 0
4, 34080, Note_on_c, 0, 52, 95
4, 34320, Note_off_c, 0, 52, 0
4, 34320, Note_on_c, 0, 52, 95
4, 34560, Note_off_c, 0, 52, 0
4, 34560, Note_on_c, 0, 50, 95
4, 35040, Note_off_c, 0, 50, 0
4, 35040, Note_on_c, 0, 62, 95
4, 35520, Note_off_c, 0, 62, 0
4, 35520, Note_on_c, 0, 64, 95
4, 36000, Note_off_c, 0, 64, 0
4, 36000, Note_on_c, 0, 50, 95
4, 36240, Note_off_c, 0, 50, 0
4, 36240, Note_on_c, 0, 50, 95
4, 36480, Note_off_c, 0, 50, 0
4, 36480, Note_on_c, 0, 50, 95
4, 36720, Note_off_c, 0, 50, 0
4, 36720, Note_on_c, 0, 62, 95
4, 37200, Note_off_c, 0, 62, 0
4, 37200, Note_on_c, 0, 64, 95
4, 37680, Note_off_c, 0, 64, 0
4, 37680, Note_on_c, 0, 50, 95
4, 37920, Note_off_c, 0, 50, 0
4, 37920, Note_on_c, 0, 50, 95
4, 38160, Note_off_c, 0, 50, 0
4, 38160, Note_on_c, 0, 50, 95
4, 38400, Note_off_c, 0, 50, 0
4, 38400, Note_on_c, 0, 47, 95
4, 38880, Note_off_c, 0, 47, 0
4, 38880, Note_on_c, 0, 62, 95
4, 39360, Note_off_c, 0, 62, 0
4, 39360, Note_on_c, 0, 64, 95
4, 39840, Note_off_c, 0, 64, 0
4, 39840, Note_on_c, 0, 47, 95
4, 40080, Note_off_c, 0, 47, 0
4, 40080, Note_on_c, 0, 47, 95
4, 40320, Note_off_c, 0, 47, 0
4, 40320, Note_on_c, 0, 47, 95
4, 40560, Note_off_c, 0, 47, 0
4, 40560, Note_on_c, 0, 62, 95
4, 40800, Note_off_c, 0, 62, 0
4, 40800, Note_on_c, 0, 59, 85
4, 40840, Note_off_c, 0, 59, 0
4, 41040, Note_on_c, 0, 64, 95
4, 41520, Note_off_c, 0, 64, 0
4, 41520, Note_on_c, 0, 47, 95
4, 41760, Note_off_c, 0, 47, 0
4, 41760, Note_on_c, 0, 47, 95
4, 42000, Note_off_c, 0, 47, 0
4, 42000, Note_on_c, 0, 47, 95
4, 42240, Note_off_c, 0, 47, 0
4, 42240, Note_on_c, 0, 48, 95
4, 42720, Note_off_c, 0, 48, 0
4, 42720, Note_on_c, 0, 62, 95
4, 43200, Note_off_c, 0, 62, 0
4, 43200, Note_on_c, 0, 64, 95
4, 43680, Note_off_c, 0, 64, 0
4, 43680, Note_on_c, 0, 48, 95
4, 43920, Note_off_c, 0, 48, 0
4, 43920, Note_on_c, 0, 48, 95
4, 44160, Note_off_c, 0, 48, 0
4, 44160, Note_on_c, 0, 48, 95
4, 44400, Note_off_c, 0, 48, 0
4, 44400, Note_on_c, 0, 62, 95
4, 44640, Note_off_c, 0, 62, 0
4, 44640, Note_on_c, 0, 59, 85
4, 44680, Note_off_c, 0, 59, 0
4, 44880, Note_on_c, 0, 64, 95
4, 45360, Note_off_c, 0, 64, 0
4, 45360, Note_on_c, 0, 48, 95
4, 45600, Note_off_c, 0, 48, 0
4, 45600, Note_on_c, 0, 48, 95
4, 45840, Note_off_c, 0, 48, 0
4, 45840, Note_on_c, 0, 48, 95
4, 46080, Note_off_c, 0, 48, 0
4, 46080, Note_on_c, 0, 52, 95
4, 46320, Note_off_c, 0, 52, 0
4, 46320, Note_on_c, 0, 52, 95
4, 46560, Note_off_c, 0, 52, 0
4, 46560, Note_on_c, 0, 62, 95
4, 47040, Note_off_c, 0, 62, 0
4, 47040, Note_on_c, 0, 64, 95
4, 47520, Note_off_c, 0, 64, 0
4, 47520, Note_on_c, 0, 52, 95
4, 47760, Note_off_c, 0, 52, 0
4, 47760, Note_on_c, 0, 52, 95
4, 48000, Note_off_c, 0, 52, 0
4, 48000, Note_on_c, 0, 52, 95
4, 48240, Note_off_c, 0, 52, 0
4, 48240, Note_on_c, 0, 62, 95
4, 48720, Note_off_c, 0, 62, 0
4, 48720, Note_on_c, 0, 64, 95
4, 49200, Note_off_c, 0, 64, 0
4, 49200, Note_on_c, 0, 52, 95
4, 49440, Note_off_c, 0, 52, 0
4, 49440, Note_on_c, 0, 52, 95
4, 49680, Note_off_c, 0, 52, 0
4, 49680, Note_on_c, 0, 52, 95
4, 49920, Note_off_c, 0, 52, 0
4, 49920, Note_on_c, 0, 50, 95
4, 50400, Note_off_c, 0, 50, 0
4, 50400, Note_on_c, 0, 62, 95
4, 50880, Note_off_c, 0, 62, 0
4, 50880, Note_on_c, 0, 64, 95
4, 51360, Note_off_c, 0, 64, 0
4, 51360, Note_on_c, 0, 50, 95
4, 51600, Note_off_c, 0, 50, 0
4, 51600, Note_on_c, 0, 50, 95
4, 51840, Note_off_c, 0, 50, 0
4, 51840, Note_on_c, 0, 50, 95
4, 52080, Note_off_c, 0, 50, 0
4, 52080, Note_on_c, 0, 62, 95
4, 52560, Note_off_c, 0, 62, 0
4, 52560, Note_on_c, 0, 64, 95
4, 53040, Note_off_c, 0, 64, 0
4, 53040, Note_on_c, 0, 50, 95
4, 53280, Note_off_c, 0, 50, 0
4, 53280, Note_on_c, 0, 50, 95
4, 53520, Note_off_c, 0, 50, 0
4, 53520, Note_on_c, 0, 50, 95
4, 53760, Note_off_c, 0, 50, 0
4, 53760, Note_on_c, 0, 47, 95
4, 54240, Note_off_c, 0, 47, 0
4, 54240, Note_on_c, 0, 62, 95
4, 54720, Note_off_c, 0, 62, 0
4, 54720, Note_on_c, 0, 64, 95
4, 55200, Note_off_c, 0, 64, 0
4, 55200, Note_on_c, 0, 47, 95
4, 55440, Note_off_c, 0, 47, 0
4, 55440, Note_on_c, 0, 47, 95
4, 55680, Note_off_c, 0, 47, 0
4, 55680, Note_on_c, 0, 47, 95
4, 55920, Note_off_c, 0, 47, 0
4, 55920, Note_on_c, 0, 62, 95
4, 56160, Note_off_c, 0, 62, 0
4, 56160, Note_on_c, 0, 59, 85
4, 56200, Note_off_c, 0, 59, 0
4, 56400, Note_on_c, 0, 64, 95
4, 56880, Note_off_c, 0, 64, 0
4, 56880, Note_on_c, 0, 47, 95
4, 57120, Note_off_c, 0, 47, 0
4, 57120, Note_on_c, 0, 47, 95
4, 57360, Note_off_c, 0, 47, 0
4, 57360, Note_on_c, 0, 47, 95
4, 57600, Note_off_c, 0, 47, 0
4, 57600, Note_on_c, 0, 48, 95
4, 58080, Note_off_c, 0, 48, 0
4, 58080, Note_on_c, 0, 62, 95
4, 58560, Note_off_c, 0, 62, 0
4, 58560, Note_on_c, 0, 64, 95
4, 59040, Note_off_c, 0, 64, 0
4, 59040, Note_on_c, 0, 48, 95
4, 59280, Note_off_c, 0, 48, 0
4, 59280, Note_on_c, 0, 48, 95
4, 59520, Note_off_c, 0, 48, 0
4, 59520, Note_on_c, 0, 48, 95
4, 59760, Note_off_c, 0, 48, 0
4, 59760, Note_on_c, 0, 62, 95
4, 60000, Note_off_c, 0, 62, 0
4, 60000, Note_on_c, 0, 59, 85
4, 60040, Note_off_c, 0, 59, 0
4, 60240, Note_on_c, 0, 64, 95
4, 60720, Note_off_c, 0, 64, 0
4, 60720, Note_on_c, 0, 48, 95
4, 60960, Note_off_c, 0, 48, 0
4, 60960, Note_on_c, 0, 48, 95
4, 61200, Note_off_c, 0, 48, 0
4, 61200, Note_on_c, 0, 48, 95
4, 61440, Note_off_c, 0, 48, 0
4, 61440, Note_on_c, 0, 52, 95
4, 61680, Note_off_c, 0, 52, 0
4, 61680, Note_on_c, 0, 52, 95
4, 61920, Note_off_c, 0, 52, 0
4, 61920, Note_on_c, 0, 62, 95
4, 62400, Note_off_c, 0, 62, 0
4, 62400, Note_on_c, 0, 64, 95
4, 62880, Note_off_c, 0, 64, 0
4, 62880, Note_on_c, 0, 52, 95
4, 63120, Note_off_c, 0, 52, 0
4, 63120, Note_on_c, 0, 52, 95
4, 63360, Note_off_c, 0, 52, 0
4, 63360, Note_on_c, 0, 52, 95
4, 63600, Note_off_c, 0, 52, 0
4, 63600, Note_on_c, 0, 62, 95
4, 64080, Note_off_c, 0, 62, 0
4, 64080, Note_on_c, 0, 64, 95
4, 64560, Note_off_c, 0, 64, 0
4, 64560, Note_on_c, 0, 52, 95
4, 64800, Note_off_c, 0, 52, 0
4, 64800, Note_on_c, 0, 52, 95
4, 65040, Note_off_c, 0, 52, 0
4, 65040, Note_on_c, 0, 52, 95
4, 65280, Note_off_c, 0, 52, 0
4, 65280, Note_on_c, 0, 50, 95
4, 65760, Note_off_c, 0, 50, 0
4, 65760, Note_on_c, 0, 62, 95
4, 66240, Note_off_c, 0, 62, 0
4, 66240, Note_on_c, 0, 64, 95
4, 66720, Note_off_c, 0, 64, 0
4, 66720, Note_on_c, 0, 50, 95
4, 66960, Note_off_c, 0, 50, 0
4, 66960, Note_on_c, 0, 50, 95
4, 67200, Note_off_c, 0, 50, 0
4, 67200, Note_on_c, 0, 50, 95
4, 67440, Note_off_c, 0, 50, 0
4, 67440, Note_on_c, 0, 62, 95
4, 67920, Note_off_c, 0, 62, 0
4, 67920, Note_on_c, 0, 64, 95
4, 68400, Note_off_c, 0, 64, 0
4, 68400, Note_on_c, 0, 50, 95
4, 68640, Note_off_c, 0, 50, 0
4, 68640, Note_on_c, 0, 50, 95
4, 68880, Note_off_c, 0, 50, 0
4, 68880, Note_on_c, 0, 50, 95
4, 69120, Note_off_c, 0, 50, 0
4, 69120, Note_on_c, 0, 47, 95
4, 69600, Note_off_c, 0, 47, 0
4, 69600, Note_on_c, 0, 62, 95
4, 70080, Note_off_c, 0, 62, 0
4, 70080, Note_on_c, 0, 64, 95
4, 70560, Note_off_c, 0, 64, 0
4, 70560, Note_on_c, 0, 47, 95
4, 70800, Note_off_c, 0, 47, 0
4, 70800, Note_on_c, 0, 47, 95
4, 71040, Note_off_c, 0, 47, 0
4, 71040, Note_on_c, 0, 47, 95
4, 71280, Note_off_c, 0, 47, 0
4, 71280, Note_on_c, 0, 62, 95
4, 71520, Note_off_c, 0, 62, 0
4, 71520, Note_on_c, 0, 59, 85
4, 71560, Note_off_c, 0, 59, 0
4, 71760, Note_on_c, 0, 64, 95
4, 72240, Note_off_c, 0, 64, 0
4, 72240, Note_on_c, 0, 47, 95
4, 72480, Note_off_c, 0, 47, 0
4, 72480, Note_on_c, 0, 47, 95
4, 72720, Note_off_c, 0, 47, 0
4, 72720, Note_on_c, 0, 47, 95
4, 72960, Note_off_c, 0, 47, 0
4, 72960, Note_on_c, 0, 48, 95
4, 73440, Note_off_c, 0, 48, 0
4, 73440, Note_on_c, 0, 62, 95
4, 73920, Note_off_c, 0, 62, 0
4, 73920, Note_on_c, 0, 64, 95
4, 74400, Note_off_c, 0, 64, 0
4, 74400, Note_on_c, 0, 48, 95
4, 74640, Note_off_c, 0, 48, 0
4, 74640, Note_on_c, 0, 48, 95
4, 74880, Note_off_c, 0, 48, 0
4, 74880, Note_on_c, 0, 48, 95
4, 75120, Note_off_c, 0, 48, 0
4, 75120, Note_on_c, 0, 62, 95
4, 75360, Note_off_c, 0, 62, 0
4, 75360, Note_on_c, 0, 59, 85
4, 75400, Note_off_c, 0, 59, 0
4, 75600, Note_on_c, 0, 64, 95
4, 76080, Note_off_c, 0, 64, 0
4, 76080, Note_on_c, 0, 48, 95
4, 76320, Note_off_c, 0, 48, 0
4, 76320, Note_on_c, 0, 48, 95
4, 76560, Note_off_c, 0, 48, 0
4, 76560, Note_on_c, 0, 48, 95
4, 76800, Note_off_c, 0, 48, 0
4, 76800, Note_on_c, 0, 52, 95
4, 77040, Note_off_c, 0, 52, 0
4, 77040, Note_on_c, 0, 52, 95
4, 77280, Note_off_c, 0, 52, 0
4, 77280, Note_on_c, 0, 62, 95
4, 77760, Note_off_c, 0, 62, 0
4, 77760, Note_on_c, 0, 64, 95
4, 78240, Note_off_c, 0, 64, 0
4, 78240, Note_on_c, 0, 52, 95
4, 78480, Note_off_c, 0, 52, 0
4, 78480, Note_on_c, 0, 52, 95
4, 78720, Note_off_c, 0, 52, 0
4, 78720, Note_on_c, 0, 52, 95
4, 78960, Note_off_c, 0, 52, 0
4, 78960, Note_on_c, 0, 62, 95
4, 79440, Note_off_c, 0, 62, 0
4, 79440, Note_on_c, 0, 64, 95
4, 79920, Note_off_c, 0, 64, 0
4, 79920, Note_on_c, 0, 52, 95
4, 80160, Note_off_c, 0, 52, 0
4, 80160, Note_on_c, 0, 52, 95
4, 80400, Note_off_c, 0, 52, 0
4, 80400, Note_on_c, 0, 52, 95
4, 80640, Note_off_c, 0, 52, 0
4, 80640, Note_on_c, 0, 50, 95
4, 81120, Note_off_c, 0, 50, 0
4, 81120, Note_on_c, 0, 62, 95
4, 81600, Note_off_c, 0, 62, 0
4, 81600, Note_on_c, 0, 64, 95
4, 82080, Note_off_c, 0, 64, 0
4, 82080, Note_on_c, 0, 50, 95
4, 82320, Note_off_c, 0, 50, 0
4, 82320, Note_on_c, 0, 50, 95
4, 82560, Note_off_c, 0, 50, 0
4, 82560, Note_on_c, 0, 50, 95
4, 82800, Note_off_c, 0, 50, 0
4, 82800, Note_on_c, 0, 62, 95
4, 83280, Note_off_c, 0, 62, 0
4, 83280, Note_on_c, 0, 64, 95
4, 83760, Note_off_c, 0, 64, 0
4, 83760, Note_on_c, 0, 50, 95
4, 84000, Note_off_c, 0, 50, 0
4, 84000, Note_on_c, 0, 50, 95
4, 84240, Note_off_c, 0, 50, 0
4, 84240, Note_on_c, 0, 50, 95
4, 84480, Note_off_c, 0, 50, 0
4, 84480, Note_on_c, 0, 47, 95
4, 84960, Note_off_c, 0, 47, 0
4, 84960, Note_on_c, 0, 62, 95
4, 85440, Note_off_c, 0, 62, 0
4, 85440, Note_on_c, 0, 64, 95
4, 85920, Note_off_c, 0, 64, 0
4, 85920, Note_on_c, 0, 47, 95
4, 86160, Note_off_c, 0, 47, 0
4, 86160, Note_on_c, 0, 47, 95
4, 86400, Note_off_c, 0, 47, 0
4, 86400, Note_on_c, 0, 47, 95
4, 86640, Note_off_c, 0, 47, 0
4, 86640, Note_on_c, 0, 62, 95
4, 86880, Note_off_c, 0, 62, 0
4, 86880, Note_on_c, 0, 59, 85
4, 86920, Note_off_c, 0, 59, 0
4, 87120, Note_on_c, 0, 64, 95
4, 87600, Note_off_c, 0, 64, 0
4, 87600, Note_on_c, 0, 47, 95
4, 87840, Note_off_c, 0, 47, 0
4, 87840, Note_on_c, 0, 47, 95
4, 88080, Note_off_c, 0, 47, 0
4, 88080, Note_on_c, 0, 47, 95
4, 88320, Note_off_c, 0, 47, 0
4, 88320, Note_on_c, 0, 67, 95
4, 88560, Note_off_c, 0, 67, 0
4, 88560, Note_on_c, 0, 64, 95
4, 88800, Note_off_c, 0, 64, 0
4, 88800, Note_on_c, 0, 60, 95
4, 89040, Note_off_c, 0, 60, 0
4, 89040, Note_on_c, 0, 67, 95
4, 89280, Note_off_c, 0, 67, 0
4, 89280, Note_on_c, 0, 64, 95
4, 89520, Note_off_c, 0, 64, 0
4, 89520, Note_on_c, 0, 60, 95
4, 89760, Note_off_c, 0, 60, 0
4, 89760, Note_on_c, 0, 67, 95
4, 90000, Note_off_c, 0, 67, 0
4, 90000, Note_on_c, 0, 64, 95
4, 90240, Note_off_c, 0, 64, 0
4, 90240, Note_on_c, 0, 60, 95
4, 90480, Note_off_c, 0, 60, 0
4, 90480, Note_on_c, 0, 67, 95
4, 90720, Note_off_c, 0, 67, 0
4, 90720, Note_on_c, 0, 64, 95
4, 90960, Note_off_c, 0, 64, 0
4, 90960, Note_on_c, 0, 60, 95
4, 91200, Note_off_c, 0, 60, 0
4, 91200, Note_on_c, 0, 67, 95
4, 91440, Note_off_c, 0, 67, 0
4, 91440, Note_on_c, 0, 64, 95
4, 91680, Note_off_c, 0, 64, 0
4, 91680, Note_on_c, 0, 60, 95
4, 91920, Note_off_c, 0, 60, 0
4, 91920, Note_on_c, 0, 67, 95
4, 92160, Note_off_c, 0, 67, 0
4, 92160, Note_on_c, 0, 67, 95
4, 92160, Note_on_c, 0, 62, 95
4, 92160, Note_on_c, 0, 59, 95
4, 92160, Note_on_c, 0, 55, 95
4, 92160, Note_on_c, 0, 50, 95
4, 92160, Note_on_c, 0, 43, 95
4, 93120, Note_off_c, 0, 67, 0
4, 93120, Note_off_c, 0, 62, 0
4, 93120, Note_off_c, 0, 59, 0
4, 93120, Note_off_c, 0, 55, 0
4, 93120, Note_off_c, 0, 50, 0
4, 93120, Note_off_c, 0, 43, 0
4, 93120, Note_on_c, 0, 67, 95
4, 93120, Note_on_c, 0, 62, 95
4, 93120, Note_on_c, 0, 59, 95
4, 93120, Note_on_c, 0, 55, 95
4, 93120, Note_on_c, 0, 50, 95
4, 93120, Note_on_c, 0, 43, 95
4, 93600, Note_off_c, 0, 67, 0
4, 93600, Note_off_c, 0, 62, 0
4, 93600, Note_off_c, 0, 59, 0
4, 93600, Note_off_c, 0, 55, 0
4, 93600, Note_off_c, 0, 50, 0
4, 93600, Note_off_c, 0, 43, 0
4, 93600, Note_on_c, 0, 69, 95
4, 93600, Note_on_c, 0, 66, 95
4, 93600, Note_on_c, 0, 62, 95
4, 93600, Note_on_c, 0, 57, 95
4, 93600, Note_on_c, 0, 50, 95
4, 94560, Note_off_c, 0, 69, 0
4, 94560, Note_off_c, 0, 66, 0
4, 94560, Note_off_c, 0, 62, 0
4, 94560, Note_off_c, 0, 57, 0
4, 94560, Note_off_c, 0, 50, 0
4, 94560, Note_on_c, 0, 69, 95
4, 94560, Note_on_c, 0, 66, 95
4, 94560, Note_on_c, 0, 62, 95
4, 94560, Note_on_c, 0, 57, 95
4, 94560, Note_on_c, 0, 50, 95
4, 95040, Note_off_c, 0, 69, 0
4, 95040, Note_off_c, 0, 66, 0
4, 95040, Note_off_c, 0, 62, 0
4, 95040, Note_off_c, 0, 57, 0
4, 95040, Note_off_c, 0, 50, 0
4, 95040, Note_on_c, 0, 69, 95
4, 95040, Note_on_c, 0, 66, 95
4, 95040, Note_on_c, 0, 62, 95
4, 95040, Note_on_c, 0, 57, 95
4, 95040, Note_on_c, 0, 50, 95
4, 95280, Note_off_c, 0, 69, 0
4, 95280, Note_off_c, 0, 66, 0
4, 95280, Note_off_c, 0, 62, 0
4, 95280, Note_off_c, 0, 57, 0
4, 95280, Note_off_c, 0, 50, 0
4, 95280, Note_on_c, 0, 69, 95
4, 95280, Note_on_c, 0, 66, 95
4, 95280, Note_on_c, 0, 62, 95
4, 95280, Note_on_c, 0, 57, 95
4, 95280, Note_on_c, 0, 50, 95
4, 95520, Note_off_c, 0, 69, 0
4, 95520, Note_off_c, 0, 66, 0
4, 95520, Note_off_c, 0, 62, 0
4, 95520, Note_off_c, 0, 57, 0
4, 95520, Note_off_c, 0, 50, 0
4, 95520, Note_on_c, 0, 69, 95
4, 95520, Note_on_c, 0, 66, 95
4, 95520, Note_on_c, 0, 62, 95
4, 95520, Note_on_c, 0, 57, 95
4, 95520, Note_on_c, 0, 50, 95
4, 96000, Note_off_c, 0, 69, 0
4, 96000, Note_off_c, 0, 66, 0
4, 96000, Note_off_c, 0, 62, 0
4, 96000, Note_off_c, 0, 57, 0
4, 96000, Note_off_c, 0, 50, 0
4, 96000, Note_on_c, 0, 66, 95
4, 96000, Note_on_c, 0, 62, 95
4, 96000, Note_on_c, 0, 59, 95
4, 96000, Note_on_c, 0, 54, 95
4, 96000, Note_on_c, 0, 47, 95
4, 96480, Note_off_c, 0, 66, 0
4, 96480, Note_off_c, 0, 62, 0
4, 96480, Note_off_c, 0, 59, 0
4, 96480, Note_off_c, 0, 54, 0
4, 96480, Note_off_c, 0, 47, 0
4, 96480, Note_on_c, 0, 66, 95
4, 96480, Note_on_c, 0, 62, 95
4, 96480, Note_on_c, 0, 59, 95
4, 96480, Note_on_c, 0, 54, 95
4, 96480, Note_on_c, 0, 47, 95
4, 96720, Note_off_c, 0, 66, 0
4, 96720, Note_off_c, 0, 62, 0
4, 96720, Note_off_c, 0, 59, 0
4, 96720, Note_off_c, 0, 54, 0
4, 96720, Note_off_c, 0, 47, 0
4, 96720, Note_on_c, 0, 66, 95
4, 96720, Note_on_c, 0, 62, 95
4, 96720, Note_on_c, 0, 59, 95
4, 96720, Note_on_c, 0, 54, 95
4, 96720, Note_on_c, 0, 47, 95
4, 96960, Note_off_c, 0, 66, 0
4, 96960, Note_off_c, 0, 62, 0
4, 96960, Note_off_c, 0, 59, 0
4, 96960, Note_off_c, 0, 54, 0
4, 96960, Note_off_c, 0, 47, 0
4, 96960, Note_on_c, 0, 66, 95
4, 96960, Note_on_c, 0, 62, 95
4, 96960, Note_on_c, 0, 59, 95
4, 96960, Note_on_c, 0, 54, 95
4, 96960, Note_on_c, 0, 47, 95
4, 97440, Note_off_c, 0, 66, 0
4, 97440, Note_off_c, 0, 62, 0
4, 97440, Note_off_c, 0, 59, 0
4, 97440, Note_off_c, 0, 54, 0
4, 97440, Note_off_c, 0, 47, 0
4, 97440, Note_on_c, 0, 67, 95
4, 97440, Note_on_c, 0, 64, 95
4, 97440, Note_on_c, 0, 60, 95
4, 97440, Note_on_c, 0, 55, 95
4, 97440, Note_on_c, 0, 48, 95
4, 98400, Note_off_c, 0, 67, 0
4, 98400, Note_off_c, 0, 64, 0
4, 98400, Note_off_c, 0, 60, 0
4, 98400, Note_off_c, 0, 55, 0
4, 98400, Note_off_c, 0, 48, 0
4, 98400, Note_on_c, 0, 71, 95
4, 98400, Note_on_c, 0, 64, 95
4, 98400, Note_on_c, 0, 60, 95
4, 98400, Note_on_c, 0, 55, 95
4, 98400, Note_on_c, 0, 48, 95
4, 98640, Note_off_c, 0, 71, 0
4, 98640, Note_off_c, 0, 64, 0
4, 98640, Note_off_c, 0, 60, 0
4, 98640, Note_off_c, 0, 55, 0
4, 98640, Note_off_c, 0, 48, 0
4, 98640, Note_on_c, 0, 71, 95
4, 98640, Note_on_c, 0, 64, 95
4, 98640, Note_on_c, 0, 60, 95
4, 98640, Note_on_c, 0, 55, 95
4, 98640, Note_on_c, 0, 48, 95
4, 99120, Note_off_c, 0, 71, 0
4, 99120, Note_off_c, 0, 64, 0
4, 99120, Note_off_c, 0, 60, 0
4, 99120, Note_off_c, 0, 55, 0
4, 99120, Note_off_c, 0, 48, 0
4, 99120, Note_on_c, 0, 64, 85
4, 99120, Note_on_c, 0, 59, 85
4, 99120, Note_on_c, 0, 55, 85
4, 99120, Note_on_c, 0, 50, 85
4, 99120, Note_on_c, 0, 45, 85
4, 99160, Note_off_c, 0, 64, 0
4, 99160, Note_off_c, 0, 59, 0
4, 99160, Note_off_c, 0, 55, 0
4, 99160, Note_off_c, 0, 50, 0
4, 99160, Note_off_c, 0, 45, 0
4, 99360, Note_on_c, 0, 71, 95
4, 99360, Note_on_c, 0, 64, 95
4, 99360, Note_on_c, 0, 60, 95
4, 99360, Note_on_c, 0, 55, 95
4, 99360, Note_on_c, 0, 48, 95
4, 99840, Note_off_c, 0, 71, 0
4, 99840, Note_off_c, 0, 64, 0
4, 99840, Note_off_c, 0, 60, 0
4, 99840, Note_off_c, 0, 55, 0
4, 99840, Note_off_c, 0, 48, 0
4, 99840, Note_on_c, 0, 67, 95
4, 99840, Note_on_c, 0, 62, 95
4, 99840, Note_on_c, 0, 59, 95
4, 99840, Note_on_c, 0, 55, 95
4, 99840, Note_on_c, 0, 50, 95
4, 99840, Note_on_c, 0, 43, 95
4, 100800, Note_off_c, 0, 67, 0
4, 100800, Note_off_c, 0, 62, 0
4, 100800, Note_off_c, 0, 59, 0
4, 100800, Note_off_c, 0, 55, 0
4, 100800, Note_off_c, 0, 50, 0
4, 100800, Note_off_c, 0, 43, 0
4, 100800, Note_on_c, 0, 67, 95
4, 100800, Note_on_c, 0, 62, 95
4, 100800, Note_on_c, 0, 59, 95
4, 100800, Note_on_c, 0, 55, 95
4, 100800, Note_on_c, 0, 50, 95
4, 100800, Note_on_c, 0, 43, 95
4, 101280, Note_off_c, 0, 67, 0
4, 101280, Note_off_c, 0, 62, 0
4, 101280, Note_off_c, 0, 59, 0
4, 101280, Note_off_c, 0, 55, 0
4, 101280, Note_off_c, 0, 50, 0
4, 101280, Note_off_c, 0, 43, 0
4, 101280, Note_on_c, 0, 69, 95
4, 101280, Note_on_c, 0, 66, 95
4, 101280, Note_on_c, 0, 62, 95
4, 101280, Note_on_c, 0, 57, 95
4, 101280, Note_on_c, 0, 50, 95
4, 102240, Note_off_c, 0, 69, 0
4, 102240, Note_off_c, 0, 66, 0
4, 102240, Note_off_c, 0, 62, 0
4, 102240, Note_off_c, 0, 57, 0
4, 102240, Note_off_c, 0, 50, 0
4, 102240, Note_on_c, 0, 69, 95
4, 102240, Note_on_c, 0, 66, 95
4, 102240, Note_on_c, 0, 62, 95
4, 102240, Note_on_c, 0, 57, 95
4, 102240, Note_on_c, 0, 50, 95
4, 102720, Note_off_c, 0, 69, 0
4, 102720, Note_off_c, 0, 66, 0
4, 102720, Note_off_c, 0, 62, 0
4, 102720, Note_off_c, 0, 57, 0
4, 102720, Note_off_c, 0, 50, 0
4, 102720, Note_on_c, 0, 69, 95
4, 102720, Note_on_c, 0, 66, 95
4, 102720, Note_on_c, 0, 62, 95
4, 102720, Note_on_c, 0, 57, 95
4, 102720, Note_on_c, 0, 50, 95
4, 102960, Note_off_c, 0, 69, 0
4, 102960, Note_off_c, 0, 66, 0
4, 102960, Note_off_c, 0, 62, 0
4, 102960, Note_off_c, 0, 57, 0
4, 102960, Note_off_c, 0, 50, 0
4, 102960, Note_on_c, 0, 69, 95
4, 102960, Note_on_c, 0, 66, 95
4, 102960, Note_on_c, 0, 62, 95
4, 102960, Note_on_c, 0, 57, 95
4, 102960, Note_on_c, 0, 50, 95
4, 103200, Note_off_c, 0, 69, 0
4, 103200, Note_off_c, 0, 66, 0
4, 103200, Note_off_c, 0, 62, 0
4, 103200, Note_off_c, 0, 57, 0
4, 103200, Note_off_c, 0, 50, 0
4, 103200, Note_on_c, 0, 69, 95
4, 103200, Note_on_c, 0, 66, 95
4, 103200, Note_on_c, 0, 62, 95
4, 103200, Note_on_c, 0, 57, 95
4, 103200, Note_on_c, 0, 50, 95
4, 103680, Note_off_c, 0, 69, 0
4, 103680, Note_off_c, 0, 66, 0
4, 103680, Note_off_c, 0, 62, 0
4, 103680, Note_off_c, 0, 57, 0
4, 103680, Note_off_c, 0, 50, 0
4, 103680, Note_on_c, 0, 66, 95
4, 103680, Note_on_c, 0, 62, 95
4, 103680, Note_on_c, 0, 59, 95
4, 103680, Note_on_c, 0, 54, 95
4, 103680, Note_on_c, 0, 47, 95
4, 104160, Note_off_c, 0, 66, 0
4, 104160, Note_off_c, 0, 62, 0
4, 104160, Note_off_c, 0, 59, 0
4, 104160, Note_off_c, 0, 54, 0
4, 104160, Note_off_c, 0, 47, 0
4, 104160, Note_on_c, 0, 66, 95
4, 104160, Note_on_c, 0, 62, 95
4, 104160, Note_on_c, 0, 59, 95
4, 104160, Note_on_c, 0, 54, 95
4, 104160, Note_on_c, 0, 47, 95
4, 104400, Note_off_c, 0, 66, 0
4, 104400, Note_off_c, 0, 62, 0
4, 104400, Note_off_c, 0, 59, 0
4, 104400, Note_off_c, 0, 54, 0
4, 104400, Note_off_c, 0, 47, 0
4, 104400, Note_on_c, 0, 66, 95
4, 104400, Note_on_c, 0, 62, 95
4, 104400, Note_on_c, 0, 59, 95
4, 104400, Note_on_c, 0, 54, 95
4, 104400, Note_on_c, 0, 47, 95
4, 104640, Note_off_c, 0, 66, 0
4, 104640, Note_off_c, 0, 62, 0
4, 104640, Note_off_c, 0, 59, 0
4, 104640, Note_off_c, 0, 54, 0
4, 104640, Note_off_c, 0, 47, 0
4, 104640, Note_on_c, 0, 66, 95
4, 104640, Note_on_c, 0, 62, 95
4, 104640, Note_on_c, 0, 59, 95
4, 104640, Note_on_c, 0, 54, 95
4, 104640, Note_on_c, 0, 47, 95
4, 105120, Note_off_c, 0, 66, 0
4, 105120, Note_off_c, 0, 62, 0
4, 105120, Note_off_c, 0, 59, 0
4, 105120, Note_off_c, 0, 54, 0
4, 105120, Note_off_c, 0, 47, 0
4, 105120, Note_on_c, 0, 67, 95
4, 105120, Note_on_c, 0, 64, 95
4, 105120, Note_on_c, 0, 60, 95
4, 105120, Note_on_c, 0, 55, 95
4, 105120, Note_on_c, 0, 48, 95
4, 106080, Note_off_c, 0, 67, 0
4, 106080, Note_off_c, 0, 64, 0
4, 106080, Note_off_c, 0, 60, 0
4, 106080, Note_off_c, 0, 55, 0
4, 106080, Note_off_c, 0, 48, 0
4, 106080, Note_on_c, 0, 67, 95
4, 106080, Note_on_c, 0, 64, 95
4, 106080, Note_on_c, 0, 60, 95
4, 106080, Note_on_c, 0, 55, 95
4, 106080, Note_on_c, 0, 48, 95
4, 106320, Note_off_c, 0, 67, 0
4, 106320, Note_off_c, 0, 64, 0
4, 106320, Note_off_c, 0, 60, 0
4, 106320, Note_off_c, 0, 55, 0
4, 106320, Note_off_c, 0, 48, 0
4, 106320, Note_on_c, 0, 67, 95
4, 106320, Note_on_c, 0, 64, 95
4, 106320, Note_on_c, 0, 60, 95
4, 106320, Note_on_c, 0, 55, 95
4, 106320, Note_on_c, 0, 48, 95
4, 106800, Note_off_c, 0, 67, 0
4, 106800, Note_off_c, 0, 64, 0
4, 106800, Note_off_c, 0, 60, 0
4, 106800, Note_off_c, 0, 55, 0
4, 106800, Note_off_c, 0, 48, 0
4, 106800, Note_on_c, 0, 64, 85
4, 106800, Note_on_c, 0, 59, 85
4, 106800, Note_on_c, 0, 55, 85
4, 106800, Note_on_c, 0, 50, 85
4, 106800, Note_on_c, 0, 45, 85
4, 106840, Note_off_c, 0, 64, 0
4, 106840, Note_off_c, 0, 59, 0
4, 106840, Note_off_c, 0, 55, 0
4, 106840, Note_off_c, 0, 50, 0
4, 106840, Note_off_c, 0, 45, 0
4, 107040, Note_on_c, 0, 67, 95
4, 107040, Note_on_c, 0, 64, 95
4, 107040, Note_on_c, 0, 60, 95
4, 107040, Note_on_c, 0, 55, 95
4, 107040, Note_on_c, 0, 48, 95
4, 107520, Note_off_c, 0, 67, 0
4, 107520, Note_off_c, 0, 64, 0
4, 107520, Note_off_c, 0, 60, 0
4, 107520, Note_off_c, 0, 55, 0
4, 107520, Note_off_c, 0, 48, 0
4, 107520, Note_on_c, 0, 67, 95
4, 107520, Note_on_c, 0, 62, 95
4, 107520, Note_on_c, 0, 59, 95
4, 107520, Note_on_c, 0, 55, 95
4, 107520, Note_on_c, 0, 50, 95
4, 107520, Note_on_c, 0, 43, 95
4, 108480, Note_off_c, 0, 67, 0
4, 108480, Note_off_c, 0, 62, 0
4, 108480, Note_off_c, 0, 59, 0
4, 108480, Note_off_c, 0, 55, 0
4, 108480, Note_off_c, 0, 50, 0
4, 108480, Note_off_c, 0, 43, 0
4, 108480, Note_on_c, 0, 67, 95
4, 108480, Note_on_c, 0, 62, 95
4, 108480, Note_on_c, 0, 59, 95
4, 108480, Note_on_c, 0, 55, 95
4, 108480, Note_on_c, 0, 50, 95
4, 108480, Note_on_c, 0, 43, 95
4, 108960, Note_off_c, 0, 67, 0
4, 108960, Note_off_c, 0, 62, 0
4, 108960, Note_off_c, 0, 59, 0
4, 108960, Note_off_c, 0, 55, 0
4, 108960, Note_off_c, 0, 50, 0
4, 108960, Note_off_c, 0, 43, 0
4, 108960, Note_on_c, 0, 69, 95
4, 108960, Note_on_c, 0, 66, 95
4, 108960, Note_on_c, 0, 62, 95
4, 108960, Note_on_c, 0, 57, 95
4, 108960, Note_on_c, 0, 50, 95
4, 109920, Note_off_c, 0, 69, 0
4, 109920, Note_off_c, 0, 66, 0
4, 109920, Note_off_c, 0, 62, 0
4, 109920, Note_off_c, 0, 57, 0
4, 109920, Note_off_c, 0, 50, 0
4, 109920, Note_on_c, 0, 69, 95
4, 109920, Note_on_c, 0, 66, 95
4, 109920, Note_on_c, 0, 62, 95
4, 109920, Note_on_c, 0, 57, 95
4, 109920, Note_on_c, 0, 50, 95
4, 110400, Note_off_c, 0, 69, 0
4, 110400, Note_off_c, 0, 66, 0
4, 110400, Note_off_c, 0, 62, 0
4, 110400, Note_off_c, 0, 57, 0
4, 110400, Note_off_c, 0, 50, 0
4, 110400, Note_on_c, 0, 69, 95
4, 110400, Note_on_c, 0, 66, 95
4, 110400, Note_on_c, 0, 62, 95
4, 110400, Note_on_c, 0, 57, 95
4, 110400, Note_on_c, 0, 50, 95
4, 110640, Note_off_c, 0, 69, 0
4, 110640, Note_off_c, 0, 66, 0
4, 110640, Note_off_c, 0, 62, 0
4, 110640, Note_off_c, 0, 57, 0
4, 110640, Note_off_c, 0, 50, 0
4, 110640, Note_on_c, 0, 69, 95
4, 110640, Note_on_c, 0, 66, 95
4, 110640, Note_on_c, 0, 62, 95
4, 110640, Note_on_c, 0, 57, 95
4, 110640, Note_on_c, 0, 50, 95
4, 110880, Note_off_c, 0, 69, 0
4, 110880, Note_off_c, 0, 66, 0
4, 110880, Note_off_c, 0, 62, 0
4, 110880, Note_off_c, 0, 57, 0
4, 110880, Note_off_c, 0, 50, 0
4, 110880, Note_on_c, 0, 69, 95
4, 110880, Note_on_c, 0, 66, 95
4, 110880, Note_on_c, 0, 62, 95
4, 110880, Note_on_c, 0, 57, 95
4, 110880, Note_on_c, 0, 50, 95
4, 111360, Note_off_c, 0, 69, 0
4, 111360, Note_off_c, 0, 66, 0
4, 111360, Note_off_c, 0, 62, 0
4, 111360, Note_off_c, 0, 57, 0
4, 111360, Note_off_c, 0, 50, 0
4, 111360, Note_on_c, 0, 66, 95
4, 111360, Note_on_c, 0, 62, 95
4, 111360, Note_on_c, 0, 59, 95
4, 111360, Note_on_c, 0, 54, 95
4, 111360, Note_on_c, 0, 47, 95
4, 111840, Note_off_c, 0, 66, 0
4, 111840, Note_off_c, 0, 62, 0
4, 111840, Note_off_c, 0, 59, 0
4, 111840, Note_off_c, 0, 54, 0
4, 111840, Note_off_c, 0, 47, 0
4, 111840, Note_on_c, 0, 66, 95
4, 111840, Note_on_c, 0, 62, 95
4, 111840, Note_on_c, 0, 59, 95
4, 111840, Note_on_c, 0, 54, 95
4, 111840, Note_on_c, 0, 47, 95
4, 112080, Note_off_c, 0, 66, 0
4, 112080, Note_off_c, 0, 62, 0
4, 112080, Note_off_c, 0, 59, 0
4, 112080, Note_off_c, 0, 54, 0
4, 112080, Note_off_c, 0, 47, 0
4, 112080, Note_on_c, 0, 66, 95
4, 112080, Note_on_c, 0, 62, 95
4, 112080, Note_on_c, 0, 59, 95
4, 112080, Note_on_c, 0, 54, 95
4, 112080, Note_on_c, 0, 47, 95
4, 112320, Note_off_c, 0, 66, 0
4, 112320, Note_off_c, 0, 62, 0
4, 112320, Note_off_c, 0, 59, 0
4, 112320, Note_off_c, 0, 54, 0
4, 112320, Note_off_c, 0, 47, 0
4, 112320, Note_on_c, 0, 66, 95
4, 112320, Note_on_c, 0, 62, 95
4, 112320, Note_on_c, 0, 59, 95
4, 112320, Note_on_c, 0, 54, 95
4, 112320, Note_on_c, 0, 47, 95
4, 112800, Note_off_c, 0, 66, 0
4, 112800, Note_off_c, 0, 62, 0
4, 112800, Note_off_c, 0, 59, 0
4, 112800, Note_off_c, 0, 54, 0
4, 112800, Note_off_c, 0, 47, 0
4, 112800, Note_on_c, 0, 67, 95
4, 112800, Note_on_c, 0, 64, 95
4, 112800, Note_on_c, 0, 60, 95
4, 112800, Note_on_c, 0, 55, 95
4, 112800, Note_on_c, 0, 48, 95
4, 113760, Note_off_c, 0, 67, 0
4, 113760, Note_off_c, 0, 64, 0
4, 113760, Note_off_c, 0, 60, 0
4, 113760, Note_off_c, 0, 55, 0
4, 113760, Note_off_c, 0, 48, 0
4, 113760, Note_on_c, 0, 71, 95
4, 113760, Note_on_c, 0, 64, 95
4, 113760, Note_on_c, 0, 60, 95
4, 113760, Note_on_c, 0, 55, 95
4, 113760, Note_on_c, 0, 48, 95
4, 114000, Note_off_c, 0, 71, 0
4, 114000, Note_off_c, 0, 64, 0
4, 114000, Note_off_c, 0, 60, 0
4, 114000, Note_off_c, 0, 55, 0
4, 114000, Note_off_c, 0, 48, 0
4, 114000, Note_on_c, 0, 71, 95
4, 114000, Note_on_c, 0, 64, 95
4, 114000, Note_on_c, 0, 60, 95
4, 114000, Note_on_c, 0, 55, 95
4, 114000, Note_on_c, 0, 48, 95
4, 114480, Note_off_c, 0, 71, 0
4, 114480, Note_off_c, 0, 64, 0
4, 114480, Note_off_c, 0, 60, 0
4, 114480, Note_off_c, 0, 55, 0
4, 114480, Note_off_c, 0, 48, 0
4, 114480, Note_on_c, 0, 64, 85
4, 114480, Note_on_c, 0, 59, 85
4, 114480, Note_on_c, 0, 55, 85
4, 114480, Note_on_c, 0, 50, 85
4, 114480, Note_on_c, 0, 45, 85
4, 114520, Note_off_c, 0, 64, 0
4, 114520, Note_off_c, 0, 59, 0
4, 114520, Note_off_c, 0, 55, 0
4, 114520, Note_off_c, 0, 50, 0
4, 114520, Note_off_c, 0, 45, 0
4, 114720, Note_on_c, 0, 71, 95
4, 114720, Note_on_c, 0, 64, 95
4, 114720, Note_on_c, 0, 60, 95
4, 114720, Note_on_c, 0, 55, 95
4, 114720, Note_on_c, 0, 48, 95
4, 115200, Note_off_c, 0, 71, 0
4, 115200, Note_off_c, 0, 64, 0
4, 115200, Note_off_c, 0, 60, 0
4, 115200, Note_off_c, 0, 55, 0
4, 115200, Note_off_c, 0, 48, 0
4, 115200, Note_on_c, 0, 67, 95
4, 115200, Note_on_c, 0, 62, 95
4, 115200, Note_on_c, 0, 59, 95
4, 115200, Note_on_c, 0, 55, 95
4, 115200, Note_on_c, 0, 50, 95
4, 115200, Note_on_c, 0, 43, 95
4, 116160, Note_off_c, 0, 67, 0
4, 116160, Note_off_c, 0, 62, 0
4, 116160, Note_off_c, 0, 59, 0
4, 116160, Note_off_c, 0, 55, 0
4, 116160, Note_off_c, 0, 50, 0
4, 116160, Note_off_c, 0, 43, 0
4, 116160, Note_on_c, 0, 67, 95
4, 116160, Note_on_c, 0, 62, 95
4, 116160, Note_on_c, 0, 59, 95
4, 116160, Note_on_c, 0, 55, 95
4, 116160, Note_on_c, 0, 50, 95
4, 116160, Note_on_c, 0, 43, 95
4, 116640, Note_off_c, 0, 67, 0
4, 116640, Note_off_c, 0, 62, 0
4, 116640, Note_off_c, 0, 59, 0
4, 116640, Note_off_c, 0, 55, 0
4, 116640, Note_off_c, 0, 50, 0
4, 116640, Note_on_c, 0, 69, 95
4, 116640, Note_on_c, 0, 66, 95
4, 116640, Note_on_c, 0, 62, 95
4, 116640, Note_on_c, 0, 57, 95
4, 116640, Note_on_c, 0, 50, 95
4, 117360, Note_off_c, 0, 43, 0
4, 117600, Note_off_c, 0, 69, 0
4, 117600, Note_off_c, 0, 66, 0
4, 117600, Note_off_c, 0, 62, 0
4, 117600, Note_off_c, 0, 57, 0
4, 117600, Note_off_c, 0, 50, 0
4, 117600, Note_on_c, 0, 69, 95
4, 117600, Note_on_c, 0, 66, 95
4, 117600, Note_on_c, 0, 62, 95
4, 117600, Note_on_c, 0, 57, 95
4, 117600, Note_on_c, 0, 50, 95
4, 118080, Note_off_c, 0, 69, 0
4, 118080, Note_off_c, 0, 66, 0
4, 118080, Note_off_c, 0, 62, 0
4, 118080, Note_off_c, 0, 57, 0
4, 118080, Note_off_c, 0, 50, 0
4, 118080, Note_on_c, 0, 69, 95
4, 118080, Note_on_c, 0, 66, 95
4, 118080, Note_on_c, 0, 62, 95
4, 118080, Note_on_c, 0, 57, 95
4, 118080, Note_on_c, 0, 50, 95
4, 118320, Note_off_c, 0, 69, 0
4, 118320, Note_off_c, 0, 66, 0
4, 118320, Note_off_c, 0, 62, 0
4, 118320, Note_off_c, 0, 57, 0
4, 118320, Note_off_c, 0, 50, 0
4, 118320, Note_on_c, 0, 69, 95
4, 118320, Note_on_c, 0, 66, 95
4, 118320, Note_on_c, 0, 62, 95
4, 118320, Note_on_c, 0, 57, 95
4, 118320, Note_on_c, 0, 50, 95
4, 118560, Note_off_c, 0, 69, 0
4, 118560, Note_off_c, 0, 66, 0
4, 118560, Note_off_c, 0, 62, 0
4, 118560, Note_off_c, 0, 57, 0
4, 118560, Note_off_c, 0, 50, 0
4, 118560, Note_on_c, 0, 69, 95
4, 118560, Note_on_c, 0, 66, 95
4, 118560, Note_on_c, 0, 62, 95
4, 118560, Note_on_c, 0, 57, 95
4, 118560, Note_on_c, 0, 50, 95
4, 119040, Note_off_c, 0, 69, 0
4, 119040, Note_off_c, 0, 66, 0
4, 119040, Note_off_c, 0, 62, 0
4, 119040, Note_off_c, 0, 57, 0
4, 119040, Note_off_c, 0, 50, 0
4, 119040, Note_on_c, 0, 66, 95
4, 119040, Note_on_c, 0, 62, 95
4, 119040, Note_on_c, 0, 59, 95
4, 119040, Note_on_c, 0, 54, 95
4, 119040, Note_on_c, 0, 47, 95
4, 119520, Note_off_c, 0, 66, 0
4, 119520, Note_off_c, 0, 62, 0
4, 119520, Note_off_c, 0, 59, 0
4, 119520, Note_off_c, 0, 54, 0
4, 119520, Note_off_c, 0, 47, 0
4, 120000, Note_on_c, 0, 71, 95
4, 120000, Note_on_c, 0, 64, 95
4, 120000, Note_on_c, 0, 60, 95
4, 120000, Note_on_c, 0, 55, 95
4, 120000, Note_on_c, 0, 48, 95
4, 122880, Note_off_c, 0, 71, 0
4, 122880, Note_off_c, 0, 64, 0
4, 122880, Note_off_c, 0, 60, 0
4, 122880, Note_off_c, 0, 55, 0
4, 122880, Note_off_c, 0, 48, 0
4, 122880, Note_on_c, 0, 52, 95
4, 123120, Note_off_c, 0, 52, 0
4, 123120, Note_on_c, 0, 52, 95
4, 123360, Note_off_c, 0, 52, 0
4, 123360, Note_on_c, 0, 62, 95
4, 123840, Note_off_c, 0, 62, 0
4, 123840, Note_on_c, 0, 64, 95
4, 124320, Note_off_c, 0, 64, 0
4, 124320, Note_on_c, 0, 52, 95
4, 124560, Note_off_c, 0, 52, 0
4, 124560, Note_on_c, 0, 52, 95
4, 124800, Note_off_c, 0, 52, 0
4, 124800, Note_on_c, 0, 52, 95
4, 125040, Note_off_c, 0, 52, 0
4, 125040, Note_on_c, 0, 62, 95
4, 125520, Note_off_c, 0, 62, 0
4, 125520, Note_on_c, 0, 64, 95
4, 126000, Note_off_c, 0, 64, 0
4, 126000, Note_on_c, 0, 52, 95
4, 126240, Note_off_c, 0, 52, 0
4, 126240, Note_on_c, 0, 52, 95
4, 126480, Note_off_c, 0, 52, 0
4, 126480, Note_on_c, 0, 52, 95
4, 126720, Note_off_c, 0, 52, 0
4, 126720, Note_on_c, 0, 50, 95
4, 127200, Note_off_c, 0, 50, 0
4, 127200, Note_on_c, 0, 62, 95
4, 127680, Note_off_c, 0, 62, 0
4, 127680, Note_on_c, 0, 64, 95
4, 128160, Note_off_c, 0, 64, 0
4, 128160, Note_on_c, 0, 50, 95
4, 128400, Note_off_c, 0, 50, 0
4, 128400, Note_on_c, 0, 50, 95
4, 128640, Note_off_c, 0, 50, 0
4, 128640, Note_on_c, 0, 50, 95
4, 128880, Note_off_c, 0, 50, 0
4, 128880, Note_on_c, 0, 62, 95
4, 129360, Note_off_c, 0, 62, 0
4, 129360, Note_on_c, 0, 64, 95
4, 129840, Note_off_c, 0, 64, 0
4, 129840, Note_on_c, 0, 50, 95
4, 130080, Note_off_c, 0, 50, 0
4, 130080, Note_on_c, 0, 50, 95
4, 130320, Note_off_c, 0, 50, 0
4, 130320, Note_on_c, 0, 50, 95
4, 130560, Note_off_c, 0, 50, 0
4, 130560, Note_on_c, 0, 47, 95
4, 131040, Note_off_c, 0, 47, 0
4, 131040, Note_on_c, 0, 62, 95
4, 131520, Note_off_c, 0, 62, 0
4, 131520, Note_on_c, 0, 64, 95
4, 132000, Note_off_c, 0, 64, 0
4, 132000, Note_on_c, 0, 47, 95
4, 132240, Note_off_c, 0, 47, 0
4, 132240, Note_on_c, 0, 47, 95
4, 132480, Note_off_c, 0, 47, 0
4, 132480, Note_on_c, 0, 47, 95
4, 132720, Note_off_c, 0, 47, 0
4, 132720, Note_on_c, 0, 62, 95
4, 132960, Note_off_c, 0, 62, 0
4, 132960, Note_on_c, 0, 59, 85
4, 133000, Note_off_c, 0, 59, 0
4, 133200, Note_on_c, 0, 64, 95
4, 133680, Note_off_c, 0, 64, 0
4, 133680, Note_on_c, 0, 47, 95
4, 133920, Note_off_c, 0, 47, 0
4, 133920, Note_on_c, 0, 47, 95
4, 134160, Note_off_c, 0, 47, 0
4, 134160, Note_on_c, 0, 47, 95
4, 134400, Note_off_c, 0, 47, 0
4, 134400, Note_on_c, 0, 48, 95
4, 134880, Note_off_c, 0, 48, 0
4, 134880, Note_on_c, 0, 62, 95
4, 135360, Note_off_c, 0, 62, 0
4, 135360, Note_on_c, 0, 64, 95
4, 135840, Note_off_c, 0, 64, 0
4, 135840, Note_on_c, 0, 48, 95
4, 136080, Note_off_c, 0, 48, 0
4, 136080, Note_on_c, 0, 48, 95
4, 136320, Note_off_c, 0, 48, 0
4, 136320, Note_on_c, 0, 48, 95
4, 136560, Note_off_c, 0, 48, 0
4, 136560, Note_on_c, 0, 62, 95
4, 136800, Note_off_c, 0, 62, 0
4, 136800, Note_on_c, 0, 59, 85
4, 136840, Note_off_c, 0, 59, 0
4, 137040, Note_on_c, 0, 64, 95
4, 137520, Note_off_c, 0, 64, 0
4, 137520, Note_on_c, 0, 48, 95
4, 137760, Note_off_c, 0, 48, 0
4, 137760, Note_on_c, 0, 48, 95
4, 138000, Note_off_c, 0, 48, 0
4, 138000, Note_on_c, 0, 48, 95
4, 138240, Note_off_c, 0, 48, 0
4, 138240, Note_on_c, 0, 52, 95
4, 138480, Note_off_c, 0, 52, 0
4, 138480, Note_on_c, 0, 52, 95
4, 138720, Note_off_c, 0, 52, 0
4, 138720, Note_on_c, 0, 62, 95
4, 139200, Note_off_c, 0, 62, 0
4, 139200, Note_on_c, 0, 64, 95
4, 139680, Note_off_c, 0, 64, 0
4, 139680, Note_on_c, 0, 52, 95
4, 139920, Note_off_c, 0, 52, 0
4, 139920, Note_on_c, 0, 52, 95
4, 140160, Note_off_c, 0, 52, 0
4, 140160, Note_on_c, 0, 52, 95
4, 140400, Note_off_c, 0, 52, 0
4, 140400, Note_on_c, 0, 62, 95
4, 140880, Note_off_c, 0, 62, 0
4, 140880, Note_on_c, 0, 64, 95
4, 141360, Note_off_c, 0, 64, 0
4, 141360, Note_on_c, 0, 52, 95
4, 141600, Note_off_c, 0, 52, 0
4, 141600, Note_on_c, 0, 52, 95
4, 141840, Note_off_c, 0, 52, 0
4, 141840, Note_on_c, 0, 52, 95
4, 142080, Note_off_c, 0, 52, 0
4, 142080, Note_on_c, 0, 50, 95
4, 142560, Note_off_c, 0, 50, 0
4, 142560, Note_on_c, 0, 62, 95
4, 143040, Note_off_c, 0, 62, 0
4, 143040, Note_on_c, 0, 64, 95
4, 143520, Note_off_c, 0, 64, 0
4, 143520, Note_on_c, 0, 50, 95
4, 143760, Note_off_c, 0, 50, 0
4, 143760, Note_on_c, 0, 50, 95
4, 144000, Note_off_c, 0, 50, 0
4, 144000, Note_on_c, 0, 50, 95
4, 144240, Note_off_c, 0, 50, 0
4, 144240, Note_on_c, 0, 62, 95
4, 144720, Note_off_c, 0, 62, 0
4, 144720, Note_on_c, 0, 64, 95
4, 145200, Note_off_c, 0, 64, 0
4, 145200, Note_on_c, 0, 50, 95
4, 145440, Note_off_c, 0, 50, 0
4, 145440, Note_on_c, 0, 50, 95
4, 145680, Note_off_c, 0, 50, 0
4, 145680, Note_on_c, 0, 50, 95
4, 145920, Note_off_c, 0, 50, 0
4, 145920, Note_on_c, 0, 47, 95
4, 146400, Note_off_c, 0, 47, 0
4, 146400, Note_on_c, 0, 62, 95
4, 146880, Note_off_c, 0, 62, 0
4, 146880, Note_on_c, 0, 64, 95
4, 147360, Note_off_c, 0, 64, 0
4, 147360, Note_on_c, 0, 47, 95
4, 147600, Note_off_c, 0, 47, 0
4, 147600, Note_on_c, 0, 47, 95
4, 147840, Note_off_c, 0, 47, 0
4, 147840, Note_on_c, 0, 47, 95
4, 148080, Note_off_c, 0, 47, 0
4, 148080, Note_on_c, 0, 62, 95
4, 148320, Note_off_c, 0, 62, 0
4, 148320, Note_on_c, 0, 59, 85
4, 148360, Note_off_c, 0, 59, 0
4, 148560, Note_on_c, 0, 64, 95
4, 149040, Note_off_c, 0, 64, 0
4, 149040, Note_on_c, 0, 47, 95
4, 149280, Note_off_c, 0, 47, 0
4, 149280, Note_on_c, 0, 47, 95
4, 149520, Note_off_c, 0, 47, 0
4, 149520, Note_on_c, 0, 47, 95
4, 149760, Note_off_c, 0, 47, 0
4, 149760, Note_on_c, 0, 48, 95
4, 150240, Note_off_c, 0, 48, 0
4, 150240, Note_on_c, 0, 62, 95
4, 150720, Note_off_c, 0, 62, 0
4, 150720, Note_on_c, 0, 64, 95
4, 151200, Note_off_c, 0, 64, 0
4, 151200, Note_on_c, 0, 48, 95
4, 151440, Note_off_c, 0, 48, 0
4, 151440, Note_on_c, 0, 48, 95
4, 151680, Note_off_c, 0, 48, 0
4, 151680, Note_on_c, 0, 48, 95
4, 151920, Note_off_c, 0, 48, 0
4, 151920, Note_on_c, 0, 62, 95
4, 152160, Note_off_c, 0, 62, 0
4, 152160, Note_on_c, 0, 59, 85
4, 152200, Note_off_c, 0, 59, 0
4, 152400, Note_on_c, 0, 64, 95
4, 152880, Note_off_c, 0, 64, 0
4, 152880, Note_on_c, 0, 48, 95
4, 153120, Note_off_c, 0, 48, 0
4, 153120, Note_on_c, 0, 48, 95
4, 153360, Note_off_c, 0, 48, 0
4, 153360, Note_on_c, 0, 48, 95
4, 153600, Note_off_c, 0, 48, 0
4, 153600, Note_on_c, 0, 52, 95
4, 153840, Note_off_c, 0, 52, 0
4, 153840, Note_on_c, 0, 52, 95
4, 154080, Note_off_c, 0, 52, 0
4, 154080, Note_on_c, 0, 62, 95
4, 154560, Note_off_c, 0, 62, 0
4, 154560, Note_on_c, 0, 64, 95
4, 155040, Note_off_c, 0, 64, 0
4, 155040, Note_on_c, 0, 52, 95
4, 155280, Note_off_c, 0, 52, 0
4, 155280, Note_on_c, 0, 52, 95
4, 155520, Note_off_c, 0, 52, 0
4, 155520, Note_on_c, 0, 52, 95
4, 155760, Note_off_c, 0, 52, 0
4, 155760, Note_on_c, 0, 62, 95
4, 156240, Note_off_c, 0, 62, 0
4, 156240, Note_on_c, 0, 64, 95
4, 156720, Note_off_c, 0, 64, 0
4, 156720, Note_on_c, 0, 52, 95
4, 156960, Note_off_c, 0, 52, 0
4, 156960, Note_on_c, 0, 52, 95
4, 157200, Note_off_c, 0, 52, 0
4, 157200, Note_on_c, 0, 52, 95
4, 157440, Note_off_c, 0, 52, 0
4, 157440, Note_on_c, 0, 50, 95
4, 157920, Note_off_c, 0, 50, 0
4, 157920, Note_on_c, 0, 62, 95
4, 158400, Note_off_c, 0, 62, 0
4, 158400, Note_on_c, 0, 64, 95
4, 158880, Note_off_c, 0, 64, 0
4, 158880, Note_on_c, 0, 50, 95
4, 159120, Note_off_c, 0, 50, 0
4, 159120, Note_on_c, 0, 50, 95
4, 159360, Note_off_c, 0, 50, 0
4, 159360, Note_on_c, 0, 50, 95
4, 159600, Note_off_c, 0, 50, 0
4, 159600, Note_on_c, 0, 62, 95
4, 160080, Note_off_c, 0, 62, 0
4, 160080, Note_on_c, 0, 64, 95
4, 160560, Note_off_c, 0, 64, 0
4, 160560, Note_on_c, 0, 50, 95
4, 160800, Note_off_c, 0, 50, 0
4, 160800, Note_on_c, 0, 50, 95
4, 161040, Note_off_c, 0, 50, 0
4, 161040, Note_on_c, 0, 50, 95
4, 161280, Note_off_c, 0, 50, 0
4, 161280, Note_on_c, 0, 47, 95
4, 161760, Note_off_c, 0, 47, 0
4, 161760, Note_on_c, 0, 62, 95
4, 162240, Note_off_c, 0, 62, 0
4, 162240, Note_on_c, 0, 64, 95
4, 162720, Note_off_c, 0, 64, 0
4, 162720, Note_on_c, 0, 47, 95
4, 162960, Note_off_c, 0, 47, 0
4, 162960, Note_on_c, 0, 47, 95
4, 163200, Note_off_c, 0, 47, 0
4, 163200, Note_on_c, 0, 47, 95
4, 163440, Note_off_c, 0, 47, 0
4, 163440, Note_on_c, 0, 62, 95
4, 163680, Note_off_c, 0, 62, 0
4, 163680, Note_on_c, 0, 59, 85
4, 163720, Note_off_c, 0, 59, 0
4, 163920, Note_on_c, 0, 64, 95
4, 164400, Note_off_c, 0, 64, 0
4, 164400, Note_on_c, 0, 47, 95
4, 164640, Note_off_c, 0, 47, 0
4, 164640, Note_on_c, 0, 47, 95
4, 164880, Note_off_c, 0, 47, 0
4, 164880, Note_on_c, 0, 47, 95
4, 165120, Note_off_c, 0, 47, 0
4, 165120, Note_on_c, 0, 48, 95
4, 165600, Note_off_c, 0, 48, 0
4, 165600, Note_on_c, 0, 62, 95
4, 166080, Note_off_c, 0, 62, 0
4, 166080, Note_on_c, 0, 64, 95
4, 166560, Note_off_c, 0, 64, 0
4, 166560, Note_on_c, 0, 48, 95
4, 166800, Note_off_c, 0, 48, 0
4, 166800, Note_on_c, 0, 48, 95
4, 167040, Note_off_c, 0, 48, 0
4, 167040, Note_on_c, 0, 48, 95
4, 167280, Note_off_c, 0, 48, 0
4, 167280, Note_on_c, 0, 62, 95
4, 167520, Note_off_c, 0, 62, 0
4, 167520, Note_on_c, 0, 59, 85
4, 167560, Note_off_c, 0, 59, 0
4, 167760, Note_on_c, 0, 64, 95
4, 168240, Note_off_c, 0, 64, 0
4, 168240, Note_on_c, 0, 48, 95
4, 168480, Note_off_c, 0, 48, 0
4, 168480, Note_on_c, 0, 48, 95
4, 168720, Note_off_c, 0, 48, 0
4, 168720, Note_on_c, 0, 48, 95
4, 168960, Note_off_c, 0, 48, 0
4, 168960, Note_on_c, 0, 52, 95
4, 169200, Note_off_c, 0, 52, 0
4, 169200, Note_on_c, 0, 52, 95
4, 169440, Note_off_c, 0, 52, 0
4, 169440, Note_on_c, 0, 62, 95
4, 169920, Note_off_c, 0, 62, 0
4, 169920, Note_on_c, 0, 64, 95
4, 170400, Note_off_c, 0, 64, 0
4, 170400, Note_on_c, 0, 52, 95
4, 170640, Note_off_c, 0, 52, 0
4, 170640, Note_on_c, 0, 52, 95
4, 170880, Note_off_c, 0, 52, 0
4, 170880, Note_on_c, 0, 52, 95
4, 171120, Note_off_c, 0, 52, 0
4, 171120, Note_on_c, 0, 62, 95
4, 171600, Note_off_c, 0, 62, 0
4, 171600, Note_on_c, 0, 64, 95
4, 172080, Note_off_c, 0, 64, 0
4, 172080, Note_on_c, 0, 52, 95
4, 172320, Note_off_c, 0, 52, 0
4, 172320, Note_on_c, 0, 52, 95
4, 172560, Note_off_c, 0, 52, 0
4, 172560, Note_on_c, 0, 52, 95
4, 172800, Note_off_c, 0, 52, 0
4, 172800, Note_on_c, 0, 50, 95
4, 173280, Note_off_c, 0, 50, 0
4, 173280, Note_on_c, 0, 62, 95
4, 173760, Note_off_c, 0, 62, 0
4, 173760, Note_on_c, 0, 64, 95
4, 174240, Note_off_c, 0, 64, 0
4, 174240, Note_on_c, 0, 50, 95
4, 174480, Note_off_c, 0, 50, 0
4, 174480, Note_on_c, 0, 50, 95
4, 174720, Note_off_c, 0, 50, 0
4, 174720, Note_on_c, 0, 50, 95
4, 174960, Note_off_c, 0, 50, 0
4, 174960, Note_on_c, 0, 62, 95
4, 175440, Note_off_c, 0, 62, 0
4, 175440, Note_on_c, 0, 64, 95
4, 175920, Note_off_c, 0, 64, 0
4, 175920, Note_on_c, 0, 50, 95
4, 176160, Note_off_c, 0, 50, 0
4, 176160, Note_on_c, 0, 50, 95
4, 176400, Note_off_c, 0, 50, 0
4, 176400, Note_on_c, 0, 50, 95
4, 176640, Note_off_c, 0, 50, 0
4, 176640, Note_on_c, 0, 47, 95
4, 177120, Note_off_c, 0, 47, 0
4, 177120, Note_on_c, 0, 62, 95
4, 177600, Note_off_c, 0, 62, 0
4, 177600, Note_on_c, 0, 64, 95
4, 178080, Note_off_c, 0, 64, 0
4, 178080, Note_on_c, 0, 47, 95
4, 178320, Note_off_c, 0, 47, 0
4, 178320, Note_on_c, 0, 47, 95
4, 178560, Note_off_c, 0, 47, 0
4, 178560, Note_on_c, 0, 47, 95
4, 178800, Note_off_c, 0, 47, 0
4, 178800, Note_on_c, 0, 62, 95
4, 179040, Note_off_c, 0, 62, 0
4, 179040, Note_on_c, 0, 59, 85
4, 179080, Note_off_c, 0, 59, 0
4, 179280, Note_on_c, 0, 64, 95
4, 179760, Note_off_c, 0, 64, 0
4, 179760, Note_on_c, 0, 47, 95
4, 180000, Note_off_c, 0, 47, 0
4, 180000, Note_on_c, 0, 47, 95
4, 180240, Note_off_c, 0, 47, 0
4, 180240, Note_on_c, 0, 47, 95
4, 180480, Note_off_c, 0, 47, 0
4, 180480, Note_on_c, 0, 67, 95
4, 180720, Note_off_c, 0, 67, 0
4, 180720, Note_on_c, 0, 64, 95
4, 180960, Note_off_c, 0, 64, 0
4, 180960, Note_on_c, 0, 60, 95
4, 181200, Note_off_c, 0, 60, 0
4, 181200, Note_on_c, 0, 67, 95
4, 181440, Note_off_c, 0, 67, 0
4, 181440, Note_on_c, 0, 64, 95
4, 181680, Note_off_c, 0, 64, 0
4, 181680, Note_on_c, 0, 60, 95
4, 181920, Note_off_c, 0, 60, 0
4, 181920, Note_on_c, 0, 67, 95
4, 182160, Note_off_c, 0, 67, 0
4, 182160, Note_on_c, 0, 64, 95
4, 182400, Note_off_c, 0, 64, 0
4, 182400, Note_on_c, 0, 60, 95
4, 182640, Note_off_c, 0, 60, 0
4, 182640, Note_on_c, 0, 67, 95
4, 182880, Note_off_c, 0, 67, 0
4, 182880, Note_on_c, 0, 64, 95
4, 183120, Note_off_c, 0, 64, 0
4, 183120, Note_on_c, 0, 60, 95
4, 183360, Note_off_c, 0, 60, 0
4, 183360, Note_on_c, 0, 67, 95
4, 183600, Note_off_c, 0, 67, 0
4, 183600, Note_on_c, 0, 64, 95
4, 183840, Note_off_c, 0, 64, 0
4, 183840, Note_on_c, 0, 60, 95
4, 184080, Note_off_c, 0, 60, 0
4, 184080, Note_on_c, 0, 67, 95
4, 184320, Note_off_c, 0, 67, 0
4, 184320, Note_on_c, 0, 67, 95
4, 184320, Note_on_c, 0, 62, 95
4, 184320, Note_on_c, 0, 59, 95
4, 184320, Note_on_c, 0, 55, 95
4, 184320, Note_on_c, 0, 50, 95
4, 184320, Note_on_c, 0, 43, 95
4, 185280, Note_off_c, 0, 67, 0
4, 185280, Note_off_c, 0, 62, 0
4, 185280, Note_off_c, 0, 59, 0
4, 185280, Note_off_c, 0, 55, 0
4, 185280, Note_off_c, 0, 50, 0
4, 185280, Note_off_c, 0, 43, 0
4, 185280, Note_on_c, 0, 67, 95
4, 185280, Note_on_c, 0, 62, 95
4, 185280, Note_on_c, 0, 59, 95
4, 185280, Note_on_c, 0, 55, 95
4, 185280, Note_on_c, 0, 50, 95
4, 185280, Note_on_c, 0, 43, 95
4, 185760, Note_off_c, 0, 67, 0
4, 185760, Note_off_c, 0, 62, 0
4, 185760, Note_off_c, 0, 59, 0
4, 185760, Note_off_c, 0, 55, 0
4, 185760, Note_off_c, 0, 50, 0
4, 185760, Note_off_c, 0, 43, 0
4, 185760, Note_on_c, 0, 69, 95
4, 185760, Note_on_c, 0, 66, 95
4, 185760, Note_on_c, 0, 62, 95
4, 185760, Note_on_c, 0, 57, 95
4, 185760, Note_on_c, 0, 50, 95
4, 186720, Note_off_c, 0, 69, 0
4, 186720, Note_off_c, 0, 66, 0
4, 186720, Note_off_c, 0, 62, 0
4, 186720, Note_off_c, 0, 57, 0
4, 186720, Note_off_c, 0, 50, 0
4, 186720, Note_on_c, 0, 69, 95
4, 186720, Note_on_c, 0, 66, 95
4, 186720, Note_on_c, 0, 62, 95
4, 186720, Note_on_c, 0, 57, 95
4, 186720, Note_on_c, 0, 50, 95
4, 187200, Note_off_c, 0, 69, 0
4, 187200, Note_off_c, 0, 66, 0
4, 187200, Note_off_c, 0, 62, 0
4, 187200, Note_off_c, 0, 57, 0
4, 187200, Note_off_c, 0, 50, 0
4, 187200, Note_on_c, 0, 69, 95
4, 187200, Note_on_c, 0, 66, 95
4, 187200, Note_on_c, 0, 62, 95
4, 187200, Note_on_c, 0, 57, 95
4, 187200, Note_on_c, 0, 50, 95
4, 187440, Note_off_c, 0, 69, 0
4, 187440, Note_off_c, 0, 66, 0
4, 187440, Note_off_c, 0, 62, 0
4, 187440, Note_off_c, 0, 57, 0
4, 187440, Note_off_c, 0, 50, 0
4, 187440, Note_on_c, 0, 69, 95
4, 187440, Note_on_c, 0, 66, 95
4, 187440, Note_on_c, 0, 62, 95
4, 187440, Note_on_c, 0, 57, 95
4, 187440, Note_on_c, 0, 50, 95
4, 187680, Note_off_c, 0, 69, 0
4, 187680, Note_off_c, 0, 66, 0
4, 187680, Note_off_c, 0, 62, 0
4, 187680, Note_off_c, 0, 57, 0
4, 187680, Note_off_c, 0, 50, 0
4, 187680, Note_on_c, 0, 69, 95
4, 187680, Note_on_c, 0, 66, 95
4, 187680, Note_on_c, 0, 62, 95
4, 187680, Note_on_c, 0, 57, 95
4, 187680, Note_on_c, 0, 50, 95
4, 188160, Note_off_c, 0, 69, 0
4, 188160, Note_off_c, 0, 66, 0
4, 188160, Note_off_c, 0, 62, 0
4, 188160, Note_off_c, 0, 57, 0
4, 188160, Note_off_c, 0, 50, 0
4, 188160, Note_on_c, 0, 66, 95
4, 188160, Note_on_c, 0, 62, 95
4, 188160, Note_on_c, 0, 59, 95
4, 188160, Note_on_c, 0, 54, 95
4, 188160, Note_on_c, 0, 47, 95
4, 188640, Note_off_c, 0, 66, 0
4, 188640, Note_off_c, 0, 62, 0
4, 188640, Note_off_c, 0, 59, 0
4, 188640, Note_off_c, 0, 54, 0
4, 188640, Note_off_c, 0, 47, 0
4, 188640, Note_on_c, 0, 66, 95
4, 188640, Note_on_c, 0, 62, 95
4, 188640, Note_on_c, 0, 59, 95
4, 188640, Note_on_c, 0, 54, 95
4, 188640, Note_on_c, 0, 47, 95
4, 188880, Note_off_c, 0, 66, 0
4, 188880, Note_off_c, 0, 62, 0
4, 188880, Note_off_c, 0, 59, 0
4, 188880, Note_off_c, 0, 54, 0
4, 188880, Note_off_c, 0, 47, 0
4, 188880, Note_on_c, 0, 66, 95
4, 188880, Note_on_c, 0, 62, 95
4, 188880, Note_on_c, 0, 59, 95
4, 188880, Note_on_c, 0, 54, 95
4, 188880, Note_on_c, 0, 47, 95
4, 189120, Note_off_c, 0, 66, 0
4, 189120, Note_off_c, 0, 62, 0
4, 189120, Note_off_c, 0, 59, 0
4, 189120, Note_off_c, 0, 54, 0
4, 189120, Note_off_c, 0, 47, 0
4, 189120, Note_on_c, 0, 66, 95
4, 189120, Note_on_c, 0, 62, 95
4, 189120, Note_on_c, 0, 59, 95
4, 189120, Note_on_c, 0, 54, 95
4, 189120, Note_on_c, 0, 47, 95
4, 189600, Note_off_c, 0, 66, 0
4, 189600, Note_off_c, 0, 62, 0
4, 189600, Note_off_c, 0, 59, 0
4, 189600, Note_off_c, 0, 54, 0
4, 189600, Note_off_c, 0, 47, 0
4, 189600, Note_on_c, 0, 67, 95
4, 189600, Note_on_c, 0, 64, 95
4, 189600, Note_on_c, 0, 60, 95
4, 189600, Note_on_c, 0, 55, 95
4, 189600, Note_on_c, 0, 48, 95
4, 190560, Note_off_c, 0, 67, 0
4, 190560, Note_off_c, 0, 64, 0
4, 190560, Note_off_c, 0, 60, 0
4, 190560, Note_off_c, 0, 55, 0
4, 190560, Note_off_c, 0, 48, 0
4, 190560, Note_on_c, 0, 71, 95
4, 190560, Note_on_c, 0, 64, 95
4, 190560, Note_on_c, 0, 60, 95
4, 190560, Note_on_c, 0, 55, 95
4, 190560, Note_on_c, 0, 48, 95
4, 190800, Note_off_c, 0, 71, 0
4, 190800, Note_off_c, 0, 64, 0
4, 190800, Note_off_c, 0, 60, 0
4, 190800, Note_off_c, 0, 55, 0
4, 190800, Note_off_c, 0, 48, 0
4, 190800, Note_on_c, 0, 71, 95
4, 190800, Note_on_c, 0, 64, 95
4, 190800, Note_on_c, 0, 60, 95
4, 190800, Note_on_c, 0, 55, 95
4, 190800, Note_on_c, 0, 48, 95
4, 191280, Note_off_c, 0, 71, 0
4, 191280, Note_off_c, 0, 64, 0
4, 191280, Note_off_c, 0, 60, 0
4, 191280, Note_off_c, 0, 55, 0
4, 191280, Note_off_c, 0, 48, 0
4, 191280, Note_on_c, 0, 64, 85
4, 191280, Note_on_c, 0, 59, 85
4, 191280, Note_on_c, 0, 55, 85
4, 191280, Note_on_c, 0, 50, 85
4, 191280, Note_on_c, 0, 45, 85
4, 191320, Note_off_c, 0, 64, 0
4, 191320, Note_off_c, 0, 59, 0
4, 191320, Note_off_c, 0, 55, 0
4, 191320, Note_off_c, 0, 50, 0
4, 191320, Note_off_c, 0, 45, 0
4, 191520, Note_on_c, 0, 71, 95
4, 191520, Note_on_c, 0, 64, 95
4, 191520, Note_on_c, 0, 60, 95
4, 191520, Note_on_c, 0, 55, 95
4, 191520, Note_on_c, 0, 48, 95
4, 192000, Note_off_c, 0, 71, 0
4, 192000, Note_off_c, 0, 64, 0
4, 192000, Note_off_c, 0, 60, 0
4, 192000, Note_off_c, 0, 55, 0
4, 192000, Note_off_c, 0, 48, 0
4, 192000, Note_on_c, 0, 67, 95
4, 192000, Note_on_c, 0, 62, 95
4, 192000, Note_on_c, 0, 59, 95
4, 192000, Note_on_c, 0, 55, 95
4, 192000, Note_on_c, 0, 50, 95
4, 192000, Note_on_c, 0, 43, 95
4, 192960, Note_off_c, 0, 67, 0
4, 192960, Note_off_c, 0, 62, 0
4, 192960, Note_off_c, 0, 59, 0
4, 192960, Note_off_c, 0, 55, 0
4, 192960, Note_off_c, 0, 50, 0
4, 192960, Note_off_c, 0, 43, 0
4, 192960, Note_on_c, 0, 67, 95
4, 192960, Note_on_c, 0, 62, 95
4, 192960, Note_on_c, 0, 59, 95
4, 192960, Note_on_c, 0, 55, 95
4, 192960, Note_on_c, 0, 50, 95
4, 192960, Note_on_c, 0, 43, 95
4, 193440, Note_off_c, 0, 67, 0
4, 193440, Note_off_c, 0, 62, 0
4, 193440, Note_off_c, 0, 59, 0
4, 193440, Note_off_c, 0, 55, 0
4, 193440, Note_off_c, 0, 50, 0
4, 193440, Note_off_c, 0, 43, 0
4, 193440, Note_on_c, 0, 69, 95
4, 193440, Note_on_c, 0, 66, 95
4, 193440, Note_on_c, 0, 62, 95
4, 193440, Note_on_c, 0, 57, 95
4, 193440, Note_on_c, 0, 50, 95
4, 194400, Note_off_c, 0, 69, 0
4, 194400, Note_off_c, 0, 66, 0
4, 194400, Note_off_c, 0, 62, 0
4, 194400, Note_off_c, 0, 57, 0
4, 194400, Note_off_c, 0, 50, 0
4, 194400, Note_on_c, 0, 69, 95
4, 194400, Note_on_c, 0, 66, 95
4, 194400, Note_on_c, 0, 62, 95
4, 194400, Note_on_c, 0, 57, 95
4, 194400, Note_on_c, 0, 50, 95
4, 194880, Note_off_c, 0, 69, 0
4, 194880, Note_off_c, 0, 66, 0
4, 194880, Note_off_c, 0, 62, 0
4, 194880, Note_off_c, 0, 57, 0
4, 194880, Note_off_c, 0, 50, 0
4, 194880, Note_on_c, 0, 69, 95
4, 194880, Note_on_c, 0, 66, 95
4, 194880, Note_on_c, 0, 62, 95
4, 194880, Note_on_c, 0, 57, 95
4, 194880, Note_on_c, 0, 50, 95
4, 195120, Note_off_c, 0, 69, 0
4, 195120, Note_off_c, 0, 66, 0
4, 195120, Note_off_c, 0, 62, 0
4, 195120, Note_off_c, 0, 57, 0
4, 195120, Note_off_c, 0, 50, 0
4, 195120, Note_on_c, 0, 69, 95
4, 195120, Note_on_c, 0, 66, 95
4, 195120, Note_on_c, 0, 62, 95
4, 195120, Note_on_c, 0, 57, 95
4, 195120, Note_on_c, 0, 50, 95
4, 195360, Note_off_c, 0, 69, 0
4, 195360, Note_off_c, 0, 66, 0
4, 195360, Note_off_c, 0, 62, 0
4, 195360, Note_off_c, 0, 57, 0
4, 195360, Note_off_c, 0, 50, 0
4, 195360, Note_on_c, 0, 69, 95
4, 195360, Note_on_c, 0, 66, 95
4, 195360, Note_on_c, 0, 62, 95
4, 195360, Note_on_c, 0, 57, 95
4, 195360, Note_on_c, 0, 50, 95
4, 195840, Note_off_c, 0, 69, 0
4, 195840, Note_off_c, 0, 66, 0
4, 195840, Note_off_c, 0, 62, 0
4, 195840, Note_off_c, 0, 57, 0
4, 195840, Note_off_c, 0, 50, 0
4, 195840, Note_on_c, 0, 66, 95
4, 195840, Note_on_c, 0, 62, 95
4, 195840, Note_on_c, 0, 59, 95
4, 195840, Note_on_c, 0, 54, 95
4, 195840, Note_on_c, 0, 47, 95
4, 196320, Note_off_c, 0, 66, 0
4, 196320, Note_off_c, 0, 62, 0
4, 196320, Note_off_c, 0, 59, 0
4, 196320, Note_off_c, 0, 54, 0
4, 196320, Note_off_c, 0, 47, 0
4, 196320, Note_on_c, 0, 66, 95
4, 196320, Note_on_c, 0, 62, 95
4, 196320, Note_on_c, 0, 59, 95
4, 196320, Note_on_c, 0, 54, 95
4, 196320, Note_on_c, 0, 47, 95
4, 196560, Note_off_c, 0, 66, 0
4, 196560, Note_off_c, 0, 62, 0
4, 196560, Note_off_c, 0, 59, 0
4, 196560, Note_off_c, 0, 54, 0
4, 196560, Note_off_c, 0, 47, 0
4, 196560, Note_on_c, 0, 66, 95
4, 196560, Note_on_c, 0, 62, 95
4, 196560, Note_on_c, 0, 59, 95
4, 196560, Note_on_c, 0, 54, 95
4, 196560, Note_on_c, 0, 47, 95
4, 196800, Note_off_c, 0, 66, 0
4, 196800, Note_off_c, 0, 62, 0
4, 196800, Note_off_c, 0, 59, 0
4, 196800, Note_off_c, 0, 54, 0
4, 196800, Note_off_c, 0, 47, 0
4, 196800, Note_on_c, 0, 66, 95
4, 196800, Note_on_c, 0, 62, 95
4, 196800, Note_on_c, 0, 59, 95
4, 196800, Note_on_c, 0, 54, 95
4, 196800, Note_on_c, 0, 47, 95
4, 197280, Note_off_c, 0, 66, 0
4, 197280, Note_off_c, 0, 62, 0
4, 197280, Note_off_c, 0, 59, 0
4, 197280, Note_off_c, 0, 54, 0
4, 197280, Note_off_c, 0, 47, 0
4, 197280, Note_on_c, 0, 67, 95
4, 197280, Note_on_c, 0, 64, 95
4, 197280, Note_on_c, 0, 60, 95
4, 197280, Note_on_c, 0, 55, 95
4, 197280, Note_on_c, 0, 48, 95
4, 198240, Note_off_c, 0, 67, 0
4, 198240, Note_off_c, 0, 64, 0
4, 198240, Note_off_c, 0, 60, 0
4, 198240, Note_off_c, 0, 55, 0
4, 198240, Note_off_c, 0, 48, 0
4, 198240, Note_on_c, 0, 67, 95
4, 198240, Note_on_c, 0, 64, 95
4, 198240, Note_on_c, 0, 60, 95
4, 198240, Note_on_c, 0, 55, 95
4, 198240, Note_on_c, 0, 48, 95
4, 198480, Note_off_c, 0, 67, 0
4, 198480, Note_off_c, 0, 64, 0
4, 198480, Note_off_c, 0, 60, 0
4, 198480, Note_off_c, 0, 55, 0
4, 198480, Note_off_c, 0, 48, 0
4, 198480, Note_on_c, 0, 67, 95
4, 198480, Note_on_c, 0, 64, 95
4, 198480, Note_on_c, 0, 60, 95
4, 198480, Note_on_c, 0, 55, 95
4, 198480, Note_on_c, 0, 48, 95
4, 198960, Note_off_c, 0, 67, 0
4, 198960, Note_off_c, 0, 64, 0
4, 198960, Note_off_c, 0, 60, 0
4, 198960, Note_off_c, 0, 55, 0
4, 198960, Note_off_c, 0, 48, 0
4, 198960, Note_on_c, 0, 64, 85
4, 198960, Note_on_c, 0, 59, 85
4, 198960, Note_on_c, 0, 55, 85
4, 198960, Note_on_c, 0, 50, 85
4, 198960, Note_on_c, 0, 45, 85
4, 199000, Note_off_c, 0, 64, 0
4, 199000, Note_off_c, 0, 59, 0
4, 199000, Note_off_c, 0, 55, 0
4, 199000, Note_off_c, 0, 50, 0
4, 199000, Note_off_c, 0, 45, 0
4, 199200, Note_on_c, 0, 67, 95
4, 199200, Note_on_c, 0, 64, 95
4, 199200, Note_on_c, 0, 60, 95
4, 199200, Note_on_c, 0, 55, 95
4, 199200, Note_on_c, 0, 48, 95
4, 199680, Note_off_c, 0, 67, 0
4, 199680, Note_off_c, 0, 64, 0
4, 199680, Note_off_c, 0, 60, 0
4, 199680, Note_off_c, 0, 55, 0
4, 199680, Note_off_c, 0, 48, 0
4, 199680, Note_on_c, 0, 67, 95
4, 199680, Note_on_c, 0, 62, 95
4, 199680, Note_on_c, 0, 59, 95
4, 199680, Note_on_c, 0, 55, 95
4, 199680, Note_on_c, 0, 50, 95
4, 199680, Note_on_c, 0, 43, 95
4, 200640, Note_off_c, 0, 67, 0
4, 200640, Note_off_c, 0, 62, 0
4, 200640, Note_off_c, 0, 59, 0
4, 200640, Note_off_c, 0, 55, 0
4, 200640, Note_off_c, 0, 50, 0
4, 200640, Note_off_c, 0, 43, 0
4, 200640, Note_on_c, 0, 67, 95
4, 200640, Note_on_c, 0, 62, 95
4, 200640, Note_on_c, 0, 59, 95
4, 200640, Note_on_c, 0, 55, 95
4, 200640, Note_on_c, 0, 50, 95
4, 200640, Note_on_c, 0, 43, 95
4, 201120, Note_off_c, 0, 67, 0
4, 201120, Note_off_c, 0, 62, 0
4, 201120, Note_off_c, 0, 59, 0
4, 201120, Note_off_c, 0, 55, 0
4, 201120, Note_off_c, 0, 50, 0
4, 201120, Note_off_c, 0, 43, 0
4, 201120, Note_on_c, 0, 69, 95
4, 201120, Note_on_c, 0, 66, 95
4, 201120, Note_on_c, 0, 62, 95
4, 201120, Note_on_c, 0, 57, 95
4, 201120, Note_on_c, 0, 50, 95
4, 202080, Note_off_c, 0, 69, 0
4, 202080, Note_off_c, 0, 66, 0
4, 202080, Note_off_c, 0, 62, 0
4, 202080, Note_off_c, 0, 57, 0
4, 202080, Note_off_c, 0, 50, 0
4, 202080, Note_on_c, 0, 69, 95
4, 202080, Note_on_c, 0, 66, 95
4, 202080, Note_on_c, 0, 62, 95
4, 202080, Note_on_c, 0, 57, 95
4, 202080, Note_on_c, 0, 50, 95
4, 202560, Note_off_c, 0, 69, 0
4, 202560, Note_off_c, 0, 66, 0
4, 202560, Note_off_c, 0, 62, 0
4, 202560, Note_off_c, 0, 57, 0
4, 202560, Note_off_c, 0, 50, 0
4, 202560, Note_on_c, 0, 69, 95
4, 202560, Note_on_c, 0, 66, 95
4, 202560, Note_on_c, 0, 62, 95
4, 202560, Note_on_c, 0, 57, 95
4, 202560, Note_on_c, 0, 50, 95
4, 202800, Note_off_c, 0, 69, 0
4, 202800, Note_off_c, 0, 66, 0
4, 202800, Note_off_c, 0, 62, 0
4, 202800, Note_off_c, 0, 57, 0
4, 202800, Note_off_c, 0, 50, 0
4, 202800, Note_on_c, 0, 69, 95
4, 202800, Note_on_c, 0, 66, 95
4, 202800, Note_on_c, 0, 62, 95
4, 202800, Note_on_c, 0, 57, 95
4, 202800, Note_on_c, 0, 50, 95
4, 203040, Note_off_c, 0, 69, 0
4, 203040, Note_off_c, 0, 66, 0
4, 203040, Note_off_c, 0, 62, 0
4, 203040, Note_off_c, 0, 57, 0
4, 203040, Note_off_c, 0, 50, 0
4, 203040, Note_on_c, 0, 69, 95
4, 203040, Note_on_c, 0, 66, 95
4, 203040, Note_on_c, 0, 62, 95
4, 203040, Note_on_c, 0, 57, 95
4, 203040, Note_on_c, 0, 50, 95
4, 203520, Note_off_c, 0, 69, 0
4, 203520, Note_off_c, 0, 66, 0
4, 203520, Note_off_c, 0, 62, 0
4, 203520, Note_off_c, 0, 57, 0
4, 203520, Note_off_c, 0, 50, 0
4, 203520, Note_on_c, 0, 66, 95
4, 203520, Note_on_c, 0, 62, 95
4, 203520, Note_on_c, 0, 59, 95
4, 203520, Note_on_c, 0, 54, 95
4, 203520, Note_on_c, 0, 47, 95
4, 204000, Note_off_c, 0, 66, 0
4, 204000, Note_off_c, 0, 62, 0
4, 204000, Note_off_c, 0, 59, 0
4, 204000, Note_off_c, 0, 54, 0
4, 204000, Note_off_c, 0, 47, 0
4, 204000, Note_on_c, 0, 66, 95
4, 204000, Note_on_c, 0, 62, 95
4, 204000, Note_on_c, 0, 59, 95
4, 204000, Note_on_c, 0, 54, 95
4, 204000, Note_on_c, 0, 47, 95
4, 204240, Note_off_c, 0, 66, 0
4, 204240, Note_off_c, 0, 62, 0
4, 204240, Note_off_c, 0, 59, 0
4, 204240, Note_off_c, 0, 54, 0
4, 204240, Note_off_c, 0, 47, 0
4, 204240, Note_on_c, 0, 66, 95
4, 204240, Note_on_c, 0, 62, 95
4, 204240, Note_on_c, 0, 59, 95
4, 204240, Note_on_c, 0, 54, 95
4, 204240, Note_on_c, 0, 47, 95
4, 204480, Note_off_c, 0, 66, 0
4, 204480, Note_off_c, 0, 62, 0
4, 204480, Note_off_c, 0, 59, 0
4, 204480, Note_off_c, 0, 54, 0
4, 204480, Note_off_c, 0, 47, 0
4, 204480, Note_on_c, 0, 66, 95
4, 204480, Note_on_c, 0, 62, 95
4, 204480, Note_on_c, 0, 59, 95
4, 204480, Note_on_c, 0, 54, 95
4, 204480, Note_on_c, 0, 47, 95
4, 204960, Note_off_c, 0, 66, 0
4, 204960, Note_off_c, 0, 62, 0
4, 204960, Note_off_c, 0, 59, 0
4, 204960, Note_off_c, 0, 54, 0
4, 204960, Note_off_c, 0, 47, 0
4, 204960, Note_on_c, 0, 67, 95
4, 204960, Note_on_c, 0, 64, 95
4, 204960, Note_on_c, 0, 60, 95
4, 204960, Note_on_c, 0, 55, 95
4, 204960, Note_on_c, 0, 48, 95
4, 205920, Note_off_c, 0, 67, 0
4, 205920, Note_off_c, 0, 64, 0
4, 205920, Note_off_c, 0, 60, 0
4, 205920, Note_off_c, 0, 55, 0
4, 205920, Note_off_c, 0, 48, 0
4, 205920, Note_on_c, 0, 71, 95
4, 205920, Note_on_c, 0, 64, 95
4, 205920, Note_on_c, 0, 60, 95
4, 205920, Note_on_c, 0, 55, 95
4, 205920, Note_on_c, 0, 48, 95
4, 206160, Note_off_c, 0, 71, 0
4, 206160, Note_off_c, 0, 64, 0
4, 206160, Note_off_c, 0, 60, 0
4, 206160, Note_off_c, 0, 55, 0
4, 206160, Note_off_c, 0, 48, 0
4, 206160, Note_on_c, 0, 71, 95
4, 206160, Note_on_c, 0, 64, 95
4, 206160, Note_on_c, 0, 60, 95
4, 206160, Note_on_c, 0, 55, 95
4, 206160, Note_on_c, 0, 48, 95
4, 206640, Note_off_c, 0, 71, 0
4, 206640, Note_off_c, 0, 64, 0
4, 206640, Note_off_c, 0, 60, 0
4, 206640, Note_off_c, 0, 55, 0
4, 206640, Note_off_c, 0, 48, 0
4, 206640, Note_on_c, 0, 64, 85
4, 206640, Note_on_c, 0, 59, 85
4, 206640, Note_on_c, 0, 55, 85
4, 206640, Note_on_c, 0, 50, 85
4, 206640, Note_on_c, 0, 45, 85
4, 206680, Note_off_c, 0, 64, 0
4, 206680, Note_off_c, 0, 59, 0
4, 206680, Note_off_c, 0, 55, 0
4, 206680, Note_off_c, 0, 50, 0
4, 206680, Note_off_c, 0, 45, 0
4, 206880, Note_on_c, 0, 71, 95
4, 206880, Note_on_c, 0, 64, 95
4, 206880, Note_on_c, 0, 60, 95
4, 206880, Note_on_c, 0, 55, 95
4, 206880, Note_on_c, 0, 48, 95
4, 207360, Note_off_c, 0, 71, 0
4, 207360, Note_off_c, 0, 64, 0
4, 207360, Note_off_c, 0, 60, 0
4, 207360, Note_off_c, 0, 55, 0
4, 207360, Note_off_c, 0, 48, 0
4, 207360, Note_on_c, 0, 67, 95
4, 207360, Note_on_c, 0, 62, 95
4, 207360, Note_on_c, 0, 59, 95
4, 207360, Note_on_c, 0, 55, 95
4, 207360, Note_on_c, 0, 50, 95
4, 207360, Note_on_c, 0, 43, 95
4, 208320, Note_off_c, 0, 67, 0
4, 208320, Note_off_c, 0, 62, 0
4, 208320, Note_off_c, 0, 59, 0
4, 208320, Note_off_c, 0, 55, 0
4, 208320, Note_off_c, 0, 50, 0
4, 208320, Note_off_c, 0, 43, 0
4, 208320, Note_on_c, 0, 67, 95
4, 208320, Note_on_c, 0, 62, 95
4, 208320, Note_on_c, 0, 59, 95
4, 208320, Note_on_c, 0, 55, 95
4, 208320, Note_on_c, 0, 50, 95
4, 208320, Note_on_c, 0, 43, 95
4, 208800, Note_off_c, 0, 67, 0
4, 208800, Note_off_c, 0, 62, 0
4, 208800, Note_off_c, 0, 59, 0
4, 208800, Note_off_c, 0, 55, 0
4, 208800, Note_off_c, 0, 50, 0
4, 208800, Note_on_c, 0, 69, 95
4, 208800, Note_on_c, 0, 66, 95
4, 208800, Note_on_c, 0, 62, 95
4, 208800, Note_on_c, 0, 57, 95
4, 208800, Note_on_c, 0, 50, 95
4, 209520, Note_off_c, 0, 43, 0
4, 209760, Note_off_c, 0, 69, 0
4, 209760, Note_off_c, 0, 66, 0
4, 209760, Note_off_c, 0, 62, 0
4, 209760, Note_off_c, 0, 57, 0
4, 209760, Note_off_c, 0, 50, 0
4, 209760, Note_on_c, 0, 69, 95
4, 209760, Note_on_c, 0, 66, 95
4, 209760, Note_on_c, 0, 62, 95
4, 209760, Note_on_c, 0, 57, 95
4, 209760, Note_on_c, 0, 50, 95
4, 210240, Note_off_c, 0, 69, 0
4, 210240, Note_off_c, 0, 66, 0
4, 210240, Note_off_c, 0, 62, 0
4, 210240, Note_off_c, 0, 57, 0
4, 210240, Note_off_c, 0, 50, 0
4, 210240, Note_on_c, 0, 69, 95
4, 210240, Note_on_c, 0, 66, 95
4, 210240, Note_on_c, 0, 62, 95
4, 210240, Note_on_c, 0, 57, 95
4, 210240, Note_on_c, 0, 50, 95
4, 210480, Note_off_c, 0, 69, 0
4, 210480, Note_off_c, 0, 66, 0
4, 210480, Note_off_c, 0, 62, 0
4, 210480, Note_off_c, 0, 57, 0
4, 210480, Note_off_c, 0, 50, 0
4, 210480, Note_on_c, 0, 69, 95
4, 210480, Note_on_c, 0, 66, 95
4, 210480, Note_on_c, 0, 62, 95
4, 210480, Note_on_c, 0, 57, 95
4, 210480, Note_on_c, 0, 50, 95
4, 210720, Note_off_c, 0, 69, 0
4, 210720, Note_off_c, 0, 66, 0
4, 210720, Note_off_c, 0, 62, 0
4, 210720, Note_off_c, 0, 57, 0
4, 210720, Note_off_c, 0, 50, 0
4, 210720, Note_on_c, 0, 69, 95
4, 210720, Note_on_c, 0, 66, 95
4, 210720, Note_on_c, 0, 62, 95
4, 210720, Note_on_c, 0, 57, 95
4, 210720, Note_on_c, 0, 50, 95
4, 211200, Note_off_c, 0, 69, 0
4, 211200, Note_off_c, 0, 66, 0
4, 211200, Note_off_c, 0, 62, 0
4, 211200, Note_off_c, 0, 57, 0
4, 211200, Note_off_c, 0, 50, 0
4, 211200, Note_on_c, 0, 66, 95
4, 211200, Note_on_c, 0, 62, 95
4, 211200, Note_on_c, 0, 59, 95
4, 211200, Note_on_c, 0, 54, 95
4, 211200, Note_on_c, 0, 47, 95
4, 211680, Note_off_c, 0, 66, 0
4, 211680, Note_off_c, 0, 62, 0
4, 211680, Note_off_c, 0, 59, 0
4, 211680, Note_off_c, 0, 54, 0
4, 211680, Note_off_c, 0, 47, 0
4, 212160, Note_on_c, 0, 71, 95
4, 212160, Note_on_c, 0, 64, 95
4, 212160, Note_on_c, 0, 60, 95
4, 212160, Note_on_c, 0, 55, 95
4, 212160, Note_on_c, 0, 48, 95
4, 215040, Note_off_c, 0, 71, 0
4, 215040, Note_off_c, 0, 64, 0
4, 215040, Note_off_c, 0, 60, 0
4, 215040, Note_off_c, 0, 55, 0
4, 215040, Note_off_c, 0, 48, 0
4, 215520, Note_on_c, 0, 71, 95
4, 215520, Note_on_c, 0, 67, 95
4, 215520, Note_on_c, 0, 64, 95
4, 216000, Note_off_c, 0, 71, 0
4, 216000, Note_off_c, 0, 67, 0
4, 216000, Note_off_c, 0, 64, 0
4, 216480, Note_on_c, 0, 71, 95
4, 216480, Note_on_c, 0, 67, 95
4, 216480, Note_on_c, 0, 64, 95
4, 216960, Note_off_c, 0, 71, 0
4, 216960, Note_off_c, 0, 67, 0
4, 216960, Note_off_c, 0, 64, 0
4, 217440, Note_on_c, 0, 71, 95
4, 217440, Note_on_c, 0, 67, 95
4, 217440, Note_on_c, 0, 64, 95
4, 217920, Note_off_c, 0, 71, 0
4, 217920, Note_off_c, 0, 67, 0
4, 217920, Note_off_c, 0, 64, 0
4, 218400, Note_on_c, 0, 72, 95
4, 218400, Note_on_c, 0, 67, 95
4, 218400, Note_on_c, 0, 64, 95
4, 218880, Note_off_c, 0, 72, 0
4, 218880, Note_off_c, 0, 67, 0
4, 218880, Note_off_c, 0, 64, 0
4, 219360, Note_on_c, 0, 69, 95
4, 219360, Note_on_c, 0, 66, 95
4, 219360, Note_on_c, 0, 62, 95
4, 219840, Note_off_c, 0, 69, 0
4, 219840, Note_off_c, 0, 66, 0
4, 219840, Note_off_c, 0, 62, 0
4, 220320, Note_on_c, 0, 69, 95
4, 220320, Note_on_c, 0, 66, 95
4, 220320, Note_on_c, 0, 62, 95
4, 220800, Note_off_c, 0, 69, 0
4, 220800, Note_off_c, 0, 66, 0
4, 220800, Note_off_c, 0, 62, 0
4, 221280, Note_on_c, 0, 69, 95
4, 221280, Note_on_c, 0, 66, 95
4, 221280, Note_on_c, 0, 62, 95
4, 221760, Note_off_c, 0, 69, 0
4, 221760, Note_off_c, 0, 66, 0
4, 221760, Note_off_c, 0, 62, 0
4, 222240, Note_on_c, 0, 71, 95
4, 222240, Note_on_c, 0, 66, 15
4, 222240, Note_on_c, 0, 62, 95
4, 222720, Note_off_c, 0, 71, 0
4, 222720, Note_off_c, 0, 66, 0
4, 222720, Note_off_c, 0, 62, 0
4, 223200, Note_on_c, 0, 66, 95
4, 223200, Note_on_c, 0, 62, 95
4, 223200, Note_on_c, 0, 59, 95
4, 223680, Note_off_c, 0, 66, 0
4, 223680, Note_off_c, 0, 62, 0
4, 223680, Note_off_c, 0, 59, 0
4, 224160, Note_on_c, 0, 66, 95
4, 224160, Note_on_c, 0, 62, 95
4, 224160, Note_on_c, 0, 59, 95
4, 224640, Note_off_c, 0, 66, 0
4, 224640, Note_off_c, 0, 62, 0
4, 224640, Note_off_c, 0, 59, 0
4, 225120, Note_on_c, 0, 66, 95
4, 225120, Note_on_c, 0, 62, 95
4, 225120, Note_on_c, 0, 59, 95
4, 225600, Note_off_c, 0, 66, 0
4, 225600, Note_off_c, 0, 62, 0
4, 225600, Note_off_c, 0, 59, 0
4, 226080, Note_on_c, 0, 66, 95
4, 226080, Note_on_c, 0, 62, 95
4, 226080, Note_on_c, 0, 59, 95
4, 226560, Note_off_c, 0, 66, 0
4, 226560, Note_off_c, 0, 62, 0
4, 226560, Note_off_c, 0, 59, 0
4, 227040, Note_on_c, 0, 67, 95
4, 227040, Note_on_c, 0, 64, 95
4, 227040, Note_on_c, 0, 60, 95
4, 227520, Note_off_c, 0, 67, 0
4, 227520, Note_off_c, 0, 64, 0
4, 227520, Note_off_c, 0, 60, 0
4, 228000, Note_on_c, 0, 67, 95
4, 228000, Note_on_c, 0, 64, 95
4, 228000, Note_on_c, 0, 60, 95
4, 228480, Note_off_c, 0, 67, 0
4, 228480, Note_off_c, 0, 64, 0
4, 228480, Note_off_c, 0, 60, 0
4, 228960, Note_on_c, 0, 67, 95
4, 228960, Note_on_c, 0, 64, 95
4, 228960, Note_on_c, 0, 60, 95
4, 229440, Note_off_c, 0, 67, 0
4, 229440, Note_off_c, 0, 64, 0
4, 229440, Note_off_c, 0, 60, 0
4, 229920, Note_on_c, 0, 69, 95
4, 229920, Note_on_c, 0, 66, 95
4, 229920, Note_on_c, 0, 62, 95
4, 230400, Note_off_c, 0, 69, 0
4, 230400, Note_off_c, 0, 66, 0
4, 230400, Note_off_c, 0, 62, 0
4, 230880, Note_on_c, 0, 71, 95
4, 230880, Note_on_c, 0, 67, 95
4, 230880, Note_on_c, 0, 64, 95
4, 231360, Note_off_c, 0, 71, 0
4, 231360, Note_off_c, 0, 67, 0
4, 231360, Note_off_c, 0, 64, 0
4, 231840, Note_on_c, 0, 71, 95
4, 231840, Note_on_c, 0, 67, 95
4, 231840, Note_on_c, 0, 64, 95
4, 232320, Note_off_c, 0, 71, 0
4, 232320, Note_off_c, 0, 67, 0
4, 232320, Note_off_c, 0, 64, 0
4, 232800, Note_on_c, 0, 71, 95
4, 232800, Note_on_c, 0, 67, 95
4, 232800, Note_on_c, 0, 64, 95
4, 233280, Note_off_c, 0, 71, 0
4, 233280, Note_off_c, 0, 67, 0
4, 233280, Note_off_c, 0, 64, 0
4, 233760, Note_on_c, 0, 72, 95
4, 233760, Note_on_c, 0, 67, 95
4, 233760, Note_on_c, 0, 64, 95
4, 234240, Note_off_c, 0, 72, 0
4, 234240, Note_off_c, 0, 67, 0
4, 234240, Note_off_c, 0, 64, 0
4, 234720, Note_on_c, 0, 69, 95
4, 234720, Note_on_c, 0, 66, 95
4, 234720, Note_on_c, 0, 62, 95
4, 235200, Note_off_c, 0, 69, 0
4, 235200, Note_off_c, 0, 66, 0
4, 235200, Note_off_c, 0, 62, 0
4, 235680, Note_on_c, 0, 69, 95
4, 235680, Note_on_c, 0, 66, 95
4, 235680, Note_on_c, 0, 62, 95
4, 236160, Note_off_c, 0, 69, 0
4, 236160, Note_off_c, 0, 66, 0
4, 236160, Note_off_c, 0, 62, 0
4, 236640, Note_on_c, 0, 69, 95
4, 236640, Note_on_c, 0, 66, 95
4, 236640, Note_on_c, 0, 62, 95
4, 237120, Note_off_c, 0, 69, 0
4, 237120, Note_off_c, 0, 66, 0
4, 237120, Note_off_c, 0, 62, 0
4, 237600, Note_on_c, 0, 71, 95
4, 237600, Note_on_c, 0, 66, 95
4, 237600, Note_on_c, 0, 62, 95
4, 238080, Note_off_c, 0, 71, 0
4, 238080, Note_off_c, 0, 66, 0
4, 238080, Note_off_c, 0, 62, 0
4, 238560, Note_on_c, 0, 66, 95
4, 238560, Note_on_c, 0, 62, 95
4, 238560, Note_on_c, 0, 59, 95
4, 239040, Note_off_c, 0, 66, 0
4, 239040, Note_off_c, 0, 62, 0
4, 239040, Note_off_c, 0, 59, 0
4, 239520, Note_on_c, 0, 66, 95
4, 239520, Note_on_c, 0, 62, 95
4, 239520, Note_on_c, 0, 59, 95
4, 240000, Note_off_c, 0, 66, 0
4, 240000, Note_off_c, 0, 62, 0
4, 240000, Note_off_c, 0, 59, 0
4, 240480, Note_on_c, 0, 66, 95
4, 240480, Note_on_c, 0, 62, 95
4, 240480, Note_on_c, 0, 59, 95
4, 240960, Note_off_c, 0, 66, 0
4, 240960, Note_off_c, 0, 62, 0
4, 240960, Note_off_c, 0, 59, 0
4, 241440, Note_on_c, 0, 66, 95
4, 241440, Note_on_c, 0, 62, 95
4, 241440, Note_on_c, 0, 59, 95
4, 241920, Note_off_c, 0, 66, 0
4, 241920, Note_off_c, 0, 62, 0
4, 241920, Note_off_c, 0, 59, 0
4, 242400, Note_on_c, 0, 67, 95
4, 242400, Note_on_c, 0, 64, 95
4, 242400, Note_on_c, 0, 60, 95
4, 242880, Note_off_c, 0, 67, 0
4, 242880, Note_off_c, 0, 64, 0
4, 242880, Note_off_c, 0, 60, 0
4, 243360, Note_on_c, 0, 67, 95
4, 243360, Note_on_c, 0, 64, 95
4, 243360, Note_on_c, 0, 60, 95
4, 243840, Note_off_c, 0, 67, 0
4, 243840, Note_off_c, 0, 64, 0
4, 243840, Note_off_c, 0, 60, 0
4, 244320, Note_on_c, 0, 67, 95
4, 244320, Note_on_c, 0, 64, 95
4, 244320, Note_on_c, 0, 60, 95
4, 244800, Note_off_c, 0, 67, 0
4, 244800, Note_off_c, 0, 64, 0
4, 244800, Note_off_c, 0, 60, 0
4, 245280, Note_on_c, 0, 69, 95
4, 245280, Note_on_c, 0, 66, 95
4, 245280, Note_on_c, 0, 62, 95
4, 245760, Note_off_c, 0, 69, 0
4, 245760, Note_off_c, 0, 66, 0
4, 245760, Note_off_c, 0, 62, 0
4, 245760, Note_on_c, 0, 64, 95
4, 246000, Note_off_c, 0, 64, 0
4, 246000, Note_on_c, 0, 71, 95
4, 246240, Note_off_c, 0, 71, 0
4, 246240, Note_on_c, 0, 67, 95
4, 246480, Note_off_c, 0, 67, 0
4, 246480, Note_on_c, 0, 64, 95
4, 246720, Note_off_c, 0, 64, 0
4, 246720, Note_on_c, 0, 71, 95
4, 246960, Note_off_c, 0, 71, 0
4, 246960, Note_on_c, 0, 67, 95
4, 247200, Note_off_c, 0, 67, 0
4, 247200, Note_on_c, 0, 64, 95
4, 247440, Note_off_c, 0, 64, 0
4, 247440, Note_on_c, 0, 71, 95
4, 247680, Note_off_c, 0, 71, 0
4, 247680, Note_on_c, 0, 64, 95
4, 247920, Note_off_c, 0, 64, 0
4, 247920, Note_on_c, 0, 71, 95
4, 248160, Note_off_c, 0, 71, 0
4, 248160, Note_on_c, 0, 67, 95
4, 248400, Note_off_c, 0, 67, 0
4, 248400, Note_on_c, 0, 64, 95
4, 248640, Note_off_c, 0, 64, 0
4, 248640, Note_on_c, 0, 72, 95
4, 248880, Note_off_c, 0, 72, 0
4, 248880, Note_on_c, 0, 67, 95
4, 249120, Note_off_c, 0, 67, 0
4, 249120, Note_on_c, 0, 64, 95
4, 249360, Note_off_c, 0, 64, 0
4, 249360, Note_on_c, 0, 71, 95
4, 249600, Note_off_c, 0, 71, 0
4, 249600, Note_on_c, 0, 62, 95
4, 249840, Note_off_c, 0, 62, 0
4, 249840, Note_on_c, 0, 69, 95
4, 250080, Note_off_c, 0, 69, 0
4, 250080, Note_on_c, 0, 66, 95
4, 250320, Note_off_c, 0, 66, 0
4, 250320, Note_on_c, 0, 62, 95
4, 250560, Note_off_c, 0, 62, 0
4, 250560, Note_on_c, 0, 69, 95
4, 250800, Note_off_c, 0, 69, 0
4, 250800, Note_on_c, 0, 66, 95
4, 251040, Note_off_c, 0, 66, 0
4, 251040, Note_on_c, 0, 62, 95
4, 251280, Note_off_c, 0, 62, 0
4, 251280, Note_on_c, 0, 69, 95
4, 251520, Note_off_c, 0, 69, 0
4, 251520, Note_on_c, 0, 62, 95
4, 251760, Note_off_c, 0, 62, 0
4, 251760, Note_on_c, 0, 69, 95
4, 252000, Note_off_c, 0, 69, 0
4, 252000, Note_on_c, 0, 66, 95
4, 252240, Note_off_c, 0, 66, 0
4, 252240, Note_on_c, 0, 62, 95
4, 252480, Note_off_c, 0, 62, 0
4, 252480, Note_on_c, 0, 71, 95
4, 252720, Note_off_c, 0, 71, 0
4, 252720, Note_on_c, 0, 66, 95
4, 252960, Note_off_c, 0, 66, 0
4, 252960, Note_on_c, 0, 62, 95
4, 253200, Note_off_c, 0, 62, 0
4, 253200, Note_on_c, 0, 69, 95
4, 253440, Note_off_c, 0, 69, 0
4, 253440, Note_on_c, 0, 59, 95
4, 253680, Note_off_c, 0, 59, 0
4, 253680, Note_on_c, 0, 66, 95
4, 253920, Note_off_c, 0, 66, 0
4, 253920, Note_on_c, 0, 62, 95
4, 254160, Note_off_c, 0, 62, 0
4, 254160, Note_on_c, 0, 59, 95
4, 254400, Note_off_c, 0, 59, 0
4, 254400, Note_on_c, 0, 66, 95
4, 254640, Note_off_c, 0, 66, 0
4, 254640, Note_on_c, 0, 62, 95
4, 254880, Note_off_c, 0, 62, 0
4, 254880, Note_on_c, 0, 59, 95
4, 255120, Note_off_c, 0, 59, 0
4, 255120, Note_on_c, 0, 66, 95
4, 255360, Note_off_c, 0, 66, 0
4, 255360, Note_on_c, 0, 59, 95
4, 255600, Note_off_c, 0, 59, 0
4, 255600, Note_on_c, 0, 66, 95
4, 255840, Note_off_c, 0, 66, 0
4, 255840, Note_on_c, 0, 62, 95
4, 256080, Note_off_c, 0, 62, 0
4, 256080, Note_on_c, 0, 59, 95
4, 256320, Note_off_c, 0, 59, 0
4, 256320, Note_on_c, 0, 66, 95
4, 256560, Note_off_c, 0, 66, 0
4, 256560, Note_on_c, 0, 62, 95
4, 256800, Note_off_c, 0, 62, 0
4, 256800, Note_on_c, 0, 59, 95
4, 257040, Note_off_c, 0, 59, 0
4, 257040, Note_on_c, 0, 66, 95
4, 257280, Note_off_c, 0, 66, 0
4, 257280, Note_on_c, 0, 60, 95
4, 257520, Note_off_c, 0, 60, 0
4, 257520, Note_on_c, 0, 67, 95
4, 257760, Note_off_c, 0, 67, 0
4, 257760, Note_on_c, 0, 64, 95
4, 258000, Note_off_c, 0, 64, 0
4, 258000, Note_on_c, 0, 60, 95
4, 258240, Note_off_c, 0, 60, 0
4, 258240, Note_on_c, 0, 67, 95
4, 258480, Note_off_c, 0, 67, 0
4, 258480, Note_on_c, 0, 64, 95
4, 258720, Note_off_c, 0, 64, 0
4, 258720, Note_on_c, 0, 60, 95
4, 258960, Note_off_c, 0, 60, 0
4, 258960, Note_on_c, 0, 67, 95
4, 259200, Note_off_c, 0, 67, 0
4, 259200, Note_on_c, 0, 60, 95
4, 259440, Note_off_c, 0, 60, 0
4, 259440, Note_on_c, 0, 67, 95
4, 259680, Note_off_c, 0, 67, 0
4, 259680, Note_on_c, 0, 64, 95
4, 259920, Note_off_c, 0, 64, 0
4, 259920, Note_on_c, 0, 60, 95
4, 260160, Note_off_c, 0, 60, 0
4, 260160, Note_on_c, 0, 67, 95
4, 260400, Note_off_c, 0, 67, 0
4, 260400, Note_on_c, 0, 64, 95
4, 260640, Note_off_c, 0, 64, 0
4, 260640, Note_on_c, 0, 60, 95
4, 260880, Note_off_c, 0, 60, 0
4, 260880, Note_on_c, 0, 67, 95
4, 261120, Note_off_c, 0, 67, 0
4, 261120, Note_on_c, 0, 64, 95
4, 261360, Note_off_c, 0, 64, 0
4, 261360, Note_on_c, 0, 71, 95
4, 261600, Note_off_c, 0, 71, 0
4, 261600, Note_on_c, 0, 67, 95
4, 261840, Note_off_c, 0, 67, 0
4, 261840, Note_on_c, 0, 64, 95
4, 262080, Note_off_c, 0, 64, 0
4, 262080, Note_on_c, 0, 71, 95
4, 262320, Note_off_c, 0, 71, 0
4, 262320, Note_on_c, 0, 67, 95
4, 262560, Note_off_c, 0, 67, 0
4, 262560, Note_on_c, 0, 64, 95
4, 262800, Note_off_c, 0, 64, 0
4, 262800, Note_on_c, 0, 71, 95
4, 263040, Note_off_c, 0, 71, 0
4, 263040, Note_on_c, 0, 64, 95
4, 263280, Note_off_c, 0, 64, 0
4, 263280, Note_on_c, 0, 71, 95
4, 263520, Note_off_c, 0, 71, 0
4, 263520, Note_on_c, 0, 67, 95
4, 263760, Note_off_c, 0, 67, 0
4, 263760, Note_on_c, 0, 64, 95
4, 264000, Note_off_c, 0, 64, 0
4, 264000, Note_on_c, 0, 72, 95
4, 264240, Note_off_c, 0, 72, 0
4, 264240, Note_on_c, 0, 67, 95
4, 264480, Note_off_c, 0, 67, 0
4, 264480, Note_on_c, 0, 64, 95
4, 264720, Note_off_c, 0, 64, 0
4, 264720, Note_on_c, 0, 71, 95
4, 264960, Note_off_c, 0, 71, 0
4, 264960, Note_on_c, 0, 62, 95
4, 265200, Note_off_c, 0, 62, 0
4, 265200, Note_on_c, 0, 69, 95
4, 265440, Note_off_c, 0, 69, 0
4, 265440, Note_on_c, 0, 66, 95
4, 265680, Note_off_c, 0, 66, 0
4, 265680, Note_on_c, 0, 62, 95
4, 265920, Note_off_c, 0, 62, 0
4, 265920, Note_on_c, 0, 69, 95
4, 266160, Note_off_c, 0, 69, 0
4, 266160, Note_on_c, 0, 66, 95
4, 266400, Note_off_c, 0, 66, 0
4, 266400, Note_on_c, 0, 62, 95
4, 266640, Note_off_c, 0, 62, 0
4, 266640, Note_on_c, 0, 69, 95
4, 266880, Note_off_c, 0, 69, 0
4, 266880, Note_on_c, 0, 62, 95
4, 267120, Note_off_c, 0, 62, 0
4, 267120, Note_on_c, 0, 69, 95
4, 267360, Note_off_c, 0, 69, 0
4, 267360, Note_on_c, 0, 66, 95
4, 267600, Note_off_c, 0, 66, 0
4, 267600, Note_on_c, 0, 62, 95
4, 267840, Note_off_c, 0, 62, 0
4, 267840, Note_on_c, 0, 71, 95
4, 268080, Note_off_c, 0, 71, 0
4, 268080, Note_on_c, 0, 66, 95
4, 268320, Note_off_c, 0, 66, 0
4, 268320, Note_on_c, 0, 62, 95
4, 268560, Note_off_c, 0, 62, 0
4, 268560, Note_on_c, 0, 69, 95
4, 268800, Note_off_c, 0, 69, 0
4, 268800, Note_on_c, 0, 59, 95
4, 269040, Note_off_c, 0, 59, 0
4, 269040, Note_on_c, 0, 66, 95
4, 269280, Note_off_c, 0, 66, 0
4, 269280, Note_on_c, 0, 62, 95
4, 269520, Note_off_c, 0, 62, 0
4, 269520, Note_on_c, 0, 59, 95
4, 269760, Note_off_c, 0, 59, 0
4, 269760, Note_on_c, 0, 66, 95
4, 270000, Note_off_c, 0, 66, 0
4, 270000, Note_on_c, 0, 62, 95
4, 270240, Note_off_c, 0, 62, 0
4, 270240, Note_on_c, 0, 59, 95
4, 270480, Note_off_c, 0, 59, 0
4, 270480, Note_on_c, 0, 66, 95
4, 270720, Note_off_c, 0, 66, 0
4, 270720, Note_on_c, 0, 59, 95
4, 270960, Note_off_c, 0, 59, 0
4, 270960, Note_on_c, 0, 66, 95
4, 271200, Note_off_c, 0, 66, 0
4, 271200, Note_on_c, 0, 62, 95
4, 271440, Note_off_c, 0, 62, 0
4, 271440, Note_on_c, 0, 59, 95
4, 271680, Note_off_c, 0, 59, 0
4, 271680, Note_on_c, 0, 66, 95
4, 271920, Note_off_c, 0, 66, 0
4, 271920, Note_on_c, 0, 62, 95
4, 272160, Note_off_c, 0, 62, 0
4, 272160, Note_on_c, 0, 59, 95
4, 272400, Note_off_c, 0, 59, 0
4, 272400, Note_on_c, 0, 66, 95
4, 272640, Note_off_c, 0, 66, 0
4, 272640, Note_on_c, 0, 60, 95
4, 272880, Note_off_c, 0, 60, 0
4, 272880, Note_on_c, 0, 67, 95
4, 273120, Note_off_c, 0, 67, 0
4, 273120, Note_on_c, 0, 64, 95
4, 273360, Note_off_c, 0, 64, 0
4, 273360, Note_on_c, 0, 60, 95
4, 273600, Note_off_c, 0, 60, 0
4, 273600, Note_on_c, 0, 67, 95
4, 273840, Note_off_c, 0, 67, 0
4, 273840, Note_on_c, 0, 64, 95
4, 274080, Note_off_c, 0, 64, 0
4, 274080, Note_on_c, 0, 60, 95
4, 274320, Note_off_c, 0, 60, 0
4, 274320, Note_on_c, 0, 67, 95
4, 274560, Note_off_c, 0, 67, 0
4, 274560, Note_on_c, 0, 60, 95
4, 274800, Note_off_c, 0, 60, 0
4, 274800, Note_on_c, 0, 67, 95
4, 275040, Note_off_c, 0, 67, 0
4, 275040, Note_on_c, 0, 64, 95
4, 275280, Note_off_c, 0, 64, 0
4, 275280, Note_on_c, 0, 60, 95
4, 275520, Note_off_c, 0, 60, 0
4, 275520, Note_on_c, 0, 67, 95
4, 275760, Note_off_c, 0, 67, 0
4, 275760, Note_on_c, 0, 64, 95
4, 276000, Note_off_c, 0, 64, 0
4, 276000, Note_on_c, 0, 60, 95
4, 276240, Note_off_c, 0, 60, 0
4, 276240, Note_on_c, 0, 67, 95
4, 276480, Note_off_c, 0, 67, 0
4, 276480, Program_c, 1, 27
4, 276480, Note_on_c, 1, 74, 95
4, 276480, Control_c, 1, 101, 0
4, 276480, Control_c, 1, 100, 0
4, 276480, Control_c, 1, 6, 6
4, 276480, Control_c, 1, 38, 0
4, 276480, Pitch_bend_c, 1, 8192
4, 276768, Pitch_bend_c, 1, 8704
4, 277056, Pitch_bend_c, 1, 9216
4, 277344, Pitch_bend_c, 1, 9728
4, 277632, Pitch_bend_c, 1, 10240
4, 277920, Pitch_bend_c, 1, 10752
4, 278208, Pitch_bend_c, 1, 10752
4, 278496, Pitch_bend_c, 1, 10752
4, 278784, Pitch_bend_c, 1, 10752
4, 279072, Pitch_bend_c, 1, 10752
4, 279360, Note_off_c, 1, 74, 0
4, 279360, Pitch_bend_c, 1, 10752
4, 279360, Pitch_bend_c, 1, 8064
4, 279360, Control_c, 1, 101, 127
4, 279360, Control_c, 1, 10, 127
4, 279360, Note_on_c, 0, 76, 79
4, 279360, Program_c, 1, 27
4, 279360, Note_on_c, 1, 74, 95
4, 279360, Control_c, 1, 101, 0
4, 279360, Control_c, 1, 100, 0
4, 279360, Control_c, 1, 6, 6
4, 279360, Control_c, 1, 38, 0
4, 279360, Pitch_bend_c, 1, 8192
4, 279456, Pitch_bend_c, 1, 9216
4, 279552, Pitch_bend_c, 1, 10240
4, 279600, Pitch_bend_c, 1, 10752
4, 279696, Pitch_bend_c, 1, 10752
4, 279792, Pitch_bend_c, 1, 10752
4, 279840, Pitch_bend_c, 1, 10752
4, 279936, Pitch_bend_c, 1, 9728
4, 280032, Pitch_bend_c, 1, 8704
4, 280080, Pitch_bend_c, 1, 8192
4, 280176, Pitch_bend_c, 1, 8192
4, 280272, Pitch_bend_c, 1, 8192
4, 280320, Note_off_c, 0, 76, 0
4, 280320, Note_off_c, 1, 74, 0
4, 280320, Pitch_bend_c, 1, 8192
4, 280320, Pitch_bend_c, 1, 8064
4, 280320, Control_c, 1, 101, 127
4, 280320, Control_c, 1, 10, 127
4, 280320, Note_on_c, 0, 74, 95
4, 283200, Note_off_c, 0, 74, 0
4, 283200, Note_on_c, 0, 74, 95
4, 283200, Program_c, 1, 27
4, 283200, Note_on_c, 1, 72, 95
4, 283200, Control_c, 1, 101, 0
4, 283200, Control_c, 1, 100, 0
4, 283200, Control_c, 1, 6, 6
4, 283200, Control_c, 1, 38, 0
4, 283200, Pitch_bend_c, 1, 8192
4, 283296, Pitch_bend_c, 1, 9216
4, 283392, Pitch_bend_c, 1, 10240
4, 283440, Pitch_bend_c, 1, 10752
4, 283536, Pitch_bend_c, 1, 10752
4, 283632, Pitch_bend_c, 1, 10752
4, 283680, Pitch_bend_c, 1, 10752
4, 283776, Pitch_bend_c, 1, 9728
4, 283872, Pitch_bend_c, 1, 8704
4, 283920, Pitch_bend_c, 1, 8192
4, 284016, Pitch_bend_c, 1, 8192
4, 284112, Pitch_bend_c, 1, 8192
4, 284160, Note_off_c, 0, 74, 0
4, 284160, Note_off_c, 1, 72, 0
4, 284160, Pitch_bend_c, 1, 8192
4, 284160, Pitch_bend_c, 1, 8064
4, 284160, Control_c, 1, 101, 127
4, 284160, Control_c, 1, 10, 127
4, 284160, Note_on_c, 0, 71, 95
4, 287040, Note_off_c, 0, 71, 0
4, 287040, Note_on_c, 0, 71, 95
4, 288000, Note_off_c, 0, 71, 0
4, 288000, Note_on_c, 0, 67, 95
4, 290400, Note_off_c, 0, 67, 0
4, 290400, Note_on_c, 0, 67, 95
4, 290640, Note_off_c, 0, 67, 0
4, 290640, Note_on_c, 0, 67, 95
4, 290880, Note_off_c, 0, 67, 0
4, 290880, Note_on_c, 0, 67, 95
4, 291120, Note_off_c, 0, 67, 0
4, 291120, Note_on_c, 0, 67, 95
4, 291360, Note_off_c, 0, 67, 0
4, 291360, Note_on_c, 0, 67, 95
4, 291600, Note_off_c, 0, 67, 0
4, 291600, Note_on_c, 0, 67, 95
4, 291840, Note_off_c, 0, 67, 0
4, 291840, Program_c, 1, 27
4, 291840, Note_on_c, 1, 74, 95
4, 291840, Control_c, 1, 101, 0
4, 291840, Control_c, 1, 100, 0
4, 291840, Control_c, 1, 6, 6
4, 291840, Control_c, 1, 38, 0
4, 291840, Pitch_bend_c, 1, 8192
4, 292128, Pitch_bend_c, 1, 8704
4, 292416, Pitch_bend_c, 1, 9216
4, 292704, Pitch_bend_c, 1, 9728
4, 292992, Pitch_bend_c, 1, 10240
4, 293280, Pitch_bend_c, 1, 10752
4, 293568, Pitch_bend_c, 1, 10752
4, 293856, Pitch_bend_c, 1, 10752
4, 294144, Pitch_bend_c, 1, 10752
4, 294432, Pitch_bend_c, 1, 10752
4, 294720, Note_off_c, 1, 74, 0
4, 294720, Pitch_bend_c, 1, 10752
4, 294720, Pitch_bend_c, 1, 8064
4, 294720, Control_c, 1, 101, 127
4, 294720, Control_c, 1, 10, 127
4, 294720, Program_c, 1, 27
4, 294720, Note_on_c, 1, 76, 95
4, 294720, Control_c, 1, 101, 0
4, 294720, Control_c, 1, 100, 0
4, 294720, Control_c, 1, 6, 6
4, 294720, Control_c, 1, 38, 0
4, 294720, Pitch_bend_c, 1, 8192
4, 294816, Pitch_bend_c, 1, 9216
4, 294912, Pitch_bend_c, 1, 10240
4, 294960, Pitch_bend_c, 1, 10752
4, 295056, Pitch_bend_c, 1, 10752
4, 295152, Pitch_bend_c, 1, 10752
4, 295200, Pitch_bend_c, 1, 10752
4, 295296, Pitch_bend_c, 1, 9728
4, 295392, Pitch_bend_c, 1, 8704
4, 295440, Pitch_bend_c, 1, 8192
4, 295536, Pitch_bend_c, 1, 8192
4, 295632, Pitch_bend_c, 1, 8192
4, 295680, Note_off_c, 1, 76, 0
4, 295680, Pitch_bend_c, 1, 8192
4, 295680, Pitch_bend_c, 1, 8064
4, 295680, Control_c, 1, 101, 127
4, 295680, Control_c, 1, 10, 127
4, 295680, Note_on_c, 0, 74, 95
4, 298560, Note_off_c, 0, 74, 0
4, 298560, Program_c, 1, 27
4, 298560, Note_on_c, 1, 74, 95
4, 298560, Control_c, 1, 101, 0
4, 298560, Control_c, 1, 100, 0
4, 298560, Control_c, 1, 6, 6
4, 298560, Control_c, 1, 38, 0
4, 298560, Pitch_bend_c, 1, 8192
4, 298656, Pitch_bend_c, 1, 9216
4, 298752, Pitch_bend_c, 1, 10240
4, 298800, Pitch_bend_c, 1, 10752
4, 298896, Pitch_bend_c, 1, 10752
4, 298992, Pitch_bend_c, 1, 10752
4, 299040, Pitch_bend_c, 1, 10752
4, 299136, Pitch_bend_c, 1, 9728
4, 299232, Pitch_bend_c, 1, 8704
4, 299280, Pitch_bend_c, 1, 8192
4, 299376, Pitch_bend_c, 1, 8192
4, 299472, Pitch_bend_c, 1, 8192
4, 299520, Note_off_c, 1, 74, 0
4, 299520, Pitch_bend_c, 1, 8192
4, 299520, Pitch_bend_c, 1, 8064
4, 299520, Control_c, 1, 101, 127
4, 299520, Control_c, 1, 10, 127
4, 299520, Note_on_c, 0, 71, 95
4, 302400, Note_off_c, 0, 71, 0
4, 302400, Note_on_c, 0, 74, 95
4, 303360, Note_off_c, 0, 74, 0
4, 303360, Note_on_c, 0, 69, 95
4, 303840, Note_off_c, 0, 69, 0
4, 303840, Note_on_c, 0, 67, 95
4, 306720, Note_off_c, 0, 67, 0
4, 306720, Note_on_c, 0, 67, 50
4, 307200, Note_off_c, 0, 67, 0
4, 307200, Note_on_c, 0, 52, 95
4, 307440, Note_off_c, 0, 52, 0
4, 307440, Note_on_c, 0, 52, 95
4, 307680, Note_off_c, 0, 52, 0
4, 307680, Note_on_c, 0, 62, 95
4, 308160, Note_off_c, 0, 62, 0
4, 308160, Note_on_c, 0, 64, 95
4, 308640, Note_off_c, 0, 64, 0
4, 308640, Note_on_c, 0, 52, 95
4, 308880, Note_off_c, 0, 52, 0
4, 308880, Note_on_c, 0, 52, 95
4, 309120, Note_off_c, 0, 52, 0
4, 309120, Note_on_c, 0, 52, 95
4, 309360, Note_off_c, 0, 52, 0
4, 309360, Note_on_c, 0, 62, 95
4, 309840, Note_off_c, 0, 62, 0
4, 309840, Note_on_c, 0, 64, 95
4, 310320, Note_off_c, 0, 64, 0
4, 310320, Note_on_c, 0, 52, 95
4, 310560, Note_off_c, 0, 52, 0
4, 310560, Note_on_c, 0, 52, 95
4, 310800, Note_off_c, 0, 52, 0
4, 310800, Note_on_c, 0, 52, 95
4, 311040, Note_off_c, 0, 52, 0
4, 311040, Note_on_c, 0, 50, 95
4, 311520, Note_off_c, 0, 50, 0
4, 311520, Note_on_c, 0, 62, 95
4, 312000, Note_off_c, 0, 62, 0
4, 312000, Note_on_c, 0, 64, 95
4, 312480, Note_off_c, 0, 64, 0
4, 312480, Note_on_c, 0, 50, 95
4, 312720, Note_off_c, 0, 50, 0
4, 312720, Note_on_c, 0, 50, 95
4, 312960, Note_off_c, 0, 50, 0
4, 312960, Note_on_c, 0, 50, 95
4, 313200, Note_off_c, 0, 50, 0
4, 313200, Note_on_c, 0, 62, 95
4, 313680, Note_off_c, 0, 62, 0
4, 313680, Note_on_c, 0, 64, 95
4, 314160, Note_off_c, 0, 64, 0
4, 314160, Note_on_c, 0, 50, 95
4, 314400, Note_off_c, 0, 50, 0
4, 314400, Note_on_c, 0, 50, 95
4, 314640, Note_off_c, 0, 50, 0
4, 314640, Note_on_c, 0, 50, 95
4, 314880, Note_off_c, 0, 50, 0
4, 314880, Note_on_c, 0, 47, 95
4, 315360, Note_off_c, 0, 47, 0
4, 315360, Note_on_c, 0, 62, 95
4, 315840, Note_off_c, 0, 62, 0
4, 315840, Note_on_c, 0, 64, 95
4, 316320, Note_off_c, 0, 64, 0
4, 316320, Note_on_c, 0, 47, 95
4, 316560, Note_off_c, 0, 47, 0
4, 316560, Note_on_c, 0, 47, 95
4, 316800, Note_off_c, 0, 47, 0
4, 316800, Note_on_c, 0, 47, 95
4, 317040, Note_off_c, 0, 47, 0
4, 317040, Note_on_c, 0, 62, 95
4, 317280, Note_off_c, 0, 62, 0
4, 317280, Note_on_c, 0, 59, 85
4, 317320, Note_off_c, 0, 59, 0
4, 317520, Note_on_c, 0, 64, 95
4, 318000, Note_off_c, 0, 64, 0
4, 318000, Note_on_c, 0, 47, 95
4, 318240, Note_off_c, 0, 47, 0
4, 318240, Note_on_c, 0, 47, 95
4, 318480, Note_off_c, 0, 47, 0
4, 318480, Note_on_c, 0, 47, 95
4, 318720, Note_off_c, 0, 47, 0
4, 318720, Note_on_c, 0, 48, 95
4, 319200, Note_off_c, 0, 48, 0
4, 319200, Note_on_c, 0, 62, 95
4, 319680, Note_off_c, 0, 62, 0
4, 319680, Note_on_c, 0, 64, 95
4, 320160, Note_off_c, 0, 64, 0
4, 320160, Note_on_c, 0, 48, 95
4, 320400, Note_off_c, 0, 48, 0
4, 320400, Note_on_c, 0, 48, 95
4, 320640, Note_off_c, 0, 48, 0
4, 320640, Note_on_c, 0, 48, 95
4, 320880, Note_off_c, 0, 48, 0
4, 320880, Note_on_c, 0, 62, 95
4, 321120, Note_off_c, 0, 62, 0
4, 321120, Note_on_c, 0, 59, 85
4, 321160, Note_off_c, 0, 59, 0
4, 321360, Note_on_c, 0, 64, 95
4, 321840, Note_off_c, 0, 64, 0
4, 321840, Note_on_c, 0, 48, 95
4, 322080, Note_off_c, 0, 48, 0
4, 322080, Note_on_c, 0, 48, 95
4, 322320, Note_off_c, 0, 48, 0
4, 322320, Note_on_c, 0, 48, 95
4, 322560, Note_off_c, 0, 48, 0
4, 322560, Note_on_c, 0, 52, 95
4, 322800, Note_off_c, 0, 52, 0
4, 322800, Note_on_c, 0, 52, 95
4, 323040, Note_off_c, 0, 52, 0
4, 323040, Note_on_c, 0, 62, 95
4, 323520, Note_off_c, 0, 62, 0
4, 323520, Note_on_c, 0, 64, 95
4, 324000, Note_off_c, 0, 64, 0
4, 324000, Note_on_c, 0, 52, 95
4, 324240, Note_off_c, 0, 52, 0
4, 324240, Note_on_c, 0, 52, 95
4, 324480, Note_off_c, 0, 52, 0
4, 324480, Note_on_c, 0, 52, 95
4, 324720, Note_off_c, 0, 52, 0
4, 324720, Note_on_c, 0, 62, 95
4, 325200, Note_off_c, 0, 62, 0
4, 325200, Note_on_c, 0, 64, 95
4, 325680, Note_off_c, 0, 64, 0
4, 325680, Note_on_c, 0, 52, 95
4, 325920, Note_off_c, 0, 52, 0
4, 325920, Note_on_c, 0, 52, 95
4, 326160, Note_off_c, 0, 52, 0
4, 326160, Note_on_c, 0, 52, 95
4, 326400, Note_off_c, 0, 52, 0
4, 326400, Note_on_c, 0, 50, 95
4, 326880, Note_off_c, 0, 50, 0
4, 326880, Note_on_c, 0, 62, 95
4, 327360, Note_off_c, 0, 62, 0
4, 327360, Note_on_c, 0, 64, 95
4, 327840, Note_off_c, 0, 64, 0
4, 327840, Note_on_c, 0, 50, 95
4, 328080, Note_off_c, 0, 50, 0
4, 328080, Note_on_c, 0, 50, 95
4, 328320, Note_off_c, 0, 50, 0
4, 328320, Note_on_c, 0, 50, 95
4, 328560, Note_off_c, 0, 50, 0
4, 328560, Note_on_c, 0, 62, 95
4, 329040, Note_off_c, 0, 62, 0
4, 329040, Note_on_c, 0, 64, 95
4, 329520, Note_off_c, 0, 64, 0
4, 329520, Note_on_c, 0, 50, 95
4, 329760, Note_off_c, 0, 50, 0
4, 329760, Note_on_c, 0, 50, 95
4, 330000, Note_off_c, 0, 50, 0
4, 330000, Note_on_c, 0, 50, 95
4, 330240, Note_off_c, 0, 50, 0
4, 330240, Note_on_c, 0, 47, 95
4, 330720, Note_off_c, 0, 47, 0
4, 330720, Note_on_c, 0, 62, 95
4, 331200, Note_off_c, 0, 62, 0
4, 331200, Note_on_c, 0, 64, 95
4, 331680, Note_off_c, 0, 64, 0
4, 331680, Note_on_c, 0, 47, 95
4, 331920, Note_off_c, 0, 47, 0
4, 331920, Note_on_c, 0, 47, 95
4, 332160, Note_off_c, 0, 47, 0
4, 332160, Note_on_c, 0, 47, 95
4, 332400, Note_off_c, 0, 47, 0
4, 332400, Note_on_c, 0, 62, 95
4, 332640, Note_off_c, 0, 62, 0
4, 332640, Note_on_c, 0, 59, 85
4, 332680, Note_off_c, 0, 59, 0
4, 332880, Note_on_c, 0, 64, 95
4, 333360, Note_off_c, 0, 64, 0
4, 333360, Note_on_c, 0, 47, 95
4, 333600, Note_off_c, 0, 47, 0
4, 333600, Note_on_c, 0, 47, 95
4, 333840, Note_off_c, 0, 47, 0
4, 333840, Note_on_c, 0, 47, 95
4, 334080, Note_off_c, 0, 47, 0
4, 334080, Note_on_c, 0, 48, 95
4, 334560, Note_off_c, 0, 48, 0
4, 334560, Note_on_c, 0, 62, 95
4, 335040, Note_off_c, 0, 62, 0
4, 335040, Note_on_c, 0, 64, 95
4, 335520, Note_off_c, 0, 64, 0
4, 335520, Note_on_c, 0, 48, 95
4, 335760, Note_off_c, 0, 48, 0
4, 335760, Note_on_c, 0, 48, 95
4, 336000, Note_off_c, 0, 48, 0
4, 336000, Note_on_c, 0, 48, 95
4, 336240, Note_off_c, 0, 48, 0
4, 336240, Note_on_c, 0, 62, 95
4, 336480, Note_off_c, 0, 62, 0
4, 336480, Note_on_c, 0, 59, 85
4, 336520, Note_off_c, 0, 59, 0
4, 336720, Note_on_c, 0, 64, 95
4, 337200, Note_off_c, 0, 64, 0
4, 337200, Note_on_c, 0, 48, 95
4, 337440, Note_off_c, 0, 48, 0
4, 337440, Note_on_c, 0, 48, 95
4, 337680, Note_off_c, 0, 48, 0
4, 337680, Note_on_c, 0, 48, 95
4, 337920, Note_off_c, 0, 48, 0
4, 337920, Note_on_c, 0, 52, 95
4, 338160, Note_off_c, 0, 52, 0
4, 338160, Note_on_c, 0, 52, 95
4, 338400, Note_off_c, 0, 52, 0
4, 338400, Note_on_c, 0, 62, 95
4, 338880, Note_off_c, 0, 62, 0
4, 338880, Note_on_c, 0, 64, 95
4, 339360, Note_off_c, 0, 64, 0
4, 339360, Note_on_c, 0, 52, 95
4, 339600, Note_off_c, 0, 52, 0
4, 339600, Note_on_c, 0, 52, 95
4, 339840, Note_off_c, 0, 52, 0
4, 339840, Note_on_c, 0, 52, 95
4, 340080, Note_off_c, 0, 52, 0
4, 340080, Note_on_c, 0, 62, 95
4, 340560, Note_off_c, 0, 62, 0
4, 340560, Note_on_c, 0, 64, 95
4, 341040, Note_off_c, 0, 64, 0
4, 341040, Note_on_c, 0, 52, 95
4, 341280, Note_off_c, 0, 52, 0
4, 341280, Note_on_c, 0, 52, 95
4, 341520, Note_off_c, 0, 52, 0
4, 341520, Note_on_c, 0, 52, 95
4, 341760, Note_off_c, 0, 52, 0
4, 341760, Note_on_c, 0, 50, 95
4, 342240, Note_off_c, 0, 50, 0
4, 342240, Note_on_c, 0, 62, 95
4, 342720, Note_off_c, 0, 62, 0
4, 342720, Note_on_c, 0, 64, 95
4, 343200, Note_off_c, 0, 64, 0
4, 343200, Note_on_c, 0, 50, 95
4, 343440, Note_off_c, 0, 50, 0
4, 343440, Note_on_c, 0, 50, 95
4, 343680, Note_off_c, 0, 50, 0
4, 343680, Note_on_c, 0, 50, 95
4, 343920, Note_off_c, 0, 50, 0
4, 343920, Note_on_c, 0, 62, 95
4, 344400, Note_off_c, 0, 62, 0
4, 344400, Note_on_c, 0, 64, 95
4, 344880, Note_off_c, 0, 64, 0
4, 344880, Note_on_c, 0, 50, 95
4, 345120, Note_off_c, 0, 50, 0
4, 345120, Note_on_c, 0, 50, 95
4, 345360, Note_off_c, 0, 50, 0
4, 345360, Note_on_c, 0, 50, 95
4, 345600, Note_off_c, 0, 50, 0
4, 345600, Note_on_c, 0, 47, 95
4, 346080, Note_off_c, 0, 47, 0
4, 346080, Note_on_c, 0, 62, 95
4, 346560, Note_off_c, 0, 62, 0
4, 346560, Note_on_c, 0, 64, 95
4, 347040, Note_off_c, 0, 64, 0
4, 347040, Note_on_c, 0, 47, 95
4, 347280, Note_off_c, 0, 47, 0
4, 347280, Note_on_c, 0, 47, 95
4, 347520, Note_off_c, 0, 47, 0
4, 347520, Note_on_c, 0, 47, 95
4, 347760, Note_off_c, 0, 47, 0
4, 347760, Note_on_c, 0, 62, 95
4, 348000, Note_off_c, 0, 62, 0
4, 348000, Note_on_c, 0, 59, 85
4, 348040, Note_off_c, 0, 59, 0
4, 348240, Note_on_c, 0, 64, 95
4, 348720, Note_off_c, 0, 64, 0
4, 348720, Note_on_c, 0, 47, 95
4, 348960, Note_off_c, 0, 47, 0
4, 348960, Note_on_c, 0, 47, 95
4, 349200, Note_off_c, 0, 47, 0
4, 349200, Note_on_c, 0, 47, 95
4, 349440, Note_off_c, 0, 47, 0
4, 349440, Note_on_c, 0, 48, 95
4, 349920, Note_off_c, 0, 48, 0
4, 349920, Note_on_c, 0, 62, 95
4, 350400, Note_off_c, 0, 62, 0
4, 350400, Note_on_c, 0, 64, 95
4, 350880, Note_off_c, 0, 64, 0
4, 350880, Note_on_c, 0, 48, 95
4, 351120, Note_off_c, 0, 48, 0
4, 351120, Note_on_c, 0, 48, 95
4, 351360, Note_off_c, 0, 48, 0
4, 351360, Note_on_c, 0, 48, 95
4, 351600, Note_off_c, 0, 48, 0
4, 351600, Note_on_c, 0, 62, 95
4, 351840, Note_off_c, 0, 62, 0
4, 351840, Note_on_c, 0, 59, 85
4, 351880, Note_off_c, 0, 59, 0
4, 352080, Note_on_c, 0, 64, 95
4, 352560, Note_off_c, 0, 64, 0
4, 352560, Note_on_c, 0, 48, 95
4, 352800, Note_off_c, 0, 48, 0
4, 352800, Note_on_c, 0, 48, 95
4, 353040, Note_off_c, 0, 48, 0
4, 353040, Note_on_c, 0, 48, 95
4, 353280, Note_off_c, 0, 48, 0
4, 353280, End_track
0, 0, End_of_file
