0, 0, Header, 1, 4, 960
1, 0, Start_track
1, 0, Title_t, "untitled"
1, 0, Text_t, "The Jack"
1, 0, Text_t, ""
1, 0, Text_t, "AC/DC"
1, 0, Text_t, "High Voltage '76"
1, 0, Text_t, ""
1, 0, Text_t, ""
1, 0, Copyright_t, "Copyright 2017 by Gitaro"
1, 0, Marker_t, "The Jack / AC/DC - Copyright 2017 by Gitaro"
1, 0, MIDI_port, 0
1, 0, Key_signature, 0, "major"
1, 0, Time_signature, 4, 2, 24, 8
1, 0, Tempo, 779221
1, 0, End_track
2, 0, Start_track
2, 0, MIDI_port, 1
2, 0, Title_t, "Phill Roud"
2, 0, Program_c, 9, 0
2, 640, Note_on_c, 9, 36, 95
2, 680, Note_off_c, 9, 0, 0
2, 680, Note_on_c, 9, 36, 95
2, 720, Note_off_c, 9, 0, 0
2, 1480, Note_on_c, 9, 36, 95
2, 1520, Note_off_c, 9, 0, 0
2, 2440, Note_on_c, 9, 36, 95
2, 2480, Note_off_c, 9, 0, 0
2, 3400, Note_on_c, 9, 36, 95
2, 3440, Note_off_c, 9, 0, 0
2, 4360, Note_on_c, 9, 36, 95
2, 4400, Note_off_c, 9, 0, 0
2, 5320, Note_on_c, 9, 36, 95
2, 5360, Note_off_c, 9, 0, 0
2, 6280, Note_on_c, 9, 36, 95
2, 6320, Note_off_c, 9, 0, 0
2, 7240, Note_on_c, 9, 36, 95
2, 7280, Note_off_c, 9, 0, 0
2, 8200, Note_on_c, 9, 36, 95
2, 8240, Note_off_c, 9, 0, 0
2, 9160, Note_on_c, 9, 36, 95
2, 9200, Note_off_c, 9, 0, 0
2, 10120, Note_on_c, 9, 36, 95
2, 10160, Note_off_c, 9, 0, 0
2, 11080, Note_on_c, 9, 36, 95
2, 11120, Note_off_c, 9, 0, 0
2, 12040, Note_on_c, 9, 36, 95
2, 12080, Note_off_c, 9, 0, 0
2, 13000, Note_on_c, 9, 36, 95
2, 13040, Note_off_c, 9, 0, 0
2, 13960, Note_on_c, 9, 36, 95
2, 14000, Note_off_c, 9, 0, 0
2, 14920, Note_on_c, 9, 36, 95
2, 14960, Note_off_c, 9, 0, 0
2, 15880, Note_on_c, 9, 36, 95
2, 15920, Note_off_c, 9, 0, 0
2, 16840, Note_on_c, 9, 36, 95
2, 16880, Note_off_c, 9, 0, 0
2, 17800, Note_on_c, 9, 36, 95
2, 17840, Note_off_c, 9, 0, 0
2, 18760, Note_on_c, 9, 36, 95
2, 18800, Note_off_c, 9, 0, 0
2, 19720, Note_on_c, 9, 36, 95
2, 19760, Note_off_c, 9, 0, 0
2, 20680, Note_on_c, 9, 36, 95
2, 20720, Note_off_c, 9, 0, 0
2, 21640, Note_on_c, 9, 36, 95
2, 21680, Note_off_c, 9, 0, 0
2, 22600, Note_on_c, 9, 36, 95
2, 22640, Note_off_c, 9, 0, 0
2, 23560, Note_on_c, 9, 36, 95
2, 23600, Note_off_c, 9, 0, 0
2, 24520, Note_on_c, 9, 36, 95
2, 24560, Note_off_c, 9, 0, 0
2, 25480, Note_on_c, 9, 36, 95
2, 25520, Note_off_c, 9, 0, 0
2, 26440, Note_on_c, 9, 36, 95
2, 26480, Note_off_c, 9, 0, 0
2, 35400, Note_on_c, 9, 36, 95
2, 35440, Note_off_c, 9, 0, 0
2, 36360, Note_on_c, 9, 36, 95
2, 36400, Note_off_c, 9, 0, 0
2, 37320, Note_on_c, 9, 36, 95
2, 37360, Note_off_c, 9, 0, 0
2, 38280, Note_on_c, 9, 36, 95
2, 38320, Note_off_c, 9, 0, 0
2, 39240, Note_on_c, 9, 36, 95
2, 39280, Note_off_c, 9, 0, 0
2, 40200, Note_on_c, 9, 36, 95
2, 40240, Note_off_c, 9, 0, 0
2, 41160, Note_on_c, 9, 36, 95
2, 41200, Note_off_c, 9, 0, 0
2, 42120, Note_on_c, 9, 36, 95
2, 42160, Note_off_c, 9, 0, 0
2, 43080, Note_on_c, 9, 36, 95
2, 43120, Note_off_c, 9, 0, 0
2, 44040, Note_on_c, 9, 36, 95
2, 44080, Note_off_c, 9, 0, 0
2, 45000, Note_on_c, 9, 36, 95
2, 45040, Note_off_c, 9, 0, 0
2, 45960, Note_on_c, 9, 36, 95
2, 46000, Note_off_c, 9, 0, 0
2, 46920, Note_on_c, 9, 36, 95
2, 46960, Note_off_c, 9, 0, 0
2, 47880, Note_on_c, 9, 36, 95
2, 47920, Note_off_c, 9, 0, 0
2, 48840, Note_on_c, 9, 36, 95
2, 48880, Note_off_c, 9, 0, 0
2, 49600, Note_on_c, 9, 36, 95
2, 49640, Note_off_c, 9, 0, 0
2, 49640, Note_on_c, 9, 36, 95
2, 49680, Note_off_c, 9, 0, 0
2, 50440, Note_on_c, 9, 36, 95
2, 50480, Note_off_c, 9, 0, 0
2, 51720, Note_on_c, 9, 36, 95
2, 51760, Note_off_c, 9, 0, 0
2, 52680, Note_on_c, 9, 36, 95
2, 52720, Note_off_c, 9, 0, 0
2, 53640, Note_on_c, 9, 36, 95
2, 53680, Note_off_c, 9, 0, 0
2, 54600, Note_on_c, 9, 36, 95
2, 54640, Note_off_c, 9, 0, 0
2, 55560, Note_on_c, 9, 36, 95
2, 55600, Note_off_c, 9, 0, 0
2, 56520, Note_on_c, 9, 36, 95
2, 56560, Note_off_c, 9, 0, 0
2, 57480, Note_on_c, 9, 36, 95
2, 57520, Note_off_c, 9, 0, 0
2, 58440, Note_on_c, 9, 36, 95
2, 58480, Note_off_c, 9, 0, 0
2, 59400, Note_on_c, 9, 36, 95
2, 59440, Note_off_c, 9, 0, 0
2, 60360, Note_on_c, 9, 36, 95
2, 60400, Note_off_c, 9, 0, 0
2, 61320, Note_on_c, 9, 36, 95
2, 61360, Note_off_c, 9, 0, 0
2, 62280, Note_on_c, 9, 36, 95
2, 62320, Note_off_c, 9, 0, 0
2, 63240, Note_on_c, 9, 36, 95
2, 63280, Note_off_c, 9, 0, 0
2, 64200, Note_on_c, 9, 36, 95
2, 64240, Note_off_c, 9, 0, 0
2, 65160, Note_on_c, 9, 36, 95
2, 65200, Note_off_c, 9, 0, 0
2, 66120, Note_on_c, 9, 36, 95
2, 66160, Note_off_c, 9, 0, 0
2, 67080, Note_on_c, 9, 36, 95
2, 67120, Note_off_c, 9, 0, 0
2, 68040, Note_on_c, 9, 36, 95
2, 68080, Note_off_c, 9, 0, 0
2, 69000, Note_on_c, 9, 36, 95
2, 69040, Note_off_c, 9, 0, 0
2, 69960, Note_on_c, 9, 36, 95
2, 70000, Note_off_c, 9, 0, 0
2, 70920, Note_on_c, 9, 36, 95
2, 70960, Note_off_c, 9, 0, 0
2, 71880, Note_on_c, 9, 36, 95
2, 71920, Note_off_c, 9, 0, 0
2, 72840, Note_on_c, 9, 36, 95
2, 72880, Note_off_c, 9, 0, 0
2, 73800, Note_on_c, 9, 36, 95
2, 73840, Note_off_c, 9, 0, 0
2, 74760, Note_on_c, 9, 36, 95
2, 74800, Note_off_c, 9, 0, 0
2, 75720, Note_on_c, 9, 36, 95
2, 75760, Note_off_c, 9, 0, 0
2, 76680, Note_on_c, 9, 36, 95
2, 76720, Note_off_c, 9, 0, 0
2, 77640, Note_on_c, 9, 36, 95
2, 77680, Note_off_c, 9, 0, 0
2, 78600, Note_on_c, 9, 36, 95
2, 78640, Note_off_c, 9, 0, 0
2, 79560, Note_on_c, 9, 36, 95
2, 79600, Note_off_c, 9, 0, 0
2, 80320, Note_on_c, 9, 36, 95
2, 80360, Note_off_c, 9, 0, 0
2, 80360, Note_on_c, 9, 36, 95
2, 80400, Note_off_c, 9, 0, 0
2, 81160, Note_on_c, 9, 36, 95
2, 81200, Note_off_c, 9, 0, 0
2, 82440, Note_on_c, 9, 36, 95
2, 82480, Note_off_c, 9, 0, 0
2, 83400, Note_on_c, 9, 36, 95
2, 83440, Note_off_c, 9, 0, 0
2, 84360, Note_on_c, 9, 36, 95
2, 84400, Note_off_c, 9, 0, 0
2, 85320, Note_on_c, 9, 36, 95
2, 85360, Note_off_c, 9, 0, 0
2, 86280, Note_on_c, 9, 36, 95
2, 86320, Note_off_c, 9, 0, 0
2, 87240, Note_on_c, 9, 36, 95
2, 87280, Note_off_c, 9, 0, 0
2, 88200, Note_on_c, 9, 36, 95
2, 88240, Note_off_c, 9, 0, 0
2, 89160, Note_on_c, 9, 36, 95
2, 89200, Note_off_c, 9, 0, 0
2, 90120, Note_on_c, 9, 36, 95
2, 90160, Note_off_c, 9, 0, 0
2, 91080, Note_on_c, 9, 36, 95
2, 91120, Note_off_c, 9, 0, 0
2, 92040, Note_on_c, 9, 36, 95
2, 92080, Note_off_c, 9, 0, 0
2, 93000, Note_on_c, 9, 36, 95
2, 93040, Note_off_c, 9, 0, 0
2, 93960, Note_on_c, 9, 36, 95
2, 94000, Note_off_c, 9, 0, 0
2, 94920, Note_on_c, 9, 36, 95
2, 94960, Note_off_c, 9, 0, 0
2, 95880, Note_on_c, 9, 36, 95
2, 95920, Note_off_c, 9, 0, 0
2, 96640, Note_on_c, 9, 36, 95
2, 96680, Note_off_c, 9, 0, 0
2, 96680, Note_on_c, 9, 36, 95
2, 96720, Note_off_c, 9, 0, 0
2, 97480, Note_on_c, 9, 36, 95
2, 97520, Note_off_c, 9, 0, 0
2, 98440, Note_on_c, 9, 36, 95
2, 98480, Note_off_c, 9, 0, 0
2, 99400, Note_on_c, 9, 36, 95
2, 99440, Note_off_c, 9, 0, 0
2, 100360, Note_on_c, 9, 36, 95
2, 100400, Note_off_c, 9, 0, 0
2, 101320, Note_on_c, 9, 36, 95
2, 101360, Note_off_c, 9, 0, 0
2, 102280, Note_on_c, 9, 36, 95
2, 102320, Note_off_c, 9, 0, 0
2, 103240, Note_on_c, 9, 36, 95
2, 103280, Note_off_c, 9, 0, 0
2, 104200, Note_on_c, 9, 36, 95
2, 104240, Note_off_c, 9, 0, 0
2, 105160, Note_on_c, 9, 36, 95
2, 105200, Note_off_c, 9, 0, 0
2, 106120, Note_on_c, 9, 36, 95
2, 106160, Note_off_c, 9, 0, 0
2, 107080, Note_on_c, 9, 36, 95
2, 107120, Note_off_c, 9, 0, 0
2, 108040, Note_on_c, 9, 36, 95
2, 108080, Note_off_c, 9, 0, 0
2, 109000, Note_on_c, 9, 36, 95
2, 109040, Note_off_c, 9, 0, 0
2, 109960, Note_on_c, 9, 36, 95
2, 110000, Note_off_c, 9, 0, 0
2, 110920, Note_on_c, 9, 36, 95
2, 110960, Note_off_c, 9, 0, 0
2, 111880, Note_on_c, 9, 36, 95
2, 111920, Note_off_c, 9, 0, 0
2, 112840, Note_on_c, 9, 36, 95
2, 112880, Note_off_c, 9, 0, 0
2, 113800, Note_on_c, 9, 36, 95
2, 113840, Note_off_c, 9, 0, 0
2, 114760, Note_on_c, 9, 36, 95
2, 114800, Note_off_c, 9, 0, 0
2, 115720, Note_on_c, 9, 36, 95
2, 115760, Note_off_c, 9, 0, 0
2, 116680, Note_on_c, 9, 36, 95
2, 116720, Note_off_c, 9, 0, 0
2, 117640, Note_on_c, 9, 36, 95
2, 117680, Note_off_c, 9, 0, 0
2, 118600, Note_on_c, 9, 36, 95
2, 118640, Note_off_c, 9, 0, 0
2, 119560, Note_on_c, 9, 36, 95
2, 119600, Note_off_c, 9, 0, 0
2, 120520, Note_on_c, 9, 36, 95
2, 120560, Note_off_c, 9, 0, 0
2, 121480, Note_on_c, 9, 36, 95
2, 121520, Note_off_c, 9, 0, 0
2, 122440, Note_on_c, 9, 36, 95
2, 122480, Note_off_c, 9, 0, 0
2, 123400, Note_on_c, 9, 36, 95
2, 123440, Note_off_c, 9, 0, 0
2, 124360, Note_on_c, 9, 36, 95
2, 124400, Note_off_c, 9, 0, 0
2, 125320, Note_on_c, 9, 36, 95
2, 125360, Note_off_c, 9, 0, 0
2, 126280, Note_on_c, 9, 36, 95
2, 126320, Note_off_c, 9, 0, 0
2, 127240, Note_on_c, 9, 36, 95
2, 127280, Note_off_c, 9, 0, 0
2, 135880, Note_on_c, 9, 36, 95
2, 135920, Note_off_c, 9, 0, 0
2, 136840, Note_on_c, 9, 36, 95
2, 136880, Note_off_c, 9, 0, 0
2, 137800, Note_on_c, 9, 36, 95
2, 137840, Note_off_c, 9, 0, 0
2, 138760, Note_on_c, 9, 36, 95
2, 138800, Note_off_c, 9, 0, 0
2, 139720, Note_on_c, 9, 36, 95
2, 139760, Note_off_c, 9, 0, 0
2, 142280, Note_on_c, 9, 36, 95
2, 142320, Note_off_c, 9, 0, 0
2, 143560, Note_on_c, 9, 36, 95
2, 143600, Note_off_c, 9, 0, 0
2, 144520, Note_on_c, 9, 36, 95
2, 144560, Note_off_c, 9, 0, 0
2, 145480, Note_on_c, 9, 36, 95
2, 145520, Note_off_c, 9, 0, 0
2, 146440, Note_on_c, 9, 36, 95
2, 146480, Note_off_c, 9, 0, 0
2, 147400, Note_on_c, 9, 36, 95
2, 147440, Note_off_c, 9, 0, 0
2, 148360, Note_on_c, 9, 36, 95
2, 148400, Note_off_c, 9, 0, 0
2, 149320, Note_on_c, 9, 36, 95
2, 149360, Note_off_c, 9, 0, 0
2, 150280, Note_on_c, 9, 36, 95
2, 150320, Note_off_c, 9, 0, 0
2, 151240, Note_on_c, 9, 36, 95
2, 151280, Note_off_c, 9, 0, 0
2, 152200, Note_on_c, 9, 36, 95
2, 152240, Note_off_c, 9, 0, 0
2, 153160, Note_on_c, 9, 36, 95
2, 153200, Note_off_c, 9, 0, 0
2, 154120, Note_on_c, 9, 36, 95
2, 154160, Note_off_c, 9, 0, 0
2, 155080, Note_on_c, 9, 36, 95
2, 155120, Note_off_c, 9, 0, 0
2, 156040, Note_on_c, 9, 36, 95
2, 156080, Note_off_c, 9, 0, 0
2, 157000, Note_on_c, 9, 36, 95
2, 157040, Note_off_c, 9, 0, 0
2, 157960, Note_on_c, 9, 36, 95
2, 158000, Note_off_c, 9, 0, 0
2, 158920, Note_on_c, 9, 36, 95
2, 158960, Note_off_c, 9, 0, 0
2, 159880, Note_on_c, 9, 36, 95
2, 159920, Note_off_c, 9, 0, 0
2, 160840, Note_on_c, 9, 36, 95
2, 160880, Note_off_c, 9, 0, 0
2, 161800, Note_on_c, 9, 36, 95
2, 161840, Note_off_c, 9, 0, 0
2, 162760, Note_on_c, 9, 36, 95
2, 162800, Note_off_c, 9, 0, 0
2, 163720, Note_on_c, 9, 36, 95
2, 163760, Note_off_c, 9, 0, 0
2, 164680, Note_on_c, 9, 36, 95
2, 164720, Note_off_c, 9, 0, 0
2, 165640, Note_on_c, 9, 36, 95
2, 165680, Note_off_c, 9, 0, 0
2, 166600, Note_on_c, 9, 36, 95
2, 166640, Note_off_c, 9, 0, 0
2, 167560, Note_on_c, 9, 36, 95
2, 167600, Note_off_c, 9, 0, 0
2, 168520, Note_on_c, 9, 36, 95
2, 168560, Note_off_c, 9, 0, 0
2, 169480, Note_on_c, 9, 36, 95
2, 169520, Note_off_c, 9, 0, 0
2, 170440, Note_on_c, 9, 36, 95
2, 170480, Note_off_c, 9, 0, 0
2, 171400, Note_on_c, 9, 36, 95
2, 171440, Note_off_c, 9, 0, 0
2, 172360, Note_on_c, 9, 36, 95
2, 172400, Note_off_c, 9, 0, 0
2, 173320, Note_on_c, 9, 36, 95
2, 173360, Note_off_c, 9, 0, 0
2, 174280, Note_on_c, 9, 36, 95
2, 174320, Note_off_c, 9, 0, 0
2, 175240, Note_on_c, 9, 36, 95
2, 175280, Note_off_c, 9, 0, 0
2, 176200, Note_on_c, 9, 36, 95
2, 176240, Note_off_c, 9, 0, 0
2, 177160, Note_on_c, 9, 36, 95
2, 177200, Note_off_c, 9, 0, 0
2, 178120, Note_on_c, 9, 36, 95
2, 178160, Note_off_c, 9, 0, 0
2, 179080, Note_on_c, 9, 36, 95
2, 179120, Note_off_c, 9, 0, 0
2, 180040, Note_on_c, 9, 36, 95
2, 180080, Note_off_c, 9, 0, 0
2, 181000, Note_on_c, 9, 36, 95
2, 181040, Note_off_c, 9, 0, 0
2, 181960, Note_on_c, 9, 36, 95
2, 182000, Note_off_c, 9, 0, 0
2, 182920, Note_on_c, 9, 36, 95
2, 182960, Note_off_c, 9, 0, 0
2, 183880, Note_on_c, 9, 36, 95
2, 183920, Note_off_c, 9, 0, 0
2, 184840, Note_on_c, 9, 36, 95
2, 184880, Note_off_c, 9, 0, 0
2, 185800, Note_on_c, 9, 36, 95
2, 185840, Note_off_c, 9, 0, 0
2, 189960, Note_on_c, 9, 36, 95
2, 190000, Note_off_c, 9, 0, 0
2, 190920, Note_on_c, 9, 36, 95
2, 190960, Note_off_c, 9, 0, 0
2, 191880, Note_on_c, 9, 36, 95
2, 191920, Note_off_c, 9, 0, 0
2, 192840, Note_on_c, 9, 36, 95
2, 192880, Note_off_c, 9, 0, 0
2, 193800, Note_on_c, 9, 36, 95
2, 193840, Note_off_c, 9, 0, 0
2, 194760, Note_on_c, 9, 36, 95
2, 194800, Note_off_c, 9, 0, 0
2, 195720, Note_on_c, 9, 36, 95
2, 195760, Note_off_c, 9, 0, 0
2, 196680, Note_on_c, 9, 36, 95
2, 196720, Note_off_c, 9, 0, 0
2, 197640, Note_on_c, 9, 36, 95
2, 197680, Note_off_c, 9, 0, 0
2, 198600, Note_on_c, 9, 36, 95
2, 198640, Note_off_c, 9, 0, 0
2, 199560, Note_on_c, 9, 36, 95
2, 199600, Note_off_c, 9, 0, 0
2, 200520, Note_on_c, 9, 36, 95
2, 200560, Note_off_c, 9, 0, 0
2, 201480, Note_on_c, 9, 36, 95
2, 201520, Note_off_c, 9, 0, 0
2, 202440, Note_on_c, 9, 36, 95
2, 202480, Note_off_c, 9, 0, 0
2, 203200, Note_on_c, 9, 36, 95
2, 203240, Note_off_c, 9, 0, 0
2, 203240, Note_on_c, 9, 36, 95
2, 203280, Note_off_c, 9, 0, 0
2, 204040, Note_on_c, 9, 36, 95
2, 204080, Note_off_c, 9, 0, 0
2, 205320, Note_on_c, 9, 36, 95
2, 205360, Note_off_c, 9, 0, 0
2, 206280, Note_on_c, 9, 36, 95
2, 206320, Note_off_c, 9, 0, 0
2, 207240, Note_on_c, 9, 36, 95
2, 207280, Note_off_c, 9, 0, 0
2, 208200, Note_on_c, 9, 36, 95
2, 208240, Note_off_c, 9, 0, 0
2, 209160, Note_on_c, 9, 36, 95
2, 209200, Note_off_c, 9, 0, 0
2, 210120, Note_on_c, 9, 36, 95
2, 210160, Note_off_c, 9, 0, 0
2, 211080, Note_on_c, 9, 36, 95
2, 211120, Note_off_c, 9, 0, 0
2, 212040, Note_on_c, 9, 36, 95
2, 212080, Note_off_c, 9, 0, 0
2, 213000, Note_on_c, 9, 36, 95
2, 213040, Note_off_c, 9, 0, 0
2, 213960, Note_on_c, 9, 36, 95
2, 214000, Note_off_c, 9, 0, 0
2, 214920, Note_on_c, 9, 36, 95
2, 214960, Note_off_c, 9, 0, 0
2, 215880, Note_on_c, 9, 36, 95
2, 215920, Note_off_c, 9, 0, 0
2, 216840, Note_on_c, 9, 36, 95
2, 216880, Note_off_c, 9, 0, 0
2, 217800, Note_on_c, 9, 36, 95
2, 217840, Note_off_c, 9, 0, 0
2, 218760, Note_on_c, 9, 36, 95
2, 218800, Note_off_c, 9, 0, 0
2, 219720, Note_on_c, 9, 36, 95
2, 219760, Note_off_c, 9, 0, 0
2, 220680, Note_on_c, 9, 36, 95
2, 220720, Note_off_c, 9, 0, 0
2, 221640, Note_on_c, 9, 36, 95
2, 221680, Note_off_c, 9, 0, 0
2, 222600, Note_on_c, 9, 36, 95
2, 222640, Note_off_c, 9, 0, 0
2, 223560, Note_on_c, 9, 36, 95
2, 223600, Note_off_c, 9, 0, 0
2, 224520, Note_on_c, 9, 36, 95
2, 224560, Note_off_c, 9, 0, 0
2, 225480, Note_on_c, 9, 36, 95
2, 225520, Note_off_c, 9, 0, 0
2, 226440, Note_on_c, 9, 36, 95
2, 226480, Note_off_c, 9, 0, 0
2, 227400, Note_on_c, 9, 36, 95
2, 227440, Note_off_c, 9, 0, 0
2, 228360, Note_on_c, 9, 36, 95
2, 228400, Note_off_c, 9, 0, 0
2, 229320, Note_on_c, 9, 36, 95
2, 229360, Note_off_c, 9, 0, 0
2, 230280, Note_on_c, 9, 36, 95
2, 230320, Note_off_c, 9, 0, 0
2, 231240, Note_on_c, 9, 36, 95
2, 231280, Note_off_c, 9, 0, 0
2, 232200, Note_on_c, 9, 36, 95
2, 232240, Note_off_c, 9, 0, 0
2, 233160, Note_on_c, 9, 36, 95
2, 233200, Note_off_c, 9, 0, 0
2, 233920, Note_on_c, 9, 36, 95
2, 233960, Note_off_c, 9, 0, 0
2, 233960, Note_on_c, 9, 36, 95
2, 234000, Note_off_c, 9, 0, 0
2, 234760, Note_on_c, 9, 36, 95
2, 234800, Note_off_c, 9, 0, 0
2, 236040, Note_on_c, 9, 36, 95
2, 236080, Note_off_c, 9, 0, 0
2, 237000, Note_on_c, 9, 36, 95
2, 237040, Note_off_c, 9, 0, 0
2, 237960, Note_on_c, 9, 36, 95
2, 238000, Note_off_c, 9, 0, 0
2, 238920, Note_on_c, 9, 36, 95
2, 238960, Note_off_c, 9, 0, 0
2, 239880, Note_on_c, 9, 36, 95
2, 239920, Note_off_c, 9, 0, 0
2, 240840, Note_on_c, 9, 36, 95
2, 240880, Note_off_c, 9, 0, 0
2, 241800, Note_on_c, 9, 36, 95
2, 241840, Note_off_c, 9, 0, 0
2, 242760, Note_on_c, 9, 36, 95
2, 242800, Note_off_c, 9, 0, 0
2, 243720, Note_on_c, 9, 36, 95
2, 243760, Note_off_c, 9, 0, 0
2, 244680, Note_on_c, 9, 36, 95
2, 244720, Note_off_c, 9, 0, 0
2, 245640, Note_on_c, 9, 36, 95
2, 245680, Note_off_c, 9, 0, 0
2, 246600, Note_on_c, 9, 36, 95
2, 246640, Note_off_c, 9, 0, 0
2, 247560, Note_on_c, 9, 36, 95
2, 247600, Note_off_c, 9, 0, 0
2, 248520, Note_on_c, 9, 36, 95
2, 248560, Note_off_c, 9, 0, 0
2, 249480, Note_on_c, 9, 36, 95
2, 249520, Note_off_c, 9, 0, 0
2, 250240, Note_on_c, 9, 36, 95
2, 250280, Note_off_c, 9, 0, 0
2, 250280, Note_on_c, 9, 36, 95
2, 250320, Note_off_c, 9, 0, 0
2, 251080, Note_on_c, 9, 36, 95
2, 251120, Note_off_c, 9, 0, 0
2, 252040, Note_on_c, 9, 36, 95
2, 252080, Note_off_c, 9, 0, 0
2, 253000, Note_on_c, 9, 36, 95
2, 253040, Note_off_c, 9, 0, 0
2, 253960, Note_on_c, 9, 36, 95
2, 254000, Note_off_c, 9, 0, 0
2, 254920, Note_on_c, 9, 36, 95
2, 254960, Note_off_c, 9, 0, 0
2, 255880, Note_on_c, 9, 36, 95
2, 255920, Note_off_c, 9, 0, 0
2, 256840, Note_on_c, 9, 36, 95
2, 256880, Note_off_c, 9, 0, 0
2, 257800, Note_on_c, 9, 36, 95
2, 257840, Note_off_c, 9, 0, 0
2, 258760, Note_on_c, 9, 36, 95
2, 258800, Note_off_c, 9, 0, 0
2, 259720, Note_on_c, 9, 36, 95
2, 259760, Note_off_c, 9, 0, 0
2, 260680, Note_on_c, 9, 36, 95
2, 260720, Note_off_c, 9, 0, 0
2, 261640, Note_on_c, 9, 36, 95
2, 261680, Note_off_c, 9, 0, 0
2, 262600, Note_on_c, 9, 36, 95
2, 262640, Note_off_c, 9, 0, 0
2, 263560, Note_on_c, 9, 36, 95
2, 263600, Note_off_c, 9, 0, 0
2, 264520, Note_on_c, 9, 36, 95
2, 264560, Note_off_c, 9, 0, 0
2, 265480, Note_on_c, 9, 36, 95
2, 265520, Note_off_c, 9, 0, 0
2, 266440, Note_on_c, 9, 36, 95
2, 266480, Note_off_c, 9, 0, 0
2, 267400, Note_on_c, 9, 36, 95
2, 267440, Note_off_c, 9, 0, 0
2, 268360, Note_on_c, 9, 36, 95
2, 268400, Note_off_c, 9, 0, 0
2, 269320, Note_on_c, 9, 36, 95
2, 269360, Note_off_c, 9, 0, 0
2, 270280, Note_on_c, 9, 36, 95
2, 270320, Note_off_c, 9, 0, 0
2, 271240, Note_on_c, 9, 36, 95
2, 271280, Note_off_c, 9, 0, 0
2, 272200, Note_on_c, 9, 36, 95
2, 272240, Note_off_c, 9, 0, 0
2, 273160, Note_on_c, 9, 36, 95
2, 273200, Note_off_c, 9, 0, 0
2, 274120, Note_on_c, 9, 36, 95
2, 274160, Note_off_c, 9, 0, 0
2, 275080, Note_on_c, 9, 36, 95
2, 275120, Note_off_c, 9, 0, 0
2, 276040, Note_on_c, 9, 36, 95
2, 276080, Note_off_c, 9, 0, 0
2, 277000, Note_on_c, 9, 36, 95
2, 277040, Note_off_c, 9, 0, 0
2, 277960, Note_on_c, 9, 36, 95
2, 278000, Note_off_c, 9, 0, 0
2, 278920, Note_on_c, 9, 36, 95
2, 278960, Note_off_c, 9, 0, 0
2, 279880, Note_on_c, 9, 36, 95
2, 279920, Note_off_c, 9, 0, 0
2, 280840, Note_on_c, 9, 36, 95
2, 280880, Note_off_c, 9, 0, 0
2, 289480, Note_on_c, 9, 36, 95
2, 289520, Note_off_c, 9, 0, 0
2, 290440, Note_on_c, 9, 36, 95
2, 290480, Note_off_c, 9, 0, 0
2, 291400, Note_on_c, 9, 36, 95
2, 291440, Note_off_c, 9, 0, 0
2, 292360, Note_on_c, 9, 36, 95
2, 292400, Note_off_c, 9, 0, 0
2, 293320, Note_on_c, 9, 36, 95
2, 293360, Note_off_c, 9, 0, 0
2, 297160, Note_on_c, 9, 36, 95
2, 297200, Note_off_c, 9, 0, 0
2, 298120, Note_on_c, 9, 36, 95
2, 298160, Note_off_c, 9, 0, 0
2, 299080, Note_on_c, 9, 36, 95
2, 299120, Note_off_c, 9, 0, 0
2, 300040, Note_on_c, 9, 36, 95
2, 300080, Note_off_c, 9, 0, 0
2, 301000, Note_on_c, 9, 36, 95
2, 301040, Note_off_c, 9, 0, 0
2, 301960, Note_on_c, 9, 36, 95
2, 302000, Note_off_c, 9, 0, 0
2, 302920, Note_on_c, 9, 36, 95
2, 302960, Note_off_c, 9, 0, 0
2, 303880, Note_on_c, 9, 36, 95
2, 303920, Note_off_c, 9, 0, 0
2, 304840, Note_on_c, 9, 36, 95
2, 304880, Note_off_c, 9, 0, 0
2, 305800, Note_on_c, 9, 36, 95
2, 305840, Note_off_c, 9, 0, 0
2, 306760, Note_on_c, 9, 36, 95
2, 306800, Note_off_c, 9, 0, 0
2, 307720, Note_on_c, 9, 36, 95
2, 307760, Note_off_c, 9, 0, 0
2, 308680, Note_on_c, 9, 36, 95
2, 308720, Note_off_c, 9, 0, 0
2, 309640, Note_on_c, 9, 36, 95
2, 309680, Note_off_c, 9, 0, 0
2, 310600, Note_on_c, 9, 36, 95
2, 310640, Note_off_c, 9, 0, 0
2, 311560, Note_on_c, 9, 36, 95
2, 311600, Note_off_c, 9, 0, 0
2, 312520, Note_on_c, 9, 36, 95
2, 312560, Note_off_c, 9, 0, 0
2, 313480, Note_on_c, 9, 36, 95
2, 313520, Note_off_c, 9, 0, 0
2, 314440, Note_on_c, 9, 36, 95
2, 314480, Note_off_c, 9, 0, 0
2, 315400, Note_on_c, 9, 36, 95
2, 315440, Note_off_c, 9, 0, 0
2, 316360, Note_on_c, 9, 36, 95
2, 316400, Note_off_c, 9, 0, 0
2, 317320, Note_on_c, 9, 36, 95
2, 317360, Note_off_c, 9, 0, 0
2, 318280, Note_on_c, 9, 36, 95
2, 318320, Note_off_c, 9, 0, 0
2, 319240, Note_on_c, 9, 36, 95
2, 319280, Note_off_c, 9, 0, 0
2, 320200, Note_on_c, 9, 36, 95
2, 320240, Note_off_c, 9, 0, 0
2, 321160, Note_on_c, 9, 36, 95
2, 321200, Note_off_c, 9, 0, 0
2, 322120, Note_on_c, 9, 36, 95
2, 322160, Note_off_c, 9, 0, 0
2, 323080, Note_on_c, 9, 36, 95
2, 323120, Note_off_c, 9, 0, 0
2, 324040, Note_on_c, 9, 36, 95
2, 324080, Note_off_c, 9, 0, 0
2, 325000, Note_on_c, 9, 36, 95
2, 325040, Note_off_c, 9, 0, 0
2, 325960, Note_on_c, 9, 36, 95
2, 326000, Note_off_c, 9, 0, 0
2, 326920, Note_on_c, 9, 36, 95
2, 326960, Note_off_c, 9, 0, 0
2, 335560, Note_on_c, 9, 36, 95
2, 335600, Note_off_c, 9, 0, 0
2, 336520, Note_on_c, 9, 36, 95
2, 336560, Note_off_c, 9, 0, 0
2, 337480, Note_on_c, 9, 36, 95
2, 337520, Note_off_c, 9, 0, 0
2, 338440, Note_on_c, 9, 36, 95
2, 338480, Note_off_c, 9, 0, 0
2, 339400, Note_on_c, 9, 36, 95
2, 339440, Note_off_c, 9, 0, 0
2, 343240, Note_on_c, 9, 36, 95
2, 343280, Note_off_c, 9, 0, 0
2, 344200, Note_on_c, 9, 36, 95
2, 344240, Note_off_c, 9, 0, 0
2, 345160, Note_on_c, 9, 36, 95
2, 345200, Note_off_c, 9, 0, 0
2, 346120, Note_on_c, 9, 36, 95
2, 346160, Note_off_c, 9, 0, 0
2, 347080, Note_on_c, 9, 36, 95
2, 347120, Note_off_c, 9, 0, 0
2, 348040, Note_on_c, 9, 36, 95
2, 348080, Note_off_c, 9, 0, 0
2, 349000, Note_on_c, 9, 36, 95
2, 349040, Note_off_c, 9, 0, 0
2, 349960, Note_on_c, 9, 36, 95
2, 350000, Note_off_c, 9, 0, 0
2, 350920, Note_on_c, 9, 36, 95
2, 350960, Note_off_c, 9, 0, 0
2, 351880, Note_on_c, 9, 36, 95
2, 351920, Note_off_c, 9, 0, 0
2, 352840, Note_on_c, 9, 36, 95
2, 352880, Note_off_c, 9, 0, 0
2, 353800, Note_on_c, 9, 36, 95
2, 353840, Note_off_c, 9, 0, 0
2, 354760, Note_on_c, 9, 36, 95
2, 354800, Note_off_c, 9, 0, 0
2, 355720, Note_on_c, 9, 36, 95
2, 355760, Note_off_c, 9, 0, 0
2, 356680, Note_on_c, 9, 36, 95
2, 356720, Note_off_c, 9, 0, 0
2, 357640, Note_on_c, 9, 36, 95
2, 357680, Note_off_c, 9, 0, 0
2, 358600, Note_on_c, 9, 36, 95
2, 358640, Note_off_c, 9, 0, 0
2, 359560, Note_on_c, 9, 36, 95
2, 359600, Note_off_c, 9, 0, 0
2, 360520, Note_on_c, 9, 36, 95
2, 360560, Note_off_c, 9, 0, 0
2, 361480, Note_on_c, 9, 36, 95
2, 361520, Note_off_c, 9, 0, 0
2, 362440, Note_on_c, 9, 36, 95
2, 362480, Note_off_c, 9, 0, 0
2, 363400, Note_on_c, 9, 36, 95
2, 363440, Note_off_c, 9, 0, 0
2, 364360, Note_on_c, 9, 36, 95
2, 364400, Note_off_c, 9, 0, 0
2, 365320, Note_on_c, 9, 36, 95
2, 365360, Note_off_c, 9, 0, 0
2, 366280, Note_on_c, 9, 36, 95
2, 366320, Note_off_c, 9, 0, 0
2, 367240, Note_on_c, 9, 36, 95
2, 367280, Note_off_c, 9, 0, 0
2, 368200, Note_on_c, 9, 36, 95
2, 368240, Note_off_c, 9, 0, 0
2, 369160, Note_on_c, 9, 36, 95
2, 369200, Note_off_c, 9, 0, 0
2, 370120, Note_on_c, 9, 36, 95
2, 370160, Note_off_c, 9, 0, 0
2, 371080, Note_on_c, 9, 36, 95
2, 371120, Note_off_c, 9, 0, 0
2, 372040, Note_on_c, 9, 36, 95
2, 372080, Note_off_c, 9, 0, 0
2, 373000, Note_on_c, 9, 36, 95
2, 373040, Note_off_c, 9, 0, 0
2, 390280, Note_on_c, 9, 36, 95
2, 390320, Note_off_c, 9, 0, 0
2, 399400, End_track
3, 0, Start_track
3, 0, MIDI_port, 1
3, 0, Title_t, "Cliff Williams"
3, 0, Program_c, 4, 33
3, 0, Note_on_c, 4, 35, 95
3, 320, Note_off_c, 4, 35, 0
3, 640, Note_on_c, 4, 35, 95
3, 960, Note_off_c, 4, 35, 0
3, 960, Note_on_c, 4, 35, 95
3, 1280, Note_off_c, 4, 35, 0
3, 1600, Note_on_c, 4, 35, 95
3, 1920, Note_off_c, 4, 35, 0
3, 1920, Note_on_c, 4, 35, 95
3, 2240, Note_off_c, 4, 35, 0
3, 2560, Note_on_c, 4, 35, 95
3, 2880, Note_off_c, 4, 35, 0
3, 2880, Note_on_c, 4, 35, 95
3, 3200, Note_off_c, 4, 35, 0
3, 3520, Note_on_c, 4, 35, 95
3, 3840, Note_off_c, 4, 35, 0
3, 3840, Note_on_c, 4, 33, 95
3, 4160, Note_off_c, 4, 33, 0
3, 4480, Note_on_c, 4, 33, 95
3, 4800, Note_off_c, 4, 33, 0
3, 4800, Note_on_c, 4, 33, 95
3, 5120, Note_off_c, 4, 33, 0
3, 5440, Note_on_c, 4, 33, 95
3, 5760, Note_off_c, 4, 33, 0
3, 5760, Note_on_c, 4, 33, 95
3, 6080, Note_off_c, 4, 33, 0
3, 6400, Note_on_c, 4, 33, 95
3, 6720, Note_off_c, 4, 33, 0
3, 6720, Note_on_c, 4, 33, 95
3, 7040, Note_off_c, 4, 33, 0
3, 7360, Note_on_c, 4, 33, 95
3, 7680, Note_off_c, 4, 33, 0
3, 7680, Note_on_c, 4, 35, 95
3, 8000, Note_off_c, 4, 35, 0
3, 8320, Note_on_c, 4, 35, 95
3, 8640, Note_off_c, 4, 35, 0
3, 8640, Note_on_c, 4, 35, 95
3, 8960, Note_off_c, 4, 35, 0
3, 9280, Note_on_c, 4, 35, 95
3, 9600, Note_off_c, 4, 35, 0
3, 9600, Note_on_c, 4, 35, 95
3, 9920, Note_off_c, 4, 35, 0
3, 10240, Note_on_c, 4, 35, 95
3, 10560, Note_off_c, 4, 35, 0
3, 10560, Note_on_c, 4, 35, 95
3, 10880, Note_off_c, 4, 35, 0
3, 11200, Note_on_c, 4, 35, 95
3, 11520, Note_off_c, 4, 35, 0
3, 11520, Note_on_c, 4, 33, 95
3, 11840, Note_off_c, 4, 33, 0
3, 12160, Note_on_c, 4, 33, 95
3, 12480, Note_off_c, 4, 33, 0
3, 12480, Note_on_c, 4, 33, 95
3, 12800, Note_off_c, 4, 33, 0
3, 13120, Note_on_c, 4, 33, 95
3, 13440, Note_off_c, 4, 33, 0
3, 13440, Note_on_c, 4, 33, 95
3, 13760, Note_off_c, 4, 33, 0
3, 14080, Note_on_c, 4, 33, 95
3, 14400, Note_off_c, 4, 33, 0
3, 14400, Note_on_c, 4, 33, 95
3, 14720, Note_off_c, 4, 33, 0
3, 15040, Note_on_c, 4, 33, 95
3, 15360, Note_off_c, 4, 33, 0
3, 15360, Note_on_c, 4, 35, 95
3, 15680, Note_off_c, 4, 35, 0
3, 16000, Note_on_c, 4, 35, 95
3, 16320, Note_off_c, 4, 35, 0
3, 16320, Note_on_c, 4, 35, 95
3, 16640, Note_off_c, 4, 35, 0
3, 16960, Note_on_c, 4, 35, 95
3, 17280, Note_off_c, 4, 35, 0
3, 17280, Note_on_c, 4, 35, 95
3, 17600, Note_off_c, 4, 35, 0
3, 17920, Note_on_c, 4, 35, 95
3, 18240, Note_off_c, 4, 35, 0
3, 18240, Note_on_c, 4, 35, 95
3, 18560, Note_off_c, 4, 35, 0
3, 18880, Note_on_c, 4, 35, 95
3, 19200, Note_off_c, 4, 35, 0
3, 19200, Note_on_c, 4, 33, 95
3, 19520, Note_off_c, 4, 33, 0
3, 19840, Note_on_c, 4, 33, 95
3, 20160, Note_off_c, 4, 33, 0
3, 20160, Note_on_c, 4, 33, 95
3, 20480, Note_off_c, 4, 33, 0
3, 20800, Note_on_c, 4, 33, 95
3, 21120, Note_off_c, 4, 33, 0
3, 21120, Note_on_c, 4, 33, 95
3, 21440, Note_off_c, 4, 33, 0
3, 21760, Note_on_c, 4, 33, 95
3, 22080, Note_off_c, 4, 33, 0
3, 22080, Note_on_c, 4, 33, 95
3, 22400, Note_off_c, 4, 33, 0
3, 22720, Note_on_c, 4, 33, 95
3, 23040, Note_off_c, 4, 33, 0
3, 23040, Note_on_c, 4, 28, 95
3, 23360, Note_off_c, 4, 28, 0
3, 23680, Note_on_c, 4, 28, 95
3, 24000, Note_off_c, 4, 28, 0
3, 24000, Note_on_c, 4, 28, 95
3, 24320, Note_off_c, 4, 28, 0
3, 24640, Note_on_c, 4, 28, 95
3, 24960, Note_off_c, 4, 28, 0
3, 24960, Note_on_c, 4, 28, 95
3, 25280, Note_off_c, 4, 28, 0
3, 25600, Note_on_c, 4, 28, 95
3, 25920, Note_off_c, 4, 28, 0
3, 25920, Note_on_c, 4, 28, 95
3, 26240, Note_off_c, 4, 28, 0
3, 26240, Note_on_c, 4, 33, 95
3, 26560, Note_off_c, 4, 33, 0
3, 26560, Note_on_c, 4, 34, 95
3, 26880, Note_off_c, 4, 34, 0
3, 26880, Note_on_c, 4, 35, 95
3, 27200, Note_off_c, 4, 35, 0
3, 27200, Note_on_c, 4, 35, 79
3, 27520, Note_off_c, 4, 35, 0
3, 27520, Note_on_c, 4, 35, 79
3, 27840, Note_off_c, 4, 35, 0
3, 27840, Note_on_c, 4, 35, 79
3, 28160, Note_off_c, 4, 35, 0
3, 28160, Note_on_c, 4, 35, 79
3, 28480, Note_off_c, 4, 35, 0
3, 28480, Note_on_c, 4, 35, 79
3, 28800, Note_off_c, 4, 35, 0
3, 28800, Note_on_c, 4, 35, 79
3, 29120, Note_off_c, 4, 35, 0
3, 29120, Note_on_c, 4, 35, 79
3, 29440, Note_off_c, 4, 35, 0
3, 29440, Note_on_c, 4, 35, 79
3, 29760, Note_off_c, 4, 35, 0
3, 29760, Note_on_c, 4, 35, 79
3, 30080, Note_off_c, 4, 35, 0
3, 30080, Note_on_c, 4, 35, 79
3, 30400, Note_off_c, 4, 35, 0
3, 30400, Note_on_c, 4, 35, 79
3, 30720, Note_off_c, 4, 35, 0
3, 30720, Note_on_c, 4, 35, 95
3, 31040, Note_off_c, 4, 35, 0
3, 31040, Note_on_c, 4, 35, 95
3, 31360, Note_off_c, 4, 35, 0
3, 31360, Note_on_c, 4, 35, 95
3, 31680, Note_off_c, 4, 35, 0
3, 31680, Note_on_c, 4, 35, 95
3, 32000, Note_off_c, 4, 35, 0
3, 32000, Note_on_c, 4, 35, 95
3, 32320, Note_off_c, 4, 35, 0
3, 32320, Note_on_c, 4, 35, 95
3, 32640, Note_off_c, 4, 35, 0
3, 32640, Note_on_c, 4, 35, 95
3, 33600, Note_off_c, 4, 35, 0
3, 34560, Note_on_c, 4, 28, 95
3, 34880, Note_off_c, 4, 28, 0
3, 35520, Note_on_c, 4, 28, 95
3, 35840, Note_off_c, 4, 28, 0
3, 36480, Note_on_c, 4, 28, 95
3, 36800, Note_off_c, 4, 28, 0
3, 37440, Note_on_c, 4, 28, 95
3, 37760, Note_off_c, 4, 28, 0
3, 38400, Note_on_c, 4, 28, 95
3, 38720, Note_off_c, 4, 28, 0
3, 39360, Note_on_c, 4, 28, 95
3, 39680, Note_off_c, 4, 28, 0
3, 40320, Note_on_c, 4, 28, 95
3, 40640, Note_off_c, 4, 28, 0
3, 41280, Note_on_c, 4, 28, 95
3, 41600, Note_off_c, 4, 28, 0
3, 42240, Note_on_c, 4, 28, 95
3, 42560, Note_off_c, 4, 28, 0
3, 43200, Note_on_c, 4, 28, 95
3, 43520, Note_off_c, 4, 28, 0
3, 44160, Note_on_c, 4, 28, 95
3, 44480, Note_off_c, 4, 28, 0
3, 45120, Note_on_c, 4, 28, 95
3, 45440, Note_off_c, 4, 28, 0
3, 46080, Note_on_c, 4, 28, 95
3, 46400, Note_off_c, 4, 28, 0
3, 47040, Note_on_c, 4, 28, 95
3, 47360, Note_off_c, 4, 28, 0
3, 48000, Note_on_c, 4, 28, 95
3, 48320, Note_off_c, 4, 28, 0
3, 48960, Note_on_c, 4, 28, 95
3, 49280, Note_off_c, 4, 28, 0
3, 49600, Note_on_c, 4, 28, 95
3, 49920, Note_off_c, 4, 28, 0
3, 49920, Note_on_c, 4, 33, 95
3, 50240, Note_off_c, 4, 33, 0
3, 50880, Note_on_c, 4, 33, 95
3, 51200, Note_off_c, 4, 33, 0
3, 51840, Note_on_c, 4, 33, 95
3, 52160, Note_off_c, 4, 33, 0
3, 52800, Note_on_c, 4, 33, 95
3, 53120, Note_off_c, 4, 33, 0
3, 53760, Note_on_c, 4, 33, 95
3, 54080, Note_off_c, 4, 33, 0
3, 54720, Note_on_c, 4, 33, 95
3, 55040, Note_off_c, 4, 33, 0
3, 55680, Note_on_c, 4, 33, 95
3, 56000, Note_off_c, 4, 33, 0
3, 56640, Note_on_c, 4, 33, 95
3, 56960, Note_off_c, 4, 33, 0
3, 57600, Note_on_c, 4, 33, 95
3, 57920, Note_off_c, 4, 33, 0
3, 58560, Note_on_c, 4, 33, 95
3, 58880, Note_off_c, 4, 33, 0
3, 59520, Note_on_c, 4, 33, 95
3, 59840, Note_off_c, 4, 33, 0
3, 60480, Note_on_c, 4, 33, 95
3, 60800, Note_off_c, 4, 33, 0
3, 61440, Note_on_c, 4, 33, 95
3, 61760, Note_off_c, 4, 33, 0
3, 62400, Note_on_c, 4, 33, 95
3, 62720, Note_off_c, 4, 33, 0
3, 63360, Note_on_c, 4, 33, 95
3, 63680, Note_off_c, 4, 33, 0
3, 64320, Note_on_c, 4, 33, 95
3, 64640, Note_off_c, 4, 33, 0
3, 65280, Note_on_c, 4, 28, 95
3, 65600, Note_off_c, 4, 28, 0
3, 66240, Note_on_c, 4, 28, 95
3, 66560, Note_off_c, 4, 28, 0
3, 67200, Note_on_c, 4, 28, 95
3, 67520, Note_off_c, 4, 28, 0
3, 68160, Note_on_c, 4, 28, 95
3, 68480, Note_off_c, 4, 28, 0
3, 69120, Note_on_c, 4, 28, 95
3, 69440, Note_off_c, 4, 28, 0
3, 70080, Note_on_c, 4, 28, 95
3, 70400, Note_off_c, 4, 28, 0
3, 71040, Note_on_c, 4, 28, 95
3, 71360, Note_off_c, 4, 28, 0
3, 72000, Note_on_c, 4, 28, 95
3, 72320, Note_off_c, 4, 28, 0
3, 72960, Note_on_c, 4, 28, 95
3, 73280, Note_off_c, 4, 28, 0
3, 73920, Note_on_c, 4, 28, 95
3, 74240, Note_off_c, 4, 28, 0
3, 74880, Note_on_c, 4, 28, 95
3, 75200, Note_off_c, 4, 28, 0
3, 75840, Note_on_c, 4, 28, 95
3, 76160, Note_off_c, 4, 28, 0
3, 76800, Note_on_c, 4, 28, 95
3, 77120, Note_off_c, 4, 28, 0
3, 77760, Note_on_c, 4, 28, 95
3, 78080, Note_off_c, 4, 28, 0
3, 78720, Note_on_c, 4, 28, 95
3, 79040, Note_off_c, 4, 28, 0
3, 79680, Note_on_c, 4, 28, 95
3, 80000, Note_off_c, 4, 28, 0
3, 80320, Note_on_c, 4, 28, 95
3, 80640, Note_off_c, 4, 28, 0
3, 80640, Note_on_c, 4, 33, 95
3, 80960, Note_off_c, 4, 33, 0
3, 81600, Note_on_c, 4, 33, 95
3, 81920, Note_off_c, 4, 33, 0
3, 82560, Note_on_c, 4, 33, 95
3, 82880, Note_off_c, 4, 33, 0
3, 83520, Note_on_c, 4, 33, 95
3, 83840, Note_off_c, 4, 33, 0
3, 84480, Note_on_c, 4, 33, 95
3, 84800, Note_off_c, 4, 33, 0
3, 85440, Note_on_c, 4, 33, 95
3, 85760, Note_off_c, 4, 33, 0
3, 86400, Note_on_c, 4, 33, 95
3, 86720, Note_off_c, 4, 33, 0
3, 87360, Note_on_c, 4, 33, 95
3, 87680, Note_off_c, 4, 33, 0
3, 88320, Note_on_c, 4, 33, 95
3, 88640, Note_off_c, 4, 33, 0
3, 89280, Note_on_c, 4, 33, 95
3, 89600, Note_off_c, 4, 33, 0
3, 90240, Note_on_c, 4, 33, 95
3, 90560, Note_off_c, 4, 33, 0
3, 91200, Note_on_c, 4, 33, 95
3, 91520, Note_off_c, 4, 33, 0
3, 92160, Note_on_c, 4, 33, 95
3, 92480, Note_off_c, 4, 33, 0
3, 93120, Note_on_c, 4, 33, 95
3, 93440, Note_off_c, 4, 33, 0
3, 94080, Note_on_c, 4, 33, 95
3, 94400, Note_off_c, 4, 33, 0
3, 95040, Note_on_c, 4, 33, 95
3, 95360, Note_off_c, 4, 33, 0
3, 96000, Note_on_c, 4, 28, 95
3, 96320, Note_off_c, 4, 28, 0
3, 96640, Note_on_c, 4, 28, 95
3, 96960, Note_off_c, 4, 28, 0
3, 96960, Note_on_c, 4, 28, 95
3, 97280, Note_off_c, 4, 28, 0
3, 97600, Note_on_c, 4, 28, 95
3, 97920, Note_off_c, 4, 28, 0
3, 97920, Note_on_c, 4, 28, 95
3, 98240, Note_off_c, 4, 28, 0
3, 98560, Note_on_c, 4, 28, 95
3, 98880, Note_off_c, 4, 28, 0
3, 98880, Note_on_c, 4, 28, 95
3, 99200, Note_off_c, 4, 28, 0
3, 99520, Note_on_c, 4, 28, 95
3, 99840, Note_off_c, 4, 28, 0
3, 99840, Note_on_c, 4, 28, 95
3, 100160, Note_off_c, 4, 28, 0
3, 100480, Note_on_c, 4, 28, 95
3, 100800, Note_off_c, 4, 28, 0
3, 100800, Note_on_c, 4, 28, 95
3, 101120, Note_off_c, 4, 28, 0
3, 101440, Note_on_c, 4, 28, 95
3, 101760, Note_off_c, 4, 28, 0
3, 101760, Note_on_c, 4, 28, 95
3, 102080, Note_off_c, 4, 28, 0
3, 102400, Note_on_c, 4, 28, 95
3, 102720, Note_off_c, 4, 28, 0
3, 102720, Note_on_c, 4, 28, 95
3, 103040, Note_off_c, 4, 28, 0
3, 103360, Note_on_c, 4, 28, 95
3, 103680, Note_off_c, 4, 28, 0
3, 103680, Note_on_c, 4, 28, 95
3, 104000, Note_off_c, 4, 28, 0
3, 104320, Note_on_c, 4, 28, 95
3, 104640, Note_off_c, 4, 28, 0
3, 104640, Note_on_c, 4, 28, 95
3, 104960, Note_off_c, 4, 28, 0
3, 105280, Note_on_c, 4, 28, 95
3, 105600, Note_off_c, 4, 28, 0
3, 105600, Note_on_c, 4, 28, 95
3, 105920, Note_off_c, 4, 28, 0
3, 106240, Note_on_c, 4, 28, 95
3, 106560, Note_off_c, 4, 28, 0
3, 106560, Note_on_c, 4, 28, 95
3, 106880, Note_off_c, 4, 28, 0
3, 107200, Note_on_c, 4, 28, 95
3, 107520, Note_off_c, 4, 28, 0
3, 107520, Note_on_c, 4, 28, 95
3, 107840, Note_off_c, 4, 28, 0
3, 108160, Note_on_c, 4, 28, 95
3, 108480, Note_off_c, 4, 28, 0
3, 108480, Note_on_c, 4, 28, 95
3, 108800, Note_off_c, 4, 28, 0
3, 109120, Note_on_c, 4, 28, 95
3, 109440, Note_off_c, 4, 28, 0
3, 109440, Note_on_c, 4, 28, 95
3, 109760, Note_off_c, 4, 28, 0
3, 110080, Note_on_c, 4, 28, 95
3, 110400, Note_off_c, 4, 28, 0
3, 110400, Note_on_c, 4, 28, 95
3, 110720, Note_off_c, 4, 28, 0
3, 111040, Note_on_c, 4, 28, 95
3, 111360, Note_off_c, 4, 28, 0
3, 111360, Note_on_c, 4, 33, 95
3, 111680, Note_off_c, 4, 33, 0
3, 112000, Note_on_c, 4, 33, 95
3, 112320, Note_off_c, 4, 33, 0
3, 112320, Note_on_c, 4, 33, 95
3, 112640, Note_off_c, 4, 33, 0
3, 112960, Note_on_c, 4, 33, 95
3, 113280, Note_off_c, 4, 33, 0
3, 113280, Note_on_c, 4, 33, 95
3, 113600, Note_off_c, 4, 33, 0
3, 113920, Note_on_c, 4, 33, 95
3, 114240, Note_off_c, 4, 33, 0
3, 114240, Note_on_c, 4, 33, 95
3, 114560, Note_off_c, 4, 33, 0
3, 114880, Note_on_c, 4, 33, 95
3, 115200, Note_off_c, 4, 33, 0
3, 115200, Note_on_c, 4, 33, 95
3, 115520, Note_off_c, 4, 33, 0
3, 115840, Note_on_c, 4, 33, 95
3, 116160, Note_off_c, 4, 33, 0
3, 116160, Note_on_c, 4, 33, 95
3, 116480, Note_off_c, 4, 33, 0
3, 116800, Note_on_c, 4, 33, 95
3, 117120, Note_off_c, 4, 33, 0
3, 117120, Note_on_c, 4, 33, 95
3, 117440, Note_off_c, 4, 33, 0
3, 117760, Note_on_c, 4, 33, 95
3, 118080, Note_off_c, 4, 33, 0
3, 118080, Note_on_c, 4, 33, 95
3, 118400, Note_off_c, 4, 33, 0
3, 118720, Note_on_c, 4, 33, 95
3, 119040, Note_off_c, 4, 33, 0
3, 119040, Note_on_c, 4, 28, 95
3, 119360, Note_off_c, 4, 28, 0
3, 119680, Note_on_c, 4, 28, 95
3, 120000, Note_off_c, 4, 28, 0
3, 120000, Note_on_c, 4, 28, 95
3, 120320, Note_off_c, 4, 28, 0
3, 120640, Note_on_c, 4, 28, 95
3, 120960, Note_off_c, 4, 28, 0
3, 120960, Note_on_c, 4, 28, 95
3, 121280, Note_off_c, 4, 28, 0
3, 121600, Note_on_c, 4, 28, 95
3, 121920, Note_off_c, 4, 28, 0
3, 121920, Note_on_c, 4, 28, 95
3, 122240, Note_off_c, 4, 28, 0
3, 122560, Note_on_c, 4, 28, 95
3, 122880, Note_off_c, 4, 28, 0
3, 122880, Note_on_c, 4, 28, 95
3, 123200, Note_off_c, 4, 28, 0
3, 123520, Note_on_c, 4, 28, 95
3, 123840, Note_off_c, 4, 28, 0
3, 123840, Note_on_c, 4, 28, 95
3, 124160, Note_off_c, 4, 28, 0
3, 124480, Note_on_c, 4, 28, 95
3, 124800, Note_off_c, 4, 28, 0
3, 124800, Note_on_c, 4, 28, 95
3, 125120, Note_off_c, 4, 28, 0
3, 125440, Note_on_c, 4, 28, 95
3, 125760, Note_off_c, 4, 28, 0
3, 125760, Note_on_c, 4, 28, 95
3, 126080, Note_off_c, 4, 28, 0
3, 126400, Note_on_c, 4, 28, 95
3, 126720, Note_off_c, 4, 28, 0
3, 126720, Note_on_c, 4, 35, 95
3, 127040, Note_off_c, 4, 35, 0
3, 127040, Note_on_c, 4, 35, 95
3, 127360, Note_off_c, 4, 35, 0
3, 127360, Note_on_c, 4, 35, 95
3, 127680, Note_off_c, 4, 35, 0
3, 127680, Note_on_c, 4, 35, 95
3, 128000, Note_off_c, 4, 35, 0
3, 128000, Note_on_c, 4, 35, 95
3, 128320, Note_off_c, 4, 35, 0
3, 128320, Note_on_c, 4, 35, 95
3, 128640, Note_off_c, 4, 35, 0
3, 128640, Note_on_c, 4, 35, 95
3, 128960, Note_off_c, 4, 35, 0
3, 128960, Note_on_c, 4, 35, 95
3, 129280, Note_off_c, 4, 35, 0
3, 129280, Note_on_c, 4, 35, 95
3, 129600, Note_off_c, 4, 35, 0
3, 129600, Note_on_c, 4, 35, 95
3, 129920, Note_off_c, 4, 35, 0
3, 129920, Note_on_c, 4, 35, 95
3, 130240, Note_off_c, 4, 35, 0
3, 130240, Note_on_c, 4, 35, 95
3, 130560, Note_off_c, 4, 35, 0
3, 130560, Note_on_c, 4, 33, 95
3, 130880, Note_off_c, 4, 33, 0
3, 130880, Note_on_c, 4, 33, 95
3, 131200, Note_off_c, 4, 33, 0
3, 131200, Note_on_c, 4, 33, 95
3, 131520, Note_off_c, 4, 33, 0
3, 131520, Note_on_c, 4, 33, 95
3, 131840, Note_off_c, 4, 33, 0
3, 131840, Note_on_c, 4, 33, 95
3, 132160, Note_off_c, 4, 33, 0
3, 132160, Note_on_c, 4, 33, 95
3, 132480, Note_off_c, 4, 33, 0
3, 132480, Note_on_c, 4, 33, 95
3, 132800, Note_off_c, 4, 33, 0
3, 132800, Note_on_c, 4, 33, 95
3, 133120, Note_off_c, 4, 33, 0
3, 133120, Note_on_c, 4, 33, 95
3, 133440, Note_off_c, 4, 33, 0
3, 133440, Note_on_c, 4, 33, 95
3, 133760, Note_off_c, 4, 33, 0
3, 133760, Note_on_c, 4, 33, 95
3, 134080, Note_off_c, 4, 33, 0
3, 134080, Note_on_c, 4, 33, 95
3, 134400, Note_off_c, 4, 33, 0
3, 134400, Note_on_c, 4, 28, 95
3, 134720, Note_off_c, 4, 28, 0
3, 135040, Note_on_c, 4, 28, 95
3, 135360, Note_off_c, 4, 28, 0
3, 135360, Note_on_c, 4, 28, 95
3, 135680, Note_off_c, 4, 28, 0
3, 136000, Note_on_c, 4, 28, 95
3, 136320, Note_off_c, 4, 28, 0
3, 136320, Note_on_c, 4, 28, 95
3, 136640, Note_off_c, 4, 28, 0
3, 136960, Note_on_c, 4, 28, 95
3, 137280, Note_off_c, 4, 28, 0
3, 137280, Note_on_c, 4, 28, 95
3, 137600, Note_off_c, 4, 28, 0
3, 137920, Note_on_c, 4, 28, 95
3, 138240, Note_off_c, 4, 28, 0
3, 138240, Note_on_c, 4, 28, 95
3, 138560, Note_off_c, 4, 28, 0
3, 138880, Note_on_c, 4, 28, 95
3, 139200, Note_off_c, 4, 28, 0
3, 139200, Note_on_c, 4, 28, 95
3, 139520, Note_off_c, 4, 28, 0
3, 139520, Note_on_c, 4, 33, 95
3, 139840, Note_off_c, 4, 33, 0
3, 139840, Note_on_c, 4, 34, 95
3, 140160, Note_off_c, 4, 34, 0
3, 140160, Note_on_c, 4, 35, 95
3, 141120, Note_off_c, 4, 35, 0
3, 141440, Note_on_c, 4, 35, 95
3, 141760, Note_off_c, 4, 35, 0
3, 141760, Note_on_c, 4, 33, 95
3, 142080, Note_off_c, 4, 33, 0
3, 142080, Note_on_c, 4, 28, 95
3, 142400, Note_off_c, 4, 28, 0
3, 142720, Note_on_c, 4, 28, 95
3, 143040, Note_off_c, 4, 28, 0
3, 143040, Note_on_c, 4, 28, 95
3, 143360, Note_off_c, 4, 28, 0
3, 143680, Note_on_c, 4, 28, 95
3, 144000, Note_off_c, 4, 28, 0
3, 144000, Note_on_c, 4, 28, 95
3, 144320, Note_off_c, 4, 28, 0
3, 144640, Note_on_c, 4, 28, 95
3, 144960, Note_off_c, 4, 28, 0
3, 144960, Note_on_c, 4, 28, 95
3, 145280, Note_off_c, 4, 28, 0
3, 145600, Note_on_c, 4, 28, 95
3, 145920, Note_off_c, 4, 28, 0
3, 145920, Note_on_c, 4, 28, 95
3, 146240, Note_off_c, 4, 28, 0
3, 146560, Note_on_c, 4, 28, 95
3, 146880, Note_off_c, 4, 28, 0
3, 146880, Note_on_c, 4, 28, 95
3, 147200, Note_off_c, 4, 28, 0
3, 147520, Note_on_c, 4, 28, 95
3, 147840, Note_off_c, 4, 28, 0
3, 147840, Note_on_c, 4, 28, 95
3, 148160, Note_off_c, 4, 28, 0
3, 148480, Note_on_c, 4, 28, 95
3, 148800, Note_off_c, 4, 28, 0
3, 148800, Note_on_c, 4, 28, 95
3, 149120, Note_off_c, 4, 28, 0
3, 149440, Note_on_c, 4, 28, 95
3, 149760, Note_off_c, 4, 28, 0
3, 149760, Note_on_c, 4, 28, 95
3, 150080, Note_off_c, 4, 28, 0
3, 150400, Note_on_c, 4, 28, 95
3, 150720, Note_off_c, 4, 28, 0
3, 150720, Note_on_c, 4, 28, 95
3, 151040, Note_off_c, 4, 28, 0
3, 151360, Note_on_c, 4, 28, 95
3, 151680, Note_off_c, 4, 28, 0
3, 151680, Note_on_c, 4, 28, 95
3, 152000, Note_off_c, 4, 28, 0
3, 152320, Note_on_c, 4, 28, 95
3, 152640, Note_off_c, 4, 28, 0
3, 152640, Note_on_c, 4, 28, 95
3, 152960, Note_off_c, 4, 28, 0
3, 153280, Note_on_c, 4, 28, 95
3, 153600, Note_off_c, 4, 28, 0
3, 153600, Note_on_c, 4, 28, 95
3, 153920, Note_off_c, 4, 28, 0
3, 154240, Note_on_c, 4, 28, 95
3, 154560, Note_off_c, 4, 28, 0
3, 154560, Note_on_c, 4, 28, 95
3, 154880, Note_off_c, 4, 28, 0
3, 155200, Note_on_c, 4, 28, 95
3, 155520, Note_off_c, 4, 28, 0
3, 155520, Note_on_c, 4, 28, 95
3, 155840, Note_off_c, 4, 28, 0
3, 156160, Note_on_c, 4, 28, 95
3, 156480, Note_off_c, 4, 28, 0
3, 156480, Note_on_c, 4, 28, 95
3, 156800, Note_off_c, 4, 28, 0
3, 157120, Note_on_c, 4, 28, 95
3, 157440, Note_off_c, 4, 28, 0
3, 157440, Note_on_c, 4, 33, 95
3, 157760, Note_off_c, 4, 33, 0
3, 158080, Note_on_c, 4, 33, 95
3, 158400, Note_off_c, 4, 33, 0
3, 158400, Note_on_c, 4, 33, 95
3, 158720, Note_off_c, 4, 33, 0
3, 159040, Note_on_c, 4, 33, 95
3, 159360, Note_off_c, 4, 33, 0
3, 159360, Note_on_c, 4, 33, 95
3, 159680, Note_off_c, 4, 33, 0
3, 160000, Note_on_c, 4, 33, 95
3, 160320, Note_off_c, 4, 33, 0
3, 160320, Note_on_c, 4, 33, 95
3, 160640, Note_off_c, 4, 33, 0
3, 160960, Note_on_c, 4, 33, 95
3, 161280, Note_off_c, 4, 33, 0
3, 161280, Note_on_c, 4, 33, 95
3, 161600, Note_off_c, 4, 33, 0
3, 161920, Note_on_c, 4, 33, 95
3, 162240, Note_off_c, 4, 33, 0
3, 162240, Note_on_c, 4, 33, 95
3, 162560, Note_off_c, 4, 33, 0
3, 162880, Note_on_c, 4, 33, 95
3, 163200, Note_off_c, 4, 33, 0
3, 163200, Note_on_c, 4, 33, 95
3, 163520, Note_off_c, 4, 33, 0
3, 163840, Note_on_c, 4, 33, 95
3, 164160, Note_off_c, 4, 33, 0
3, 164160, Note_on_c, 4, 33, 95
3, 164480, Note_off_c, 4, 33, 0
3, 164800, Note_on_c, 4, 33, 95
3, 165120, Note_off_c, 4, 33, 0
3, 165120, Note_on_c, 4, 28, 95
3, 165440, Note_off_c, 4, 28, 0
3, 165760, Note_on_c, 4, 28, 95
3, 166080, Note_off_c, 4, 28, 0
3, 166080, Note_on_c, 4, 28, 95
3, 166400, Note_off_c, 4, 28, 0
3, 166720, Note_on_c, 4, 28, 95
3, 167040, Note_off_c, 4, 28, 0
3, 167040, Note_on_c, 4, 28, 95
3, 167360, Note_off_c, 4, 28, 0
3, 167680, Note_on_c, 4, 28, 95
3, 168000, Note_off_c, 4, 28, 0
3, 168000, Note_on_c, 4, 28, 95
3, 168320, Note_off_c, 4, 28, 0
3, 168640, Note_on_c, 4, 28, 95
3, 168960, Note_off_c, 4, 28, 0
3, 168960, Note_on_c, 4, 28, 95
3, 169280, Note_off_c, 4, 28, 0
3, 169600, Note_on_c, 4, 28, 95
3, 169920, Note_off_c, 4, 28, 0
3, 169920, Note_on_c, 4, 28, 95
3, 170240, Note_off_c, 4, 28, 0
3, 170560, Note_on_c, 4, 28, 95
3, 170880, Note_off_c, 4, 28, 0
3, 170880, Note_on_c, 4, 28, 95
3, 171200, Note_off_c, 4, 28, 0
3, 171520, Note_on_c, 4, 28, 95
3, 171840, Note_off_c, 4, 28, 0
3, 171840, Note_on_c, 4, 28, 95
3, 172160, Note_off_c, 4, 28, 0
3, 172480, Note_on_c, 4, 28, 95
3, 172800, Note_off_c, 4, 28, 0
3, 172800, Note_on_c, 4, 35, 95
3, 173120, Note_off_c, 4, 35, 0
3, 173440, Note_on_c, 4, 35, 95
3, 173760, Note_off_c, 4, 35, 0
3, 173760, Note_on_c, 4, 35, 95
3, 174080, Note_off_c, 4, 35, 0
3, 174400, Note_on_c, 4, 35, 95
3, 174720, Note_off_c, 4, 35, 0
3, 174720, Note_on_c, 4, 35, 95
3, 175040, Note_off_c, 4, 35, 0
3, 175360, Note_on_c, 4, 35, 95
3, 175680, Note_off_c, 4, 35, 0
3, 175680, Note_on_c, 4, 35, 95
3, 176000, Note_off_c, 4, 35, 0
3, 176320, Note_on_c, 4, 35, 95
3, 176640, Note_off_c, 4, 35, 0
3, 176640, Note_on_c, 4, 33, 95
3, 176960, Note_off_c, 4, 33, 0
3, 177280, Note_on_c, 4, 33, 95
3, 177600, Note_off_c, 4, 33, 0
3, 177600, Note_on_c, 4, 33, 95
3, 177920, Note_off_c, 4, 33, 0
3, 178240, Note_on_c, 4, 33, 95
3, 178560, Note_off_c, 4, 33, 0
3, 178560, Note_on_c, 4, 33, 95
3, 178880, Note_off_c, 4, 33, 0
3, 179200, Note_on_c, 4, 33, 95
3, 179520, Note_off_c, 4, 33, 0
3, 179520, Note_on_c, 4, 33, 95
3, 179840, Note_off_c, 4, 33, 0
3, 180160, Note_on_c, 4, 33, 95
3, 180480, Note_off_c, 4, 33, 0
3, 180480, Note_on_c, 4, 28, 95
3, 180800, Note_off_c, 4, 28, 0
3, 181120, Note_on_c, 4, 28, 95
3, 181440, Note_off_c, 4, 28, 0
3, 181440, Note_on_c, 4, 28, 95
3, 181760, Note_off_c, 4, 28, 0
3, 182080, Note_on_c, 4, 28, 95
3, 182400, Note_off_c, 4, 28, 0
3, 182400, Note_on_c, 4, 28, 95
3, 182720, Note_off_c, 4, 28, 0
3, 183040, Note_on_c, 4, 28, 95
3, 183360, Note_off_c, 4, 28, 0
3, 183360, Note_on_c, 4, 28, 95
3, 183680, Note_off_c, 4, 28, 0
3, 184000, Note_on_c, 4, 28, 95
3, 184320, Note_off_c, 4, 28, 0
3, 184320, Note_on_c, 4, 28, 95
3, 184640, Note_off_c, 4, 28, 0
3, 184960, Note_on_c, 4, 28, 95
3, 185280, Note_off_c, 4, 28, 0
3, 185280, Note_on_c, 4, 28, 95
3, 185600, Note_off_c, 4, 28, 0
3, 185600, Note_on_c, 4, 33, 95
3, 185920, Note_off_c, 4, 33, 0
3, 185920, Note_on_c, 4, 34, 95
3, 186240, Note_off_c, 4, 34, 0
3, 186240, Note_on_c, 4, 35, 95
3, 188160, Note_off_c, 4, 35, 0
3, 188160, Note_on_c, 4, 28, 95
3, 188480, Note_off_c, 4, 28, 0
3, 189120, Note_on_c, 4, 28, 95
3, 189440, Note_off_c, 4, 28, 0
3, 190080, Note_on_c, 4, 28, 95
3, 190400, Note_off_c, 4, 28, 0
3, 191040, Note_on_c, 4, 28, 95
3, 191360, Note_off_c, 4, 28, 0
3, 192000, Note_on_c, 4, 28, 95
3, 192320, Note_off_c, 4, 28, 0
3, 192960, Note_on_c, 4, 28, 95
3, 193280, Note_off_c, 4, 28, 0
3, 193920, Note_on_c, 4, 28, 95
3, 194240, Note_off_c, 4, 28, 0
3, 194880, Note_on_c, 4, 28, 95
3, 195200, Note_off_c, 4, 28, 0
3, 195840, Note_on_c, 4, 28, 95
3, 196160, Note_off_c, 4, 28, 0
3, 196800, Note_on_c, 4, 28, 95
3, 197120, Note_off_c, 4, 28, 0
3, 197760, Note_on_c, 4, 28, 95
3, 198080, Note_off_c, 4, 28, 0
3, 198720, Note_on_c, 4, 28, 95
3, 199040, Note_off_c, 4, 28, 0
3, 199680, Note_on_c, 4, 28, 95
3, 200000, Note_off_c, 4, 28, 0
3, 200640, Note_on_c, 4, 28, 95
3, 200960, Note_off_c, 4, 28, 0
3, 201600, Note_on_c, 4, 28, 95
3, 201920, Note_off_c, 4, 28, 0
3, 202560, Note_on_c, 4, 28, 95
3, 202880, Note_off_c, 4, 28, 0
3, 203200, Note_on_c, 4, 28, 95
3, 203520, Note_off_c, 4, 28, 0
3, 203520, Note_on_c, 4, 33, 95
3, 203840, Note_off_c, 4, 33, 0
3, 204480, Note_on_c, 4, 33, 95
3, 204800, Note_off_c, 4, 33, 0
3, 205440, Note_on_c, 4, 33, 95
3, 205760, Note_off_c, 4, 33, 0
3, 206400, Note_on_c, 4, 33, 95
3, 206720, Note_off_c, 4, 33, 0
3, 207360, Note_on_c, 4, 33, 95
3, 207680, Note_off_c, 4, 33, 0
3, 208320, Note_on_c, 4, 33, 95
3, 208640, Note_off_c, 4, 33, 0
3, 209280, Note_on_c, 4, 33, 95
3, 209600, Note_off_c, 4, 33, 0
3, 210240, Note_on_c, 4, 33, 95
3, 210560, Note_off_c, 4, 33, 0
3, 211200, Note_on_c, 4, 33, 95
3, 211520, Note_off_c, 4, 33, 0
3, 212160, Note_on_c, 4, 33, 95
3, 212480, Note_off_c, 4, 33, 0
3, 213120, Note_on_c, 4, 33, 95
3, 213440, Note_off_c, 4, 33, 0
3, 214080, Note_on_c, 4, 33, 95
3, 214400, Note_off_c, 4, 33, 0
3, 215040, Note_on_c, 4, 33, 95
3, 215360, Note_off_c, 4, 33, 0
3, 216000, Note_on_c, 4, 33, 95
3, 216320, Note_off_c, 4, 33, 0
3, 216960, Note_on_c, 4, 33, 95
3, 217280, Note_off_c, 4, 33, 0
3, 217920, Note_on_c, 4, 33, 95
3, 218240, Note_off_c, 4, 33, 0
3, 218880, Note_on_c, 4, 28, 95
3, 219200, Note_off_c, 4, 28, 0
3, 219840, Note_on_c, 4, 28, 95
3, 220160, Note_off_c, 4, 28, 0
3, 220800, Note_on_c, 4, 28, 95
3, 221120, Note_off_c, 4, 28, 0
3, 221760, Note_on_c, 4, 28, 95
3, 222080, Note_off_c, 4, 28, 0
3, 222720, Note_on_c, 4, 28, 95
3, 223040, Note_off_c, 4, 28, 0
3, 223680, Note_on_c, 4, 28, 95
3, 224000, Note_off_c, 4, 28, 0
3, 224640, Note_on_c, 4, 28, 95
3, 224960, Note_off_c, 4, 28, 0
3, 225600, Note_on_c, 4, 28, 95
3, 225920, Note_off_c, 4, 28, 0
3, 226560, Note_on_c, 4, 28, 95
3, 226880, Note_off_c, 4, 28, 0
3, 227520, Note_on_c, 4, 28, 95
3, 227840, Note_off_c, 4, 28, 0
3, 228480, Note_on_c, 4, 28, 95
3, 228800, Note_off_c, 4, 28, 0
3, 229440, Note_on_c, 4, 28, 95
3, 229760, Note_off_c, 4, 28, 0
3, 230400, Note_on_c, 4, 28, 95
3, 230720, Note_off_c, 4, 28, 0
3, 231360, Note_on_c, 4, 28, 95
3, 231680, Note_off_c, 4, 28, 0
3, 232320, Note_on_c, 4, 28, 95
3, 232640, Note_off_c, 4, 28, 0
3, 233280, Note_on_c, 4, 28, 95
3, 233600, Note_off_c, 4, 28, 0
3, 233920, Note_on_c, 4, 28, 95
3, 234240, Note_off_c, 4, 28, 0
3, 234240, Note_on_c, 4, 33, 95
3, 234560, Note_off_c, 4, 33, 0
3, 235200, Note_on_c, 4, 33, 95
3, 235520, Note_off_c, 4, 33, 0
3, 236160, Note_on_c, 4, 33, 95
3, 236480, Note_off_c, 4, 33, 0
3, 237120, Note_on_c, 4, 33, 95
3, 237440, Note_off_c, 4, 33, 0
3, 238080, Note_on_c, 4, 33, 95
3, 238400, Note_off_c, 4, 33, 0
3, 239040, Note_on_c, 4, 33, 95
3, 239360, Note_off_c, 4, 33, 0
3, 240000, Note_on_c, 4, 33, 95
3, 240320, Note_off_c, 4, 33, 0
3, 240960, Note_on_c, 4, 33, 95
3, 241280, Note_off_c, 4, 33, 0
3, 241920, Note_on_c, 4, 33, 95
3, 242240, Note_off_c, 4, 33, 0
3, 242880, Note_on_c, 4, 33, 95
3, 243200, Note_off_c, 4, 33, 0
3, 243840, Note_on_c, 4, 33, 95
3, 244160, Note_off_c, 4, 33, 0
3, 244800, Note_on_c, 4, 33, 95
3, 245120, Note_off_c, 4, 33, 0
3, 245760, Note_on_c, 4, 33, 95
3, 246080, Note_off_c, 4, 33, 0
3, 246720, Note_on_c, 4, 33, 95
3, 247040, Note_off_c, 4, 33, 0
3, 247680, Note_on_c, 4, 33, 95
3, 248000, Note_off_c, 4, 33, 0
3, 248640, Note_on_c, 4, 33, 95
3, 248960, Note_off_c, 4, 33, 0
3, 249600, Note_on_c, 4, 28, 95
3, 249920, Note_off_c, 4, 28, 0
3, 250240, Note_on_c, 4, 28, 95
3, 250560, Note_off_c, 4, 28, 0
3, 250560, Note_on_c, 4, 28, 95
3, 250880, Note_off_c, 4, 28, 0
3, 251200, Note_on_c, 4, 28, 95
3, 251520, Note_off_c, 4, 28, 0
3, 251520, Note_on_c, 4, 28, 95
3, 251840, Note_off_c, 4, 28, 0
3, 252160, Note_on_c, 4, 28, 95
3, 252480, Note_off_c, 4, 28, 0
3, 252480, Note_on_c, 4, 28, 95
3, 252800, Note_off_c, 4, 28, 0
3, 253120, Note_on_c, 4, 28, 95
3, 253440, Note_off_c, 4, 28, 0
3, 253440, Note_on_c, 4, 28, 95
3, 253760, Note_off_c, 4, 28, 0
3, 254080, Note_on_c, 4, 28, 95
3, 254400, Note_off_c, 4, 28, 0
3, 254400, Note_on_c, 4, 28, 95
3, 254720, Note_off_c, 4, 28, 0
3, 255040, Note_on_c, 4, 28, 95
3, 255360, Note_off_c, 4, 28, 0
3, 255360, Note_on_c, 4, 28, 95
3, 255680, Note_off_c, 4, 28, 0
3, 256000, Note_on_c, 4, 28, 95
3, 256320, Note_off_c, 4, 28, 0
3, 256320, Note_on_c, 4, 28, 95
3, 256640, Note_off_c, 4, 28, 0
3, 256960, Note_on_c, 4, 28, 95
3, 257280, Note_off_c, 4, 28, 0
3, 257280, Note_on_c, 4, 28, 95
3, 257600, Note_off_c, 4, 28, 0
3, 257920, Note_on_c, 4, 28, 95
3, 258240, Note_off_c, 4, 28, 0
3, 258240, Note_on_c, 4, 28, 95
3, 258560, Note_off_c, 4, 28, 0
3, 258880, Note_on_c, 4, 28, 95
3, 259200, Note_off_c, 4, 28, 0
3, 259200, Note_on_c, 4, 28, 95
3, 259520, Note_off_c, 4, 28, 0
3, 259840, Note_on_c, 4, 28, 95
3, 260160, Note_off_c, 4, 28, 0
3, 260160, Note_on_c, 4, 28, 95
3, 260480, Note_off_c, 4, 28, 0
3, 260800, Note_on_c, 4, 28, 95
3, 261120, Note_off_c, 4, 28, 0
3, 261120, Note_on_c, 4, 28, 95
3, 261440, Note_off_c, 4, 28, 0
3, 261760, Note_on_c, 4, 28, 95
3, 262080, Note_off_c, 4, 28, 0
3, 262080, Note_on_c, 4, 28, 95
3, 262400, Note_off_c, 4, 28, 0
3, 262720, Note_on_c, 4, 28, 95
3, 263040, Note_off_c, 4, 28, 0
3, 263040, Note_on_c, 4, 28, 95
3, 263360, Note_off_c, 4, 28, 0
3, 263680, Note_on_c, 4, 28, 95
3, 264000, Note_off_c, 4, 28, 0
3, 264000, Note_on_c, 4, 28, 95
3, 264320, Note_off_c, 4, 28, 0
3, 264640, Note_on_c, 4, 28, 95
3, 264960, Note_off_c, 4, 28, 0
3, 264960, Note_on_c, 4, 33, 95
3, 265280, Note_off_c, 4, 33, 0
3, 265600, Note_on_c, 4, 33, 95
3, 265920, Note_off_c, 4, 33, 0
3, 265920, Note_on_c, 4, 33, 95
3, 266240, Note_off_c, 4, 33, 0
3, 266560, Note_on_c, 4, 33, 95
3, 266880, Note_off_c, 4, 33, 0
3, 266880, Note_on_c, 4, 33, 95
3, 267200, Note_off_c, 4, 33, 0
3, 267520, Note_on_c, 4, 33, 95
3, 267840, Note_off_c, 4, 33, 0
3, 267840, Note_on_c, 4, 33, 95
3, 268160, Note_off_c, 4, 33, 0
3, 268480, Note_on_c, 4, 33, 95
3, 268800, Note_off_c, 4, 33, 0
3, 268800, Note_on_c, 4, 33, 95
3, 269120, Note_off_c, 4, 33, 0
3, 269440, Note_on_c, 4, 33, 95
3, 269760, Note_off_c, 4, 33, 0
3, 269760, Note_on_c, 4, 33, 95
3, 270080, Note_off_c, 4, 33, 0
3, 270400, Note_on_c, 4, 33, 95
3, 270720, Note_off_c, 4, 33, 0
3, 270720, Note_on_c, 4, 33, 95
3, 271040, Note_off_c, 4, 33, 0
3, 271360, Note_on_c, 4, 33, 95
3, 271680, Note_off_c, 4, 33, 0
3, 271680, Note_on_c, 4, 33, 95
3, 272000, Note_off_c, 4, 33, 0
3, 272320, Note_on_c, 4, 33, 95
3, 272640, Note_off_c, 4, 33, 0
3, 272640, Note_on_c, 4, 28, 95
3, 272960, Note_off_c, 4, 28, 0
3, 273280, Note_on_c, 4, 28, 95
3, 273600, Note_off_c, 4, 28, 0
3, 273600, Note_on_c, 4, 28, 95
3, 273920, Note_off_c, 4, 28, 0
3, 274240, Note_on_c, 4, 28, 95
3, 274560, Note_off_c, 4, 28, 0
3, 274560, Note_on_c, 4, 28, 95
3, 274880, Note_off_c, 4, 28, 0
3, 275200, Note_on_c, 4, 28, 95
3, 275520, Note_off_c, 4, 28, 0
3, 275520, Note_on_c, 4, 28, 95
3, 275840, Note_off_c, 4, 28, 0
3, 276160, Note_on_c, 4, 28, 95
3, 276480, Note_off_c, 4, 28, 0
3, 276480, Note_on_c, 4, 28, 95
3, 276800, Note_off_c, 4, 28, 0
3, 277120, Note_on_c, 4, 28, 95
3, 277440, Note_off_c, 4, 28, 0
3, 277440, Note_on_c, 4, 28, 95
3, 277760, Note_off_c, 4, 28, 0
3, 278080, Note_on_c, 4, 28, 95
3, 278400, Note_off_c, 4, 28, 0
3, 278400, Note_on_c, 4, 28, 95
3, 278720, Note_off_c, 4, 28, 0
3, 279040, Note_on_c, 4, 28, 95
3, 279360, Note_off_c, 4, 28, 0
3, 279360, Note_on_c, 4, 28, 95
3, 279680, Note_off_c, 4, 28, 0
3, 280000, Note_on_c, 4, 28, 95
3, 280320, Note_off_c, 4, 28, 0
3, 280320, Note_on_c, 4, 35, 95
3, 280640, Note_off_c, 4, 35, 0
3, 280640, Note_on_c, 4, 35, 95
3, 280960, Note_off_c, 4, 35, 0
3, 280960, Note_on_c, 4, 35, 95
3, 281280, Note_off_c, 4, 35, 0
3, 281280, Note_on_c, 4, 35, 95
3, 281600, Note_off_c, 4, 35, 0
3, 281600, Note_on_c, 4, 35, 95
3, 281920, Note_off_c, 4, 35, 0
3, 281920, Note_on_c, 4, 35, 95
3, 282240, Note_off_c, 4, 35, 0
3, 282240, Note_on_c, 4, 35, 95
3, 282560, Note_off_c, 4, 35, 0
3, 282560, Note_on_c, 4, 35, 95
3, 282880, Note_off_c, 4, 35, 0
3, 282880, Note_on_c, 4, 35, 95
3, 283200, Note_off_c, 4, 35, 0
3, 283200, Note_on_c, 4, 35, 95
3, 283520, Note_off_c, 4, 35, 0
3, 283520, Note_on_c, 4, 35, 95
3, 283840, Note_off_c, 4, 35, 0
3, 283840, Note_on_c, 4, 35, 95
3, 284160, Note_off_c, 4, 35, 0
3, 284160, Note_on_c, 4, 33, 95
3, 284480, Note_off_c, 4, 33, 0
3, 284480, Note_on_c, 4, 33, 95
3, 284800, Note_off_c, 4, 33, 0
3, 284800, Note_on_c, 4, 33, 95
3, 285120, Note_off_c, 4, 33, 0
3, 285120, Note_on_c, 4, 33, 95
3, 285440, Note_off_c, 4, 33, 0
3, 285440, Note_on_c, 4, 33, 95
3, 285760, Note_off_c, 4, 33, 0
3, 285760, Note_on_c, 4, 33, 95
3, 286080, Note_off_c, 4, 33, 0
3, 286080, Note_on_c, 4, 33, 95
3, 286400, Note_off_c, 4, 33, 0
3, 286400, Note_on_c, 4, 33, 95
3, 286720, Note_off_c, 4, 33, 0
3, 286720, Note_on_c, 4, 33, 95
3, 287040, Note_off_c, 4, 33, 0
3, 287040, Note_on_c, 4, 33, 95
3, 287360, Note_off_c, 4, 33, 0
3, 287360, Note_on_c, 4, 33, 95
3, 287680, Note_off_c, 4, 33, 0
3, 287680, Note_on_c, 4, 33, 95
3, 288000, Note_off_c, 4, 33, 0
3, 288000, Note_on_c, 4, 28, 95
3, 288320, Note_off_c, 4, 28, 0
3, 288640, Note_on_c, 4, 28, 95
3, 288960, Note_off_c, 4, 28, 0
3, 288960, Note_on_c, 4, 28, 95
3, 289280, Note_off_c, 4, 28, 0
3, 289600, Note_on_c, 4, 28, 95
3, 289920, Note_off_c, 4, 28, 0
3, 289920, Note_on_c, 4, 28, 95
3, 290240, Note_off_c, 4, 28, 0
3, 290560, Note_on_c, 4, 28, 95
3, 290880, Note_off_c, 4, 28, 0
3, 290880, Note_on_c, 4, 28, 95
3, 291200, Note_off_c, 4, 28, 0
3, 291520, Note_on_c, 4, 28, 95
3, 291840, Note_off_c, 4, 28, 0
3, 291840, Note_on_c, 4, 28, 95
3, 292160, Note_off_c, 4, 28, 0
3, 292480, Note_on_c, 4, 28, 95
3, 292800, Note_off_c, 4, 28, 0
3, 292800, Note_on_c, 4, 28, 95
3, 293120, Note_off_c, 4, 28, 0
3, 293120, Note_on_c, 4, 33, 95
3, 293440, Note_off_c, 4, 33, 0
3, 293440, Note_on_c, 4, 34, 95
3, 293760, Note_off_c, 4, 34, 0
3, 293760, Note_on_c, 4, 35, 95
3, 295680, Note_off_c, 4, 35, 0
3, 295680, Note_on_c, 4, 28, 95
3, 296000, Note_off_c, 4, 28, 0
3, 296320, Note_on_c, 4, 28, 95
3, 296640, Note_off_c, 4, 28, 0
3, 296640, Note_on_c, 4, 28, 95
3, 296960, Note_off_c, 4, 28, 0
3, 297280, Note_on_c, 4, 28, 95
3, 297600, Note_off_c, 4, 28, 0
3, 297600, Note_on_c, 4, 28, 95
3, 297920, Note_off_c, 4, 28, 0
3, 298240, Note_on_c, 4, 28, 95
3, 298560, Note_off_c, 4, 28, 0
3, 298560, Note_on_c, 4, 28, 95
3, 298880, Note_off_c, 4, 28, 0
3, 299200, Note_on_c, 4, 28, 95
3, 299520, Note_off_c, 4, 28, 0
3, 299520, Note_on_c, 4, 28, 95
3, 299840, Note_off_c, 4, 28, 0
3, 300160, Note_on_c, 4, 28, 95
3, 300480, Note_off_c, 4, 28, 0
3, 300480, Note_on_c, 4, 28, 95
3, 300800, Note_off_c, 4, 28, 0
3, 301120, Note_on_c, 4, 28, 95
3, 301440, Note_off_c, 4, 28, 0
3, 301440, Note_on_c, 4, 28, 95
3, 301760, Note_off_c, 4, 28, 0
3, 302080, Note_on_c, 4, 28, 95
3, 302400, Note_off_c, 4, 28, 0
3, 302400, Note_on_c, 4, 28, 95
3, 302720, Note_off_c, 4, 28, 0
3, 303040, Note_on_c, 4, 28, 95
3, 303360, Note_off_c, 4, 28, 0
3, 303360, Note_on_c, 4, 28, 95
3, 303680, Note_off_c, 4, 28, 0
3, 304000, Note_on_c, 4, 28, 95
3, 304320, Note_off_c, 4, 28, 0
3, 304320, Note_on_c, 4, 28, 95
3, 304640, Note_off_c, 4, 28, 0
3, 304960, Note_on_c, 4, 28, 95
3, 305280, Note_off_c, 4, 28, 0
3, 305280, Note_on_c, 4, 28, 95
3, 305600, Note_off_c, 4, 28, 0
3, 305920, Note_on_c, 4, 28, 95
3, 306240, Note_off_c, 4, 28, 0
3, 306240, Note_on_c, 4, 28, 95
3, 306560, Note_off_c, 4, 28, 0
3, 306880, Note_on_c, 4, 28, 95
3, 307200, Note_off_c, 4, 28, 0
3, 307200, Note_on_c, 4, 28, 95
3, 307520, Note_off_c, 4, 28, 0
3, 307840, Note_on_c, 4, 28, 95
3, 308160, Note_off_c, 4, 28, 0
3, 308160, Note_on_c, 4, 28, 95
3, 308480, Note_off_c, 4, 28, 0
3, 308800, Note_on_c, 4, 28, 95
3, 309120, Note_off_c, 4, 28, 0
3, 309120, Note_on_c, 4, 28, 95
3, 309440, Note_off_c, 4, 28, 0
3, 309760, Note_on_c, 4, 28, 95
3, 310080, Note_off_c, 4, 28, 0
3, 310080, Note_on_c, 4, 28, 95
3, 310400, Note_off_c, 4, 28, 0
3, 310720, Note_on_c, 4, 28, 95
3, 311040, Note_off_c, 4, 28, 0
3, 311040, Note_on_c, 4, 33, 95
3, 311360, Note_off_c, 4, 33, 0
3, 311680, Note_on_c, 4, 33, 95
3, 312000, Note_off_c, 4, 33, 0
3, 312000, Note_on_c, 4, 33, 95
3, 312320, Note_off_c, 4, 33, 0
3, 312640, Note_on_c, 4, 33, 95
3, 312960, Note_off_c, 4, 33, 0
3, 312960, Note_on_c, 4, 33, 95
3, 313280, Note_off_c, 4, 33, 0
3, 313600, Note_on_c, 4, 33, 95
3, 313920, Note_off_c, 4, 33, 0
3, 313920, Note_on_c, 4, 33, 95
3, 314240, Note_off_c, 4, 33, 0
3, 314560, Note_on_c, 4, 33, 95
3, 314880, Note_off_c, 4, 33, 0
3, 314880, Note_on_c, 4, 33, 95
3, 315200, Note_off_c, 4, 33, 0
3, 315520, Note_on_c, 4, 33, 95
3, 315840, Note_off_c, 4, 33, 0
3, 315840, Note_on_c, 4, 33, 95
3, 316160, Note_off_c, 4, 33, 0
3, 316480, Note_on_c, 4, 33, 95
3, 316800, Note_off_c, 4, 33, 0
3, 316800, Note_on_c, 4, 33, 95
3, 317120, Note_off_c, 4, 33, 0
3, 317440, Note_on_c, 4, 33, 95
3, 317760, Note_off_c, 4, 33, 0
3, 317760, Note_on_c, 4, 33, 95
3, 318080, Note_off_c, 4, 33, 0
3, 318400, Note_on_c, 4, 33, 95
3, 318720, Note_off_c, 4, 33, 0
3, 318720, Note_on_c, 4, 28, 95
3, 319040, Note_off_c, 4, 28, 0
3, 319360, Note_on_c, 4, 28, 95
3, 319680, Note_off_c, 4, 28, 0
3, 319680, Note_on_c, 4, 28, 95
3, 320000, Note_off_c, 4, 28, 0
3, 320320, Note_on_c, 4, 28, 95
3, 320640, Note_off_c, 4, 28, 0
3, 320640, Note_on_c, 4, 28, 95
3, 320960, Note_off_c, 4, 28, 0
3, 321280, Note_on_c, 4, 28, 95
3, 321600, Note_off_c, 4, 28, 0
3, 321600, Note_on_c, 4, 28, 95
3, 321920, Note_off_c, 4, 28, 0
3, 322240, Note_on_c, 4, 28, 95
3, 322560, Note_off_c, 4, 28, 0
3, 322560, Note_on_c, 4, 28, 95
3, 322880, Note_off_c, 4, 28, 0
3, 323200, Note_on_c, 4, 28, 95
3, 323520, Note_off_c, 4, 28, 0
3, 323520, Note_on_c, 4, 28, 95
3, 323840, Note_off_c, 4, 28, 0
3, 324160, Note_on_c, 4, 28, 95
3, 324480, Note_off_c, 4, 28, 0
3, 324480, Note_on_c, 4, 28, 95
3, 324800, Note_off_c, 4, 28, 0
3, 325120, Note_on_c, 4, 28, 95
3, 325440, Note_off_c, 4, 28, 0
3, 325440, Note_on_c, 4, 28, 95
3, 325760, Note_off_c, 4, 28, 0
3, 326080, Note_on_c, 4, 28, 95
3, 326400, Note_off_c, 4, 28, 0
3, 326400, Note_on_c, 4, 35, 95
3, 326720, Note_off_c, 4, 35, 0
3, 326720, Note_on_c, 4, 35, 95
3, 327040, Note_off_c, 4, 35, 0
3, 327040, Note_on_c, 4, 35, 95
3, 327360, Note_off_c, 4, 35, 0
3, 327360, Note_on_c, 4, 35, 95
3, 327680, Note_off_c, 4, 35, 0
3, 327680, Note_on_c, 4, 35, 95
3, 328000, Note_off_c, 4, 35, 0
3, 328000, Note_on_c, 4, 35, 95
3, 328320, Note_off_c, 4, 35, 0
3, 328320, Note_on_c, 4, 35, 95
3, 328640, Note_off_c, 4, 35, 0
3, 328640, Note_on_c, 4, 35, 95
3, 328960, Note_off_c, 4, 35, 0
3, 328960, Note_on_c, 4, 35, 95
3, 329280, Note_off_c, 4, 35, 0
3, 329280, Note_on_c, 4, 35, 95
3, 329600, Note_off_c, 4, 35, 0
3, 329600, Note_on_c, 4, 35, 95
3, 329920, Note_off_c, 4, 35, 0
3, 329920, Note_on_c, 4, 35, 95
3, 330240, Note_off_c, 4, 35, 0
3, 330240, Note_on_c, 4, 33, 95
3, 330560, Note_off_c, 4, 33, 0
3, 330560, Note_on_c, 4, 33, 95
3, 330880, Note_off_c, 4, 33, 0
3, 330880, Note_on_c, 4, 33, 95
3, 331200, Note_off_c, 4, 33, 0
3, 331200, Note_on_c, 4, 33, 95
3, 331520, Note_off_c, 4, 33, 0
3, 331520, Note_on_c, 4, 33, 95
3, 331840, Note_off_c, 4, 33, 0
3, 331840, Note_on_c, 4, 33, 95
3, 332160, Note_off_c, 4, 33, 0
3, 332160, Note_on_c, 4, 33, 95
3, 332480, Note_off_c, 4, 33, 0
3, 332480, Note_on_c, 4, 33, 95
3, 332800, Note_off_c, 4, 33, 0
3, 332800, Note_on_c, 4, 33, 95
3, 333120, Note_off_c, 4, 33, 0
3, 333120, Note_on_c, 4, 33, 95
3, 333440, Note_off_c, 4, 33, 0
3, 333440, Note_on_c, 4, 33, 95
3, 333760, Note_off_c, 4, 33, 0
3, 333760, Note_on_c, 4, 33, 95
3, 334080, Note_off_c, 4, 33, 0
3, 334080, Note_on_c, 4, 28, 95
3, 334400, Note_off_c, 4, 28, 0
3, 334720, Note_on_c, 4, 28, 95
3, 335040, Note_off_c, 4, 28, 0
3, 335040, Note_on_c, 4, 28, 95
3, 335360, Note_off_c, 4, 28, 0
3, 335680, Note_on_c, 4, 28, 95
3, 336000, Note_off_c, 4, 28, 0
3, 336000, Note_on_c, 4, 28, 95
3, 336320, Note_off_c, 4, 28, 0
3, 336640, Note_on_c, 4, 28, 95
3, 336960, Note_off_c, 4, 28, 0
3, 336960, Note_on_c, 4, 28, 95
3, 337280, Note_off_c, 4, 28, 0
3, 337600, Note_on_c, 4, 28, 95
3, 337920, Note_off_c, 4, 28, 0
3, 337920, Note_on_c, 4, 28, 95
3, 338240, Note_off_c, 4, 28, 0
3, 338560, Note_on_c, 4, 28, 95
3, 338880, Note_off_c, 4, 28, 0
3, 338880, Note_on_c, 4, 28, 95
3, 339200, Note_off_c, 4, 28, 0
3, 339200, Note_on_c, 4, 33, 95
3, 339520, Note_off_c, 4, 33, 0
3, 339520, Note_on_c, 4, 34, 95
3, 339840, Note_off_c, 4, 34, 0
3, 339840, Note_on_c, 4, 35, 95
3, 341760, Note_off_c, 4, 35, 0
3, 341760, Note_on_c, 4, 28, 95
3, 342080, Note_off_c, 4, 28, 0
3, 342400, Note_on_c, 4, 28, 95
3, 342720, Note_off_c, 4, 28, 0
3, 342720, Note_on_c, 4, 28, 95
3, 343040, Note_off_c, 4, 28, 0
3, 343360, Note_on_c, 4, 28, 95
3, 343680, Note_off_c, 4, 28, 0
3, 343680, Note_on_c, 4, 28, 95
3, 344000, Note_off_c, 4, 28, 0
3, 344320, Note_on_c, 4, 28, 95
3, 344640, Note_off_c, 4, 28, 0
3, 344640, Note_on_c, 4, 28, 95
3, 344960, Note_off_c, 4, 28, 0
3, 345280, Note_on_c, 4, 28, 95
3, 345600, Note_off_c, 4, 28, 0
3, 345600, Note_on_c, 4, 28, 95
3, 345920, Note_off_c, 4, 28, 0
3, 346240, Note_on_c, 4, 28, 95
3, 346560, Note_off_c, 4, 28, 0
3, 346560, Note_on_c, 4, 28, 95
3, 346880, Note_off_c, 4, 28, 0
3, 347200, Note_on_c, 4, 28, 95
3, 347520, Note_off_c, 4, 28, 0
3, 347520, Note_on_c, 4, 28, 95
3, 347840, Note_off_c, 4, 28, 0
3, 348160, Note_on_c, 4, 28, 95
3, 348480, Note_off_c, 4, 28, 0
3, 348480, Note_on_c, 4, 28, 95
3, 348800, Note_off_c, 4, 28, 0
3, 349120, Note_on_c, 4, 28, 95
3, 349440, Note_off_c, 4, 28, 0
3, 349440, Note_on_c, 4, 28, 95
3, 349760, Note_off_c, 4, 28, 0
3, 350080, Note_on_c, 4, 28, 95
3, 350400, Note_off_c, 4, 28, 0
3, 350400, Note_on_c, 4, 28, 95
3, 350720, Note_off_c, 4, 28, 0
3, 351040, Note_on_c, 4, 28, 95
3, 351360, Note_off_c, 4, 28, 0
3, 351360, Note_on_c, 4, 28, 95
3, 351680, Note_off_c, 4, 28, 0
3, 352000, Note_on_c, 4, 28, 95
3, 352320, Note_off_c, 4, 28, 0
3, 352320, Note_on_c, 4, 28, 95
3, 352640, Note_off_c, 4, 28, 0
3, 352960, Note_on_c, 4, 28, 95
3, 353280, Note_off_c, 4, 28, 0
3, 353280, Note_on_c, 4, 28, 95
3, 353600, Note_off_c, 4, 28, 0
3, 353920, Note_on_c, 4, 28, 95
3, 354240, Note_off_c, 4, 28, 0
3, 354240, Note_on_c, 4, 28, 95
3, 354560, Note_off_c, 4, 28, 0
3, 354880, Note_on_c, 4, 28, 95
3, 355200, Note_off_c, 4, 28, 0
3, 355200, Note_on_c, 4, 28, 95
3, 355520, Note_off_c, 4, 28, 0
3, 355840, Note_on_c, 4, 28, 95
3, 356160, Note_off_c, 4, 28, 0
3, 356160, Note_on_c, 4, 28, 95
3, 356480, Note_off_c, 4, 28, 0
3, 356800, Note_on_c, 4, 28, 95
3, 357120, Note_off_c, 4, 28, 0
3, 357120, Note_on_c, 4, 33, 95
3, 357440, Note_off_c, 4, 33, 0
3, 357760, Note_on_c, 4, 33, 95
3, 358080, Note_off_c, 4, 33, 0
3, 358080, Note_on_c, 4, 33, 95
3, 358400, Note_off_c, 4, 33, 0
3, 358720, Note_on_c, 4, 33, 95
3, 359040, Note_off_c, 4, 33, 0
3, 359040, Note_on_c, 4, 33, 95
3, 359360, Note_off_c, 4, 33, 0
3, 359680, Note_on_c, 4, 33, 95
3, 360000, Note_off_c, 4, 33, 0
3, 360000, Note_on_c, 4, 33, 95
3, 360320, Note_off_c, 4, 33, 0
3, 360640, Note_on_c, 4, 33, 95
3, 360960, Note_off_c, 4, 33, 0
3, 360960, Note_on_c, 4, 33, 95
3, 361280, Note_off_c, 4, 33, 0
3, 361600, Note_on_c, 4, 33, 95
3, 361920, Note_off_c, 4, 33, 0
3, 361920, Note_on_c, 4, 33, 95
3, 362240, Note_off_c, 4, 33, 0
3, 362560, Note_on_c, 4, 33, 95
3, 362880, Note_off_c, 4, 33, 0
3, 362880, Note_on_c, 4, 33, 95
3, 363200, Note_off_c, 4, 33, 0
3, 363520, Note_on_c, 4, 33, 95
3, 363840, Note_off_c, 4, 33, 0
3, 363840, Note_on_c, 4, 33, 95
3, 364160, Note_off_c, 4, 33, 0
3, 364480, Note_on_c, 4, 33, 95
3, 364800, Note_off_c, 4, 33, 0
3, 364800, Note_on_c, 4, 28, 95
3, 365120, Note_off_c, 4, 28, 0
3, 365440, Note_on_c, 4, 28, 95
3, 365760, Note_off_c, 4, 28, 0
3, 365760, Note_on_c, 4, 28, 95
3, 366080, Note_off_c, 4, 28, 0
3, 366400, Note_on_c, 4, 28, 95
3, 366720, Note_off_c, 4, 28, 0
3, 366720, Note_on_c, 4, 28, 95
3, 367040, Note_off_c, 4, 28, 0
3, 367360, Note_on_c, 4, 28, 95
3, 367680, Note_off_c, 4, 28, 0
3, 367680, Note_on_c, 4, 28, 95
3, 368000, Note_off_c, 4, 28, 0
3, 368320, Note_on_c, 4, 28, 95
3, 368640, Note_off_c, 4, 28, 0
3, 368640, Note_on_c, 4, 28, 95
3, 368960, Note_off_c, 4, 28, 0
3, 369280, Note_on_c, 4, 28, 95
3, 369600, Note_off_c, 4, 28, 0
3, 369600, Note_on_c, 4, 28, 95
3, 369920, Note_off_c, 4, 28, 0
3, 370240, Note_on_c, 4, 28, 95
3, 370560, Note_off_c, 4, 28, 0
3, 370560, Note_on_c, 4, 28, 95
3, 370880, Note_off_c, 4, 28, 0
3, 371200, Note_on_c, 4, 28, 95
3, 371520, Note_off_c, 4, 28, 0
3, 371520, Note_on_c, 4, 28, 95
3, 371840, Note_off_c, 4, 28, 0
3, 372160, Note_on_c, 4, 28, 95
3, 372480, Note_off_c, 4, 28, 0
3, 372480, Note_on_c, 4, 35, 95
3, 372800, Note_off_c, 4, 35, 0
3, 372800, Note_on_c, 4, 35, 95
3, 373120, Note_off_c, 4, 35, 0
3, 373120, Note_on_c, 4, 35, 95
3, 373440, Note_off_c, 4, 35, 0
3, 373440, Note_on_c, 4, 35, 95
3, 373760, Note_off_c, 4, 35, 0
3, 373760, Note_on_c, 4, 35, 95
3, 374080, Note_off_c, 4, 35, 0
3, 374080, Note_on_c, 4, 35, 95
3, 374400, Note_off_c, 4, 35, 0
3, 374400, Note_on_c, 4, 35, 95
3, 374720, Note_off_c, 4, 35, 0
3, 374720, Note_on_c, 4, 35, 95
3, 375040, Note_off_c, 4, 35, 0
3, 375040, Note_on_c, 4, 35, 95
3, 375360, Note_off_c, 4, 35, 0
3, 375360, Note_on_c, 4, 35, 95
3, 375680, Note_off_c, 4, 35, 0
3, 375680, Note_on_c, 4, 35, 95
3, 376000, Note_off_c, 4, 35, 0
3, 376000, Note_on_c, 4, 35, 95
3, 376320, Note_off_c, 4, 35, 0
3, 376320, Note_on_c, 4, 33, 95
3, 376640, Note_off_c, 4, 33, 0
3, 376640, Note_on_c, 4, 33, 95
3, 376960, Note_off_c, 4, 33, 0
3, 376960, Note_on_c, 4, 33, 95
3, 377280, Note_off_c, 4, 33, 0
3, 377280, Note_on_c, 4, 33, 95
3, 377600, Note_off_c, 4, 33, 0
3, 377600, Note_on_c, 4, 33, 95
3, 377920, Note_off_c, 4, 33, 0
3, 377920, Note_on_c, 4, 33, 95
3, 378240, Note_off_c, 4, 33, 0
3, 378240, Note_on_c, 4, 33, 95
3, 378560, Note_off_c, 4, 33, 0
3, 378560, Note_on_c, 4, 33, 95
3, 378880, Note_off_c, 4, 33, 0
3, 378880, Note_on_c, 4, 33, 95
3, 379200, Note_off_c, 4, 33, 0
3, 379200, Note_on_c, 4, 33, 95
3, 379520, Note_off_c, 4, 33, 0
3, 379520, Note_on_c, 4, 33, 95
3, 379840, Note_off_c, 4, 33, 0
3, 379840, Note_on_c, 4, 33, 95
3, 380160, Note_off_c, 4, 33, 0
3, 385440, Note_on_c, 4, 29, 95
3, 389760, Note_off_c, 4, 29, 0
3, 389760, Note_on_c, 4, 28, 95
3, 397440, Note_off_c, 4, 28, 0
3, 397440, Note_on_c, 4, 28, 95
3, 397920, Note_off_c, 4, 28, 0
3, 397920, End_track
4, 0, Start_track
4, 0, MIDI_port, 1
4, 0, Title_t, "Angus Young"
4, 0, Program_c, 2, 30
4, 15360, Note_on_c, 2, 54, 95
4, 15360, Note_on_c, 2, 47, 95
4, 15680, Note_off_c, 2, 54, 0
4, 15680, Note_off_c, 2, 47, 0
4, 16000, Note_on_c, 2, 54, 95
4, 16000, Note_on_c, 2, 47, 95
4, 16320, Note_off_c, 2, 54, 0
4, 16320, Note_off_c, 2, 47, 0
4, 16320, Note_on_c, 2, 56, 95
4, 16320, Note_on_c, 2, 47, 95
4, 16640, Note_off_c, 2, 56, 0
4, 16640, Note_off_c, 2, 47, 0
4, 16960, Note_on_c, 2, 57, 95
4, 16960, Note_on_c, 2, 47, 95
4, 19200, Note_off_c, 2, 57, 0
4, 19200, Note_off_c, 2, 47, 0
4, 19200, Note_on_c, 2, 52, 95
4, 19200, Note_on_c, 2, 45, 95
4, 19520, Note_off_c, 2, 52, 0
4, 19520, Note_off_c, 2, 45, 0
4, 19840, Note_on_c, 2, 52, 95
4, 19840, Note_on_c, 2, 45, 95
4, 20160, Note_off_c, 2, 52, 0
4, 20160, Note_off_c, 2, 45, 0
4, 20160, Note_on_c, 2, 54, 95
4, 20160, Note_on_c, 2, 45, 95
4, 20480, Note_off_c, 2, 54, 0
4, 20480, Note_off_c, 2, 45, 0
4, 20800, Note_on_c, 2, 55, 95
4, 20800, Note_on_c, 2, 45, 95
4, 23040, Note_off_c, 2, 55, 0
4, 23040, Note_off_c, 2, 45, 0
4, 23040, Note_on_c, 2, 47, 95
4, 23040, Note_on_c, 2, 40, 95
4, 23360, Note_off_c, 2, 47, 0
4, 23360, Note_off_c, 2, 40, 0
4, 23680, Note_on_c, 2, 47, 95
4, 23680, Note_on_c, 2, 40, 95
4, 24000, Note_off_c, 2, 47, 0
4, 24000, Note_off_c, 2, 40, 0
4, 24000, Note_on_c, 2, 49, 95
4, 24000, Note_on_c, 2, 40, 95
4, 24320, Note_off_c, 2, 49, 0
4, 24320, Note_off_c, 2, 40, 0
4, 24640, Note_on_c, 2, 50, 95
4, 24640, Note_on_c, 2, 40, 95
4, 26240, Note_off_c, 2, 50, 0
4, 26240, Note_off_c, 2, 40, 0
4, 26240, Note_on_c, 2, 52, 95
4, 26240, Note_on_c, 2, 45, 95
4, 26560, Note_off_c, 2, 52, 0
4, 26560, Note_off_c, 2, 45, 0
4, 26560, Note_on_c, 2, 53, 95
4, 26560, Note_on_c, 2, 46, 95
4, 26880, Note_off_c, 2, 53, 0
4, 26880, Note_off_c, 2, 46, 0
4, 26880, Note_on_c, 2, 54, 95
4, 26880, Note_on_c, 2, 47, 95
4, 30720, Note_off_c, 2, 54, 0
4, 30720, Note_off_c, 2, 47, 0
4, 30720, Note_on_c, 2, 54, 95
4, 30720, Note_on_c, 2, 47, 95
4, 31040, Note_off_c, 2, 54, 0
4, 31040, Note_off_c, 2, 47, 0
4, 31040, Note_on_c, 2, 54, 95
4, 31040, Note_on_c, 2, 47, 95
4, 31360, Note_off_c, 2, 54, 0
4, 31360, Note_off_c, 2, 47, 0
4, 31360, Note_on_c, 2, 54, 95
4, 31360, Note_on_c, 2, 47, 95
4, 31680, Note_off_c, 2, 54, 0
4, 31680, Note_off_c, 2, 47, 0
4, 31680, Note_on_c, 2, 54, 95
4, 31680, Note_on_c, 2, 47, 95
4, 32000, Note_off_c, 2, 54, 0
4, 32000, Note_off_c, 2, 47, 0
4, 32000, Note_on_c, 2, 54, 95
4, 32000, Note_on_c, 2, 47, 95
4, 32320, Note_off_c, 2, 54, 0
4, 32320, Note_off_c, 2, 47, 0
4, 32320, Note_on_c, 2, 54, 95
4, 32320, Note_on_c, 2, 47, 95
4, 32640, Note_off_c, 2, 54, 0
4, 32640, Note_off_c, 2, 47, 0
4, 32640, Note_on_c, 2, 59, 95
4, 32640, Note_on_c, 2, 54, 95
4, 32640, Note_on_c, 2, 47, 95
4, 33600, Note_off_c, 2, 59, 0
4, 33600, Note_off_c, 2, 54, 0
4, 33600, Note_off_c, 2, 47, 0
4, 34560, Note_on_c, 2, 47, 95
4, 34560, Note_on_c, 2, 40, 95
4, 34880, Note_off_c, 2, 47, 0
4, 34880, Note_off_c, 2, 40, 0
4, 35200, Note_on_c, 2, 47, 95
4, 35200, Note_on_c, 2, 40, 95
4, 35520, Note_off_c, 2, 47, 0
4, 35520, Note_off_c, 2, 40, 0
4, 35520, Note_on_c, 2, 49, 95
4, 35520, Note_on_c, 2, 40, 95
4, 35840, Note_off_c, 2, 49, 0
4, 35840, Note_off_c, 2, 40, 0
4, 36160, Note_on_c, 2, 50, 95
4, 36160, Note_on_c, 2, 40, 95
4, 38400, Note_off_c, 2, 50, 0
4, 38400, Note_off_c, 2, 40, 0
4, 38400, Note_on_c, 2, 47, 95
4, 38400, Note_on_c, 2, 40, 95
4, 38720, Note_off_c, 2, 47, 0
4, 38720, Note_off_c, 2, 40, 0
4, 39040, Note_on_c, 2, 47, 95
4, 39040, Note_on_c, 2, 40, 95
4, 39360, Note_off_c, 2, 47, 0
4, 39360, Note_off_c, 2, 40, 0
4, 39360, Note_on_c, 2, 49, 95
4, 39360, Note_on_c, 2, 40, 95
4, 39680, Note_off_c, 2, 49, 0
4, 39680, Note_off_c, 2, 40, 0
4, 40000, Note_on_c, 2, 50, 95
4, 40000, Note_on_c, 2, 40, 95
4, 42240, Note_off_c, 2, 50, 0
4, 42240, Note_off_c, 2, 40, 0
4, 42240, Note_on_c, 2, 47, 95
4, 42240, Note_on_c, 2, 40, 95
4, 42560, Note_off_c, 2, 47, 0
4, 42560, Note_off_c, 2, 40, 0
4, 42880, Note_on_c, 2, 47, 95
4, 42880, Note_on_c, 2, 40, 95
4, 43200, Note_off_c, 2, 47, 0
4, 43200, Note_off_c, 2, 40, 0
4, 43200, Note_on_c, 2, 49, 95
4, 43200, Note_on_c, 2, 40, 95
4, 43520, Note_off_c, 2, 49, 0
4, 43520, Note_off_c, 2, 40, 0
4, 43840, Note_on_c, 2, 50, 95
4, 43840, Note_on_c, 2, 40, 95
4, 46080, Note_off_c, 2, 50, 0
4, 46080, Note_off_c, 2, 40, 0
4, 46080, Note_on_c, 2, 47, 95
4, 46080, Note_on_c, 2, 40, 95
4, 46400, Note_off_c, 2, 47, 0
4, 46400, Note_off_c, 2, 40, 0
4, 46720, Note_on_c, 2, 47, 95
4, 46720, Note_on_c, 2, 40, 95
4, 47040, Note_off_c, 2, 47, 0
4, 47040, Note_off_c, 2, 40, 0
4, 47040, Note_on_c, 2, 49, 95
4, 47040, Note_on_c, 2, 40, 95
4, 47360, Note_off_c, 2, 49, 0
4, 47360, Note_off_c, 2, 40, 0
4, 47680, Note_on_c, 2, 50, 95
4, 47680, Note_on_c, 2, 40, 95
4, 49920, Note_off_c, 2, 50, 0
4, 49920, Note_off_c, 2, 40, 0
4, 49920, Note_on_c, 2, 52, 95
4, 49920, Note_on_c, 2, 45, 95
4, 50240, Note_off_c, 2, 52, 0
4, 50240, Note_off_c, 2, 45, 0
4, 50560, Note_on_c, 2, 52, 95
4, 50560, Note_on_c, 2, 45, 95
4, 50880, Note_off_c, 2, 52, 0
4, 50880, Note_off_c, 2, 45, 0
4, 50880, Note_on_c, 2, 54, 95
4, 50880, Note_on_c, 2, 45, 95
4, 51200, Note_off_c, 2, 54, 0
4, 51200, Note_off_c, 2, 45, 0
4, 51520, Note_on_c, 2, 55, 95
4, 51520, Note_on_c, 2, 45, 95
4, 53760, Note_off_c, 2, 55, 0
4, 53760, Note_off_c, 2, 45, 0
4, 53760, Note_on_c, 2, 52, 95
4, 53760, Note_on_c, 2, 45, 95
4, 54080, Note_off_c, 2, 52, 0
4, 54080, Note_off_c, 2, 45, 0
4, 54400, Note_on_c, 2, 52, 95
4, 54400, Note_on_c, 2, 45, 95
4, 54720, Note_off_c, 2, 52, 0
4, 54720, Note_off_c, 2, 45, 0
4, 54720, Note_on_c, 2, 54, 95
4, 54720, Note_on_c, 2, 45, 95
4, 55040, Note_off_c, 2, 54, 0
4, 55040, Note_off_c, 2, 45, 0
4, 55360, Note_on_c, 2, 55, 95
4, 55360, Note_on_c, 2, 45, 95
4, 57600, Note_off_c, 2, 55, 0
4, 57600, Note_off_c, 2, 45, 0
4, 57600, Note_on_c, 2, 52, 95
4, 57600, Note_on_c, 2, 45, 95
4, 57920, Note_off_c, 2, 52, 0
4, 57920, Note_off_c, 2, 45, 0
4, 58240, Note_on_c, 2, 52, 95
4, 58240, Note_on_c, 2, 45, 95
4, 58560, Note_off_c, 2, 52, 0
4, 58560, Note_off_c, 2, 45, 0
4, 58560, Note_on_c, 2, 54, 95
4, 58560, Note_on_c, 2, 45, 95
4, 58880, Note_off_c, 2, 54, 0
4, 58880, Note_off_c, 2, 45, 0
4, 59200, Note_on_c, 2, 55, 95
4, 59200, Note_on_c, 2, 45, 95
4, 61440, Note_off_c, 2, 55, 0
4, 61440, Note_off_c, 2, 45, 0
4, 61440, Note_on_c, 2, 52, 95
4, 61440, Note_on_c, 2, 45, 95
4, 61760, Note_off_c, 2, 52, 0
4, 61760, Note_off_c, 2, 45, 0
4, 62080, Note_on_c, 2, 52, 95
4, 62080, Note_on_c, 2, 45, 95
4, 62400, Note_off_c, 2, 52, 0
4, 62400, Note_off_c, 2, 45, 0
4, 62400, Note_on_c, 2, 54, 95
4, 62400, Note_on_c, 2, 45, 95
4, 62720, Note_off_c, 2, 54, 0
4, 62720, Note_off_c, 2, 45, 0
4, 63040, Note_on_c, 2, 55, 95
4, 63040, Note_on_c, 2, 45, 95
4, 65280, Note_off_c, 2, 55, 0
4, 65280, Note_off_c, 2, 45, 0
4, 65280, Note_on_c, 2, 47, 95
4, 65280, Note_on_c, 2, 40, 95
4, 65600, Note_off_c, 2, 47, 0
4, 65600, Note_off_c, 2, 40, 0
4, 65920, Note_on_c, 2, 47, 95
4, 65920, Note_on_c, 2, 40, 95
4, 66240, Note_off_c, 2, 47, 0
4, 66240, Note_off_c, 2, 40, 0
4, 66240, Note_on_c, 2, 49, 95
4, 66240, Note_on_c, 2, 40, 95
4, 66560, Note_off_c, 2, 49, 0
4, 66560, Note_off_c, 2, 40, 0
4, 66880, Note_on_c, 2, 50, 95
4, 66880, Note_on_c, 2, 40, 95
4, 69120, Note_off_c, 2, 50, 0
4, 69120, Note_off_c, 2, 40, 0
4, 69120, Note_on_c, 2, 47, 95
4, 69120, Note_on_c, 2, 40, 95
4, 69440, Note_off_c, 2, 47, 0
4, 69440, Note_off_c, 2, 40, 0
4, 69760, Note_on_c, 2, 47, 95
4, 69760, Note_on_c, 2, 40, 95
4, 70080, Note_off_c, 2, 47, 0
4, 70080, Note_off_c, 2, 40, 0
4, 70080, Note_on_c, 2, 49, 95
4, 70080, Note_on_c, 2, 40, 95
4, 70400, Note_off_c, 2, 49, 0
4, 70400, Note_off_c, 2, 40, 0
4, 70720, Note_on_c, 2, 50, 95
4, 70720, Note_on_c, 2, 40, 95
4, 72960, Note_off_c, 2, 50, 0
4, 72960, Note_off_c, 2, 40, 0
4, 72960, Note_on_c, 2, 47, 95
4, 72960, Note_on_c, 2, 40, 95
4, 73280, Note_off_c, 2, 47, 0
4, 73280, Note_off_c, 2, 40, 0
4, 73600, Note_on_c, 2, 47, 95
4, 73600, Note_on_c, 2, 40, 95
4, 73920, Note_off_c, 2, 47, 0
4, 73920, Note_off_c, 2, 40, 0
4, 73920, Note_on_c, 2, 49, 95
4, 73920, Note_on_c, 2, 40, 95
4, 74240, Note_off_c, 2, 49, 0
4, 74240, Note_off_c, 2, 40, 0
4, 74560, Note_on_c, 2, 50, 95
4, 74560, Note_on_c, 2, 40, 95
4, 76800, Note_off_c, 2, 50, 0
4, 76800, Note_off_c, 2, 40, 0
4, 76800, Note_on_c, 2, 47, 95
4, 76800, Note_on_c, 2, 40, 95
4, 77120, Note_off_c, 2, 47, 0
4, 77120, Note_off_c, 2, 40, 0
4, 77440, Note_on_c, 2, 47, 95
4, 77440, Note_on_c, 2, 40, 95
4, 77760, Note_off_c, 2, 47, 0
4, 77760, Note_off_c, 2, 40, 0
4, 77760, Note_on_c, 2, 49, 95
4, 77760, Note_on_c, 2, 40, 95
4, 78080, Note_off_c, 2, 49, 0
4, 78080, Note_off_c, 2, 40, 0
4, 78400, Note_on_c, 2, 50, 95
4, 78400, Note_on_c, 2, 40, 95
4, 80640, Note_off_c, 2, 50, 0
4, 80640, Note_off_c, 2, 40, 0
4, 80640, Note_on_c, 2, 52, 95
4, 80640, Note_on_c, 2, 45, 95
4, 80960, Note_off_c, 2, 52, 0
4, 80960, Note_off_c, 2, 45, 0
4, 81280, Note_on_c, 2, 52, 95
4, 81280, Note_on_c, 2, 45, 95
4, 81600, Note_off_c, 2, 52, 0
4, 81600, Note_off_c, 2, 45, 0
4, 81600, Note_on_c, 2, 54, 95
4, 81600, Note_on_c, 2, 45, 95
4, 81920, Note_off_c, 2, 54, 0
4, 81920, Note_off_c, 2, 45, 0
4, 82240, Note_on_c, 2, 55, 95
4, 82240, Note_on_c, 2, 45, 95
4, 84480, Note_off_c, 2, 55, 0
4, 84480, Note_off_c, 2, 45, 0
4, 84480, Note_on_c, 2, 52, 95
4, 84480, Note_on_c, 2, 45, 95
4, 84800, Note_off_c, 2, 52, 0
4, 84800, Note_off_c, 2, 45, 0
4, 85120, Note_on_c, 2, 52, 95
4, 85120, Note_on_c, 2, 45, 95
4, 85440, Note_off_c, 2, 52, 0
4, 85440, Note_off_c, 2, 45, 0
4, 85440, Note_on_c, 2, 54, 95
4, 85440, Note_on_c, 2, 45, 95
4, 85760, Note_off_c, 2, 54, 0
4, 85760, Note_off_c, 2, 45, 0
4, 86080, Note_on_c, 2, 55, 95
4, 86080, Note_on_c, 2, 45, 95
4, 88320, Note_off_c, 2, 55, 0
4, 88320, Note_off_c, 2, 45, 0
4, 88320, Note_on_c, 2, 52, 95
4, 88320, Note_on_c, 2, 45, 95
4, 88640, Note_off_c, 2, 52, 0
4, 88640, Note_off_c, 2, 45, 0
4, 88960, Note_on_c, 2, 52, 95
4, 88960, Note_on_c, 2, 45, 95
4, 89280, Note_off_c, 2, 52, 0
4, 89280, Note_off_c, 2, 45, 0
4, 89280, Note_on_c, 2, 54, 95
4, 89280, Note_on_c, 2, 45, 95
4, 89600, Note_off_c, 2, 54, 0
4, 89600, Note_off_c, 2, 45, 0
4, 89920, Note_on_c, 2, 55, 95
4, 89920, Note_on_c, 2, 45, 95
4, 92160, Note_off_c, 2, 55, 0
4, 92160, Note_off_c, 2, 45, 0
4, 92160, Note_on_c, 2, 52, 95
4, 92160, Note_on_c, 2, 45, 95
4, 92480, Note_off_c, 2, 52, 0
4, 92480, Note_off_c, 2, 45, 0
4, 92800, Note_on_c, 2, 52, 95
4, 92800, Note_on_c, 2, 45, 95
4, 93120, Note_off_c, 2, 52, 0
4, 93120, Note_off_c, 2, 45, 0
4, 93120, Note_on_c, 2, 54, 95
4, 93120, Note_on_c, 2, 45, 95
4, 93440, Note_off_c, 2, 54, 0
4, 93440, Note_off_c, 2, 45, 0
4, 93760, Note_on_c, 2, 55, 95
4, 93760, Note_on_c, 2, 45, 95
4, 96000, Note_off_c, 2, 55, 0
4, 96000, Note_off_c, 2, 45, 0
4, 96000, Note_on_c, 2, 47, 95
4, 96000, Note_on_c, 2, 40, 95
4, 96320, Note_off_c, 2, 47, 0
4, 96320, Note_off_c, 2, 40, 0
4, 96640, Note_on_c, 2, 47, 95
4, 96640, Note_on_c, 2, 40, 95
4, 96960, Note_off_c, 2, 47, 0
4, 96960, Note_off_c, 2, 40, 0
4, 96960, Note_on_c, 2, 49, 95
4, 96960, Note_on_c, 2, 40, 95
4, 97280, Note_off_c, 2, 49, 0
4, 97280, Note_off_c, 2, 40, 0
4, 97600, Note_on_c, 2, 49, 95
4, 97600, Note_on_c, 2, 40, 95
4, 97920, Note_off_c, 2, 49, 0
4, 97920, Note_off_c, 2, 40, 0
4, 97920, Note_on_c, 2, 50, 95
4, 97920, Note_on_c, 2, 40, 95
4, 98240, Note_off_c, 2, 50, 0
4, 98240, Note_off_c, 2, 40, 0
4, 98560, Note_on_c, 2, 50, 95
4, 98560, Note_on_c, 2, 40, 95
4, 98880, Note_off_c, 2, 50, 0
4, 98880, Note_off_c, 2, 40, 0
4, 98880, Note_on_c, 2, 49, 95
4, 98880, Note_on_c, 2, 40, 95
4, 99200, Note_off_c, 2, 49, 0
4, 99200, Note_off_c, 2, 40, 0
4, 99520, Note_on_c, 2, 49, 95
4, 99520, Note_on_c, 2, 40, 95
4, 99840, Note_off_c, 2, 49, 0
4, 99840, Note_off_c, 2, 40, 0
4, 99840, Note_on_c, 2, 47, 95
4, 99840, Note_on_c, 2, 40, 95
4, 100160, Note_off_c, 2, 47, 0
4, 100160, Note_off_c, 2, 40, 0
4, 100480, Note_on_c, 2, 47, 95
4, 100480, Note_on_c, 2, 40, 95
4, 100800, Note_off_c, 2, 47, 0
4, 100800, Note_off_c, 2, 40, 0
4, 100800, Note_on_c, 2, 49, 95
4, 100800, Note_on_c, 2, 40, 95
4, 101120, Note_off_c, 2, 49, 0
4, 101120, Note_off_c, 2, 40, 0
4, 101440, Note_on_c, 2, 49, 95
4, 101440, Note_on_c, 2, 40, 95
4, 101760, Note_off_c, 2, 49, 0
4, 101760, Note_off_c, 2, 40, 0
4, 101760, Note_on_c, 2, 50, 95
4, 101760, Note_on_c, 2, 40, 95
4, 102080, Note_off_c, 2, 50, 0
4, 102080, Note_off_c, 2, 40, 0
4, 102400, Note_on_c, 2, 50, 95
4, 102400, Note_on_c, 2, 40, 95
4, 102720, Note_off_c, 2, 50, 0
4, 102720, Note_off_c, 2, 40, 0
4, 102720, Note_on_c, 2, 49, 95
4, 102720, Note_on_c, 2, 40, 95
4, 103040, Note_off_c, 2, 49, 0
4, 103040, Note_off_c, 2, 40, 0
4, 103360, Note_on_c, 2, 49, 95
4, 103360, Note_on_c, 2, 40, 95
4, 103680, Note_off_c, 2, 49, 0
4, 103680, Note_off_c, 2, 40, 0
4, 103680, Note_on_c, 2, 47, 95
4, 103680, Note_on_c, 2, 40, 95
4, 104000, Note_off_c, 2, 47, 0
4, 104000, Note_off_c, 2, 40, 0
4, 104320, Note_on_c, 2, 47, 95
4, 104320, Note_on_c, 2, 40, 95
4, 104640, Note_off_c, 2, 47, 0
4, 104640, Note_off_c, 2, 40, 0
4, 104640, Note_on_c, 2, 49, 95
4, 104640, Note_on_c, 2, 40, 95
4, 104960, Note_off_c, 2, 49, 0
4, 104960, Note_off_c, 2, 40, 0
4, 105280, Note_on_c, 2, 49, 95
4, 105280, Note_on_c, 2, 40, 95
4, 105600, Note_off_c, 2, 49, 0
4, 105600, Note_off_c, 2, 40, 0
4, 105600, Note_on_c, 2, 50, 95
4, 105600, Note_on_c, 2, 40, 95
4, 105920, Note_off_c, 2, 50, 0
4, 105920, Note_off_c, 2, 40, 0
4, 106240, Note_on_c, 2, 50, 95
4, 106240, Note_on_c, 2, 40, 95
4, 106560, Note_off_c, 2, 50, 0
4, 106560, Note_off_c, 2, 40, 0
4, 106560, Note_on_c, 2, 49, 95
4, 106560, Note_on_c, 2, 40, 95
4, 106880, Note_off_c, 2, 49, 0
4, 106880, Note_off_c, 2, 40, 0
4, 107200, Note_on_c, 2, 49, 95
4, 107200, Note_on_c, 2, 40, 95
4, 107520, Note_off_c, 2, 49, 0
4, 107520, Note_off_c, 2, 40, 0
4, 107520, Note_on_c, 2, 47, 95
4, 107520, Note_on_c, 2, 40, 95
4, 107840, Note_off_c, 2, 47, 0
4, 107840, Note_off_c, 2, 40, 0
4, 108160, Note_on_c, 2, 47, 95
4, 108160, Note_on_c, 2, 40, 95
4, 108480, Note_off_c, 2, 47, 0
4, 108480, Note_off_c, 2, 40, 0
4, 108480, Note_on_c, 2, 49, 95
4, 108480, Note_on_c, 2, 40, 95
4, 108800, Note_off_c, 2, 49, 0
4, 108800, Note_off_c, 2, 40, 0
4, 109120, Note_on_c, 2, 49, 95
4, 109120, Note_on_c, 2, 40, 95
4, 109440, Note_off_c, 2, 49, 0
4, 109440, Note_off_c, 2, 40, 0
4, 109440, Note_on_c, 2, 50, 95
4, 109440, Note_on_c, 2, 40, 95
4, 109760, Note_off_c, 2, 50, 0
4, 109760, Note_off_c, 2, 40, 0
4, 110080, Note_on_c, 2, 50, 95
4, 110080, Note_on_c, 2, 40, 95
4, 110400, Note_off_c, 2, 50, 0
4, 110400, Note_off_c, 2, 40, 0
4, 110400, Note_on_c, 2, 49, 95
4, 110400, Note_on_c, 2, 40, 95
4, 110720, Note_off_c, 2, 49, 0
4, 110720, Note_off_c, 2, 40, 0
4, 111040, Note_on_c, 2, 49, 95
4, 111040, Note_on_c, 2, 40, 95
4, 111360, Note_off_c, 2, 49, 0
4, 111360, Note_off_c, 2, 40, 0
4, 111360, Note_on_c, 2, 52, 95
4, 111360, Note_on_c, 2, 45, 95
4, 111680, Note_off_c, 2, 52, 0
4, 111680, Note_off_c, 2, 45, 0
4, 112000, Note_on_c, 2, 52, 95
4, 112000, Note_on_c, 2, 45, 95
4, 112320, Note_off_c, 2, 52, 0
4, 112320, Note_off_c, 2, 45, 0
4, 112320, Note_on_c, 2, 54, 95
4, 112320, Note_on_c, 2, 45, 95
4, 112640, Note_off_c, 2, 54, 0
4, 112640, Note_off_c, 2, 45, 0
4, 112960, Note_on_c, 2, 54, 95
4, 112960, Note_on_c, 2, 45, 95
4, 113280, Note_off_c, 2, 54, 0
4, 113280, Note_off_c, 2, 45, 0
4, 113280, Note_on_c, 2, 55, 95
4, 113280, Note_on_c, 2, 45, 95
4, 113600, Note_off_c, 2, 55, 0
4, 113600, Note_off_c, 2, 45, 0
4, 113920, Note_on_c, 2, 55, 95
4, 113920, Note_on_c, 2, 45, 95
4, 114240, Note_off_c, 2, 55, 0
4, 114240, Note_off_c, 2, 45, 0
4, 114240, Note_on_c, 2, 54, 95
4, 114240, Note_on_c, 2, 45, 95
4, 114560, Note_off_c, 2, 54, 0
4, 114560, Note_off_c, 2, 45, 0
4, 114880, Note_on_c, 2, 54, 95
4, 114880, Note_on_c, 2, 45, 95
4, 115200, Note_off_c, 2, 54, 0
4, 115200, Note_off_c, 2, 45, 0
4, 115200, Note_on_c, 2, 52, 95
4, 115200, Note_on_c, 2, 45, 95
4, 115520, Note_off_c, 2, 52, 0
4, 115520, Note_off_c, 2, 45, 0
4, 115840, Note_on_c, 2, 52, 95
4, 115840, Note_on_c, 2, 45, 95
4, 116160, Note_off_c, 2, 52, 0
4, 116160, Note_off_c, 2, 45, 0
4, 116160, Note_on_c, 2, 54, 95
4, 116160, Note_on_c, 2, 45, 95
4, 116480, Note_off_c, 2, 54, 0
4, 116480, Note_off_c, 2, 45, 0
4, 116800, Note_on_c, 2, 54, 95
4, 116800, Note_on_c, 2, 45, 95
4, 117120, Note_off_c, 2, 54, 0
4, 117120, Note_off_c, 2, 45, 0
4, 117120, Note_on_c, 2, 55, 95
4, 117120, Note_on_c, 2, 45, 95
4, 117440, Note_off_c, 2, 55, 0
4, 117440, Note_off_c, 2, 45, 0
4, 117760, Note_on_c, 2, 55, 95
4, 117760, Note_on_c, 2, 45, 95
4, 118080, Note_off_c, 2, 55, 0
4, 118080, Note_off_c, 2, 45, 0
4, 118080, Note_on_c, 2, 54, 95
4, 118080, Note_on_c, 2, 45, 95
4, 118400, Note_off_c, 2, 54, 0
4, 118400, Note_off_c, 2, 45, 0
4, 118720, Note_on_c, 2, 54, 95
4, 118720, Note_on_c, 2, 45, 95
4, 119040, Note_off_c, 2, 54, 0
4, 119040, Note_off_c, 2, 45, 0
4, 119040, Note_on_c, 2, 47, 95
4, 119040, Note_on_c, 2, 40, 95
4, 119360, Note_off_c, 2, 47, 0
4, 119360, Note_off_c, 2, 40, 0
4, 119680, Note_on_c, 2, 47, 95
4, 119680, Note_on_c, 2, 40, 95
4, 120000, Note_off_c, 2, 47, 0
4, 120000, Note_off_c, 2, 40, 0
4, 120000, Note_on_c, 2, 49, 95
4, 120000, Note_on_c, 2, 40, 95
4, 120320, Note_off_c, 2, 49, 0
4, 120320, Note_off_c, 2, 40, 0
4, 120640, Note_on_c, 2, 49, 95
4, 120640, Note_on_c, 2, 40, 95
4, 120960, Note_off_c, 2, 49, 0
4, 120960, Note_off_c, 2, 40, 0
4, 120960, Note_on_c, 2, 50, 95
4, 120960, Note_on_c, 2, 40, 95
4, 121280, Note_off_c, 2, 50, 0
4, 121280, Note_off_c, 2, 40, 0
4, 121600, Note_on_c, 2, 50, 95
4, 121600, Note_on_c, 2, 40, 95
4, 121920, Note_off_c, 2, 50, 0
4, 121920, Note_off_c, 2, 40, 0
4, 121920, Note_on_c, 2, 49, 95
4, 121920, Note_on_c, 2, 40, 95
4, 122240, Note_off_c, 2, 49, 0
4, 122240, Note_off_c, 2, 40, 0
4, 122560, Note_on_c, 2, 49, 95
4, 122560, Note_on_c, 2, 40, 95
4, 122880, Note_off_c, 2, 49, 0
4, 122880, Note_off_c, 2, 40, 0
4, 122880, Note_on_c, 2, 47, 95
4, 122880, Note_on_c, 2, 40, 95
4, 123200, Note_off_c, 2, 47, 0
4, 123200, Note_off_c, 2, 40, 0
4, 123520, Note_on_c, 2, 47, 95
4, 123520, Note_on_c, 2, 40, 95
4, 123840, Note_off_c, 2, 47, 0
4, 123840, Note_off_c, 2, 40, 0
4, 123840, Note_on_c, 2, 49, 95
4, 123840, Note_on_c, 2, 40, 95
4, 124160, Note_off_c, 2, 49, 0
4, 124160, Note_off_c, 2, 40, 0
4, 124480, Note_on_c, 2, 49, 95
4, 124480, Note_on_c, 2, 40, 95
4, 124800, Note_off_c, 2, 49, 0
4, 124800, Note_off_c, 2, 40, 0
4, 124800, Note_on_c, 2, 50, 95
4, 124800, Note_on_c, 2, 40, 95
4, 125120, Note_off_c, 2, 50, 0
4, 125120, Note_off_c, 2, 40, 0
4, 125440, Note_on_c, 2, 50, 95
4, 125440, Note_on_c, 2, 40, 95
4, 125760, Note_off_c, 2, 50, 0
4, 125760, Note_off_c, 2, 40, 0
4, 125760, Note_on_c, 2, 49, 95
4, 125760, Note_on_c, 2, 40, 95
4, 126080, Note_off_c, 2, 49, 0
4, 126080, Note_off_c, 2, 40, 0
4, 126400, Note_on_c, 2, 49, 95
4, 126400, Note_on_c, 2, 40, 95
4, 126720, Note_off_c, 2, 49, 0
4, 126720, Note_off_c, 2, 40, 0
4, 126720, Note_on_c, 2, 59, 95
4, 126720, Note_on_c, 2, 54, 95
4, 126720, Note_on_c, 2, 47, 95
4, 127040, Note_off_c, 2, 59, 0
4, 127040, Note_off_c, 2, 54, 0
4, 127040, Note_off_c, 2, 47, 0
4, 127040, Note_on_c, 2, 54, 95
4, 127040, Note_on_c, 2, 47, 95
4, 127360, Note_off_c, 2, 54, 0
4, 127360, Note_off_c, 2, 47, 0
4, 127360, Note_on_c, 2, 54, 95
4, 127360, Note_on_c, 2, 47, 95
4, 127680, Note_off_c, 2, 54, 0
4, 127680, Note_off_c, 2, 47, 0
4, 127680, Note_on_c, 2, 59, 95
4, 127680, Note_on_c, 2, 54, 95
4, 127680, Note_on_c, 2, 47, 95
4, 128000, Note_off_c, 2, 59, 0
4, 128000, Note_off_c, 2, 54, 0
4, 128000, Note_off_c, 2, 47, 0
4, 128000, Note_on_c, 2, 54, 95
4, 128000, Note_on_c, 2, 47, 95
4, 128320, Note_off_c, 2, 54, 0
4, 128320, Note_off_c, 2, 47, 0
4, 128320, Note_on_c, 2, 54, 95
4, 128320, Note_on_c, 2, 47, 95
4, 128640, Note_off_c, 2, 54, 0
4, 128640, Note_off_c, 2, 47, 0
4, 128640, Note_on_c, 2, 59, 95
4, 128640, Note_on_c, 2, 54, 95
4, 128640, Note_on_c, 2, 47, 95
4, 128960, Note_off_c, 2, 59, 0
4, 128960, Note_off_c, 2, 54, 0
4, 128960, Note_off_c, 2, 47, 0
4, 128960, Note_on_c, 2, 54, 95
4, 128960, Note_on_c, 2, 47, 95
4, 129280, Note_off_c, 2, 54, 0
4, 129280, Note_off_c, 2, 47, 0
4, 129280, Note_on_c, 2, 54, 95
4, 129280, Note_on_c, 2, 47, 95
4, 129600, Note_off_c, 2, 54, 0
4, 129600, Note_off_c, 2, 47, 0
4, 129600, Note_on_c, 2, 59, 95
4, 129600, Note_on_c, 2, 54, 95
4, 129600, Note_on_c, 2, 47, 95
4, 129920, Note_off_c, 2, 59, 0
4, 129920, Note_off_c, 2, 54, 0
4, 129920, Note_off_c, 2, 47, 0
4, 129920, Note_on_c, 2, 54, 95
4, 129920, Note_on_c, 2, 47, 95
4, 130240, Note_off_c, 2, 54, 0
4, 130240, Note_off_c, 2, 47, 0
4, 130240, Note_on_c, 2, 54, 95
4, 130240, Note_on_c, 2, 47, 95
4, 130560, Note_off_c, 2, 54, 0
4, 130560, Note_off_c, 2, 47, 0
4, 130560, Note_on_c, 2, 57, 95
4, 130560, Note_on_c, 2, 52, 95
4, 130560, Note_on_c, 2, 45, 95
4, 130880, Note_off_c, 2, 57, 0
4, 130880, Note_off_c, 2, 52, 0
4, 130880, Note_off_c, 2, 45, 0
4, 130880, Note_on_c, 2, 52, 95
4, 130880, Note_on_c, 2, 45, 95
4, 131200, Note_off_c, 2, 52, 0
4, 131200, Note_off_c, 2, 45, 0
4, 131200, Note_on_c, 2, 52, 95
4, 131200, Note_on_c, 2, 45, 95
4, 131520, Note_off_c, 2, 52, 0
4, 131520, Note_off_c, 2, 45, 0
4, 131520, Note_on_c, 2, 57, 95
4, 131520, Note_on_c, 2, 52, 95
4, 131520, Note_on_c, 2, 45, 95
4, 131840, Note_off_c, 2, 57, 0
4, 131840, Note_off_c, 2, 52, 0
4, 131840, Note_off_c, 2, 45, 0
4, 131840, Note_on_c, 2, 52, 95
4, 131840, Note_on_c, 2, 45, 95
4, 132160, Note_off_c, 2, 52, 0
4, 132160, Note_off_c, 2, 45, 0
4, 132160, Note_on_c, 2, 52, 95
4, 132160, Note_on_c, 2, 45, 95
4, 132480, Note_off_c, 2, 52, 0
4, 132480, Note_off_c, 2, 45, 0
4, 132480, Note_on_c, 2, 57, 95
4, 132480, Note_on_c, 2, 52, 95
4, 132480, Note_on_c, 2, 45, 95
4, 132800, Note_off_c, 2, 57, 0
4, 132800, Note_off_c, 2, 52, 0
4, 132800, Note_off_c, 2, 45, 0
4, 132800, Note_on_c, 2, 52, 95
4, 132800, Note_on_c, 2, 45, 95
4, 133120, Note_off_c, 2, 52, 0
4, 133120, Note_off_c, 2, 45, 0
4, 133120, Note_on_c, 2, 52, 95
4, 133120, Note_on_c, 2, 45, 95
4, 133440, Note_off_c, 2, 52, 0
4, 133440, Note_off_c, 2, 45, 0
4, 133440, Note_on_c, 2, 57, 95
4, 133440, Note_on_c, 2, 52, 95
4, 133440, Note_on_c, 2, 45, 95
4, 133760, Note_off_c, 2, 57, 0
4, 133760, Note_off_c, 2, 52, 0
4, 133760, Note_off_c, 2, 45, 0
4, 133760, Note_on_c, 2, 52, 95
4, 133760, Note_on_c, 2, 45, 95
4, 134080, Note_off_c, 2, 52, 0
4, 134080, Note_off_c, 2, 45, 0
4, 134080, Note_on_c, 2, 52, 95
4, 134080, Note_on_c, 2, 45, 95
4, 134400, Note_off_c, 2, 52, 0
4, 134400, Note_off_c, 2, 45, 0
4, 134400, Note_on_c, 2, 47, 95
4, 134400, Note_on_c, 2, 40, 95
4, 134720, Note_off_c, 2, 47, 0
4, 134720, Note_off_c, 2, 40, 0
4, 135040, Note_on_c, 2, 47, 95
4, 135040, Note_on_c, 2, 40, 95
4, 135360, Note_off_c, 2, 47, 0
4, 135360, Note_off_c, 2, 40, 0
4, 135360, Note_on_c, 2, 49, 95
4, 135360, Note_on_c, 2, 40, 95
4, 135680, Note_off_c, 2, 49, 0
4, 135680, Note_off_c, 2, 40, 0
4, 136000, Note_on_c, 2, 49, 95
4, 136000, Note_on_c, 2, 40, 95
4, 136320, Note_off_c, 2, 49, 0
4, 136320, Note_off_c, 2, 40, 0
4, 136320, Note_on_c, 2, 50, 95
4, 136320, Note_on_c, 2, 40, 95
4, 136640, Note_off_c, 2, 50, 0
4, 136640, Note_off_c, 2, 40, 0
4, 136960, Note_on_c, 2, 50, 95
4, 136960, Note_on_c, 2, 40, 95
4, 137280, Note_off_c, 2, 50, 0
4, 137280, Note_off_c, 2, 40, 0
4, 137280, Note_on_c, 2, 49, 95
4, 137280, Note_on_c, 2, 40, 95
4, 137600, Note_off_c, 2, 49, 0
4, 137600, Note_off_c, 2, 40, 0
4, 137920, Note_on_c, 2, 49, 95
4, 137920, Note_on_c, 2, 40, 95
4, 138240, Note_off_c, 2, 49, 0
4, 138240, Note_off_c, 2, 40, 0
4, 138240, Note_on_c, 2, 47, 95
4, 138240, Note_on_c, 2, 40, 95
4, 138560, Note_off_c, 2, 47, 0
4, 138560, Note_off_c, 2, 40, 0
4, 138560, Note_on_c, 2, 47, 95
4, 138560, Note_on_c, 2, 40, 95
4, 138880, Note_off_c, 2, 47, 0
4, 138880, Note_off_c, 2, 40, 0
4, 138880, Note_on_c, 2, 47, 95
4, 138880, Note_on_c, 2, 40, 95
4, 139200, Note_off_c, 2, 47, 0
4, 139200, Note_off_c, 2, 40, 0
4, 139200, Note_on_c, 2, 47, 95
4, 139200, Note_on_c, 2, 40, 95
4, 139520, Note_off_c, 2, 47, 0
4, 139520, Note_off_c, 2, 40, 0
4, 139520, Note_on_c, 2, 52, 95
4, 139520, Note_on_c, 2, 45, 95
4, 139840, Note_off_c, 2, 52, 0
4, 139840, Note_off_c, 2, 45, 0
4, 139840, Note_on_c, 2, 53, 95
4, 139840, Note_on_c, 2, 46, 95
4, 140160, Note_off_c, 2, 53, 0
4, 140160, Note_off_c, 2, 46, 0
4, 140160, Note_on_c, 2, 59, 95
4, 140160, Note_on_c, 2, 54, 95
4, 140160, Note_on_c, 2, 47, 95
4, 141120, Note_off_c, 2, 59, 0
4, 141120, Note_off_c, 2, 54, 0
4, 141120, Note_off_c, 2, 47, 0
4, 141440, Note_on_c, 2, 59, 95
4, 141760, Note_off_c, 2, 59, 0
4, 141760, Note_on_c, 2, 61, 95
4, 142080, Note_off_c, 2, 61, 0
4, 142080, Note_on_c, 2, 64, 95
4, 142720, Note_off_c, 2, 64, 0
4, 142720, Program_c, 0, 30
4, 142720, Note_on_c, 0, 66, 95
4, 142720, Control_c, 0, 101, 0
4, 142720, Control_c, 0, 100, 0
4, 142720, Control_c, 0, 6, 6
4, 142720, Control_c, 0, 38, 0
4, 142720, Pitch_bend_c, 0, 8192
4, 142752, Pitch_bend_c, 0, 8704
4, 142784, Pitch_bend_c, 0, 9216
4, 142816, Pitch_bend_c, 0, 9728
4, 142848, Pitch_bend_c, 0, 10240
4, 142880, Pitch_bend_c, 0, 10752
4, 142912, Pitch_bend_c, 0, 10752
4, 142944, Pitch_bend_c, 0, 10752
4, 142976, Pitch_bend_c, 0, 10752
4, 143008, Pitch_bend_c, 0, 10752
4, 143040, Note_off_c, 0, 66, 0
4, 143040, Pitch_bend_c, 0, 10752
4, 143040, Pitch_bend_c, 0, 8064
4, 143040, Control_c, 0, 101, 127
4, 143040, Control_c, 0, 10, 127
4, 145280, Note_on_c, 2, 59, 95
4, 145600, Note_off_c, 2, 59, 0
4, 145600, Note_on_c, 2, 61, 95
4, 145920, Note_off_c, 2, 61, 0
4, 145920, Program_c, 0, 30
4, 145920, Note_on_c, 0, 66, 95
4, 145920, Control_c, 0, 101, 0
4, 145920, Control_c, 0, 100, 0
4, 145920, Control_c, 0, 6, 6
4, 145920, Control_c, 0, 38, 0
4, 145920, Pitch_bend_c, 0, 8192
4, 145946, Pitch_bend_c, 0, 10752
4, 146010, Pitch_bend_c, 0, 10752
4, 146074, Pitch_bend_c, 0, 10752
4, 146080, Pitch_bend_c, 0, 10752
4, 146144, Pitch_bend_c, 0, 8704
4, 146160, Pitch_bend_c, 0, 8192
4, 146224, Pitch_bend_c, 0, 8192
4, 146240, Pitch_bend_c, 0, 8192
4, 146560, Note_off_c, 0, 66, 0
4, 146560, Pitch_bend_c, 0, 8192
4, 146560, Pitch_bend_c, 0, 8064
4, 146560, Control_c, 0, 101, 127
4, 146560, Control_c, 0, 10, 127
4, 146560, Note_on_c, 2, 64, 95
4, 146560, Control_c, 2, 101, 0
4, 146560, Control_c, 2, 100, 0
4, 146560, Control_c, 2, 6, 6
4, 146560, Control_c, 2, 38, 0
4, 146560, Pitch_bend_c, 2, 8192
4, 146620, Pitch_bend_c, 2, 8345
4, 146680, Pitch_bend_c, 2, 8499
4, 146740, Pitch_bend_c, 2, 8345
4, 146800, Pitch_bend_c, 2, 8192
4, 146860, Pitch_bend_c, 2, 8039
4, 146920, Pitch_bend_c, 2, 7885
4, 146980, Pitch_bend_c, 2, 8039
4, 147040, Pitch_bend_c, 2, 8192
4, 147100, Pitch_bend_c, 2, 8345
4, 147160, Pitch_bend_c, 2, 8499
4, 147200, Note_off_c, 2, 64, 0
4, 147200, Pitch_bend_c, 2, 8345
4, 147200, Pitch_bend_c, 2, 8064
4, 147200, Control_c, 2, 101, 127
4, 147200, Control_c, 2, 10, 127
4, 149120, Note_on_c, 2, 59, 95
4, 149440, Note_off_c, 2, 59, 0
4, 149440, Note_on_c, 2, 61, 95
4, 149760, Note_off_c, 2, 61, 0
4, 149760, Note_on_c, 2, 64, 95
4, 150400, Note_off_c, 2, 64, 0
4, 150400, Program_c, 0, 30
4, 150400, Note_on_c, 0, 66, 95
4, 150400, Control_c, 0, 101, 0
4, 150400, Control_c, 0, 100, 0
4, 150400, Control_c, 0, 6, 6
4, 150400, Control_c, 0, 38, 0
4, 150400, Pitch_bend_c, 0, 8192
4, 150432, Pitch_bend_c, 0, 8704
4, 150464, Pitch_bend_c, 0, 9216
4, 150496, Pitch_bend_c, 0, 9728
4, 150528, Pitch_bend_c, 0, 10240
4, 150560, Pitch_bend_c, 0, 10752
4, 150592, Pitch_bend_c, 0, 10752
4, 150624, Pitch_bend_c, 0, 10752
4, 150656, Pitch_bend_c, 0, 10752
4, 150688, Pitch_bend_c, 0, 10752
4, 150720, Note_off_c, 0, 66, 0
4, 150720, Pitch_bend_c, 0, 10752
4, 150720, Pitch_bend_c, 0, 8064
4, 150720, Control_c, 0, 101, 127
4, 150720, Control_c, 0, 10, 127
4, 151840, Program_c, 0, 30
4, 151840, Note_on_c, 0, 66, 95
4, 151840, Control_c, 0, 101, 0
4, 151840, Control_c, 0, 100, 0
4, 151840, Control_c, 0, 6, 6
4, 151840, Control_c, 0, 38, 0
4, 151840, Pitch_bend_c, 0, 8192
4, 151952, Pitch_bend_c, 0, 9386
4, 152064, Pitch_bend_c, 0, 10581
4, 152080, Pitch_bend_c, 0, 10752
4, 152192, Pitch_bend_c, 0, 10752
4, 152304, Pitch_bend_c, 0, 10752
4, 152320, Pitch_bend_c, 0, 10752
4, 152960, Note_off_c, 0, 66, 0
4, 152960, Pitch_bend_c, 0, 10752
4, 152960, Pitch_bend_c, 0, 8064
4, 152960, Control_c, 0, 101, 127
4, 152960, Control_c, 0, 10, 127
4, 152960, Note_on_c, 2, 71, 95
4, 153280, Note_off_c, 2, 71, 0
4, 153280, Program_c, 0, 30
4, 153280, Note_on_c, 0, 66, 95
4, 153280, Control_c, 0, 101, 0
4, 153280, Control_c, 0, 100, 0
4, 153280, Control_c, 0, 6, 6
4, 153280, Control_c, 0, 38, 0
4, 153280, Pitch_bend_c, 0, 10752
4, 153312, Pitch_bend_c, 0, 10752
4, 153344, Pitch_bend_c, 0, 10752
4, 153376, Pitch_bend_c, 0, 10752
4, 153408, Pitch_bend_c, 0, 10752
4, 153440, Pitch_bend_c, 0, 10752
4, 153472, Pitch_bend_c, 0, 10752
4, 153504, Pitch_bend_c, 0, 10752
4, 153536, Pitch_bend_c, 0, 10752
4, 153568, Pitch_bend_c, 0, 10752
4, 153600, Note_off_c, 0, 66, 0
4, 153600, Pitch_bend_c, 0, 10752
4, 153600, Pitch_bend_c, 0, 8064
4, 153600, Control_c, 0, 101, 127
4, 153600, Control_c, 0, 10, 127
4, 153600, Program_c, 0, 30
4, 153600, Note_on_c, 0, 66, 95
4, 153600, Control_c, 0, 101, 0
4, 153600, Control_c, 0, 100, 0
4, 153600, Control_c, 0, 6, 6
4, 153600, Control_c, 0, 38, 0
4, 153600, Pitch_bend_c, 0, 10752
4, 153664, Pitch_bend_c, 0, 10752
4, 153706, Pitch_bend_c, 0, 10752
4, 153770, Pitch_bend_c, 0, 9220
4, 153813, Pitch_bend_c, 0, 8192
4, 153877, Pitch_bend_c, 0, 8192
4, 153920, Pitch_bend_c, 0, 8192
4, 154240, Note_off_c, 0, 66, 0
4, 154240, Pitch_bend_c, 0, 8192
4, 154240, Pitch_bend_c, 0, 8064
4, 154240, Control_c, 0, 101, 127
4, 154240, Control_c, 0, 10, 127
4, 154240, Note_on_c, 2, 64, 95
4, 154240, Control_c, 2, 101, 0
4, 154240, Control_c, 2, 100, 0
4, 154240, Control_c, 2, 6, 6
4, 154240, Control_c, 2, 38, 0
4, 154240, Pitch_bend_c, 2, 8192
4, 154272, Pitch_bend_c, 2, 8345
4, 154304, Pitch_bend_c, 2, 8499
4, 154336, Pitch_bend_c, 2, 8345
4, 154368, Pitch_bend_c, 2, 8192
4, 154400, Pitch_bend_c, 2, 8039
4, 154432, Pitch_bend_c, 2, 7885
4, 154464, Pitch_bend_c, 2, 8039
4, 154496, Pitch_bend_c, 2, 8192
4, 154528, Pitch_bend_c, 2, 8345
4, 154560, Note_off_c, 2, 64, 0
4, 154560, Pitch_bend_c, 2, 8499
4, 154560, Pitch_bend_c, 2, 8064
4, 154560, Control_c, 2, 101, 127
4, 154560, Control_c, 2, 10, 127
4, 154560, Note_on_c, 2, 64, 50
4, 155520, Note_off_c, 2, 64, 0
4, 156160, Program_c, 0, 30
4, 156160, Note_on_c, 0, 69, 95
4, 156160, Control_c, 0, 101, 0
4, 156160, Control_c, 0, 100, 0
4, 156160, Control_c, 0, 6, 6
4, 156160, Control_c, 0, 38, 0
4, 156160, Pitch_bend_c, 0, 8192
4, 156224, Pitch_bend_c, 0, 9216
4, 156288, Pitch_bend_c, 0, 10240
4, 156320, Pitch_bend_c, 0, 10752
4, 156384, Pitch_bend_c, 0, 10752
4, 156448, Pitch_bend_c, 0, 10752
4, 156480, Pitch_bend_c, 0, 10752
4, 156800, Note_off_c, 0, 69, 0
4, 156800, Pitch_bend_c, 0, 10752
4, 156800, Pitch_bend_c, 0, 8064
4, 156800, Control_c, 0, 101, 127
4, 156800, Control_c, 0, 10, 127
4, 156800, Note_on_c, 2, 71, 95
4, 157120, Note_off_c, 2, 71, 0
4, 157120, Note_on_c, 2, 74, 95
4, 157440, Note_off_c, 2, 74, 0
4, 157440, Program_c, 0, 30
4, 157440, Note_on_c, 0, 69, 95
4, 157440, Control_c, 0, 101, 0
4, 157440, Control_c, 0, 100, 0
4, 157440, Control_c, 0, 6, 6
4, 157440, Control_c, 0, 38, 0
4, 157440, Pitch_bend_c, 0, 8192
4, 157472, Pitch_bend_c, 0, 10240
4, 157480, Pitch_bend_c, 0, 10752
4, 157512, Pitch_bend_c, 0, 10752
4, 157520, Pitch_bend_c, 0, 10752
4, 157552, Pitch_bend_c, 0, 8704
4, 157560, Pitch_bend_c, 0, 8192
4, 157592, Pitch_bend_c, 0, 8192
4, 157600, Pitch_bend_c, 0, 8192
4, 157760, Note_off_c, 0, 69, 0
4, 157760, Pitch_bend_c, 0, 8192
4, 157760, Pitch_bend_c, 0, 8064
4, 157760, Control_c, 0, 101, 127
4, 157760, Control_c, 0, 10, 127
4, 157760, Note_on_c, 2, 67, 95
4, 157920, Note_off_c, 2, 67, 0
4, 157920, Note_on_c, 2, 69, 95
4, 158080, Note_off_c, 2, 69, 0
4, 158080, Program_c, 0, 30
4, 158080, Note_on_c, 0, 69, 95
4, 158080, Control_c, 0, 101, 0
4, 158080, Control_c, 0, 100, 0
4, 158080, Control_c, 0, 6, 6
4, 158080, Control_c, 0, 38, 0
4, 158080, Pitch_bend_c, 0, 8192
4, 158112, Pitch_bend_c, 0, 10240
4, 158120, Pitch_bend_c, 0, 10752
4, 158152, Pitch_bend_c, 0, 10752
4, 158160, Pitch_bend_c, 0, 10752
4, 158192, Pitch_bend_c, 0, 8704
4, 158200, Pitch_bend_c, 0, 8192
4, 158232, Pitch_bend_c, 0, 8192
4, 158240, Pitch_bend_c, 0, 8192
4, 158400, Note_off_c, 0, 69, 0
4, 158400, Pitch_bend_c, 0, 8192
4, 158400, Pitch_bend_c, 0, 8064
4, 158400, Control_c, 0, 101, 127
4, 158400, Control_c, 0, 10, 127
4, 158400, Note_on_c, 2, 67, 95
4, 158520, Note_off_c, 2, 67, 0
4, 158520, Note_on_c, 2, 64, 95
4, 158640, Note_off_c, 2, 64, 0
4, 158640, Note_on_c, 2, 69, 95
4, 158760, Note_off_c, 2, 69, 0
4, 158760, Note_on_c, 2, 64, 95
4, 158880, Note_off_c, 2, 64, 0
4, 158880, Note_on_c, 2, 67, 95
4, 159360, Note_off_c, 2, 67, 0
4, 159360, Note_on_c, 2, 67, 50
4, 160320, Note_off_c, 2, 67, 0
4, 161280, Program_c, 0, 30
4, 161280, Note_on_c, 0, 57, 95
4, 161280, Control_c, 0, 101, 0
4, 161280, Control_c, 0, 100, 0
4, 161280, Control_c, 0, 6, 6
4, 161280, Control_c, 0, 38, 0
4, 161280, Pitch_bend_c, 0, 8192
4, 161400, Pitch_bend_c, 0, 9472
4, 161520, Pitch_bend_c, 0, 10752
4, 161640, Pitch_bend_c, 0, 10752
4, 161760, Pitch_bend_c, 0, 10752
4, 161880, Pitch_bend_c, 0, 10752
4, 162000, Pitch_bend_c, 0, 10752
4, 162120, Pitch_bend_c, 0, 10752
4, 162240, Pitch_bend_c, 0, 10752
4, 162480, Note_off_c, 0, 57, 0
4, 162480, Pitch_bend_c, 0, 10752
4, 162480, Pitch_bend_c, 0, 8064
4, 162480, Control_c, 0, 101, 127
4, 162480, Control_c, 0, 10, 127
4, 162480, Program_c, 0, 30
4, 162480, Note_on_c, 0, 57, 95
4, 162480, Control_c, 0, 101, 0
4, 162480, Control_c, 0, 100, 0
4, 162480, Control_c, 0, 6, 6
4, 162480, Control_c, 0, 38, 0
4, 162480, Pitch_bend_c, 0, 8192
4, 162504, Pitch_bend_c, 0, 8704
4, 162528, Pitch_bend_c, 0, 9216
4, 162552, Pitch_bend_c, 0, 9728
4, 162576, Pitch_bend_c, 0, 10240
4, 162600, Pitch_bend_c, 0, 10752
4, 162624, Pitch_bend_c, 0, 10752
4, 162648, Pitch_bend_c, 0, 10752
4, 162672, Pitch_bend_c, 0, 10752
4, 162696, Pitch_bend_c, 0, 10752
4, 162720, Note_off_c, 0, 57, 0
4, 162720, Pitch_bend_c, 0, 10752
4, 162720, Pitch_bend_c, 0, 8064
4, 162720, Control_c, 0, 101, 127
4, 162720, Control_c, 0, 10, 127
4, 162720, Program_c, 0, 30
4, 162720, Note_on_c, 0, 57, 95
4, 162720, Control_c, 0, 101, 0
4, 162720, Control_c, 0, 100, 0
4, 162720, Control_c, 0, 6, 6
4, 162720, Control_c, 0, 38, 0
4, 162720, Pitch_bend_c, 0, 8192
4, 162744, Pitch_bend_c, 0, 8704
4, 162768, Pitch_bend_c, 0, 9216
4, 162792, Pitch_bend_c, 0, 9728
4, 162816, Pitch_bend_c, 0, 10240
4, 162840, Pitch_bend_c, 0, 10752
4, 162864, Pitch_bend_c, 0, 10752
4, 162888, Pitch_bend_c, 0, 10752
4, 162912, Pitch_bend_c, 0, 10752
4, 162936, Pitch_bend_c, 0, 10752
4, 162960, Note_off_c, 0, 57, 0
4, 162960, Pitch_bend_c, 0, 10752
4, 162960, Pitch_bend_c, 0, 8064
4, 162960, Control_c, 0, 101, 127
4, 162960, Control_c, 0, 10, 127
4, 162960, Program_c, 0, 30
4, 162960, Note_on_c, 0, 57, 95
4, 162960, Control_c, 0, 101, 0
4, 162960, Control_c, 0, 100, 0
4, 162960, Control_c, 0, 6, 6
4, 162960, Control_c, 0, 38, 0
4, 162960, Pitch_bend_c, 0, 8192
4, 162984, Pitch_bend_c, 0, 8704
4, 163008, Pitch_bend_c, 0, 9216
4, 163032, Pitch_bend_c, 0, 9728
4, 163056, Pitch_bend_c, 0, 10240
4, 163080, Pitch_bend_c, 0, 10752
4, 163104, Pitch_bend_c, 0, 10752
4, 163128, Pitch_bend_c, 0, 10752
4, 163152, Pitch_bend_c, 0, 10752
4, 163176, Pitch_bend_c, 0, 10752
4, 163200, Note_off_c, 0, 57, 0
4, 163200, Pitch_bend_c, 0, 10752
4, 163200, Pitch_bend_c, 0, 8064
4, 163200, Control_c, 0, 101, 127
4, 163200, Control_c, 0, 10, 127
4, 163200, Program_c, 0, 30
4, 163200, Note_on_c, 0, 57, 95
4, 163200, Control_c, 0, 101, 0
4, 163200, Control_c, 0, 100, 0
4, 163200, Control_c, 0, 6, 6
4, 163200, Control_c, 0, 38, 0
4, 163200, Pitch_bend_c, 0, 8192
4, 163272, Pitch_bend_c, 0, 9728
4, 163320, Pitch_bend_c, 0, 10752
4, 163392, Pitch_bend_c, 0, 10752
4, 163440, Pitch_bend_c, 0, 10752
4, 163512, Pitch_bend_c, 0, 9215
4, 163560, Pitch_bend_c, 0, 8192
4, 163632, Pitch_bend_c, 0, 8192
4, 163680, Pitch_bend_c, 0, 8192
4, 163920, Note_off_c, 0, 57, 0
4, 163920, Pitch_bend_c, 0, 8192
4, 163920, Pitch_bend_c, 0, 8064
4, 163920, Control_c, 0, 101, 127
4, 163920, Control_c, 0, 10, 127
4, 163920, Note_on_c, 2, 55, 95
4, 164160, Note_off_c, 2, 55, 0
4, 164160, Note_on_c, 2, 62, 95
4, 164280, Note_off_c, 2, 62, 0
4, 164280, Note_on_c, 2, 59, 95
4, 164400, Note_off_c, 2, 59, 0
4, 164400, Note_on_c, 2, 57, 95
4, 164520, Note_off_c, 2, 57, 0
4, 164520, Note_on_c, 2, 55, 95
4, 164640, Note_off_c, 2, 55, 0
4, 164640, Note_on_c, 2, 52, 95
4, 164760, Note_off_c, 2, 52, 0
4, 164760, Note_on_c, 2, 50, 95
4, 164880, Note_off_c, 2, 50, 0
4, 164880, Note_on_c, 2, 55, 95
4, 165000, Note_off_c, 2, 55, 0
4, 165000, Note_on_c, 2, 50, 95
4, 165120, Note_off_c, 2, 50, 0
4, 165120, Note_on_c, 2, 52, 95
4, 165240, Note_off_c, 2, 52, 0
4, 165240, Note_on_c, 2, 0, 95
4, 165360, Note_off_c, 2, 0, 0
4, 165360, Note_on_c, 2, 52, 95
4, 165480, Note_off_c, 2, 52, 0
4, 165480, Note_on_c, 2, 0, 95
4, 165600, Note_off_c, 2, 0, 0
4, 165600, Note_on_c, 2, 52, 95
4, 165720, Note_off_c, 2, 52, 0
4, 165720, Note_on_c, 2, 0, 95
4, 165840, Note_off_c, 2, 0, 0
4, 165840, Note_on_c, 2, 52, 95
4, 165960, Note_off_c, 2, 52, 0
4, 165960, Note_on_c, 2, 0, 95
4, 166080, Note_off_c, 2, 0, 0
4, 166080, Note_on_c, 2, 52, 95
4, 166200, Note_off_c, 2, 52, 0
4, 166200, Note_on_c, 2, 0, 95
4, 166320, Note_off_c, 2, 0, 0
4, 166320, Note_on_c, 2, 52, 95
4, 166440, Note_off_c, 2, 52, 0
4, 166440, Note_on_c, 2, 0, 95
4, 166560, Note_off_c, 2, 0, 0
4, 166560, Note_on_c, 2, 52, 95
4, 166680, Note_off_c, 2, 52, 0
4, 166680, Note_on_c, 2, 0, 95
4, 166800, Note_off_c, 2, 0, 0
4, 166800, Note_on_c, 2, 52, 95
4, 166920, Note_off_c, 2, 52, 0
4, 166920, Note_on_c, 2, 0, 95
4, 167040, Note_off_c, 2, 0, 0
4, 167040, Note_on_c, 2, 50, 95
4, 167520, Note_off_c, 2, 50, 0
4, 168240, Program_c, 0, 30
4, 168240, Note_on_c, 0, 69, 95
4, 168240, Control_c, 0, 101, 0
4, 168240, Control_c, 0, 100, 0
4, 168240, Control_c, 0, 6, 6
4, 168240, Control_c, 0, 38, 0
4, 168240, Pitch_bend_c, 0, 8192
4, 168312, Pitch_bend_c, 0, 8704
4, 168384, Pitch_bend_c, 0, 9216
4, 168456, Pitch_bend_c, 0, 9728
4, 168528, Pitch_bend_c, 0, 10240
4, 168600, Pitch_bend_c, 0, 10752
4, 168672, Pitch_bend_c, 0, 10752
4, 168744, Pitch_bend_c, 0, 10752
4, 168816, Pitch_bend_c, 0, 10752
4, 168888, Pitch_bend_c, 0, 10752
4, 168960, Note_off_c, 0, 69, 0
4, 168960, Pitch_bend_c, 0, 10752
4, 168960, Pitch_bend_c, 0, 8064
4, 168960, Control_c, 0, 101, 127
4, 168960, Control_c, 0, 10, 127
4, 168960, Note_on_c, 2, 67, 95
4, 169200, Note_off_c, 2, 67, 0
4, 169200, Note_on_c, 2, 64, 95
4, 169200, Control_c, 2, 101, 0
4, 169200, Control_c, 2, 100, 0
4, 169200, Control_c, 2, 6, 6
4, 169200, Control_c, 2, 38, 0
4, 169200, Pitch_bend_c, 2, 8192
4, 169260, Pitch_bend_c, 2, 8345
4, 169320, Pitch_bend_c, 2, 8499
4, 169380, Pitch_bend_c, 2, 8345
4, 169440, Pitch_bend_c, 2, 8192
4, 169500, Pitch_bend_c, 2, 8039
4, 169560, Pitch_bend_c, 2, 7885
4, 169620, Pitch_bend_c, 2, 8039
4, 169680, Pitch_bend_c, 2, 8192
4, 169740, Pitch_bend_c, 2, 8345
4, 169800, Pitch_bend_c, 2, 8499
4, 169860, Pitch_bend_c, 2, 8345
4, 169920, Note_off_c, 2, 64, 0
4, 169920, Pitch_bend_c, 2, 8192
4, 169920, Pitch_bend_c, 2, 8064
4, 169920, Control_c, 2, 101, 127
4, 169920, Control_c, 2, 10, 127
4, 172160, Note_on_c, 2, 71, 95
4, 172320, Note_off_c, 2, 71, 0
4, 172320, Note_on_c, 2, 74, 95
4, 172480, Note_off_c, 2, 74, 0
4, 172480, Note_on_c, 2, 76, 95
4, 172640, Note_off_c, 2, 76, 0
4, 172640, Note_on_c, 2, 71, 95
4, 172800, Note_off_c, 2, 71, 0
4, 172800, Program_c, 0, 30
4, 172800, Note_on_c, 0, 74, 95
4, 172800, Control_c, 0, 101, 0
4, 172800, Control_c, 0, 100, 0
4, 172800, Control_c, 0, 6, 6
4, 172800, Control_c, 0, 38, 0
4, 172800, Pitch_bend_c, 0, 8192
4, 172864, Pitch_bend_c, 0, 9216
4, 172928, Pitch_bend_c, 0, 10240
4, 172960, Pitch_bend_c, 0, 10752
4, 173024, Pitch_bend_c, 0, 10752
4, 173088, Pitch_bend_c, 0, 10752
4, 173120, Pitch_bend_c, 0, 10752
4, 173440, Note_off_c, 0, 74, 0
4, 173440, Pitch_bend_c, 0, 10752
4, 173440, Pitch_bend_c, 0, 8064
4, 173440, Control_c, 0, 101, 127
4, 173440, Control_c, 0, 10, 127
4, 173440, Program_c, 0, 30
4, 173440, Note_on_c, 0, 74, 95
4, 173440, Control_c, 0, 101, 0
4, 173440, Control_c, 0, 100, 0
4, 173440, Control_c, 0, 6, 6
4, 173440, Control_c, 0, 38, 0
4, 173440, Pitch_bend_c, 0, 8192
4, 173520, Pitch_bend_c, 0, 9472
4, 173600, Pitch_bend_c, 0, 10752
4, 173680, Pitch_bend_c, 0, 10752
4, 173760, Pitch_bend_c, 0, 10752
4, 174240, Note_off_c, 0, 74, 0
4, 174240, Pitch_bend_c, 0, 10752
4, 174240, Pitch_bend_c, 0, 8064
4, 174240, Control_c, 0, 101, 127
4, 174240, Control_c, 0, 10, 127
4, 174240, Program_c, 0, 30
4, 174240, Note_on_c, 0, 74, 95
4, 174240, Control_c, 0, 101, 0
4, 174240, Control_c, 0, 100, 0
4, 174240, Control_c, 0, 6, 6
4, 174240, Control_c, 0, 38, 0
4, 174240, Pitch_bend_c, 0, 10752
4, 174272, Pitch_bend_c, 0, 10752
4, 174293, Pitch_bend_c, 0, 10752
4, 174325, Pitch_bend_c, 0, 9206
4, 174346, Pitch_bend_c, 0, 8192
4, 174378, Pitch_bend_c, 0, 8192
4, 174400, Pitch_bend_c, 0, 8192
4, 174560, Note_off_c, 0, 74, 0
4, 174560, Pitch_bend_c, 0, 8192
4, 174560, Pitch_bend_c, 0, 8064
4, 174560, Control_c, 0, 101, 127
4, 174560, Control_c, 0, 10, 127
4, 174560, Note_on_c, 2, 71, 95
4, 174720, Note_off_c, 2, 71, 0
4, 174720, Program_c, 0, 30
4, 174720, Note_on_c, 0, 73, 95
4, 174720, Control_c, 0, 101, 0
4, 174720, Control_c, 0, 100, 0
4, 174720, Control_c, 0, 6, 6
4, 174720, Control_c, 0, 38, 0
4, 174720, Pitch_bend_c, 0, 8192
4, 174848, Pitch_bend_c, 0, 8533
4, 174976, Pitch_bend_c, 0, 8874
4, 175104, Pitch_bend_c, 0, 9216
4, 175200, Pitch_bend_c, 0, 9472
4, 175328, Pitch_bend_c, 0, 9472
4, 175456, Pitch_bend_c, 0, 9472
4, 175584, Pitch_bend_c, 0, 9472
4, 175680, Pitch_bend_c, 0, 9472
4, 176000, Note_off_c, 0, 73, 0
4, 176000, Pitch_bend_c, 0, 9472
4, 176000, Pitch_bend_c, 0, 8064
4, 176000, Control_c, 0, 101, 127
4, 176000, Control_c, 0, 10, 127
4, 176000, Program_c, 0, 30
4, 176000, Note_on_c, 0, 73, 95
4, 176000, Control_c, 0, 101, 0
4, 176000, Control_c, 0, 100, 0
4, 176000, Control_c, 0, 6, 6
4, 176000, Control_c, 0, 38, 0
4, 176000, Pitch_bend_c, 0, 9472
4, 176032, Pitch_bend_c, 0, 9472
4, 176064, Pitch_bend_c, 0, 9472
4, 176096, Pitch_bend_c, 0, 9472
4, 176106, Pitch_bend_c, 0, 9472
4, 176138, Pitch_bend_c, 0, 9089
4, 176170, Pitch_bend_c, 0, 8706
4, 176202, Pitch_bend_c, 0, 8323
4, 176213, Pitch_bend_c, 0, 8192
4, 176245, Pitch_bend_c, 0, 8192
4, 176277, Pitch_bend_c, 0, 8192
4, 176309, Pitch_bend_c, 0, 8192
4, 176320, Note_off_c, 0, 73, 0
4, 176320, Pitch_bend_c, 0, 8192
4, 176320, Pitch_bend_c, 0, 8064
4, 176320, Control_c, 0, 101, 127
4, 176320, Control_c, 0, 10, 127
4, 176320, Note_on_c, 2, 71, 95
4, 176640, Note_off_c, 2, 71, 0
4, 176640, Program_c, 0, 30
4, 176640, Note_on_c, 0, 79, 95
4, 176640, Control_c, 0, 101, 0
4, 176640, Control_c, 0, 100, 0
4, 176640, Control_c, 0, 6, 6
4, 176640, Control_c, 0, 38, 0
4, 176640, Pitch_bend_c, 0, 8192
4, 176704, Pitch_bend_c, 0, 9216
4, 176768, Pitch_bend_c, 0, 10240
4, 176800, Pitch_bend_c, 0, 10752
4, 176864, Pitch_bend_c, 0, 10752
4, 176928, Pitch_bend_c, 0, 10752
4, 176960, Pitch_bend_c, 0, 10752
4, 177280, Note_off_c, 0, 79, 0
4, 177280, Pitch_bend_c, 0, 10752
4, 177280, Pitch_bend_c, 0, 8064
4, 177280, Control_c, 0, 101, 127
4, 177280, Control_c, 0, 10, 127
4, 177280, Program_c, 0, 30
4, 177280, Note_on_c, 0, 79, 95
4, 177280, Control_c, 0, 101, 0
4, 177280, Control_c, 0, 100, 0
4, 177280, Control_c, 0, 6, 6
4, 177280, Control_c, 0, 38, 0
4, 177280, Pitch_bend_c, 0, 8192
4, 177312, Pitch_bend_c, 0, 8704
4, 177344, Pitch_bend_c, 0, 9216
4, 177376, Pitch_bend_c, 0, 9728
4, 177408, Pitch_bend_c, 0, 10240
4, 177440, Pitch_bend_c, 0, 10752
4, 177472, Pitch_bend_c, 0, 10752
4, 177504, Pitch_bend_c, 0, 10752
4, 177536, Pitch_bend_c, 0, 10752
4, 177568, Pitch_bend_c, 0, 10752
4, 177600, Note_off_c, 0, 79, 0
4, 177600, Pitch_bend_c, 0, 10752
4, 177600, Pitch_bend_c, 0, 8064
4, 177600, Control_c, 0, 101, 127
4, 177600, Control_c, 0, 10, 127
4, 177600, Note_on_c, 2, 79, 95
4, 177760, Note_off_c, 2, 79, 0
4, 177760, Note_on_c, 2, 76, 95
4, 177920, Note_off_c, 2, 76, 0
4, 177920, Note_on_c, 2, 78, 95
4, 178080, Note_off_c, 2, 78, 0
4, 178080, Program_c, 0, 30
4, 178080, Note_on_c, 0, 79, 95
4, 178080, Control_c, 0, 101, 0
4, 178080, Control_c, 0, 100, 0
4, 178080, Control_c, 0, 6, 6
4, 178080, Control_c, 0, 38, 0
4, 178080, Pitch_bend_c, 0, 8192
4, 178144, Pitch_bend_c, 0, 9557
4, 178200, Pitch_bend_c, 0, 10752
4, 178264, Pitch_bend_c, 0, 10752
4, 178320, Pitch_bend_c, 0, 10752
4, 178384, Pitch_bend_c, 0, 9386
4, 178440, Pitch_bend_c, 0, 8192
4, 178504, Pitch_bend_c, 0, 8192
4, 178560, Pitch_bend_c, 0, 8192
4, 178720, Note_off_c, 0, 79, 0
4, 178720, Pitch_bend_c, 0, 8192
4, 178720, Pitch_bend_c, 0, 8064
4, 178720, Control_c, 0, 101, 127
4, 178720, Control_c, 0, 10, 127
4, 178720, Note_on_c, 2, 79, 95
4, 178880, Note_off_c, 2, 79, 0
4, 178880, Note_on_c, 2, 78, 95
4, 179040, Note_off_c, 2, 78, 0
4, 179040, Note_on_c, 2, 76, 95
4, 179280, Note_off_c, 2, 76, 0
4, 179280, Note_on_c, 2, 74, 95
4, 179520, Note_off_c, 2, 74, 0
4, 179520, Note_on_c, 2, 76, 95
4, 179680, Note_off_c, 2, 76, 0
4, 179680, Note_on_c, 2, 74, 95
4, 179840, Note_off_c, 2, 74, 0
4, 179840, Note_on_c, 2, 71, 95
4, 180000, Note_off_c, 2, 71, 0
4, 180000, Note_on_c, 2, 69, 95
4, 180160, Note_off_c, 2, 69, 0
4, 180160, Note_on_c, 2, 71, 95
4, 180320, Note_off_c, 2, 71, 0
4, 180320, Note_on_c, 2, 69, 95
4, 180480, Note_off_c, 2, 69, 0
4, 180480, Program_c, 0, 30
4, 180480, Note_on_c, 0, 69, 95
4, 180480, Control_c, 0, 101, 0
4, 180480, Control_c, 0, 100, 0
4, 180480, Control_c, 0, 6, 6
4, 180480, Control_c, 0, 38, 0
4, 180480, Pitch_bend_c, 0, 8192
4, 180544, Pitch_bend_c, 0, 9216
4, 180608, Pitch_bend_c, 0, 10240
4, 180640, Pitch_bend_c, 0, 10752
4, 180704, Pitch_bend_c, 0, 10752
4, 180768, Pitch_bend_c, 0, 10752
4, 180800, Pitch_bend_c, 0, 10752
4, 181120, Note_off_c, 0, 69, 0
4, 181120, Pitch_bend_c, 0, 10752
4, 181120, Pitch_bend_c, 0, 8064
4, 181120, Control_c, 0, 101, 127
4, 181120, Control_c, 0, 10, 127
4, 181120, Note_on_c, 2, 71, 95
4, 181440, Note_off_c, 2, 71, 0
4, 181440, Note_on_c, 2, 70, 95
4, 181560, Note_off_c, 2, 70, 0
4, 181560, Note_on_c, 2, 67, 95
4, 181680, Note_off_c, 2, 67, 0
4, 181680, Note_on_c, 2, 69, 95
4, 181800, Note_off_c, 2, 69, 0
4, 181800, Note_on_c, 2, 67, 95
4, 181920, Note_off_c, 2, 67, 0
4, 181920, Note_on_c, 2, 64, 95
4, 182040, Note_off_c, 2, 64, 0
4, 182040, Program_c, 0, 30
4, 182040, Note_on_c, 0, 69, 95
4, 182040, Control_c, 0, 101, 0
4, 182040, Control_c, 0, 100, 0
4, 182040, Control_c, 0, 6, 6
4, 182040, Control_c, 0, 38, 0
4, 182040, Pitch_bend_c, 0, 8192
4, 182064, Pitch_bend_c, 0, 8704
4, 182088, Pitch_bend_c, 0, 9216
4, 182112, Pitch_bend_c, 0, 9728
4, 182136, Pitch_bend_c, 0, 10240
4, 182160, Pitch_bend_c, 0, 10752
4, 182184, Pitch_bend_c, 0, 10752
4, 182208, Pitch_bend_c, 0, 10752
4, 182232, Pitch_bend_c, 0, 10752
4, 182256, Pitch_bend_c, 0, 10752
4, 182280, Note_off_c, 0, 69, 0
4, 182280, Pitch_bend_c, 0, 10752
4, 182280, Pitch_bend_c, 0, 8064
4, 182280, Control_c, 0, 101, 127
4, 182280, Control_c, 0, 10, 127
4, 182280, Note_on_c, 2, 71, 95
4, 182400, Note_off_c, 2, 71, 0
4, 182400, Note_on_c, 2, 76, 95
4, 182520, Note_off_c, 2, 76, 0
4, 182520, Note_on_c, 2, 74, 95
4, 182640, Note_off_c, 2, 74, 0
4, 182640, Note_on_c, 2, 71, 95
4, 182760, Note_off_c, 2, 71, 0
4, 182760, Note_on_c, 2, 70, 95
4, 182880, Note_off_c, 2, 70, 0
4, 182880, Note_on_c, 2, 69, 95
4, 183000, Note_off_c, 2, 69, 0
4, 183000, Note_on_c, 2, 67, 95
4, 183120, Note_off_c, 2, 67, 0
4, 183120, Note_on_c, 2, 64, 95
4, 183240, Note_off_c, 2, 64, 0
4, 183240, Note_on_c, 2, 69, 95
4, 183360, Note_off_c, 2, 69, 0
4, 183360, Note_on_c, 2, 64, 95
4, 183480, Note_off_c, 2, 64, 0
4, 183480, Note_on_c, 2, 67, 95
4, 183480, Control_c, 2, 101, 0
4, 183480, Control_c, 2, 100, 0
4, 183480, Control_c, 2, 6, 6
4, 183480, Control_c, 2, 38, 0
4, 183480, Pitch_bend_c, 2, 8192
4, 183540, Pitch_bend_c, 2, 8345
4, 183600, Pitch_bend_c, 2, 8499
4, 183660, Pitch_bend_c, 2, 8345
4, 183720, Pitch_bend_c, 2, 8192
4, 183780, Pitch_bend_c, 2, 8039
4, 183840, Pitch_bend_c, 2, 7885
4, 183900, Pitch_bend_c, 2, 8039
4, 183960, Pitch_bend_c, 2, 8192
4, 184020, Pitch_bend_c, 2, 8345
4, 184080, Pitch_bend_c, 2, 8499
4, 184140, Pitch_bend_c, 2, 8345
4, 184200, Pitch_bend_c, 2, 8192
4, 184260, Pitch_bend_c, 2, 8039
4, 184320, Note_off_c, 2, 67, 0
4, 184320, Pitch_bend_c, 2, 7885
4, 184320, Pitch_bend_c, 2, 8064
4, 184320, Control_c, 2, 101, 127
4, 184320, Control_c, 2, 10, 127
4, 184320, Note_on_c, 2, 64, 95
4, 185280, Note_off_c, 2, 64, 0
4, 185280, Note_on_c, 2, 74, 95
4, 185280, Program_c, 0, 30
4, 185280, Note_on_c, 0, 69, 95
4, 185280, Control_c, 0, 101, 0
4, 185280, Control_c, 0, 100, 0
4, 185280, Control_c, 0, 6, 6
4, 185280, Control_c, 0, 38, 0
4, 185280, Pitch_bend_c, 0, 8192
4, 185376, Pitch_bend_c, 0, 8704
4, 185472, Pitch_bend_c, 0, 9216
4, 185568, Pitch_bend_c, 0, 9728
4, 185664, Pitch_bend_c, 0, 10240
4, 185760, Pitch_bend_c, 0, 10752
4, 185856, Pitch_bend_c, 0, 10752
4, 185952, Pitch_bend_c, 0, 10752
4, 186048, Pitch_bend_c, 0, 10752
4, 186144, Pitch_bend_c, 0, 10752
4, 186240, Note_off_c, 2, 74, 0
4, 186240, Note_off_c, 0, 69, 0
4, 186240, Pitch_bend_c, 0, 10752
4, 186240, Pitch_bend_c, 0, 8064
4, 186240, Control_c, 0, 101, 127
4, 186240, Control_c, 0, 10, 127
4, 186240, Note_on_c, 2, 74, 95
4, 186240, Program_c, 0, 30
4, 186240, Note_on_c, 0, 69, 95
4, 186240, Control_c, 0, 101, 0
4, 186240, Control_c, 0, 100, 0
4, 186240, Control_c, 0, 6, 6
4, 186240, Control_c, 0, 38, 0
4, 186240, Pitch_bend_c, 0, 8192
4, 186384, Pitch_bend_c, 0, 8704
4, 186528, Pitch_bend_c, 0, 9216
4, 186672, Pitch_bend_c, 0, 9728
4, 186816, Pitch_bend_c, 0, 10240
4, 186960, Pitch_bend_c, 0, 10752
4, 187104, Pitch_bend_c, 0, 10752
4, 187248, Pitch_bend_c, 0, 10752
4, 187392, Pitch_bend_c, 0, 10752
4, 187536, Pitch_bend_c, 0, 10752
4, 187680, Note_off_c, 2, 74, 0
4, 187680, Note_off_c, 0, 69, 0
4, 187680, Pitch_bend_c, 0, 10752
4, 187680, Pitch_bend_c, 0, 8064
4, 187680, Control_c, 0, 101, 127
4, 187680, Control_c, 0, 10, 127
4, 188160, Note_on_c, 2, 47, 95
4, 188160, Note_on_c, 2, 40, 95
4, 188480, Note_off_c, 2, 47, 0
4, 188480, Note_off_c, 2, 40, 0
4, 188800, Note_on_c, 2, 47, 95
4, 188800, Note_on_c, 2, 40, 95
4, 189120, Note_off_c, 2, 47, 0
4, 189120, Note_off_c, 2, 40, 0
4, 189120, Note_on_c, 2, 49, 95
4, 189120, Note_on_c, 2, 40, 95
4, 189440, Note_off_c, 2, 49, 0
4, 189440, Note_off_c, 2, 40, 0
4, 189760, Note_on_c, 2, 50, 95
4, 189760, Note_on_c, 2, 40, 95
4, 192000, Note_off_c, 2, 50, 0
4, 192000, Note_off_c, 2, 40, 0
4, 192000, Note_on_c, 2, 47, 95
4, 192000, Note_on_c, 2, 40, 95
4, 192320, Note_off_c, 2, 47, 0
4, 192320, Note_off_c, 2, 40, 0
4, 192640, Note_on_c, 2, 47, 95
4, 192640, Note_on_c, 2, 40, 95
4, 192960, Note_off_c, 2, 47, 0
4, 192960, Note_off_c, 2, 40, 0
4, 192960, Note_on_c, 2, 49, 95
4, 192960, Note_on_c, 2, 40, 95
4, 193280, Note_off_c, 2, 49, 0
4, 193280, Note_off_c, 2, 40, 0
4, 193600, Note_on_c, 2, 50, 95
4, 193600, Note_on_c, 2, 40, 95
4, 195840, Note_off_c, 2, 50, 0
4, 195840, Note_off_c, 2, 40, 0
4, 195840, Note_on_c, 2, 47, 95
4, 195840, Note_on_c, 2, 40, 95
4, 196160, Note_off_c, 2, 47, 0
4, 196160, Note_off_c, 2, 40, 0
4, 196480, Note_on_c, 2, 47, 95
4, 196480, Note_on_c, 2, 40, 95
4, 196800, Note_off_c, 2, 47, 0
4, 196800, Note_off_c, 2, 40, 0
4, 196800, Note_on_c, 2, 49, 95
4, 196800, Note_on_c, 2, 40, 95
4, 197120, Note_off_c, 2, 49, 0
4, 197120, Note_off_c, 2, 40, 0
4, 197440, Note_on_c, 2, 50, 95
4, 197440, Note_on_c, 2, 40, 95
4, 199680, Note_off_c, 2, 50, 0
4, 199680, Note_off_c, 2, 40, 0
4, 199680, Note_on_c, 2, 47, 95
4, 199680, Note_on_c, 2, 40, 95
4, 200000, Note_off_c, 2, 47, 0
4, 200000, Note_off_c, 2, 40, 0
4, 200320, Note_on_c, 2, 47, 95
4, 200320, Note_on_c, 2, 40, 95
4, 200640, Note_off_c, 2, 47, 0
4, 200640, Note_off_c, 2, 40, 0
4, 200640, Note_on_c, 2, 49, 95
4, 200640, Note_on_c, 2, 40, 95
4, 200960, Note_off_c, 2, 49, 0
4, 200960, Note_off_c, 2, 40, 0
4, 201280, Note_on_c, 2, 50, 95
4, 201280, Note_on_c, 2, 40, 95
4, 203520, Note_off_c, 2, 50, 0
4, 203520, Note_off_c, 2, 40, 0
4, 203520, Note_on_c, 2, 52, 95
4, 203520, Note_on_c, 2, 45, 95
4, 203840, Note_off_c, 2, 52, 0
4, 203840, Note_off_c, 2, 45, 0
4, 204160, Note_on_c, 2, 52, 95
4, 204160, Note_on_c, 2, 45, 95
4, 204480, Note_off_c, 2, 52, 0
4, 204480, Note_off_c, 2, 45, 0
4, 204480, Note_on_c, 2, 54, 95
4, 204480, Note_on_c, 2, 45, 95
4, 204800, Note_off_c, 2, 54, 0
4, 204800, Note_off_c, 2, 45, 0
4, 205120, Note_on_c, 2, 55, 95
4, 205120, Note_on_c, 2, 45, 95
4, 207360, Note_off_c, 2, 55, 0
4, 207360, Note_off_c, 2, 45, 0
4, 207360, Note_on_c, 2, 52, 95
4, 207360, Note_on_c, 2, 45, 95
4, 207680, Note_off_c, 2, 52, 0
4, 207680, Note_off_c, 2, 45, 0
4, 208000, Note_on_c, 2, 52, 95
4, 208000, Note_on_c, 2, 45, 95
4, 208320, Note_off_c, 2, 52, 0
4, 208320, Note_off_c, 2, 45, 0
4, 208320, Note_on_c, 2, 54, 95
4, 208320, Note_on_c, 2, 45, 95
4, 208640, Note_off_c, 2, 54, 0
4, 208640, Note_off_c, 2, 45, 0
4, 208960, Note_on_c, 2, 55, 95
4, 208960, Note_on_c, 2, 45, 95
4, 211200, Note_off_c, 2, 55, 0
4, 211200, Note_off_c, 2, 45, 0
4, 211200, Note_on_c, 2, 52, 95
4, 211200, Note_on_c, 2, 45, 95
4, 211520, Note_off_c, 2, 52, 0
4, 211520, Note_off_c, 2, 45, 0
4, 211840, Note_on_c, 2, 52, 95
4, 211840, Note_on_c, 2, 45, 95
4, 212160, Note_off_c, 2, 52, 0
4, 212160, Note_off_c, 2, 45, 0
4, 212160, Note_on_c, 2, 54, 95
4, 212160, Note_on_c, 2, 45, 95
4, 212480, Note_off_c, 2, 54, 0
4, 212480, Note_off_c, 2, 45, 0
4, 212800, Note_on_c, 2, 55, 95
4, 212800, Note_on_c, 2, 45, 95
4, 215040, Note_off_c, 2, 55, 0
4, 215040, Note_off_c, 2, 45, 0
4, 215040, Note_on_c, 2, 52, 95
4, 215040, Note_on_c, 2, 45, 95
4, 215360, Note_off_c, 2, 52, 0
4, 215360, Note_off_c, 2, 45, 0
4, 215680, Note_on_c, 2, 52, 95
4, 215680, Note_on_c, 2, 45, 95
4, 216000, Note_off_c, 2, 52, 0
4, 216000, Note_off_c, 2, 45, 0
4, 216000, Note_on_c, 2, 54, 95
4, 216000, Note_on_c, 2, 45, 95
4, 216320, Note_off_c, 2, 54, 0
4, 216320, Note_off_c, 2, 45, 0
4, 216640, Note_on_c, 2, 55, 95
4, 216640, Note_on_c, 2, 45, 95
4, 218880, Note_off_c, 2, 55, 0
4, 218880, Note_off_c, 2, 45, 0
4, 218880, Note_on_c, 2, 47, 95
4, 218880, Note_on_c, 2, 40, 95
4, 219200, Note_off_c, 2, 47, 0
4, 219200, Note_off_c, 2, 40, 0
4, 219520, Note_on_c, 2, 47, 95
4, 219520, Note_on_c, 2, 40, 95
4, 219840, Note_off_c, 2, 47, 0
4, 219840, Note_off_c, 2, 40, 0
4, 219840, Note_on_c, 2, 49, 95
4, 219840, Note_on_c, 2, 40, 95
4, 220160, Note_off_c, 2, 49, 0
4, 220160, Note_off_c, 2, 40, 0
4, 220480, Note_on_c, 2, 50, 95
4, 220480, Note_on_c, 2, 40, 95
4, 222720, Note_off_c, 2, 50, 0
4, 222720, Note_off_c, 2, 40, 0
4, 222720, Note_on_c, 2, 47, 95
4, 222720, Note_on_c, 2, 40, 95
4, 223040, Note_off_c, 2, 47, 0
4, 223040, Note_off_c, 2, 40, 0
4, 223360, Note_on_c, 2, 47, 95
4, 223360, Note_on_c, 2, 40, 95
4, 223680, Note_off_c, 2, 47, 0
4, 223680, Note_off_c, 2, 40, 0
4, 223680, Note_on_c, 2, 49, 95
4, 223680, Note_on_c, 2, 40, 95
4, 224000, Note_off_c, 2, 49, 0
4, 224000, Note_off_c, 2, 40, 0
4, 224320, Note_on_c, 2, 50, 95
4, 224320, Note_on_c, 2, 40, 95
4, 226560, Note_off_c, 2, 50, 0
4, 226560, Note_off_c, 2, 40, 0
4, 226560, Note_on_c, 2, 47, 95
4, 226560, Note_on_c, 2, 40, 95
4, 226880, Note_off_c, 2, 47, 0
4, 226880, Note_off_c, 2, 40, 0
4, 227200, Note_on_c, 2, 47, 95
4, 227200, Note_on_c, 2, 40, 95
4, 227520, Note_off_c, 2, 47, 0
4, 227520, Note_off_c, 2, 40, 0
4, 227520, Note_on_c, 2, 49, 95
4, 227520, Note_on_c, 2, 40, 95
4, 227840, Note_off_c, 2, 49, 0
4, 227840, Note_off_c, 2, 40, 0
4, 228160, Note_on_c, 2, 50, 95
4, 228160, Note_on_c, 2, 40, 95
4, 230400, Note_off_c, 2, 50, 0
4, 230400, Note_off_c, 2, 40, 0
4, 230400, Note_on_c, 2, 47, 95
4, 230400, Note_on_c, 2, 40, 95
4, 230720, Note_off_c, 2, 47, 0
4, 230720, Note_off_c, 2, 40, 0
4, 231040, Note_on_c, 2, 47, 95
4, 231040, Note_on_c, 2, 40, 95
4, 231360, Note_off_c, 2, 47, 0
4, 231360, Note_off_c, 2, 40, 0
4, 231360, Note_on_c, 2, 49, 95
4, 231360, Note_on_c, 2, 40, 95
4, 231680, Note_off_c, 2, 49, 0
4, 231680, Note_off_c, 2, 40, 0
4, 232000, Note_on_c, 2, 50, 95
4, 232000, Note_on_c, 2, 40, 95
4, 234240, Note_off_c, 2, 50, 0
4, 234240, Note_off_c, 2, 40, 0
4, 234240, Note_on_c, 2, 52, 95
4, 234240, Note_on_c, 2, 45, 95
4, 234560, Note_off_c, 2, 52, 0
4, 234560, Note_off_c, 2, 45, 0
4, 234880, Note_on_c, 2, 52, 95
4, 234880, Note_on_c, 2, 45, 95
4, 235200, Note_off_c, 2, 52, 0
4, 235200, Note_off_c, 2, 45, 0
4, 235200, Note_on_c, 2, 54, 95
4, 235200, Note_on_c, 2, 45, 95
4, 235520, Note_off_c, 2, 54, 0
4, 235520, Note_off_c, 2, 45, 0
4, 235840, Note_on_c, 2, 55, 95
4, 235840, Note_on_c, 2, 45, 95
4, 238080, Note_off_c, 2, 55, 0
4, 238080, Note_off_c, 2, 45, 0
4, 238080, Note_on_c, 2, 52, 95
4, 238080, Note_on_c, 2, 45, 95
4, 238400, Note_off_c, 2, 52, 0
4, 238400, Note_off_c, 2, 45, 0
4, 238720, Note_on_c, 2, 52, 95
4, 238720, Note_on_c, 2, 45, 95
4, 239040, Note_off_c, 2, 52, 0
4, 239040, Note_off_c, 2, 45, 0
4, 239040, Note_on_c, 2, 54, 95
4, 239040, Note_on_c, 2, 45, 95
4, 239360, Note_off_c, 2, 54, 0
4, 239360, Note_off_c, 2, 45, 0
4, 239680, Note_on_c, 2, 55, 95
4, 239680, Note_on_c, 2, 45, 95
4, 241920, Note_off_c, 2, 55, 0
4, 241920, Note_off_c, 2, 45, 0
4, 241920, Note_on_c, 2, 52, 95
4, 241920, Note_on_c, 2, 45, 95
4, 242240, Note_off_c, 2, 52, 0
4, 242240, Note_off_c, 2, 45, 0
4, 242560, Note_on_c, 2, 52, 95
4, 242560, Note_on_c, 2, 45, 95
4, 242880, Note_off_c, 2, 52, 0
4, 242880, Note_off_c, 2, 45, 0
4, 242880, Note_on_c, 2, 54, 95
4, 242880, Note_on_c, 2, 45, 95
4, 243200, Note_off_c, 2, 54, 0
4, 243200, Note_off_c, 2, 45, 0
4, 243520, Note_on_c, 2, 55, 95
4, 243520, Note_on_c, 2, 45, 95
4, 245760, Note_off_c, 2, 55, 0
4, 245760, Note_off_c, 2, 45, 0
4, 245760, Note_on_c, 2, 52, 95
4, 245760, Note_on_c, 2, 45, 95
4, 246080, Note_off_c, 2, 52, 0
4, 246080, Note_off_c, 2, 45, 0
4, 246400, Note_on_c, 2, 52, 95
4, 246400, Note_on_c, 2, 45, 95
4, 246720, Note_off_c, 2, 52, 0
4, 246720, Note_off_c, 2, 45, 0
4, 246720, Note_on_c, 2, 54, 95
4, 246720, Note_on_c, 2, 45, 95
4, 247040, Note_off_c, 2, 54, 0
4, 247040, Note_off_c, 2, 45, 0
4, 247360, Note_on_c, 2, 55, 95
4, 247360, Note_on_c, 2, 45, 95
4, 249600, Note_off_c, 2, 55, 0
4, 249600, Note_off_c, 2, 45, 0
4, 249600, Note_on_c, 2, 47, 95
4, 249600, Note_on_c, 2, 40, 95
4, 249920, Note_off_c, 2, 47, 0
4, 249920, Note_off_c, 2, 40, 0
4, 250240, Note_on_c, 2, 47, 95
4, 250240, Note_on_c, 2, 40, 95
4, 250560, Note_off_c, 2, 47, 0
4, 250560, Note_off_c, 2, 40, 0
4, 250560, Note_on_c, 2, 49, 95
4, 250560, Note_on_c, 2, 40, 95
4, 250880, Note_off_c, 2, 49, 0
4, 250880, Note_off_c, 2, 40, 0
4, 251200, Note_on_c, 2, 49, 95
4, 251200, Note_on_c, 2, 40, 95
4, 251520, Note_off_c, 2, 49, 0
4, 251520, Note_off_c, 2, 40, 0
4, 251520, Note_on_c, 2, 50, 95
4, 251520, Note_on_c, 2, 40, 95
4, 251840, Note_off_c, 2, 50, 0
4, 251840, Note_off_c, 2, 40, 0
4, 252160, Note_on_c, 2, 50, 95
4, 252160, Note_on_c, 2, 40, 95
4, 252480, Note_off_c, 2, 50, 0
4, 252480, Note_off_c, 2, 40, 0
4, 252480, Note_on_c, 2, 49, 95
4, 252480, Note_on_c, 2, 40, 95
4, 252800, Note_off_c, 2, 49, 0
4, 252800, Note_off_c, 2, 40, 0
4, 253120, Note_on_c, 2, 49, 95
4, 253120, Note_on_c, 2, 40, 95
4, 253440, Note_off_c, 2, 49, 0
4, 253440, Note_off_c, 2, 40, 0
4, 253440, Note_on_c, 2, 47, 95
4, 253440, Note_on_c, 2, 40, 95
4, 253760, Note_off_c, 2, 47, 0
4, 253760, Note_off_c, 2, 40, 0
4, 254080, Note_on_c, 2, 47, 95
4, 254080, Note_on_c, 2, 40, 95
4, 254400, Note_off_c, 2, 47, 0
4, 254400, Note_off_c, 2, 40, 0
4, 254400, Note_on_c, 2, 49, 95
4, 254400, Note_on_c, 2, 40, 95
4, 254720, Note_off_c, 2, 49, 0
4, 254720, Note_off_c, 2, 40, 0
4, 255040, Note_on_c, 2, 49, 95
4, 255040, Note_on_c, 2, 40, 95
4, 255360, Note_off_c, 2, 49, 0
4, 255360, Note_off_c, 2, 40, 0
4, 255360, Note_on_c, 2, 50, 95
4, 255360, Note_on_c, 2, 40, 95
4, 255680, Note_off_c, 2, 50, 0
4, 255680, Note_off_c, 2, 40, 0
4, 256000, Note_on_c, 2, 50, 95
4, 256000, Note_on_c, 2, 40, 95
4, 256320, Note_off_c, 2, 50, 0
4, 256320, Note_off_c, 2, 40, 0
4, 256320, Note_on_c, 2, 49, 95
4, 256320, Note_on_c, 2, 40, 95
4, 256640, Note_off_c, 2, 49, 0
4, 256640, Note_off_c, 2, 40, 0
4, 256960, Note_on_c, 2, 49, 95
4, 256960, Note_on_c, 2, 40, 95
4, 257280, Note_off_c, 2, 49, 0
4, 257280, Note_off_c, 2, 40, 0
4, 257280, Note_on_c, 2, 47, 95
4, 257280, Note_on_c, 2, 40, 95
4, 257600, Note_off_c, 2, 47, 0
4, 257600, Note_off_c, 2, 40, 0
4, 257920, Note_on_c, 2, 47, 95
4, 257920, Note_on_c, 2, 40, 95
4, 258240, Note_off_c, 2, 47, 0
4, 258240, Note_off_c, 2, 40, 0
4, 258240, Note_on_c, 2, 49, 95
4, 258240, Note_on_c, 2, 40, 95
4, 258560, Note_off_c, 2, 49, 0
4, 258560, Note_off_c, 2, 40, 0
4, 258880, Note_on_c, 2, 49, 95
4, 258880, Note_on_c, 2, 40, 95
4, 259200, Note_off_c, 2, 49, 0
4, 259200, Note_off_c, 2, 40, 0
4, 259200, Note_on_c, 2, 50, 95
4, 259200, Note_on_c, 2, 40, 95
4, 259520, Note_off_c, 2, 50, 0
4, 259520, Note_off_c, 2, 40, 0
4, 259840, Note_on_c, 2, 50, 95
4, 259840, Note_on_c, 2, 40, 95
4, 260160, Note_off_c, 2, 50, 0
4, 260160, Note_off_c, 2, 40, 0
4, 260160, Note_on_c, 2, 49, 95
4, 260160, Note_on_c, 2, 40, 95
4, 260480, Note_off_c, 2, 49, 0
4, 260480, Note_off_c, 2, 40, 0
4, 260800, Note_on_c, 2, 49, 95
4, 260800, Note_on_c, 2, 40, 95
4, 261120, Note_off_c, 2, 49, 0
4, 261120, Note_off_c, 2, 40, 0
4, 261120, Note_on_c, 2, 47, 95
4, 261120, Note_on_c, 2, 40, 95
4, 261440, Note_off_c, 2, 47, 0
4, 261440, Note_off_c, 2, 40, 0
4, 261760, Note_on_c, 2, 47, 95
4, 261760, Note_on_c, 2, 40, 95
4, 262080, Note_off_c, 2, 47, 0
4, 262080, Note_off_c, 2, 40, 0
4, 262080, Note_on_c, 2, 49, 95
4, 262080, Note_on_c, 2, 40, 95
4, 262400, Note_off_c, 2, 49, 0
4, 262400, Note_off_c, 2, 40, 0
4, 262720, Note_on_c, 2, 49, 95
4, 262720, Note_on_c, 2, 40, 95
4, 263040, Note_off_c, 2, 49, 0
4, 263040, Note_off_c, 2, 40, 0
4, 263040, Note_on_c, 2, 50, 95
4, 263040, Note_on_c, 2, 40, 95
4, 263360, Note_off_c, 2, 50, 0
4, 263360, Note_off_c, 2, 40, 0
4, 263680, Note_on_c, 2, 50, 95
4, 263680, Note_on_c, 2, 40, 95
4, 264000, Note_off_c, 2, 50, 0
4, 264000, Note_off_c, 2, 40, 0
4, 264000, Note_on_c, 2, 49, 95
4, 264000, Note_on_c, 2, 40, 95
4, 264320, Note_off_c, 2, 49, 0
4, 264320, Note_off_c, 2, 40, 0
4, 264640, Note_on_c, 2, 49, 95
4, 264640, Note_on_c, 2, 40, 95
4, 264960, Note_off_c, 2, 49, 0
4, 264960, Note_off_c, 2, 40, 0
4, 264960, Note_on_c, 2, 52, 95
4, 264960, Note_on_c, 2, 45, 95
4, 265280, Note_off_c, 2, 52, 0
4, 265280, Note_off_c, 2, 45, 0
4, 265600, Note_on_c, 2, 52, 95
4, 265600, Note_on_c, 2, 45, 95
4, 265920, Note_off_c, 2, 52, 0
4, 265920, Note_off_c, 2, 45, 0
4, 265920, Note_on_c, 2, 54, 95
4, 265920, Note_on_c, 2, 45, 95
4, 266240, Note_off_c, 2, 54, 0
4, 266240, Note_off_c, 2, 45, 0
4, 266560, Note_on_c, 2, 54, 95
4, 266560, Note_on_c, 2, 45, 95
4, 266880, Note_off_c, 2, 54, 0
4, 266880, Note_off_c, 2, 45, 0
4, 266880, Note_on_c, 2, 55, 95
4, 266880, Note_on_c, 2, 45, 95
4, 267200, Note_off_c, 2, 55, 0
4, 267200, Note_off_c, 2, 45, 0
4, 267520, Note_on_c, 2, 55, 95
4, 267520, Note_on_c, 2, 45, 95
4, 267840, Note_off_c, 2, 55, 0
4, 267840, Note_off_c, 2, 45, 0
4, 267840, Note_on_c, 2, 54, 95
4, 267840, Note_on_c, 2, 45, 95
4, 268160, Note_off_c, 2, 54, 0
4, 268160, Note_off_c, 2, 45, 0
4, 268480, Note_on_c, 2, 54, 95
4, 268480, Note_on_c, 2, 45, 95
4, 268800, Note_off_c, 2, 54, 0
4, 268800, Note_off_c, 2, 45, 0
4, 268800, Note_on_c, 2, 52, 95
4, 268800, Note_on_c, 2, 45, 95
4, 269120, Note_off_c, 2, 52, 0
4, 269120, Note_off_c, 2, 45, 0
4, 269440, Note_on_c, 2, 52, 95
4, 269440, Note_on_c, 2, 45, 95
4, 269760, Note_off_c, 2, 52, 0
4, 269760, Note_off_c, 2, 45, 0
4, 269760, Note_on_c, 2, 54, 95
4, 269760, Note_on_c, 2, 45, 95
4, 270080, Note_off_c, 2, 54, 0
4, 270080, Note_off_c, 2, 45, 0
4, 270400, Note_on_c, 2, 54, 95
4, 270400, Note_on_c, 2, 45, 95
4, 270720, Note_off_c, 2, 54, 0
4, 270720, Note_off_c, 2, 45, 0
4, 270720, Note_on_c, 2, 55, 95
4, 270720, Note_on_c, 2, 45, 95
4, 271040, Note_off_c, 2, 55, 0
4, 271040, Note_off_c, 2, 45, 0
4, 271360, Note_on_c, 2, 55, 95
4, 271360, Note_on_c, 2, 45, 95
4, 271680, Note_off_c, 2, 55, 0
4, 271680, Note_off_c, 2, 45, 0
4, 271680, Note_on_c, 2, 54, 95
4, 271680, Note_on_c, 2, 45, 95
4, 272000, Note_off_c, 2, 54, 0
4, 272000, Note_off_c, 2, 45, 0
4, 272320, Note_on_c, 2, 54, 95
4, 272320, Note_on_c, 2, 45, 95
4, 272640, Note_off_c, 2, 54, 0
4, 272640, Note_off_c, 2, 45, 0
4, 272640, Note_on_c, 2, 47, 95
4, 272640, Note_on_c, 2, 40, 95
4, 272960, Note_off_c, 2, 47, 0
4, 272960, Note_off_c, 2, 40, 0
4, 273280, Note_on_c, 2, 47, 95
4, 273280, Note_on_c, 2, 40, 95
4, 273600, Note_off_c, 2, 47, 0
4, 273600, Note_off_c, 2, 40, 0
4, 273600, Note_on_c, 2, 49, 95
4, 273600, Note_on_c, 2, 40, 95
4, 273920, Note_off_c, 2, 49, 0
4, 273920, Note_off_c, 2, 40, 0
4, 274240, Note_on_c, 2, 49, 95
4, 274240, Note_on_c, 2, 40, 95
4, 274560, Note_off_c, 2, 49, 0
4, 274560, Note_off_c, 2, 40, 0
4, 274560, Note_on_c, 2, 50, 95
4, 274560, Note_on_c, 2, 40, 95
4, 274880, Note_off_c, 2, 50, 0
4, 274880, Note_off_c, 2, 40, 0
4, 275200, Note_on_c, 2, 50, 95
4, 275200, Note_on_c, 2, 40, 95
4, 275520, Note_off_c, 2, 50, 0
4, 275520, Note_off_c, 2, 40, 0
4, 275520, Note_on_c, 2, 49, 95
4, 275520, Note_on_c, 2, 40, 95
4, 275840, Note_off_c, 2, 49, 0
4, 275840, Note_off_c, 2, 40, 0
4, 276160, Note_on_c, 2, 49, 95
4, 276160, Note_on_c, 2, 40, 95
4, 276480, Note_off_c, 2, 49, 0
4, 276480, Note_off_c, 2, 40, 0
4, 276480, Note_on_c, 2, 47, 95
4, 276480, Note_on_c, 2, 40, 95
4, 276800, Note_off_c, 2, 47, 0
4, 276800, Note_off_c, 2, 40, 0
4, 277120, Note_on_c, 2, 47, 95
4, 277120, Note_on_c, 2, 40, 95
4, 277440, Note_off_c, 2, 47, 0
4, 277440, Note_off_c, 2, 40, 0
4, 277440, Note_on_c, 2, 49, 95
4, 277440, Note_on_c, 2, 40, 95
4, 277760, Note_off_c, 2, 49, 0
4, 277760, Note_off_c, 2, 40, 0
4, 278080, Note_on_c, 2, 49, 95
4, 278080, Note_on_c, 2, 40, 95
4, 278400, Note_off_c, 2, 49, 0
4, 278400, Note_off_c, 2, 40, 0
4, 278400, Note_on_c, 2, 50, 95
4, 278400, Note_on_c, 2, 40, 95
4, 278720, Note_off_c, 2, 50, 0
4, 278720, Note_off_c, 2, 40, 0
4, 279040, Note_on_c, 2, 50, 95
4, 279040, Note_on_c, 2, 40, 95
4, 279360, Note_off_c, 2, 50, 0
4, 279360, Note_off_c, 2, 40, 0
4, 279360, Note_on_c, 2, 49, 95
4, 279360, Note_on_c, 2, 40, 95
4, 279680, Note_off_c, 2, 49, 0
4, 279680, Note_off_c, 2, 40, 0
4, 280000, Note_on_c, 2, 49, 95
4, 280000, Note_on_c, 2, 40, 95
4, 280320, Note_off_c, 2, 49, 0
4, 280320, Note_off_c, 2, 40, 0
4, 280320, Note_on_c, 2, 59, 95
4, 280320, Note_on_c, 2, 54, 95
4, 280320, Note_on_c, 2, 47, 95
4, 280640, Note_off_c, 2, 59, 0
4, 280640, Note_off_c, 2, 54, 0
4, 280640, Note_off_c, 2, 47, 0
4, 280640, Note_on_c, 2, 54, 95
4, 280640, Note_on_c, 2, 47, 95
4, 280960, Note_off_c, 2, 54, 0
4, 280960, Note_off_c, 2, 47, 0
4, 280960, Note_on_c, 2, 54, 95
4, 280960, Note_on_c, 2, 47, 95
4, 281280, Note_off_c, 2, 54, 0
4, 281280, Note_off_c, 2, 47, 0
4, 281280, Note_on_c, 2, 59, 95
4, 281280, Note_on_c, 2, 54, 95
4, 281280, Note_on_c, 2, 47, 95
4, 281600, Note_off_c, 2, 59, 0
4, 281600, Note_off_c, 2, 54, 0
4, 281600, Note_off_c, 2, 47, 0
4, 281600, Note_on_c, 2, 54, 95
4, 281600, Note_on_c, 2, 47, 95
4, 281920, Note_off_c, 2, 54, 0
4, 281920, Note_off_c, 2, 47, 0
4, 281920, Note_on_c, 2, 54, 95
4, 281920, Note_on_c, 2, 47, 95
4, 282240, Note_off_c, 2, 54, 0
4, 282240, Note_off_c, 2, 47, 0
4, 282240, Note_on_c, 2, 59, 95
4, 282240, Note_on_c, 2, 54, 95
4, 282240, Note_on_c, 2, 47, 95
4, 282560, Note_off_c, 2, 59, 0
4, 282560, Note_off_c, 2, 54, 0
4, 282560, Note_off_c, 2, 47, 0
4, 282560, Note_on_c, 2, 54, 95
4, 282560, Note_on_c, 2, 47, 95
4, 282880, Note_off_c, 2, 54, 0
4, 282880, Note_off_c, 2, 47, 0
4, 282880, Note_on_c, 2, 54, 95
4, 282880, Note_on_c, 2, 47, 95
4, 283200, Note_off_c, 2, 54, 0
4, 283200, Note_off_c, 2, 47, 0
4, 283200, Note_on_c, 2, 59, 95
4, 283200, Note_on_c, 2, 54, 95
4, 283200, Note_on_c, 2, 47, 95
4, 283520, Note_off_c, 2, 59, 0
4, 283520, Note_off_c, 2, 54, 0
4, 283520, Note_off_c, 2, 47, 0
4, 283520, Note_on_c, 2, 54, 95
4, 283520, Note_on_c, 2, 47, 95
4, 283840, Note_off_c, 2, 54, 0
4, 283840, Note_off_c, 2, 47, 0
4, 283840, Note_on_c, 2, 54, 95
4, 283840, Note_on_c, 2, 47, 95
4, 284160, Note_off_c, 2, 54, 0
4, 284160, Note_off_c, 2, 47, 0
4, 284160, Note_on_c, 2, 57, 95
4, 284160, Note_on_c, 2, 52, 95
4, 284160, Note_on_c, 2, 45, 95
4, 284480, Note_off_c, 2, 57, 0
4, 284480, Note_off_c, 2, 52, 0
4, 284480, Note_off_c, 2, 45, 0
4, 284480, Note_on_c, 2, 52, 95
4, 284480, Note_on_c, 2, 45, 95
4, 284800, Note_off_c, 2, 52, 0
4, 284800, Note_off_c, 2, 45, 0
4, 284800, Note_on_c, 2, 52, 95
4, 284800, Note_on_c, 2, 45, 95
4, 285120, Note_off_c, 2, 52, 0
4, 285120, Note_off_c, 2, 45, 0
4, 285120, Note_on_c, 2, 57, 95
4, 285120, Note_on_c, 2, 52, 95
4, 285120, Note_on_c, 2, 45, 95
4, 285440, Note_off_c, 2, 57, 0
4, 285440, Note_off_c, 2, 52, 0
4, 285440, Note_off_c, 2, 45, 0
4, 285440, Note_on_c, 2, 52, 95
4, 285440, Note_on_c, 2, 45, 95
4, 285760, Note_off_c, 2, 52, 0
4, 285760, Note_off_c, 2, 45, 0
4, 285760, Note_on_c, 2, 52, 95
4, 285760, Note_on_c, 2, 45, 95
4, 286080, Note_off_c, 2, 52, 0
4, 286080, Note_off_c, 2, 45, 0
4, 286080, Note_on_c, 2, 57, 95
4, 286080, Note_on_c, 2, 52, 95
4, 286080, Note_on_c, 2, 45, 95
4, 286400, Note_off_c, 2, 57, 0
4, 286400, Note_off_c, 2, 52, 0
4, 286400, Note_off_c, 2, 45, 0
4, 286400, Note_on_c, 2, 52, 95
4, 286400, Note_on_c, 2, 45, 95
4, 286720, Note_off_c, 2, 52, 0
4, 286720, Note_off_c, 2, 45, 0
4, 286720, Note_on_c, 2, 52, 95
4, 286720, Note_on_c, 2, 45, 95
4, 287040, Note_off_c, 2, 52, 0
4, 287040, Note_off_c, 2, 45, 0
4, 287040, Note_on_c, 2, 57, 95
4, 287040, Note_on_c, 2, 52, 95
4, 287040, Note_on_c, 2, 45, 95
4, 287360, Note_off_c, 2, 57, 0
4, 287360, Note_off_c, 2, 52, 0
4, 287360, Note_off_c, 2, 45, 0
4, 287360, Note_on_c, 2, 52, 95
4, 287360, Note_on_c, 2, 45, 95
4, 287680, Note_off_c, 2, 52, 0
4, 287680, Note_off_c, 2, 45, 0
4, 287680, Note_on_c, 2, 52, 95
4, 287680, Note_on_c, 2, 45, 95
4, 288000, Note_off_c, 2, 52, 0
4, 288000, Note_off_c, 2, 45, 0
4, 288000, Note_on_c, 2, 47, 95
4, 288000, Note_on_c, 2, 40, 95
4, 288320, Note_off_c, 2, 47, 0
4, 288320, Note_off_c, 2, 40, 0
4, 288320, Note_on_c, 2, 47, 95
4, 288320, Note_on_c, 2, 40, 95
4, 288640, Note_off_c, 2, 47, 0
4, 288640, Note_off_c, 2, 40, 0
4, 288640, Note_on_c, 2, 47, 95
4, 288640, Note_on_c, 2, 40, 95
4, 288960, Note_off_c, 2, 47, 0
4, 288960, Note_off_c, 2, 40, 0
4, 288960, Note_on_c, 2, 49, 95
4, 288960, Note_on_c, 2, 40, 95
4, 289280, Note_off_c, 2, 49, 0
4, 289280, Note_off_c, 2, 40, 0
4, 289280, Note_on_c, 2, 49, 95
4, 289280, Note_on_c, 2, 40, 95
4, 289600, Note_off_c, 2, 49, 0
4, 289600, Note_off_c, 2, 40, 0
4, 289600, Note_on_c, 2, 49, 95
4, 289600, Note_on_c, 2, 40, 95
4, 289920, Note_off_c, 2, 49, 0
4, 289920, Note_off_c, 2, 40, 0
4, 289920, Note_on_c, 2, 47, 95
4, 289920, Note_on_c, 2, 40, 95
4, 290240, Note_off_c, 2, 47, 0
4, 290240, Note_off_c, 2, 40, 0
4, 290240, Note_on_c, 2, 47, 95
4, 290240, Note_on_c, 2, 40, 95
4, 290560, Note_off_c, 2, 47, 0
4, 290560, Note_off_c, 2, 40, 0
4, 290560, Note_on_c, 2, 47, 95
4, 290560, Note_on_c, 2, 40, 95
4, 290880, Note_off_c, 2, 47, 0
4, 290880, Note_off_c, 2, 40, 0
4, 290880, Note_on_c, 2, 49, 95
4, 290880, Note_on_c, 2, 40, 95
4, 291200, Note_off_c, 2, 49, 0
4, 291200, Note_off_c, 2, 40, 0
4, 291200, Note_on_c, 2, 49, 95
4, 291200, Note_on_c, 2, 40, 95
4, 291520, Note_off_c, 2, 49, 0
4, 291520, Note_off_c, 2, 40, 0
4, 291520, Note_on_c, 2, 49, 95
4, 291520, Note_on_c, 2, 40, 95
4, 291840, Note_off_c, 2, 49, 0
4, 291840, Note_off_c, 2, 40, 0
4, 291840, Note_on_c, 2, 47, 95
4, 291840, Note_on_c, 2, 40, 95
4, 292160, Note_off_c, 2, 47, 0
4, 292160, Note_off_c, 2, 40, 0
4, 292160, Note_on_c, 2, 47, 95
4, 292160, Note_on_c, 2, 40, 95
4, 292480, Note_off_c, 2, 47, 0
4, 292480, Note_off_c, 2, 40, 0
4, 292480, Note_on_c, 2, 47, 95
4, 292480, Note_on_c, 2, 40, 95
4, 292800, Note_off_c, 2, 47, 0
4, 292800, Note_off_c, 2, 40, 0
4, 292800, Note_on_c, 2, 47, 95
4, 292800, Note_on_c, 2, 40, 95
4, 293120, Note_off_c, 2, 47, 0
4, 293120, Note_off_c, 2, 40, 0
4, 293120, Note_on_c, 2, 52, 95
4, 293120, Note_on_c, 2, 45, 95
4, 293440, Note_off_c, 2, 52, 0
4, 293440, Note_off_c, 2, 45, 0
4, 293440, Note_on_c, 2, 53, 95
4, 293440, Note_on_c, 2, 46, 95
4, 293760, Note_off_c, 2, 53, 0
4, 293760, Note_off_c, 2, 46, 0
4, 293760, Note_on_c, 2, 59, 95
4, 293760, Note_on_c, 2, 54, 95
4, 293760, Note_on_c, 2, 47, 95
4, 295680, Note_off_c, 2, 59, 0
4, 295680, Note_off_c, 2, 54, 0
4, 295680, Note_off_c, 2, 47, 0
4, 330240, Note_on_c, 2, 57, 95
4, 330240, Note_on_c, 2, 52, 95
4, 330240, Note_on_c, 2, 45, 95
4, 330560, Note_off_c, 2, 57, 0
4, 330560, Note_off_c, 2, 52, 0
4, 330560, Note_off_c, 2, 45, 0
4, 330560, Note_on_c, 2, 52, 95
4, 330560, Note_on_c, 2, 45, 95
4, 330880, Note_off_c, 2, 52, 0
4, 330880, Note_off_c, 2, 45, 0
4, 330880, Note_on_c, 2, 52, 95
4, 330880, Note_on_c, 2, 45, 95
4, 331200, Note_off_c, 2, 52, 0
4, 331200, Note_off_c, 2, 45, 0
4, 331200, Note_on_c, 2, 57, 95
4, 331200, Note_on_c, 2, 52, 95
4, 331200, Note_on_c, 2, 45, 95
4, 331520, Note_off_c, 2, 57, 0
4, 331520, Note_off_c, 2, 52, 0
4, 331520, Note_off_c, 2, 45, 0
4, 331520, Note_on_c, 2, 52, 95
4, 331520, Note_on_c, 2, 45, 95
4, 331840, Note_off_c, 2, 52, 0
4, 331840, Note_off_c, 2, 45, 0
4, 331840, Note_on_c, 2, 52, 95
4, 331840, Note_on_c, 2, 45, 95
4, 332160, Note_off_c, 2, 52, 0
4, 332160, Note_off_c, 2, 45, 0
4, 332160, Note_on_c, 2, 57, 95
4, 332160, Note_on_c, 2, 52, 95
4, 332160, Note_on_c, 2, 45, 95
4, 332480, Note_off_c, 2, 57, 0
4, 332480, Note_off_c, 2, 52, 0
4, 332480, Note_off_c, 2, 45, 0
4, 332480, Note_on_c, 2, 52, 95
4, 332480, Note_on_c, 2, 45, 95
4, 332800, Note_off_c, 2, 52, 0
4, 332800, Note_off_c, 2, 45, 0
4, 332800, Note_on_c, 2, 52, 95
4, 332800, Note_on_c, 2, 45, 95
4, 333120, Note_off_c, 2, 52, 0
4, 333120, Note_off_c, 2, 45, 0
4, 333120, Note_on_c, 2, 57, 95
4, 333120, Note_on_c, 2, 52, 95
4, 333120, Note_on_c, 2, 45, 95
4, 333440, Note_off_c, 2, 57, 0
4, 333440, Note_off_c, 2, 52, 0
4, 333440, Note_off_c, 2, 45, 0
4, 333440, Note_on_c, 2, 52, 95
4, 333440, Note_on_c, 2, 45, 95
4, 333760, Note_off_c, 2, 52, 0
4, 333760, Note_off_c, 2, 45, 0
4, 333760, Note_on_c, 2, 52, 95
4, 333760, Note_on_c, 2, 45, 95
4, 334080, Note_off_c, 2, 52, 0
4, 334080, Note_off_c, 2, 45, 0
4, 334080, Note_on_c, 2, 47, 95
4, 334080, Note_on_c, 2, 40, 95
4, 334400, Note_off_c, 2, 47, 0
4, 334400, Note_off_c, 2, 40, 0
4, 334720, Note_on_c, 2, 47, 95
4, 334720, Note_on_c, 2, 40, 95
4, 335040, Note_off_c, 2, 47, 0
4, 335040, Note_off_c, 2, 40, 0
4, 335040, Note_on_c, 2, 47, 95
4, 335040, Note_on_c, 2, 40, 95
4, 335360, Note_off_c, 2, 47, 0
4, 335360, Note_off_c, 2, 40, 0
4, 335680, Note_on_c, 2, 47, 95
4, 335680, Note_on_c, 2, 40, 95
4, 336000, Note_off_c, 2, 47, 0
4, 336000, Note_off_c, 2, 40, 0
4, 336000, Note_on_c, 2, 47, 95
4, 336000, Note_on_c, 2, 40, 95
4, 336320, Note_off_c, 2, 47, 0
4, 336320, Note_off_c, 2, 40, 0
4, 336640, Note_on_c, 2, 47, 95
4, 336640, Note_on_c, 2, 40, 95
4, 336960, Note_off_c, 2, 47, 0
4, 336960, Note_off_c, 2, 40, 0
4, 336960, Note_on_c, 2, 47, 95
4, 336960, Note_on_c, 2, 40, 95
4, 337280, Note_off_c, 2, 47, 0
4, 337280, Note_off_c, 2, 40, 0
4, 337600, Note_on_c, 2, 47, 95
4, 337600, Note_on_c, 2, 40, 95
4, 337920, Note_off_c, 2, 47, 0
4, 337920, Note_off_c, 2, 40, 0
4, 337920, Note_on_c, 2, 47, 95
4, 337920, Note_on_c, 2, 40, 95
4, 338240, Note_off_c, 2, 47, 0
4, 338240, Note_off_c, 2, 40, 0
4, 338560, Note_on_c, 2, 47, 95
4, 338560, Note_on_c, 2, 40, 95
4, 338880, Note_off_c, 2, 47, 0
4, 338880, Note_off_c, 2, 40, 0
4, 338880, Note_on_c, 2, 47, 95
4, 338880, Note_on_c, 2, 40, 95
4, 339200, Note_off_c, 2, 47, 0
4, 339200, Note_off_c, 2, 40, 0
4, 339200, Note_on_c, 2, 52, 95
4, 339200, Note_on_c, 2, 45, 95
4, 339520, Note_off_c, 2, 52, 0
4, 339520, Note_off_c, 2, 45, 0
4, 339520, Note_on_c, 2, 53, 95
4, 339520, Note_on_c, 2, 46, 95
4, 339840, Note_off_c, 2, 53, 0
4, 339840, Note_off_c, 2, 46, 0
4, 339840, Note_on_c, 2, 59, 95
4, 339840, Note_on_c, 2, 54, 95
4, 339840, Note_on_c, 2, 47, 95
4, 341760, Note_off_c, 2, 59, 0
4, 341760, Note_off_c, 2, 54, 0
4, 341760, Note_off_c, 2, 47, 0
4, 341760, Note_on_c, 2, 47, 95
4, 341760, Note_on_c, 2, 40, 95
4, 342080, Note_off_c, 2, 47, 0
4, 342080, Note_off_c, 2, 40, 0
4, 342400, Note_on_c, 2, 47, 95
4, 342400, Note_on_c, 2, 40, 95
4, 342720, Note_off_c, 2, 47, 0
4, 342720, Note_off_c, 2, 40, 0
4, 342720, Note_on_c, 2, 49, 95
4, 342720, Note_on_c, 2, 40, 95
4, 343040, Note_off_c, 2, 49, 0
4, 343040, Note_off_c, 2, 40, 0
4, 343360, Note_on_c, 2, 49, 95
4, 343360, Note_on_c, 2, 40, 95
4, 343680, Note_off_c, 2, 49, 0
4, 343680, Note_off_c, 2, 40, 0
4, 343680, Note_on_c, 2, 50, 95
4, 343680, Note_on_c, 2, 40, 95
4, 344000, Note_off_c, 2, 50, 0
4, 344000, Note_off_c, 2, 40, 0
4, 344320, Note_on_c, 2, 50, 95
4, 344320, Note_on_c, 2, 40, 95
4, 344640, Note_off_c, 2, 50, 0
4, 344640, Note_off_c, 2, 40, 0
4, 344640, Note_on_c, 2, 49, 95
4, 344640, Note_on_c, 2, 40, 95
4, 344960, Note_off_c, 2, 49, 0
4, 344960, Note_off_c, 2, 40, 0
4, 345280, Note_on_c, 2, 49, 95
4, 345280, Note_on_c, 2, 40, 95
4, 345600, Note_off_c, 2, 49, 0
4, 345600, Note_off_c, 2, 40, 0
4, 345600, Note_on_c, 2, 47, 95
4, 345600, Note_on_c, 2, 40, 95
4, 345920, Note_off_c, 2, 47, 0
4, 345920, Note_off_c, 2, 40, 0
4, 346240, Note_on_c, 2, 47, 95
4, 346240, Note_on_c, 2, 40, 95
4, 346560, Note_off_c, 2, 47, 0
4, 346560, Note_off_c, 2, 40, 0
4, 346560, Note_on_c, 2, 49, 95
4, 346560, Note_on_c, 2, 40, 95
4, 346880, Note_off_c, 2, 49, 0
4, 346880, Note_off_c, 2, 40, 0
4, 347200, Note_on_c, 2, 49, 95
4, 347200, Note_on_c, 2, 40, 95
4, 347520, Note_off_c, 2, 49, 0
4, 347520, Note_off_c, 2, 40, 0
4, 347520, Note_on_c, 2, 50, 95
4, 347520, Note_on_c, 2, 40, 95
4, 347840, Note_off_c, 2, 50, 0
4, 347840, Note_off_c, 2, 40, 0
4, 348160, Note_on_c, 2, 50, 95
4, 348160, Note_on_c, 2, 40, 95
4, 348480, Note_off_c, 2, 50, 0
4, 348480, Note_off_c, 2, 40, 0
4, 348480, Note_on_c, 2, 49, 95
4, 348480, Note_on_c, 2, 40, 95
4, 348800, Note_off_c, 2, 49, 0
4, 348800, Note_off_c, 2, 40, 0
4, 349120, Note_on_c, 2, 49, 95
4, 349120, Note_on_c, 2, 40, 95
4, 349440, Note_off_c, 2, 49, 0
4, 349440, Note_off_c, 2, 40, 0
4, 349440, Note_on_c, 2, 47, 95
4, 349440, Note_on_c, 2, 40, 95
4, 349760, Note_off_c, 2, 47, 0
4, 349760, Note_off_c, 2, 40, 0
4, 350080, Note_on_c, 2, 47, 95
4, 350080, Note_on_c, 2, 40, 95
4, 350400, Note_off_c, 2, 47, 0
4, 350400, Note_off_c, 2, 40, 0
4, 350400, Note_on_c, 2, 49, 95
4, 350400, Note_on_c, 2, 40, 95
4, 350720, Note_off_c, 2, 49, 0
4, 350720, Note_off_c, 2, 40, 0
4, 351040, Note_on_c, 2, 49, 95
4, 351040, Note_on_c, 2, 40, 95
4, 351360, Note_off_c, 2, 49, 0
4, 351360, Note_off_c, 2, 40, 0
4, 351360, Note_on_c, 2, 50, 95
4, 351360, Note_on_c, 2, 40, 95
4, 351680, Note_off_c, 2, 50, 0
4, 351680, Note_off_c, 2, 40, 0
4, 352000, Note_on_c, 2, 50, 95
4, 352000, Note_on_c, 2, 40, 95
4, 352320, Note_off_c, 2, 50, 0
4, 352320, Note_off_c, 2, 40, 0
4, 352320, Note_on_c, 2, 49, 95
4, 352320, Note_on_c, 2, 40, 95
4, 352640, Note_off_c, 2, 49, 0
4, 352640, Note_off_c, 2, 40, 0
4, 352960, Note_on_c, 2, 49, 95
4, 352960, Note_on_c, 2, 40, 95
4, 353280, Note_off_c, 2, 49, 0
4, 353280, Note_off_c, 2, 40, 0
4, 353280, Note_on_c, 2, 47, 95
4, 353280, Note_on_c, 2, 40, 95
4, 353600, Note_off_c, 2, 47, 0
4, 353600, Note_off_c, 2, 40, 0
4, 353920, Note_on_c, 2, 47, 95
4, 353920, Note_on_c, 2, 40, 95
4, 354240, Note_off_c, 2, 47, 0
4, 354240, Note_off_c, 2, 40, 0
4, 354240, Note_on_c, 2, 49, 95
4, 354240, Note_on_c, 2, 40, 95
4, 354560, Note_off_c, 2, 49, 0
4, 354560, Note_off_c, 2, 40, 0
4, 354880, Note_on_c, 2, 49, 95
4, 354880, Note_on_c, 2, 40, 95
4, 355200, Note_off_c, 2, 49, 0
4, 355200, Note_off_c, 2, 40, 0
4, 355200, Note_on_c, 2, 50, 95
4, 355200, Note_on_c, 2, 40, 95
4, 355520, Note_off_c, 2, 50, 0
4, 355520, Note_off_c, 2, 40, 0
4, 355840, Note_on_c, 2, 50, 95
4, 355840, Note_on_c, 2, 40, 95
4, 356160, Note_off_c, 2, 50, 0
4, 356160, Note_off_c, 2, 40, 0
4, 356160, Note_on_c, 2, 49, 95
4, 356160, Note_on_c, 2, 40, 95
4, 356480, Note_off_c, 2, 49, 0
4, 356480, Note_off_c, 2, 40, 0
4, 356800, Note_on_c, 2, 49, 95
4, 356800, Note_on_c, 2, 40, 95
4, 357120, Note_off_c, 2, 49, 0
4, 357120, Note_off_c, 2, 40, 0
4, 357120, Note_on_c, 2, 52, 95
4, 357120, Note_on_c, 2, 45, 95
4, 357440, Note_off_c, 2, 52, 0
4, 357440, Note_off_c, 2, 45, 0
4, 357760, Note_on_c, 2, 52, 95
4, 357760, Note_on_c, 2, 45, 95
4, 358080, Note_off_c, 2, 52, 0
4, 358080, Note_off_c, 2, 45, 0
4, 358080, Note_on_c, 2, 54, 95
4, 358080, Note_on_c, 2, 45, 95
4, 358400, Note_off_c, 2, 54, 0
4, 358400, Note_off_c, 2, 45, 0
4, 358720, Note_on_c, 2, 54, 95
4, 358720, Note_on_c, 2, 45, 95
4, 359040, Note_off_c, 2, 54, 0
4, 359040, Note_off_c, 2, 45, 0
4, 359040, Note_on_c, 2, 55, 95
4, 359040, Note_on_c, 2, 45, 95
4, 359360, Note_off_c, 2, 55, 0
4, 359360, Note_off_c, 2, 45, 0
4, 359680, Note_on_c, 2, 55, 95
4, 359680, Note_on_c, 2, 45, 95
4, 360000, Note_off_c, 2, 55, 0
4, 360000, Note_off_c, 2, 45, 0
4, 360000, Note_on_c, 2, 54, 95
4, 360000, Note_on_c, 2, 45, 95
4, 360320, Note_off_c, 2, 54, 0
4, 360320, Note_off_c, 2, 45, 0
4, 360640, Note_on_c, 2, 54, 95
4, 360640, Note_on_c, 2, 45, 95
4, 360960, Note_off_c, 2, 54, 0
4, 360960, Note_off_c, 2, 45, 0
4, 360960, Note_on_c, 2, 52, 95
4, 360960, Note_on_c, 2, 45, 95
4, 361280, Note_off_c, 2, 52, 0
4, 361280, Note_off_c, 2, 45, 0
4, 361600, Note_on_c, 2, 52, 95
4, 361600, Note_on_c, 2, 45, 95
4, 361920, Note_off_c, 2, 52, 0
4, 361920, Note_off_c, 2, 45, 0
4, 361920, Note_on_c, 2, 54, 95
4, 361920, Note_on_c, 2, 45, 95
4, 362240, Note_off_c, 2, 54, 0
4, 362240, Note_off_c, 2, 45, 0
4, 362560, Note_on_c, 2, 54, 95
4, 362560, Note_on_c, 2, 45, 95
4, 362880, Note_off_c, 2, 54, 0
4, 362880, Note_off_c, 2, 45, 0
4, 362880, Note_on_c, 2, 55, 95
4, 362880, Note_on_c, 2, 45, 95
4, 363200, Note_off_c, 2, 55, 0
4, 363200, Note_off_c, 2, 45, 0
4, 363520, Note_on_c, 2, 55, 95
4, 363520, Note_on_c, 2, 45, 95
4, 363840, Note_off_c, 2, 55, 0
4, 363840, Note_off_c, 2, 45, 0
4, 363840, Note_on_c, 2, 54, 95
4, 363840, Note_on_c, 2, 45, 95
4, 364160, Note_off_c, 2, 54, 0
4, 364160, Note_off_c, 2, 45, 0
4, 364480, Note_on_c, 2, 54, 95
4, 364480, Note_on_c, 2, 45, 95
4, 364800, Note_off_c, 2, 54, 0
4, 364800, Note_off_c, 2, 45, 0
4, 364800, Note_on_c, 2, 47, 95
4, 364800, Note_on_c, 2, 40, 95
4, 365120, Note_off_c, 2, 47, 0
4, 365120, Note_off_c, 2, 40, 0
4, 365440, Note_on_c, 2, 47, 95
4, 365440, Note_on_c, 2, 40, 95
4, 365760, Note_off_c, 2, 47, 0
4, 365760, Note_off_c, 2, 40, 0
4, 365760, Note_on_c, 2, 49, 95
4, 365760, Note_on_c, 2, 40, 95
4, 366080, Note_off_c, 2, 49, 0
4, 366080, Note_off_c, 2, 40, 0
4, 366400, Note_on_c, 2, 49, 95
4, 366400, Note_on_c, 2, 40, 95
4, 366720, Note_off_c, 2, 49, 0
4, 366720, Note_off_c, 2, 40, 0
4, 366720, Note_on_c, 2, 50, 95
4, 366720, Note_on_c, 2, 40, 95
4, 367040, Note_off_c, 2, 50, 0
4, 367040, Note_off_c, 2, 40, 0
4, 367360, Note_on_c, 2, 50, 95
4, 367360, Note_on_c, 2, 40, 95
4, 367680, Note_off_c, 2, 50, 0
4, 367680, Note_off_c, 2, 40, 0
4, 367680, Note_on_c, 2, 49, 95
4, 367680, Note_on_c, 2, 40, 95
4, 368000, Note_off_c, 2, 49, 0
4, 368000, Note_off_c, 2, 40, 0
4, 368320, Note_on_c, 2, 49, 95
4, 368320, Note_on_c, 2, 40, 95
4, 368640, Note_off_c, 2, 49, 0
4, 368640, Note_off_c, 2, 40, 0
4, 368640, Note_on_c, 2, 47, 95
4, 368640, Note_on_c, 2, 40, 95
4, 368960, Note_off_c, 2, 47, 0
4, 368960, Note_off_c, 2, 40, 0
4, 369280, Note_on_c, 2, 47, 95
4, 369280, Note_on_c, 2, 40, 95
4, 369600, Note_off_c, 2, 47, 0
4, 369600, Note_off_c, 2, 40, 0
4, 369600, Note_on_c, 2, 49, 95
4, 369600, Note_on_c, 2, 40, 95
4, 369920, Note_off_c, 2, 49, 0
4, 369920, Note_off_c, 2, 40, 0
4, 370240, Note_on_c, 2, 49, 95
4, 370240, Note_on_c, 2, 40, 95
4, 370560, Note_off_c, 2, 49, 0
4, 370560, Note_off_c, 2, 40, 0
4, 370560, Note_on_c, 2, 50, 95
4, 370560, Note_on_c, 2, 40, 95
4, 370880, Note_off_c, 2, 50, 0
4, 370880, Note_off_c, 2, 40, 0
4, 371200, Note_on_c, 2, 50, 95
4, 371200, Note_on_c, 2, 40, 95
4, 371520, Note_off_c, 2, 50, 0
4, 371520, Note_off_c, 2, 40, 0
4, 371520, Note_on_c, 2, 49, 95
4, 371520, Note_on_c, 2, 40, 95
4, 371840, Note_off_c, 2, 49, 0
4, 371840, Note_off_c, 2, 40, 0
4, 372160, Note_on_c, 2, 49, 95
4, 372160, Note_on_c, 2, 40, 95
4, 372480, Note_off_c, 2, 49, 0
4, 372480, Note_off_c, 2, 40, 0
4, 372480, Note_on_c, 2, 59, 95
4, 372480, Note_on_c, 2, 54, 95
4, 372480, Note_on_c, 2, 47, 95
4, 372800, Note_off_c, 2, 59, 0
4, 372800, Note_off_c, 2, 54, 0
4, 372800, Note_off_c, 2, 47, 0
4, 372800, Note_on_c, 2, 54, 95
4, 372800, Note_on_c, 2, 47, 95
4, 373120, Note_off_c, 2, 54, 0
4, 373120, Note_off_c, 2, 47, 0
4, 373120, Note_on_c, 2, 54, 95
4, 373120, Note_on_c, 2, 47, 95
4, 373440, Note_off_c, 2, 54, 0
4, 373440, Note_off_c, 2, 47, 0
4, 373440, Note_on_c, 2, 59, 95
4, 373440, Note_on_c, 2, 54, 95
4, 373440, Note_on_c, 2, 47, 95
4, 373760, Note_off_c, 2, 59, 0
4, 373760, Note_off_c, 2, 54, 0
4, 373760, Note_off_c, 2, 47, 0
4, 373760, Note_on_c, 2, 54, 95
4, 373760, Note_on_c, 2, 47, 95
4, 374080, Note_off_c, 2, 54, 0
4, 374080, Note_off_c, 2, 47, 0
4, 374080, Note_on_c, 2, 54, 95
4, 374080, Note_on_c, 2, 47, 95
4, 374400, Note_off_c, 2, 54, 0
4, 374400, Note_off_c, 2, 47, 0
4, 374400, Note_on_c, 2, 59, 95
4, 374400, Note_on_c, 2, 54, 95
4, 374400, Note_on_c, 2, 47, 95
4, 374720, Note_off_c, 2, 59, 0
4, 374720, Note_off_c, 2, 54, 0
4, 374720, Note_off_c, 2, 47, 0
4, 374720, Note_on_c, 2, 54, 95
4, 374720, Note_on_c, 2, 47, 95
4, 375040, Note_off_c, 2, 54, 0
4, 375040, Note_off_c, 2, 47, 0
4, 375040, Note_on_c, 2, 54, 95
4, 375040, Note_on_c, 2, 47, 95
4, 375360, Note_off_c, 2, 54, 0
4, 375360, Note_off_c, 2, 47, 0
4, 375360, Note_on_c, 2, 59, 95
4, 375360, Note_on_c, 2, 54, 95
4, 375360, Note_on_c, 2, 47, 95
4, 375680, Note_off_c, 2, 59, 0
4, 375680, Note_off_c, 2, 54, 0
4, 375680, Note_off_c, 2, 47, 0
4, 375680, Note_on_c, 2, 54, 95
4, 375680, Note_on_c, 2, 47, 95
4, 376000, Note_off_c, 2, 54, 0
4, 376000, Note_off_c, 2, 47, 0
4, 376000, Note_on_c, 2, 54, 95
4, 376000, Note_on_c, 2, 47, 95
4, 376320, Note_off_c, 2, 54, 0
4, 376320, Note_off_c, 2, 47, 0
4, 376320, Note_on_c, 2, 57, 95
4, 376320, Note_on_c, 2, 52, 95
4, 376320, Note_on_c, 2, 45, 95
4, 376640, Note_off_c, 2, 57, 0
4, 376640, Note_off_c, 2, 52, 0
4, 376640, Note_off_c, 2, 45, 0
4, 376640, Note_on_c, 2, 52, 95
4, 376640, Note_on_c, 2, 45, 95
4, 376960, Note_off_c, 2, 52, 0
4, 376960, Note_off_c, 2, 45, 0
4, 376960, Note_on_c, 2, 52, 95
4, 376960, Note_on_c, 2, 45, 95
4, 377280, Note_off_c, 2, 52, 0
4, 377280, Note_off_c, 2, 45, 0
4, 377280, Note_on_c, 2, 57, 95
4, 377280, Note_on_c, 2, 52, 95
4, 377280, Note_on_c, 2, 45, 95
4, 377600, Note_off_c, 2, 57, 0
4, 377600, Note_off_c, 2, 52, 0
4, 377600, Note_off_c, 2, 45, 0
4, 377600, Note_on_c, 2, 52, 95
4, 377600, Note_on_c, 2, 45, 95
4, 377920, Note_off_c, 2, 52, 0
4, 377920, Note_off_c, 2, 45, 0
4, 377920, Note_on_c, 2, 52, 95
4, 377920, Note_on_c, 2, 45, 95
4, 378240, Note_off_c, 2, 52, 0
4, 378240, Note_off_c, 2, 45, 0
4, 378240, Note_on_c, 2, 57, 95
4, 378240, Note_on_c, 2, 52, 95
4, 378240, Note_on_c, 2, 45, 95
4, 378560, Note_off_c, 2, 57, 0
4, 378560, Note_off_c, 2, 52, 0
4, 378560, Note_off_c, 2, 45, 0
4, 378560, Note_on_c, 2, 52, 95
4, 378560, Note_on_c, 2, 45, 95
4, 378880, Note_off_c, 2, 52, 0
4, 378880, Note_off_c, 2, 45, 0
4, 378880, Note_on_c, 2, 52, 95
4, 378880, Note_on_c, 2, 45, 95
4, 379200, Note_off_c, 2, 52, 0
4, 379200, Note_off_c, 2, 45, 0
4, 379200, Note_on_c, 2, 57, 95
4, 379200, Note_on_c, 2, 52, 95
4, 379200, Note_on_c, 2, 45, 95
4, 379520, Note_off_c, 2, 57, 0
4, 379520, Note_off_c, 2, 52, 0
4, 379520, Note_off_c, 2, 45, 0
4, 379520, Note_on_c, 2, 52, 95
4, 379520, Note_on_c, 2, 45, 95
4, 379840, Note_off_c, 2, 52, 0
4, 379840, Note_off_c, 2, 45, 0
4, 379840, Note_on_c, 2, 52, 95
4, 379840, Note_on_c, 2, 45, 95
4, 380160, Note_off_c, 2, 52, 0
4, 380160, Note_off_c, 2, 45, 0
4, 380640, Note_on_c, 2, 59, 95
4, 380880, Note_off_c, 2, 59, 0
4, 380880, Note_on_c, 2, 62, 95
4, 381120, Note_off_c, 2, 62, 0
4, 381120, Note_on_c, 2, 64, 95
4, 381600, Note_off_c, 2, 64, 0
4, 381600, Note_on_c, 2, 59, 95
4, 382080, Note_off_c, 2, 59, 0
4, 382080, Note_on_c, 2, 67, 95
4, 382400, Note_off_c, 2, 67, 0
4, 382400, Note_on_c, 2, 64, 95
4, 382720, Note_off_c, 2, 64, 0
4, 382720, Note_on_c, 2, 62, 95
4, 383040, Note_off_c, 2, 62, 0
4, 383040, Note_on_c, 2, 59, 95
4, 383360, Note_off_c, 2, 59, 0
4, 383360, Program_c, 0, 30
4, 383360, Note_on_c, 0, 57, 95
4, 383360, Control_c, 0, 101, 0
4, 383360, Control_c, 0, 100, 0
4, 383360, Control_c, 0, 6, 6
4, 383360, Control_c, 0, 38, 0
4, 383360, Pitch_bend_c, 0, 8192
4, 383392, Pitch_bend_c, 0, 9216
4, 383424, Pitch_bend_c, 0, 10240
4, 383440, Pitch_bend_c, 0, 10752
4, 383472, Pitch_bend_c, 0, 10752
4, 383504, Pitch_bend_c, 0, 10752
4, 383520, Pitch_bend_c, 0, 10752
4, 383552, Pitch_bend_c, 0, 9728
4, 383584, Pitch_bend_c, 0, 8704
4, 383600, Pitch_bend_c, 0, 8192
4, 383632, Pitch_bend_c, 0, 8192
4, 383664, Pitch_bend_c, 0, 8192
4, 383680, Note_off_c, 0, 57, 0
4, 383680, Pitch_bend_c, 0, 8192
4, 383680, Pitch_bend_c, 0, 8064
4, 383680, Control_c, 0, 101, 127
4, 383680, Control_c, 0, 10, 127
4, 383680, Note_on_c, 2, 55, 95
4, 384000, Note_off_c, 2, 55, 0
4, 384000, Note_on_c, 2, 57, 95
4, 384240, Note_off_c, 2, 57, 0
4, 384240, Note_on_c, 2, 55, 95
4, 384480, Note_off_c, 2, 55, 0
4, 384480, Note_on_c, 2, 52, 95
4, 384960, Note_off_c, 2, 52, 0
4, 384960, Note_on_c, 2, 40, 95
4, 385440, Note_off_c, 2, 40, 0
4, 385440, Note_on_c, 2, 57, 95
4, 385440, Note_on_c, 2, 53, 95
4, 385440, Note_on_c, 2, 48, 95
4, 385440, Note_on_c, 2, 41, 95
4, 389760, Note_off_c, 2, 57, 0
4, 389760, Note_off_c, 2, 53, 0
4, 389760, Note_off_c, 2, 48, 0
4, 389760, Note_off_c, 2, 41, 0
4, 389760, Note_on_c, 2, 59, 95
4, 389760, Note_on_c, 2, 56, 95
4, 389760, Note_on_c, 2, 52, 95
4, 389760, Note_on_c, 2, 47, 95
4, 389760, Note_on_c, 2, 40, 95
4, 395520, Note_off_c, 2, 59, 0
4, 397440, Note_off_c, 2, 56, 0
4, 397440, Note_off_c, 2, 52, 0
4, 397440, Note_off_c, 2, 47, 0
4, 397440, Note_off_c, 2, 40, 0
4, 397440, Note_on_c, 2, 56, 95
4, 397440, Note_on_c, 2, 52, 95
4, 397440, Note_on_c, 2, 47, 95
4, 397440, Note_on_c, 2, 40, 95
4, 397920, Note_off_c, 2, 56, 0
4, 397920, Note_off_c, 2, 52, 0
4, 397920, Note_off_c, 2, 47, 0
4, 397920, Note_off_c, 2, 40, 0
4, 397920, End_track
0, 0, End_of_file
