2, 0, Note_on_c, 9, 36, 95
2, 0, Note_on_c, 9, 38, 95
2, 0, Note_on_c, 9, 49, 95
2, 120, Note_on_c, 9, 36, 95
2, 120, Note_on_c, 9, 38, 95
2, 120, Note_on_c, 9, 49, 95
2, 240, Note_on_c, 9, 36, 95
2, 240, Note_on_c, 9, 38, 95
2, 240, Note_on_c, 9, 49, 95
2, 360, Note_on_c, 9, 36, 95
2, 360, Note_on_c, 9, 38, 95
2, 360, Note_on_c, 9, 49, 95
2, 480, Note_on_c, 9, 36, 95
2, 480, Note_on_c, 9, 38, 95
2, 480, Note_on_c, 9, 49, 95
2, 600, Note_on_c, 9, 36, 95
2, 600, Note_on_c, 9, 38, 95
2, 600, Note_on_c, 9, 49, 95
2, 720, Note_on_c, 9, 36, 95
2, 720, Note_on_c, 9, 38, 95
2, 720, Note_on_c, 9, 49, 95
2, 840, Note_on_c, 9, 36, 95
2, 840, Note_on_c, 9, 38, 95
2, 840, Note_on_c, 9, 49, 95
2, 960, Note_on_c, 9, 36, 95
2, 960, Note_on_c, 9, 38, 95
2, 960, Note_on_c, 9, 49, 95
2, 1080, Note_on_c, 9, 36, 95
2, 1080, Note_on_c, 9, 38, 95
2, 1080, Note_on_c, 9, 49, 95
2, 1200, Note_on_c, 9, 36, 95
2, 1200, Note_on_c, 9, 38, 95
2, 1200, Note_on_c, 9, 49, 95
2, 1320, Note_on_c, 9, 36, 95
2, 1320, Note_on_c, 9, 38, 95
2, 1320, Note_on_c, 9, 49, 95
2, 1440, Note_on_c, 9, 36, 95
2, 1440, Note_on_c, 9, 38, 95
2, 1440, Note_on_c, 9, 49, 95
2, 1560, Note_on_c, 9, 36, 95
2, 1560, Note_on_c, 9, 38, 95
2, 1560, Note_on_c, 9, 49, 95
2, 1680, Note_on_c, 9, 36, 95
2, 1680, Note_on_c, 9, 38, 95
2, 1680, Note_on_c, 9, 49, 95
2, 1800, Note_on_c, 9, 36, 95
2, 1800, Note_on_c, 9, 38, 95
2, 1800, Note_on_c, 9, 49, 95
2, 1920, Note_on_c, 9, 36, 95
2, 1920, Note_on_c, 9, 38, 95
2, 1920, Note_on_c, 9, 49, 95
2, 2040, Note_on_c, 9, 36, 95
2, 2040, Note_on_c, 9, 38, 95
2, 2040, Note_on_c, 9, 49, 95
2, 2160, Note_on_c, 9, 36, 95
2, 2160, Note_on_c, 9, 38, 95
2, 2160, Note_on_c, 9, 49, 95
2, 2280, Note_on_c, 9, 36, 95
2, 2280, Note_on_c, 9, 38, 95
2, 2280, Note_on_c, 9, 49, 95
2, 2400, Note_on_c, 9, 36, 95
2, 2400, Note_on_c, 9, 38, 95
2, 2400, Note_on_c, 9, 49, 95
2, 2520, Note_on_c, 9, 36, 95
2, 2520, Note_on_c, 9, 38, 95
2, 2520, Note_on_c, 9, 49, 95
2, 2640, Note_on_c, 9, 36, 95
2, 2640, Note_on_c, 9, 38, 95
2, 2640, Note_on_c, 9, 49, 95
2, 2760, Note_on_c, 9, 36, 95
2, 2760, Note_on_c, 9, 38, 95
2, 2760, Note_on_c, 9, 49, 95
2, 2880, Note_on_c, 9, 36, 95
2, 2880, Note_on_c, 9, 38, 95
2, 2880, Note_on_c, 9, 49, 95
2, 3000, Note_on_c, 9, 36, 95
2, 3000, Note_on_c, 9, 38, 95
2, 3000, Note_on_c, 9, 49, 95
2, 3120, Note_on_c, 9, 36, 95
2, 3120, Note_on_c, 9, 38, 95
2, 3120, Note_on_c, 9, 49, 95
2, 3240, Note_on_c, 9, 36, 95
2, 3240, Note_on_c, 9, 38, 95
2, 3240, Note_on_c, 9, 49, 95
2, 3360, Note_on_c, 9, 36, 95
2, 3360, Note_on_c, 9, 38, 95
2, 3360, Note_on_c, 9, 49, 95
2, 3480, Note_on_c, 9, 36, 95
2, 3480, Note_on_c, 9, 38, 95
2, 3480, Note_on_c, 9, 49, 95
2, 3600, Note_on_c, 9, 36, 95
2, 3600, Note_on_c, 9, 38, 95
2, 3600, Note_on_c, 9, 49, 95
2, 3720, Note_on_c, 9, 36, 95
2, 3720, Note_on_c, 9, 38, 95
2, 3720, Note_on_c, 9, 49, 95
2, 3840, Note_on_c, 9, 36, 95
2, 3840, Note_on_c, 9, 38, 95
2, 3840, Note_on_c, 9, 49, 95
2, 3960, Note_on_c, 9, 36, 95
2, 3960, Note_on_c, 9, 38, 95
2, 3960, Note_on_c, 9, 49, 95
2, 4080, Note_on_c, 9, 36, 95
2, 4080, Note_on_c, 9, 38, 95
2, 4080, Note_on_c, 9, 49, 95
2, 4200, Note_on_c, 9, 36, 95
2, 4200, Note_on_c, 9, 38, 95
2, 4200, Note_on_c, 9, 49, 95
2, 4320, Note_on_c, 9, 36, 95
2, 4320, Note_on_c, 9, 38, 95
2, 4320, Note_on_c, 9, 49, 95
2, 4440, Note_on_c, 9, 36, 95
2, 4440, Note_on_c, 9, 38, 95
2, 4440, Note_on_c, 9, 49, 95
2, 4560, Note_on_c, 9, 36, 95
2, 4560, Note_on_c, 9, 38, 95
2, 4560, Note_on_c, 9, 49, 95
2, 4680, Note_on_c, 9, 36, 95
2, 4680, Note_on_c, 9, 38, 95
2, 4680, Note_on_c, 9, 49, 95
2, 4800, Note_on_c, 9, 36, 95
2, 4800, Note_on_c, 9, 38, 95
2, 4800, Note_on_c, 9, 49, 95
2, 4920, Note_on_c, 9, 36, 95
2, 4920, Note_on_c, 9, 38, 95
2, 4920, Note_on_c, 9, 49, 95
2, 5040, Note_on_c, 9, 36, 95
2, 5040, Note_on_c, 9, 38, 95
2, 5040, Note_on_c, 9, 49, 95
2, 5160, Note_on_c, 9, 36, 95
2, 5160, Note_on_c, 9, 38, 95
2, 5160, Note_on_c, 9, 49, 95
2, 5280, Note_on_c, 9, 36, 95
2, 5280, Note_on_c, 9, 38, 95
2, 5280, Note_on_c, 9, 49, 95
2, 5400, Note_on_c, 9, 36, 95
2, 5400, Note_on_c, 9, 38, 95
2, 5400, Note_on_c, 9, 49, 95
2, 5520, Note_on_c, 9, 36, 95
2, 5520, Note_on_c, 9, 38, 95
2, 5520, Note_on_c, 9, 49, 95
2, 5640, Note_on_c, 9, 36, 95
2, 5640, Note_on_c, 9, 38, 95
2, 5640, Note_on_c, 9, 49, 95
2, 5760, Note_on_c, 9, 36, 95
2, 5760, Note_on_c, 9, 38, 95
2, 5760, Note_on_c, 9, 49, 95
2, 5880, Note_on_c, 9, 36, 95
2, 5880, Note_on_c, 9, 38, 95
2, 5880, Note_on_c, 9, 49, 95
2, 6000, Note_on_c, 9, 36, 95
2, 6000, Note_on_c, 9, 38, 95
2, 6000, Note_on_c, 9, 49, 95
2, 6120, Note_on_c, 9, 36, 95
2, 6120, Note_on_c, 9, 38, 95
2, 6120, Note_on_c, 9, 49, 95
2, 6240, Note_on_c, 9, 36, 95
2, 6240, Note_on_c, 9, 38, 95
2, 6240, Note_on_c, 9, 49, 95
2, 6360, Note_on_c, 9, 36, 95
2, 6360, Note_on_c, 9, 38, 95
2, 6360, Note_on_c, 9, 49, 95
2, 6480, Note_on_c, 9, 36, 95
2, 6480, Note_on_c, 9, 38, 95
2, 6480, Note_on_c, 9, 49, 95
2, 6600, Note_on_c, 9, 36, 95
2, 6600, Note_on_c, 9, 38, 95
2, 6600, Note_on_c, 9, 49, 95
2, 6720, Note_on_c, 9, 36, 95
2, 6720, Note_on_c, 9, 38, 95
2, 6720, Note_on_c, 9, 49, 95
2, 6840, Note_on_c, 9, 36, 95
2, 6840, Note_on_c, 9, 38, 95
2, 6840, Note_on_c, 9, 49, 95
2, 6960, Note_on_c, 9, 36, 95
2, 6960, Note_on_c, 9, 38, 95
2, 6960, Note_on_c, 9, 49, 95
2, 7080, Note_on_c, 9, 38, 95
2, 7080, Note_on_c, 9, 49, 95
2, 7200, Note_on_c, 9, 38, 95
2, 7200, Note_on_c, 9, 49, 95
2, 7320, Note_on_c, 9, 38, 95
2, 7320, Note_on_c, 9, 49, 95
2, 7440, Note_on_c, 9, 38, 95
2, 7440, Note_on_c, 9, 49, 95
2, 7560, Note_on_c, 9, 38, 95
2, 7560, Note_on_c, 9, 49, 95
2, 7680, Note_on_c, 9, 38, 95
2, 7680, Note_on_c, 9, 49, 95
2, 7800, Note_on_c, 9, 38, 95
2, 7800, Note_on_c, 9, 49, 95
2, 7920, Note_on_c, 9, 38, 95
2, 7920, Note_on_c, 9, 49, 95
2, 8040, Note_on_c, 9, 38, 95
2, 8040, Note_on_c, 9, 49, 95
2, 8160, Note_on_c, 9, 38, 95
2, 8160, Note_on_c, 9, 49, 95
2, 8280, Note_on_c, 9, 38, 95
2, 8280, Note_on_c, 9, 49, 95
2, 8400, Note_on_c, 9, 38, 95
2, 8400, Note_on_c, 9, 49, 95
2, 8520, Note_on_c, 9, 38, 95
2, 8520, Note_on_c, 9, 49, 95
2, 8640, Note_on_c, 9, 38, 95
2, 8640, Note_on_c, 9, 49, 95
2, 8760, Note_on_c, 9, 38, 95
2, 8760, Note_on_c, 9, 49, 95
2, 8880, Note_on_c, 9, 38, 95
2, 8880, Note_on_c, 9, 49, 95
2, 9000, Note_on_c, 9, 38, 95
2, 9000, Note_on_c, 9, 49, 95
2, 9120, Note_on_c, 9, 38, 95
2, 9120, Note_on_c, 9, 49, 95
2, 9240, Note_on_c, 9, 38, 95
2, 9240, Note_on_c, 9, 49, 95
2, 9360, Note_on_c, 9, 38, 95
2, 9360, Note_on_c, 9, 49, 95
2, 9480, Note_on_c, 9, 38, 95
2, 9480, Note_on_c, 9, 49, 95
2, 9600, Note_on_c, 9, 38, 95
2, 9600, Note_on_c, 9, 49, 95
2, 9720, Note_on_c, 9, 38, 95
2, 9720, Note_on_c, 9, 49, 95
2, 9840, Note_on_c, 9, 38, 95
2, 9840, Note_on_c, 9, 49, 95
2, 9960, Note_on_c, 9, 38, 95
2, 9960, Note_on_c, 9, 49, 95
2, 9960, Note_on_c, 9, 42, 95
2, 10080, Note_off_c, 9, 0, 0
2, 10080, Note_on_c, 9, 38, 95
2, 10080, Note_on_c, 9, 49, 95
2, 10080, Note_on_c, 9, 42, 95
2, 10200, Note_off_c, 9, 0, 0
2, 10200, Note_on_c, 9, 38, 95
2, 10200, Note_on_c, 9, 49, 95
2, 10200, Note_on_c, 9, 42, 95
2, 10320, Note_off_c, 9, 0, 0
2, 10320, Note_on_c, 9, 38, 95
2, 10320, Note_on_c, 9, 49, 95
2, 10320, Note_on_c, 9, 42, 95
2, 10440, Note_off_c, 9, 0, 0
2, 10440, Note_on_c, 9, 38, 95
2, 10440, Note_on_c, 9, 49, 95
2, 10440, Note_on_c, 9, 42, 95
2, 10560, Note_off_c, 9, 0, 0
2, 10560, Note_on_c, 9, 38, 95
2, 10560, Note_on_c, 9, 49, 95
2, 10560, Note_on_c, 9, 42, 95
2, 10680, Note_off_c, 9, 0, 0
2, 10680, Note_on_c, 9, 38, 95
2, 10680, Note_on_c, 9, 49, 95
2, 10680, Note_on_c, 9, 42, 95
2, 10800, Note_off_c, 9, 0, 0
2, 10800, Note_on_c, 9, 38, 95
2, 10800, Note_on_c, 9, 42, 95
2, 10920, Note_off_c, 9, 0, 0
2, 10920, Note_on_c, 9, 38, 95
2, 10920, Note_on_c, 9, 42, 95
2, 11040, Note_off_c, 9, 0, 0
2, 11040, Note_on_c, 9, 38, 95
2, 11040, Note_on_c, 9, 42, 95
2, 11160, Note_off_c, 9, 0, 0
2, 11160, Note_on_c, 9, 38, 95
2, 11160, Note_on_c, 9, 42, 95
2, 11280, Note_off_c, 9, 0, 0
2, 11280, Note_on_c, 9, 38, 95
2, 11280, Note_on_c, 9, 42, 95
2, 11400, Note_off_c, 9, 0, 0
2, 11400, Note_on_c, 9, 38, 95
2, 11400, Note_on_c, 9, 42, 95
2, 11520, Note_off_c, 9, 0, 0
2, 11520, Note_on_c, 9, 38, 95
2, 11520, Note_on_c, 9, 42, 95
2, 11640, Note_off_c, 9, 0, 0
2, 11640, Note_on_c, 9, 38, 95
2, 11640, Note_on_c, 9, 42, 95
2, 11760, Note_off_c, 9, 0, 0
2, 11760, Note_on_c, 9, 38, 95
2, 11760, Note_on_c, 9, 42, 95
2, 11880, Note_off_c, 9, 0, 0
2, 11880, Note_on_c, 9, 38, 95
2, 11880, Note_on_c, 9, 42, 95
2, 12000, Note_off_c, 9, 0, 0
2, 12000, Note_on_c, 9, 38, 95
2, 12000, Note_on_c, 9, 42, 95
2, 12120, Note_off_c, 9, 0, 0
2, 12120, Note_on_c, 9, 38, 95
2, 12120, Note_on_c, 9, 42, 95
2, 12240, Note_off_c, 9, 0, 0
2, 12240, Note_on_c, 9, 38, 95
2, 12240, Note_on_c, 9, 42, 95
2, 12360, Note_off_c, 9, 0, 0
2, 12360, Note_on_c, 9, 38, 95
2, 12360, Note_on_c, 9, 42, 95
2, 12480, Note_off_c, 9, 0, 0
2, 12480, Note_on_c, 9, 38, 95
2, 12480, Note_on_c, 9, 42, 95
2, 12600, Note_off_c, 9, 0, 0
2, 12600, Note_on_c, 9, 38, 95
2, 12600, Note_on_c, 9, 42, 95
2, 12720, Note_off_c, 9, 0, 0
2, 12720, Note_on_c, 9, 38, 95
2, 12720, Note_on_c, 9, 42, 95
2, 12840, Note_off_c, 9, 0, 0
2, 12840, Note_on_c, 9, 38, 95
2, 12840, Note_on_c, 9, 42, 95
2, 12960, Note_off_c, 9, 0, 0
2, 12960, Note_on_c, 9, 38, 95
2, 12960, Note_on_c, 9, 42, 95
2, 13080, Note_off_c, 9, 0, 0
2, 13080, Note_on_c, 9, 38, 95
2, 13080, Note_on_c, 9, 42, 95
2, 13200, Note_off_c, 9, 0, 0
2, 13200, Note_on_c, 9, 38, 95
2, 13200, Note_on_c, 9, 42, 95
2, 13320, Note_off_c, 9, 0, 0
2, 13320, Note_on_c, 9, 38, 95
2, 13320, Note_on_c, 9, 42, 95
2, 13440, Note_off_c, 9, 0, 0
2, 13440, Note_on_c, 9, 38, 95
2, 13440, Note_on_c, 9, 42, 95
2, 13560, Note_off_c, 9, 0, 0
2, 13560, Note_on_c, 9, 38, 95
2, 13560, Note_on_c, 9, 42, 95
2, 13680, Note_off_c, 9, 0, 0
2, 13680, Note_on_c, 9, 38, 95
2, 13680, Note_on_c, 9, 42, 95
2, 13800, Note_off_c, 9, 0, 0
2, 13800, Note_on_c, 9, 38, 95
2, 13800, Note_on_c, 9, 42, 95
2, 13920, Note_off_c, 9, 0, 0
2, 13920, Note_on_c, 9, 38, 95
2, 13920, Note_on_c, 9, 42, 95
2, 14040, Note_off_c, 9, 0, 0
2, 14040, Note_on_c, 9, 38, 95
2, 14040, Note_on_c, 9, 42, 95
2, 14160, Note_off_c, 9, 0, 0
2, 14160, Note_on_c, 9, 38, 95
2, 14160, Note_on_c, 9, 42, 95
2, 14280, Note_off_c, 9, 0, 0
2, 14280, Note_on_c, 9, 38, 95
2, 14280, Note_on_c, 9, 42, 95
2, 14400, Note_off_c, 9, 0, 0
2, 14400, Note_on_c, 9, 38, 95
2, 14400, Note_on_c, 9, 42, 95
2, 14520, Note_off_c, 9, 0, 0
2, 14520, Note_on_c, 9, 38, 95
2, 14520, Note_on_c, 9, 42, 95
2, 14640, Note_off_c, 9, 0, 0
2, 14640, Note_on_c, 9, 42, 95
2, 14760, Note_off_c, 9, 0, 0
2, 14760, Note_on_c, 9, 42, 95
2, 14880, Note_off_c, 9, 0, 0
2, 14880, Note_on_c, 9, 42, 95
2, 15000, Note_off_c, 9, 0, 0
2, 15000, Note_on_c, 9, 42, 95
2, 15120, Note_off_c, 9, 0, 0
2, 15120, Note_on_c, 9, 42, 95
2, 15240, Note_off_c, 9, 0, 0
2, 15240, Note_on_c, 9, 42, 95
2, 15360, Note_off_c, 9, 0, 0
2, 15360, Note_on_c, 9, 42, 95
2, 15480, Note_off_c, 9, 0, 0
2, 53760, Note_on_c, 9, 36, 95
2, 53760, Note_on_c, 9, 42, 95
2, 53880, Note_off_c, 9, 0, 0
2, 54720, Note_on_c, 9, 36, 95
2, 54720, Note_on_c, 9, 38, 95
2, 54720, Note_on_c, 9, 42, 95
2, 54840, Note_off_c, 9, 0, 0
2, 54840, Note_on_c, 9, 36, 95
2, 54840, Note_on_c, 9, 42, 95
2, 54960, Note_off_c, 9, 0, 0
2, 54960, Note_on_c, 9, 42, 95
2, 55080, Note_off_c, 9, 0, 0
2, 55200, Note_on_c, 9, 36, 95
2, 55200, Note_on_c, 9, 42, 95
2, 55320, Note_off_c, 9, 0, 0
2, 56400, Note_on_c, 9, 36, 95
2, 56400, Note_on_c, 9, 38, 95
2, 56400, Note_on_c, 9, 42, 95
2, 56520, Note_off_c, 9, 0, 0
2, 56520, Note_on_c, 9, 36, 95
2, 56520, Note_on_c, 9, 42, 95
2, 56640, Note_off_c, 9, 0, 0
2, 56640, Note_on_c, 9, 36, 95
2, 56640, Note_on_c, 9, 42, 95
2, 56760, Note_off_c, 9, 0, 0
2, 56880, Note_on_c, 9, 36, 95
2, 56880, Note_on_c, 9, 42, 95
2, 57000, Note_off_c, 9, 0, 0
2, 58080, Note_on_c, 9, 36, 95
2, 58080, Note_on_c, 9, 38, 95
2, 58080, Note_on_c, 9, 42, 95
2, 58200, Note_off_c, 9, 0, 0
2, 58200, Note_on_c, 9, 36, 95
2, 58200, Note_on_c, 9, 42, 95
2, 58320, Note_off_c, 9, 0, 0
2, 58320, Note_on_c, 9, 42, 95
2, 58440, Note_off_c, 9, 0, 0
2, 58560, Note_on_c, 9, 36, 95
2, 58560, Note_on_c, 9, 42, 95
2, 58680, Note_off_c, 9, 0, 0
2, 58680, Note_on_c, 9, 42, 95
2, 58800, Note_off_c, 9, 0, 0
2, 58800, Note_on_c, 9, 42, 95
2, 58920, Note_off_c, 9, 0, 0
2, 59040, Note_on_c, 9, 36, 95
2, 59040, Note_on_c, 9, 42, 95
2, 59160, Note_off_c, 9, 0, 0
2, 60240, Note_on_c, 9, 36, 95
2, 60240, Note_on_c, 9, 38, 95
2, 60240, Note_on_c, 9, 42, 95
2, 60360, Note_off_c, 9, 0, 0
2, 60360, Note_on_c, 9, 36, 95
2, 60360, Note_on_c, 9, 42, 95
2, 60480, Note_off_c, 9, 0, 0
2, 60480, Note_on_c, 9, 36, 95
2, 60480, Note_on_c, 9, 42, 95
2, 60600, Note_off_c, 9, 0, 0
2, 60720, Note_on_c, 9, 36, 95
2, 60720, Note_on_c, 9, 42, 95
2, 60840, Note_off_c, 9, 0, 0
2, 61920, Note_on_c, 9, 36, 95
2, 61920, Note_on_c, 9, 42, 95
2, 62040, Note_off_c, 9, 0, 0
2, 62040, Note_on_c, 9, 42, 95
2, 62160, Note_off_c, 9, 0, 0
2, 62160, Note_on_c, 9, 42, 95
2, 62280, Note_off_c, 9, 0, 0
2, 62400, Note_on_c, 9, 36, 95
2, 62400, Note_on_c, 9, 42, 95
2, 62520, Note_off_c, 9, 0, 0
2, 62880, Note_on_c, 9, 36, 95
2, 62880, Note_on_c, 9, 42, 95
2, 63000, Note_off_c, 9, 0, 0
2, 63360, Note_on_c, 9, 36, 95
2, 63360, Note_on_c, 9, 42, 95
2, 63480, Note_off_c, 9, 0, 0
2, 64080, Note_on_c, 9, 36, 95
2, 64080, Note_on_c, 9, 42, 95
2, 64200, Note_off_c, 9, 0, 0
2, 64560, Note_on_c, 9, 36, 95
2, 64560, Note_on_c, 9, 42, 95
2, 64680, Note_off_c, 9, 0, 0
2, 66240, Note_on_c, 9, 36, 95
2, 66240, Note_on_c, 9, 42, 95
2, 66360, Note_off_c, 9, 0, 0
2, 66360, Note_on_c, 9, 36, 95
2, 66360, Note_on_c, 9, 42, 95
2, 66480, Note_off_c, 9, 0, 0
2, 66480, Note_on_c, 9, 36, 95
2, 66480, Note_on_c, 9, 42, 95
2, 66600, Note_off_c, 9, 0, 0
2, 66720, Note_on_c, 9, 36, 95
2, 66720, Note_on_c, 9, 42, 95
2, 66840, Note_off_c, 9, 0, 0
2, 67920, Note_on_c, 9, 36, 95
2, 67920, Note_on_c, 9, 42, 95
2, 68040, Note_off_c, 9, 0, 0
2, 68040, Note_on_c, 9, 36, 95
2, 68040, Note_on_c, 9, 42, 95
2, 68160, Note_off_c, 9, 0, 0
2, 68160, Note_on_c, 9, 42, 95
2, 68280, Note_off_c, 9, 0, 0
2, 68400, Note_on_c, 9, 36, 95
2, 68400, Note_on_c, 9, 42, 95
2, 68520, Note_off_c, 9, 0, 0
2, 70080, Note_on_c, 9, 36, 95
2, 70080, Note_on_c, 9, 42, 95
2, 70200, Note_off_c, 9, 0, 0
2, 70200, Note_on_c, 9, 36, 95
2, 70200, Note_on_c, 9, 42, 95
2, 70320, Note_off_c, 9, 0, 0
2, 70320, Note_on_c, 9, 42, 95
2, 70440, Note_off_c, 9, 0, 0
2, 70560, Note_on_c, 9, 36, 95
2, 70560, Note_on_c, 9, 42, 95
2, 70680, Note_off_c, 9, 0, 0
2, 71760, Note_on_c, 9, 36, 95
2, 71760, Note_on_c, 9, 42, 95
2, 71880, Note_off_c, 9, 0, 0
2, 71880, Note_on_c, 9, 36, 95
2, 71880, Note_on_c, 9, 42, 95
2, 72000, Note_off_c, 9, 0, 0
2, 72000, Note_on_c, 9, 42, 95
2, 72120, Note_off_c, 9, 0, 0
2, 72240, Note_on_c, 9, 36, 95
2, 72240, Note_on_c, 9, 42, 95
2, 72360, Note_off_c, 9, 0, 0
2, 73440, Note_on_c, 9, 36, 95
2, 73440, Note_on_c, 9, 42, 95
2, 73560, Note_off_c, 9, 0, 0
2, 73560, Note_on_c, 9, 36, 95
2, 73560, Note_on_c, 9, 42, 95
2, 73680, Note_off_c, 9, 0, 0
2, 73680, Note_on_c, 9, 42, 95
2, 73800, Note_off_c, 9, 0, 0
2, 73920, Note_on_c, 9, 36, 95
2, 73920, Note_on_c, 9, 42, 95
2, 74040, Note_off_c, 9, 0, 0
2, 74040, Note_on_c, 9, 42, 95
2, 74160, Note_off_c, 9, 0, 0
2, 74160, Note_on_c, 9, 42, 95
2, 74280, Note_off_c, 9, 0, 0
2, 74400, Note_on_c, 9, 36, 95
2, 74400, Note_on_c, 9, 42, 95
2, 74520, Note_off_c, 9, 0, 0
2, 75600, Note_on_c, 9, 36, 95
2, 75600, Note_on_c, 9, 38, 95
2, 75600, Note_on_c, 9, 42, 95
2, 75720, Note_off_c, 9, 0, 0
2, 75720, Note_on_c, 9, 36, 95
2, 75720, Note_on_c, 9, 42, 95
2, 75840, Note_off_c, 9, 0, 0
2, 75840, Note_on_c, 9, 36, 95
2, 75840, Note_on_c, 9, 42, 95
2, 75960, Note_off_c, 9, 0, 0
2, 76080, Note_on_c, 9, 36, 95
2, 76080, Note_on_c, 9, 42, 95
2, 76200, Note_off_c, 9, 0, 0
2, 77280, Note_on_c, 9, 36, 95
2, 77280, Note_on_c, 9, 38, 95
2, 77280, Note_on_c, 9, 42, 95
2, 77400, Note_off_c, 9, 0, 0
2, 77400, Note_on_c, 9, 36, 95
2, 77400, Note_on_c, 9, 42, 95
2, 77520, Note_off_c, 9, 0, 0
2, 77520, Note_on_c, 9, 42, 95
2, 77640, Note_off_c, 9, 0, 0
2, 77760, Note_on_c, 9, 36, 95
2, 77760, Note_on_c, 9, 42, 95
2, 77880, Note_off_c, 9, 0, 0
2, 78240, Note_on_c, 9, 36, 95
2, 78240, Note_on_c, 9, 42, 95
2, 78360, Note_off_c, 9, 0, 0
2, 78720, Note_on_c, 9, 36, 95
2, 78720, Note_on_c, 9, 42, 95
2, 78840, Note_off_c, 9, 0, 0
2, 79440, Note_on_c, 9, 36, 95
2, 79440, Note_on_c, 9, 42, 95
2, 79560, Note_off_c, 9, 0, 0
2, 79920, Note_on_c, 9, 36, 95
2, 79920, Note_on_c, 9, 42, 95
2, 80040, Note_off_c, 9, 0, 0
2, 81600, Note_on_c, 9, 36, 95
2, 81600, Note_on_c, 9, 38, 95
2, 81600, Note_on_c, 9, 42, 95
2, 81720, Note_off_c, 9, 0, 0
2, 81720, Note_on_c, 9, 36, 95
2, 81720, Note_on_c, 9, 42, 95
2, 81840, Note_off_c, 9, 0, 0
2, 81840, Note_on_c, 9, 42, 95
2, 81960, Note_off_c, 9, 0, 0
2, 82080, Note_on_c, 9, 36, 95
2, 82080, Note_on_c, 9, 42, 95
2, 82200, Note_off_c, 9, 0, 0
2, 83280, Note_on_c, 9, 36, 95
2, 83280, Note_on_c, 9, 38, 95
2, 83280, Note_on_c, 9, 42, 95
2, 83400, Note_off_c, 9, 0, 0
2, 83400, Note_on_c, 9, 36, 95
2, 83400, Note_on_c, 9, 42, 95
2, 83520, Note_off_c, 9, 0, 0
2, 83520, Note_on_c, 9, 42, 95
2, 83640, Note_off_c, 9, 0, 0
2, 83760, Note_on_c, 9, 36, 95
2, 83760, Note_on_c, 9, 42, 95
2, 83880, Note_off_c, 9, 0, 0
2, 85440, Note_on_c, 9, 36, 95
2, 85440, Note_on_c, 9, 38, 95
2, 85440, Note_on_c, 9, 42, 95
2, 85560, Note_off_c, 9, 0, 0
2, 85560, Note_on_c, 9, 36, 95
2, 85560, Note_on_c, 9, 42, 95
2, 85680, Note_off_c, 9, 0, 0
2, 85680, Note_on_c, 9, 42, 95
2, 85800, Note_off_c, 9, 0, 0
2, 85920, Note_on_c, 9, 36, 95
2, 85920, Note_on_c, 9, 42, 95
2, 86040, Note_off_c, 9, 0, 0
2, 87120, Note_on_c, 9, 36, 95
2, 87120, Note_on_c, 9, 38, 95
2, 87120, Note_on_c, 9, 42, 95
2, 87240, Note_off_c, 9, 0, 0
2, 87240, Note_on_c, 9, 36, 95
2, 87240, Note_on_c, 9, 42, 95
2, 87360, Note_off_c, 9, 0, 0
2, 87360, Note_on_c, 9, 42, 95
2, 87480, Note_off_c, 9, 0, 0
2, 87600, Note_on_c, 9, 36, 95
2, 87600, Note_on_c, 9, 42, 95
2, 87720, Note_off_c, 9, 0, 0
2, 89280, Note_on_c, 9, 36, 95
2, 89280, Note_on_c, 9, 38, 95
2, 89280, Note_on_c, 9, 42, 95
2, 89400, Note_off_c, 9, 0, 0
2, 89400, Note_on_c, 9, 36, 95
2, 89400, Note_on_c, 9, 42, 95
2, 89520, Note_off_c, 9, 0, 0
2, 89520, Note_on_c, 9, 42, 95
2, 89640, Note_off_c, 9, 0, 0
2, 89760, Note_on_c, 9, 36, 95
2, 89760, Note_on_c, 9, 42, 95
2, 89880, Note_off_c, 9, 0, 0
2, 90960, Note_on_c, 9, 36, 95
2, 90960, Note_on_c, 9, 38, 95
2, 90960, Note_on_c, 9, 42, 95
2, 91080, Note_off_c, 9, 0, 0
2, 91080, Note_on_c, 9, 36, 95
2, 91080, Note_on_c, 9, 42, 95
2, 91200, Note_off_c, 9, 0, 0
2, 91200, Note_on_c, 9, 42, 95
2, 91320, Note_off_c, 9, 0, 0
2, 91440, Note_on_c, 9, 36, 95
2, 91440, Note_on_c, 9, 42, 95
2, 91560, Note_off_c, 9, 0, 0
2, 93120, Note_on_c, 9, 36, 95
2, 93120, Note_on_c, 9, 42, 95
2, 93240, Note_off_c, 9, 0, 0
2, 93600, Note_on_c, 9, 36, 95
2, 93600, Note_on_c, 9, 42, 95
2, 93720, Note_off_c, 9, 0, 0
2, 94080, Note_on_c, 9, 36, 95
2, 94080, Note_on_c, 9, 42, 95
2, 94200, Note_off_c, 9, 0, 0
2, 94800, Note_on_c, 9, 36, 95
2, 94800, Note_on_c, 9, 42, 95
2, 94920, Note_off_c, 9, 0, 0
2, 95280, Note_on_c, 9, 36, 95
2, 95280, Note_on_c, 9, 42, 95
2, 95400, Note_off_c, 9, 0, 0
2, 96960, Note_on_c, 9, 36, 95
2, 96960, Note_on_c, 9, 38, 95
2, 96960, Note_on_c, 9, 42, 95
2, 97080, Note_off_c, 9, 0, 0
2, 97080, Note_on_c, 9, 42, 95
2, 97200, Note_off_c, 9, 0, 0
2, 97200, Note_on_c, 9, 42, 95
2, 97320, Note_off_c, 9, 0, 0
2, 97440, Note_on_c, 9, 36, 95
2, 97440, Note_on_c, 9, 42, 95
2, 97560, Note_off_c, 9, 0, 0
2, 98640, Note_on_c, 9, 36, 95
2, 98640, Note_on_c, 9, 38, 95
2, 98640, Note_on_c, 9, 42, 95
2, 98760, Note_off_c, 9, 0, 0
2, 98760, Note_on_c, 9, 42, 95
2, 98880, Note_off_c, 9, 0, 0
2, 98880, Note_on_c, 9, 42, 95
2, 99000, Note_off_c, 9, 0, 0
2, 99120, Note_on_c, 9, 36, 95
2, 99120, Note_on_c, 9, 42, 95
2, 99240, Note_off_c, 9, 0, 0
2, 106080, Note_on_c, 9, 36, 95
2, 106080, Note_on_c, 9, 42, 95
2, 106200, Note_off_c, 9, 0, 0
2, 113760, Note_on_c, 9, 36, 95
2, 113760, Note_on_c, 9, 42, 95
2, 113880, Note_off_c, 9, 0, 0
2, 121440, Note_on_c, 9, 36, 95
2, 121440, Note_on_c, 9, 42, 95
2, 121560, Note_off_c, 9, 0, 0
2, 127680, Note_on_c, 9, 36, 95
2, 127680, Note_on_c, 9, 42, 95
2, 127800, Note_off_c, 9, 0, 0
2, 131520, Note_on_c, 9, 36, 95
2, 131520, Note_on_c, 9, 42, 95
2, 131640, Note_off_c, 9, 0, 0
2, 131640, Note_on_c, 9, 42, 95
2, 131760, Note_off_c, 9, 0, 0
2, 131760, Note_on_c, 9, 42, 95
2, 131880, Note_off_c, 9, 0, 0
2, 132000, Note_on_c, 9, 36, 95
2, 132000, Note_on_c, 9, 42, 95
2, 132120, Note_off_c, 9, 0, 0
2, 133200, Note_on_c, 9, 36, 95
2, 133200, Note_on_c, 9, 38, 95
2, 133200, Note_on_c, 9, 42, 95
2, 133320, Note_off_c, 9, 0, 0
2, 133320, Note_on_c, 9, 42, 95
2, 133440, Note_off_c, 9, 0, 0
2, 133440, Note_on_c, 9, 42, 95
2, 133560, Note_off_c, 9, 0, 0
2, 133680, Note_on_c, 9, 36, 95
2, 133680, Note_on_c, 9, 42, 95
2, 133800, Note_off_c, 9, 0, 0
2, 135360, Note_on_c, 9, 36, 95
2, 135360, Note_on_c, 9, 38, 95
2, 135360, Note_on_c, 9, 42, 95
2, 135480, Note_off_c, 9, 0, 0
2, 135480, Note_on_c, 9, 36, 95
2, 135480, Note_on_c, 9, 42, 95
2, 135600, Note_off_c, 9, 0, 0
2, 135600, Note_on_c, 9, 42, 95
2, 135720, Note_off_c, 9, 0, 0
2, 135840, Note_on_c, 9, 36, 95
2, 135840, Note_on_c, 9, 42, 95
2, 135960, Note_off_c, 9, 0, 0
2, 137040, Note_on_c, 9, 36, 95
2, 137040, Note_on_c, 9, 38, 95
2, 137040, Note_on_c, 9, 42, 95
2, 137160, Note_off_c, 9, 0, 0
2, 137160, Note_on_c, 9, 36, 95
2, 137160, Note_on_c, 9, 42, 95
2, 137280, Note_off_c, 9, 0, 0
2, 137280, Note_on_c, 9, 42, 95
2, 137400, Note_off_c, 9, 0, 0
2, 137520, Note_on_c, 9, 36, 95
2, 137520, Note_on_c, 9, 42, 95
2, 137640, Note_off_c, 9, 0, 0
2, 139200, Note_on_c, 9, 36, 95
2, 139200, Note_on_c, 9, 42, 95
2, 139320, Note_off_c, 9, 0, 0
2, 139680, Note_on_c, 9, 36, 95
2, 139680, Note_on_c, 9, 42, 95
2, 139800, Note_off_c, 9, 0, 0
2, 140160, Note_on_c, 9, 36, 95
2, 140160, Note_on_c, 9, 42, 95
2, 140280, Note_off_c, 9, 0, 0
2, 140880, Note_on_c, 9, 36, 95
2, 140880, Note_on_c, 9, 42, 95
2, 141000, Note_off_c, 9, 0, 0
2, 141360, Note_on_c, 9, 36, 95
2, 141360, Note_on_c, 9, 42, 95
2, 141480, Note_off_c, 9, 0, 0
2, 143040, Note_on_c, 9, 36, 95
2, 143040, Note_on_c, 9, 42, 95
2, 143160, Note_off_c, 9, 0, 0
2, 143160, Note_on_c, 9, 42, 95
2, 143280, Note_off_c, 9, 0, 0
2, 143280, Note_on_c, 9, 42, 95
2, 143400, Note_off_c, 9, 0, 0
2, 143520, Note_on_c, 9, 36, 95
2, 143520, Note_on_c, 9, 42, 95
2, 143640, Note_off_c, 9, 0, 0
2, 144720, Note_on_c, 9, 36, 95
2, 144720, Note_on_c, 9, 38, 95
2, 144720, Note_on_c, 9, 42, 95
2, 144840, Note_off_c, 9, 0, 0
2, 144840, Note_on_c, 9, 42, 95
2, 144960, Note_off_c, 9, 0, 0
2, 144960, Note_on_c, 9, 42, 95
2, 145080, Note_off_c, 9, 0, 0
2, 145200, Note_on_c, 9, 36, 95
2, 145200, Note_on_c, 9, 42, 95
2, 145320, Note_off_c, 9, 0, 0
2, 146880, Note_on_c, 9, 36, 95
2, 146880, Note_on_c, 9, 38, 95
2, 146880, Note_on_c, 9, 42, 95
2, 147000, Note_off_c, 9, 0, 0
2, 147000, Note_on_c, 9, 42, 95
2, 147120, Note_off_c, 9, 0, 0
2, 147120, Note_on_c, 9, 42, 95
2, 147240, Note_off_c, 9, 0, 0
2, 147360, Note_on_c, 9, 36, 95
2, 147360, Note_on_c, 9, 42, 95
2, 147480, Note_off_c, 9, 0, 0
2, 148560, Note_on_c, 9, 36, 95
2, 148560, Note_on_c, 9, 38, 95
2, 148560, Note_on_c, 9, 42, 95
2, 148680, Note_off_c, 9, 0, 0
2, 148680, Note_on_c, 9, 42, 95
2, 148800, Note_off_c, 9, 0, 0
2, 148800, Note_on_c, 9, 42, 95
2, 148920, Note_off_c, 9, 0, 0
2, 149040, Note_on_c, 9, 36, 95
2, 149040, Note_on_c, 9, 42, 95
2, 149160, Note_off_c, 9, 0, 0
2, 150240, Note_on_c, 9, 36, 95
2, 150240, Note_on_c, 9, 38, 95
2, 150240, Note_on_c, 9, 42, 95
2, 150360, Note_off_c, 9, 0, 0
2, 150360, Note_on_c, 9, 42, 95
2, 150480, Note_off_c, 9, 0, 0
2, 150480, Note_on_c, 9, 42, 95
2, 150600, Note_off_c, 9, 0, 0
2, 150720, Note_on_c, 9, 36, 95
2, 150720, Note_on_c, 9, 38, 95
2, 150720, Note_on_c, 9, 42, 95
2, 150840, Note_off_c, 9, 0, 0
2, 150840, Note_on_c, 9, 42, 95
2, 150960, Note_off_c, 9, 0, 0
2, 150960, Note_on_c, 9, 42, 95
2, 151080, Note_off_c, 9, 0, 0
2, 151200, Note_on_c, 9, 36, 95
2, 151200, Note_on_c, 9, 42, 95
2, 151320, Note_off_c, 9, 0, 0
2, 152400, Note_on_c, 9, 36, 95
2, 152400, Note_on_c, 9, 38, 95
2, 152400, Note_on_c, 9, 42, 95
2, 152520, Note_off_c, 9, 0, 0
2, 152520, Note_on_c, 9, 36, 95
2, 152520, Note_on_c, 9, 42, 95
2, 152640, Note_off_c, 9, 0, 0
2, 152640, Note_on_c, 9, 36, 95
2, 152640, Note_on_c, 9, 42, 95
2, 152760, Note_off_c, 9, 0, 0
2, 152880, Note_on_c, 9, 36, 95
2, 152880, Note_on_c, 9, 42, 95
2, 153000, Note_off_c, 9, 0, 0
2, 154080, Note_on_c, 9, 36, 95
2, 154080, Note_on_c, 9, 38, 95
2, 154080, Note_on_c, 9, 42, 95
2, 154200, Note_off_c, 9, 0, 0
2, 154200, Note_on_c, 9, 42, 95
2, 154320, Note_off_c, 9, 0, 0
2, 154320, Note_on_c, 9, 42, 95
2, 154440, Note_off_c, 9, 0, 0
2, 154560, Note_on_c, 9, 36, 95
2, 154560, Note_on_c, 9, 42, 95
2, 154680, Note_off_c, 9, 0, 0
2, 155040, Note_on_c, 9, 36, 95
2, 155040, Note_on_c, 9, 42, 95
2, 155160, Note_off_c, 9, 0, 0
2, 155520, Note_on_c, 9, 36, 95
2, 155520, Note_on_c, 9, 42, 95
2, 155640, Note_off_c, 9, 0, 0
2, 156240, Note_on_c, 9, 36, 95
2, 156240, Note_on_c, 9, 42, 95
2, 156360, Note_off_c, 9, 0, 0
2, 156720, Note_on_c, 9, 36, 95
2, 156720, Note_on_c, 9, 42, 95
2, 156840, Note_off_c, 9, 0, 0
2, 158400, Note_on_c, 9, 36, 95
2, 158400, Note_on_c, 9, 38, 95
2, 158400, Note_on_c, 9, 42, 95
2, 158520, Note_off_c, 9, 0, 0
2, 158520, Note_on_c, 9, 36, 95
2, 158520, Note_on_c, 9, 42, 95
2, 158640, Note_off_c, 9, 0, 0
2, 158640, Note_on_c, 9, 42, 95
2, 158760, Note_off_c, 9, 0, 0
2, 158880, Note_on_c, 9, 36, 95
2, 158880, Note_on_c, 9, 42, 95
2, 159000, Note_off_c, 9, 0, 0
2, 160080, Note_on_c, 9, 36, 95
2, 160080, Note_on_c, 9, 38, 95
2, 160080, Note_on_c, 9, 42, 95
2, 160200, Note_off_c, 9, 0, 0
2, 160200, Note_on_c, 9, 42, 95
2, 160320, Note_off_c, 9, 0, 0
2, 160320, Note_on_c, 9, 42, 95
2, 160440, Note_off_c, 9, 0, 0
2, 160560, Note_on_c, 9, 36, 95
2, 160560, Note_on_c, 9, 42, 95
2, 160680, Note_off_c, 9, 0, 0
2, 162240, Note_on_c, 9, 36, 95
2, 162240, Note_on_c, 9, 38, 95
2, 162240, Note_on_c, 9, 42, 95
2, 162360, Note_off_c, 9, 0, 0
2, 162360, Note_on_c, 9, 36, 95
2, 162360, Note_on_c, 9, 42, 95
2, 162480, Note_off_c, 9, 0, 0
2, 162480, Note_on_c, 9, 42, 95
2, 162600, Note_off_c, 9, 0, 0
2, 162720, Note_on_c, 9, 36, 95
2, 162720, Note_on_c, 9, 42, 95
2, 162840, Note_off_c, 9, 0, 0
2, 163920, Note_on_c, 9, 36, 95
2, 163920, Note_on_c, 9, 38, 95
2, 163920, Note_on_c, 9, 42, 95
2, 164040, Note_off_c, 9, 0, 0
2, 164040, Note_on_c, 9, 36, 95
2, 164040, Note_on_c, 9, 42, 95
2, 164160, Note_off_c, 9, 0, 0
2, 164160, Note_on_c, 9, 42, 95
2, 164280, Note_off_c, 9, 0, 0
2, 164400, Note_on_c, 9, 36, 95
2, 164400, Note_on_c, 9, 42, 95
2, 164520, Note_off_c, 9, 0, 0
2, 165600, Note_on_c, 9, 36, 95
2, 165600, Note_on_c, 9, 38, 95
2, 165600, Note_on_c, 9, 42, 95
2, 165720, Note_off_c, 9, 0, 0
2, 165720, Note_on_c, 9, 42, 95
2, 165840, Note_off_c, 9, 0, 0
2, 165840, Note_on_c, 9, 42, 95
2, 165960, Note_off_c, 9, 0, 0
2, 166080, Note_on_c, 9, 36, 95
2, 166080, Note_on_c, 9, 38, 95
2, 166080, Note_on_c, 9, 42, 95
2, 166200, Note_off_c, 9, 0, 0
2, 166200, Note_on_c, 9, 42, 95
2, 166320, Note_off_c, 9, 0, 0
2, 166320, Note_on_c, 9, 42, 95
2, 166440, Note_off_c, 9, 0, 0
2, 166560, Note_on_c, 9, 36, 95
2, 166560, Note_on_c, 9, 42, 95
2, 166680, Note_off_c, 9, 0, 0
2, 167760, Note_on_c, 9, 36, 95
2, 167760, Note_on_c, 9, 38, 95
2, 167760, Note_on_c, 9, 42, 95
2, 167880, Note_off_c, 9, 0, 0
2, 167880, Note_on_c, 9, 36, 95
2, 167880, Note_on_c, 9, 42, 95
2, 168000, Note_off_c, 9, 0, 0
2, 168000, Note_on_c, 9, 36, 95
2, 168000, Note_on_c, 9, 42, 95
2, 168120, Note_off_c, 9, 0, 0
2, 168240, Note_on_c, 9, 36, 95
2, 168240, Note_on_c, 9, 42, 95
2, 168360, Note_off_c, 9, 0, 0
2, 169440, Note_on_c, 9, 36, 95
2, 169440, Note_on_c, 9, 38, 95
2, 169440, Note_on_c, 9, 42, 95
2, 169560, Note_off_c, 9, 0, 0
2, 169560, Note_on_c, 9, 36, 95
2, 169560, Note_on_c, 9, 42, 95
2, 169680, Note_off_c, 9, 0, 0
2, 169680, Note_on_c, 9, 42, 95
2, 169800, Note_off_c, 9, 0, 0
2, 169920, Note_on_c, 9, 36, 95
2, 169920, Note_on_c, 9, 42, 95
2, 170040, Note_off_c, 9, 0, 0
2, 170400, Note_on_c, 9, 36, 95
2, 170400, Note_on_c, 9, 42, 95
2, 170520, Note_off_c, 9, 0, 0
2, 170880, Note_on_c, 9, 36, 95
2, 170880, Note_on_c, 9, 42, 95
2, 171000, Note_off_c, 9, 0, 0
2, 171600, Note_on_c, 9, 36, 95
2, 171600, Note_on_c, 9, 42, 95
2, 171720, Note_off_c, 9, 0, 0
2, 172080, Note_on_c, 9, 36, 95
2, 172080, Note_on_c, 9, 42, 95
2, 172200, Note_off_c, 9, 0, 0
2, 173760, Note_on_c, 9, 36, 95
2, 173760, Note_on_c, 9, 38, 95
2, 173760, Note_on_c, 9, 42, 95
2, 173880, Note_off_c, 9, 0, 0
2, 173880, Note_on_c, 9, 36, 95
2, 173880, Note_on_c, 9, 42, 95
2, 174000, Note_off_c, 9, 0, 0
2, 174000, Note_on_c, 9, 42, 95
2, 174120, Note_off_c, 9, 0, 0
2, 174240, Note_on_c, 9, 36, 95
2, 174240, Note_on_c, 9, 42, 95
2, 174360, Note_off_c, 9, 0, 0
2, 175440, Note_on_c, 9, 36, 95
2, 175440, Note_on_c, 9, 38, 95
2, 175440, Note_on_c, 9, 42, 95
2, 175560, Note_off_c, 9, 0, 0
2, 175560, Note_on_c, 9, 36, 95
2, 175560, Note_on_c, 9, 42, 95
2, 175680, Note_off_c, 9, 0, 0
2, 175680, Note_on_c, 9, 42, 95
2, 175800, Note_off_c, 9, 0, 0
2, 175920, Note_on_c, 9, 36, 95
2, 175920, Note_on_c, 9, 42, 95
2, 176040, Note_off_c, 9, 0, 0
2, 177600, Note_on_c, 9, 36, 95
2, 177600, Note_on_c, 9, 38, 95
2, 177600, Note_on_c, 9, 42, 95
2, 177720, Note_off_c, 9, 0, 0
2, 177720, Note_on_c, 9, 36, 95
2, 177720, Note_on_c, 9, 42, 95
2, 177840, Note_off_c, 9, 0, 0
2, 177840, Note_on_c, 9, 42, 95
2, 177960, Note_off_c, 9, 0, 0
2, 178080, Note_on_c, 9, 36, 95
2, 178080, Note_on_c, 9, 42, 95
2, 178200, Note_off_c, 9, 0, 0
2, 179280, Note_on_c, 9, 36, 95
2, 179280, Note_on_c, 9, 38, 95
2, 179280, Note_on_c, 9, 42, 95
2, 179400, Note_off_c, 9, 0, 0
2, 179400, Note_on_c, 9, 36, 95
2, 179400, Note_on_c, 9, 42, 95
2, 179520, Note_off_c, 9, 0, 0
2, 179520, Note_on_c, 9, 42, 95
2, 179640, Note_off_c, 9, 0, 0
2, 179760, Note_on_c, 9, 36, 95
2, 179760, Note_on_c, 9, 42, 95
2, 179880, Note_off_c, 9, 0, 0
2, 181440, Note_on_c, 9, 36, 95
2, 181440, Note_on_c, 9, 38, 95
2, 181440, Note_on_c, 9, 42, 95
2, 181560, Note_off_c, 9, 0, 0
2, 181560, Note_on_c, 9, 36, 95
2, 181560, Note_on_c, 9, 42, 95
2, 181680, Note_off_c, 9, 0, 0
2, 181680, Note_on_c, 9, 42, 95
2, 181800, Note_off_c, 9, 0, 0
2, 181920, Note_on_c, 9, 36, 95
2, 181920, Note_on_c, 9, 42, 95
2, 182040, Note_off_c, 9, 0, 0
2, 183120, Note_on_c, 9, 36, 95
2, 183120, Note_on_c, 9, 38, 95
2, 183120, Note_on_c, 9, 42, 95
2, 183240, Note_off_c, 9, 0, 0
2, 183240, Note_on_c, 9, 36, 95
2, 183240, Note_on_c, 9, 42, 95
2, 183360, Note_off_c, 9, 0, 0
2, 183360, Note_on_c, 9, 42, 95
2, 183480, Note_off_c, 9, 0, 0
2, 183600, Note_on_c, 9, 36, 95
2, 183600, Note_on_c, 9, 42, 95
2, 183720, Note_off_c, 9, 0, 0
2, 185280, Note_on_c, 9, 36, 95
2, 185280, Note_on_c, 9, 42, 95
2, 185400, Note_off_c, 9, 0, 0
2, 185760, Note_on_c, 9, 36, 95
2, 185760, Note_on_c, 9, 42, 95
2, 185880, Note_off_c, 9, 0, 0
2, 186240, Note_on_c, 9, 36, 95
2, 186240, Note_on_c, 9, 42, 95
2, 186360, Note_off_c, 9, 0, 0
2, 186960, Note_on_c, 9, 36, 95
2, 186960, Note_on_c, 9, 42, 95
2, 187080, Note_off_c, 9, 0, 0
2, 187440, Note_on_c, 9, 36, 95
2, 187440, Note_on_c, 9, 42, 95
2, 187560, Note_off_c, 9, 0, 0
2, 189120, Note_on_c, 9, 36, 95
2, 189120, Note_on_c, 9, 38, 95
2, 189120, Note_on_c, 9, 42, 95
2, 189240, Note_off_c, 9, 0, 0
2, 189240, Note_on_c, 9, 42, 95
2, 189360, Note_off_c, 9, 0, 0
2, 189360, Note_on_c, 9, 42, 95
2, 189480, Note_off_c, 9, 0, 0
2, 189600, Note_on_c, 9, 36, 95
2, 189600, Note_on_c, 9, 42, 95
2, 189720, Note_off_c, 9, 0, 0
2, 190800, Note_on_c, 9, 36, 95
2, 190800, Note_on_c, 9, 38, 95
2, 190800, Note_on_c, 9, 42, 95
2, 190920, Note_off_c, 9, 0, 0
2, 190920, Note_on_c, 9, 42, 95
2, 191040, Note_off_c, 9, 0, 0
2, 191040, Note_on_c, 9, 42, 95
2, 191160, Note_off_c, 9, 0, 0
2, 191280, Note_on_c, 9, 36, 95
2, 191280, Note_on_c, 9, 42, 95
2, 191400, Note_off_c, 9, 0, 0
2, 198240, Note_on_c, 9, 36, 95
2, 198240, Note_on_c, 9, 42, 95
2, 198360, Note_off_c, 9, 0, 0
2, 205920, Note_on_c, 9, 36, 95
2, 205920, Note_on_c, 9, 42, 95
2, 206040, Note_off_c, 9, 0, 0
2, 213600, Note_on_c, 9, 36, 95
2, 213600, Note_on_c, 9, 42, 95
2, 213720, Note_off_c, 9, 0, 0
2, 219840, Note_on_c, 9, 36, 95
2, 219840, Note_on_c, 9, 42, 95
2, 219960, Note_off_c, 9, 0, 0
2, 223200, Note_on_c, 9, 36, 95
2, 223200, Note_on_c, 9, 38, 95
2, 223200, Note_on_c, 9, 42, 95
2, 223320, Note_off_c, 9, 0, 0
2, 223320, Note_on_c, 9, 36, 95
2, 223320, Note_on_c, 9, 42, 95
2, 223440, Note_off_c, 9, 0, 0
2, 223440, Note_on_c, 9, 36, 95
2, 223440, Note_on_c, 9, 42, 95
2, 223560, Note_off_c, 9, 0, 0
2, 223560, Note_on_c, 9, 36, 95
2, 223560, Note_on_c, 9, 42, 95
2, 223680, Note_off_c, 9, 0, 0
2, 223680, Note_on_c, 9, 42, 95
2, 223800, Note_off_c, 9, 0, 0
2, 226560, Note_on_c, 9, 36, 95
2, 226560, Note_on_c, 9, 38, 95
2, 226560, Note_on_c, 9, 42, 95
2, 226680, Note_off_c, 9, 0, 0
2, 226680, Note_on_c, 9, 42, 95
2, 226800, Note_off_c, 9, 0, 0
2, 226800, Note_on_c, 9, 42, 95
2, 226920, Note_off_c, 9, 0, 0
2, 226920, Note_on_c, 9, 42, 95
2, 227040, Note_off_c, 9, 0, 0
2, 228000, Note_on_c, 9, 36, 95
2, 228000, Note_on_c, 9, 42, 95
2, 228120, Note_off_c, 9, 0, 0
2, 230400, Note_on_c, 9, 36, 95
2, 230400, Note_on_c, 9, 42, 95
2, 230520, Note_off_c, 9, 0, 0
2, 231360, Note_on_c, 9, 36, 95
2, 231360, Note_on_c, 9, 42, 95
2, 231480, Note_off_c, 9, 0, 0
2, 234240, Note_on_c, 9, 36, 95
2, 234240, Note_on_c, 9, 42, 95
2, 234360, Note_off_c, 9, 0, 0
2, 235200, Note_on_c, 9, 36, 95
2, 235200, Note_on_c, 9, 42, 95
2, 235320, Note_off_c, 9, 0, 0
2, 238080, Note_on_c, 9, 36, 95
2, 238080, Note_on_c, 9, 42, 95
2, 238200, Note_off_c, 9, 0, 0
2, 241920, Note_on_c, 9, 36, 95
2, 241920, Note_on_c, 9, 38, 95
2, 241920, Note_on_c, 9, 42, 95
2, 242040, Note_off_c, 9, 0, 0
2, 242040, Note_on_c, 9, 36, 95
2, 242040, Note_on_c, 9, 42, 95
2, 242160, Note_off_c, 9, 0, 0
2, 242160, Note_on_c, 9, 42, 95
2, 242280, Note_off_c, 9, 0, 0
2, 245760, Note_on_c, 9, 36, 95
2, 245760, Note_on_c, 9, 42, 95
2, 245880, Note_off_c, 9, 0, 0
2, 245880, Note_on_c, 9, 42, 95
2, 246000, Note_off_c, 9, 0, 0
2, 246720, Note_on_c, 9, 36, 95
2, 246720, Note_on_c, 9, 42, 95
2, 246840, Note_off_c, 9, 0, 0
2, 250080, Note_on_c, 9, 36, 95
2, 250080, Note_on_c, 9, 42, 95
2, 250200, Note_off_c, 9, 0, 0
2, 252000, Note_on_c, 9, 36, 95
2, 252000, Note_on_c, 9, 42, 95
2, 252120, Note_off_c, 9, 0, 0
2, 252960, Note_on_c, 9, 36, 95
2, 252960, Note_on_c, 9, 42, 95
2, 253080, Note_off_c, 9, 0, 0
2, 253920, Note_on_c, 9, 36, 95
2, 253920, Note_on_c, 9, 38, 95
2, 253920, Note_on_c, 9, 42, 95
2, 254040, Note_off_c, 9, 0, 0
2, 254040, Note_on_c, 9, 36, 95
2, 254040, Note_on_c, 9, 42, 95
2, 254160, Note_off_c, 9, 0, 0
2, 254160, Note_on_c, 9, 36, 95
2, 254160, Note_on_c, 9, 42, 95
2, 254280, Note_off_c, 9, 0, 0
2, 254280, Note_on_c, 9, 36, 95
2, 254280, Note_on_c, 9, 42, 95
2, 254400, Note_off_c, 9, 0, 0
2, 254400, Note_on_c, 9, 42, 95
2, 254520, Note_off_c, 9, 0, 0
2, 257280, Note_on_c, 9, 36, 95
2, 257280, Note_on_c, 9, 42, 95
2, 257400, Note_off_c, 9, 0, 0
2, 261120, Note_on_c, 9, 36, 95
2, 261120, Note_on_c, 9, 42, 95
2, 261240, Note_off_c, 9, 0, 0
2, 262080, Note_on_c, 9, 36, 95
2, 262080, Note_on_c, 9, 42, 95
2, 262200, Note_off_c, 9, 0, 0
2, 265440, Note_on_c, 9, 36, 95
2, 265440, Note_on_c, 9, 42, 95
2, 265560, Note_off_c, 9, 0, 0
2, 267600, Note_on_c, 9, 36, 95
2, 267600, Note_on_c, 9, 42, 95
2, 267720, Note_off_c, 9, 0, 0
2, 269280, Note_on_c, 9, 36, 95
2, 269280, Note_on_c, 9, 38, 95
2, 269280, Note_on_c, 9, 42, 95
2, 269400, Note_off_c, 9, 0, 0
2, 269400, Note_on_c, 9, 36, 95
2, 269400, Note_on_c, 9, 42, 95
2, 269520, Note_off_c, 9, 0, 0
2, 269520, Note_on_c, 9, 36, 95
2, 269520, Note_on_c, 9, 42, 95
2, 269640, Note_off_c, 9, 0, 0
2, 269640, Note_on_c, 9, 42, 95
2, 269760, Note_off_c, 9, 0, 0
2, 269760, Note_on_c, 9, 42, 95
2, 269880, Note_off_c, 9, 0, 0
2, 272640, Note_on_c, 9, 36, 95
2, 272640, Note_on_c, 9, 42, 95
2, 272760, Note_off_c, 9, 0, 0
2, 272760, Note_on_c, 9, 36, 95
2, 276480, Note_on_c, 9, 36, 95
2, 276480, Note_on_c, 9, 42, 95
2, 276600, Note_off_c, 9, 0, 0
2, 277440, Note_on_c, 9, 36, 95
2, 277440, Note_on_c, 9, 42, 95
2, 277560, Note_off_c, 9, 0, 0
2, 280800, Note_on_c, 9, 36, 95
2, 280800, Note_on_c, 9, 42, 95
2, 280920, Note_off_c, 9, 0, 0
2, 282720, Note_on_c, 9, 36, 95
2, 282720, Note_on_c, 9, 42, 95
2, 282840, Note_off_c, 9, 0, 0
2, 283680, Note_on_c, 9, 36, 95
2, 283680, Note_on_c, 9, 42, 95
2, 283800, Note_off_c, 9, 0, 0
2, 284640, Note_on_c, 9, 36, 95
2, 284640, Note_on_c, 9, 42, 95
2, 284760, Note_off_c, 9, 0, 0
2, 284760, Note_on_c, 9, 36, 95
2, 284760, Note_on_c, 9, 42, 95
2, 284880, Note_off_c, 9, 0, 0
2, 284880, Note_on_c, 9, 42, 95
2, 285000, Note_off_c, 9, 0, 0
2, 285120, Note_on_c, 9, 36, 95
2, 285120, Note_on_c, 9, 42, 95
2, 285240, Note_off_c, 9, 0, 0
2, 285240, Note_on_c, 9, 42, 95
2, 285360, Note_off_c, 9, 0, 0
2, 285360, Note_on_c, 9, 42, 95
2, 285480, Note_off_c, 9, 0, 0
2, 285600, Note_on_c, 9, 36, 95
2, 285600, Note_on_c, 9, 42, 95
2, 285720, Note_off_c, 9, 0, 0
2, 286800, Note_on_c, 9, 36, 95
2, 286800, Note_on_c, 9, 38, 95
2, 286800, Note_on_c, 9, 42, 95
2, 286920, Note_off_c, 9, 0, 0
2, 286920, Note_on_c, 9, 36, 95
2, 286920, Note_on_c, 9, 42, 95
2, 287040, Note_off_c, 9, 0, 0
2, 287040, Note_on_c, 9, 36, 95
2, 287040, Note_on_c, 9, 42, 95
2, 287160, Note_off_c, 9, 0, 0
2, 287280, Note_on_c, 9, 36, 95
2, 287280, Note_on_c, 9, 42, 95
2, 287400, Note_off_c, 9, 0, 0
2, 288480, Note_on_c, 9, 36, 95
2, 288480, Note_on_c, 9, 38, 95
2, 288480, Note_on_c, 9, 42, 95
2, 288600, Note_off_c, 9, 0, 0
2, 288600, Note_on_c, 9, 36, 95
2, 288600, Note_on_c, 9, 42, 95
2, 288720, Note_off_c, 9, 0, 0
2, 288720, Note_on_c, 9, 42, 95
2, 288840, Note_off_c, 9, 0, 0
2, 288960, Note_on_c, 9, 36, 95
2, 288960, Note_on_c, 9, 38, 95
2, 288960, Note_on_c, 9, 42, 95
2, 289080, Note_off_c, 9, 0, 0
2, 289080, Note_on_c, 9, 42, 95
2, 289200, Note_off_c, 9, 0, 0
2, 289200, Note_on_c, 9, 42, 95
2, 289320, Note_off_c, 9, 0, 0
2, 289440, Note_on_c, 9, 36, 95
2, 289440, Note_on_c, 9, 42, 95
2, 289560, Note_off_c, 9, 0, 0
2, 290640, Note_on_c, 9, 36, 95
2, 290640, Note_on_c, 9, 38, 95
2, 290640, Note_on_c, 9, 42, 95
2, 290760, Note_off_c, 9, 0, 0
2, 290760, Note_on_c, 9, 36, 95
2, 290760, Note_on_c, 9, 42, 95
2, 290880, Note_off_c, 9, 0, 0
2, 290880, Note_on_c, 9, 36, 95
2, 290880, Note_on_c, 9, 42, 95
2, 291000, Note_off_c, 9, 0, 0
2, 291120, Note_on_c, 9, 36, 95
2, 291120, Note_on_c, 9, 42, 95
2, 291240, Note_off_c, 9, 0, 0
2, 292320, Note_on_c, 9, 36, 95
2, 292320, Note_on_c, 9, 38, 95
2, 292320, Note_on_c, 9, 42, 95
2, 292440, Note_off_c, 9, 0, 0
2, 292440, Note_on_c, 9, 42, 95
2, 292560, Note_off_c, 9, 0, 0
2, 292560, Note_on_c, 9, 42, 95
2, 292680, Note_off_c, 9, 0, 0
2, 292800, Note_on_c, 9, 36, 95
2, 292800, Note_on_c, 9, 42, 95
2, 292920, Note_off_c, 9, 0, 0
2, 292920, Note_on_c, 9, 42, 95
2, 293040, Note_off_c, 9, 0, 0
2, 293040, Note_on_c, 9, 42, 95
2, 293160, Note_off_c, 9, 0, 0
2, 293280, Note_on_c, 9, 36, 95
2, 293280, Note_on_c, 9, 42, 95
2, 293400, Note_off_c, 9, 0, 0
2, 293760, Note_on_c, 9, 36, 95
2, 293760, Note_on_c, 9, 42, 95
2, 293880, Note_off_c, 9, 0, 0
2, 294480, Note_on_c, 9, 36, 95
2, 294480, Note_on_c, 9, 42, 95
2, 294600, Note_off_c, 9, 0, 0
2, 294600, Note_on_c, 9, 42, 95
2, 294720, Note_off_c, 9, 0, 0
2, 294720, Note_on_c, 9, 42, 95
2, 294840, Note_off_c, 9, 0, 0
2, 294960, Note_on_c, 9, 36, 95
2, 294960, Note_on_c, 9, 42, 95
2, 295080, Note_off_c, 9, 0, 0
2, 296640, Note_on_c, 9, 36, 95
2, 296640, Note_on_c, 9, 38, 95
2, 296640, Note_on_c, 9, 42, 95
2, 296760, Note_off_c, 9, 0, 0
2, 296760, Note_on_c, 9, 42, 95
2, 296880, Note_off_c, 9, 0, 0
2, 296880, Note_on_c, 9, 42, 95
2, 297000, Note_off_c, 9, 0, 0
2, 297120, Note_on_c, 9, 36, 95
2, 297120, Note_on_c, 9, 42, 95
2, 297240, Note_off_c, 9, 0, 0
2, 297240, Note_on_c, 9, 42, 95
2, 297360, Note_off_c, 9, 0, 0
2, 297360, Note_on_c, 9, 42, 95
2, 297480, Note_off_c, 9, 0, 0
2, 297840, Note_on_c, 9, 36, 95
2, 297840, Note_on_c, 9, 42, 95
2, 297960, Note_off_c, 9, 0, 0
2, 300480, Note_on_c, 9, 36, 95
2, 300480, Note_on_c, 9, 38, 95
2, 300480, Note_on_c, 9, 42, 95
2, 300600, Note_off_c, 9, 0, 0
2, 300600, Note_on_c, 9, 36, 95
2, 300600, Note_on_c, 9, 42, 95
2, 300720, Note_off_c, 9, 0, 0
2, 300720, Note_on_c, 9, 42, 95
2, 300840, Note_off_c, 9, 0, 0
2, 300960, Note_on_c, 9, 36, 95
2, 300960, Note_on_c, 9, 42, 95
2, 301080, Note_off_c, 9, 0, 0
2, 302160, Note_on_c, 9, 36, 95
2, 302160, Note_on_c, 9, 38, 95
2, 302160, Note_on_c, 9, 42, 95
2, 302280, Note_off_c, 9, 0, 0
2, 302280, Note_on_c, 9, 36, 95
2, 302280, Note_on_c, 9, 42, 95
2, 302400, Note_off_c, 9, 0, 0
2, 302400, Note_on_c, 9, 36, 95
2, 302400, Note_on_c, 9, 42, 95
2, 302520, Note_off_c, 9, 0, 0
2, 302640, Note_on_c, 9, 36, 95
2, 302640, Note_on_c, 9, 42, 95
2, 302760, Note_off_c, 9, 0, 0
2, 304320, Note_on_c, 9, 36, 95
2, 304320, Note_on_c, 9, 38, 95
2, 304320, Note_on_c, 9, 42, 95
2, 304440, Note_off_c, 9, 0, 0
2, 304440, Note_on_c, 9, 36, 95
2, 304440, Note_on_c, 9, 42, 95
2, 304560, Note_off_c, 9, 0, 0
2, 304560, Note_on_c, 9, 36, 95
2, 304560, Note_on_c, 9, 42, 95
2, 304680, Note_off_c, 9, 0, 0
2, 304800, Note_on_c, 9, 36, 95
2, 304800, Note_on_c, 9, 42, 95
2, 304920, Note_off_c, 9, 0, 0
2, 306000, Note_on_c, 9, 36, 95
2, 306000, Note_on_c, 9, 38, 95
2, 306000, Note_on_c, 9, 42, 95
2, 306120, Note_off_c, 9, 0, 0
2, 306120, Note_on_c, 9, 36, 95
2, 306120, Note_on_c, 9, 42, 95
2, 306240, Note_off_c, 9, 0, 0
2, 306240, Note_on_c, 9, 36, 95
2, 306240, Note_on_c, 9, 42, 95
2, 306360, Note_off_c, 9, 0, 0
2, 306480, Note_on_c, 9, 36, 95
2, 306480, Note_on_c, 9, 42, 95
2, 306600, Note_off_c, 9, 0, 0
2, 307680, Note_on_c, 9, 36, 95
2, 307680, Note_on_c, 9, 38, 95
2, 307680, Note_on_c, 9, 42, 95
2, 307800, Note_off_c, 9, 0, 0
2, 307800, Note_on_c, 9, 42, 95
2, 307920, Note_off_c, 9, 0, 0
2, 307920, Note_on_c, 9, 42, 95
2, 308040, Note_off_c, 9, 0, 0
2, 308160, Note_on_c, 9, 36, 95
2, 308160, Note_on_c, 9, 42, 95
2, 308280, Note_off_c, 9, 0, 0
2, 308280, Note_on_c, 9, 42, 95
2, 308400, Note_off_c, 9, 0, 0
2, 308400, Note_on_c, 9, 42, 95
2, 308520, Note_off_c, 9, 0, 0
2, 308640, Note_on_c, 9, 36, 95
2, 308640, Note_on_c, 9, 42, 95
2, 308760, Note_off_c, 9, 0, 0
2, 309120, Note_on_c, 9, 36, 95
2, 309120, Note_on_c, 9, 42, 95
2, 309240, Note_off_c, 9, 0, 0
2, 309840, Note_on_c, 9, 36, 95
2, 309840, Note_on_c, 9, 42, 95
2, 309960, Note_off_c, 9, 0, 0
2, 309960, Note_on_c, 9, 42, 95
2, 310080, Note_off_c, 9, 0, 0
2, 310080, Note_on_c, 9, 42, 95
2, 310200, Note_off_c, 9, 0, 0
2, 310320, Note_on_c, 9, 36, 95
2, 310320, Note_on_c, 9, 42, 95
2, 310440, Note_off_c, 9, 0, 0
2, 312000, Note_on_c, 9, 36, 95
2, 312000, Note_on_c, 9, 42, 95
2, 312120, Note_off_c, 9, 0, 0
2, 312480, Note_on_c, 9, 36, 95
2, 312480, Note_on_c, 9, 42, 95
2, 312600, Note_off_c, 9, 0, 0
2, 313200, Note_on_c, 9, 36, 95
2, 313200, Note_on_c, 9, 38, 95
2, 313200, Note_on_c, 9, 42, 95
2, 313320, Note_off_c, 9, 0, 0
2, 313320, Note_on_c, 9, 36, 95
2, 313320, Note_on_c, 9, 42, 95
2, 313440, Note_off_c, 9, 0, 0
2, 313440, Note_on_c, 9, 36, 95
2, 313440, Note_on_c, 9, 42, 95
2, 313560, Note_off_c, 9, 0, 0
2, 313680, Note_on_c, 9, 36, 95
2, 313680, Note_on_c, 9, 38, 95
2, 313680, Note_on_c, 9, 42, 95
2, 313800, Note_off_c, 9, 0, 0
2, 313800, Note_on_c, 9, 42, 95
2, 313920, Note_off_c, 9, 0, 0
2, 313920, Note_on_c, 9, 42, 95
2, 314040, Note_off_c, 9, 0, 0
2, 314040, Note_on_c, 9, 42, 95
2, 314160, Note_off_c, 9, 0, 0
2, 314160, Note_on_c, 9, 42, 95
2, 314280, Note_off_c, 9, 0, 0
2, 315840, Note_on_c, 9, 36, 95
2, 315840, Note_on_c, 9, 38, 95
2, 315840, Note_on_c, 9, 42, 95
2, 315960, Note_off_c, 9, 0, 0
2, 315960, Note_on_c, 9, 36, 95
2, 315960, Note_on_c, 9, 42, 95
2, 316080, Note_off_c, 9, 0, 0
2, 316080, Note_on_c, 9, 42, 95
2, 316200, Note_off_c, 9, 0, 0
2, 316320, Note_on_c, 9, 36, 95
2, 316320, Note_on_c, 9, 42, 95
2, 316440, Note_off_c, 9, 0, 0
2, 317520, Note_on_c, 9, 36, 95
2, 317520, Note_on_c, 9, 38, 95
2, 317520, Note_on_c, 9, 42, 95
2, 317640, Note_off_c, 9, 0, 0
2, 317640, Note_on_c, 9, 36, 95
2, 317640, Note_on_c, 9, 42, 95
2, 317760, Note_off_c, 9, 0, 0
2, 317760, Note_on_c, 9, 42, 95
2, 317880, Note_off_c, 9, 0, 0
2, 318000, Note_on_c, 9, 36, 95
2, 318000, Note_on_c, 9, 42, 95
2, 318120, Note_off_c, 9, 0, 0
2, 319680, Note_on_c, 9, 36, 95
2, 319680, Note_on_c, 9, 38, 95
2, 319680, Note_on_c, 9, 42, 95
2, 319800, Note_off_c, 9, 0, 0
2, 319800, Note_on_c, 9, 42, 95
2, 319920, Note_off_c, 9, 0, 0
2, 319920, Note_on_c, 9, 42, 95
2, 320040, Note_off_c, 9, 0, 0
2, 320160, Note_on_c, 9, 36, 95
2, 320160, Note_on_c, 9, 42, 95
2, 320280, Note_off_c, 9, 0, 0
2, 321360, Note_on_c, 9, 36, 95
2, 321360, Note_on_c, 9, 38, 95
2, 321360, Note_on_c, 9, 42, 95
2, 321480, Note_off_c, 9, 0, 0
2, 321480, Note_on_c, 9, 42, 95
2, 321600, Note_off_c, 9, 0, 0
2, 321600, Note_on_c, 9, 42, 95
2, 321720, Note_off_c, 9, 0, 0
2, 321840, Note_on_c, 9, 36, 95
2, 321840, Note_on_c, 9, 42, 95
2, 321960, Note_off_c, 9, 0, 0
2, 323040, Note_on_c, 9, 36, 95
2, 323040, Note_on_c, 9, 38, 95
2, 323040, Note_on_c, 9, 42, 95
2, 323160, Note_off_c, 9, 0, 0
2, 323160, Note_on_c, 9, 42, 95
2, 323280, Note_off_c, 9, 0, 0
2, 323280, Note_on_c, 9, 42, 95
2, 323400, Note_off_c, 9, 0, 0
2, 323520, Note_on_c, 9, 36, 95
2, 323520, Note_on_c, 9, 42, 95
2, 323640, Note_off_c, 9, 0, 0
2, 323640, Note_on_c, 9, 42, 95
2, 323760, Note_off_c, 9, 0, 0
2, 323760, Note_on_c, 9, 42, 95
2, 323880, Note_off_c, 9, 0, 0
2, 324000, Note_on_c, 9, 42, 95
2, 324120, Note_off_c, 9, 0, 0
2, 324480, Note_on_c, 9, 36, 95
2, 324480, Note_on_c, 9, 42, 95
2, 324600, Note_off_c, 9, 0, 0
2, 325200, Note_on_c, 9, 36, 95
2, 325200, Note_on_c, 9, 42, 95
2, 325320, Note_off_c, 9, 0, 0
2, 325320, Note_on_c, 9, 42, 95
2, 325440, Note_off_c, 9, 0, 0
2, 325440, Note_on_c, 9, 42, 95
2, 325560, Note_off_c, 9, 0, 0
2, 325680, Note_on_c, 9, 36, 95
2, 325680, Note_on_c, 9, 42, 95
2, 325800, Note_off_c, 9, 0, 0
2, 327360, Note_on_c, 9, 36, 95
2, 327360, Note_on_c, 9, 42, 95
2, 327480, Note_off_c, 9, 0, 0
2, 327840, Note_on_c, 9, 36, 95
2, 327840, Note_on_c, 9, 42, 95
2, 327960, Note_off_c, 9, 0, 0
2, 328560, Note_on_c, 9, 36, 95
2, 328560, Note_on_c, 9, 38, 95
2, 328560, Note_on_c, 9, 42, 95
2, 328680, Note_off_c, 9, 0, 0
2, 328680, Note_on_c, 9, 42, 95
2, 328800, Note_off_c, 9, 0, 0
2, 328800, Note_on_c, 9, 42, 95
2, 328920, Note_off_c, 9, 0, 0
2, 329040, Note_on_c, 9, 36, 95
2, 329040, Note_on_c, 9, 38, 95
2, 329040, Note_on_c, 9, 42, 95
2, 329160, Note_off_c, 9, 0, 0
2, 329160, Note_on_c, 9, 42, 95
2, 329280, Note_off_c, 9, 0, 0
2, 329280, Note_on_c, 9, 42, 95
2, 329400, Note_off_c, 9, 0, 0
2, 329400, Note_on_c, 9, 42, 95
2, 329520, Note_off_c, 9, 0, 0
2, 329520, Note_on_c, 9, 42, 95
2, 329640, Note_off_c, 9, 0, 0
2, 331200, Note_on_c, 9, 36, 95
2, 331200, Note_on_c, 9, 38, 95
2, 331200, Note_on_c, 9, 42, 95
2, 331320, Note_off_c, 9, 0, 0
2, 331320, Note_on_c, 9, 42, 95
2, 331440, Note_off_c, 9, 0, 0
2, 331440, Note_on_c, 9, 42, 95
2, 331560, Note_off_c, 9, 0, 0
2, 331680, Note_on_c, 9, 36, 95
2, 331680, Note_on_c, 9, 42, 95
2, 331800, Note_off_c, 9, 0, 0
2, 332880, Note_on_c, 9, 36, 95
2, 332880, Note_on_c, 9, 38, 95
2, 332880, Note_on_c, 9, 42, 95
2, 333000, Note_off_c, 9, 0, 0
2, 333000, Note_on_c, 9, 42, 95
2, 333120, Note_off_c, 9, 0, 0
2, 333120, Note_on_c, 9, 42, 95
2, 333240, Note_off_c, 9, 0, 0
2, 333360, Note_on_c, 9, 36, 95
2, 333360, Note_on_c, 9, 42, 95
2, 333480, Note_off_c, 9, 0, 0
2, 335040, Note_on_c, 9, 36, 95
2, 335040, Note_on_c, 9, 38, 95
2, 335040, Note_on_c, 9, 42, 95
2, 335160, Note_off_c, 9, 0, 0
2, 335160, Note_on_c, 9, 42, 95
2, 335280, Note_off_c, 9, 0, 0
2, 335280, Note_on_c, 9, 42, 95
2, 335400, Note_off_c, 9, 0, 0
2, 335520, Note_on_c, 9, 36, 95
2, 335520, Note_on_c, 9, 42, 95
2, 335640, Note_off_c, 9, 0, 0
2, 336720, Note_on_c, 9, 36, 95
2, 336720, Note_on_c, 9, 38, 95
2, 336720, Note_on_c, 9, 42, 95
2, 336840, Note_off_c, 9, 0, 0
2, 336840, Note_on_c, 9, 42, 95
2, 336960, Note_off_c, 9, 0, 0
2, 336960, Note_on_c, 9, 42, 95
2, 337080, Note_off_c, 9, 0, 0
2, 337200, Note_on_c, 9, 36, 95
2, 337200, Note_on_c, 9, 42, 95
2, 337320, Note_off_c, 9, 0, 0
2, 338400, Note_on_c, 9, 36, 95
2, 338400, Note_on_c, 9, 38, 95
2, 338400, Note_on_c, 9, 42, 95
2, 338520, Note_off_c, 9, 0, 0
2, 338520, Note_on_c, 9, 42, 95
2, 338640, Note_off_c, 9, 0, 0
2, 338640, Note_on_c, 9, 42, 95
2, 338760, Note_off_c, 9, 0, 0
2, 338880, Note_on_c, 9, 36, 95
2, 338880, Note_on_c, 9, 42, 95
2, 339000, Note_off_c, 9, 0, 0
2, 339000, Note_on_c, 9, 42, 95
2, 339120, Note_off_c, 9, 0, 0
2, 339120, Note_on_c, 9, 42, 95
2, 339240, Note_off_c, 9, 0, 0
2, 339360, Note_on_c, 9, 42, 95
2, 339480, Note_off_c, 9, 0, 0
2, 339840, Note_on_c, 9, 36, 95
2, 339840, Note_on_c, 9, 42, 95
2, 339960, Note_off_c, 9, 0, 0
2, 340560, Note_on_c, 9, 36, 95
2, 340560, Note_on_c, 9, 42, 95
2, 340680, Note_off_c, 9, 0, 0
2, 340680, Note_on_c, 9, 42, 95
2, 340800, Note_off_c, 9, 0, 0
2, 340800, Note_on_c, 9, 42, 95
2, 340920, Note_off_c, 9, 0, 0
2, 341040, Note_on_c, 9, 36, 95
2, 341040, Note_on_c, 9, 42, 95
2, 341160, Note_off_c, 9, 0, 0
2, 342720, Note_on_c, 9, 36, 95
2, 342720, Note_on_c, 9, 42, 95
2, 342840, Note_off_c, 9, 0, 0
2, 343200, Note_on_c, 9, 36, 95
2, 343200, Note_on_c, 9, 42, 95
2, 343320, Note_off_c, 9, 0, 0
2, 343920, Note_on_c, 9, 36, 95
2, 343920, Note_on_c, 9, 38, 95
2, 343920, Note_on_c, 9, 42, 95
2, 344040, Note_off_c, 9, 0, 0
2, 344040, Note_on_c, 9, 42, 95
2, 344160, Note_off_c, 9, 0, 0
2, 344160, Note_on_c, 9, 42, 95
2, 344280, Note_off_c, 9, 0, 0
2, 344400, Note_on_c, 9, 36, 95
2, 344400, Note_on_c, 9, 38, 95
2, 344400, Note_on_c, 9, 42, 95
2, 344520, Note_off_c, 9, 0, 0
2, 344520, Note_on_c, 9, 42, 95
2, 344640, Note_off_c, 9, 0, 0
2, 344640, Note_on_c, 9, 42, 95
2, 344760, Note_off_c, 9, 0, 0
2, 344760, Note_on_c, 9, 42, 95
2, 344880, Note_off_c, 9, 0, 0
2, 344880, Note_on_c, 9, 42, 95
2, 345000, Note_off_c, 9, 0, 0
2, 346560, Note_on_c, 9, 36, 95
2, 346560, Note_on_c, 9, 38, 95
2, 346560, Note_on_c, 9, 42, 95
2, 346680, Note_off_c, 9, 0, 0
2, 346680, Note_on_c, 9, 42, 95
2, 346800, Note_off_c, 9, 0, 0
2, 346800, Note_on_c, 9, 42, 95
2, 346920, Note_off_c, 9, 0, 0
2, 347040, Note_on_c, 9, 36, 95
2, 347040, Note_on_c, 9, 42, 95
2, 347160, Note_off_c, 9, 0, 0
2, 348240, Note_on_c, 9, 36, 95
2, 348240, Note_on_c, 9, 38, 95
2, 348240, Note_on_c, 9, 42, 95
2, 348360, Note_off_c, 9, 0, 0
2, 348360, Note_on_c, 9, 42, 95
2, 348480, Note_off_c, 9, 0, 0
2, 348480, Note_on_c, 9, 42, 95
2, 348600, Note_off_c, 9, 0, 0
2, 348720, Note_on_c, 9, 36, 95
2, 348720, Note_on_c, 9, 42, 95
2, 348840, Note_off_c, 9, 0, 0
2, 350400, Note_on_c, 9, 36, 95
2, 350400, Note_on_c, 9, 38, 95
2, 350400, Note_on_c, 9, 42, 95
2, 350520, Note_off_c, 9, 0, 0
2, 350520, Note_on_c, 9, 42, 95
2, 350640, Note_off_c, 9, 0, 0
2, 350640, Note_on_c, 9, 42, 95
2, 350760, Note_off_c, 9, 0, 0
2, 350880, Note_on_c, 9, 36, 95
2, 350880, Note_on_c, 9, 42, 95
2, 351000, Note_off_c, 9, 0, 0
2, 352080, Note_on_c, 9, 36, 95
2, 352080, Note_on_c, 9, 38, 95
2, 352080, Note_on_c, 9, 42, 95
2, 352200, Note_off_c, 9, 0, 0
2, 352200, Note_on_c, 9, 42, 95
2, 352320, Note_off_c, 9, 0, 0
2, 352320, Note_on_c, 9, 42, 95
2, 352440, Note_off_c, 9, 0, 0
2, 352560, Note_on_c, 9, 36, 95
2, 352560, Note_on_c, 9, 42, 95
2, 352680, Note_off_c, 9, 0, 0
2, 353760, Note_on_c, 9, 36, 95
2, 353760, Note_on_c, 9, 38, 95
2, 353760, Note_on_c, 9, 42, 95
2, 353880, Note_off_c, 9, 0, 0
2, 353880, Note_on_c, 9, 42, 95
2, 354000, Note_off_c, 9, 0, 0
2, 354000, Note_on_c, 9, 42, 95
2, 354120, Note_off_c, 9, 0, 0
2, 354240, Note_on_c, 9, 36, 95
2, 354240, Note_on_c, 9, 42, 95
2, 354360, Note_off_c, 9, 0, 0
2, 354360, Note_on_c, 9, 42, 95
2, 354480, Note_off_c, 9, 0, 0
2, 354480, Note_on_c, 9, 42, 95
2, 354600, Note_off_c, 9, 0, 0
2, 354720, Note_on_c, 9, 42, 95
2, 354840, Note_off_c, 9, 0, 0
2, 355200, Note_on_c, 9, 36, 95
2, 355200, Note_on_c, 9, 42, 95
2, 355320, Note_off_c, 9, 0, 0
2, 355920, Note_on_c, 9, 36, 95
2, 355920, Note_on_c, 9, 42, 95
2, 356040, Note_off_c, 9, 0, 0
2, 356040, Note_on_c, 9, 42, 95
2, 356160, Note_off_c, 9, 0, 0
2, 356160, Note_on_c, 9, 42, 95
2, 356280, Note_off_c, 9, 0, 0
2, 356400, Note_on_c, 9, 36, 95
2, 356400, Note_on_c, 9, 42, 95
2, 356520, Note_off_c, 9, 0, 0
2, 358080, Note_on_c, 9, 36, 95
2, 358080, Note_on_c, 9, 42, 95
2, 358200, Note_off_c, 9, 0, 0
2, 358560, Note_on_c, 9, 36, 95
2, 358560, Note_on_c, 9, 42, 95
2, 358680, Note_off_c, 9, 0, 0
2, 359280, Note_on_c, 9, 36, 95
2, 359280, Note_on_c, 9, 38, 95
2, 359280, Note_on_c, 9, 42, 95
2, 359400, Note_off_c, 9, 0, 0
2, 359400, Note_on_c, 9, 42, 95
2, 359520, Note_off_c, 9, 0, 0
2, 359520, Note_on_c, 9, 42, 95
2, 359640, Note_off_c, 9, 0, 0
2, 359760, Note_on_c, 9, 36, 95
2, 359760, Note_on_c, 9, 38, 95
2, 359760, Note_on_c, 9, 42, 95
2, 359880, Note_off_c, 9, 0, 0
2, 359880, Note_on_c, 9, 42, 95
2, 360000, Note_off_c, 9, 0, 0
2, 360000, Note_on_c, 9, 42, 95
2, 360120, Note_off_c, 9, 0, 0
2, 360120, Note_on_c, 9, 42, 95
2, 360240, Note_off_c, 9, 0, 0
2, 360240, Note_on_c, 9, 42, 95
2, 360360, Note_off_c, 9, 0, 0
2, 361920, Note_on_c, 9, 36, 95
2, 361920, Note_on_c, 9, 38, 95
2, 361920, Note_on_c, 9, 42, 95
2, 362040, Note_off_c, 9, 0, 0
2, 362040, Note_on_c, 9, 42, 95
2, 362160, Note_off_c, 9, 0, 0
2, 362160, Note_on_c, 9, 42, 95
2, 362280, Note_off_c, 9, 0, 0
2, 362400, Note_on_c, 9, 36, 95
2, 362400, Note_on_c, 9, 42, 95
2, 362520, Note_off_c, 9, 0, 0
2, 363600, Note_on_c, 9, 36, 95
2, 363600, Note_on_c, 9, 38, 95
2, 363600, Note_on_c, 9, 42, 95
2, 363720, Note_off_c, 9, 0, 0
2, 363720, Note_on_c, 9, 42, 95
2, 363840, Note_off_c, 9, 0, 0
2, 363840, Note_on_c, 9, 42, 95
2, 363960, Note_off_c, 9, 0, 0
2, 364080, Note_on_c, 9, 36, 95
2, 364080, Note_on_c, 9, 42, 95
2, 364200, Note_off_c, 9, 0, 0
2, 365760, Note_on_c, 9, 36, 95
2, 365760, Note_on_c, 9, 38, 95
2, 365760, Note_on_c, 9, 42, 95
2, 365880, Note_off_c, 9, 0, 0
2, 365880, Note_on_c, 9, 42, 95
2, 366000, Note_off_c, 9, 0, 0
2, 366000, Note_on_c, 9, 42, 95
2, 366120, Note_off_c, 9, 0, 0
2, 366240, Note_on_c, 9, 36, 95
2, 366240, Note_on_c, 9, 42, 95
2, 366360, Note_off_c, 9, 0, 0
2, 367440, Note_on_c, 9, 36, 95
2, 367440, Note_on_c, 9, 38, 95
2, 367440, Note_on_c, 9, 42, 95
2, 367560, Note_off_c, 9, 0, 0
2, 367560, Note_on_c, 9, 42, 95
2, 367680, Note_off_c, 9, 0, 0
2, 367680, Note_on_c, 9, 42, 95
2, 367800, Note_off_c, 9, 0, 0
2, 367920, Note_on_c, 9, 36, 95
2, 367920, Note_on_c, 9, 42, 95
2, 368040, Note_off_c, 9, 0, 0
2, 369120, Note_on_c, 9, 36, 95
2, 369120, Note_on_c, 9, 38, 95
2, 369120, Note_on_c, 9, 42, 95
2, 369240, Note_off_c, 9, 0, 0
2, 369240, Note_on_c, 9, 42, 95
2, 369360, Note_off_c, 9, 0, 0
2, 369360, Note_on_c, 9, 42, 95
2, 369480, Note_off_c, 9, 0, 0
2, 369600, Note_on_c, 9, 36, 95
2, 369600, Note_on_c, 9, 42, 95
2, 369720, Note_off_c, 9, 0, 0
2, 369720, Note_on_c, 9, 42, 95
2, 369840, Note_off_c, 9, 0, 0
2, 369840, Note_on_c, 9, 42, 95
2, 369960, Note_off_c, 9, 0, 0
2, 370080, Note_on_c, 9, 42, 95
2, 370200, Note_off_c, 9, 0, 0
2, 370560, Note_on_c, 9, 36, 95
2, 370560, Note_on_c, 9, 42, 95
2, 370680, Note_off_c, 9, 0, 0
2, 371280, Note_on_c, 9, 36, 95
2, 371280, Note_on_c, 9, 42, 95
2, 371400, Note_off_c, 9, 0, 0
2, 371400, Note_on_c, 9, 42, 95
2, 371520, Note_off_c, 9, 0, 0
2, 371520, Note_on_c, 9, 42, 95
2, 371640, Note_off_c, 9, 0, 0
2, 371760, Note_on_c, 9, 36, 95
2, 371760, Note_on_c, 9, 42, 95
2, 371880, Note_off_c, 9, 0, 0
2, 373440, Note_on_c, 9, 36, 95
2, 373440, Note_on_c, 9, 38, 95
2, 373440, Note_on_c, 9, 42, 95
2, 373560, Note_off_c, 9, 0, 0
2, 373560, Note_on_c, 9, 36, 95
2, 373560, Note_on_c, 9, 42, 95
2, 373680, Note_off_c, 9, 0, 0
2, 373680, Note_on_c, 9, 42, 95
2, 373800, Note_off_c, 9, 0, 0
2, 373920, Note_on_c, 9, 36, 95
2, 373920, Note_on_c, 9, 42, 95
2, 374040, Note_off_c, 9, 0, 0
2, 375120, Note_on_c, 9, 36, 95
2, 375120, Note_on_c, 9, 38, 95
2, 375120, Note_on_c, 9, 42, 95
2, 375240, Note_off_c, 9, 0, 0
2, 375240, Note_on_c, 9, 42, 95
2, 375360, Note_off_c, 9, 0, 0
2, 375360, Note_on_c, 9, 42, 95
2, 375480, Note_off_c, 9, 0, 0
2, 375600, Note_on_c, 9, 36, 95
2, 375600, Note_on_c, 9, 42, 95
2, 375720, Note_off_c, 9, 0, 0
2, 376440, End_track
